<?xml version="1.0" standalone="no"?>
<!DOCTYPE svg PUBLIC "-//W3C//DTD SVG 1.1//EN" "http://www.w3.org/Graphics/SVG/1.1/DTD/svg11.dtd" >
<svg xmlns="http://www.w3.org/2000/svg" xmlns:xlink="http://www.w3.org/1999/xlink" version="1.1">
<metadata>
Created by FontForge 20170731 at Sun Jan 15 10:16:21 2017
 By Aleksey,,,
Copyright (c) 2017 by MA^ns Grebck. All rights reserved.
</metadata>
<defs>
<font id="IndianaScript" horiz-adv-x="350" >
  <font-face 
    font-family="Indiana Script"
    font-weight="400"
    font-stretch="normal"
    units-per-em="1000"
    panose-1="0 0 0 0 0 0 0 0 0 0"
    ascent="800"
    descent="-200"
    x-height="364"
    cap-height="649"
    bbox="-3344.04 -483.368 1344 838"
    underline-thickness="50"
    underline-position="-150"
    unicode-range="U+000D-FB02"
  />
<missing-glyph horiz-adv-x="274" 
 />
    <glyph glyph-name="fi" unicode="fi" horiz-adv-x="530" 
d="M422 547q46 8 77 6t50 -12t27 -25t9 -32t-4.5 -35t-13.5 -33q-16 -30 -43.5 -40t-48.5 -5t-28 22.5t19 42.5q16 16 14 32t-19.5 23.5t-49.5 1.5t-76 -34q-51 -32 -84 -72t-49 -79t-17 -71t12 -48q5 -7 14 -8t19.5 1t20.5 7.5t18 12.5l3 4q14 19 33 42t39 46.5t40.5 46
t37.5 41.5q9 -17 28.5 -30.5t45.5 -14.5q-5 -6 -12 -13.5t-14 -15.5t-13 -14.5t-8 -9.5q-21 -26 -41.5 -53t-35 -50t-19.5 -40t4 -24t29 -2.5t44.5 17.5t50.5 32t49 42q13 13 24 15t15.5 -4t2 -17.5t-14.5 -23.5q-31 -31 -74.5 -67t-87.5 -63.5t-84 -40.5t-64 2
q-26 16 -32.5 47t14.5 79q-26 -5 -42.5 6t-20.5 34q-18 -55 -49 -111.5t-68 -99t-77 -63t-77 -2.5q-18 8 -24 29t-0.5 51t21 66t41.5 73q84 121 158.5 201t137 129t111.5 72t82 29zM19 38q6 -13 22.5 5.5t34 53t32.5 76.5t18 76q-26 -34 -48 -66.5t-37 -60.5t-21 -50t-1 -34
z" />
    <glyph glyph-name="fl" unicode="fl" horiz-adv-x="578" 
d="M732 526q-13 -9 -33.5 -27.5t-43.5 -42t-47.5 -49.5t-46 -49.5t-39 -43.5t-25.5 -30q-21 -26 -41.5 -53t-35 -50t-19.5 -40t4 -24t29 -2.5t44.5 17.5t50.5 32t49 42q13 13 24 15t15.5 -4t2 -17.5t-14.5 -23.5q-31 -31 -74.5 -67t-87.5 -63.5t-84 -40.5t-64 2
q-17 10 -26 27.5t-7 42.5t15.5 57t42.5 72q11 16 23.5 32t25.5 32q-68 -30 -121 -35t-80 18q-1 -49 -15 -97.5t-36.5 -92t-50.5 -79.5t-57.5 -59t-59 -31.5t-54.5 3.5q-18 8 -24 29t-0.5 51t21 66t41.5 73q84 121 158.5 201t137 129t111.5 72t82 29q25 5 44 -1t29.5 -19
t13.5 -30.5t-3 -34.5q-8 -21 -25.5 -36.5t-38 -25t-40 -13.5t-31.5 -1t-13 13t16 27q16 16 20 28t-2 17.5t-20.5 3t-36.5 -15.5q-31 -18 -56.5 -40.5t-43 -43.5t-26 -38.5t-5.5 -26.5t18 -15.5t42 -6.5t65 7.5t85 26.5q33 37 65.5 71.5t60 62t47.5 46t28 24.5h117zM19 38
q6 -13 22.5 5.5t34 53t32.5 76.5t18 76q-26 -34 -48 -66.5t-37 -60.5t-21 -50t-1 -34z" />
    <glyph glyph-name="swsh1" unicode="_&#x31;" horiz-adv-x="100" 
d="M-53 152q13 10 24 11t15.5 -4t2 -14.5t-15.5 -19.5q-32 -24 -52.5 -51.5t-30.5 -54.5t-10 -50.5t11 -38.5q8 2 15 2.5t15 1.5q66 8 99 -6t34 -33t-30.5 -34t-93.5 -8q-32 4 -54 18q-155 -20 -282 -56t-236.5 -73t-206 -67t-189.5 -38q-86 -7 -149.5 15t-104 62
t-56.5 92.5t-5 107.5q56 -26 113.5 -42.5t126.5 -23.5t155 -5t199.5 11.5t259 27t334.5 41.5q-8 23 -5.5 51t16.5 58t39 60.5t62 59.5z" />
    <glyph glyph-name="swsh2" unicode="_&#x32;" horiz-adv-x="100" 
d="M-53 152q13 10 24 11t15.5 -4t2 -14.5t-15.5 -19.5q-32 -24 -52.5 -51.5t-30.5 -54.5t-10 -50.5t11 -38.5q8 2 15 2.5t15 1.5q66 8 99 -6t34 -33t-30.5 -34t-93.5 -8q-23 3 -45 13q-127 -14 -252.5 -43.5t-248 -64t-242 -70t-233.5 -62t-222.5 -39.5t-209.5 -3
q-86 9 -159.5 36t-129 69.5t-90.5 99.5t-44 125q151 -69 338 -91t409.5 -12.5t481 42t552.5 70.5q-8 23 -5.5 51t16.5 58t39 60.5t62 59.5z" />
    <glyph glyph-name="swsh3" unicode="_&#x33;" horiz-adv-x="100" 
d="M-53 152q13 10 24 11t15.5 -4t2 -14.5t-15.5 -19.5q-32 -24 -52.5 -51.5t-30.5 -54.5t-10 -50.5t11 -38.5q8 2 15 2.5t15 1.5q66 8 99 -6t34 -33t-30.5 -34t-93.5 -8q-23 3 -45 13q-100 -11 -221.5 -30.5t-255.5 -43.5t-276.5 -51t-284 -52.5t-277.5 -48t-258.5 -37.5
t-225.5 -21t-179 2q-86 9 -159.5 36t-129 69.5t-90.5 99.5t-44 125q75 -35 182.5 -57t239 -34t282.5 -14.5t314 2.5t334 15.5t341.5 26t337 33.5t320.5 37q-8 23 -5.5 51t16.5 58t39 60.5t62 59.5z" />
    <glyph glyph-name="swsh4" unicode="_&#x34;" horiz-adv-x="100" 
d="M-53 152q13 10 24 11t15.5 -4t2 -14.5t-15.5 -19.5q-31 -24 -51.5 -51.5t-31 -54t-10.5 -49.5t10 -39l31 3q67 6 100 -8t33.5 -32.5t-31 -33t-93.5 -7.5q-32 5 -54 19q-132 -11 -293 -30.5t-339 -44t-367.5 -51.5t-378 -53.5t-370 -49.5t-344 -38.5t-300 -21.5t-237.5 1
q-86 6 -159.5 33t-129 70t-90.5 101t-44 126q102 -47 267 -73.5t382.5 -36t481.5 -4t564.5 22.5t632 43.5t682.5 59.5q-14 47 13 108t100 118z" />
    <glyph glyph-name="swsh5" unicode="_&#x35;" horiz-adv-x="100" 
d="M-53 152q13 10 24 11t15.5 -4t2 -14.5t-15.5 -19.5q-36 -28 -60 -65.5t-34.5 -76t-7 -73.5t23.5 -57q41 -18 59.5 -36.5t20 -32.5t-11.5 -21.5t-34 -3.5q-29 6 -49 24.5t-33 45.5q-11 4 -24 7t-30 5q-180 29 -321.5 30t-246.5 -17.5t-175 -52t-108.5 -74.5t-46.5 -85
t11 -82q-46 -8 -90.5 1.5t-79 30.5t-55.5 51t-20.5 64t27 69.5t86.5 66.5q51 26 121.5 45.5t154.5 31t178 15t192.5 -1t197 -17.5t191.5 -35l24 -6q-6 33 -2.5 70t17.5 74t38.5 71.5t60.5 61.5z" />
    <glyph glyph-name="swsh6" unicode="_&#x36;" horiz-adv-x="100" 
d="M-53 152q13 10 24 11t15.5 -4t2 -14.5t-15.5 -19.5q-36 -27 -60 -66.5t-35 -80.5t-8.5 -79t18.5 -63q45 -18 65 -37.5t22 -34t-11 -22.5t-35 -3q-27 6 -47 24.5t-32 44.5q-22 7 -57 13q-204 33 -402 41t-373 -5t-319 -43t-241 -72.5t-139 -94.5t-13 -107q-46 -8 -91 2
t-79.5 31.5t-56 52t-20.5 64.5t27.5 68.5t87.5 64.5q53 26 134.5 45.5t183 32.5t217.5 20t237 9t242.5 -2t234 -12.5t211.5 -22.5t175 -32q7 -2 13.5 -3.5t12.5 -3.5q-7 36 -4 76.5t16.5 80t38 76.5t61.5 65z" />
    <glyph glyph-name="swsh7" unicode="_&#x37;" horiz-adv-x="100" 
d="M-53 152q13 10 24 11t15.5 -4t2 -14.5t-15.5 -19.5q-35 -27 -59 -65.5t-35 -79t-9.5 -78t16.5 -62.5q46 -18 66.5 -37.5t22.5 -35t-11 -24.5t-35 -4q-25 5 -44 21.5t-32 40.5q-56 16 -121.5 28t-132.5 20.5t-132.5 14t-121.5 8.5q-276 18 -519.5 14t-445 -24.5
t-357.5 -55t-257 -77.5t-143.5 -91.5t-16.5 -97.5q-46 -8 -91 2t-79.5 31.5t-56 52t-20.5 64.5t27.5 68.5t87.5 64.5q53 26 154 47t236 36.5t296.5 25.5t336 13.5t354 0.5t351 -13t327 -28t280.5 -44l25 -6q-7 36 -3.5 76t17 80t38.5 76.5t61 64.5z" />
    <glyph glyph-name="swsh8" unicode="_&#x38;" horiz-adv-x="100" 
d="M-53 152q13 10 24 11t15.5 -4t2 -14.5t-15.5 -19.5q-36 -28 -60 -68t-35 -81.5t-8 -80t20 -62.5q48 -15 68 -33.5t21 -33.5t-13.5 -23.5t-36.5 -3.5q-25 5 -44 21.5t-32 40.5q-56 16 -121.5 28.5t-132.5 21.5t-132.5 14t-121.5 7q-371 13 -701 7t-607.5 -26t-496.5 -53.5
t-366.5 -76.5t-217.5 -95t-50 -108q-46 -8 -91.5 3t-81 34t-57 54.5t-20.5 65.5t28 67t90 59q70 29 181 52.5t251.5 41.5t306.5 30.5t345 20t367.5 9.5t374 -1t364 -11.5t338.5 -22t296 -32.5t238 -43q-8 36 -6 77t15.5 82t38.5 79t63 67z" />
    <glyph glyph-name="swsh9" unicode="_&#x39;" horiz-adv-x="100" 
d="M-1969 -84q94 -13 221 -22.5t275 -14.5t312 -5t333 5t337.5 16t325.5 29q-16 47 10.5 109t101.5 119q13 10 24 11t15.5 -4t2 -14.5t-15.5 -19.5q-32 -24 -52.5 -51.5t-30.5 -54t-10 -50t11 -38.5l30 3q66 8 99 -6t34 -33t-30.5 -34t-93.5 -8q-24 3 -45 14
q-93 -9 -200.5 -21.5t-223 -27t-235.5 -31t-237 -33.5t-227 -34.5t-206.5 -33.5t-175.5 -30t-133 -26z" />
    <glyph glyph-name="swsh0" unicode="_&#x30;" horiz-adv-x="100" 
d="M-2849 -84q82 -5 212.5 -10t294.5 -9t352.5 -7.5t387.5 -4.5t399.5 0t388 5.5t353.5 12.5t296 21q-15 47 11.5 109t100.5 119q13 10 24 11t15.5 -4t2 -14.5t-15.5 -19.5q-32 -24 -52.5 -51.5t-30.5 -54t-10 -50t11 -38.5l30 3q66 8 99 -6t34 -33t-30.5 -34t-93.5 -8
q-35 4 -59 22q-82 -7 -195.5 -17t-248 -21.5t-285 -24.5t-307 -27t-314.5 -28t-306.5 -28.5t-283.5 -28t-246 -26t-193 -24t-125 -20.5z" />
    <glyph glyph-name=".notdef" horiz-adv-x="274" 
 />
    <glyph glyph-name=".null" horiz-adv-x="0" 
 />
    <glyph glyph-name="nonmarkingreturn" unicode="&#xd;" horiz-adv-x="274" 
 />
    <glyph glyph-name="NULL" horiz-adv-x="0" 
 />
    <glyph glyph-name="NULL" horiz-adv-x="0" 
 />
    <glyph glyph-name="space" unicode=" " horiz-adv-x="287" 
 />
    <glyph glyph-name="exclam" unicode="!" horiz-adv-x="325" 
d="M27 88q0 35 24.5 60t59.5 25t60 -25t25 -60t-25 -59.5t-60 -24.5t-59.5 24.5t-24.5 59.5zM160 243q9 15 29 47t43.5 70.5t47 76t39.5 63.5q17 26 42 44t51 27t49 9t35 -9t9.5 -27t-27.5 -46q-11 -12 -27.5 -29t-36.5 -37t-42 -41.5t-43 -42.5q-50 -48 -107 -102
q-15 -1 -27 -2q-11 -1 -20.5 -1h-14.5z" />
    <glyph glyph-name="quotedbl" unicode="&#x22;" horiz-adv-x="418" 
d="M227 488q0 18 6.5 33.5t18 27t26.5 18t33 6.5q46 -1 64.5 -29t5 -67.5t-62.5 -82.5t-139 -74l-29 35q33 18 49 34t22.5 32t6 32t-0.5 35zM411 488q0 18 6.5 33.5t18 27t26.5 18t33 6.5q46 -1 64.5 -29t5 -67.5t-62.5 -82.5t-139 -74l-29 35q33 18 49 34t22.5 32t6 32
t-0.5 35z" />
    <glyph glyph-name="numbersign" unicode="#" horiz-adv-x="502" 
d="M237 127h-119l-112 -127h-73l112 127h-50l48 66h60l100 113h-69l48 65h79l112 127h73l-112 -127h119l112 127h73l-112 -127h45l-48 -65h-55l-100 -113h64l-48 -66h-74l-112 -127h-73zM176 193h119l100 113h-119z" />
    <glyph glyph-name="dollar" unicode="$" horiz-adv-x="600" 
d="M446 583q28 14 56.5 20.5t54.5 7.5l43 58h72l-49 -65q20 -5 35 -15t24 -23q4 -6 12.5 5.5t13.5 26.5h44l-114 -222h-39l7 21q15 47 7 80t-29 51t-51 20t-58 -12q-27 -14 -36 -38t-7 -55t11.5 -67.5t18 -75.5t13 -79.5t-3 -78.5t-30.5 -73t-70 -63q-35 -21 -78 -28t-84 -1
l-55 -74h-72l68 93q-17 8 -30.5 21t-20.5 30q-2 4 -9 -1.5t-15.5 -15t-16 -21t-10.5 -18.5h-44l114 222h40q-3 -5 -4.5 -10.5t-3.5 -10.5q-15 -47 -6 -81t31.5 -53.5t53 -22.5t57.5 12q35 19 47.5 46.5t12.5 60.5t-8 70.5t-16 76.5t-11 78t8 75.5t40.5 69.5t86.5 59z" />
    <glyph glyph-name="percent" unicode="%" horiz-adv-x="554" 
d="M598 562h73l-665 -562h-73zM156 439q15 27 36 50t45.5 40.5t49.5 27.5t48 10q22 0 36.5 -10t19.5 -27.5t0.5 -40.5t-18.5 -50q-15 -26 -36.5 -49t-45.5 -40t-49.5 -27t-47.5 -10q-23 0 -37 10t-19.5 27t-1 40t19.5 49zM246 449q-15 -32 -20.5 -58t0.5 -29t21.5 15.5
t30.5 50.5t21 57.5t0 28.5q-6 4 -22 -14.5t-31 -50.5zM228 119q15 27 36 50t45.5 40.5t49.5 27.5t48 10q22 0 36.5 -10t19.5 -27.5t0.5 -40.5t-18.5 -50q-15 -26 -36.5 -49t-45.5 -40t-49.5 -27t-47.5 -10q-23 0 -37 10t-19.5 27t-1 40t19.5 49zM318 129q-15 -32 -20.5 -58
t0.5 -29t21.5 15.5t30.5 50.5t21 57.5t0 28.5q-6 4 -22 -14.5t-31 -50.5z" />
    <glyph glyph-name="ampersand" unicode="&#x26;" horiz-adv-x="666" 
d="M90 -51q-48 0 -71.5 17.5t-26 45.5t13 62.5t47 69t76.5 64t100 48.5q13 54 44.5 104.5t75 89.5t98 62.5t114.5 23.5q33 0 47.5 -13.5t11 -36t-23.5 -52t-53.5 -60.5t-81 -61.5t-105.5 -55.5q-2 -9 -2 -18.5t-1 -20.5q-5 -84 -2 -122.5t11.5 -47.5t20.5 4.5t25 33.5l19 31
q24 38 23 58.5t-12 29.5q-12 11 -36 11l23 38h238l-28 -44q-26 2 -52 -7q-23 -8 -49.5 -26.5t-49.5 -55.5l-44 -71q-38 -61 -84 -71t-81 30q-46 -26 -93 -43t-92 -17zM532 485q-25 0 -50 -9.5t-47 -30.5t-40 -54t-29 -80q64 31 107.5 62t64.5 56t19.5 40.5t-25.5 15.5z
M223 142q-5 29 -3 60q-36 -21 -57 -47.5t-26 -50.5t6.5 -41t40.5 -20q14 -2 30.5 1t33.5 9q-8 18 -14.5 40.5t-10.5 48.5z" />
    <glyph glyph-name="quotesingle" unicode="'" horiz-adv-x="231" 
d="M227 488q0 18 6.5 33.5t18 27t26.5 18t33 6.5q46 -1 64.5 -29t5 -67.5t-62.5 -82.5t-139 -74l-29 35q33 18 49 34t22.5 32t6 32t-0.5 35z" />
    <glyph glyph-name="parenleft" unicode="(" horiz-adv-x="381" 
d="M132 -90q-33 25 -48.5 65.5t-14.5 89.5t16.5 102.5t43.5 103.5q38 69 85.5 119.5t101.5 87t113.5 60.5t121.5 38l-5 -46q-66 -34 -138.5 -90t-139.5 -149q-32 -45 -56.5 -95.5t-38.5 -98t-16.5 -89.5t8.5 -71z" />
    <glyph glyph-name="parenright" unicode=")" horiz-adv-x="381" 
d="M318 600q33 -25 48.5 -65.5t15 -89.5t-16 -102.5t-43.5 -104.5q-39 -69 -86.5 -119.5t-101.5 -87t-113 -60t-122 -37.5l5 46q67 34 139.5 89.5t138.5 148.5q32 46 56.5 96t38.5 98t17 90t-8 71z" />
    <glyph glyph-name="asterisk" unicode="*" horiz-adv-x="446" 
d="M520 390l-132 -41l57 -48l-59 -23l-42 35l-42 -59h-74l43 59l-106 -33l-29 31l153 48l-60 51l60 24l43 -37l45 61h73l-46 -63l86 27z" />
    <glyph glyph-name="plus" unicode="+" horiz-adv-x="446" 
d="M338 298l-55 -75h90l-40 -59h-92l-51 -70h-74l51 70h-81l40 59h84l55 75h73z" />
    <glyph glyph-name="comma" unicode="," horiz-adv-x="325" 
d="M27 88q0 18 6.5 33.5t18 27t26.5 18t33 6.5q46 -1 64.5 -29t5 -67.5t-62.5 -82.5t-139 -74l-29 35q33 18 49 34t22.5 32t6 32t-0.5 35z" />
    <glyph glyph-name="hyphen" unicode="-" 
d="M134 239h167l-48 -75h-167z" />
    <glyph glyph-name="period" unicode="." horiz-adv-x="325" 
d="M27 88q0 35 24.5 60t59.5 25t60 -25t25 -60t-25 -59.5t-60 -24.5t-59.5 24.5t-24.5 59.5z" />
    <glyph glyph-name="slash" unicode="/" horiz-adv-x="366" 
d="M494 522h73l-609 -562h-73z" />
    <glyph glyph-name="zero" unicode="0" horiz-adv-x="526" 
d="M33 213q18 44 51 82.5t74.5 67t89 45t93.5 16.5t79.5 -16.5t51.5 -45t20 -67t-16 -82.5t-51 -82t-75 -66.5t-89.5 -45t-93.5 -16.5t-79.5 16.5t-51.5 45t-19.5 66.5t16.5 82zM147 138q13 -24 33.5 -39t44.5 -20t49 0t48 21q24 17 38.5 40.5t20 50t1.5 54t-17 51.5
q-29 48 -75 59.5t-92 -21.5q-24 -17 -40 -40.5t-22.5 -50t-4 -54t15.5 -51.5z" />
    <glyph glyph-name="one" unicode="1" horiz-adv-x="304" 
d="M40 336q49 0 91 13t72 29q35 18 64 42h112l-331 -420h-141l263 316q-26 -9 -50 -11q-21 -2 -43 4t-37 27z" />
    <glyph glyph-name="two" unicode="2" horiz-adv-x="458" 
d="M102 394q51 20 99.5 31.5t92.5 11.5q63 0 102.5 -17.5t54 -46t4 -66.5t-47.5 -78q-26 -28 -61.5 -54t-76.5 -49t-86 -42.5t-90 -33.5h221l-38 -50h-442l38 50h47q34 3 77 18.5t87.5 39t85.5 53t71 61.5q33 33 45.5 61.5t8 49.5t-25 32.5t-53.5 11.5q-32 0 -71.5 -12
t-80.5 -33z" />
    <glyph glyph-name="three" unicode="3" horiz-adv-x="474" 
d="M105 297l226 73h-266l38 50h412l-38 -50l-255 -83q47 6 82.5 -3.5t58 -27.5t32.5 -43t7 -51q-6 -47 -36 -84t-74 -62t-98 -37t-109 -8.5t-106 23t-90 57.5l26 48q36 -44 86.5 -58.5t98.5 -5.5t86 38t51 71q9 30 1.5 52t-26.5 35t-45.5 17.5t-55.5 1.5l-6 -1v48z" />
    <glyph glyph-name="four" unicode="4" horiz-adv-x="500" 
d="M-84 140q34 13 75 31.5t84.5 40.5t87.5 46t85 47q96 54 194 115h112l-215 -273h100l-38 -50h-102l-76 -97h-141l80 97h-133q-29 -7 -56.5 2.5t-56.5 40.5zM345 316q-71 -50 -124.5 -94t-96.5 -75h80z" />
    <glyph glyph-name="five" unicode="5" horiz-adv-x="477" 
d="M71 264l94 156h348l-38 -50h-278l-43 -77l79 7q43 4 76 -6t54 -29t30.5 -46t6.5 -57q-7 -47 -36.5 -84t-73.5 -62t-98 -37t-109 -8.5t-106 23t-90 57.5l26 48q36 -44 86.5 -58.5t98.5 -5.5t86 38t51 71q9 30 1.5 52t-26.5 35t-45.5 17.5t-55.5 1.5l-6 -1z" />
    <glyph glyph-name="six" unicode="6" horiz-adv-x="479" 
d="M495 400q-25 0 -59 -11t-72 -30t-77 -44.5t-74 -55.5q40 14 78 18t68 -3.5t48.5 -26.5t18.5 -49q0 -32 -18.5 -61.5t-49 -55t-69 -46.5t-77.5 -35.5t-75.5 -22.5t-62.5 -8q-58 0 -91 19t-41.5 51.5t7 74t56.5 86.5q43 48 106.5 91t132 75.5t134 51.5t113.5 19zM84 64
q7 -14 23.5 -22t36 -10t40 1.5t36.5 12.5q21 12 37 28.5t25.5 35.5t12.5 37t-3 33q-6 14 -18.5 22.5t-30 11t-38 -2t-41.5 -15.5q-15 -8 -33 -23t-31.5 -33.5t-19 -38t3.5 -37.5z" />
    <glyph glyph-name="seven" unicode="7" horiz-adv-x="422" 
d="M113 425q61 -13 120 -15.5t114 0t104.5 6.5t91.5 4l-431 -420h-171l415 373q-38 -9 -83.5 -22t-88 -22.5t-76 -12.5t-47.5 6t-4 33t56 70z" />
    <glyph glyph-name="eight" unicode="8" horiz-adv-x="502" 
d="M182 382q10 21 30 39.5t45 32t53.5 21.5t56.5 8t48 -8t31 -21.5t12 -32t-9 -39.5q-10 -19 -26.5 -35t-37.5 -30q44 -23 56.5 -64.5t-13.5 -94.5q-18 -38 -52 -70.5t-76.5 -56.5t-91 -38t-95.5 -14t-81 14t-52.5 38t-20 56.5t17.5 70.5q12 26 33 50.5t47 45t57 37t64 27.5
q-16 28 4 64zM111 102q10 -18 27 -31t36.5 -19t40 -3.5t37.5 14.5q18 12 31 31.5t19 41.5t4.5 44t-11.5 40q-11 18 -26.5 31.5t-34 19t-38 3t-36.5 -15.5q-18 -12 -31.5 -31.5t-21 -41t-7 -43.5t10.5 -40zM274 360q11 -15 30 -18.5t36 7.5q20 9 24 26.5t-6 31.5
q-11 15 -29 19t-35 -7q-19 -11 -25 -28t5 -31z" />
    <glyph glyph-name="nine" unicode="9" horiz-adv-x="489" 
d="M-54 6q25 0 59 11t72 30t77 44.5t74 55.5q-40 -14 -78 -18t-68 3.5t-48.5 26.5t-18.5 49q-1 32 18 61.5t49.5 55t69 46.5t77.5 35.5t75.5 22.5t62.5 8q58 0 91 -19t41.5 -51.5t-7.5 -74t-56 -86.5q-43 -48 -106.5 -91t-132 -75.5t-134 -51.5t-113.5 -19zM355 345
q-8 14 -24 21.5t-35 9t-39 -2.5t-36 -13q-21 -12 -37 -28.5t-25.5 -35.5t-12.5 -37t3 -33q6 -14 18.5 -22.5t30 -11t38 2t41.5 15.5q15 8 32.5 23.5t30.5 34.5t18.5 39t-3.5 38z" />
    <glyph glyph-name="colon" unicode=":" horiz-adv-x="325" 
d="M27 88q0 35 24.5 60t59.5 25t60 -25t25 -60t-25 -59.5t-60 -24.5t-59.5 24.5t-24.5 59.5zM171 288q0 35 24.5 60t59.5 25t60 -25t25 -60t-25 -59.5t-60 -24.5t-59.5 24.5t-24.5 59.5z" />
    <glyph glyph-name="semicolon" unicode=";" horiz-adv-x="325" 
d="M171 288q0 35 24.5 60t59.5 25t60 -25t25 -60t-25 -59.5t-60 -24.5t-59.5 24.5t-24.5 59.5zM27 88q0 18 6.5 33.5t18 27t26.5 18t33 6.5q46 -1 64.5 -29t5 -67.5t-62.5 -82.5t-139 -74l-29 35q33 18 49 34t22.5 32t6 32t-0.5 35z" />
    <glyph glyph-name="less" unicode="&#x3c;" horiz-adv-x="462" 
d="M139 306l375 128l-58 -77l-294 -101l146 -101l-42 -57l-187 128z" />
    <glyph glyph-name="equal" unicode="=" horiz-adv-x="561" 
d="M118 191h327l-48 -75h-327zM190 319h327l-48 -75h-327z" />
    <glyph glyph-name="greater" unicode="&#x3e;" horiz-adv-x="462" 
d="M398 226l-375 -128l58 78l294 101l-146 101l41 56l188 -128z" />
    <glyph glyph-name="question" unicode="?" horiz-adv-x="549" 
d="M209 233q14 30 36 49t48.5 33t56 26t58.5 27t55 34.5t39 37.5t8.5 33t-35.5 22q-21 5 -40.5 4t-36 -5t-30.5 -10t-26 -10l11 -12q12 -21 -3 -47t-48 -41t-63 -11.5t-43 23.5q-12 19 -4 41t31.5 43t59.5 39.5t79.5 30t92 15.5t96.5 -4q63 -10 94 -30t37.5 -45t-8 -52.5
t-42 -52t-64.5 -44t-76 -27.5q-35 -7 -74.5 -17t-74.5 -21.5t-61.5 -25t-34.5 -27.5zM67 88q0 35 24.5 60t59.5 25t60 -25t25 -60t-25 -59.5t-60 -24.5t-59.5 24.5t-24.5 59.5z" />
    <glyph glyph-name="at" unicode="@" horiz-adv-x="754" 
d="M180 229q37 44 79 78.5t82.5 54.5t75 24t56.5 -14q13 -12 13 -36q21 18 40 28h84q-26 -21 -54 -54t-54 -65q-42 -54 -56 -87.5t4 -47.5q11 -8 27.5 -2.5t35.5 20t39.5 35t38.5 42t32.5 41.5t21.5 33q39 72 46 125t-12.5 85t-63 42t-104.5 -5q-61 -16 -123 -50t-120 -83
t-109 -110.5t-91 -133.5q-38 -72 -45 -123.5t12 -82.5t61.5 -39t103.5 7q28 8 55.5 19t55.5 25q19 10 29.5 10t12.5 -5.5t-5 -15t-25 -18.5q-75 -38 -146 -60.5t-131 -22.5q-69 0 -106 29.5t-41 80.5t25.5 119.5t92.5 145.5q42 52 92.5 100t106 89.5t114 76t115 58.5
t110.5 37.5t100 13.5q69 0 105 -29.5t39 -80.5t-27.5 -119.5t-93.5 -146.5q-36 -44 -85 -88t-98.5 -76.5t-93 -46.5t-68.5 1q-39 23 -27 78q-12 -15 -26.5 -30.5t-31.5 -27.5t-35.5 -19.5t-38.5 -7.5q-36 0 -52 21.5t-13.5 55t21 74t50.5 78.5zM243 125q11 -6 30.5 4.5
t41 30.5t43 45.5t36.5 49.5t20.5 42.5t-3.5 24.5q-6 4 -19 1t-29 -12t-33.5 -22.5t-32.5 -29.5q-18 -19 -32 -40.5t-22 -40.5t-8.5 -33.5t8.5 -19.5z" />
    <glyph glyph-name="A" unicode="A" horiz-adv-x="857" 
d="M883 204l-11 -19q-54 -93 -118.5 -144.5t-124.5 -51.5q-40 0 -72 24q-36 28 -40 82q-3 74 52 181q-11 2 -22.5 4.5t-22.5 4.5q-37 -46 -74 -90t-73.5 -81.5t-73 -65.5t-72.5 -41q-24 -10 -47 -14t-43 -4q-31 0 -54 8.5t-39.5 21.5t-26.5 29t-15 32q-9 38 6 71.5t51 53.5
l4 2l2 -3q27 -51 95 -51q27 0 60 10q53 13 106.5 53.5t108.5 93.5q-32 10 -62.5 17.5t-59.5 7.5q-35 0 -64 -13l-3 9q77 53 185 53q36 0 74 -6q2 3 4 5t3 4q42 41 83.5 81.5t83.5 73.5t84 55t83 26l27 3l-24 -11q-51 -71 -86 -134.5t-55 -117.5q91 1 168 40l30 14l-25 -22
q-50 -48 -99 -76t-100 -40q-10 -48 -6 -80.5t19 -45.5q21 -16 43 -16q24 0 55 13.5t69 39.5zM624 365q34 51 77.5 103.5t95.5 106.5q-49 -27 -100.5 -82t-105.5 -123q8 -1 16.5 -2t16.5 -3zM311 529q-14 0 -24 -3l-18 -9l11 15q21 24 43 38.5t44.5 22.5t44.5 10.5t42 2.5
q22 0 43 -2.5t44 -4.5q20 -2 39 -3.5t37 -1.5q27 0 47.5 5t36.5 14l27 15l-21 -22q-51 -57 -103.5 -84t-109.5 -27q-33 0 -61.5 6.5t-54.5 13.5q-19 5 -35.5 9.5t-31.5 4.5z" />
    <glyph glyph-name="B" unicode="B" horiz-adv-x="847" 
d="M906 574q2 -22 -8 -47t-30.5 -49.5t-50.5 -46t-69 -35.5q38 -33 48.5 -82.5t-9.5 -107.5q-12 -35 -36.5 -70t-59.5 -63t-81 -45t-100 -17h-20q-63 3 -101.5 25t-44.5 58q-8 35 17 72t76 64l11 5l-4 -11q-3 -23 10 -39q6 -10 23.5 -19t52.5 -9q30 0 58 12.5t51 32t39 44
t22 49.5q3 8 4 19t-1 22.5t-9.5 22.5t-22.5 19q-9 0 -17.5 -0.5t-17.5 -0.5h-9q-33 1 -51 4.5t-26 7t-9.5 7.5t-1.5 6q2 14 32 22.5t65 8.5q14 0 26.5 -1.5t24.5 -3.5q27 16 49.5 38t39 44.5t24.5 43.5t5 34q-6 17 -27 17q-33 0 -67 -21.5t-69.5 -57.5t-72.5 -82.5
t-75 -95.5q-43 -57 -87 -112.5t-89.5 -101t-93 -78t-97.5 -42.5q-11 -1 -20 -1.5t-20 -0.5q-32 0 -52.5 12.5t-28.5 37.5q-5 17 -3 36t10 37.5t21 36t31 30.5l2 2l4 -2q29 -22 60 -22q28 0 59 16t64 42t67.5 60.5t69.5 70.5q46 46 95 93.5t101 86t107 62.5t114 24h13t12 -1
q32 -4 51.5 -19.5t21.5 -40.5zM216 501q-8 0 -16 -1t-15 -3l-12 -2l8 9q24 30 51.5 48t56 27.5t56.5 12t54 2.5q19 0 37.5 -0.5t36.5 -1.5q16 -2 31.5 -3t29.5 -1q44 0 68 13l24 11l-18 -19q-36 -36 -69.5 -57t-64.5 -32t-57.5 -14t-47.5 -3q-23 0 -44.5 2.5t-42.5 5.5
q-18 2 -34 4t-32 2z" />
    <glyph glyph-name="C" unicode="C" horiz-adv-x="582" 
d="M546 232q-24 -57 -64 -101t-88 -73t-100 -44t-100 -15q-74 0 -127 33q-45 29 -59 81t4 120q20 69 64.5 136t109.5 121q26 22 60.5 45t77 42.5t92.5 32.5t108 15h12q45 0 76 -10.5t50.5 -27.5t28.5 -38t9 -41q0 -30 -16 -59.5t-46.5 -53t-74.5 -38t-100 -14.5
q-34 0 -70 5.5t-74 16.5l-22 7l24 3q64 6 114 24.5t84.5 43t53.5 51t20 48.5q2 35 -36 43q-7 1 -14.5 1.5t-15.5 0.5q-50 0 -103 -26t-99.5 -67t-82 -90.5t-50.5 -97.5q-6 -18 -9.5 -39.5t-1.5 -43t12.5 -42t33.5 -37.5q33 -24 83 -24q32 0 65 8.5t63 24.5t56 37.5t43 47.5
l9 -6v0z" />
    <glyph glyph-name="D" unicode="D" horiz-adv-x="1084" 
d="M1009 587q57 -36 76.5 -96.5t-3.5 -135.5q-19 -64 -66 -127t-114 -113.5t-150.5 -82t-176.5 -31.5q-92 0 -179 33q-78 -32 -149 -49.5t-129 -17.5q-48 0 -77.5 11t-36.5 34q-7 20 9 44.5t53 49.5q104 74 262 74q44 0 94 -6q47 42 80 78.5t63 73.5q30 36 59.5 69t69 63
t93 57t130.5 50l4 -8q-33 -17 -61.5 -42.5t-55 -57t-50.5 -66.5l-48 -70q-32 -48 -65 -94.5t-69 -85.5q25 -5 50 -7.5t50 -2.5q70 0 129.5 21t104.5 55.5t75.5 78t42.5 89.5q16 60 -1.5 107.5t-64.5 74.5q-71 39 -161 39q-51 0 -99 -11t-88.5 -28t-71.5 -39.5t-48 -44.5
q-26 -37 -20 -69q8 -25 25.5 -33t33.5 -8q5 0 11.5 0.5t12.5 1.5l19 5l-16 -12q-41 -35 -86.5 -54.5t-82.5 -19.5q-72 0 -83 64q-2 18 7.5 40t31.5 47q31 36 84.5 72.5t118 65.5t135.5 47t139 18q57 0 104 -13t85 -38zM284 74q-26 8 -51 11t-48 3t-43.5 -3.5t-37.5 -11.5
q-26 -11 -35.5 -21.5t-8.5 -18.5q5 -19 50 -19q20 0 63.5 10.5t110.5 49.5z" />
    <glyph glyph-name="E" unicode="E" horiz-adv-x="657" 
d="M658 172q-37 -59 -90.5 -102.5t-114.5 -72t-123.5 -42t-117.5 -13.5q-73 0 -124 21t-72 59q-25 49 -5 102q15 37 49.5 70.5t77 61t87 47.5t78.5 32q-71 35 -60 95q6 30 33.5 61t71.5 57.5t101.5 44.5t123.5 21h22q88 0 139 -31q23 -14 34.5 -31.5t11.5 -37.5
q0 -33 -33 -59.5t-99 -26.5q-50 0 -104 16l-21 7l23 2q50 6 76.5 29t25.5 48q-1 20 -19 31.5t-50 11.5h-8.5t-8.5 -1q-35 -3 -64 -15.5t-49.5 -30t-31.5 -38t-10 -39.5q2 -30 31 -47.5t81 -17.5h23l-20 -9q-130 -53 -209 -109.5t-96 -109.5q-12 -37 9 -70q17 -26 49 -40.5
t76 -14.5q37 0 77 10.5t79 29.5t75.5 46t66.5 61zM126 516q-11 0 -20 -1t-16 -5l-12 -3l6 10q14 27 32.5 43t39.5 24.5t44.5 11.5t46.5 3h25q6 -1 12 -1h12q20 0 39.5 3t33.5 12l23 15l-17 -22q-25 -32 -48 -51t-44.5 -29t-41 -13t-35.5 -3q-11 0 -21.5 1.5t-21.5 2.5
q-10 1 -19 1.5t-18 0.5z" />
    <glyph glyph-name="F" unicode="F" horiz-adv-x="711" 
d="M726 460q-61 -29 -105.5 -71t-81.5 -90q14 7 29 14t29 15l8 3l-1 -9q-4 -15 0 -29t13 -25q15 -18 40 -18q8 0 16.5 1.5t16.5 5.5l24 11l-17 -17q-74 -74 -126 -74q-25 0 -44 19q-11 11 -16 26t-6 33q-5 -5 -8.5 -10t-8.5 -10q-30 -42 -61.5 -81t-68.5 -71.5t-82.5 -55.5
t-103.5 -33q-13 -2 -26.5 -3.5t-27.5 -1.5q-47 0 -77.5 18t-36.5 50q-3 17 2 36.5t18 38.5t34.5 36.5t52.5 29.5l5 1l1 -5q5 -20 25.5 -32t49.5 -12q32 0 65 13q58 20 105.5 57t95.5 79q28 25 56.5 49.5t60.5 47t68 41.5t79 32zM245 273q-35 0 -60 16.5t-32 44.5
q-11 45 30 94t125 91q49 25 96 40t90.5 23t83 10.5t73.5 2.5q37 0 74 -2t73 -5q36 -2 70.5 -3.5t69.5 -1.5q62 0 112.5 7.5t96.5 23.5l1 -5l3 -3q-109 -64 -210 -95t-199 -31q-58 0 -107 8.5t-91 17.5q-33 7 -61.5 11.5t-54.5 4.5t-47 -5.5t-41 -19.5q-38 -26 -55.5 -51
t-9.5 -48q5 -15 20.5 -24t38.5 -9q24 0 48.5 11t46.5 31l26 22l-19 -29q-39 -60 -89.5 -93.5t-101.5 -33.5z" />
    <glyph glyph-name="G" unicode="G" horiz-adv-x="729" 
d="M789 350q-56 -34 -97 -73.5t-78 -79.5q-30 -32 -61.5 -63.5t-71 -60.5t-89.5 -54t-115 -43q-24 -7 -47.5 -10t-44.5 -3q-39 0 -73 10.5t-60 28.5q-24 18 -37 40.5t-13 45.5q0 17 8 34.5t27 31.5t49.5 23t74.5 9h23l4 -1l-1 -6q-8 -26 11 -48q13 -18 39.5 -28.5
t60.5 -10.5q8 0 16.5 0.5t17.5 2.5q37 5 83 26t94.5 52.5t96 69t87.5 75.5q-31 -15 -67.5 -33t-76 -33.5t-79.5 -25.5t-77 -10q-50 0 -84 19q-8 4 -13 7.5t-10 8.5q-24 -5 -46.5 -6.5t-44.5 -1.5q-33 0 -61 5t-49 14t-33.5 21t-15.5 27q-2 26 25.5 49t79.5 39l13 5l-8 -12
q-6 -11 -7.5 -22.5t3.5 -23.5q11 -20 42 -33t76 -15q-6 37 19 84q22 35 61.5 67t92.5 60t119 51t142 40q25 6 46.5 8t39.5 2q36 0 57.5 -9.5t23.5 -29.5q4 -21 -16 -50t-67 -63.5t-121.5 -73.5t-178.5 -78q14 -5 29 -7t29 -2q31 0 57.5 9.5t52.5 22.5q23 11 48.5 20.5
t54.5 9.5h55zM438 326q60 19 112 48.5t90.5 61t60 60t18.5 45.5q-5 18 -36 18q-27 0 -66 -17t-77.5 -43t-69.5 -57.5t-41 -60.5q-8 -19 -5 -32t14 -23z" />
    <glyph glyph-name="H" unicode="H" horiz-adv-x="950" 
d="M988 409q-41 -26 -89 -48t-104 -38q-34 -63 -43 -117t10 -83q25 -39 79 -39q22 0 44 6.5t40 20.5l24 16l-17 -22q-47 -64 -110.5 -101t-127.5 -37q-32 0 -59.5 11t-46.5 33q-17 19 -21 49t4.5 67.5t29 80t51.5 87.5q-26 -4 -51.5 -5.5t-51.5 -3.5q-42 -50 -83.5 -96.5
t-83.5 -85.5t-85 -68.5t-88 -46.5q-52 -20 -97 -20q-42 0 -70.5 18t-36.5 50q-4 18 0 38.5t16.5 41.5t35.5 41.5t56 37.5l3 2l3 -4q19 -26 41 -38t50 -12q27 0 56.5 11t60.5 30.5t63.5 46t65.5 57.5q-73 6 -132 23q-50 19 -64 35t-11 27q2 15 20 23t38 8h4l-1 -5
q-1 -5 0.5 -11t6.5 -11q14 -20 59.5 -36t112.5 -23q39 36 75 72t71.5 69.5t68.5 61.5t64 48.5t58 30.5l24 7l-18 -15q-63 -54 -123.5 -122.5t-120.5 -138.5q-2 -3 -5 -7t-8 -8q53 2 104 12q22 28 54 62.5t75 71t97 74t121 72.5q33 18 60 18q32 0 41 -28q4 -15 -1 -36
t-21.5 -46t-45.5 -52.5t-71 -55.5zM428 504l-12 -2l7 11q24 25 48 41t48 24t47.5 11t46.5 3q10 0 19.5 -1t19.5 -1q9 0 18 -1t17 -1q24 0 41.5 3.5t31.5 9.5l26 11l-20 -19q-61 -52 -113 -77t-102 -25q-19 0 -35 2.5t-30 5.5q-12 2 -23 3.5t-22 1.5h-13zM950 448
q55 42 73.5 72.5t13.5 41.5q0 6 -8 6q-5 0 -11 -3t-14 -8q-66 -45 -110 -94t-70 -89q34 15 65.5 33t60.5 41z" />
    <glyph glyph-name="I" unicode="I" horiz-adv-x="638" 
d="M581 253q-45 -58 -97 -105t-106 -80t-108 -51t-103 -18q-17 0 -32.5 1.5t-32.5 6.5q-94 28 -99 98q-2 40 30.5 79t91.5 61q2 -35 27.5 -53t68.5 -18q25 0 57.5 7.5t68 24t72 44t69.5 66.5q37 43 65 85.5t45.5 79.5t23.5 66t-1 46q-9 19 -35 19q-38 0 -77 -18t-71 -47
t-52.5 -66t-21.5 -75q-1 -25 10 -39.5t30 -15.5q13 -2 30.5 4.5t46.5 20.5q-15 -38 -35 -65t-42 -44t-45 -24.5t-44 -5.5q-26 2 -44.5 17t-27.5 39q-14 38 -2 84.5t50 95.5q26 34 61 65.5t77 56t89.5 39.5t98.5 15q62 0 85 -44q13 -28 8.5 -70.5t-22.5 -91t-46 -98
t-61 -92.5z" />
    <glyph glyph-name="J" unicode="J" horiz-adv-x="620" 
d="M700 242q-26 3 -48.5 2t-44.5 -5t-46 -11t-53 -16q-7 -8 -13.5 -16.5t-14.5 -16.5q-46 -55 -97 -106t-102 -93q-69 -57 -129.5 -87.5t-101.5 -30.5q-36 0 -46 27q-5 15 3 37t29.5 49t57.5 59t88 66q38 25 80 49t87 47q-33 6 -52 37q-41 64 2 138q17 32 46.5 63t64.5 58.5
t73.5 50t73 39t63.5 25.5t45 9q17 0 20 -8q10 -18 6 -50.5t-21 -76t-45.5 -95t-67.5 -107.5q4 2 20 7.5t37 11t45 11t44.5 7t34.5 -1.5t17 -13t-11 -23t-44 -36zM433 338q0 -49 60 -50q33 46 62 93t50 88q13 25 19.5 41.5t9.5 27t3 15t-1 6.5h-4q-28 0 -62.5 -23t-65 -57
t-51 -72t-20.5 -69zM160 2q15 0 39.5 10.5t55.5 27.5q71 40 153 137q-62 -25 -117.5 -55.5t-92.5 -57.5q-32 -25 -41.5 -38.5t-7.5 -18.5q1 -2 5 -3.5t6 -1.5z" />
    <glyph glyph-name="K" unicode="K" horiz-adv-x="830" 
d="M826 150q-18 -33 -47 -62.5t-63.5 -51.5t-72.5 -35t-72 -13q-46 0 -76 24q-41 33 -41 86q1 22 10.5 47t26.5 49.5t40.5 48t52.5 43.5q27 19 41 36t10 29q-2 8 -10.5 10.5t-20.5 2.5q-31 0 -67 -22q-12 -10 -24 -19.5t-23 -20.5q-24 -38 -51.5 -75.5t-61.5 -75.5
q-63 -72 -130 -111t-127 -39q-42 0 -77 20q-21 13 -31.5 33.5t-8.5 44.5q3 32 27.5 58.5t64.5 41.5h3l1 -1q21 -11 41.5 -17.5t41.5 -6.5q35 0 70 17t70.5 46t72.5 67.5t76 80.5q48 52 102 107.5t116 103.5l3 -2l2 -4q-54 -58 -92 -114t-72 -111q65 53 135.5 103t144.5 88.5
t149.5 61.5t150.5 23h24q29 -2 43.5 -7.5t18.5 -15.5q2 -12 -10.5 -26t-41.5 -31l-1 -1l-1 1q-23 4 -45.5 6.5t-45.5 2.5q-102 0 -213.5 -44t-229.5 -130q2 0 4.5 0.5t4.5 0.5q33 0 57.5 -12t38.5 -35q16 -29 11 -65t-29 -76q-32 -54 -14 -88q11 -20 39 -20q21 0 47.5 14
t52.5 39zM384 541q-18 0 -33 -8l-18 -7l12 14q18 23 36 37.5t36.5 22t37 10t35.5 2.5q13 0 25.5 -1.5t25.5 -2.5q12 -1 24 -1.5t25 -0.5q52 0 84 22l33 24l-27 -31q-93 -105 -173 -105q-20 0 -37 4t-33 9q-14 5 -26.5 8.5t-26.5 3.5z" />
    <glyph glyph-name="L" unicode="L" horiz-adv-x="905" 
d="M740 204q39 0 66 -19t29 -51q2 -18 -6 -38t-28 -39.5t-52 -36t-77 -26.5q-34 -7 -74 -7q-52 0 -102.5 12t-99.5 26q-19 5 -37.5 10.5t-35.5 9.5q-19 -8 -38 -15.5t-38 -14.5q-65 -20 -113.5 -30t-80.5 -10q-29 0 -39 7.5t-11 15.5q-2 10 7 23t25.5 25.5t38.5 23.5t46 18
q29 8 56.5 12.5t57.5 4.5q14 0 28.5 -1.5t30.5 -3.5q38 33 75.5 80t77.5 99l5 9q-27 -4 -54 -7t-52 -3q-64 0 -112 16t-73 43q-22 27 -19 57q3 18 13 31.5t24.5 22.5t32 13.5t34.5 4.5q12 0 24.5 -2.5t23.5 -6.5l10 -4l-10 -4q-24 -11 -35 -29t-7 -37q3 -12 12 -23.5
t26 -20.5t42.5 -14.5t60.5 -5.5q20 0 42.5 2.5t47.5 7.5q36 47 76.5 94.5t87 90t100.5 76t118 51.5q39 12 66 12q26 0 35.5 -9t11.5 -19q4 -22 -18.5 -58t-66.5 -76.5t-108 -81t-143 -70.5q-23 -33 -49 -67t-57 -67t-66.5 -64t-77.5 -57q12 -5 22 -6q35 -8 67.5 -14t62.5 -6
q41 0 77 17q17 10 28 25.5t9 32.5q-2 22 -24 33l-10 3l10 5q27 14 54.5 22t52.5 8zM675 391q43 25 80 55.5t64 59.5t41.5 52t12.5 32l-1 1q-2 2 -5 2q-8 0 -19 -5q-43 -17 -81.5 -66.5t-80.5 -114.5zM234 61q-6 0 -12 0.5t-12 0.5q-45 0 -84 -15q-32 -11 -41 -17
q-5 -4 -7 -6q0 -4 18 -4q23 0 61 10t77 31z" />
    <glyph glyph-name="M" unicode="M" horiz-adv-x="1024" 
d="M1122 615q-60 -53 -113 -112t-93 -116.5t-64 -110.5t-27 -93q-3 -35 15 -56q22 -24 58 -24q32 0 64.5 16.5t55.5 36.5l7 -6q-66 -79 -133 -121.5t-125 -42.5q-20 0 -37 5t-33 16q-18 14 -28.5 32.5t-11.5 41.5q-5 75 76 190.5t242 267.5q-30 -19 -59.5 -44.5t-58 -55
t-56.5 -61t-55 -63.5q-30 -36 -60 -70.5t-59.5 -64t-59 -51.5t-59.5 -34l-18 -7l12 13q29 37 49 86t40 103q16 45 33.5 91t42 89.5t57 82t78.5 68.5l17 13l-10 -19q-26 -40 -43 -73.5t-29 -62t-19.5 -53t-13.5 -45.5q-5 -20 -10 -37t-13 -34q54 64 105.5 118.5t104.5 95.5
t109 67t119 32l16 2zM764 603q-45 -37 -90 -96t-93 -126q-46 -66 -95.5 -132.5t-105 -120.5t-117.5 -87.5t-132 -33.5h-18q-42 3 -69 16.5t-37 38.5q-7 18 -3.5 39.5t14 43.5t26.5 43t34 39l2 3l3 -3q22 -13 46 -20t49 -7q50 0 102 24.5t103.5 62.5t100.5 84.5t94 90.5
q55 53 100.5 95.5t80.5 54.5l25 7zM362 533q-32 0 -50 -14l-33 -23l26 30q24 26 48 41.5t48 24t47 11t44 2.5q16 0 31.5 -1t31.5 -2q15 -1 29 -2t28 -1q31 0 53 5.5t41 16.5l30 21l-24 -27q-49 -52 -97 -77t-102 -25q-24 0 -46.5 3.5t-42.5 7.5q-17 4 -32.5 6.5t-29.5 2.5z
" />
    <glyph glyph-name="N" unicode="N" horiz-adv-x="807" 
d="M280 504q-11 0 -21.5 -1t-21.5 -4l-20 -5l16 13q32 27 61 43.5t54.5 24.5t47.5 10.5t40 2.5q19 0 36.5 -1.5t35.5 -3.5q17 -2 33.5 -3t33.5 -1q20 0 38 2.5t35 8.5l21 6l-15 -14q-56 -51 -106.5 -75.5t-103.5 -24.5q-23 0 -44.5 3.5t-41.5 8.5q-20 4 -39 7t-39 3z
M679 565q-75 -94 -129.5 -169.5t-96.5 -135.5q-39 -56 -71 -99.5t-63 -76.5t-64 -55.5t-75 -35.5q-17 -5 -33 -8.5t-31 -3.5q-41 0 -70 19.5t-39 52.5q-5 14 -4.5 31.5t8 36.5t22.5 37.5t40 35.5l2 2l4 -2q27 -20 66 -20q45 0 96 26.5t102 66.5t100.5 88t92.5 92
q42 43 77.5 77t60.5 48l21 11zM1181 572q-54 1 -124.5 -32.5t-146 -96.5t-150 -151.5t-136.5 -197.5q-12 -24 -31.5 -47t-51.5 -49l4 14q15 51 19 101t6 100q2 49 5.5 97t18 95t44 92.5t83.5 90.5l13 13l-6 -18q-23 -60 -32 -120t-14 -120q-2 -33 -5.5 -64.5t-9.5 -61.5
q57 87 118 160t122.5 128t121.5 89.5t115 45.5q13 2 30.5 1.5t27.5 -14.5q8 -20 -21 -55z" />
    <glyph glyph-name="O" unicode="O" horiz-adv-x="677" 
d="M709 515q12 -44 -0.5 -98t-50.5 -113q-39 -63 -100 -121t-139 -108q-64 -40 -126 -60.5t-116 -20.5q-64 0 -109 27t-59 74q-14 43 1.5 102t58.5 125q28 45 71.5 92t98.5 88t120.5 71t139.5 39q11 1 23 1.5t23 0.5q66 0 108 -25.5t56 -73.5zM377 92q56 22 106.5 72
t86.5 111t54 123.5t10 108.5q-14 76 -96 76h-18.5t-19.5 -2q-53 -10 -100.5 -45t-84 -83t-59.5 -104t-27 -109q-4 -38 5.5 -70.5t30.5 -55.5q27 -29 69 -29q22 0 43 7z" />
    <glyph glyph-name="P" unicode="P" horiz-adv-x="869" 
d="M969 455q-12 -44 -40.5 -82.5t-67 -66.5t-85.5 -44t-96 -16q-41 0 -77.5 13t-68.5 36l-17 13q-11 -20 -21.5 -41t-21.5 -44q-28 -60 -64 -108t-76.5 -81t-85 -50.5t-89.5 -17.5q-33 0 -63.5 10.5t-53.5 30.5q-25 21 -34.5 51t-1.5 61q8 32 32 54.5t58 30.5l2 1l1 -3
q39 -48 89 -48q43 0 88.5 32t92.5 93q68 91 128 157t114.5 110t105 67t100.5 28q5 1 9 1h9q75 0 116 -50q40 -58 18 -137zM810 612q-25 0 -57 -16.5t-69.5 -52.5t-79.5 -94t-87 -141l21 -6q25 -6 53 -6q49 0 97 19.5t90 56.5q38 33 63.5 73t33.5 76q12 63 -34 85
q-8 2 -15.5 4t-15.5 2zM322 536q-14 0 -26 -4t-22 -11l-14 -8l8 15q24 51 57.5 74.5t84.5 23.5q21 0 42 -3.5t41 -6.5q21 -3 41.5 -6t42.5 -3q48 0 81 21l25 18l-19 -25q-90 -106 -195 -106q-23 0 -43.5 3.5t-40.5 8.5q-17 2 -33 5.5t-30 3.5z" />
    <glyph glyph-name="Q" unicode="Q" horiz-adv-x="697" 
d="M715 506q10 -39 -6 -82.5t-56 -89.5t-102 -92.5t-144 -91.5q14 -5 26 -9.5t26 -8.5q43 -16 83.5 -28.5t82.5 -12.5q14 0 26 2t26 5l18 5l-14 -13q-96 -86 -207 -86q-53 0 -101.5 16t-93.5 33q-15 3 -25 9q-59 -35 -109 -52.5t-86 -17.5q-23 0 -37 6.5t-18 20.5
q-6 20 12.5 45.5t58.5 52.5q93 60 190 60q38 0 77 -10q60 46 103.5 96t69 97.5t33.5 89.5t-1 71q-8 26 -29.5 40.5t-54.5 17.5h-8q-39 0 -70 -14.5t-52.5 -37t-33.5 -48.5t-12 -48q0 -23 14 -37q17 -17 41 -17q29 0 73 19l20 8l-16 -16q-39 -43 -83 -65t-87 -22
q-48 0 -78.5 28.5t-32.5 73.5q-2 59 50 112q50 51 128.5 79.5t169.5 28.5h2q94 0 153.5 -31t73.5 -86zM141 88q-14 0 -27 -2t-24 -8q-23 -12 -30.5 -19.5t-7.5 -11.5q2 -1 6.5 -3.5t17.5 -2.5q19 0 52.5 8.5t75.5 28.5q-18 6 -33.5 8t-29.5 2z" />
    <glyph glyph-name="R" unicode="R" horiz-adv-x="879" 
d="M1026 573q6 -42 -34 -90q-20 -23 -51 -46.5t-74 -43.5t-96.5 -34t-117.5 -18q24 -9 36.5 -23.5t17.5 -32.5t4 -40t-4 -46q-6 -64 14 -87q16 -14 32 -14q21 0 46 14.5t53 41.5l8 -4q-29 -45 -59 -72.5t-57 -42.5t-50.5 -19.5t-39.5 -4.5q-40 0 -72.5 18t-47.5 50
q-28 60 17 118q36 45 50 71.5t8 40.5q-5 9 -21 14t-47 5q-46 -59 -92 -113t-93 -97t-96.5 -71.5t-101.5 -35.5q-18 -3 -34 -3q-48 0 -78 19t-40 54q-5 21 -3 42.5t10 41.5t22.5 37t33.5 29l3 1l2 -1q21 -16 43 -23.5t43 -7.5q32 0 64.5 14t66 38t68.5 55.5t72 66.5
q39 36 80.5 73.5t87 72t95.5 64.5t106 50t107 20q50 0 81.5 -21.5t37.5 -59.5zM850 612q-8 0 -15.5 -1.5t-16.5 -3.5q-29 -8 -59.5 -31t-62.5 -57t-65 -75t-67 -85q49 0 88.5 7t71 17.5t55 24t40.5 25.5q39 28 61.5 63t22.5 65q0 24 -14 37.5t-39 13.5zM343 537
q-29 0 -47 -17l-22 -17l15 24q21 33 44 52.5t47 30t47.5 13.5t44.5 3q19 0 37.5 -2t36.5 -4q17 -1 34.5 -2.5t32.5 -1.5q28 0 48.5 6.5t37.5 17.5l27 20l-20 -26q-50 -65 -99.5 -95.5t-104.5 -30.5q-26 0 -49.5 5t-43.5 11q-18 5 -34.5 9t-31.5 4z" />
    <glyph glyph-name="S" unicode="S" horiz-adv-x="596" 
d="M817 608q5 -22 -6 -52t-43 -65t-88.5 -74t-142.5 -78q-20 -45 -42 -89t-47.5 -83t-55 -71.5t-63.5 -54.5q-78 -49 -155 -49q-59 0 -104 28t-61 75q-14 42 1 81.5t55 69.5l3 4l4 -5q44 -58 127 -58q55 0 113.5 29t103.5 77q-44 -12 -86.5 -18t-81.5 -6q-51 0 -90.5 9
t-67 24t-43 33.5t-17.5 38.5q-4 36 32 64.5t105 43.5l12 2l-7 -9q-21 -28 -7 -58q7 -14 22.5 -27.5t38.5 -25t54 -18.5t69 -7q53 0 112 15q10 16 18.5 31.5t17.5 30.5q39 66 79.5 123t100.5 92q37 23 75 23q26 0 43.5 -11.5t21.5 -34.5zM562 394q47 23 80.5 51t54 55
t29.5 50t6 35q-2 6 -5.5 9.5t-11.5 3.5q-4 0 -9 -1.5t-10 -3.5q-18 -7 -35 -26t-33.5 -46t-33 -59.5t-32.5 -67.5z" />
    <glyph glyph-name="T" unicode="T" horiz-adv-x="636" 
d="M502 356q47 47 87.5 83t82.5 43l22 2q-27 2 -52.5 6t-49.5 9q-26 6 -52.5 10.5t-52.5 4.5q-44 0 -85 -19q-32 -16 -45 -34.5t-9 -32.5q6 -26 50 -26q13 0 27.5 2.5t30.5 9.5l13 3l-8 -12q-32 -48 -69.5 -67t-65.5 -19q-24 0 -40.5 10.5t-22.5 28.5q-3 9 -3 24.5t11 37.5
t36 51t73 64q71 53 130.5 76.5t121.5 23.5q29 0 58 -4.5t58 -10.5q36 -5 76.5 -11t89.5 -6q23 0 46 2t47 4l15 3l-12 -10q-73 -61 -142.5 -90t-144.5 -29h-14.5t-13.5 1l-19 -11q-29 -18 -58.5 -63.5t-64.5 -103.5q-30 -51 -64 -106t-74.5 -101t-89.5 -78.5t-109 -38.5
q-10 -1 -19.5 -1h-19.5q-43 0 -74.5 10t-52.5 26.5t-32.5 37.5t-14.5 42t2.5 44t20 44t37.5 38t56 27l6 1v-6q1 -15 9 -27.5t21.5 -21.5t31.5 -14.5t38 -5.5q33 0 62 11q31 13 60 32t55.5 41.5t51.5 47t48 48.5z" />
    <glyph glyph-name="U" unicode="U" horiz-adv-x="706" 
d="M745 205q-84 -105 -161.5 -160.5t-141.5 -55.5q-20 0 -39 7t-34 18q-35 26 -38 72q-2 26 8 55q-72 -70 -138 -106.5t-118 -36.5q-62 0 -76 50q-12 38 6.5 96t71 129.5t141.5 154t219 170.5l37 25l-32 -31q-76 -79 -123 -146t-71.5 -120.5t-30 -91t2.5 -56.5
q10 -24 36 -24q23 0 52.5 17t61.5 49q48 59 99 118t100.5 111.5t96 95t86.5 68.5l33 22l-27 -29q-61 -64 -110 -126.5t-83 -118.5t-52 -102.5t-17 -79.5q1 -30 20 -47q9 -7 19 -10.5t24 -3.5q30 0 72 22.5t99 70.5zM76 488q24 40 48 63.5t47 35.5t46 15t44 3h13.5t11.5 -2
h26q23 0 48.5 3.5t52.5 16.5l25 12l-20 -20q-44 -42 -78.5 -65t-63 -33.5t-51.5 -12.5t-45 -2q-23 0 -46 -2.5t-51 -17.5l-15 -8z" />
    <glyph glyph-name="V" unicode="V" horiz-adv-x="789" 
d="M888 608q7 -39 -8.5 -94.5t-49.5 -117.5t-85 -125.5t-116 -118.5t-142 -95.5t-163 -56.5q-27 -6 -52 -6q-45 0 -74.5 17.5t-41.5 47.5q-9 26 -4.5 57.5t22 65.5t46 69t67.5 68q71 60 109.5 102.5t55.5 70t19 42.5t0 20q-8 19 -33 20h-21q-62 0 -114 -21t-91.5 -53
t-66.5 -69.5t-37 -69.5q-6 -20 -5 -35.5t9 -20.5l5 -3l-5 -4q-18 -15 -36 -23.5t-33 -8.5q-8 0 -14.5 2.5t-11.5 8.5q-15 15 -15 51q0 45 37.5 96t105.5 96q66 45 139 70t136 25h18t18 -2q54 -8 79 -43q20 -34 3 -83q-11 -33 -40.5 -71.5t-64.5 -80.5q-8 -9 -15.5 -18
t-13.5 -19q-30 -36 -40 -73.5t1 -67.5q9 -20 28 -33.5t45 -16.5h12q31 0 62 14.5t60 35.5t53.5 45t41.5 44q25 29 47 61t40 63.5t31 61.5t20 56q14 52 -2 72q-7 10 -30 10q-5 0 -13 -1t-18 -3l-7 -1l2 8q7 19 18 36.5t24.5 30t27.5 20t28 7.5q6 0 14 -2t15.5 -8.5t14 -18
t9.5 -30.5z" />
    <glyph glyph-name="W" unicode="W" horiz-adv-x="860" 
d="M892 599q15 -26 16.5 -64t-8 -81.5t-29 -91t-47 -93t-62.5 -86.5t-74 -73q-36 -30 -74 -53.5t-74 -40.5t-69 -26t-60 -9q-30 0 -51.5 10.5t-35.5 30.5q-7 10 -10.5 21.5t-5.5 22.5q-106 -77 -189 -77q-45 0 -75 24t-39 66q-8 43 16.5 101.5t78.5 123.5q64 78 164 156.5
t228 152.5l5 -7q-84 -74 -142 -147.5t-92 -137.5t-44.5 -114.5t-0.5 -78.5q11 -30 48 -30q19 0 42 8q2 23 11.5 50.5t25.5 59.5q22 41 54 84.5t68.5 84.5t74.5 77t73 63t63.5 42.5t46.5 15.5h6l9 -1l-7 -7q-57 -50 -104 -109.5t-78 -118t-43.5 -109.5t0.5 -84q13 -42 71 -42
h4q39 1 78 28.5t73 70t60.5 95.5t38.5 105q14 58 7 97.5t-35 54.5l-2 2v3q0 6 4 15.5t11 19t16.5 16.5t20.5 7q21 0 37 -27zM212 541q-27 0 -43 -12l-15 -10l8 16q13 27 28 43.5t32 25t35.5 11.5t36.5 3h17t19 -2q8 0 17.5 -0.5t17.5 -0.5q17 0 36 2.5t39 13.5l21 10
l-15 -18q-25 -29 -47.5 -46t-42.5 -26t-37.5 -12t-32.5 -3q-22 0 -41 3q-9 1 -17 1.5t-16 0.5z" />
    <glyph glyph-name="X" unicode="X" horiz-adv-x="792" 
d="M841 527q-25 0 -51.5 -11t-51.5 -28.5t-48.5 -40t-43 -45.5t-35 -45t-24.5 -38q-14 -22 -21.5 -49t-7.5 -52q0 -22 7.5 -47t32.5 -39q13 -8 26 -11.5t26 -3.5q60 0 150 81l8 -5q-18 -30 -43.5 -66.5t-57 -69t-66.5 -54t-72 -21.5q-22 0 -45 10q-37 18 -52 60
q-7 26 -5 60.5t14 76.5q-39 -45 -83.5 -82.5t-90 -64t-91 -41t-85.5 -14.5q-72 0 -108 48q-18 24 -20 52t12 56q19 38 57 62t80 24q1 0 2.5 -1t3.5 -1h9l-6 -7q-14 -20 -3 -37q8 -19 33.5 -29.5t60.5 -10.5q16 0 44 4.5t62.5 20.5t73.5 46.5t78 82.5q27 37 40.5 72t17 66.5
t-1.5 58.5t-15 48q-11 20 -25.5 34t-31.5 22q-52 -18 -89 -49.5t-60 -67.5t-33 -70.5t-7 -58.5q1 -11 8 -25.5t27 -14.5h4l13 3l-10 -10q-44 -43 -88 -43q-34 0 -52 27q-14 21 -14 51t14 64q18 44 50 82.5t70 67t77 45.5t72 19q9 2 18.5 4.5t17.5 2.5q58 0 89 -56
q5 -8 10 -22t7.5 -34.5t0.5 -46.5t-11 -58q23 27 51 58.5t58 59.5t60 49t57 28q8 2 14 2.5t12 0.5q28 0 34 -18q4 -11 -4.5 -27.5t-28.5 -33.5l-1 -1h-3q-4 1 -8 1h-8z" />
    <glyph glyph-name="Y" unicode="Y" horiz-adv-x="680" 
d="M978 635q-53 -27 -100 -62t-93.5 -82.5t-94 -109.5t-101.5 -144q-109 -165 -213.5 -248.5t-204.5 -83.5q-14 0 -27.5 2t-27.5 5q-32 7 -52 28.5t-24 51.5q-5 36 14.5 70.5t57.5 55.5l3 1l3 -2q20 -22 50.5 -33t68.5 -11q22 0 55 6.5t73.5 26.5t87 56.5t96.5 97.5
q6 8 11 15t10 15q-64 -50 -127.5 -77t-118.5 -27q-46 0 -77 18.5t-41 50.5q-15 47 17.5 101.5t106.5 105.5q32 22 53 41.5t33 35.5t15.5 28t1.5 20q-6 19 -41 19q-17 0 -37 -4t-43 -14q-45 -16 -81.5 -39.5t-62 -49.5t-39 -52t-11.5 -47q1 -34 43 -42l6 -3l-3 -5
q-15 -21 -37 -32.5t-45 -11.5q-40 0 -66 32q-11 13 -13 31.5t5 39.5q7 25 28 53t56 56.5t86 54.5t120 47q40 12 74.5 18.5t63.5 6.5q50 0 71.5 -15.5t27.5 -30.5q11 -29 -6.5 -68t-62.5 -83q-33 -34 -47 -62.5t-6 -48.5q16 -33 72 -33q24 0 52 6t56 19q11 20 20.5 42.5
t17.5 44.5q18 44 38.5 85.5t52 73.5t80 51.5t123.5 19.5q12 0 24.5 -1t26.5 -3l15 -1l-13 -6v0z" />
    <glyph glyph-name="Z" unicode="Z" horiz-adv-x="723" 
d="M830 550q4 -41 -21.5 -82t-75 -79.5t-119.5 -71t-154 -55.5q72 -14 109.5 -48.5t34.5 -86.5q-1 -44 -31.5 -87t-84.5 -77t-129.5 -55.5t-165.5 -21.5h-18q-72 2 -117.5 26t-53.5 66q-8 41 25 78.5t98 63.5l10 4l-4 -11q-8 -16 6 -35q11 -17 39.5 -31.5t74.5 -14.5h9
q53 2 98 15t78 32t51 41.5t17 44.5q0 33 -39.5 52t-111.5 21q-3 0 -6 -0.5t-5 -0.5l-31 -6l15 8h-11l27 10h2q1 0 5 2q110 55 170.5 101.5t87.5 82.5t30 61.5t-1 39.5q-6 20 -25 31.5t-47 11.5q-32 0 -64 -15.5t-58 -42.5q-37 -37 -27 -63q6 -12 21 -19.5t38 -7.5
q28 0 66 16l24 8l-20 -17q-40 -35 -81 -54.5t-79 -19.5q-31 0 -53 14t-29 38q-9 33 13.5 69t72.5 68q31 20 67 36.5t74 28t76 17.5t73 6q66 0 105.5 -23.5t44.5 -67.5z" />
    <glyph glyph-name="bracketleft" unicode="[" horiz-adv-x="381" 
d="M366 578h200l-48 -75h-131l-355 -524h136l-48 -75h-212z" />
    <glyph glyph-name="backslash" unicode="\" horiz-adv-x="366" 
d="M50 522h73l233 -562h-73z" />
    <glyph glyph-name="bracketright" unicode="]" horiz-adv-x="381" 
d="M60 -86h-200l48 76h130l356 524h-136l48 75h212z" />
    <glyph glyph-name="asciicircum" unicode="^" horiz-adv-x="446" 
d="M380 510h67l33 -141h-117l-8 68l-112 -68h-81z" />
    <glyph glyph-name="underscore" unicode="_" horiz-adv-x="100" 
d="M-53 152q13 10 24 11t15.5 -4t2 -14.5t-15.5 -19.5q-37 -28 -60 -63.5t-32 -71t-4.5 -67t22.5 -52.5q40 -18 57.5 -36t18.5 -32t-12 -21t-34 -3q-29 7 -50.5 25.5t-33.5 45.5q-110 20 -235.5 18t-258.5 -19.5t-271 -46t-273.5 -60t-265 -63.5t-245.5 -55.5t-215 -35.5
t-174 -4q-86 9 -159.5 36t-129 69.5t-90.5 99.5t-44 125q82 -43 188 -64.5t229 -27t259 1.5t278.5 21t287.5 31t285.5 31t272.5 22.5t249 4.5q101 -3 174 -13.5t125 -25.5q-5 31 -0.5 65t18.5 67.5t38 65.5t59 59z" />
    <glyph glyph-name="grave" unicode="`" horiz-adv-x="362" 
d="M53 491l78 93l180 -112l-27 -29z" />
    <glyph glyph-name="a" unicode="a" horiz-adv-x="441" 
d="M15 229q37 44 79.5 78.5t82.5 54.5t74.5 24t56.5 -14q14 -11 14 -36q10 8 19.5 15t19.5 13h84q-26 -21 -53.5 -54t-53.5 -65q-42 -54 -60 -84t0 -44q9 -7 27.5 -2.5t41 17.5t47.5 32t47 42q14 13 24.5 15t15.5 -4t2.5 -17.5t-14.5 -23.5q-31 -31 -73 -67t-84.5 -63.5
t-81 -40.5t-62.5 2q-39 23 -27 77q-12 -15 -26.5 -30t-31.5 -27t-35.5 -19.5t-37.5 -7.5q-37 0 -53 21.5t-13.5 55t21 74t50.5 78.5zM78 125q11 -6 30.5 4.5t41 30.5t43 45.5t36.5 49.5t20.5 42.5t-3.5 24.5q-6 4 -19 1t-29 -12t-33.5 -22.5t-32.5 -29.5q-17 -19 -31 -40.5
t-22 -40.5t-9 -33.5t8 -19.5z" />
    <glyph glyph-name="b" unicode="b" horiz-adv-x="408" 
d="M-26 7q-37 17 -35 68t59 131q25 35 54.5 70.5t60 69.5t60 64.5t54 54.5t42.5 40t25 21h116q-13 -9 -33 -27.5t-43.5 -42t-48 -49.5t-46 -49.5t-39 -43.5t-25.5 -30q-21 -26 -40 -50.5t-32 -45.5t-19 -39t-1 -32q6 -17 21.5 -18t35.5 9.5t41 30.5t37.5 44.5t25 52
t4.5 53.5q-2 9 4.5 20.5t17.5 22.5t24 20t24 14q21 9 38 11.5t23 -16.5q6 -22 -2 -53q19 -2 42 0.5t46.5 8t45 13t37.5 15.5q20 10 25.5 8.5t0 -9t-20 -19t-35.5 -23.5q-35 -20 -80 -33t-87 -17q-19 -33 -48 -67.5t-63 -66t-70.5 -57.5t-72 -42t-67.5 -20.5t-56 8.5z" />
    <glyph glyph-name="c" unicode="c" 
d="M350 206q14 14 25.5 16.5t16.5 -3.5t2 -17.5t-16 -25.5q-85 -84 -167 -130t-154 -46q-35 0 -59.5 14.5t-34.5 41t-2.5 64.5t37.5 86q28 45 62 78t68.5 55.5t67.5 33.5t59 11q21 0 38.5 -7t29 -18.5t15.5 -26.5t-3 -32q-9 -21 -27.5 -36.5t-39.5 -25.5t-40.5 -13.5
t-31 -0.5t-12 12.5t17.5 26.5q17 16 21.5 29t-1 19.5t-20.5 4.5t-36 -17q-21 -14 -42.5 -35t-33.5 -42q-14 -24 -19.5 -46t-1 -39t20 -27t43.5 -9q29 0 59.5 9.5t59 24.5t54 33.5t44.5 37.5z" />
    <glyph glyph-name="d" unicode="d" horiz-adv-x="462" 
d="M18 229q37 44 79 78.5t82 54.5t74.5 24t56.5 -14q9 -7 12 -22q34 36 66 68t58 56q30 28 57 52h113q-26 -21 -56.5 -49.5t-61.5 -60.5t-61 -66t-57 -66q-22 -26 -42.5 -52.5t-34.5 -50t-18.5 -40.5t4.5 -24t28.5 -2.5t44.5 17.5t51 32t49 42q13 13 24 15t15.5 -4t2 -17.5
t-14.5 -23.5q-31 -31 -74.5 -67t-88 -63.5t-84.5 -40.5t-64 2q-18 11 -23 36.5t3 60.5q-11 -17 -26.5 -35t-34.5 -33.5t-40.5 -25.5t-44.5 -10q-37 0 -53 21.5t-13.5 55t21 74t51.5 78.5zM81 125q11 -6 30.5 4.5t41 30.5t42.5 45.5t36 49.5t20.5 42.5t-3.5 24.5q-6 4 -19 1
t-29 -12t-33.5 -22.5t-32.5 -29.5q-17 -19 -31 -40.5t-22 -40.5t-8.5 -33.5t8.5 -19.5z" />
    <glyph glyph-name="e" unicode="e" 
d="M350 206q14 14 25.5 16.5t16.5 -3.5t2 -17.5t-16 -25.5q-85 -84 -166.5 -130t-153.5 -46q-35 0 -59.5 14.5t-35 41t-3 64.5t37.5 86q28 45 62 78t69 55.5t68 33.5t59 11q41 0 58.5 -25t2.5 -59q-10 -23 -32.5 -43.5t-55 -36.5t-72.5 -26t-85 -12q-11 -35 3 -59t58 -22
q29 0 59.5 9.5t59 24.5t54 33.5t44.5 37.5zM86 215q29 4 60 21.5t51 36.5q17 16 22 27.5t0.5 16t-18.5 1t-35 -18.5q-21 -14 -42.5 -35t-33.5 -42z" />
    <glyph glyph-name="f" unicode="f" horiz-adv-x="321" 
d="M422 547q25 5 44 -1t29.5 -19t13.5 -30.5t-3 -34.5q-8 -21 -25.5 -36.5t-38 -25t-40 -13.5t-31.5 -1t-13 13t16 27q16 16 20 28t-2 17.5t-20.5 3t-36.5 -15.5q-31 -18 -56.5 -40.5t-43 -43.5t-26 -38.5t-5.5 -26.5q3 -10 21 -16.5t48.5 -5t74 12t97.5 35.5q18 8 23 6.5
t-0.5 -9t-19 -18.5t-31.5 -21q-83 -45 -150 -56t-99 15q-1 -49 -15 -97.5t-36.5 -92t-50.5 -79.5t-57.5 -59t-59 -31.5t-54.5 3.5q-18 8 -24 29t-0.5 51t21 66t41.5 73q84 121 158.5 201t137 129t111.5 72t82 29zM19 38q6 -13 22.5 5.5t34 53t32.5 76.5t18 76
q-26 -34 -48 -66.5t-37 -60.5t-21 -50t-1 -34z" />
    <glyph glyph-name="g" unicode="g" horiz-adv-x="404" 
d="M29 247q35 41 74 72.5t75.5 49t67.5 19.5t52 -14q16 -14 16 -35q8 6 17 12.5t20 12.5h84q-25 -21 -54.5 -53t-52.5 -66q-36 -54 -64.5 -102.5t-54.5 -92.5q30 16 59 37t54 42.5t46 41.5t36 35q13 13 24 15t15.5 -4t2 -17.5t-14.5 -23.5q-62 -62 -126.5 -114.5
t-137.5 -79.5q-3 -5 -6.5 -10t-7.5 -10q-42 -58 -92.5 -82t-94 -22.5t-72.5 23t-28 53.5q1 31 21.5 52t51.5 31t68.5 9.5t73.5 -11.5l38 63q-19 -17 -40.5 -27.5t-45.5 -10.5q-35 0 -51.5 19t-16.5 48.5t16.5 66.5t47.5 73zM98 158q10 -6 27.5 2.5t36 25.5t36.5 39
t30.5 42.5t16.5 36.5t-5 22q-13 8 -42 -6t-57 -44q-17 -18 -29 -37t-18 -35.5t-5 -29t9 -16.5zM-66 -54q0 -11 11.5 -16.5t29.5 -3.5t39 13.5t40 34.5q-17 8 -37.5 9t-39 -3t-31 -13t-12.5 -21z" />
    <glyph glyph-name="h" unicode="h" horiz-adv-x="424" 
d="M369 526l-185 -232q38 29 78 49.5t77 20.5q22 0 36 -9t19 -23.5t1 -32.5t-17 -36q-15 -20 -39.5 -40t-45.5 -39t-32 -35.5t1 -29.5q7 -8 23 -5t38.5 14.5t48.5 31.5t52 46q14 14 25.5 17t17 -2.5t2.5 -17.5t-18 -27q-35 -35 -74 -67t-77.5 -56t-74.5 -38.5t-64 -14.5
q-24 0 -40 8t-24 21.5t-8 30.5t8 36q6 15 20.5 31.5t32.5 33.5t37.5 33.5t36.5 31.5q16 13 21 23.5t0.5 15t-18.5 1t-36 -18.5q-30 -20 -65 -53t-67.5 -67.5t-59 -65.5t-39.5 -47l-12 -14h-114l423 526h112z" />
    <glyph glyph-name="i" unicode="i" horiz-adv-x="257" 
d="M223 337q-5 -6 -12 -13.5t-14 -15.5t-13 -14.5t-8 -9.5q-21 -26 -41.5 -53t-35 -50t-19.5 -40t4 -24t29 -2.5t44.5 17.5t51 32t48.5 42q13 13 24 15t16 -4t2.5 -17.5t-15.5 -23.5q-31 -31 -74.5 -67t-87.5 -63.5t-84 -40.5t-64 2q-17 10 -26 27.5t-7 42.5t15.5 57
t42.5 72q15 19 33.5 42t39 46.5t40.5 46t37 41.5q9 -17 29 -30.5t45 -14.5zM302 432q0 -29 -20.5 -48.5t-48.5 -19.5q-29 0 -48.5 19.5t-19.5 48.5t19.5 48.5t48.5 19.5q28 0 48.5 -19.5t20.5 -48.5z" />
    <glyph glyph-name="j" unicode="j" horiz-adv-x="244" 
d="M9 52q37 14 72 33t65 40t55 42t43 39q13 13 24 15t16 -4t2.5 -17.5t-15.5 -23.5q-69 -69 -144 -115.5t-165 -66.5q-42 -53 -81 -91.5t-76 -52.5q-19 -8 -37 -7.5t-33 6.5t-24.5 16.5t-12.5 23.5q-5 21 4 38.5t26 29t41 17.5t51 5q14 17 35.5 44t47 59.5t54 68t55.5 70.5
q64 81 137 174q1 -13 9 -24t20 -19t26 -12t27 -3zM309 432q0 -29 -20 -48.5t-48 -19.5q-29 0 -49 19.5t-20 48.5t20 48.5t49 19.5q28 0 48 -19.5t20 -48.5zM-254 -100q3 -8 10.5 -10t17.5 2.5t19.5 14.5t15.5 27q-25 1 -45.5 -10t-17.5 -24z" />
    <glyph glyph-name="k" unicode="k" horiz-adv-x="424" 
d="M369 526l-186 -232q38 29 78.5 49.5t77.5 20.5q22 0 36 -9t19 -23.5t1 -32.5t-17 -36q-29 -38 -73 -62t-103 -41q-20 -5 -30 -12.5t-2 -25.5q6 -16 23 -23.5t39 -4.5q15 2 37 10t47.5 22t53.5 34t54 46q14 14 25.5 17t17 -2.5t2.5 -17.5t-18 -27q-35 -35 -72.5 -67
t-76 -56t-77.5 -38.5t-76 -14.5q-47 0 -74.5 33t-25.5 84q-29 -32 -52.5 -60t-36.5 -43l-12 -14h-114l423 526h112zM191 247q-18 -12 -37.5 -28t-39.5 -36q27 2 54.5 9t53.5 22q22 12 29.5 25.5t3 21t-20.5 6t-43 -19.5z" />
    <glyph glyph-name="l" unicode="l" horiz-adv-x="257" 
d="M411 526q-13 -9 -33.5 -27.5t-43.5 -42t-47.5 -49.5t-46 -49.5t-39 -43.5t-25.5 -30q-21 -26 -41.5 -53t-35 -50t-19.5 -40t4 -24t29 -2.5t44.5 17.5t50.5 32t49 42q13 13 24 15t15.5 -4t2 -17.5t-14.5 -23.5q-31 -31 -74.5 -67t-87.5 -63.5t-84 -40.5t-64 2
q-17 10 -26 27.5t-7 42.5t15.5 57t42.5 72q25 35 54.5 70.5t60 69.5t60 64.5t54 54.5t42 40t24.5 21h117v0z" />
    <glyph glyph-name="m" unicode="m" horiz-adv-x="602" 
d="M238 364l-59 -74q39 31 81 52.5t80 21.5q28 0 37.5 -18.5t0.5 -39.5q35 25 71 41.5t69 16.5q22 0 36 -9t19 -23.5t1 -32.5t-18 -36q-16 -20 -40.5 -40t-45.5 -39t-32 -35.5t1 -29.5q7 -8 23.5 -5t39 14.5t48.5 31.5t52 46q14 14 25 16t15.5 -4t2 -17.5t-14.5 -24.5
q-35 -35 -74 -67t-78 -56t-75.5 -38.5t-64.5 -14.5q-24 0 -40 8t-23.5 21.5t-8 30.5t7.5 36q6 15 21 31.5t33 33.5t37.5 33.5t36.5 31.5q16 13 23 23.5t4 15t-16 1t-35 -18.5q-35 -24 -72.5 -63t-70 -78t-54.5 -69t-26 -35l-1 -2l-128 -1q52 65 85 105t55 64.5t37.5 38
t33.5 27.5q14 10 17 19t-3 13t-21.5 0t-37.5 -19q-31 -21 -66.5 -54t-67.5 -68t-58.5 -65.5t-39.5 -46.5l-11 -13h-115l291 364h113z" />
    <glyph glyph-name="n" unicode="n" horiz-adv-x="425" 
d="M237 364l-59 -75q39 31 81.5 53t80.5 22q22 0 36 -9t19 -23.5t1 -32.5t-18 -36q-15 -20 -39.5 -40t-45.5 -39t-32 -35.5t1 -29.5q7 -8 23.5 -5t38.5 14.5t48 31.5t53 46q14 14 25 16t15.5 -4t1.5 -17.5t-15 -24.5q-35 -35 -74 -67t-77.5 -56t-74.5 -38.5t-64 -14.5
q-24 0 -40.5 8t-24.5 21.5t-8 30.5t8 36q6 15 20.5 31.5t33 33.5t38 33.5t36.5 31.5q16 13 21 23.5t0.5 15t-18.5 1t-36 -18.5q-31 -21 -66.5 -54t-68 -68t-59 -66t-39.5 -47l-10 -12h-115l291 364h112z" />
    <glyph glyph-name="o" unicode="o" horiz-adv-x="402" 
d="M249 398q60 12 88 -7.5t25 -67.5l-2 -16q18 -4 40.5 -3t45.5 4.5t44.5 10.5t37.5 15q20 10 25.5 9t0 -8.5t-20 -19.5t-35.5 -24q-34 -19 -75 -32.5t-81 -9.5q-20 -46 -55.5 -90.5t-77.5 -80t-86.5 -57t-81.5 -21.5q-23 0 -41.5 8.5t-29.5 24.5t-14 39.5t5 53.5
q12 44 44.5 89t74 83.5t87 65.5t82.5 34zM129 118q21 3 43.5 16.5t43 33.5t37.5 44t28 49q-24 11 -34.5 30.5t-7.5 39.5l-17 -8.5t-20 -11.5q-28 -17 -53 -41t-45 -60q-12 -22 -15.5 -40.5t0.5 -31t14.5 -18t25.5 -2.5z" />
    <glyph glyph-name="p" unicode="p" horiz-adv-x="410" 
d="M238 364l-47 -59q37 25 74.5 42t70.5 17q22 0 36.5 -11t17.5 -32t-8 -51t-40 -69t-64.5 -73.5t-67.5 -57.5q26 13 54 29.5t55 34.5t50.5 36.5t40.5 35.5q14 14 25 16t15.5 -4t1.5 -17.5t-15 -24.5q-35 -35 -78 -68t-88 -58.5t-90 -41t-83 -15.5q-41 0 -69.5 19t-36.5 45
l-175 -219h-115l424 526h112zM167 247q-20 -14 -42 -34.5t-44 -43.5l-56 -70q10 -5 24.5 -6.5t35.5 6t49 27.5t65 59q31 33 39.5 53.5t0.5 28t-28 3t-44 -22.5z" />
    <glyph glyph-name="q" unicode="q" horiz-adv-x="404" 
d="M404 206q14 13 25 14.5t16 -4.5t2.5 -17t-15.5 -23q-22 -21 -51.5 -46t-63 -53t-69.5 -56t-70 -55q-80 -62 -167 -128h-107q29 36 62 76q28 34 62 76t69 85q-17 -17 -36.5 -32t-40.5 -23q-24 -8 -42.5 -4t-25.5 16q-9 16 -8.5 39t9.5 49.5t25.5 54t39.5 54.5
q35 42 76 74.5t79 52.5t70 25.5t49 -6.5q9 -7 10.5 -21.5t-3.5 -31.5q24 22 57 42h84q-26 -21 -54 -54t-53 -65q-6 -8 -21.5 -27.5t-36.5 -46t-46 -58.5t-51 -65t-51.5 -65t-47.5 -59q35 30 81 69t91.5 78.5t86.5 75.5t66 59zM81 125q11 -6 30.5 4.5t41 30.5t43 45.5
t36.5 49.5t20.5 42.5t-3.5 24.5q-7 4 -20 1t-29 -12t-33.5 -22.5t-32.5 -29.5q-17 -19 -31 -40.5t-22 -40.5t-8.5 -33.5t8.5 -19.5z" />
    <glyph glyph-name="r" unicode="r" horiz-adv-x="363" 
d="M46 254q-17 8 -23.5 23t-2 32t21.5 34.5t48 31.5q34 15 57.5 8.5t29.5 -23t-9.5 -37t-59.5 -31.5q19 -3 49 5t60.5 20.5t56 25.5t35.5 18l5 3h92q-12 -12 -34 -32.5t-47.5 -44.5t-51 -50t-44.5 -49.5t-27.5 -41.5t-0.5 -27q7 -8 23.5 -5t38.5 14.5t48 31.5t52 46
q15 14 25.5 16t15 -4t2 -17.5t-15.5 -24.5q-35 -35 -74 -67t-77.5 -56t-74.5 -38.5t-64 -14.5q-24 0 -39 11t-21.5 27.5t-5 37t10.5 38.5q16 35 55.5 76.5t85.5 79.5q-23 -10 -46 -16.5t-45 -7.5l-68 -70q-15 -15 -27 -18t-17 2.5t-1.5 18t18.5 27.5z" />
    <glyph glyph-name="s" unicode="s" 
d="M0 206q11 11 23.5 24t24 25t21 22.5t15.5 16.5q-8 36 22 70q12 13 26.5 22t29.5 13t29.5 2t25.5 -10q27 -20 24.5 -45t-21.5 -43t-43.5 -19t-37.5 19q-1 -11 8 -19t22.5 -17t29.5 -20t28 -26q17 -22 22.5 -51.5t-6.5 -63.5q30 26 58.5 52t48.5 48q15 16 26.5 19t17 -3
t2.5 -18.5t-18 -27.5q-12 -12 -32 -30t-43.5 -38t-49 -39.5t-48.5 -35.5q-14 -10 -26 -17.5t-22 -12.5q-22 -13 -46.5 -20.5t-48.5 -8t-45 7t-37 24.5q-25 27 -21 60t32 60q7 8 19.5 16.5t26 13t25.5 2t20 -15.5q8 -15 1.5 -32t-20.5 -30.5t-31 -20t-29 -0.5q6 -17 19 -19.5
t29 4.5t32.5 20.5t30.5 28.5q13 16 25 37.5t17 42.5t1 39t-22 27q-9 4 -16 9t-12 10l-80 -82q-15 -15 -27 -18t-17 2.5t-1.5 18t18.5 27.5z" />
    <glyph glyph-name="t" unicode="t" horiz-adv-x="258" 
d="M311 432q-22 -23 -43.5 -46.5t-40 -43.5t-32 -35.5t-18.5 -22.5q-21 -26 -41.5 -53t-35 -50t-19.5 -40t4 -24t29 -2.5t44.5 17.5t50.5 32t49 42q13 13 24 15t15.5 -4t2 -17.5t-14.5 -23.5q-31 -31 -74.5 -67t-87.5 -63.5t-84 -40.5t-64 2q-17 10 -26 27.5t-7 42.5
t15.5 57t42.5 72q18 25 41.5 54t49.5 59t52.5 59t49.5 54h-107l18 32q69 5 142.5 18t144.5 32l-49 -50h166l-18 -32h-179z" />
    <glyph glyph-name="u" unicode="u" horiz-adv-x="478" 
d="M478 206q13 13 24 15t15.5 -4t2.5 -17.5t-14 -23.5q-32 -31 -73.5 -67t-84 -63.5t-81 -40.5t-62.5 2q-23 14 -27 45t8 70q-30 -27 -61 -51t-60.5 -40t-56 -21t-47.5 7q-18 10 -22 30.5t2.5 47t23 57t40.5 62.5q19 25 42 51.5t44 48.5q24 26 49 50h115q-20 -20 -38 -39
q-16 -17 -33.5 -36.5t-29.5 -35.5q-15 -20 -29 -38t-23.5 -33.5t-12 -26.5t5.5 -17q10 -8 29 2t42 28.5t46.5 41t43.5 41.5q19 19 38 39t34 37q18 19 34 37h102q-20 -22 -38 -43q-16 -18 -32.5 -38.5t-27.5 -37.5q-33 -48 -50 -84t-2 -44q10 -6 28.5 -1t41 17.5t47 31
t47.5 41.5z" />
    <glyph glyph-name="v" unicode="v" horiz-adv-x="398" 
d="M383 312q19 -5 41 -3.5t44 6.5t43.5 13t39.5 17q20 10 25.5 8.5t0.5 -9t-20 -19t-35 -23.5q-42 -24 -85 -38.5t-92 -8.5q-68 -95 -128 -147.5t-108 -76t-81.5 -23.5t-49.5 9q-17 10 -21 33.5t1.5 53t19.5 61t33 57.5q33 46 67 82.5t72 59.5h95q-20 -16 -40 -34
q-17 -16 -37.5 -37t-38.5 -44q-12 -15 -22 -32.5t-15.5 -33.5t-5 -28.5t10.5 -16.5q14 -6 37 1t50.5 25t57 46t58.5 64q-14 15 -12.5 39t13 46t30.5 37.5t41 13.5q25 -3 29.5 -30t-18.5 -68z" />
    <glyph glyph-name="w" unicode="w" horiz-adv-x="595" 
d="M568 312q19 -5 41 -3.5t44 6.5t43.5 13t39.5 17q20 10 25.5 8.5t0 -9t-20 -19t-35.5 -23.5q-43 -25 -87.5 -39.5t-95.5 -6.5q-47 -71 -101.5 -120.5t-104 -79t-88.5 -39t-55 -0.5q-17 10 -19.5 32.5t5.5 51.5q-27 -23 -55 -42.5t-54 -32t-49 -16t-40 6.5q-18 10 -22 30.5
t2.5 47t23 57t40.5 62.5q19 25 42 51.5t44 48.5q24 26 49 50h115q-20 -20 -38 -39q-16 -17 -33.5 -36.5t-29.5 -35.5q-15 -20 -29 -38t-23.5 -33.5t-12 -27t5.5 -16.5q6 -5 20.5 2.5t33 22.5t40.5 35.5t44 43.5q51 52 111 122h97q-15 -16 -31 -34q-14 -16 -31.5 -37
t-36.5 -44q-11 -15 -24 -32.5t-22 -33.5t-11.5 -28.5t8.5 -16.5q13 -6 35.5 2.5t48.5 27.5t54 46.5t53 59.5q-14 15 -12.5 39t13 46t30.5 37.5t41 13.5q25 -3 29.5 -30t-18.5 -68z" />
    <glyph glyph-name="x" unicode="x" horiz-adv-x="446" 
d="M0 206q12 10 27 26.5t31 37.5t30 44.5t24 49.5h124q-2 -13 -7 -46t-8 -72l162 118h83l-248 -184q0 -35 5 -62t19 -36q7 -5 31.5 5.5t55.5 29t63 42.5t54 47q14 13 24.5 15t15.5 -4t2.5 -17.5t-14.5 -23.5q-31 -31 -73 -67t-84.5 -63.5t-80.5 -40.5t-62 2q-23 13 -38 37.5
t-25 55.5l-137 -101h-93l217 157q-8 45 -6 90q-18 -21 -35.5 -40.5t-29.5 -29.5q-13 -11 -23 -11t-14.5 6t-2.5 15.5t13 19.5z" />
    <glyph glyph-name="y" unicode="y" horiz-adv-x="424" 
d="M467 364q-23 -14 -56 -49t-62 -78q-35 -51 -63 -97.5t-53 -87.5q30 16 58 36.5t52.5 41.5t45 41t35.5 35q13 13 24 15t16 -4t2.5 -17.5t-14.5 -23.5q-62 -62 -127 -114.5t-137 -79.5q-4 -5 -7.5 -10t-6.5 -10q-42 -58 -92.5 -82t-94 -22.5t-72.5 23t-28 53.5q1 31 21 52
t51 31t69 9.5t74 -11.5q18 32 38 64.5t38 61.5q-26 -23 -50 -41.5t-46.5 -31t-43.5 -16.5t-40 2t-27.5 22.5t-6 40.5t15.5 53t37 60q19 26 40.5 49.5t39.5 42.5q21 22 42 42h106q-93 -92 -125 -145.5t-18 -64.5q7 -5 21 2t32 20.5t38.5 33t41.5 40.5q48 48 106 114h126z
M-46 -54q0 -11 11.5 -16.5t29.5 -3.5t39.5 13.5t40.5 34.5q-17 8 -38 9t-39.5 -3t-31 -13t-12.5 -21z" />
    <glyph glyph-name="z" unicode="z" horiz-adv-x="382" 
d="M425 364q-15 -44 -53.5 -79.5t-88.5 -64.5t-104 -53t-100 -44q19 1 36.5 -1.5t30.5 -9.5t19.5 -19t4.5 -31q34 15 65.5 33t58.5 37t49.5 38t38.5 36q13 13 24 15t15.5 -4t2.5 -17.5t-14 -23.5q-60 -60 -123.5 -102t-136.5 -67q-18 -32 -44 -57.5t-53.5 -45t-54.5 -33.5
t-46 -21q-19 -8 -38.5 -7.5t-36 6.5t-27.5 16.5t-14 23.5q-5 26 8 45.5t37.5 31t56.5 13.5t64 -7q21 30 27 50t1 32.5t-20.5 17.5t-38.5 4l16 32h1q3 2 17 10t34 21t43.5 29t46 33t40.5 34t28 32q-23 -10 -46.5 -15.5t-45.5 -5.5h-9q-15 -16 -33.5 -34.5l-35.5 -35.5
q-15 -15 -27 -18t-17 2.5t-1.5 18t18.5 27.5l53 55q-12 10 -15.5 24.5t3 30t23 31.5t44.5 28q34 15 57.5 8.5t29.5 -23t-9 -37t-60 -31.5q21 -4 56 7t69 25q40 17 82 40h92zM-116 -100q2 -8 11 -10t22 2t27.5 13.5t27.5 23.5q-14 6 -30 5t-29.5 -6t-22 -12.5t-6.5 -15.5z
" />
    <glyph glyph-name="braceleft" unicode="{" horiz-adv-x="381" 
d="M174 315q32 13 58 37t50.5 51.5t49.5 56t55.5 52t68 39t87.5 17.5l-5 -46q-32 -2 -55 -20.5t-42 -44.5t-36.5 -56t-37.5 -56t-46 -43.5t-61 -18.5q27 -16 23.5 -45t-22.5 -64.5t-46 -74t-47 -73t-26.5 -60.5t15.5 -37l-33 -27q-50 18 -62 47.5t-2.5 64.5t32.5 73.5t43 75
t28.5 68t-9.5 52.5z" />
    <glyph glyph-name="bar" unicode="|" horiz-adv-x="290" 
d="M366 578h72l-457 -674h-73z" />
    <glyph glyph-name="braceright" unicode="}" horiz-adv-x="381" 
d="M275 192q-32 -13 -57.5 -37t-50 -51.5t-49.5 -56t-55.5 -52t-68.5 -39.5t-88 -17l5 47q32 2 55.5 20t42.5 44t36.5 56.5t37.5 56t45.5 43t61.5 18.5q-20 12 -23 31.5t6 44t25.5 52.5t35.5 56t37 55t28.5 50t10.5 40t-17 25l33 28q37 -14 53 -34t16.5 -44.5t-10.5 -52
t-26.5 -55.5t-32.5 -56.5t-28.5 -54t-13.5 -47.5t12 -38z" />
    <glyph glyph-name="asciitilde" unicode="~" horiz-adv-x="454" 
d="M52 131q44 63 86 89t87 28q22 1 33 -7t18.5 -17.5t15 -18.5t22.5 -10q11 -1 20.5 7.5t17.5 18.5q9 11 16 27h53q-23 -36 -49 -64q-11 -12 -24.5 -23.5t-28 -20.5t-30.5 -14t-32 -4q-25 1 -37 10t-19.5 19t-15 18.5t-23.5 8.5q-14 0 -25 -7.5t-20 -16.5q-11 -11 -19 -23
h-46z" />
    <glyph glyph-name="uni00A0" unicode="&#xa0;" horiz-adv-x="287" 
 />
    <glyph glyph-name="exclamdown" unicode="&#xa1;" horiz-adv-x="325" 
d="M402 445q0 -35 -24.5 -60t-59.5 -25t-60 25t-25 60t25 59.5t60 24.5t59.5 -24.5t24.5 -59.5zM269 290q-9 -15 -29 -47t-43.5 -70.5t-47 -76.5t-39.5 -63q-17 -26 -42 -44t-51 -27t-49 -9t-35 9t-9.5 27t27.5 46q10 12 27 29l37 37t42 41.5t43 42.5q50 48 107 102
q14 0 26 1q11 1 21 1.5t15 0.5z" />
    <glyph glyph-name="cent" unicode="&#xa2;" 
d="M-7 18q-33 23 -35.5 71t40.5 117q26 42 57.5 73.5t63.5 53.5t63.5 34.5t57.5 15.5l59 87h73l-67 -98q21 -11 30 -30.5t0 -41.5q-9 -20 -25.5 -34.5t-35.5 -24.5t-38 -14.5t-32 -3.5l-83 -122q3 -1 5.5 -0.5t6.5 0.5q29 0 59.5 9.5t59 24.5t54 33.5t44.5 37.5
q14 14 25.5 16.5t16.5 -3.5t2 -17.5t-16 -25.5q-85 -84 -167 -130t-154 -46h-5l-54 -80h-72zM90 222q-15 -26 -20.5 -49t0.5 -40l123 180q-6 -2 -12.5 -5.5t-14.5 -8.5q-21 -14 -42.5 -35t-33.5 -42z" />
    <glyph glyph-name="sterling" unicode="&#xa3;" horiz-adv-x="622" 
d="M214 314h79l80 108q64 87 119.5 133.5t101 62t80 5.5t56.5 -37q5 -7 9.5 -14.5t6.5 -13.5q0 -3 5.5 0t12 9.5t12.5 14.5t9 16h49l-113 -222h-46q2 5 3.5 10.5t4.5 10.5q24 43 30 75t-2 51t-27.5 23.5t-46.5 -6.5t-59 -39t-65 -74l-82 -113h79l-48 -76h-85l-126 -175h143
q30 0 59.5 12.5t59 33t58.5 47.5t59 57h59l-216 -222h-494l40 54q25 0 42.5 3.5t31.5 11.5t27 22.5t29 35.5l88 120h-71z" />
    <glyph glyph-name="currency" unicode="&#xa4;" horiz-adv-x="508" 
d="M40 123l67 44q-5 20 -5 39q0 26 9 49.5t26 41.5l-36 53l73 35l31 -47q8 2 16 3t17 1q41 0 76 -24l79 59l48 -66l-78 -51q11 -25 11 -54q0 -19 -5 -36.5t-13 -32.5l34 -59l-74 -33l-20 38q-26 -13 -58 -13q-26 0 -49.5 9t-41.5 25l-58 -46zM171 206q0 -28 20.5 -48
t48.5 -20t48 20t20 48q0 27 -20 47.5t-48 20.5t-48.5 -20.5t-20.5 -47.5z" />
    <glyph glyph-name="yen" unicode="&#xa5;" horiz-adv-x="583" 
d="M178 292h96l24 178q3 22 2.5 36t-7.5 22.5t-21.5 12t-39.5 3.5l41 54h266l-41 -54q-25 0 -40 -3.5t-24 -12t-13 -22.5t-7 -36l-20 -141l191 141q58 44 66.5 59t-42.5 15l41 54h239l-41 -54q-25 0 -44.5 -3.5t-38.5 -12t-40.5 -22.5t-50.5 -36l-242 -178h73l-48 -75h-91
l-19 -26h96l-48 -75h-104q-15 -21 -23 -34.5t-6 -22t14 -11.5t37 -3l-39 -54h-292l40 54q25 0 42.5 3t31.5 11.5t26.5 22t27.5 34.5h-82l48 75h90l20 26h-96z" />
    <glyph glyph-name="brokenbar" unicode="&#xa6;" horiz-adv-x="290" 
d="M184 311l182 267h72l-181 -267h-73zM199 226l-218 -322h-73l218 322h73z" />
    <glyph glyph-name="section" unicode="&#xa7;" 
d="M418 490q-6 17 -19 19.5t-29 -4t-32.5 -20t-29.5 -28.5q-14 -16 -25.5 -37.5t-16.5 -43t-1 -39.5t21 -27q24 -11 36.5 -26.5t15.5 -32t-3 -33.5t-19 -32q-28 -32 -65 -37q-1 -26 -13 -53t-39 -56q-22 -23 -51.5 -39.5t-60 -22.5t-59 0t-48.5 28q-25 27 -21 60t32 60
q7 8 19.5 16.5t26 13t25.5 2t20 -15.5q8 -15 1.5 -32t-20.5 -30.5t-31 -20t-29 -0.5q6 -17 19 -19.5t29 4.5t32.5 20.5t30.5 28.5q13 16 25 37.5t17 42.5t1 39t-22 27q-23 12 -35.5 27t-15.5 31.5t2.5 34t19.5 32.5q13 15 30 24.5t34 11.5q1 26 12.5 53.5t39.5 56.5
q22 22 51.5 38.5t60 22.5t59 0t49.5 -28q24 -27 20 -59.5t-32 -60.5q-8 -8 -20 -16.5t-25 -13t-25.5 -2t-20.5 16.5t-1 31t20.5 30.5t30.5 20.5t29 0zM236 206q14 6 26.5 15t19.5 25q4 10 -4.5 18.5t-23 17.5t-31.5 20t-29 27q-6 5 -10 13q-14 -5 -26.5 -14t-18.5 -25
q-4 -10 5 -18t23 -17t31 -20.5t29 -26.5z" />
    <glyph glyph-name="dieresis" unicode="&#xa8;" horiz-adv-x="375" 
d="M34 496q0 29 20 48.5t48 19.5q29 0 48.5 -19.5t19.5 -48.5t-19.5 -48.5t-48.5 -19.5q-28 0 -48 19.5t-20 48.5zM202 496q0 29 20 48.5t48 19.5q29 0 48.5 -19.5t19.5 -48.5t-19.5 -48.5t-48.5 -19.5q-28 0 -48 19.5t-20 48.5z" />
    <glyph glyph-name="copyright" unicode="&#xa9;" horiz-adv-x="666" 
d="M678 217q-34 -42 -79.5 -86t-98 -85.5t-110 -78.5t-116.5 -64.5t-117 -43.5t-111 -16q-69 0 -106 29.5t-41 80.5t25.5 119.5t92.5 145.5q42 52 92.5 100t106 89.5t114 76t115 58.5t110.5 37.5t100 13.5q69 0 105 -29.5t39 -80.5t-27.5 -119.5t-93.5 -146.5zM200 -89
q51 14 107.5 43.5t114 75.5t114.5 108t109 141q45 68 52.5 121t-13.5 86t-66.5 44t-106.5 -4q-61 -16 -123 -50t-120 -83t-109 -110.5t-91 -133.5q-38 -72 -45 -124t12 -83t61.5 -39t103.5 8zM515 226q15 14 26 16.5t16.5 -3.5t2.5 -17.5t-17 -25.5q-84 -84 -166.5 -130
t-154.5 -46q-35 0 -59.5 14.5t-34.5 41t-2.5 64.5t37.5 86q28 45 62 78t68.5 55.5t67.5 33.5t60 11q21 0 38.5 -7t29 -18.5t15.5 -26.5t-3 -32q-9 -21 -27.5 -36.5t-39.5 -25.5t-40.5 -13.5t-31.5 -0.5t-12.5 12.5t17.5 26.5q17 16 22 29t-0.5 19.5t-20.5 4.5t-36 -17
q-21 -14 -42.5 -35t-34.5 -42q-14 -24 -19.5 -46t-1 -39t20 -27t43.5 -9q29 0 59.5 9.5t59.5 24.5t54 33.5t44 37.5z" />
    <glyph glyph-name="ordfeminine" unicode="&#xaa;" horiz-adv-x="550" 
d="M175 469q37 44 79.5 78.5t82.5 54.5t74.5 24t56.5 -14q14 -11 14 -36q10 8 19.5 15t19.5 13h84q-26 -21 -53.5 -54t-53.5 -65q-42 -54 -60 -84t0 -44q9 -7 27.5 -2.5t41 17.5t47.5 32t47 42q14 13 24.5 15t15.5 -4t2.5 -17.5t-14.5 -23.5q-31 -31 -73 -67t-84.5 -63.5
t-81 -40.5t-62.5 2q-39 23 -27 77q-12 -15 -26.5 -30t-31.5 -27t-35.5 -19.5t-37.5 -7.5q-37 0 -53 21.5t-13.5 55t21 74t50.5 78.5zM238 365q11 -6 30.5 4.5t41 30.5t43 45.5t36.5 49.5t20.5 42.5t-3.5 24.5q-6 4 -19 1t-29 -12t-33.5 -22.5t-32.5 -29.5q-17 -19 -31 -40.5
t-22 -40.5t-9 -33.5t8 -19.5z" />
    <glyph glyph-name="guillemotleft" unicode="&#xab;" horiz-adv-x="702" 
d="M139 306l375 128l-58 -77l-294 -101l146 -101l-42 -57l-187 128zM379 306l375 128l-58 -77l-294 -101l146 -101l-42 -57l-187 128z" />
    <glyph glyph-name="logicalnot" unicode="&#xac;" horiz-adv-x="536" 
d="M361 93l-74 1l51 70h-252l48 75h343z" />
    <glyph glyph-name="uni00AD" unicode="&#xad;" 
d="M134 239h167l-48 -75h-167z" />
    <glyph glyph-name="registered" unicode="&#xae;" horiz-adv-x="666" 
d="M678 217q-34 -42 -79.5 -86t-98 -85.5t-110 -78.5t-116.5 -64.5t-117 -43.5t-111 -16q-69 0 -106 29.5t-41 80.5t25.5 119.5t92.5 145.5q42 52 92.5 100t106 89.5t114 76t115 58.5t110.5 37.5t100 13.5q69 0 105 -29.5t39 -80.5t-27.5 -119.5t-93.5 -146.5zM200 -89
q54 15 112.5 46.5t118.5 80.5h-162l28 36q17 0 27 2.5t15 8.5t5.5 16t-0.5 25l-10 86h-48l-64 -86q-23 -30 -22 -40.5t36 -10.5l-27 -37h-184q-8 -42 0.5 -72t31.5 -46.5t59 -18.5t84 10zM540 460q52 0 77 -15.5t27.5 -39.5t-14 -53t-47.5 -56t-74 -48.5t-92 -30.5l10 -91
q2 -28 10 -39t36 -13q45 42 88 92.5t84 112.5q45 68 52.5 121t-13.5 86t-66.5 44t-106.5 -4q-38 -10 -75.5 -26.5t-74.5 -39.5h179zM68 149q-20 -39 -33 -74q15 0 26 3t20 9t17.5 15.5t19.5 23.5l183 245q18 26 20.5 37t-17.5 13q-69 -51 -129.5 -120t-106.5 -152zM440 420
l-122 -165h45q30 0 60 12t53.5 30.5t39 40t17.5 40t-11.5 30.5t-47.5 12h-34z" />
    <glyph glyph-name="macron" unicode="&#xaf;" horiz-adv-x="409" 
d="M86 535h279l-48 -75h-279z" />
    <glyph glyph-name="degree" unicode="&#xb0;" horiz-adv-x="362" 
d="M205 507q0 41 28 69.5t69 28.5q20 0 37.5 -7.5t31 -21t21 -31.5t7.5 -38t-7.5 -37.5t-21 -31t-31 -21t-37.5 -7.5t-38 7.5t-31 21t-20.5 31t-7.5 37.5zM254 507q0 -20 14.5 -34.5t34.5 -14.5t34.5 14.5t14.5 34.5t-14.5 34.5t-34.5 14.5t-34.5 -14.5t-14.5 -34.5z" />
    <glyph glyph-name="plusminus" unicode="&#xb1;" horiz-adv-x="446" 
d="M338 298l-55 -75h90l-40 -59h-92l-51 -70h-74l51 70h-81l40 59h84l55 75h73zM27 63h247l-40 -59h-247z" />
    <glyph glyph-name="twosuperior" unicode="&#xb2;" horiz-adv-x="569" 
d="M319 449q-10 12 -1.5 30t29.5 36.5t51.5 37.5t66 33.5t73 23t71.5 8.5q65 -1 85 -23t-4 -60.5t-92 -91.5t-179 -116l-159 -90h121q21 0 44.5 10t46.5 25.5t46 35.5t44 41h45l-151 -155h-366l27 36l283 172q26 16 56 34.5t56.5 37.5t47 36.5t29.5 31.5t3 22.5t-32 9.5
q-32 2 -71 -15t-74 -41q2 -2 4.5 -3.5t4.5 -4.5q10 -13 1 -31.5t-31 -32.5q-22 -12 -43 -11.5t-32 14.5z" />
    <glyph glyph-name="threesuperior" unicode="&#xb3;" horiz-adv-x="574" 
d="M377 391q-20 1 -27.5 7.5t-4 14.5t16 15t33.5 7q19 0 42.5 10.5t46 25.5t41 32.5t27 33t3.5 26t-29 11.5q-31 2 -70 -15t-74 -41q6 -4 8 -8q10 -13 1.5 -31.5t-30.5 -32.5q-23 -12 -44 -11.5t-31 14.5q-10 12 -2 30t29 36.5t51.5 37.5t66 33.5t73 23t71.5 8.5
q57 -1 75.5 -27.5t2.5 -61t-64 -67.5t-124 -47q40 -10 54.5 -33.5t8.5 -51.5t-29.5 -57t-60.5 -50t-84 -30.5t-100 1.5q-35 7 -56 23t-30.5 36t-9 41.5t10.5 39t27.5 29t40.5 11.5q19 0 32 -13t13 -30q0 -18 -13 -30.5t-32 -12.5q-14 0 -24.5 6.5t-16.5 17.5
q-4 -11 -3 -23.5t7.5 -23.5t19 -19.5t32.5 -11.5q30 -5 59.5 5t53.5 27t40 38t20 40t-7 32.5t-41 14.5z" />
    <glyph glyph-name="acute" unicode="&#xb4;" horiz-adv-x="369" 
d="M82 443l-28 29l180 112l79 -93z" />
    <glyph glyph-name="mu" unicode="&#xb5;" horiz-adv-x="689" 
d="M98 -30q0 -21 -6 -39t-17 -31.5t-25.5 -21t-31.5 -7.5q-33 1 -51 20.5t-19.5 50t15 68t52.5 74.5q22 22 48.5 41.5t53.5 36.5t52.5 30t46.5 22q19 25 42 51.5t44 48.5q24 26 49 50h115q-20 -20 -38 -39q-16 -17 -33 -36.5t-29 -35.5q-15 -20 -29 -38t-23.5 -33.5
t-12.5 -26.5t5 -17q10 -8 29.5 2t42 28.5t46 41t43.5 41.5q19 19 38.5 39t34.5 37q18 19 34 37h101q-20 -22 -38 -43q-16 -18 -32.5 -38.5t-27.5 -37.5q-16 -24 -29 -45.5t-20.5 -38.5t-8.5 -28.5t7 -15.5q10 -6 28.5 -1t41 17.5t47 31t46.5 41.5q13 13 24 15t16 -4
t2.5 -17.5t-14.5 -23.5q-32 -31 -73.5 -67t-84 -63.5t-81 -40.5t-62.5 2q-23 14 -27 45t8 70q-30 -27 -61 -51t-60.5 -40t-56 -21t-47.5 7q-27 15 -23.5 53t29.5 85q-26 -18 -32 -24q-14 -15 -23.5 -35.5t-15 -42.5t-7.5 -43.5t-2 -39.5z" />
    <glyph glyph-name="paragraph" unicode="&#xb6;" horiz-adv-x="478" 
d="M445 460h-87l-377 -556h-73l282 415h-6q-25 0 -38 18t-5 50q6 24 24 48.5t40.5 45.5t47 35.5t44.5 17.5q11 3 20 2t17 -1h288l-48 -75h-56l-377 -556h-73z" />
    <glyph glyph-name="periodcentered" unicode="&#xb7;" horiz-adv-x="325" 
d="M83 200q0 35 24.5 60t59.5 25t60 -25t25 -60t-25 -59.5t-60 -24.5t-59.5 24.5t-24.5 59.5z" />
    <glyph glyph-name="cedilla" unicode="&#xb8;" horiz-adv-x="346" 
d="M268 19l-66 -83q37 -3 61 -15q10 -5 18.5 -13t13 -18.5t3.5 -25t-10 -32.5q-13 -26 -35.5 -40.5t-50 -19t-56.5 -1t-53.5 13t-42 24t-22.5 30.5l35 16q4 -13 20.5 -20.5t37 -8.5t38.5 5t25 21q7 16 4 28t-12.5 18.5t-22.5 9t-25 0.5q16 23 31 44q13 18 27 37t24 30h58z
" />
    <glyph glyph-name="onesuperior" unicode="&#xb9;" horiz-adv-x="414" 
d="M357 545l147 72h62l-252 -334q-23 -31 -21.5 -41.5t36.5 -10.5l-28 -37h-202l28 37q18 0 30 2.5t21.5 8.5t18.5 16t21 25l184 244l-103 -50z" />
    <glyph glyph-name="ordmasculine" unicode="&#xba;" horiz-adv-x="550" 
d="M211 406q24 43 59 81.5t74.5 67t81 45t78.5 16.5t60.5 -16.5t31.5 -45t1 -67t-31 -81.5t-59 -80.5t-75 -66t-81.5 -45t-78.5 -16.5t-60 16.5t-31.5 45t-1 66t31.5 80.5zM323 426q-28 -33 -47 -64t-28.5 -55.5t-9.5 -41t11 -19.5q11 -4 32 4.5t48 27t56.5 45t58.5 59.5
q28 33 48 64t30.5 56t10.5 41.5t-10 19.5q-11 3 -33 -5.5t-50 -27t-58.5 -45t-58.5 -59.5z" />
    <glyph glyph-name="guillemotright" unicode="&#xbb;" horiz-adv-x="698" 
d="M398 226l-375 -128l58 78l294 101l-146 101l41 56l188 -128zM630 226l-375 -128l58 78l294 101l-146 101l41 56l188 -128z" />
    <glyph glyph-name="onequarter" unicode="&#xbc;" horiz-adv-x="880" 
d="M446 31q18 0 30 2.5t21.5 8.5t18.5 16t21 25l13 17l-181 -4l44 63l410 258h62l-202 -269q14 0 27 0.5t22 0.5h20l-32 -43l-71 -3l-15 -20q-23 -31 -22 -41.5t36 -10.5l-28 -37h-202zM277 505l147 72h62l-252 -334q-23 -31 -21.5 -41.5t36.5 -10.5l-28 -37h-202l28 37
q18 0 30 2.5t21.5 8.5t18.5 16t21 25l184 244l-103 -50zM718 570h73l-609 -562h-73zM474 148h114l102 130z" />
    <glyph glyph-name="onehalf" unicode="&#xbd;" horiz-adv-x="929" 
d="M277 505l147 72h62l-252 -334q-23 -31 -21.5 -41.5t36.5 -10.5l-28 -37h-202l28 37q18 0 30 2.5t21.5 8.5t18.5 16t21 25l184 244l-103 -50zM573 249q-10 12 -1.5 30t29 36.5t51.5 37.5t66 33.5t72.5 23t71.5 8.5q66 -1 86 -23t-4.5 -60.5t-92.5 -91.5t-178 -116
l-160 -90h121q21 0 44.5 10t46.5 25.5t46 35.5t44 41h46l-151 -155h-367l27 36l284 172q26 16 55.5 34.5t56 37.5t47 36.5t29.5 31.5t3 22.5t-32 9.5q-31 2 -70.5 -15t-73.5 -41q6 -4 8 -8q10 -13 1.5 -31.5t-31.5 -32.5q-22 -12 -43 -11.5t-31 14.5zM718 570h73l-609 -562
h-73z" />
    <glyph glyph-name="threequarters" unicode="&#xbe;" horiz-adv-x="930" 
d="M217 351q-20 1 -27.5 7.5t-4 14.5t16 15t33.5 7q19 0 42.5 10.5t46 25.5t41 32.5t27 33t3.5 26t-29 11.5q-31 2 -70 -15t-74 -41q6 -4 8 -8q10 -13 1.5 -31.5t-30.5 -32.5q-23 -12 -44 -11.5t-31 14.5q-10 12 -2 30t29 36.5t51.5 37.5t66 33.5t73 23t71.5 8.5
q57 -1 75.5 -27.5t2.5 -61t-64 -67.5t-124 -47q40 -10 54.5 -33.5t8.5 -51.5t-29.5 -57t-60.5 -50t-84 -30.5t-100 1.5q-35 7 -56 23t-30.5 36t-9 41.5t10.5 39t27.5 29t40.5 11.5q19 0 32 -13t13 -30q0 -18 -13 -30.5t-32 -12.5q-14 0 -24.5 6.5t-16.5 17.5
q-4 -11 -3 -23.5t7.5 -23.5t19 -19.5t32.5 -11.5q30 -4 59.5 5.5t53.5 26.5t40 38t20 40t-7 32.5t-41 14.5zM497 31q18 0 30 2.5t21.5 8.5t18.5 16t21 25l14 17l-182 -4l44 63l410 258h62l-202 -269q14 0 27 0.5t22 0.5h20l-32 -43l-71 -3l-15 -20q-23 -31 -22 -41.5
t36 -10.5l-28 -37h-202zM742 570h73l-609 -562h-73zM526 148h113l103 130z" />
    <glyph glyph-name="questiondown" unicode="&#xbf;" horiz-adv-x="549" 
d="M420 273q-14 -30 -36 -49t-48.5 -33t-56 -26t-58.5 -27t-55 -34.5t-39 -37.5t-9 -33t36 -22q21 -5 40.5 -4t36 5t30.5 9.5t26 10.5l-11 12q-12 21 3 47t48 41t63 11.5t43 -23.5q12 -19 4 -41t-31.5 -43t-59.5 -39.5t-79.5 -30t-92 -15.5t-96.5 4q-63 10 -94 30t-37.5 45
t8 52.5t42 52t64.5 43.5t76 28q34 7 74 17t75 21.5t61.5 25t34.5 27.5zM562 418q0 -35 -24.5 -60t-59.5 -25t-60 25t-25 60t25 59.5t60 24.5t59.5 -24.5t24.5 -59.5z" />
    <glyph glyph-name="Agrave" unicode="&#xc0;" horiz-adv-x="857" 
d="M883 204l-11 -19q-54 -93 -118.5 -144.5t-124.5 -51.5q-40 0 -72 24q-36 28 -40 82q-3 74 52 181q-11 2 -22.5 4.5t-22.5 4.5q-37 -46 -74 -90t-73.5 -81.5t-73 -65.5t-72.5 -41q-24 -10 -47 -14t-43 -4q-31 0 -54 8.5t-39.5 21.5t-26.5 29t-15 32q-9 38 6 71.5t51 53.5
l4 2l2 -3q27 -51 95 -51q27 0 60 10q53 13 106.5 53.5t108.5 93.5q-32 10 -62.5 17.5t-59.5 7.5q-35 0 -64 -13l-3 9q77 53 185 53q36 0 74 -6q2 3 4 5t3 4q42 41 83.5 81.5t83.5 73.5t84 55t83 26l27 3l-24 -11q-51 -71 -86 -134.5t-55 -117.5q91 1 168 40l30 14l-25 -22
q-50 -48 -99 -76t-100 -40q-10 -48 -6 -80.5t19 -45.5q21 -16 43 -16q24 0 55 13.5t69 39.5zM624 365q34 51 77.5 103.5t95.5 106.5q-49 -27 -100.5 -82t-105.5 -123q8 -1 16.5 -2t16.5 -3zM311 529q-14 0 -24 -3l-18 -9l11 15q21 24 43 38.5t44.5 22.5t44.5 10.5t42 2.5
q22 0 43 -2.5t44 -4.5q20 -2 39 -3.5t37 -1.5q27 0 47.5 5t36.5 14l27 15l-21 -22q-51 -57 -103.5 -84t-109.5 -27q-33 0 -61.5 6.5t-54.5 13.5q-19 5 -35.5 9.5t-31.5 4.5zM657 713l78 93l180 -112l-27 -29z" />
    <glyph glyph-name="Aacute" unicode="&#xc1;" horiz-adv-x="857" 
d="M883 204l-11 -19q-54 -93 -118.5 -144.5t-124.5 -51.5q-40 0 -72 24q-36 28 -40 82q-3 74 52 181q-11 2 -22.5 4.5t-22.5 4.5q-37 -46 -74 -90t-73.5 -81.5t-73 -65.5t-72.5 -41q-24 -10 -47 -14t-43 -4q-31 0 -54 8.5t-39.5 21.5t-26.5 29t-15 32q-9 38 6 71.5t51 53.5
l4 2l2 -3q27 -51 95 -51q27 0 60 10q53 13 106.5 53.5t108.5 93.5q-32 10 -62.5 17.5t-59.5 7.5q-35 0 -64 -13l-3 9q77 53 185 53q36 0 74 -6q2 3 4 5t3 4q42 41 83.5 81.5t83.5 73.5t84 55t83 26l27 3l-24 -11q-51 -71 -86 -134.5t-55 -117.5q91 1 168 40l30 14l-25 -22
q-50 -48 -99 -76t-100 -40q-10 -48 -6 -80.5t19 -45.5q21 -16 43 -16q24 0 55 13.5t69 39.5zM624 365q34 51 77.5 103.5t95.5 106.5q-49 -27 -100.5 -82t-105.5 -123q8 -1 16.5 -2t16.5 -3zM311 529q-14 0 -24 -3l-18 -9l11 15q21 24 43 38.5t44.5 22.5t44.5 10.5t42 2.5
q22 0 43 -2.5t44 -4.5q20 -2 39 -3.5t37 -1.5q27 0 47.5 5t36.5 14l27 15l-21 -22q-51 -57 -103.5 -84t-109.5 -27q-33 0 -61.5 6.5t-54.5 13.5q-19 5 -35.5 9.5t-31.5 4.5zM778 657l-28 29l180 112l79 -93z" />
    <glyph glyph-name="Acircumflex" unicode="&#xc2;" horiz-adv-x="857" 
d="M883 204l-11 -19q-54 -93 -118.5 -144.5t-124.5 -51.5q-40 0 -72 24q-36 28 -40 82q-3 74 52 181q-11 2 -22.5 4.5t-22.5 4.5q-37 -46 -74 -90t-73.5 -81.5t-73 -65.5t-72.5 -41q-24 -10 -47 -14t-43 -4q-31 0 -54 8.5t-39.5 21.5t-26.5 29t-15 32q-9 38 6 71.5t51 53.5
l4 2l2 -3q27 -51 95 -51q27 0 60 10q53 13 106.5 53.5t108.5 93.5q-32 10 -62.5 17.5t-59.5 7.5q-35 0 -64 -13l-3 9q77 53 185 53q36 0 74 -6q2 3 4 5t3 4q42 41 83.5 81.5t83.5 73.5t84 55t83 26l27 3l-24 -11q-51 -71 -86 -134.5t-55 -117.5q91 1 168 40l30 14l-25 -22
q-50 -48 -99 -76t-100 -40q-10 -48 -6 -80.5t19 -45.5q21 -16 43 -16q24 0 55 13.5t69 39.5zM624 365q34 51 77.5 103.5t95.5 106.5q-49 -27 -100.5 -82t-105.5 -123q8 -1 16.5 -2t16.5 -3zM311 529q-14 0 -24 -3l-18 -9l11 15q21 24 43 38.5t44.5 22.5t44.5 10.5t42 2.5
q22 0 43 -2.5t44 -4.5q20 -2 39 -3.5t37 -1.5q27 0 47.5 5t36.5 14l27 15l-21 -22q-51 -57 -103.5 -84t-109.5 -27q-33 0 -61.5 6.5t-54.5 13.5q-19 5 -35.5 9.5t-31.5 4.5zM868 817h67l33 -141h-117l-8 68l-112 -68h-81z" />
    <glyph glyph-name="Atilde" unicode="&#xc3;" horiz-adv-x="857" 
d="M883 204l-11 -19q-54 -93 -118.5 -144.5t-124.5 -51.5q-40 0 -72 24q-36 28 -40 82q-3 74 52 181q-11 2 -22.5 4.5t-22.5 4.5q-37 -46 -74 -90t-73.5 -81.5t-73 -65.5t-72.5 -41q-24 -10 -47 -14t-43 -4q-31 0 -54 8.5t-39.5 21.5t-26.5 29t-15 32q-9 38 6 71.5t51 53.5
l4 2l2 -3q27 -51 95 -51q27 0 60 10q53 13 106.5 53.5t108.5 93.5q-32 10 -62.5 17.5t-59.5 7.5q-35 0 -64 -13l-3 9q77 53 185 53q36 0 74 -6q2 3 4 5t3 4q42 41 83.5 81.5t83.5 73.5t84 55t83 26l27 3l-24 -11q-51 -71 -86 -134.5t-55 -117.5q91 1 168 40l30 14l-25 -22
q-50 -48 -99 -76t-100 -40q-10 -48 -6 -80.5t19 -45.5q21 -16 43 -16q24 0 55 13.5t69 39.5zM311 529q-14 0 -24 -3l-18 -9l11 15q21 24 43 38.5t44.5 22.5t44.5 10.5t42 2.5q22 0 43 -2.5t44 -4.5q20 -2 39 -3.5t37 -1.5q27 0 47.5 5t36.5 14l27 15l-21 -22
q-51 -57 -103.5 -84t-109.5 -27q-33 0 -61.5 6.5t-54.5 13.5q-19 5 -35.5 9.5t-31.5 4.5zM631 694q44 63 86 89t87 28q22 1 32.5 -7t18 -17.5t15.5 -18.5t23 -10q11 -1 20.5 7.5t17.5 18.5q9 11 16 27h53q-23 -36 -49 -64q-11 -12 -24.5 -23.5t-28 -20.5t-30.5 -14t-32 -4
q-25 1 -37 10t-19.5 19t-15 18.5t-23.5 8.5q-14 0 -25.5 -7.5t-20.5 -16.5q-11 -11 -19 -23h-45zM624 365q34 51 77.5 103.5t95.5 106.5q-49 -27 -100.5 -82t-105.5 -123q8 -1 16.5 -2t16.5 -3z" />
    <glyph glyph-name="Adieresis" unicode="&#xc4;" horiz-adv-x="857" 
d="M883 204l-11 -19q-54 -93 -118.5 -144.5t-124.5 -51.5q-40 0 -72 24q-36 28 -40 82q-3 74 52 181q-11 2 -22.5 4.5t-22.5 4.5q-37 -46 -74 -90t-73.5 -81.5t-73 -65.5t-72.5 -41q-24 -10 -47 -14t-43 -4q-31 0 -54 8.5t-39.5 21.5t-26.5 29t-15 32q-9 38 6 71.5t51 53.5
l4 2l2 -3q27 -51 95 -51q27 0 60 10q53 13 106.5 53.5t108.5 93.5q-32 10 -62.5 17.5t-59.5 7.5q-35 0 -64 -13l-3 9q77 53 185 53q36 0 74 -6q2 3 4 5t3 4q42 41 83.5 81.5t83.5 73.5t84 55t83 26l27 3l-24 -11q-51 -71 -86 -134.5t-55 -117.5q91 1 168 40l30 14l-25 -22
q-50 -48 -99 -76t-100 -40q-10 -48 -6 -80.5t19 -45.5q21 -16 43 -16q24 0 55 13.5t69 39.5zM624 365q34 51 77.5 103.5t95.5 106.5q-49 -27 -100.5 -82t-105.5 -123q8 -1 16.5 -2t16.5 -3zM311 529q-14 0 -24 -3l-18 -9l11 15q21 24 43 38.5t44.5 22.5t44.5 10.5t42 2.5
q22 0 43 -2.5t44 -4.5q20 -2 39 -3.5t37 -1.5q27 0 47.5 5t36.5 14l27 15l-21 -22q-51 -57 -103.5 -84t-109.5 -27q-33 0 -61.5 6.5t-54.5 13.5q-19 5 -35.5 9.5t-31.5 4.5zM654 731q0 29 20 48.5t48 19.5q29 0 48.5 -19.5t19.5 -48.5t-19.5 -48.5t-48.5 -19.5
q-28 0 -48 19.5t-20 48.5zM822 731q0 29 20 48.5t48 19.5q29 0 48.5 -19.5t19.5 -48.5t-19.5 -48.5t-48.5 -19.5q-28 0 -48 19.5t-20 48.5z" />
    <glyph glyph-name="Aring" unicode="&#xc5;" horiz-adv-x="857" 
d="M744 687q0 41 28 69.5t69 28.5q20 0 37.5 -7.5t31 -21t21 -31.5t7.5 -38t-7.5 -37.5t-21 -31t-31 -21t-37.5 -7.5h-6q-44 -64 -74.5 -121t-48.5 -106q91 1 168 40l30 14l-25 -22q-50 -48 -99 -76t-100 -40q-10 -48 -6 -80.5t19 -45.5q21 -16 43 -16q24 0 55 13.5t69 39.5
l17 14l-11 -19q-54 -93 -118.5 -144.5t-124.5 -51.5q-40 0 -72 24q-36 28 -40 82q-3 74 52 181q-11 2 -22.5 4.5t-22.5 4.5q-37 -46 -74 -90t-73.5 -81.5t-73 -65.5t-72.5 -41q-24 -10 -47 -14t-43 -4q-31 0 -54 8.5t-39.5 21.5t-26.5 29t-15 32q-9 38 6 71.5t51 53.5l4 2
l2 -3q27 -51 95 -51q27 0 60 10q53 13 106.5 53.5t108.5 93.5q-32 10 -62.5 17.5t-59.5 7.5q-35 0 -64 -13l-3 9q77 53 185 53q36 0 74 -6q2 3 4 5t3 4q34 33 67.5 66.5t67.5 62.5t67.5 52.5t67.5 37.5q-20 14 -31 35t-11 46zM311 529q-14 0 -24 -3l-18 -9l11 15
q21 24 43 38.5t44.5 22.5t44.5 10.5t42 2.5q22 0 43 -2.5t44 -4.5q20 -2 39 -3.5t37 -1.5q27 0 47.5 5t36.5 14l27 15l-21 -22q-51 -57 -103.5 -84t-109.5 -27q-33 0 -61.5 6.5t-54.5 13.5q-19 5 -35.5 9.5t-31.5 4.5zM793 687q0 -20 14.5 -34.5t34.5 -14.5t34.5 14.5
t14.5 34.5t-14.5 34.5t-34.5 14.5t-34.5 -14.5t-14.5 -34.5zM624 365q34 51 77.5 103.5t95.5 106.5q-49 -27 -100.5 -82t-105.5 -123q8 -1 16.5 -2t16.5 -3z" />
    <glyph glyph-name="AE" unicode="&#xc6;" horiz-adv-x="1216" 
d="M1222 172q-37 -59 -90.5 -102.5t-114.5 -72t-123.5 -42t-117.5 -13.5q-73 0 -124 21t-72 59q-25 49 -5 102q9 21 24 41.5t35 39t43.5 35t48.5 30.5q-19 2 -39.5 5t-38.5 5t-31 4t-16 3q-42 -45 -84.5 -89t-84.5 -81t-84 -65t-83 -41q-27 -10 -53.5 -14t-49.5 -4
q-35 0 -61.5 8.5t-45 21.5t-30 29t-17.5 31q-11 38 6 71.5t59 53.5l5 2l2 -3q30 -51 109 -51q31 0 68 10q61 13 122.5 53t124.5 93q-38 10 -72 17.5t-68 7.5q-41 0 -73 -13l-4 9q88 53 212 53q41 0 85 -6q2 3 4.5 4.5t3.5 3.5q48 41 95.5 81.5t95.5 73.5t96 54.5t95 25.5
l31 3l-27 -11q-12 -14 -22.5 -27t-20.5 -27q42 22 93 36t109 17h22q88 0 139 -31q23 -14 34.5 -31.5t11.5 -37.5q0 -33 -33 -59.5t-99 -26.5q-50 0 -104 16l-21 7l23 2q50 6 76.5 29t25.5 48q-1 20 -19 31.5t-50 11.5h-8.5t-8.5 -1q-35 -3 -64 -15.5t-49.5 -30t-31.5 -38
t-10 -39.5q2 -30 31 -47.5t81 -17.5h23l-20 -9q-130 -53 -209 -109.5t-96 -109.5q-12 -37 9 -70q17 -26 49 -40.5t76 -14.5q37 0 77 10.5t79 29.5t75.5 46t66.5 61zM431 529q-14 0 -24 -3l-18 -9l11 15q21 24 43 38.5t44.5 22.5t44.5 10.5t42 2.5q22 0 43 -2.5t44 -4.5
q20 -2 39 -3.5t37 -1.5q27 0 47.5 5t36.5 14l27 15l-21 -22q-51 -57 -103.5 -84t-109.5 -27q-33 0 -61.5 6.5t-54.5 13.5q-19 5 -35.5 9.5t-31.5 4.5zM807 430q9 48 69 94q8 14 17 27t17 20q-28 -13 -57 -34t-58 -47t-58.5 -56t-58.5 -62l156 -16q-35 30 -27 74z" />
    <glyph glyph-name="Ccedilla" unicode="&#xc7;" horiz-adv-x="582" 
d="M546 232q-23 -54 -60 -96.5t-82 -71.5t-94.5 -45t-95.5 -19l-50 -64q37 -3 61 -15q10 -5 18.5 -13t13 -18.5t3.5 -25t-10 -32.5q-13 -26 -35.5 -40.5t-50 -19t-56.5 -1t-53.5 13t-42 24t-22.5 30.5l35 16q4 -13 20.5 -20.5t37 -8.5t38.5 5t25 21q7 16 4 28t-12.5 18.5
t-22.5 9t-25 0.5q12 16 23 33q10 14 21.5 30t22.5 30q-51 6 -90 31q-45 29 -59 81t4 120q20 69 64.5 136t109.5 121q26 22 60.5 45t77 42.5t92.5 32.5t108 15h12q45 0 76 -10.5t50.5 -27.5t28.5 -38t9 -41q0 -30 -16 -59.5t-46.5 -53t-74.5 -38t-100 -14.5q-34 0 -70 5.5
t-74 16.5l-22 7l24 3q64 6 114 24.5t84.5 43t53.5 51t20 48.5q2 35 -36 43q-7 1 -14.5 1.5t-15.5 0.5q-50 0 -103 -26t-99.5 -67t-82 -90.5t-50.5 -97.5q-6 -18 -9.5 -39.5t-1.5 -43t12.5 -42t33.5 -37.5q33 -24 83 -24q32 0 65 8.5t63 24.5t56 37.5t43 47.5l9 -6v0z" />
    <glyph glyph-name="Egrave" unicode="&#xc8;" horiz-adv-x="657" 
d="M658 172q-37 -59 -90.5 -102.5t-114.5 -72t-123.5 -42t-117.5 -13.5q-73 0 -124 21t-72 59q-25 49 -5 102q15 37 49.5 70.5t77 61t87 47.5t78.5 32q-71 35 -60 95q6 30 33.5 61t71.5 57.5t101.5 44.5t123.5 21h22q88 0 139 -31q23 -14 34.5 -31.5t11.5 -37.5
q0 -33 -33 -59.5t-99 -26.5q-50 0 -104 16l-21 7l23 2q50 6 76.5 29t25.5 48q-1 20 -19 31.5t-50 11.5h-8.5t-8.5 -1q-35 -3 -64 -15.5t-49.5 -30t-31.5 -38t-10 -39.5q2 -30 31 -47.5t81 -17.5h23l-20 -9q-130 -53 -209 -109.5t-96 -109.5q-12 -37 9 -70q17 -26 49 -40.5
t76 -14.5q37 0 77 10.5t79 29.5t75.5 46t66.5 61zM126 516q-11 0 -20 -1t-16 -5l-12 -3l6 10q14 27 32.5 43t39.5 24.5t44.5 11.5t46.5 3h25q6 -1 12 -1h12q20 0 39.5 3t33.5 12l23 15l-17 -22q-25 -32 -48 -51t-44.5 -29t-41 -13t-35.5 -3q-11 0 -21.5 1.5t-21.5 2.5
q-10 1 -19 1.5t-18 0.5zM445 721l78 93l180 -112l-27 -29z" />
    <glyph glyph-name="Eacute" unicode="&#xc9;" horiz-adv-x="657" 
d="M658 172q-37 -59 -90.5 -102.5t-114.5 -72t-123.5 -42t-117.5 -13.5q-73 0 -124 21t-72 59q-25 49 -5 102q15 37 49.5 70.5t77 61t87 47.5t78.5 32q-71 35 -60 95q6 30 33.5 61t71.5 57.5t101.5 44.5t123.5 21h22q88 0 139 -31q23 -14 34.5 -31.5t11.5 -37.5
q0 -33 -33 -59.5t-99 -26.5q-50 0 -104 16l-21 7l23 2q50 6 76.5 29t25.5 48q-1 20 -19 31.5t-50 11.5h-8.5t-8.5 -1q-35 -3 -64 -15.5t-49.5 -30t-31.5 -38t-10 -39.5q2 -30 31 -47.5t81 -17.5h23l-20 -9q-130 -53 -209 -109.5t-96 -109.5q-12 -37 9 -70q17 -26 49 -40.5
t76 -14.5q37 0 77 10.5t79 29.5t75.5 46t66.5 61zM126 516q-11 0 -20 -1t-16 -5l-12 -3l6 10q14 27 32.5 43t39.5 24.5t44.5 11.5t46.5 3h25q6 -1 12 -1h12q20 0 39.5 3t33.5 12l23 15l-17 -22q-25 -32 -48 -51t-44.5 -29t-41 -13t-35.5 -3q-11 0 -21.5 1.5t-21.5 2.5
q-10 1 -19 1.5t-18 0.5zM553 663l-28 29l180 112l79 -93z" />
    <glyph glyph-name="Ecircumflex" unicode="&#xca;" horiz-adv-x="657" 
d="M658 172q-37 -59 -90.5 -102.5t-114.5 -72t-123.5 -42t-117.5 -13.5q-73 0 -124 21t-72 59q-25 49 -5 102q15 37 49.5 70.5t77 61t87 47.5t78.5 32q-71 35 -60 95q6 30 33.5 61t71.5 57.5t101.5 44.5t123.5 21h22q88 0 139 -31q23 -14 34.5 -31.5t11.5 -37.5
q0 -33 -33 -59.5t-99 -26.5q-50 0 -104 16l-21 7l23 2q50 6 76.5 29t25.5 48q-1 20 -19 31.5t-50 11.5h-8.5t-8.5 -1q-35 -3 -64 -15.5t-49.5 -30t-31.5 -38t-10 -39.5q2 -30 31 -47.5t81 -17.5h23l-20 -9q-130 -53 -209 -109.5t-96 -109.5q-12 -37 9 -70q17 -26 49 -40.5
t76 -14.5q37 0 77 10.5t79 29.5t75.5 46t66.5 61zM668 810h67l33 -141h-117l-8 68l-112 -68h-81zM126 516q-11 0 -20 -1t-16 -5l-12 -3l6 10q14 27 32.5 43t39.5 24.5t44.5 11.5t46.5 3h25q6 -1 12 -1h12q20 0 39.5 3t33.5 12l23 15l-17 -22q-25 -32 -48 -51t-44.5 -29
t-41 -13t-35.5 -3q-11 0 -21.5 1.5t-21.5 2.5q-10 1 -19 1.5t-18 0.5z" />
    <glyph glyph-name="Edieresis" unicode="&#xcb;" horiz-adv-x="657" 
d="M658 172q-37 -59 -90.5 -102.5t-114.5 -72t-123.5 -42t-117.5 -13.5q-73 0 -124 21t-72 59q-25 49 -5 102q15 37 49.5 70.5t77 61t87 47.5t78.5 32q-71 35 -60 95q6 30 33.5 61t71.5 57.5t101.5 44.5t123.5 21h22q88 0 139 -31q23 -14 34.5 -31.5t11.5 -37.5
q0 -33 -33 -59.5t-99 -26.5q-50 0 -104 16l-21 7l23 2q50 6 76.5 29t25.5 48q-1 20 -19 31.5t-50 11.5h-8.5t-8.5 -1q-35 -3 -64 -15.5t-49.5 -30t-31.5 -38t-10 -39.5q2 -30 31 -47.5t81 -17.5h23l-20 -9q-130 -53 -209 -109.5t-96 -109.5q-12 -37 9 -70q17 -26 49 -40.5
t76 -14.5q37 0 77 10.5t79 29.5t75.5 46t66.5 61zM126 516q-11 0 -20 -1t-16 -5l-12 -3l6 10q14 27 32.5 43t39.5 24.5t44.5 11.5t46.5 3h25q6 -1 12 -1h12q20 0 39.5 3t33.5 12l23 15l-17 -22q-25 -32 -48 -51t-44.5 -29t-41 -13t-35.5 -3q-11 0 -21.5 1.5t-21.5 2.5
q-10 1 -19 1.5t-18 0.5zM483 736q0 29 20 48.5t48 19.5q29 0 48.5 -19.5t19.5 -48.5t-19.5 -48.5t-48.5 -19.5q-28 0 -48 19.5t-20 48.5zM651 736q0 29 20 48.5t48 19.5q29 0 48.5 -19.5t19.5 -48.5t-19.5 -48.5t-48.5 -19.5q-28 0 -48 19.5t-20 48.5z" />
    <glyph glyph-name="Igrave" unicode="&#xcc;" horiz-adv-x="638" 
d="M581 253q-45 -58 -97 -105t-106 -80t-108 -51t-103 -18q-17 0 -32.5 1.5t-32.5 6.5q-94 28 -99 98q-2 40 30.5 79t91.5 61q2 -35 27.5 -53t68.5 -18q25 0 57.5 7.5t68 24t72 44t69.5 66.5q37 43 65 85.5t45.5 79.5t23.5 66t-1 46q-9 19 -35 19q-38 0 -77 -18t-71 -47
t-52.5 -66t-21.5 -75q-1 -25 10 -39.5t30 -15.5q13 -2 30.5 4.5t46.5 20.5q-15 -38 -35 -65t-42 -44t-45 -24.5t-44 -5.5q-26 2 -44.5 17t-27.5 39q-14 38 -2 84.5t50 95.5q26 34 61 65.5t77 56t89.5 39.5t98.5 15q62 0 85 -44q13 -28 8.5 -70.5t-22.5 -91t-46 -98
t-61 -92.5zM483 731l78 93l180 -112l-27 -29z" />
    <glyph glyph-name="Iacute" unicode="&#xcd;" horiz-adv-x="638" 
d="M581 253q-45 -58 -97 -105t-106 -80t-108 -51t-103 -18q-17 0 -32.5 1.5t-32.5 6.5q-94 28 -99 98q-2 40 30.5 79t91.5 61q2 -35 27.5 -53t68.5 -18q25 0 57.5 7.5t68 24t72 44t69.5 66.5q37 43 65 85.5t45.5 79.5t23.5 66t-1 46q-9 19 -35 19q-38 0 -77 -18t-71 -47
t-52.5 -66t-21.5 -75q-1 -25 10 -39.5t30 -15.5q13 -2 30.5 4.5t46.5 20.5q-15 -38 -35 -65t-42 -44t-45 -24.5t-44 -5.5q-26 2 -44.5 17t-27.5 39q-14 38 -2 84.5t50 95.5q26 34 61 65.5t77 56t89.5 39.5t98.5 15q62 0 85 -44q13 -28 8.5 -70.5t-22.5 -91t-46 -98
t-61 -92.5zM585 683l-28 29l180 112l79 -93z" />
    <glyph glyph-name="Icircumflex" unicode="&#xce;" horiz-adv-x="638" 
d="M581 253q-45 -58 -97 -105t-106 -80t-108 -51t-103 -18q-17 0 -32.5 1.5t-32.5 6.5q-94 28 -99 98q-2 40 30.5 79t91.5 61q2 -35 27.5 -53t68.5 -18q25 0 57.5 7.5t68 24t72 44t69.5 66.5q37 43 65 85.5t45.5 79.5t23.5 66t-1 46q-9 19 -35 19q-38 0 -77 -18t-71 -47
t-52.5 -66t-21.5 -75q-1 -25 10 -39.5t30 -15.5q13 -2 30.5 4.5t46.5 20.5q-15 -38 -35 -65t-42 -44t-45 -24.5t-44 -5.5q-26 2 -44.5 17t-27.5 39q-14 38 -2 84.5t50 95.5q26 34 61 65.5t77 56t89.5 39.5t98.5 15q62 0 85 -44q13 -28 8.5 -70.5t-22.5 -91t-46 -98
t-61 -92.5zM680 830h67l33 -141h-117l-8 68l-112 -68h-81z" />
    <glyph glyph-name="Idieresis" unicode="&#xcf;" horiz-adv-x="638" 
d="M581 253q-45 -58 -97 -105t-106 -80t-108 -51t-103 -18q-17 0 -32.5 1.5t-32.5 6.5q-94 28 -99 98q-2 40 30.5 79t91.5 61q2 -35 27.5 -53t68.5 -18q25 0 57.5 7.5t68 24t72 44t69.5 66.5q37 43 65 85.5t45.5 79.5t23.5 66t-1 46q-9 19 -35 19q-38 0 -77 -18t-71 -47
t-52.5 -66t-21.5 -75q-1 -25 10 -39.5t30 -15.5q13 -2 30.5 4.5t46.5 20.5q-15 -38 -35 -65t-42 -44t-45 -24.5t-44 -5.5q-26 2 -44.5 17t-27.5 39q-14 38 -2 84.5t50 95.5q26 34 61 65.5t77 56t89.5 39.5t98.5 15q62 0 85 -44q13 -28 8.5 -70.5t-22.5 -91t-46 -98
t-61 -92.5zM486 736q0 29 20 48.5t48 19.5q29 0 48.5 -19.5t19.5 -48.5t-19.5 -48.5t-48.5 -19.5q-28 0 -48 19.5t-20 48.5zM654 736q0 29 20 48.5t48 19.5q29 0 48.5 -19.5t19.5 -48.5t-19.5 -48.5t-48.5 -19.5q-28 0 -48 19.5t-20 48.5z" />
    <glyph glyph-name="Eth" unicode="&#xd0;" horiz-adv-x="1084" 
d="M432 274l99 10q9 11 17.5 21t16.5 21q30 36 59.5 69t69 63t93 57t130.5 50l4 -8q-33 -17 -61.5 -42.5t-55 -57t-50.5 -66.5l-48 -70l-12 -19l106 12l-38 -55l-106 -12q-20 -29 -41 -55.5t-43 -50.5q25 -5 50 -7.5t50 -2.5q70 0 129.5 21t104.5 55.5t75.5 78t42.5 89.5
q16 60 -1.5 107.5t-64.5 74.5q-71 39 -161 39q-51 0 -99 -11t-88.5 -28t-71.5 -39.5t-48 -44.5q-26 -37 -20 -69q8 -25 25.5 -33t33.5 -8q5 0 11.5 0.5t12.5 1.5l19 5l-16 -12q-41 -35 -86.5 -54.5t-82.5 -19.5q-72 0 -83 64q-2 18 7.5 40t31.5 47q31 36 84.5 72.5t118 65.5
t135.5 47t139 18q57 0 104 -13t85 -38q57 -36 76.5 -96.5t-3.5 -135.5q-19 -64 -66 -127t-114 -113.5t-150.5 -82t-176.5 -31.5q-92 0 -179 33q-78 -32 -149 -49.5t-129 -17.5q-48 0 -77.5 11t-36.5 34q-7 20 9 44.5t53 49.5q104 74 262 74q44 0 94 -6q31 28 57 54l-85 -9z
M284 74q-26 8 -51 11t-48 3t-43.5 -3.5t-37.5 -11.5q-26 -11 -35.5 -21.5t-8.5 -18.5q5 -19 50 -19q20 0 63.5 10.5t110.5 49.5z" />
    <glyph glyph-name="Ntilde" unicode="&#xd1;" horiz-adv-x="807" 
d="M679 565q-75 -94 -129.5 -169.5t-96.5 -135.5q-39 -56 -71 -99.5t-63 -76.5t-64 -55.5t-75 -35.5q-17 -5 -33 -8.5t-31 -3.5q-41 0 -70 19.5t-39 52.5q-5 14 -4.5 31.5t8 36.5t22.5 37.5t40 35.5l2 2l4 -2q27 -20 66 -20q45 0 96 26.5t102 66.5t100.5 88t92.5 92
q42 43 77.5 77t60.5 48l21 11zM1181 572q-54 1 -124.5 -32.5t-146 -96.5t-150 -151.5t-136.5 -197.5q-12 -24 -31.5 -47t-51.5 -49l4 14q15 51 19 101t6 100q2 49 5.5 97t18 95t44 92.5t83.5 90.5l13 13l-6 -18q-23 -60 -32 -120t-14 -120q-2 -33 -5.5 -64.5t-9.5 -61.5
q57 87 118 160t122.5 128t121.5 89.5t115 45.5q13 2 30.5 1.5t27.5 -14.5q8 -20 -21 -55zM280 504q-11 0 -21.5 -1t-21.5 -4l-20 -5l16 13q32 27 61 43.5t54.5 24.5t47.5 10.5t40 2.5q19 0 36.5 -1.5t35.5 -3.5q17 -2 33.5 -3t33.5 -1q20 0 38 2.5t35 8.5l21 6l-15 -14
q-56 -51 -106.5 -75.5t-103.5 -24.5q-23 0 -44.5 3.5t-41.5 8.5q-20 4 -39 7t-39 3zM751 661q44 63 86 89t87 28q22 1 32.5 -7t18 -17.5t15.5 -18.5t23 -10q11 -1 20.5 7.5t17.5 18.5q9 11 16 27h53q-23 -36 -49 -64q-11 -12 -24.5 -23.5t-28 -20.5t-30.5 -14t-32 -4
q-25 1 -37 10t-19.5 19t-15 18.5t-23.5 8.5q-14 0 -25.5 -7.5t-20.5 -16.5q-11 -11 -19 -23h-45z" />
    <glyph glyph-name="Ograve" unicode="&#xd2;" horiz-adv-x="677" 
d="M709 515q12 -44 -0.5 -98t-50.5 -113q-39 -63 -100 -121t-139 -108q-64 -40 -126 -60.5t-116 -20.5q-64 0 -109 27t-59 74q-14 43 1.5 102t58.5 125q28 45 71.5 92t98.5 88t120.5 71t139.5 39q11 1 23 1.5t23 0.5q66 0 108 -25.5t56 -73.5zM377 92q56 22 106.5 72
t86.5 111t54 123.5t10 108.5q-14 76 -96 76h-18.5t-19.5 -2q-53 -10 -100.5 -45t-84 -83t-59.5 -104t-27 -109q-4 -38 5.5 -70.5t30.5 -55.5q27 -29 69 -29q22 0 43 7zM436 711l78 93l180 -112l-27 -29z" />
    <glyph glyph-name="Oacute" unicode="&#xd3;" horiz-adv-x="677" 
d="M709 515q12 -44 -0.5 -98t-50.5 -113q-39 -63 -100 -121t-139 -108q-64 -40 -126 -60.5t-116 -20.5q-64 0 -109 27t-59 74q-14 43 1.5 102t58.5 125q28 45 71.5 92t98.5 88t120.5 71t139.5 39q11 1 23 1.5t23 0.5q66 0 108 -25.5t56 -73.5zM377 92q56 22 106.5 72
t86.5 111t54 123.5t10 108.5q-14 76 -96 76h-18.5t-19.5 -2q-53 -10 -100.5 -45t-84 -83t-59.5 -104t-27 -109q-4 -38 5.5 -70.5t30.5 -55.5q27 -29 69 -29q22 0 43 7zM529 659l-28 29l180 112l79 -93z" />
    <glyph glyph-name="Ocircumflex" unicode="&#xd4;" horiz-adv-x="677" 
d="M709 515q12 -44 -0.5 -98t-50.5 -113q-39 -63 -100 -121t-139 -108q-64 -40 -126 -60.5t-116 -20.5q-64 0 -109 27t-59 74q-14 43 1.5 102t58.5 125q28 45 71.5 92t98.5 88t120.5 71t139.5 39q11 1 23 1.5t23 0.5q66 0 108 -25.5t56 -73.5zM377 92q56 22 106.5 72
t86.5 111t54 123.5t10 108.5q-14 76 -96 76h-18.5t-19.5 -2q-53 -10 -100.5 -45t-84 -83t-59.5 -104t-27 -109q-4 -38 5.5 -70.5t30.5 -55.5q27 -29 69 -29q22 0 43 7zM624 830h67l33 -141h-117l-8 68l-112 -68h-81z" />
    <glyph glyph-name="Otilde" unicode="&#xd5;" horiz-adv-x="677" 
d="M709 515q12 -44 -0.5 -98t-50.5 -113q-39 -63 -100 -121t-139 -108q-64 -40 -126 -60.5t-116 -20.5q-64 0 -109 27t-59 74q-14 43 1.5 102t58.5 125q28 45 71.5 92t98.5 88t120.5 71t139.5 39q11 1 23 1.5t23 0.5q66 0 108 -25.5t56 -73.5zM377 92q56 22 106.5 72
t86.5 111t54 123.5t10 108.5q-14 76 -96 76h-18.5t-19.5 -2q-53 -10 -100.5 -45t-84 -83t-59.5 -104t-27 -109q-4 -38 5.5 -70.5t30.5 -55.5q27 -29 69 -29q22 0 43 7zM412 681q44 63 86 89t87 28q22 1 32.5 -7t18 -17.5t15.5 -18.5t23 -10q11 -1 20.5 7.5t17.5 18.5
q9 11 16 27h53q-23 -36 -49 -64q-11 -12 -24.5 -23.5t-28 -20.5t-30.5 -14t-32 -4q-25 1 -37 10t-19.5 19t-15 18.5t-23.5 8.5q-14 0 -25.5 -7.5t-20.5 -16.5q-11 -11 -19 -23h-45z" />
    <glyph glyph-name="Odieresis" unicode="&#xd6;" horiz-adv-x="677" 
d="M709 515q12 -44 -0.5 -98t-50.5 -113q-39 -63 -100 -121t-139 -108q-64 -40 -126 -60.5t-116 -20.5q-64 0 -109 27t-59 74q-14 43 1.5 102t58.5 125q28 45 71.5 92t98.5 88t120.5 71t139.5 39q11 1 23 1.5t23 0.5q66 0 108 -25.5t56 -73.5zM377 92q56 22 106.5 72
t86.5 111t54 123.5t10 108.5q-14 76 -96 76h-18.5t-19.5 -2q-53 -10 -100.5 -45t-84 -83t-59.5 -104t-27 -109q-4 -38 5.5 -70.5t30.5 -55.5q27 -29 69 -29q22 0 43 7zM457 736q0 29 20 48.5t48 19.5q29 0 48.5 -19.5t19.5 -48.5t-19.5 -48.5t-48.5 -19.5q-28 0 -48 19.5
t-20 48.5zM625 736q0 29 20 48.5t48 19.5q29 0 48.5 -19.5t19.5 -48.5t-19.5 -48.5t-48.5 -19.5q-28 0 -48 19.5t-20 48.5z" />
    <glyph glyph-name="multiply" unicode="&#xd7;" horiz-adv-x="666" 
d="M355 104l-39 81l-132 -83l-109 -4l218 137l-57 121l110 2l33 -70l114 72l109 3l-200 -125l63 -132z" />
    <glyph glyph-name="Oslash" unicode="&#xd8;" horiz-adv-x="677" 
d="M709 515q12 -44 -0.5 -98t-50.5 -113q-39 -63 -100 -121t-139 -108q-64 -40 -126 -60.5t-116 -20.5q-52 0 -95 19l-63 -57h-73l95 86q-24 24 -32 53q-14 43 1.5 102t58.5 125q28 45 71.5 92t98.5 88t120.5 71t139.5 39q11 1 23 1.5t23 0.5q62 0 103 -23l79 71h73
l-114 -103q16 -19 23 -44zM377 92q56 22 106.5 72t86.5 111t54 123.5t10 108.5q-1 1 -0.5 2t-0.5 2l-394 -356q10 -25 26 -41q27 -29 69 -29q22 0 43 7zM229 240q-1 -8 -1.5 -15t0.5 -14l382 345q-26 27 -72 27h-18.5t-19.5 -2q-53 -10 -100.5 -45t-84 -83t-59.5 -104
t-27 -109z" />
    <glyph glyph-name="Ugrave" unicode="&#xd9;" horiz-adv-x="706" 
d="M745 205q-84 -105 -161.5 -160.5t-141.5 -55.5q-20 0 -39 7t-34 18q-35 26 -38 72q-2 26 8 55q-72 -70 -138 -106.5t-118 -36.5q-62 0 -76 50q-12 38 6.5 96t71 129.5t141.5 154t219 170.5l37 25l-32 -31q-76 -79 -123 -146t-71.5 -120.5t-30 -91t2.5 -56.5
q10 -24 36 -24q23 0 52.5 17t61.5 49q48 59 99 118t100.5 111.5t96 95t86.5 68.5l33 22l-27 -29q-61 -64 -110 -126.5t-83 -118.5t-52 -102.5t-17 -79.5q1 -30 20 -47q9 -7 19 -10.5t24 -3.5q30 0 72 22.5t99 70.5zM76 488q24 40 48 63.5t47 35.5t46 15t44 3h13.5t11.5 -2
h26q23 0 48.5 3.5t52.5 16.5l25 12l-20 -20q-44 -42 -78.5 -65t-63 -33.5t-51.5 -12.5t-45 -2q-23 0 -46 -2.5t-51 -17.5l-15 -8zM485 731l78 93l180 -112l-27 -29z" />
    <glyph glyph-name="Uacute" unicode="&#xda;" horiz-adv-x="706" 
d="M745 205q-84 -105 -161.5 -160.5t-141.5 -55.5q-20 0 -39 7t-34 18q-35 26 -38 72q-2 26 8 55q-72 -70 -138 -106.5t-118 -36.5q-62 0 -76 50q-12 38 6.5 96t71 129.5t141.5 154t219 170.5l37 25l-32 -31q-76 -79 -123 -146t-71.5 -120.5t-30 -91t2.5 -56.5
q10 -24 36 -24q23 0 52.5 17t61.5 49q48 59 99 118t100.5 111.5t96 95t86.5 68.5l33 22l-27 -29q-61 -64 -110 -126.5t-83 -118.5t-52 -102.5t-17 -79.5q1 -30 20 -47q9 -7 19 -10.5t24 -3.5q30 0 72 22.5t99 70.5zM76 488q24 40 48 63.5t47 35.5t46 15t44 3h13.5t11.5 -2
h26q23 0 48.5 3.5t52.5 16.5l25 12l-20 -20q-44 -42 -78.5 -65t-63 -33.5t-51.5 -12.5t-45 -2q-23 0 -46 -2.5t-51 -17.5l-15 -8zM574 683l-28 29l180 112l79 -93z" />
    <glyph glyph-name="Ucircumflex" unicode="&#xdb;" horiz-adv-x="706" 
d="M745 205q-84 -105 -161.5 -160.5t-141.5 -55.5q-20 0 -39 7t-34 18q-35 26 -38 72q-2 26 8 55q-72 -70 -138 -106.5t-118 -36.5q-62 0 -76 50q-12 38 6.5 96t71 129.5t141.5 154t219 170.5l37 25l-32 -31q-76 -79 -123 -146t-71.5 -120.5t-30 -91t2.5 -56.5
q10 -24 36 -24q23 0 52.5 17t61.5 49q48 59 99 118t100.5 111.5t96 95t86.5 68.5l33 22l-27 -29q-61 -64 -110 -126.5t-83 -118.5t-52 -102.5t-17 -79.5q1 -30 20 -47q9 -7 19 -10.5t24 -3.5q30 0 72 22.5t99 70.5zM687 830h67l33 -141h-117l-8 68l-112 -68h-81zM76 488
q24 40 48 63.5t47 35.5t46 15t44 3h13.5t11.5 -2h26q23 0 48.5 3.5t52.5 16.5l25 12l-20 -20q-44 -42 -78.5 -65t-63 -33.5t-51.5 -12.5t-45 -2q-23 0 -46 -2.5t-51 -17.5l-15 -8z" />
    <glyph glyph-name="Udieresis" unicode="&#xdc;" horiz-adv-x="706" 
d="M745 205q-84 -105 -161.5 -160.5t-141.5 -55.5q-20 0 -39 7t-34 18q-35 26 -38 72q-2 26 8 55q-72 -70 -138 -106.5t-118 -36.5q-62 0 -76 50q-12 38 6.5 96t71 129.5t141.5 154t219 170.5l37 25l-32 -31q-76 -79 -123 -146t-71.5 -120.5t-30 -91t2.5 -56.5
q10 -24 36 -24q23 0 52.5 17t61.5 49q48 59 99 118t100.5 111.5t96 95t86.5 68.5l33 22l-27 -29q-61 -64 -110 -126.5t-83 -118.5t-52 -102.5t-17 -79.5q1 -30 20 -47q9 -7 19 -10.5t24 -3.5q30 0 72 22.5t99 70.5zM76 488q24 40 48 63.5t47 35.5t46 15t44 3h13.5t11.5 -2
h26q23 0 48.5 3.5t52.5 16.5l25 12l-20 -20q-44 -42 -78.5 -65t-63 -33.5t-51.5 -12.5t-45 -2q-23 0 -46 -2.5t-51 -17.5l-15 -8zM477 736q0 29 20 48.5t48 19.5q29 0 48.5 -19.5t19.5 -48.5t-19.5 -48.5t-48.5 -19.5q-28 0 -48 19.5t-20 48.5zM645 736q0 29 20 48.5
t48 19.5q29 0 48.5 -19.5t19.5 -48.5t-19.5 -48.5t-48.5 -19.5q-28 0 -48 19.5t-20 48.5z" />
    <glyph glyph-name="Yacute" unicode="&#xdd;" horiz-adv-x="680" 
d="M978 635q-53 -27 -100 -62t-93.5 -82.5t-94 -109.5t-101.5 -144q-109 -165 -213.5 -248.5t-204.5 -83.5q-14 0 -27.5 2t-27.5 5q-32 7 -52 28.5t-24 51.5q-5 36 14.5 70.5t57.5 55.5l3 1l3 -2q20 -22 50.5 -33t68.5 -11q22 0 55 6.5t73.5 26.5t87 56.5t96.5 97.5
q6 8 11 15t10 15q-64 -50 -127.5 -77t-118.5 -27q-46 0 -77 18.5t-41 50.5q-15 47 17.5 101.5t106.5 105.5q32 22 53 41.5t33 35.5t15.5 28t1.5 20q-6 19 -41 19q-17 0 -37 -4t-43 -14q-45 -16 -81.5 -39.5t-62 -49.5t-39 -52t-11.5 -47q1 -34 43 -42l6 -3l-3 -5
q-15 -21 -37 -32.5t-45 -11.5q-40 0 -66 32q-11 13 -13 31.5t5 39.5q7 25 28 53t56 56.5t86 54.5t120 47q40 12 74.5 18.5t63.5 6.5q50 0 71.5 -15.5t27.5 -30.5q11 -29 -6.5 -68t-62.5 -83q-33 -34 -47 -62.5t-6 -48.5q16 -33 72 -33q24 0 52 6t56 19q11 20 20.5 42.5
t17.5 44.5q18 44 38.5 85.5t52 73.5t80 51.5t123.5 19.5q12 0 24.5 -1t26.5 -3l15 -1zM626 683l-28 29l180 112l79 -93z" />
    <glyph glyph-name="Thorn" unicode="&#xde;" horiz-adv-x="908" 
d="M746 471q-24 0 -55.5 -9t-67.5 -35.5t-74 -75t-75 -128.5q-28 -60 -64 -108t-76.5 -81t-85 -50.5t-89.5 -17.5q-33 0 -63.5 10.5t-53.5 30.5q-25 21 -34.5 51t-1.5 61q8 32 32 54.5t58 30.5l2 1l1 -3q39 -48 89 -48q43 0 88.5 32t92.5 93q61 81 112.5 145.5t97.5 109.5
t88 69.5t86 26.5q-17 -13 -34.5 -28.5t-37 -37.5t-43 -52.5t-53.5 -72.5q29 22 69 39.5t82 22t82 -6t69 -43.5q40 -58 18 -137q-12 -44 -40.5 -82.5t-67 -66.5t-85.5 -44t-96 -16q-41 0 -77.5 13t-68.5 36l-8 6l1 4l11 -3q25 -6 53 -6q49 0 97 19.5t90 56.5q38 33 63.5 73
t33.5 76q3 18 1 34t-10.5 29t-22.5 20.5t-33 7.5zM286 526q-14 0 -26 -4t-22 -11l-14 -8l8 15q24 51 57.5 74.5t84.5 23.5q21 0 42 -3.5t41 -6.5q21 -3 41.5 -6t42.5 -3q48 0 81 21l25 18l-19 -25q-90 -106 -195 -106q-23 0 -43.5 3.5t-40.5 8.5q-17 2 -33 5.5t-30 3.5z" />
    <glyph glyph-name="germandbls" unicode="&#xdf;" horiz-adv-x="390" 
d="M418 176q-21 -25 -54.5 -54t-73.5 -56t-83 -48.5t-83 -31t-74 -3.5t-56 34q-15 16 -18 37l-122 -176l-115 8q44 49 90.5 108.5t94.5 122t95.5 125t94.5 118.5q81 98 166 141.5t159 39.5q40 -3 47 -25t-8 -54t-46.5 -69t-68 -69.5t-73.5 -55.5t-62 -26q6 -6 13 -12t12 -14
q19 -25 20 -54t-19 -70q18 8 37.5 23t38 31.5t34.5 32.5t26 27q15 16 26 19.5t16 -2t2 -18.5t-16 -29zM48 158q16 7 31.5 6t23.5 -18q7 -15 -0.5 -31.5t-22 -29.5t-31.5 -18.5t-29 1.5q5 -17 17.5 -20.5t29 2.5t33.5 18.5t31 26.5q15 15 28 36t20 42.5t4 39.5t-21 26
q-11 5 -14.5 13.5t-0.5 16.5t12 13.5t23 4.5q22 -2 47.5 12t48.5 35t40 45t23 43t-2.5 28t-36.5 0q-13 -4 -29.5 -14t-32.5 -23t-30.5 -28t-24.5 -29z" />
    <glyph glyph-name="agrave" unicode="&#xe0;" horiz-adv-x="441" 
d="M15 229q37 44 79.5 78.5t82.5 54.5t74.5 24t56.5 -14q14 -11 14 -36q10 8 19.5 15t19.5 13h84q-26 -21 -53.5 -54t-53.5 -65q-42 -54 -60 -84t0 -44q9 -7 27.5 -2.5t41 17.5t47.5 32t47 42q14 13 24.5 15t15.5 -4t2.5 -17.5t-14.5 -23.5q-31 -31 -73 -67t-84.5 -63.5
t-81 -40.5t-62.5 2q-39 23 -27 77q-12 -15 -26.5 -30t-31.5 -27t-35.5 -19.5t-37.5 -7.5q-37 0 -53 21.5t-13.5 55t21 74t50.5 78.5zM170 491l78 93l180 -112l-27 -29zM78 125q11 -6 30.5 4.5t41 30.5t43 45.5t36.5 49.5t20.5 42.5t-3.5 24.5q-6 4 -19 1t-29 -12
t-33.5 -22.5t-32.5 -29.5q-17 -19 -31 -40.5t-22 -40.5t-9 -33.5t8 -19.5z" />
    <glyph glyph-name="aacute" unicode="&#xe1;" horiz-adv-x="441" 
d="M15 229q37 44 79.5 78.5t82.5 54.5t74.5 24t56.5 -14q14 -11 14 -36q10 8 19.5 15t19.5 13h84q-26 -21 -53.5 -54t-53.5 -65q-42 -54 -60 -84t0 -44q9 -7 27.5 -2.5t41 17.5t47.5 32t47 42q14 13 24.5 15t15.5 -4t2.5 -17.5t-14.5 -23.5q-31 -31 -73 -67t-84.5 -63.5
t-81 -40.5t-62.5 2q-39 23 -27 77q-12 -15 -26.5 -30t-31.5 -27t-35.5 -19.5t-37.5 -7.5q-37 0 -53 21.5t-13.5 55t21 74t50.5 78.5zM279 443l-28 29l180 112l79 -93zM78 125q11 -6 30.5 4.5t41 30.5t43 45.5t36.5 49.5t20.5 42.5t-3.5 24.5q-6 4 -19 1t-29 -12t-33.5 -22.5
t-32.5 -29.5q-17 -19 -31 -40.5t-22 -40.5t-9 -33.5t8 -19.5z" />
    <glyph glyph-name="acircumflex" unicode="&#xe2;" horiz-adv-x="441" 
d="M15 229q37 44 79.5 78.5t82.5 54.5t74.5 24t56.5 -14q14 -11 14 -36q10 8 19.5 15t19.5 13h84q-26 -21 -53.5 -54t-53.5 -65q-42 -54 -60 -84t0 -44q9 -7 27.5 -2.5t41 17.5t47.5 32t47 42q14 13 24.5 15t15.5 -4t2.5 -17.5t-14.5 -23.5q-31 -31 -73 -67t-84.5 -63.5
t-81 -40.5t-62.5 2q-39 23 -27 77q-12 -15 -26.5 -30t-31.5 -27t-35.5 -19.5t-37.5 -7.5q-37 0 -53 21.5t-13.5 55t21 74t50.5 78.5zM374 590h67l33 -141h-117l-8 68l-112 -68h-81zM78 125q11 -6 30.5 4.5t41 30.5t43 45.5t36.5 49.5t20.5 42.5t-3.5 24.5q-6 4 -19 1
t-29 -12t-33.5 -22.5t-32.5 -29.5q-17 -19 -31 -40.5t-22 -40.5t-9 -33.5t8 -19.5z" />
    <glyph glyph-name="atilde" unicode="&#xe3;" horiz-adv-x="441" 
d="M15 229q37 44 79.5 78.5t82.5 54.5t74.5 24t56.5 -14q14 -11 14 -36q10 8 19.5 15t19.5 13h84q-26 -21 -53.5 -54t-53.5 -65q-42 -54 -60 -84t0 -44q9 -7 27.5 -2.5t41 17.5t47.5 32t47 42q14 13 24.5 15t15.5 -4t2.5 -17.5t-14.5 -23.5q-31 -31 -73 -67t-84.5 -63.5
t-81 -40.5t-62.5 2q-39 23 -27 77q-12 -15 -26.5 -30t-31.5 -27t-35.5 -19.5t-37.5 -7.5q-37 0 -53 21.5t-13.5 55t21 74t50.5 78.5zM180 451q44 63 86 89t87 28q22 1 32.5 -7t18 -17.5t15.5 -18.5t23 -10q11 -1 20.5 7.5t17.5 18.5q9 11 16 27h53q-23 -36 -49 -64
q-11 -12 -24.5 -23.5t-28 -20.5t-30.5 -14t-32 -4q-25 1 -37 10t-19.5 19t-15 18.5t-23.5 8.5q-14 0 -25.5 -7.5t-20.5 -16.5q-11 -11 -19 -23h-45zM78 125q11 -6 30.5 4.5t41 30.5t43 45.5t36.5 49.5t20.5 42.5t-3.5 24.5q-6 4 -19 1t-29 -12t-33.5 -22.5t-32.5 -29.5
q-17 -19 -31 -40.5t-22 -40.5t-9 -33.5t8 -19.5z" />
    <glyph glyph-name="adieresis" unicode="&#xe4;" horiz-adv-x="441" 
d="M15 229q37 44 79.5 78.5t82.5 54.5t74.5 24t56.5 -14q14 -11 14 -36q10 8 19.5 15t19.5 13h84q-26 -21 -53.5 -54t-53.5 -65q-42 -54 -60 -84t0 -44q9 -7 27.5 -2.5t41 17.5t47.5 32t47 42q14 13 24.5 15t15.5 -4t2.5 -17.5t-14.5 -23.5q-31 -31 -73 -67t-84.5 -63.5
t-81 -40.5t-62.5 2q-39 23 -27 77q-12 -15 -26.5 -30t-31.5 -27t-35.5 -19.5t-37.5 -7.5q-37 0 -53 21.5t-13.5 55t21 74t50.5 78.5zM78 125q11 -6 30.5 4.5t41 30.5t43 45.5t36.5 49.5t20.5 42.5t-3.5 24.5q-6 4 -19 1t-29 -12t-33.5 -22.5t-32.5 -29.5q-17 -19 -31 -40.5
t-22 -40.5t-9 -33.5t8 -19.5zM182 496q0 29 20 48.5t48 19.5q29 0 48.5 -19.5t19.5 -48.5t-19.5 -48.5t-48.5 -19.5q-28 0 -48 19.5t-20 48.5zM350 496q0 29 20 48.5t48 19.5q29 0 48.5 -19.5t19.5 -48.5t-19.5 -48.5t-48.5 -19.5q-28 0 -48 19.5t-20 48.5z" />
    <glyph glyph-name="aring" unicode="&#xe5;" horiz-adv-x="441" 
d="M15 229q37 44 79.5 78.5t82.5 54.5t74.5 24t56.5 -14q14 -11 14 -36q10 8 19.5 15t19.5 13h84q-26 -21 -53.5 -54t-53.5 -65q-42 -54 -60 -84t0 -44q9 -7 27.5 -2.5t41 17.5t47.5 32t47 42q14 13 24.5 15t15.5 -4t2.5 -17.5t-14.5 -23.5q-31 -31 -73 -67t-84.5 -63.5
t-81 -40.5t-62.5 2q-39 23 -27 77q-12 -15 -26.5 -30t-31.5 -27t-35.5 -19.5t-37.5 -7.5q-37 0 -53 21.5t-13.5 55t21 74t50.5 78.5zM252 507q0 41 28 69.5t69 28.5q20 0 37.5 -7.5t31 -21t21 -31.5t7.5 -38t-7.5 -37.5t-21 -31t-31 -21t-37.5 -7.5t-38 7.5t-31 21t-20.5 31
t-7.5 37.5zM78 125q11 -6 30.5 4.5t41 30.5t43 45.5t36.5 49.5t20.5 42.5t-3.5 24.5q-6 4 -19 1t-29 -12t-33.5 -22.5t-32.5 -29.5q-17 -19 -31 -40.5t-22 -40.5t-9 -33.5t8 -19.5zM301 507q0 -20 14.5 -34.5t34.5 -14.5t34.5 14.5t14.5 34.5t-14.5 34.5t-34.5 14.5
t-34.5 -14.5t-14.5 -34.5z" />
    <glyph glyph-name="ae" unicode="&#xe6;" horiz-adv-x="554" 
d="M554 206q14 14 25.5 16.5t16.5 -3.5t2 -17.5t-16 -25.5q-85 -84 -166.5 -130t-153.5 -46q-26 0 -46 8t-33.5 23t-18.5 36.5t0 48.5q-11 -17 -27 -37t-36 -37.5t-43 -29.5t-48 -12q-37 0 -53 21.5t-13.5 55t21 74t50.5 78.5q37 44 79.5 78.5t82.5 54.5t74.5 24t56.5 -14
q8 -7 11.5 -17.5t1.5 -22.5q38 26 74 39t65 13q41 0 58.5 -25t2.5 -59q-10 -23 -32.5 -43.5t-55 -36.5t-72.5 -26t-85 -12q-11 -35 3 -59t58 -22q29 0 59.5 9.5t59 24.5t54 33.5t44.5 37.5zM78 125q11 -6 30.5 4.5t41 30.5t43 45.5t36.5 49.5t20.5 42.5t-3.5 24.5
q-6 4 -19 1t-29 -12t-33.5 -22.5t-32.5 -29.5q-17 -19 -31 -40.5t-22 -40.5t-9 -33.5t8 -19.5zM290 215q29 4 60 21.5t51 36.5q17 16 22 27.5t0.5 16t-18.5 1t-35 -18.5q-21 -14 -42.5 -35t-33.5 -42z" />
    <glyph glyph-name="ccedilla" unicode="&#xe7;" 
d="M350 206q14 14 25.5 16.5t16.5 -3.5t2 -17.5t-16 -25.5q-79 -78 -156 -123.5t-146 -51.5l-51 -65q37 -3 61 -15q10 -5 18.5 -13t13 -18.5t3.5 -25t-10 -32.5q-12 -26 -35 -40.5t-50.5 -19t-56.5 -1t-53.5 13t-42 24t-22.5 30.5l35 16q4 -13 20.5 -20.5t37 -8.5t38.5 5
t25 21q7 16 4 28t-12.5 18.5t-22.5 9t-25 0.5q12 17 24 35q11 15 23 31t23 30q-25 7 -41 24t-20.5 43t4 60t34.5 75q28 45 62 78t68.5 55.5t67.5 33.5t59 11q21 0 38.5 -7t29 -18.5t15.5 -26.5t-3 -32q-9 -21 -27.5 -36.5t-39.5 -25.5t-40.5 -13.5t-31 -0.5t-12 12.5
t17.5 26.5q17 16 21.5 29t-1 19.5t-20.5 4.5t-36 -17q-21 -14 -42.5 -35t-33.5 -42q-14 -24 -19.5 -46t-1 -39t20 -27t43.5 -9q29 0 59.5 9.5t59 24.5t54 33.5t44.5 37.5z" />
    <glyph glyph-name="egrave" unicode="&#xe8;" 
d="M350 206q14 14 25.5 16.5t16.5 -3.5t2 -17.5t-16 -25.5q-85 -84 -166.5 -130t-153.5 -46q-35 0 -59.5 14.5t-35 41t-3 64.5t37.5 86q28 45 62 78t69 55.5t68 33.5t59 11q41 0 58.5 -25t2.5 -59q-10 -23 -32.5 -43.5t-55 -36.5t-72.5 -26t-85 -12q-11 -35 3 -59t58 -22
q29 0 59.5 9.5t59 24.5t54 33.5t44.5 37.5zM151 491l78 93l180 -112l-27 -29zM86 215q29 4 60 21.5t51 36.5q17 16 22 27.5t0.5 16t-18.5 1t-35 -18.5q-21 -14 -42.5 -35t-33.5 -42z" />
    <glyph glyph-name="eacute" unicode="&#xe9;" 
d="M350 206q14 14 25.5 16.5t16.5 -3.5t2 -17.5t-16 -25.5q-85 -84 -166.5 -130t-153.5 -46q-35 0 -59.5 14.5t-35 41t-3 64.5t37.5 86q28 45 62 78t69 55.5t68 33.5t59 11q41 0 58.5 -25t2.5 -59q-10 -23 -32.5 -43.5t-55 -36.5t-72.5 -26t-85 -12q-11 -35 3 -59t58 -22
q29 0 59.5 9.5t59 24.5t54 33.5t44.5 37.5zM240 443l-28 29l180 112l79 -93zM86 215q29 4 60 21.5t51 36.5q17 16 22 27.5t0.5 16t-18.5 1t-35 -18.5q-21 -14 -42.5 -35t-33.5 -42z" />
    <glyph glyph-name="ecircumflex" unicode="&#xea;" 
d="M350 206q14 14 25.5 16.5t16.5 -3.5t2 -17.5t-16 -25.5q-85 -84 -166.5 -130t-153.5 -46q-35 0 -59.5 14.5t-35 41t-3 64.5t37.5 86q28 45 62 78t69 55.5t68 33.5t59 11q41 0 58.5 -25t2.5 -59q-10 -23 -32.5 -43.5t-55 -36.5t-72.5 -26t-85 -12q-11 -35 3 -59t58 -22
q29 0 59.5 9.5t59 24.5t54 33.5t44.5 37.5zM344 590h67l33 -141h-117l-8 68l-112 -68h-81zM86 215q29 4 60 21.5t51 36.5q17 16 22 27.5t0.5 16t-18.5 1t-35 -18.5q-21 -14 -42.5 -35t-33.5 -42z" />
    <glyph glyph-name="edieresis" unicode="&#xeb;" 
d="M350 206q14 14 25.5 16.5t16.5 -3.5t2 -17.5t-16 -25.5q-85 -84 -166.5 -130t-153.5 -46q-35 0 -59.5 14.5t-35 41t-3 64.5t37.5 86q28 45 62 78t69 55.5t68 33.5t59 11q41 0 58.5 -25t2.5 -59q-10 -23 -32.5 -43.5t-55 -36.5t-72.5 -26t-85 -12q-11 -35 3 -59t58 -22
q29 0 59.5 9.5t59 24.5t54 33.5t44.5 37.5zM288 496q0 29 20 48.5t48 19.5q29 0 48.5 -19.5t19.5 -48.5t-19.5 -48.5t-48.5 -19.5q-28 0 -48 19.5t-20 48.5zM120 496q0 29 20 48.5t48 19.5q29 0 48.5 -19.5t19.5 -48.5t-19.5 -48.5t-48.5 -19.5q-28 0 -48 19.5t-20 48.5z
M86 215q29 4 60 21.5t51 36.5q17 16 22 27.5t0.5 16t-18.5 1t-35 -18.5q-21 -14 -42.5 -35t-33.5 -42z" />
    <glyph glyph-name="igrave" unicode="&#xec;" horiz-adv-x="257" 
d="M238 353q-5 -6 -14.5 -16t-19 -21t-18 -20t-10.5 -12q-21 -26 -41.5 -53t-35 -50t-19.5 -40t4 -24t29 -2.5t44.5 17.5t51 32t48.5 42q13 13 24 15t16 -4t2.5 -17.5t-15.5 -23.5q-31 -31 -74.5 -67t-87.5 -63.5t-84 -40.5t-64 2q-17 10 -26 27.5t-7 42.5t15.5 57t42.5 72
q29 39 59 73.5t64 72.5zM78 491l78 93l180 -112l-27 -29z" />
    <glyph glyph-name="iacute" unicode="&#xed;" horiz-adv-x="257" 
d="M238 353q-5 -6 -14.5 -16t-19 -21t-18 -20t-10.5 -12q-21 -26 -41.5 -53t-35 -50t-19.5 -40t4 -24t29 -2.5t44.5 17.5t51 32t48.5 42q13 13 24 15t16 -4t2.5 -17.5t-15.5 -23.5q-31 -31 -74.5 -67t-87.5 -63.5t-84 -40.5t-64 2q-17 10 -26 27.5t-7 42.5t15.5 57t42.5 72
q29 39 59 73.5t64 72.5zM188 443l-28 29l180 112l79 -93z" />
    <glyph glyph-name="icircumflex" unicode="&#xee;" horiz-adv-x="257" 
d="M238 353q-5 -6 -14.5 -16t-19 -21t-18 -20t-10.5 -12q-21 -26 -41.5 -53t-35 -50t-19.5 -40t4 -24t29 -2.5t44.5 17.5t51 32t48.5 42q13 13 24 15t16 -4t2.5 -17.5t-15.5 -23.5q-31 -31 -74.5 -67t-87.5 -63.5t-84 -40.5t-64 2q-17 10 -26 27.5t-7 42.5t15.5 57t42.5 72
q29 39 59 73.5t64 72.5zM301 590h67l33 -141h-117l-8 68l-112 -68h-81z" />
    <glyph glyph-name="idieresis" unicode="&#xef;" horiz-adv-x="257" 
d="M238 353q-5 -6 -14.5 -16t-19 -21t-18 -20t-10.5 -12q-21 -26 -41.5 -53t-35 -50t-19.5 -40t4 -24t29 -2.5t44.5 17.5t51 32t48.5 42q13 13 24 15t16 -4t2.5 -17.5t-15.5 -23.5q-31 -31 -74.5 -67t-87.5 -63.5t-84 -40.5t-64 2q-17 10 -26 27.5t-7 42.5t15.5 57t42.5 72
q29 39 59 73.5t64 72.5zM95 496q0 29 20 48.5t48 19.5q29 0 48.5 -19.5t19.5 -48.5t-19.5 -48.5t-48.5 -19.5q-28 0 -48 19.5t-20 48.5zM263 496q0 29 20 48.5t48 19.5q29 0 48.5 -19.5t19.5 -48.5t-19.5 -48.5t-48.5 -19.5q-28 0 -48 19.5t-20 48.5z" />
    <glyph glyph-name="eth" unicode="&#xf0;" horiz-adv-x="407" 
d="M193 466q-1 0 20 8t50 19q-5 14 -12.5 29t-16.5 32h84l16 -34q11 5 21.5 8.5t18.5 6.5q9 4 16 7l21 -80l-56 -9q16 -66 6 -130.5t-48 -127.5q21 -10 50 -7t44 18q15 14 25.5 16t15 -4t1.5 -18t-15 -24q-17 -17 -38.5 -27t-43.5 -13.5t-43 -1.5t-36 8q-26 -30 -55.5 -55.5
t-60 -45t-60.5 -30.5t-56 -11q-23 0 -41.5 8.5t-29.5 24.5t-14 39.5t5 53.5q12 44 44.5 89t74 83.5t87 65.5t82.5 34q10 2 19 3t18 1q-1 9 -2.5 18.5t-3.5 20.5l-82 -14zM129 118q25 4 51 21.5t49 42.5q-10 10 -16 26.5t-8 35.5t1 39t12 37l-16 -9q-28 -17 -53 -41t-45 -60
q-12 -22 -15.5 -40.5t0.5 -31t14.5 -18t25.5 -2.5z" />
    <glyph glyph-name="ntilde" unicode="&#xf1;" horiz-adv-x="425" 
d="M237 364l-59 -75q39 31 81.5 53t80.5 22q22 0 36 -9t19 -23.5t1 -32.5t-18 -36q-15 -20 -39.5 -40t-45.5 -39t-32 -35.5t1 -29.5q7 -8 23.5 -5t38.5 14.5t48 31.5t53 46q14 14 25 16t15.5 -4t1.5 -17.5t-15 -24.5q-35 -35 -74 -67t-77.5 -56t-74.5 -38.5t-64 -14.5
q-24 0 -40.5 8t-24.5 21.5t-8 30.5t8 36q6 15 20.5 31.5t33 33.5t38 33.5t36.5 31.5q16 13 21 23.5t0.5 15t-18.5 1t-36 -18.5q-31 -21 -66.5 -54t-68 -68t-59 -66t-39.5 -47l-10 -12h-115l291 364h112zM168 451q44 63 86 89t87 28q22 1 32.5 -7t18 -17.5t15.5 -18.5t23 -10
q11 -1 20.5 7.5t17.5 18.5q9 11 16 27h53q-23 -36 -49 -64q-11 -12 -24.5 -23.5t-28 -20.5t-30.5 -14t-32 -4q-25 1 -37 10t-19.5 19t-15 18.5t-23.5 8.5q-14 0 -25.5 -7.5t-20.5 -16.5q-11 -11 -19 -23h-45z" />
    <glyph glyph-name="ograve" unicode="&#xf2;" horiz-adv-x="407" 
d="M249 398q60 12 88 -7.5t25 -67.5l-2 -16q18 -4 40.5 -3t45.5 4.5t44.5 10.5t37.5 15q20 10 25.5 9t0 -8.5t-20 -19.5t-35.5 -24q-34 -19 -75 -32.5t-81 -9.5q-20 -46 -55.5 -90.5t-77.5 -80t-86.5 -57t-81.5 -21.5q-23 0 -41.5 8.5t-29.5 24.5t-14 39.5t5 53.5
q12 44 44.5 89t74 83.5t87 65.5t82.5 34zM129 118q21 3 43.5 16.5t43 33.5t37.5 44t28 49q-24 11 -34.5 30.5t-7.5 39.5l-17 -8.5t-20 -11.5q-28 -17 -53 -41t-45 -60q-12 -22 -15.5 -40.5t0.5 -31t14.5 -18t25.5 -2.5zM155 491l78 93l180 -112l-27 -29z" />
    <glyph glyph-name="oacute" unicode="&#xf3;" horiz-adv-x="407" 
d="M249 398q60 12 88 -7.5t25 -67.5l-2 -16q18 -4 40.5 -3t45.5 4.5t44.5 10.5t37.5 15q20 10 25.5 9t0 -8.5t-20 -19.5t-35.5 -24q-34 -19 -75 -32.5t-81 -9.5q-20 -46 -55.5 -90.5t-77.5 -80t-86.5 -57t-81.5 -21.5q-23 0 -41.5 8.5t-29.5 24.5t-14 39.5t5 53.5
q12 44 44.5 89t74 83.5t87 65.5t82.5 34zM129 118q21 3 43.5 16.5t43 33.5t37.5 44t28 49q-24 11 -34.5 30.5t-7.5 39.5l-17 -8.5t-20 -11.5q-28 -17 -53 -41t-45 -60q-12 -22 -15.5 -40.5t0.5 -31t14.5 -18t25.5 -2.5zM270 443l-28 29l180 112l79 -93z" />
    <glyph glyph-name="ocircumflex" unicode="&#xf4;" horiz-adv-x="407" 
d="M249 398q60 12 88 -7.5t25 -67.5l-2 -16q18 -4 40.5 -3t45.5 4.5t44.5 10.5t37.5 15q20 10 25.5 9t0 -8.5t-20 -19.5t-35.5 -24q-34 -19 -75 -32.5t-81 -9.5q-20 -46 -55.5 -90.5t-77.5 -80t-86.5 -57t-81.5 -21.5q-23 0 -41.5 8.5t-29.5 24.5t-14 39.5t5 53.5
q12 44 44.5 89t74 83.5t87 65.5t82.5 34zM364 590h67l33 -141h-117l-8 68l-112 -68h-81zM129 118q21 3 43.5 16.5t43 33.5t37.5 44t28 49q-24 11 -34.5 30.5t-7.5 39.5l-17 -8.5t-20 -11.5q-28 -17 -53 -41t-45 -60q-12 -22 -15.5 -40.5t0.5 -31t14.5 -18t25.5 -2.5z" />
    <glyph glyph-name="otilde" unicode="&#xf5;" horiz-adv-x="407" 
d="M249 398q60 12 88 -7.5t25 -67.5l-2 -16q18 -4 40.5 -3t45.5 4.5t44.5 10.5t37.5 15q20 10 25.5 9t0 -8.5t-20 -19.5t-35.5 -24q-34 -19 -75 -32.5t-81 -9.5q-20 -46 -55.5 -90.5t-77.5 -80t-86.5 -57t-81.5 -21.5q-23 0 -41.5 8.5t-29.5 24.5t-14 39.5t5 53.5
q12 44 44.5 89t74 83.5t87 65.5t82.5 34zM162 451q44 63 86 89t87 28q22 1 32.5 -7t18 -17.5t15.5 -18.5t23 -10q11 -1 20.5 7.5t17.5 18.5q9 11 16 27h53q-23 -36 -49 -64q-11 -12 -24.5 -23.5t-28 -20.5t-30.5 -14t-32 -4q-25 1 -37 10t-19.5 19t-15 18.5t-23.5 8.5
q-14 0 -25.5 -7.5t-20.5 -16.5q-11 -11 -19 -23h-45zM129 118q21 3 43.5 16.5t43 33.5t37.5 44t28 49q-24 11 -34.5 30.5t-7.5 39.5l-17 -8.5t-20 -11.5q-28 -17 -53 -41t-45 -60q-12 -22 -15.5 -40.5t0.5 -31t14.5 -18t25.5 -2.5z" />
    <glyph glyph-name="odieresis" unicode="&#xf6;" horiz-adv-x="407" 
d="M249 398q60 12 88 -7.5t25 -67.5l-2 -16q18 -4 40.5 -3t45.5 4.5t44.5 10.5t37.5 15q20 10 25.5 9t0 -8.5t-20 -19.5t-35.5 -24q-34 -19 -75 -32.5t-81 -9.5q-20 -46 -55.5 -90.5t-77.5 -80t-86.5 -57t-81.5 -21.5q-23 0 -41.5 8.5t-29.5 24.5t-14 39.5t5 53.5
q12 44 44.5 89t74 83.5t87 65.5t82.5 34zM129 118q21 3 43.5 16.5t43 33.5t37.5 44t28 49q-24 11 -34.5 30.5t-7.5 39.5l-17 -8.5t-20 -11.5q-28 -17 -53 -41t-45 -60q-12 -22 -15.5 -40.5t0.5 -31t14.5 -18t25.5 -2.5zM168 496q0 29 20 48.5t48 19.5q29 0 48.5 -19.5
t19.5 -48.5t-19.5 -48.5t-48.5 -19.5q-28 0 -48 19.5t-20 48.5zM336 496q0 29 20 48.5t48 19.5q29 0 48.5 -19.5t19.5 -48.5t-19.5 -48.5t-48.5 -19.5q-28 0 -48 19.5t-20 48.5z" />
    <glyph glyph-name="divide" unicode="&#xf7;" horiz-adv-x="516" 
d="M122 88q0 35 24.5 60t59.5 25q36 0 60.5 -25t24.5 -60t-24.5 -59.5t-60.5 -24.5q-35 0 -59.5 24.5t-24.5 59.5zM274 376q0 35 24.5 60t59.5 25q36 0 60.5 -25t24.5 -60t-24.5 -59.5t-60.5 -24.5q-35 0 -59.5 24.5t-24.5 59.5zM110 271h376l-48 -75h-376z" />
    <glyph glyph-name="oslash" unicode="&#xf8;" horiz-adv-x="407" 
d="M249 398q57 10 85 -6l35 32h73l-81 -75q1 -6 1 -12.5v-13.5l-2 -16q18 -4 40.5 -3t45.5 4.5t44.5 10.5t37.5 15q20 10 25.5 9t0 -8.5t-20 -19.5t-35.5 -24q-34 -19 -75 -32.5t-81 -9.5q-20 -46 -55.5 -90.5t-77.5 -80t-86.5 -57t-81.5 -21.5q-26 0 -45 10l-38 -35h-72
l77 71q-14 31 -2 80q12 44 44.5 89t74 83.5t87 65.5t82.5 34zM104 210q-15 -28 -17 -48l154 143q-5 13 -2 26l-17 -8.5t-20 -11.5q-28 -17 -53 -41t-45 -60zM129 118q21 3 43.5 16.5t43 33.5t37.5 44t28 49q-4 1 -10 5l-159 -149q4 -1 8 -0.5t9 1.5z" />
    <glyph glyph-name="ugrave" unicode="&#xf9;" horiz-adv-x="478" 
d="M478 206q13 13 24 15t15.5 -4t2.5 -17.5t-14 -23.5q-32 -31 -73.5 -67t-84 -63.5t-81 -40.5t-62.5 2q-23 14 -27 45t8 70q-30 -27 -61 -51t-60.5 -40t-56 -21t-47.5 7q-18 10 -22 30.5t2.5 47t23 57t40.5 62.5q19 25 42 51.5t44 48.5q24 26 49 50h115q-20 -20 -38 -39
q-16 -17 -33.5 -36.5t-29.5 -35.5q-15 -20 -29 -38t-23.5 -33.5t-12 -26.5t5.5 -17q10 -8 29 2t42 28.5t46.5 41t43.5 41.5q19 19 38 39t34 37q18 19 34 37h102q-20 -22 -38 -43q-16 -18 -32.5 -38.5t-27.5 -37.5q-33 -48 -50 -84t-2 -44q10 -6 28.5 -1t41 17.5t47 31
t47.5 41.5zM207 491l78 93l180 -112l-27 -29z" />
    <glyph glyph-name="uacute" unicode="&#xfa;" horiz-adv-x="478" 
d="M478 206q13 13 24 15t15.5 -4t2.5 -17.5t-14 -23.5q-32 -31 -73.5 -67t-84 -63.5t-81 -40.5t-62.5 2q-23 14 -27 45t8 70q-30 -27 -61 -51t-60.5 -40t-56 -21t-47.5 7q-18 10 -22 30.5t2.5 47t23 57t40.5 62.5q19 25 42 51.5t44 48.5q24 26 49 50h115q-20 -20 -38 -39
q-16 -17 -33.5 -36.5t-29.5 -35.5q-15 -20 -29 -38t-23.5 -33.5t-12 -26.5t5.5 -17q10 -8 29 2t42 28.5t46.5 41t43.5 41.5q19 19 38 39t34 37q18 19 34 37h102q-20 -22 -38 -43q-16 -18 -32.5 -38.5t-27.5 -37.5q-33 -48 -50 -84t-2 -44q10 -6 28.5 -1t41 17.5t47 31
t47.5 41.5zM266 443l-28 29l180 112l79 -93z" />
    <glyph glyph-name="ucircumflex" unicode="&#xfb;" horiz-adv-x="478" 
d="M478 206q13 13 24 15t15.5 -4t2.5 -17.5t-14 -23.5q-32 -31 -73.5 -67t-84 -63.5t-81 -40.5t-62.5 2q-23 14 -27 45t8 70q-30 -27 -61 -51t-60.5 -40t-56 -21t-47.5 7q-18 10 -22 30.5t2.5 47t23 57t40.5 62.5q19 25 42 51.5t44 48.5q24 26 49 50h115q-20 -20 -38 -39
q-16 -17 -33.5 -36.5t-29.5 -35.5q-15 -20 -29 -38t-23.5 -33.5t-12 -26.5t5.5 -17q10 -8 29 2t42 28.5t46.5 41t43.5 41.5q19 19 38 39t34 37q18 19 34 37h102q-20 -22 -38 -43q-16 -18 -32.5 -38.5t-27.5 -37.5q-33 -48 -50 -84t-2 -44q10 -6 28.5 -1t41 17.5t47 31
t47.5 41.5zM393 580h67l33 -141h-117l-8 68l-112 -68h-81z" />
    <glyph glyph-name="udieresis" unicode="&#xfc;" horiz-adv-x="478" 
d="M478 206q13 13 24 15t15.5 -4t2.5 -17.5t-14 -23.5q-32 -31 -73.5 -67t-84 -63.5t-81 -40.5t-62.5 2q-23 14 -27 45t8 70q-30 -27 -61 -51t-60.5 -40t-56 -21t-47.5 7q-18 10 -22 30.5t2.5 47t23 57t40.5 62.5q19 25 42 51.5t44 48.5q24 26 49 50h115q-20 -20 -38 -39
q-16 -17 -33.5 -36.5t-29.5 -35.5q-15 -20 -29 -38t-23.5 -33.5t-12 -26.5t5.5 -17q10 -8 29 2t42 28.5t46.5 41t43.5 41.5q19 19 38 39t34 37q18 19 34 37h102q-20 -22 -38 -43q-16 -18 -32.5 -38.5t-27.5 -37.5q-33 -48 -50 -84t-2 -44q10 -6 28.5 -1t41 17.5t47 31
t47.5 41.5zM367 496q0 29 20 48.5t48 19.5q29 0 48.5 -19.5t19.5 -48.5t-19.5 -48.5t-48.5 -19.5q-28 0 -48 19.5t-20 48.5zM199 496q0 29 20 48.5t48 19.5q29 0 48.5 -19.5t19.5 -48.5t-19.5 -48.5t-48.5 -19.5q-28 0 -48 19.5t-20 48.5z" />
    <glyph glyph-name="yacute" unicode="&#xfd;" horiz-adv-x="424" 
d="M102 154q7 -5 21 2t32 20.5t38.5 33t41.5 40.5q48 48 106 114h126q-23 -14 -56 -49t-62 -78q-35 -51 -63 -97.5t-53 -87.5q30 16 58 36.5t52.5 41.5t45 41t35.5 35q13 13 24 15t16 -4t2.5 -17.5t-14.5 -23.5q-62 -62 -127 -114.5t-137 -79.5q-4 -5 -7.5 -10t-6.5 -10
q-42 -58 -92.5 -82t-94 -22.5t-72.5 23t-28 53.5q1 31 21 52t51 31t69 9.5t74 -11.5q18 32 38 64.5t38 61.5q-26 -23 -50 -41.5t-46.5 -31t-43.5 -16.5t-40 2t-27.5 22.5t-6 40.5t15.5 53t37 60q19 26 40.5 49.5t39.5 42.5q21 22 42 42h106q-93 -92 -125 -145.5t-18 -64.5z
M266 431l-28 29l180 112l79 -93zM-46 -54q0 -11 11.5 -16.5t29.5 -3.5t39.5 13.5t40.5 34.5q-17 8 -38 9t-39.5 -3t-31 -13t-12.5 -21z" />
    <glyph glyph-name="thorn" unicode="&#xfe;" horiz-adv-x="410" 
d="M396 560l-204 -254q37 25 74 41.5t70 16.5q22 0 35 -9t13.5 -27t-13 -45.5t-44.5 -64.5q-63 -75 -117.5 -122t-91.5 -55q17 -3 55 12.5t82 40.5t86.5 55.5t68.5 56.5q14 14 25 16t15.5 -4t1.5 -17.5t-15 -24.5q-35 -35 -82.5 -69.5t-96 -62.5t-92.5 -45t-72 -17
q-18 0 -34 6t-29.5 16.5t-23.5 24t-14 28.5l-176 -219h-115l582 722h112zM167 247q-17 -11 -34.5 -26.5t-35.5 -32.5l-75 -94q7 -2 18.5 0t28.5 11t40 27.5t54 49.5q37 36 50.5 56.5t11 27.5t-18.5 1.5t-39 -20.5zM-58 0q0 1 1 1z" />
    <glyph glyph-name="ydieresis" unicode="&#xff;" horiz-adv-x="424" 
d="M102 154q7 -5 21 2t32 20.5t38.5 33t41.5 40.5q48 48 106 114h126q-23 -14 -56 -49t-62 -78q-35 -51 -63 -97.5t-53 -87.5q30 16 58 36.5t52.5 41.5t45 41t35.5 35q13 13 24 15t16 -4t2.5 -17.5t-14.5 -23.5q-62 -62 -127 -114.5t-137 -79.5q-4 -5 -7.5 -10t-6.5 -10
q-42 -58 -92.5 -82t-94 -22.5t-72.5 23t-28 53.5q1 31 21 52t51 31t69 9.5t74 -11.5q18 32 38 64.5t38 61.5q-26 -23 -50 -41.5t-46.5 -31t-43.5 -16.5t-40 2t-27.5 22.5t-6 40.5t15.5 53t37 60q19 26 40.5 49.5t39.5 42.5q21 22 42 42h106q-93 -92 -125 -145.5t-18 -64.5z
M196 496q0 29 20 48.5t48 19.5q29 0 48.5 -19.5t19.5 -48.5t-19.5 -48.5t-48.5 -19.5q-28 0 -48 19.5t-20 48.5zM364 496q0 29 20 48.5t48 19.5q29 0 48.5 -19.5t19.5 -48.5t-19.5 -48.5t-48.5 -19.5q-28 0 -48 19.5t-20 48.5zM-46 -54q0 -11 11.5 -16.5t29.5 -3.5
t39.5 13.5t40.5 34.5q-17 8 -38 9t-39.5 -3t-31 -13t-12.5 -21z" />
    <glyph glyph-name="Amacron" unicode="&#x100;" horiz-adv-x="857" 
d="M883 204l-11 -19q-54 -93 -118.5 -144.5t-124.5 -51.5q-40 0 -72 24q-36 28 -40 82q-3 74 52 181q-11 2 -22.5 4.5t-22.5 4.5q-37 -46 -74 -90t-73.5 -81.5t-73 -65.5t-72.5 -41q-24 -10 -47 -14t-43 -4q-31 0 -54 8.5t-39.5 21.5t-26.5 29t-15 32q-9 38 6 71.5t51 53.5
l4 2l2 -3q27 -51 95 -51q27 0 60 10q53 13 106.5 53.5t108.5 93.5q-32 10 -62.5 17.5t-59.5 7.5q-35 0 -64 -13l-3 9q77 53 185 53q36 0 74 -6q2 3 4 5t3 4q42 41 83.5 81.5t83.5 73.5t84 55t83 26l27 3l-24 -11q-51 -71 -86 -134.5t-55 -117.5q91 1 168 40l30 14l-25 -22
q-50 -48 -99 -76t-100 -40q-10 -48 -6 -80.5t19 -45.5q21 -16 43 -16q24 0 55 13.5t69 39.5zM624 365q34 51 77.5 103.5t95.5 106.5q-49 -27 -100.5 -82t-105.5 -123q8 -1 16.5 -2t16.5 -3zM311 529q-14 0 -24 -3l-18 -9l11 15q21 24 43 38.5t44.5 22.5t44.5 10.5t42 2.5
q22 0 43 -2.5t44 -4.5q20 -2 39 -3.5t37 -1.5q27 0 47.5 5t36.5 14l27 15l-21 -22q-51 -57 -103.5 -84t-109.5 -27q-33 0 -61.5 6.5t-54.5 13.5q-19 5 -35.5 9.5t-31.5 4.5zM713 751h279l-48 -75h-279z" />
    <glyph glyph-name="amacron" unicode="&#x101;" horiz-adv-x="441" 
d="M15 229q37 44 79.5 78.5t82.5 54.5t74.5 24t56.5 -14q14 -11 14 -36q10 8 19.5 15t19.5 13h84q-26 -21 -53.5 -54t-53.5 -65q-42 -54 -60 -84t0 -44q9 -7 27.5 -2.5t41 17.5t47.5 32t47 42q14 13 24.5 15t15.5 -4t2.5 -17.5t-14.5 -23.5q-31 -31 -73 -67t-84.5 -63.5
t-81 -40.5t-62.5 2q-39 23 -27 77q-12 -15 -26.5 -30t-31.5 -27t-35.5 -19.5t-37.5 -7.5q-37 0 -53 21.5t-13.5 55t21 74t50.5 78.5zM240 535h279l-48 -75h-279zM78 125q11 -6 30.5 4.5t41 30.5t43 45.5t36.5 49.5t20.5 42.5t-3.5 24.5q-6 4 -19 1t-29 -12t-33.5 -22.5
t-32.5 -29.5q-17 -19 -31 -40.5t-22 -40.5t-9 -33.5t8 -19.5z" />
    <glyph glyph-name="Abreve" unicode="&#x102;" horiz-adv-x="857" 
d="M883 204l-11 -19q-54 -93 -118.5 -144.5t-124.5 -51.5q-40 0 -72 24q-36 28 -40 82q-3 74 52 181q-11 2 -22.5 4.5t-22.5 4.5q-37 -46 -74 -90t-73.5 -81.5t-73 -65.5t-72.5 -41q-24 -10 -47 -14t-43 -4q-31 0 -54 8.5t-39.5 21.5t-26.5 29t-15 32q-9 38 6 71.5t51 53.5
l4 2l2 -3q27 -51 95 -51q27 0 60 10q53 13 106.5 53.5t108.5 93.5q-32 10 -62.5 17.5t-59.5 7.5q-35 0 -64 -13l-3 9q77 53 185 53q36 0 74 -6q2 3 4 5t3 4q42 41 83.5 81.5t83.5 73.5t84 55t83 26l27 3l-24 -11q-51 -71 -86 -134.5t-55 -117.5q91 1 168 40l30 14l-25 -22
q-50 -48 -99 -76t-100 -40q-10 -48 -6 -80.5t19 -45.5q21 -16 43 -16q24 0 55 13.5t69 39.5zM624 365q34 51 77.5 103.5t95.5 106.5q-49 -27 -100.5 -82t-105.5 -123q8 -1 16.5 -2t16.5 -3zM311 529q-14 0 -24 -3l-18 -9l11 15q21 24 43 38.5t44.5 22.5t44.5 10.5t42 2.5
q22 0 43 -2.5t44 -4.5q20 -2 39 -3.5t37 -1.5q27 0 47.5 5t36.5 14l27 15l-21 -22q-51 -57 -103.5 -84t-109.5 -27q-33 0 -61.5 6.5t-54.5 13.5q-19 5 -35.5 9.5t-31.5 4.5zM975 746q-6 -39 -36.5 -65.5t-71.5 -26.5q-22 0 -41.5 8.5t-34 23t-23 34t-8.5 42.5v10.5t1 10.5
l55 -9q0 -3 -0.5 -6t-0.5 -6q0 -22 16 -38t38 -16q20 0 35 12.5t18 31.5z" />
    <glyph glyph-name="abreve" unicode="&#x103;" horiz-adv-x="441" 
d="M15 229q37 44 79.5 78.5t82.5 54.5t74.5 24t56.5 -14q14 -11 14 -36q10 8 19.5 15t19.5 13h84q-26 -21 -53.5 -54t-53.5 -65q-42 -54 -60 -84t0 -44q9 -7 27.5 -2.5t41 17.5t47.5 32t47 42q14 13 24.5 15t15.5 -4t2.5 -17.5t-14.5 -23.5q-31 -31 -73 -67t-84.5 -63.5
t-81 -40.5t-62.5 2q-39 23 -27 77q-12 -15 -26.5 -30t-31.5 -27t-35.5 -19.5t-37.5 -7.5q-37 0 -53 21.5t-13.5 55t21 74t50.5 78.5zM78 125q11 -6 30.5 4.5t41 30.5t43 45.5t36.5 49.5t20.5 42.5t-3.5 24.5q-6 4 -19 1t-29 -12t-33.5 -22.5t-32.5 -29.5q-17 -19 -31 -40.5
t-22 -40.5t-9 -33.5t8 -19.5zM474 508q-6 -39 -36.5 -65.5t-71.5 -26.5q-22 0 -41.5 8.5t-34 23t-23 34t-8.5 42.5v10.5t1 10.5l55 -9q0 -3 -0.5 -6t-0.5 -6q0 -22 16 -38t38 -16q20 0 35 12.5t18 31.5z" />
    <glyph glyph-name="Aogonek" unicode="&#x104;" horiz-adv-x="857" 
d="M883 204l-11 -19q-45 -76 -96.5 -125t-103.5 -64q-23 -18 -44 -37t-35 -38t-18.5 -35t5.5 -28q8 -11 23 -9.5t29 8.5q17 7 35 21l30 -23q-38 -33 -74 -53q-15 -9 -31.5 -15.5t-33 -9t-31.5 0.5t-27 14q-18 16 -16 39.5t18.5 50.5t43 55.5t57.5 54.5q-27 6 -46 21
q-36 28 -40 82q-3 74 52 181q-11 2 -22.5 4.5t-22.5 4.5q-37 -46 -74 -90t-73.5 -81.5t-73 -65.5t-72.5 -41q-24 -10 -47 -14t-43 -4q-31 0 -54 8.5t-39.5 21.5t-26.5 29t-15 32q-9 38 6 71.5t51 53.5l4 2l2 -3q27 -51 95 -51q27 0 60 10q53 13 106.5 53.5t108.5 93.5
q-32 10 -62.5 17.5t-59.5 7.5q-35 0 -64 -13l-3 9q77 53 185 53q36 0 74 -6q2 3 4 5t3 4q42 41 83.5 81.5t83.5 73.5t84 55t83 26l27 3l-24 -11q-51 -71 -86 -134.5t-55 -117.5q91 1 168 40l30 14l-25 -22q-50 -48 -99 -76t-100 -40q-10 -48 -6 -80.5t19 -45.5
q21 -16 43 -16q24 0 55 13.5t69 39.5zM311 529q-14 0 -24 -3l-18 -9l11 15q21 24 43 38.5t44.5 22.5t44.5 10.5t42 2.5q22 0 43 -2.5t44 -4.5q20 -2 39 -3.5t37 -1.5q27 0 47.5 5t36.5 14l27 15l-21 -22q-51 -57 -103.5 -84t-109.5 -27q-33 0 -61.5 6.5t-54.5 13.5
q-19 5 -35.5 9.5t-31.5 4.5zM624 365q34 51 77.5 103.5t95.5 106.5q-49 -27 -100.5 -82t-105.5 -123q8 -1 16.5 -2t16.5 -3z" />
    <glyph glyph-name="aogonek" unicode="&#x105;" horiz-adv-x="441" 
d="M15 229q37 44 79.5 78.5t82.5 54.5t74.5 24t56.5 -14q14 -11 14 -36q10 8 19.5 15t19.5 13h84q-26 -21 -53.5 -54t-53.5 -65q-42 -54 -60 -84t0 -44q9 -7 27.5 -2.5t41 17.5t47.5 32t47 42q14 13 24.5 15t15.5 -4t2.5 -17.5t-14.5 -23.5q-35 -35 -81.5 -74t-92.5 -67
q-27 -18 -54.5 -40.5t-47.5 -45t-28 -42.5t4 -34q8 -11 23 -9.5t29 8.5q17 7 35 21l30 -23q-38 -33 -74 -53q-15 -9 -31.5 -15.5t-33 -9t-31.5 0.5t-27 14q-18 15 -16 38t17 49t40 53.5t55 52.5q-5 1 -9 3l-8 4q-39 23 -27 77q-12 -15 -26.5 -30t-31.5 -27t-35.5 -19.5
t-37.5 -7.5q-37 0 -53 21.5t-13.5 55t21 74t50.5 78.5zM78 125q11 -6 30.5 4.5t41 30.5t43 45.5t36.5 49.5t20.5 42.5t-3.5 24.5q-6 4 -19 1t-29 -12t-33.5 -22.5t-32.5 -29.5q-17 -19 -31 -40.5t-22 -40.5t-9 -33.5t8 -19.5z" />
    <glyph glyph-name="Cacute" unicode="&#x106;" horiz-adv-x="582" 
d="M546 232q-24 -57 -64 -101t-88 -73t-100 -44t-100 -15q-74 0 -127 33q-45 29 -59 81t4 120q20 69 64.5 136t109.5 121q26 22 60.5 45t77 42.5t92.5 32.5t108 15h12q45 0 76 -10.5t50.5 -27.5t28.5 -38t9 -41q0 -30 -16 -59.5t-46.5 -53t-74.5 -38t-100 -14.5
q-34 0 -70 5.5t-74 16.5l-22 7l24 3q64 6 114 24.5t84.5 43t53.5 51t20 48.5q2 35 -36 43q-7 1 -14.5 1.5t-15.5 0.5q-50 0 -103 -26t-99.5 -67t-82 -90.5t-50.5 -97.5q-6 -18 -9.5 -39.5t-1.5 -43t12.5 -42t33.5 -37.5q33 -24 83 -24q32 0 65 8.5t63 24.5t56 37.5t43 47.5z
M518 660l-28 29l180 112l79 -93z" />
    <glyph glyph-name="cacute" unicode="&#x107;" 
d="M350 206q14 14 25.5 16.5t16.5 -3.5t2 -17.5t-16 -25.5q-85 -84 -167 -130t-154 -46q-35 0 -59.5 14.5t-34.5 41t-2.5 64.5t37.5 86q28 45 62 78t68.5 55.5t67.5 33.5t59 11q21 0 38.5 -7t29 -18.5t15.5 -26.5t-3 -32q-9 -21 -27.5 -36.5t-39.5 -25.5t-40.5 -13.5
t-31 -0.5t-12 12.5t17.5 26.5q17 16 21.5 29t-1 19.5t-20.5 4.5t-36 -17q-21 -14 -42.5 -35t-33.5 -42q-14 -24 -19.5 -46t-1 -39t20 -27t43.5 -9q29 0 59.5 9.5t59 24.5t54 33.5t44.5 37.5zM252 433l-28 29l180 112l79 -93z" />
    <glyph glyph-name="Ccircumflex" unicode="&#x108;" horiz-adv-x="582" 
d="M546 232q-24 -57 -64 -101t-88 -73t-100 -44t-100 -15q-74 0 -127 33q-45 29 -59 81t4 120q20 69 64.5 136t109.5 121q26 22 60.5 45t77 42.5t92.5 32.5t108 15h12q45 0 76 -10.5t50.5 -27.5t28.5 -38t9 -41q0 -30 -16 -59.5t-46.5 -53t-74.5 -38t-100 -14.5
q-34 0 -70 5.5t-74 16.5l-22 7l24 3q64 6 114 24.5t84.5 43t53.5 51t20 48.5q2 35 -36 43q-7 1 -14.5 1.5t-15.5 0.5q-50 0 -103 -26t-99.5 -67t-82 -90.5t-50.5 -97.5q-6 -18 -9.5 -39.5t-1.5 -43t12.5 -42t33.5 -37.5q33 -24 83 -24q32 0 65 8.5t63 24.5t56 37.5t43 47.5z
M619 820h67l33 -141h-117l-8 68l-112 -68h-81z" />
    <glyph glyph-name="ccircumflex" unicode="&#x109;" 
d="M350 206q14 14 25.5 16.5t16.5 -3.5t2 -17.5t-16 -25.5q-85 -84 -167 -130t-154 -46q-35 0 -59.5 14.5t-34.5 41t-2.5 64.5t37.5 86q28 45 62 78t68.5 55.5t67.5 33.5t59 11q21 0 38.5 -7t29 -18.5t15.5 -26.5t-3 -32q-9 -21 -27.5 -36.5t-39.5 -25.5t-40.5 -13.5
t-31 -0.5t-12 12.5t17.5 26.5q17 16 21.5 29t-1 19.5t-20.5 4.5t-36 -17q-21 -14 -42.5 -35t-33.5 -42q-14 -24 -19.5 -46t-1 -39t20 -27t43.5 -9q29 0 59.5 9.5t59 24.5t54 33.5t44.5 37.5zM353 590h67l33 -141h-117l-8 68l-112 -68h-81z" />
    <glyph glyph-name="Cdotaccent" unicode="&#x10a;" horiz-adv-x="582" 
d="M546 232q-24 -57 -64 -101t-88 -73t-100 -44t-100 -15q-74 0 -127 33q-45 29 -59 81t4 120q20 69 64.5 136t109.5 121q26 22 60.5 45t77 42.5t92.5 32.5t108 15h12q45 0 76 -10.5t50.5 -27.5t28.5 -38t9 -41q0 -30 -16 -59.5t-46.5 -53t-74.5 -38t-100 -14.5
q-34 0 -70 5.5t-74 16.5l-22 7l24 3q64 6 114 24.5t84.5 43t53.5 51t20 48.5q2 35 -36 43q-7 1 -14.5 1.5t-15.5 0.5q-50 0 -103 -26t-99.5 -67t-82 -90.5t-50.5 -97.5q-6 -18 -9.5 -39.5t-1.5 -43t12.5 -42t33.5 -37.5q33 -24 83 -24q32 0 65 8.5t63 24.5t56 37.5t43 47.5z
M533 736q0 29 20 48.5t48 19.5q29 0 48.5 -19.5t19.5 -48.5t-19.5 -48.5t-48.5 -19.5q-28 0 -48 19.5t-20 48.5z" />
    <glyph glyph-name="cdotaccent" unicode="&#x10b;" 
d="M350 206q14 14 25.5 16.5t16.5 -3.5t2 -17.5t-16 -25.5q-85 -84 -167 -130t-154 -46q-35 0 -59.5 14.5t-34.5 41t-2.5 64.5t37.5 86q28 45 62 78t68.5 55.5t67.5 33.5t59 11q21 0 38.5 -7t29 -18.5t15.5 -26.5t-3 -32q-9 -21 -27.5 -36.5t-39.5 -25.5t-40.5 -13.5
t-31 -0.5t-12 12.5t17.5 26.5q17 16 21.5 29t-1 19.5t-20.5 4.5t-36 -17q-21 -14 -42.5 -35t-33.5 -42q-14 -24 -19.5 -46t-1 -39t20 -27t43.5 -9q29 0 59.5 9.5t59 24.5t54 33.5t44.5 37.5zM263 496q0 29 20 48.5t48 19.5q29 0 48.5 -19.5t19.5 -48.5t-19.5 -48.5
t-48.5 -19.5q-28 0 -48 19.5t-20 48.5z" />
    <glyph glyph-name="Ccaron" unicode="&#x10c;" horiz-adv-x="582" 
d="M546 232q-24 -57 -64 -101t-88 -73t-100 -44t-100 -15q-74 0 -127 33q-45 29 -59 81t4 120q20 69 64.5 136t109.5 121q26 22 60.5 45t77 42.5t92.5 32.5t108 15h12q45 0 76 -10.5t50.5 -27.5t28.5 -38t9 -41q0 -30 -16 -59.5t-46.5 -53t-74.5 -38t-100 -14.5
q-34 0 -70 5.5t-74 16.5l-22 7l24 3q64 6 114 24.5t84.5 43t53.5 51t20 48.5q2 35 -36 43q-7 1 -14.5 1.5t-15.5 0.5q-50 0 -103 -26t-99.5 -67t-82 -90.5t-50.5 -97.5q-6 -18 -9.5 -39.5t-1.5 -43t12.5 -42t33.5 -37.5q33 -24 83 -24q32 0 65 8.5t63 24.5t56 37.5t43 47.5z
M568 659h-67l-33 141h117l8 -68l112 68h81z" />
    <glyph glyph-name="ccaron" unicode="&#x10d;" 
d="M350 206q14 14 25.5 16.5t16.5 -3.5t2 -17.5t-16 -25.5q-85 -84 -167 -130t-154 -46q-35 0 -59.5 14.5t-34.5 41t-2.5 64.5t37.5 86q28 45 62 78t68.5 55.5t67.5 33.5t59 11q21 0 38.5 -7t29 -18.5t15.5 -26.5t-3 -32q-9 -21 -27.5 -36.5t-39.5 -25.5t-40.5 -13.5
t-31 -0.5t-12 12.5t17.5 26.5q17 16 21.5 29t-1 19.5t-20.5 4.5t-36 -17q-21 -14 -42.5 -35t-33.5 -42q-14 -24 -19.5 -46t-1 -39t20 -27t43.5 -9q29 0 59.5 9.5t59 24.5t54 33.5t44.5 37.5zM314 439h-67l-33 141h117l8 -68l112 68h81z" />
    <glyph glyph-name="Dcaron" unicode="&#x10e;" horiz-adv-x="1084" 
d="M1009 587q57 -36 76.5 -96.5t-3.5 -135.5q-19 -64 -66 -127t-114 -113.5t-150.5 -82t-176.5 -31.5q-92 0 -179 33q-78 -32 -149 -49.5t-129 -17.5q-48 0 -77.5 11t-36.5 34q-7 20 9 44.5t53 49.5q104 74 262 74q44 0 94 -6q47 42 80 78.5t63 73.5q30 36 59.5 69t69 63
t93 57t130.5 50l4 -8q-33 -17 -61.5 -42.5t-55 -57t-50.5 -66.5l-48 -70q-32 -48 -65 -94.5t-69 -85.5q25 -5 50 -7.5t50 -2.5q70 0 129.5 21t104.5 55.5t75.5 78t42.5 89.5q16 60 -1.5 107.5t-64.5 74.5q-71 39 -161 39q-51 0 -99 -11t-88.5 -28t-71.5 -39.5t-48 -44.5
q-26 -37 -20 -69q8 -25 25.5 -33t33.5 -8q5 0 11.5 0.5t12.5 1.5l19 5l-16 -12q-41 -35 -86.5 -54.5t-82.5 -19.5q-72 0 -83 64q-2 18 7.5 40t31.5 47q31 36 84.5 72.5t118 65.5t135.5 47t139 18q57 0 104 -13t85 -38zM284 74q-26 8 -51 11t-48 3t-43.5 -3.5t-37.5 -11.5
q-26 -11 -35.5 -21.5t-8.5 -18.5q5 -19 50 -19q20 0 63.5 10.5t110.5 49.5zM951 661h-67l-33 141h117l8 -68l112 68h81z" />
    <glyph glyph-name="dcaron" unicode="&#x10f;" horiz-adv-x="628" 
d="M18 229q37 44 79 78.5t82 54.5t74.5 24t56.5 -14q9 -7 12 -22q34 36 66 68t58 56q30 28 57 52h113q-26 -21 -56.5 -49.5t-61.5 -60.5t-61 -66t-57 -66q-22 -26 -42.5 -52.5t-34.5 -50t-18.5 -40.5t4.5 -24t28.5 -2.5t44.5 17.5t51 32t49 42q13 13 24 15t15.5 -4t2 -17.5
t-14.5 -23.5q-31 -31 -74.5 -67t-88 -63.5t-84.5 -40.5t-64 2q-18 11 -23 36.5t3 60.5q-11 -17 -26.5 -35t-34.5 -33.5t-40.5 -25.5t-44.5 -10q-37 0 -53 21.5t-13.5 55t21 74t51.5 78.5zM653 513q0 18 6.5 33.5t18 27t26.5 18t33 6.5q46 -1 64.5 -29t5 -67.5t-62.5 -82.5
t-139 -74l-29 35q33 18 49 34t22.5 32t6 32t-0.5 35zM81 125q11 -6 30.5 4.5t41 30.5t42.5 45.5t36 49.5t20.5 42.5t-3.5 24.5q-6 4 -19 1t-29 -12t-33.5 -22.5t-32.5 -29.5q-17 -19 -31 -40.5t-22 -40.5t-8.5 -33.5t8.5 -19.5z" />
    <glyph glyph-name="Dcroat" unicode="&#x110;" horiz-adv-x="1084" 
d="M517 311h36l12 15q30 36 59.5 69t69 63t93 57t130.5 50l4 -8q-33 -17 -61.5 -42.5t-55 -57t-50.5 -66.5l-48 -70q-2 -3 -3.5 -5.5t-3.5 -4.5h122l-52 -49h-103q-23 -33 -46 -63.5t-48 -57.5q25 -5 50 -7.5t50 -2.5q70 0 129.5 21t104.5 55.5t75.5 78t42.5 89.5
q16 60 -1.5 107.5t-64.5 74.5q-71 39 -161 39q-51 0 -99 -11t-88.5 -28t-71.5 -39.5t-48 -44.5q-26 -37 -20 -69q8 -25 25.5 -33t33.5 -8q5 0 11.5 0.5t12.5 1.5l19 5l-16 -12q-41 -35 -86.5 -54.5t-82.5 -19.5q-72 0 -83 64q-2 18 7.5 40t31.5 47q31 36 84.5 72.5t118 65.5
t135.5 47t139 18q57 0 104 -13t85 -38q57 -36 76.5 -96.5t-3.5 -135.5q-19 -64 -66 -127t-114 -113.5t-150.5 -82t-176.5 -31.5q-92 0 -179 33q-78 -32 -149 -49.5t-129 -17.5q-48 0 -77.5 11t-36.5 34q-7 20 9 44.5t53 49.5q104 74 262 74q44 0 94 -6q26 23 47.5 45
t40.5 43h-46zM284 74q-26 8 -51 11t-48 3t-43.5 -3.5t-37.5 -11.5q-26 -11 -35.5 -21.5t-8.5 -18.5q5 -19 50 -19q20 0 63.5 10.5t110.5 49.5z" />
    <glyph glyph-name="dcroat" unicode="&#x111;" horiz-adv-x="462" 
d="M616 526q-15 -12 -32 -26.5t-34 -31.5h61l-40 -51h-72q-32 -32 -62.5 -66.5t-56.5 -66.5q-22 -26 -42.5 -52.5t-34.5 -50t-18.5 -40.5t4.5 -24t28.5 -2.5t44.5 17.5t51 32t49 42q13 13 24 15t15.5 -4t2 -17.5t-14.5 -23.5q-31 -31 -74.5 -67t-88 -63.5t-84.5 -40.5t-64 2
q-18 11 -23 36.5t3 60.5q-11 -17 -26.5 -35t-34.5 -33.5t-40.5 -25.5t-44.5 -10q-37 0 -53 21.5t-13.5 55t21 74t51.5 78.5q37 44 79 78.5t82 54.5t74.5 24t56.5 -14q9 -7 12 -22q17 18 33 34.5t32 32.5h-63l40 51h75q14 13 26 23.5t20 18.5q10 9 18 16h113zM81 125
q11 -6 30.5 4.5t41 30.5t42.5 45.5t36 49.5t20.5 42.5t-3.5 24.5q-6 4 -19 1t-29 -12t-33.5 -22.5t-32.5 -29.5q-17 -19 -31 -40.5t-22 -40.5t-8.5 -33.5t8.5 -19.5z" />
    <glyph glyph-name="Emacron" unicode="&#x112;" horiz-adv-x="657" 
d="M658 172q-37 -59 -90.5 -102.5t-114.5 -72t-123.5 -42t-117.5 -13.5q-73 0 -124 21t-72 59q-25 49 -5 102q15 37 49.5 70.5t77 61t87 47.5t78.5 32q-71 35 -60 95q6 30 33.5 61t71.5 57.5t101.5 44.5t123.5 21h22q88 0 139 -31q23 -14 34.5 -31.5t11.5 -37.5
q0 -33 -33 -59.5t-99 -26.5q-50 0 -104 16l-21 7l23 2q50 6 76.5 29t25.5 48q-1 20 -19 31.5t-50 11.5h-8.5t-8.5 -1q-35 -3 -64 -15.5t-49.5 -30t-31.5 -38t-10 -39.5q2 -30 31 -47.5t81 -17.5h23l-20 -9q-130 -53 -209 -109.5t-96 -109.5q-12 -37 9 -70q17 -26 49 -40.5
t76 -14.5q37 0 77 10.5t79 29.5t75.5 46t66.5 61zM501 766h279l-48 -75h-279zM126 516q-11 0 -20 -1t-16 -5l-12 -3l6 10q14 27 32.5 43t39.5 24.5t44.5 11.5t46.5 3h25q6 -1 12 -1h12q20 0 39.5 3t33.5 12l23 15l-17 -22q-25 -32 -48 -51t-44.5 -29t-41 -13t-35.5 -3
q-11 0 -21.5 1.5t-21.5 2.5q-10 1 -19 1.5t-18 0.5z" />
    <glyph glyph-name="emacron" unicode="&#x113;" 
d="M350 206q14 14 25.5 16.5t16.5 -3.5t2 -17.5t-16 -25.5q-85 -84 -166.5 -130t-153.5 -46q-35 0 -59.5 14.5t-35 41t-3 64.5t37.5 86q28 45 62 78t69 55.5t68 33.5t59 11q41 0 58.5 -25t2.5 -59q-10 -23 -32.5 -43.5t-55 -36.5t-72.5 -26t-85 -12q-11 -35 3 -59t58 -22
q29 0 59.5 9.5t59 24.5t54 33.5t44.5 37.5zM180 528h279l-48 -75h-279zM86 215q29 4 60 21.5t51 36.5q17 16 22 27.5t0.5 16t-18.5 1t-35 -18.5q-21 -14 -42.5 -35t-33.5 -42z" />
    <glyph glyph-name="Edotaccent" unicode="&#x116;" horiz-adv-x="657" 
d="M658 172q-37 -59 -90.5 -102.5t-114.5 -72t-123.5 -42t-117.5 -13.5q-73 0 -124 21t-72 59q-25 49 -5 102q15 37 49.5 70.5t77 61t87 47.5t78.5 32q-71 35 -60 95q6 30 33.5 61t71.5 57.5t101.5 44.5t123.5 21h22q88 0 139 -31q23 -14 34.5 -31.5t11.5 -37.5
q0 -33 -33 -59.5t-99 -26.5q-50 0 -104 16l-21 7l23 2q50 6 76.5 29t25.5 48q-1 20 -19 31.5t-50 11.5h-8.5t-8.5 -1q-35 -3 -64 -15.5t-49.5 -30t-31.5 -38t-10 -39.5q2 -30 31 -47.5t81 -17.5h23l-20 -9q-130 -53 -209 -109.5t-96 -109.5q-12 -37 9 -70q17 -26 49 -40.5
t76 -14.5q37 0 77 10.5t79 29.5t75.5 46t66.5 61zM126 516q-11 0 -20 -1t-16 -5l-12 -3l6 10q14 27 32.5 43t39.5 24.5t44.5 11.5t46.5 3h25q6 -1 12 -1h12q20 0 39.5 3t33.5 12l23 15l-17 -22q-25 -32 -48 -51t-44.5 -29t-41 -13t-35.5 -3q-11 0 -21.5 1.5t-21.5 2.5
q-10 1 -19 1.5t-18 0.5zM558 746q0 29 20 48.5t48 19.5q29 0 48.5 -19.5t19.5 -48.5t-19.5 -48.5t-48.5 -19.5q-28 0 -48 19.5t-20 48.5z" />
    <glyph glyph-name="edotaccent" unicode="&#x117;" 
d="M350 206q14 14 25.5 16.5t16.5 -3.5t2 -17.5t-16 -25.5q-85 -84 -166.5 -130t-153.5 -46q-35 0 -59.5 14.5t-35 41t-3 64.5t37.5 86q28 45 62 78t69 55.5t68 33.5t59 11q41 0 58.5 -25t2.5 -59q-10 -23 -32.5 -43.5t-55 -36.5t-72.5 -26t-85 -12q-11 -35 3 -59t58 -22
q29 0 59.5 9.5t59 24.5t54 33.5t44.5 37.5zM240 496q0 29 20 48.5t48 19.5q29 0 48.5 -19.5t19.5 -48.5t-19.5 -48.5t-48.5 -19.5q-28 0 -48 19.5t-20 48.5zM86 215q29 4 60 21.5t51 36.5q17 16 22 27.5t0.5 16t-18.5 1t-35 -18.5q-21 -14 -42.5 -35t-33.5 -42z" />
    <glyph glyph-name="Eogonek" unicode="&#x118;" horiz-adv-x="657" 
d="M658 172q-37 -60 -90.5 -102.5t-114.5 -71.5q-27 -18 -56 -41t-50 -46.5t-30 -44.5t3 -35q8 -11 23 -9.5t29 8.5q17 7 35 21l30 -23q-38 -33 -74 -53q-15 -9 -31.5 -15.5t-33 -9t-31.5 0.5t-27 14q-18 15 -16.5 37.5t16.5 48.5t40 53t54 53q-65 -15 -122 -15
q-73 0 -124 21t-72 59q-25 49 -5 102q15 37 49.5 70.5t77 61t87 47.5t78.5 32q-71 35 -60 95q6 30 33.5 61t71.5 57.5t101.5 44.5t123.5 21h22q88 0 139 -31q23 -14 34.5 -31.5t11.5 -37.5q0 -33 -33 -59.5t-99 -26.5q-50 0 -104 16l-21 7l23 2q50 6 76.5 29t25.5 48
q-1 20 -19 31.5t-50 11.5h-8.5t-8.5 -1q-35 -3 -64 -15.5t-49.5 -30t-31.5 -38t-10 -39.5q2 -30 31 -47.5t81 -17.5h23l-20 -9q-130 -53 -209 -109.5t-96 -109.5q-12 -37 9 -70q17 -26 49 -40.5t76 -14.5q37 0 77 10.5t79 29.5t75.5 46t66.5 61zM126 516q-11 0 -20 -1
t-16 -5l-12 -3l6 10q14 27 32.5 43t39.5 24.5t44.5 11.5t46.5 3h25q6 -1 12 -1h12q20 0 39.5 3t33.5 12l23 15l-17 -22q-25 -32 -48 -51t-44.5 -29t-41 -13t-35.5 -3q-11 0 -21.5 1.5t-21.5 2.5q-10 1 -19 1.5t-18 0.5z" />
    <glyph glyph-name="eogonek" unicode="&#x119;" 
d="M172 26q-27 -18 -56 -41t-51 -46.5t-31 -45t3 -35.5q8 -11 23 -9.5t29 8.5q17 7 35 21l30 -23q-38 -33 -74 -53q-15 -9 -31.5 -15.5t-33 -9t-31.5 0.5t-27 14q-19 16 -15.5 41t21.5 53.5t47 58t61 55.5h-13q-35 0 -59.5 14.5t-35 41t-3 64.5t37.5 86q28 45 62 78t69 55.5
t68 33.5t59 11q41 0 58.5 -25t2.5 -59q-10 -23 -32.5 -43.5t-55 -36.5t-72.5 -26t-85 -12q-11 -35 3 -59t58 -22q29 0 59.5 9.5t59 24.5t54 33.5t44.5 37.5q14 14 25.5 16.5t16.5 -3.5t2 -17.5t-16 -25.5q-52 -51 -103 -88.5t-100 -59.5zM86 215q29 4 60 21.5t51 36.5
q17 16 22 27.5t0.5 16t-18.5 1t-35 -18.5q-21 -14 -42.5 -35t-33.5 -42z" />
    <glyph glyph-name="Ecaron" unicode="&#x11a;" horiz-adv-x="657" 
d="M658 172q-37 -59 -90.5 -102.5t-114.5 -72t-123.5 -42t-117.5 -13.5q-73 0 -124 21t-72 59q-25 49 -5 102q15 37 49.5 70.5t77 61t87 47.5t78.5 32q-71 35 -60 95q6 30 33.5 61t71.5 57.5t101.5 44.5t123.5 21h22q88 0 139 -31q23 -14 34.5 -31.5t11.5 -37.5
q0 -33 -33 -59.5t-99 -26.5q-50 0 -104 16l-21 7l23 2q50 6 76.5 29t25.5 48q-1 20 -19 31.5t-50 11.5h-8.5t-8.5 -1q-35 -3 -64 -15.5t-49.5 -30t-31.5 -38t-10 -39.5q2 -30 31 -47.5t81 -17.5h23l-20 -9q-130 -53 -209 -109.5t-96 -109.5q-12 -37 9 -70q17 -26 49 -40.5
t76 -14.5q37 0 77 10.5t79 29.5t75.5 46t66.5 61zM605 648h-67l-33 141h117l8 -68l112 68h81zM126 516q-11 0 -20 -1t-16 -5l-12 -3l6 10q14 27 32.5 43t39.5 24.5t44.5 11.5t46.5 3h25q6 -1 12 -1h12q20 0 39.5 3t33.5 12l23 15l-17 -22q-25 -32 -48 -51t-44.5 -29t-41 -13
t-35.5 -3q-11 0 -21.5 1.5t-21.5 2.5q-10 1 -19 1.5t-18 0.5z" />
    <glyph glyph-name="ecaron" unicode="&#x11b;" 
d="M350 206q14 14 25.5 16.5t16.5 -3.5t2 -17.5t-16 -25.5q-85 -84 -166.5 -130t-153.5 -46q-35 0 -59.5 14.5t-35 41t-3 64.5t37.5 86q28 45 62 78t69 55.5t68 33.5t59 11q41 0 58.5 -25t2.5 -59q-10 -23 -32.5 -43.5t-55 -36.5t-72.5 -26t-85 -12q-11 -35 3 -59t58 -22
q29 0 59.5 9.5t59 24.5t54 33.5t44.5 37.5zM309 449h-67l-33 141h117l8 -68l112 68h81zM86 215q29 4 60 21.5t51 36.5q17 16 22 27.5t0.5 16t-18.5 1t-35 -18.5q-21 -14 -42.5 -35t-33.5 -42z" />
    <glyph glyph-name="Gcircumflex" unicode="&#x11c;" horiz-adv-x="729" 
d="M789 350q-56 -34 -97 -73.5t-78 -79.5q-30 -32 -61.5 -63.5t-71 -60.5t-89.5 -54t-115 -43q-24 -7 -47.5 -10t-44.5 -3q-39 0 -73 10.5t-60 28.5q-24 18 -37 40.5t-13 45.5q0 17 8 34.5t27 31.5t49.5 23t74.5 9h23l4 -1l-1 -6q-8 -26 11 -48q13 -18 39.5 -28.5
t60.5 -10.5q8 0 16.5 0.5t17.5 2.5q37 5 83 26t94.5 52.5t96 69t87.5 75.5q-31 -15 -67.5 -33t-76 -33.5t-79.5 -25.5t-77 -10q-50 0 -84 19q-8 4 -13 7.5t-10 8.5q-24 -5 -46.5 -6.5t-44.5 -1.5q-33 0 -61 5t-49 14t-33.5 21t-15.5 27q-2 26 25.5 49t79.5 39l13 5l-8 -12
q-6 -11 -7.5 -22.5t3.5 -23.5q11 -20 42 -33t76 -15q-6 37 19 84q22 35 61.5 67t92.5 60t119 51t142 40q25 6 46.5 8t39.5 2q36 0 57.5 -9.5t23.5 -29.5q4 -21 -16 -50t-67 -63.5t-121.5 -73.5t-178.5 -78q14 -5 29 -7t29 -2q31 0 57.5 9.5t52.5 22.5q23 11 48.5 20.5
t54.5 9.5h55zM438 326q60 19 112 48.5t90.5 61t60 60t18.5 45.5q-5 18 -36 18q-27 0 -66 -17t-77.5 -43t-69.5 -57.5t-41 -60.5q-8 -19 -5 -32t14 -23zM793 810h67l33 -141h-117l-8 68l-112 -68h-81z" />
    <glyph glyph-name="gcircumflex" unicode="&#x11d;" horiz-adv-x="404" 
d="M29 247q35 41 74 72.5t75.5 49t67.5 19.5t52 -14q16 -14 16 -35q8 6 17 12.5t20 12.5h84q-25 -21 -54.5 -53t-52.5 -66q-36 -54 -64.5 -102.5t-54.5 -92.5q30 16 59 37t54 42.5t46 41.5t36 35q13 13 24 15t15.5 -4t2 -17.5t-14.5 -23.5q-62 -62 -126.5 -114.5
t-137.5 -79.5q-3 -5 -6.5 -10t-7.5 -10q-42 -58 -92.5 -82t-94 -22.5t-72.5 23t-28 53.5q1 31 21.5 52t51.5 31t68.5 9.5t73.5 -11.5l38 63q-19 -17 -40.5 -27.5t-45.5 -10.5q-35 0 -51.5 19t-16.5 48.5t16.5 66.5t47.5 73zM382 580h67l33 -141h-117l-8 68l-112 -68h-81z
M98 158q10 -6 27.5 2.5t36 25.5t36.5 39t30.5 42.5t16.5 36.5t-5 22q-13 8 -42 -6t-57 -44q-17 -18 -29 -37t-18 -35.5t-5 -29t9 -16.5zM-66 -54q0 -11 11.5 -16.5t29.5 -3.5t39 13.5t40 34.5q-17 8 -37.5 9t-39 -3t-31 -13t-12.5 -21z" />
    <glyph glyph-name="Gbreve" unicode="&#x11e;" horiz-adv-x="729" 
d="M789 350q-56 -34 -97 -73.5t-78 -79.5q-30 -32 -61.5 -63.5t-71 -60.5t-89.5 -54t-115 -43q-24 -7 -47.5 -10t-44.5 -3q-39 0 -73 10.5t-60 28.5q-24 18 -37 40.5t-13 45.5q0 17 8 34.5t27 31.5t49.5 23t74.5 9h23l4 -1l-1 -6q-8 -26 11 -48q13 -18 39.5 -28.5
t60.5 -10.5q8 0 16.5 0.5t17.5 2.5q37 5 83 26t94.5 52.5t96 69t87.5 75.5q-31 -15 -67.5 -33t-76 -33.5t-79.5 -25.5t-77 -10q-50 0 -84 19q-8 4 -13 7.5t-10 8.5q-24 -5 -46.5 -6.5t-44.5 -1.5q-33 0 -61 5t-49 14t-33.5 21t-15.5 27q-2 26 25.5 49t79.5 39l13 5l-8 -12
q-6 -11 -7.5 -22.5t3.5 -23.5q11 -20 42 -33t76 -15q-6 37 19 84q22 35 61.5 67t92.5 60t119 51t142 40q25 6 46.5 8t39.5 2q36 0 57.5 -9.5t23.5 -29.5q4 -21 -16 -50t-67 -63.5t-121.5 -73.5t-178.5 -78q14 -5 29 -7t29 -2q31 0 57.5 9.5t52.5 22.5q23 11 48.5 20.5
t54.5 9.5h55zM438 326q60 19 112 48.5t90.5 61t60 60t18.5 45.5q-5 18 -36 18q-27 0 -66 -17t-77.5 -43t-69.5 -57.5t-41 -60.5q-8 -19 -5 -32t14 -23zM892 748q-6 -39 -36.5 -65.5t-71.5 -26.5q-22 0 -41.5 8.5t-34 23t-23 34t-8.5 42.5v10.5t1 10.5l55 -9q0 -3 -0.5 -6
t-0.5 -6q0 -22 16 -38t38 -16q20 0 35 12.5t18 31.5z" />
    <glyph glyph-name="gbreve" unicode="&#x11f;" horiz-adv-x="404" 
d="M29 247q35 41 74 72.5t75.5 49t67.5 19.5t52 -14q16 -14 16 -35q8 6 17 12.5t20 12.5h84q-25 -21 -54.5 -53t-52.5 -66q-36 -54 -64.5 -102.5t-54.5 -92.5q30 16 59 37t54 42.5t46 41.5t36 35q13 13 24 15t15.5 -4t2 -17.5t-14.5 -23.5q-62 -62 -126.5 -114.5
t-137.5 -79.5q-3 -5 -6.5 -10t-7.5 -10q-42 -58 -92.5 -82t-94 -22.5t-72.5 23t-28 53.5q1 31 21.5 52t51.5 31t68.5 9.5t73.5 -11.5l38 63q-19 -17 -40.5 -27.5t-45.5 -10.5q-35 0 -51.5 19t-16.5 48.5t16.5 66.5t47.5 73zM459 518q-6 -39 -36.5 -65.5t-71.5 -26.5
q-22 0 -41.5 8.5t-34 23t-23 34t-8.5 42.5v10.5t1 10.5l55 -9q0 -3 -0.5 -6t-0.5 -6q0 -22 16 -38t38 -16q20 0 35 12.5t18 31.5zM98 158q10 -6 27.5 2.5t36 25.5t36.5 39t30.5 42.5t16.5 36.5t-5 22q-13 8 -42 -6t-57 -44q-17 -18 -29 -37t-18 -35.5t-5 -29t9 -16.5z
M-66 -54q0 -11 11.5 -16.5t29.5 -3.5t39 13.5t40 34.5q-17 8 -37.5 9t-39 -3t-31 -13t-12.5 -21z" />
    <glyph glyph-name="Gdotaccent" unicode="&#x120;" horiz-adv-x="729" 
d="M789 350q-56 -34 -97 -73.5t-78 -79.5q-30 -32 -61.5 -63.5t-71 -60.5t-89.5 -54t-115 -43q-24 -7 -47.5 -10t-44.5 -3q-39 0 -73 10.5t-60 28.5q-24 18 -37 40.5t-13 45.5q0 17 8 34.5t27 31.5t49.5 23t74.5 9h23l4 -1l-1 -6q-8 -26 11 -48q13 -18 39.5 -28.5
t60.5 -10.5q8 0 16.5 0.5t17.5 2.5q37 5 83 26t94.5 52.5t96 69t87.5 75.5q-31 -15 -67.5 -33t-76 -33.5t-79.5 -25.5t-77 -10q-50 0 -84 19q-8 4 -13 7.5t-10 8.5q-24 -5 -46.5 -6.5t-44.5 -1.5q-33 0 -61 5t-49 14t-33.5 21t-15.5 27q-2 26 25.5 49t79.5 39l13 5l-8 -12
q-6 -11 -7.5 -22.5t3.5 -23.5q11 -20 42 -33t76 -15q-6 37 19 84q22 35 61.5 67t92.5 60t119 51t142 40q25 6 46.5 8t39.5 2q36 0 57.5 -9.5t23.5 -29.5q4 -21 -16 -50t-67 -63.5t-121.5 -73.5t-178.5 -78q14 -5 29 -7t29 -2q31 0 57.5 9.5t52.5 22.5q23 11 48.5 20.5
t54.5 9.5h55zM438 326q60 19 112 48.5t90.5 61t60 60t18.5 45.5q-5 18 -36 18q-27 0 -66 -17t-77.5 -43t-69.5 -57.5t-41 -60.5q-8 -19 -5 -32t14 -23zM701 726q0 29 20 48.5t48 19.5q29 0 48.5 -19.5t19.5 -48.5t-19.5 -48.5t-48.5 -19.5q-28 0 -48 19.5t-20 48.5z" />
    <glyph glyph-name="gdotaccent" unicode="&#x121;" horiz-adv-x="404" 
d="M29 247q35 41 74 72.5t75.5 49t67.5 19.5t52 -14q16 -14 16 -35q8 6 17 12.5t20 12.5h84q-25 -21 -54.5 -53t-52.5 -66q-36 -54 -64.5 -102.5t-54.5 -92.5q30 16 59 37t54 42.5t46 41.5t36 35q13 13 24 15t15.5 -4t2 -17.5t-14.5 -23.5q-62 -62 -126.5 -114.5
t-137.5 -79.5q-3 -5 -6.5 -10t-7.5 -10q-42 -58 -92.5 -82t-94 -22.5t-72.5 23t-28 53.5q1 31 21.5 52t51.5 31t68.5 9.5t73.5 -11.5l38 63q-19 -17 -40.5 -27.5t-45.5 -10.5q-35 0 -51.5 19t-16.5 48.5t16.5 66.5t47.5 73zM288 496q0 29 20 48.5t48 19.5q29 0 48.5 -19.5
t19.5 -48.5t-19.5 -48.5t-48.5 -19.5q-28 0 -48 19.5t-20 48.5zM98 158q10 -6 27.5 2.5t36 25.5t36.5 39t30.5 42.5t16.5 36.5t-5 22q-13 8 -42 -6t-57 -44q-17 -18 -29 -37t-18 -35.5t-5 -29t9 -16.5zM-66 -54q0 -11 11.5 -16.5t29.5 -3.5t39 13.5t40 34.5q-17 8 -37.5 9
t-39 -3t-31 -13t-12.5 -21z" />
    <glyph glyph-name="uni0122" unicode="&#x122;" horiz-adv-x="729" 
d="M789 350q-56 -34 -97 -73.5t-78 -79.5q-30 -32 -61.5 -63.5t-71 -60.5t-89.5 -54t-115 -43q-24 -7 -47.5 -10t-44.5 -3q-39 0 -73 10.5t-60 28.5q-24 18 -37 40.5t-13 45.5q0 17 8 34.5t27 31.5t49.5 23t74.5 9h23l4 -1l-1 -6q-8 -26 11 -48q13 -18 39.5 -28.5
t60.5 -10.5q8 0 16.5 0.5t17.5 2.5q37 5 83 26t94.5 52.5t96 69t87.5 75.5q-31 -15 -67.5 -33t-76 -33.5t-79.5 -25.5t-77 -10q-50 0 -84 19q-8 4 -13 7.5t-10 8.5q-24 -5 -46.5 -6.5t-44.5 -1.5q-33 0 -61 5t-49 14t-33.5 21t-15.5 27q-2 26 25.5 49t79.5 39l13 5l-8 -12
q-6 -11 -7.5 -22.5t3.5 -23.5q11 -20 42 -33t76 -15q-6 37 19 84q22 35 61.5 67t92.5 60t119 51t142 40q25 6 46.5 8t39.5 2q36 0 57.5 -9.5t23.5 -29.5q4 -21 -16 -50t-67 -63.5t-121.5 -73.5t-178.5 -78q14 -5 29 -7t29 -2q31 0 57.5 9.5t52.5 22.5q23 11 48.5 20.5
t54.5 9.5h55zM438 326q60 19 112 48.5t90.5 61t60 60t18.5 45.5q-5 18 -36 18q-27 0 -66 -17t-77.5 -43t-69.5 -57.5t-41 -60.5q-8 -19 -5 -32t14 -23zM74 -144q0 36 24.5 61t59.5 24q46 -1 64.5 -29t5 -67.5t-62.5 -82.5t-139 -74l-29 36q33 18 49.5 34t22.5 31.5t5.5 32
t-0.5 34.5z" />
    <glyph glyph-name="uni0123" unicode="&#x123;" horiz-adv-x="404" 
d="M29 247q35 41 74 72.5t75.5 49t67.5 19.5t52 -14q16 -14 16 -35q8 6 17 12.5t20 12.5h84q-25 -21 -54.5 -53t-52.5 -66q-36 -54 -64.5 -102.5t-54.5 -92.5q30 16 59 37t54 42.5t46 41.5t36 35q13 13 24 15t15.5 -4t2 -17.5t-14.5 -23.5q-62 -62 -126.5 -114.5
t-137.5 -79.5q-3 -5 -6.5 -10t-7.5 -10q-42 -58 -92.5 -82t-94 -22.5t-72.5 23t-28 53.5q1 31 21.5 52t51.5 31t68.5 9.5t73.5 -11.5l38 63q-19 -17 -40.5 -27.5t-45.5 -10.5q-35 0 -51.5 19t-16.5 48.5t16.5 66.5t47.5 73zM396 487q0 -28 -19 -48t-47 -18q-36 1 -50.5 23
t-4 52.5t49 64.5t109.5 58l23 -28q-26 -14 -39 -26.5t-18 -25t-4.5 -25t0.5 -27.5zM98 158q10 -6 27.5 2.5t36 25.5t36.5 39t30.5 42.5t16.5 36.5t-5 22q-13 8 -42 -6t-57 -44q-17 -18 -29 -37t-18 -35.5t-5 -29t9 -16.5zM-66 -54q0 -11 11.5 -16.5t29.5 -3.5t39 13.5
t40 34.5q-17 8 -37.5 9t-39 -3t-31 -13t-12.5 -21z" />
    <glyph glyph-name="Hcircumflex" unicode="&#x124;" horiz-adv-x="950" 
d="M988 409q-41 -26 -89 -48t-104 -38q-34 -63 -43 -117t10 -83q25 -39 79 -39q22 0 44 6.5t40 20.5l24 16l-17 -22q-47 -64 -110.5 -101t-127.5 -37q-32 0 -59.5 11t-46.5 33q-17 19 -21 49t4.5 67.5t29 80t51.5 87.5q-26 -4 -51.5 -5.5t-51.5 -3.5q-42 -50 -83.5 -96.5
t-83.5 -85.5t-85 -68.5t-88 -46.5q-52 -20 -97 -20q-42 0 -70.5 18t-36.5 50q-4 18 0 38.5t16.5 41.5t35.5 41.5t56 37.5l3 2l3 -4q19 -26 41 -38t50 -12q27 0 56.5 11t60.5 30.5t63.5 46t65.5 57.5q-73 6 -132 23q-50 19 -64 35t-11 27q2 15 20 23t38 8h4l-1 -5
q-1 -5 0.5 -11t6.5 -11q14 -20 59.5 -36t112.5 -23q39 36 75 72t71.5 69.5t68.5 61.5t64 48.5t58 30.5l24 7l-18 -15q-63 -54 -123.5 -122.5t-120.5 -138.5q-2 -3 -5 -7t-8 -8q53 2 104 12q22 28 54 62.5t75 71t97 74t121 72.5q33 18 60 18q32 0 41 -28q4 -15 -1 -36
t-21.5 -46t-45.5 -52.5t-71 -55.5zM1023 803h67l33 -141h-117l-8 68l-112 -68h-81zM428 504l-12 -2l7 11q24 25 48 41t48 24t47.5 11t46.5 3q10 0 19.5 -1t19.5 -1q9 0 18 -1t17 -1q24 0 41.5 3.5t31.5 9.5l26 11l-20 -19q-61 -52 -113 -77t-102 -25q-19 0 -35 2.5t-30 5.5
q-12 2 -23 3.5t-22 1.5h-13zM950 448q55 42 73.5 72.5t13.5 41.5q0 6 -8 6q-5 0 -11 -3t-14 -8q-66 -45 -110 -94t-70 -89q34 15 65.5 33t60.5 41z" />
    <glyph glyph-name="hcircumflex" unicode="&#x125;" horiz-adv-x="424" 
d="M369 526l-185 -232q38 29 78 49.5t77 20.5q22 0 36 -9t19 -23.5t1 -32.5t-17 -36q-15 -20 -39.5 -40t-45.5 -39t-32 -35.5t1 -29.5q7 -8 23 -5t38.5 14.5t48.5 31.5t52 46q14 14 25.5 17t17 -2.5t2.5 -17.5t-18 -27q-35 -35 -74 -67t-77.5 -56t-74.5 -38.5t-64 -14.5
q-24 0 -40 8t-24 21.5t-8 30.5t8 36q6 15 20.5 31.5t32.5 33.5t37.5 33.5t36.5 31.5q16 13 21 23.5t0.5 15t-18.5 1t-36 -18.5q-30 -20 -65 -53t-67.5 -67.5t-59 -65.5t-39.5 -47l-12 -14h-114l423 526h112zM489 688h67l33 -141h-117l-8 68l-112 -68h-81z" />
    <glyph glyph-name="Hbar" unicode="&#x126;" horiz-adv-x="950" 
d="M539 413h47q33 32 65.5 62t62.5 55t58 43.5t54 27.5l24 7l-18 -15q-45 -38 -88.5 -84.5t-86.5 -95.5h97q48 47 114.5 97.5t157.5 98.5q33 18 60 18q32 0 41 -28q4 -15 -1 -36t-21.5 -46t-45.5 -52.5t-71 -55.5q-41 -26 -89 -48t-104 -38q-34 -63 -43 -117t10 -83
q25 -39 79 -39q22 0 44 6.5t40 20.5l24 16l-17 -22q-47 -64 -110.5 -101t-127.5 -37q-32 0 -59.5 11t-46.5 33q-17 19 -21 49t4.5 67.5t29 80t51.5 87.5q-26 -4 -51.5 -5.5t-51.5 -3.5q-42 -50 -83.5 -96.5t-83.5 -85.5t-85 -68.5t-88 -46.5q-52 -20 -97 -20q-42 0 -70.5 18
t-36.5 50q-4 18 0 38.5t16.5 41.5t35.5 41.5t56 37.5l3 2l3 -4q19 -26 41 -38t50 -12q27 0 56.5 11t60.5 30.5t63.5 46t65.5 57.5q-73 6 -132 23q-50 19 -64 35t-11 27q2 15 20 23t38 8h4l-1 -5q-1 -5 0.5 -11t6.5 -11q14 -20 59.5 -36t112.5 -23q31 28 61 58h-50zM428 504
l-12 -2l7 11q24 25 48 41t48 24t47.5 11t46.5 3q10 0 19.5 -1t19.5 -1q9 0 18 -1t17 -1q24 0 41.5 3.5t31.5 9.5l26 11l-20 -19q-61 -52 -113 -77t-102 -25q-19 0 -35 2.5t-30 5.5q-12 2 -23 3.5t-22 1.5h-13zM950 448q55 42 73.5 72.5t13.5 41.5q0 6 -8 6q-5 0 -11 -3
t-14 -8q-66 -45 -110 -94t-70 -89q34 15 65.5 33t60.5 41zM679 329q8 11 18 23t22 25h-93q-10 -11 -19.5 -22.5t-18.5 -22.5q-2 -3 -5 -7t-8 -8q53 2 104 12z" />
    <glyph glyph-name="hbar" unicode="&#x127;" horiz-adv-x="424" 
d="M148 465h60l49 61h112l-49 -61h76l-43 -50h-73l-97 -121q38 29 78.5 49.5t77.5 20.5q22 0 36 -9t19 -23.5t1 -32.5t-17 -36q-15 -20 -39.5 -40t-45.5 -39t-32 -35.5t1 -29.5q7 -8 23 -5t38.5 14.5t48.5 31.5t52 46q14 14 25.5 17t17 -2.5t2.5 -17.5t-18 -27
q-35 -35 -74 -67t-77.5 -56t-74.5 -38.5t-64 -14.5q-24 0 -40 8t-24 21.5t-8 30.5t8 36q6 15 20.5 31.5t32.5 33.5t37.5 33.5t36.5 31.5q16 13 21 23.5t0.5 15t-18.5 1t-36 -18.5q-30 -20 -65 -53t-67.5 -67.5t-59 -65.5t-39.5 -47l-12 -14h-114l333 415h-61z" />
    <glyph glyph-name="Itilde" unicode="&#x128;" horiz-adv-x="638" 
d="M581 253q-45 -58 -97 -105t-106 -80t-108 -51t-103 -18q-17 0 -32.5 1.5t-32.5 6.5q-94 28 -99 98q-2 40 30.5 79t91.5 61q2 -35 27.5 -53t68.5 -18q25 0 57.5 7.5t68 24t72 44t69.5 66.5q37 43 65 85.5t45.5 79.5t23.5 66t-1 46q-9 19 -35 19q-38 0 -77 -18t-71 -47
t-52.5 -66t-21.5 -75q-1 -25 10 -39.5t30 -15.5q13 -2 30.5 4.5t46.5 20.5q-15 -38 -35 -65t-42 -44t-45 -24.5t-44 -5.5q-26 2 -44.5 17t-27.5 39q-14 38 -2 84.5t50 95.5q26 34 61 65.5t77 56t89.5 39.5t98.5 15q62 0 85 -44q13 -28 8.5 -70.5t-22.5 -91t-46 -98
t-61 -92.5zM488 691q44 63 86 89t87 28q22 1 32.5 -7t18 -17.5t15.5 -18.5t23 -10q11 -1 20.5 7.5t17.5 18.5q9 11 16 27h53q-23 -36 -49 -64q-11 -12 -24.5 -23.5t-28 -20.5t-30.5 -14t-32 -4q-25 1 -37 10t-19.5 19t-15 18.5t-23.5 8.5q-14 0 -25.5 -7.5t-20.5 -16.5
q-11 -11 -19 -23h-45z" />
    <glyph glyph-name="itilde" unicode="&#x129;" horiz-adv-x="257" 
d="M238 353q-5 -6 -14.5 -16t-19 -21t-18 -20t-10.5 -12q-21 -26 -41.5 -53t-35 -50t-19.5 -40t4 -24t29 -2.5t44.5 17.5t51 32t48.5 42q13 13 24 15t16 -4t2.5 -17.5t-15.5 -23.5q-31 -31 -74.5 -67t-87.5 -63.5t-84 -40.5t-64 2q-17 10 -26 27.5t-7 42.5t15.5 57t42.5 72
q29 39 59 73.5t64 72.5zM67 439q44 63 86 89t87 28q22 1 32.5 -7t18 -17.5t15.5 -18.5t23 -10q11 -1 20.5 7.5t17.5 18.5q9 11 16 27h53q-23 -36 -49 -64q-11 -12 -24.5 -23.5t-28 -20.5t-30.5 -14t-32 -4q-25 1 -37 10t-19.5 19t-15 18.5t-23.5 8.5q-14 0 -25.5 -7.5
t-20.5 -16.5q-11 -11 -19 -23h-45z" />
    <glyph glyph-name="Imacron" unicode="&#x12a;" horiz-adv-x="638" 
d="M581 253q-45 -58 -97 -105t-106 -80t-108 -51t-103 -18q-17 0 -32.5 1.5t-32.5 6.5q-94 28 -99 98q-2 40 30.5 79t91.5 61q2 -35 27.5 -53t68.5 -18q25 0 57.5 7.5t68 24t72 44t69.5 66.5q37 43 65 85.5t45.5 79.5t23.5 66t-1 46q-9 19 -35 19q-38 0 -77 -18t-71 -47
t-52.5 -66t-21.5 -75q-1 -25 10 -39.5t30 -15.5q13 -2 30.5 4.5t46.5 20.5q-15 -38 -35 -65t-42 -44t-45 -24.5t-44 -5.5q-26 2 -44.5 17t-27.5 39q-14 38 -2 84.5t50 95.5q26 34 61 65.5t77 56t89.5 39.5t98.5 15q62 0 85 -44q13 -28 8.5 -70.5t-22.5 -91t-46 -98
t-61 -92.5zM550 775h279l-48 -75h-279z" />
    <glyph glyph-name="imacron" unicode="&#x12b;" horiz-adv-x="257" 
d="M238 353q-5 -6 -14.5 -16t-19 -21t-18 -20t-10.5 -12q-21 -26 -41.5 -53t-35 -50t-19.5 -40t4 -24t29 -2.5t44.5 17.5t51 32t48.5 42q13 13 24 15t16 -4t2.5 -17.5t-15.5 -23.5q-31 -31 -74.5 -67t-87.5 -63.5t-84 -40.5t-64 2q-17 10 -26 27.5t-7 42.5t15.5 57t42.5 72
q29 39 59 73.5t64 72.5zM132 514h279l-48 -75h-279z" />
    <glyph glyph-name="Iogonek" unicode="&#x12e;" horiz-adv-x="638" 
d="M298 26q-27 -18 -56 -41t-51 -46.5t-31 -45t3 -35.5q8 -11 23 -9.5t29 8.5q17 7 35 21l30 -23q-38 -33 -74 -53q-15 -9 -31.5 -15.5t-33 -9t-31.5 0.5t-27 14q-19 16 -15.5 41t21.5 53.5t47 58t61 55.5q-8 0 -15 -0.5t-15 -0.5q-17 0 -32.5 1.5t-32.5 6.5q-94 28 -99 98
q-2 40 30.5 79t91.5 61q2 -35 27.5 -53t68.5 -18q25 0 57.5 7.5t68 24t72 44t69.5 66.5q37 43 65 85.5t45.5 79.5t23.5 66t-1 46q-9 19 -35 19q-38 0 -77 -18t-71 -47t-52.5 -66t-21.5 -75q-1 -25 10 -39.5t30 -15.5q13 -2 30.5 4.5t46.5 20.5q-15 -38 -35 -65t-42 -44
t-45 -24.5t-44 -5.5q-26 2 -44.5 17t-27.5 39q-14 38 -2 84.5t50 95.5q26 34 61 65.5t77 56t89.5 39.5t98.5 15q62 0 85 -44q13 -28 8.5 -70.5t-22.5 -91t-46 -98t-61 -92.5q-61 -78 -133 -135.5t-144 -87.5q-1 0 -1 -1l-5 -3v0z" />
    <glyph glyph-name="iogonek" unicode="&#x12f;" horiz-adv-x="257" 
d="M223 337q-5 -6 -12 -13.5t-14 -15.5t-13 -14.5t-8 -9.5q-21 -26 -41.5 -53t-35 -50t-19.5 -40t4 -24t29 -2.5t44.5 17.5t51 32t48.5 42q13 13 24 15t16 -4t2.5 -17.5t-15.5 -23.5q-19 -19 -43 -40.5t-50.5 -42t-54.5 -39t-54 -31.5q-26 -18 -52.5 -40t-45.5 -44t-27 -42
t4 -33q8 -11 23 -9.5t29 8.5q17 7 35 21l30 -23q-38 -33 -74 -53q-15 -9 -31.5 -15.5t-33 -9t-31.5 0.5t-27 14q-18 16 -15.5 40t19.5 51.5t44.5 56.5t59.5 55q-7 1 -15 6q-17 10 -26 27.5t-7 42.5t15.5 57t42.5 72q15 19 33.5 42t39 46.5t40.5 46t37 41.5q9 -17 29 -30.5
t45 -14.5zM302 432q0 -29 -20.5 -48.5t-48.5 -19.5q-29 0 -48.5 19.5t-19.5 48.5t19.5 48.5t48.5 19.5q28 0 48.5 -19.5t20.5 -48.5z" />
    <glyph glyph-name="Idotaccent" unicode="&#x130;" horiz-adv-x="638" 
d="M581 253q-45 -58 -97 -105t-106 -80t-108 -51t-103 -18q-17 0 -32.5 1.5t-32.5 6.5q-94 28 -99 98q-2 40 30.5 79t91.5 61q2 -35 27.5 -53t68.5 -18q25 0 57.5 7.5t68 24t72 44t69.5 66.5q37 43 65 85.5t45.5 79.5t23.5 66t-1 46q-9 19 -35 19q-38 0 -77 -18t-71 -47
t-52.5 -66t-21.5 -75q-1 -25 10 -39.5t30 -15.5q13 -2 30.5 4.5t46.5 20.5q-15 -38 -35 -65t-42 -44t-45 -24.5t-44 -5.5q-26 2 -44.5 17t-27.5 39q-14 38 -2 84.5t50 95.5q26 34 61 65.5t77 56t89.5 39.5t98.5 15q62 0 85 -44q13 -28 8.5 -70.5t-22.5 -91t-46 -98
t-61 -92.5zM615 743q0 29 20 48.5t48 19.5q29 0 48.5 -19.5t19.5 -48.5t-19.5 -48.5t-48.5 -19.5q-28 0 -48 19.5t-20 48.5z" />
    <glyph glyph-name="dotlessi" unicode="&#x131;" horiz-adv-x="257" 
d="M238 353q-5 -6 -14.5 -16t-19 -21t-18 -20t-10.5 -12q-21 -26 -41.5 -53t-35 -50t-19.5 -40t4 -24t29 -2.5t44.5 17.5t51 32t48.5 42q13 13 24 15t16 -4t2.5 -17.5t-15.5 -23.5q-31 -31 -74.5 -67t-87.5 -63.5t-84 -40.5t-64 2q-17 10 -26 27.5t-7 42.5t15.5 57t42.5 72
q29 39 59 73.5t64 72.5z" />
    <glyph glyph-name="Jcircumflex" unicode="&#x134;" horiz-adv-x="620" 
d="M700 242q-26 3 -48.5 2t-44.5 -5t-46 -11t-53 -16q-7 -8 -13.5 -16.5t-14.5 -16.5q-46 -55 -97 -106t-102 -93q-69 -57 -129.5 -87.5t-101.5 -30.5q-36 0 -46 27q-5 15 3 37t29.5 49t57.5 59t88 66q38 25 80 49t87 47q-33 6 -52 37q-41 64 2 138q17 32 46.5 63t64.5 58.5
t73.5 50t73 39t63.5 25.5t45 9q17 0 20 -8q10 -18 6 -50.5t-21 -76t-45.5 -95t-67.5 -107.5q4 2 20 7.5t37 11t45 11t44.5 7t34.5 -1.5t17 -13t-11 -23t-44 -36zM433 338q0 -49 60 -50q33 46 62 93t50 88q13 25 19.5 41.5t9.5 27t3 15t-1 6.5h-4q-28 0 -62.5 -23t-65 -57
t-51 -72t-20.5 -69zM710 800h67l33 -141h-117l-8 68l-112 -68h-81zM160 2q15 0 39.5 10.5t55.5 27.5q71 40 153 137q-62 -25 -117.5 -55.5t-92.5 -57.5q-32 -25 -41.5 -38.5t-7.5 -18.5q1 -2 5 -3.5t6 -1.5z" />
    <glyph glyph-name="jcircumflex" unicode="&#x135;" horiz-adv-x="244" 
d="M276 395q-8 -9 -34.5 -43.5t-64 -82.5t-82 -105t-87.5 -112q38 14 73 33t65 40t55 42t43 39q13 13 24 15t16 -4t2.5 -17.5t-15.5 -23.5q-69 -69 -144 -115.5t-165 -66.5q-42 -53 -81 -91.5t-76 -52.5q-19 -8 -37 -7.5t-33 6.5t-24.5 16.5t-12.5 23.5q-5 21 4 38.5t26 29
t41 17.5t51 5q14 17 35.5 44t47 59.5t54 68t55.5 70.5q64 81 137 174h127zM301 586h67l33 -141h-117l-8 68l-112 -68h-81zM-254 -100q3 -8 10.5 -10t17.5 2.5t19.5 14.5t15.5 27q-25 1 -45.5 -10t-17.5 -24z" />
    <glyph glyph-name="uni0136" unicode="&#x136;" horiz-adv-x="830" 
d="M826 150q-18 -33 -47 -62.5t-63.5 -51.5t-72.5 -35t-72 -13q-46 0 -76 24q-41 33 -41 86q1 22 10.5 47t26.5 49.5t40.5 48t52.5 43.5q27 19 41 36t10 29q-2 8 -10.5 10.5t-20.5 2.5q-31 0 -67 -22q-12 -10 -24 -19.5t-23 -20.5q-24 -38 -51.5 -75.5t-61.5 -75.5
q-63 -72 -130 -111t-127 -39q-42 0 -77 20q-21 13 -31.5 33.5t-8.5 44.5q3 32 27.5 58.5t64.5 41.5h3l1 -1q21 -11 41.5 -17.5t41.5 -6.5q35 0 70 17t70.5 46t72.5 67.5t76 80.5q48 52 102 107.5t116 103.5l3 -2l2 -4q-54 -58 -92 -114t-72 -111q65 53 135.5 103t144.5 88.5
t149.5 61.5t150.5 23h24q29 -2 43.5 -7.5t18.5 -15.5q2 -12 -10.5 -26t-41.5 -31l-1 -1l-1 1q-23 4 -45.5 6.5t-45.5 2.5q-102 0 -213.5 -44t-229.5 -130q2 0 4.5 0.5t4.5 0.5q33 0 57.5 -12t38.5 -35q16 -29 11 -65t-29 -76q-32 -54 -14 -88q11 -20 39 -20q21 0 47.5 14
t52.5 39zM264 -114q0 36 24.5 61t59.5 24q46 -1 64.5 -29t5 -67.5t-62.5 -82.5t-139 -74l-29 36q33 18 49.5 34t22.5 31.5t5.5 32t-0.5 34.5zM384 541q-18 0 -33 -8l-18 -7l12 14q18 23 36 37.5t36.5 22t37 10t35.5 2.5q13 0 25.5 -1.5t25.5 -2.5q12 -1 24 -1.5t25 -0.5
q52 0 84 22l33 24l-27 -31q-93 -105 -173 -105q-20 0 -37 4t-33 9q-14 5 -26.5 8.5t-26.5 3.5z" />
    <glyph glyph-name="uni0137" unicode="&#x137;" horiz-adv-x="424" 
d="M369 526l-186 -232q38 29 78.5 49.5t77.5 20.5q22 0 36 -9t19 -23.5t1 -32.5t-17 -36q-29 -38 -73 -62t-103 -41q-20 -5 -30 -12.5t-2 -25.5q6 -16 23 -23.5t39 -4.5q15 2 37 10t47.5 22t53.5 34t54 46q14 14 25.5 17t17 -2.5t2.5 -17.5t-18 -27q-35 -35 -72.5 -67
t-76 -56t-77.5 -38.5t-76 -14.5q-47 0 -74.5 33t-25.5 84q-29 -32 -52.5 -60t-36.5 -43l-12 -14h-114l423 526h112zM-96 -140q0 18 6.5 33.5t18 27t26.5 18t33 6.5q46 -1 64.5 -29t5 -67.5t-62.5 -82.5t-139 -74l-30 35q33 18 49.5 34t23 32t6 32t-0.5 35zM191 247
q-18 -12 -37.5 -28t-39.5 -36q27 2 54.5 9t53.5 22q22 12 29.5 25.5t3 21t-20.5 6t-43 -19.5z" />
    <glyph glyph-name="kgreenlandic" unicode="&#x138;" horiz-adv-x="424" 
d="M240 366l-59 -73q39 29 80 50t78 21q22 0 36 -9t19 -23.5t1 -32.5t-17 -36q-29 -38 -73 -62t-103 -41q-20 -5 -30 -12.5t-2 -25.5q6 -16 23 -23.5t39 -4.5q15 2 37 10t47.5 22t53.5 34t54 46q14 14 25.5 17t17 -2.5t2.5 -17.5t-18 -27q-35 -35 -72.5 -67t-76 -56
t-77.5 -38.5t-76 -14.5q-47 0 -74.5 33t-25.5 84q-30 -32 -53.5 -60t-36.5 -43l-11 -14h-114l293 366h113zM191 247q-18 -12 -37.5 -28t-39.5 -36q27 2 54.5 9t53.5 22q22 12 29.5 25.5t3 21t-20.5 6t-43 -19.5z" />
    <glyph glyph-name="Lacute" unicode="&#x139;" horiz-adv-x="905" 
d="M740 204q39 0 66 -19t29 -51q2 -18 -6 -38t-28 -39.5t-52 -36t-77 -26.5q-34 -7 -74 -7q-52 0 -102.5 12t-99.5 26q-19 5 -37.5 10.5t-35.5 9.5q-19 -8 -38 -15.5t-38 -14.5q-65 -20 -113.5 -30t-80.5 -10q-29 0 -39 7.5t-11 15.5q-2 10 7 23t25.5 25.5t38.5 23.5t46 18
q29 8 56.5 12.5t57.5 4.5q14 0 28.5 -1.5t30.5 -3.5q38 33 75.5 80t77.5 99l5 9q-27 -4 -54 -7t-52 -3q-64 0 -112 16t-73 43q-22 27 -19 57q3 18 13 31.5t24.5 22.5t32 13.5t34.5 4.5q12 0 24.5 -2.5t23.5 -6.5l10 -4l-10 -4q-24 -11 -35 -29t-7 -37q3 -12 12 -23.5
t26 -20.5t42.5 -14.5t60.5 -5.5q20 0 42.5 2.5t47.5 7.5q36 47 76.5 94.5t87 90t100.5 76t118 51.5q39 12 66 12q26 0 35.5 -9t11.5 -19q4 -22 -18.5 -58t-66.5 -76.5t-108 -81t-143 -70.5q-23 -33 -49 -67t-57 -67t-66.5 -64t-77.5 -57q12 -5 22 -6q35 -8 67.5 -14t62.5 -6
q41 0 77 17q17 10 28 25.5t9 32.5q-2 22 -24 33l-10 3l10 5q27 14 54.5 22t52.5 8zM861 697l-28 29l180 112l79 -93zM675 391q43 25 80 55.5t64 59.5t41.5 52t12.5 32l-1 1q-2 2 -5 2q-8 0 -19 -5q-43 -17 -81.5 -66.5t-80.5 -114.5zM234 61q-6 0 -12 0.5t-12 0.5
q-45 0 -84 -15q-32 -11 -41 -17q-5 -4 -7 -6q0 -4 18 -4q23 0 61 10t77 31z" />
    <glyph glyph-name="lacute" unicode="&#x13a;" horiz-adv-x="257" 
d="M411 526q-13 -9 -33.5 -27.5t-43.5 -42t-47.5 -49.5t-46 -49.5t-39 -43.5t-25.5 -30q-21 -26 -41.5 -53t-35 -50t-19.5 -40t4 -24t29 -2.5t44.5 17.5t50.5 32t49 42q13 13 24 15t15.5 -4t2 -17.5t-14.5 -23.5q-31 -31 -74.5 -67t-87.5 -63.5t-84 -40.5t-64 2
q-17 10 -26 27.5t-7 42.5t15.5 57t42.5 72q25 35 54.5 70.5t60 69.5t60 64.5t54 54.5t42 40t24.5 21h117zM336 562l-28 29l180 112l79 -93z" />
    <glyph glyph-name="uni013B" unicode="&#x13b;" horiz-adv-x="905" 
d="M740 204q39 0 66 -19t29 -51q2 -18 -6 -38t-28 -39.5t-52 -36t-77 -26.5q-34 -7 -74 -7q-52 0 -102.5 12t-99.5 26q-19 5 -37.5 10.5t-35.5 9.5q-19 -8 -38 -15.5t-38 -14.5q-65 -20 -113.5 -30t-80.5 -10q-29 0 -39 7.5t-11 15.5q-2 10 7 23t25.5 25.5t38.5 23.5t46 18
q29 8 56.5 12.5t57.5 4.5q14 0 28.5 -1.5t30.5 -3.5q38 33 75.5 80t77.5 99l5 9q-27 -4 -54 -7t-52 -3q-64 0 -112 16t-73 43q-22 27 -19 57q3 18 13 31.5t24.5 22.5t32 13.5t34.5 4.5q12 0 24.5 -2.5t23.5 -6.5l10 -4l-10 -4q-24 -11 -35 -29t-7 -37q3 -12 12 -23.5
t26 -20.5t42.5 -14.5t60.5 -5.5q20 0 42.5 2.5t47.5 7.5q36 47 76.5 94.5t87 90t100.5 76t118 51.5q39 12 66 12q26 0 35.5 -9t11.5 -19q4 -22 -18.5 -58t-66.5 -76.5t-108 -81t-143 -70.5q-23 -33 -49 -67t-57 -67t-66.5 -64t-77.5 -57q12 -5 22 -6q35 -8 67.5 -14t62.5 -6
q41 0 77 17q17 10 28 25.5t9 32.5q-2 22 -24 33l-10 3l10 5q27 14 54.5 22t52.5 8zM274 -134q0 36 24.5 61t59.5 24q46 -1 64.5 -29t5 -67.5t-62.5 -82.5t-139 -74l-29 36q33 18 49.5 34t22.5 31.5t5.5 32t-0.5 34.5zM675 391q43 25 80 55.5t64 59.5t41.5 52t12.5 32l-1 1
q-2 2 -5 2q-8 0 -19 -5q-43 -17 -81.5 -66.5t-80.5 -114.5zM234 61q-6 0 -12 0.5t-12 0.5q-45 0 -84 -15q-32 -11 -41 -17q-5 -4 -7 -6q0 -4 18 -4q23 0 61 10t77 31z" />
    <glyph glyph-name="uni013C" unicode="&#x13c;" horiz-adv-x="257" 
d="M411 526q-13 -9 -33.5 -27.5t-43.5 -42t-47.5 -49.5t-46 -49.5t-39 -43.5t-25.5 -30q-21 -26 -41.5 -53t-35 -50t-19.5 -40t4 -24t29 -2.5t44.5 17.5t50.5 32t49 42q13 13 24 15t15.5 -4t2 -17.5t-14.5 -23.5q-31 -31 -74.5 -67t-87.5 -63.5t-84 -40.5t-64 2
q-17 10 -26 27.5t-7 42.5t15.5 57t42.5 72q25 35 54.5 70.5t60 69.5t60 64.5t54 54.5t42 40t24.5 21h117zM-176 -148q0 18 6.5 33.5t18 27t26.5 18t33 6.5q46 -1 64.5 -29t5 -67.5t-62.5 -82.5t-139 -74l-30 35q33 18 49.5 34t23 32t6 32t-0.5 35z" />
    <glyph glyph-name="Lcaron" unicode="&#x13d;" horiz-adv-x="905" 
d="M740 204q39 0 66 -19t29 -51q2 -18 -6 -38t-28 -39.5t-52 -36t-77 -26.5q-34 -7 -74 -7q-52 0 -102.5 12t-99.5 26q-19 5 -37.5 10.5t-35.5 9.5q-19 -8 -38 -15.5t-38 -14.5q-65 -20 -113.5 -30t-80.5 -10q-29 0 -39 7.5t-11 15.5q-2 10 7 23t25.5 25.5t38.5 23.5t46 18
q29 8 56.5 12.5t57.5 4.5q14 0 28.5 -1.5t30.5 -3.5q38 33 75.5 80t77.5 99l5 9q-27 -4 -54 -7t-52 -3q-64 0 -112 16t-73 43q-22 27 -19 57q3 18 13 31.5t24.5 22.5t32 13.5t34.5 4.5q12 0 24.5 -2.5t23.5 -6.5l10 -4l-10 -4q-24 -11 -35 -29t-7 -37q3 -12 12 -23.5
t26 -20.5t42.5 -14.5t60.5 -5.5q20 0 42.5 2.5t47.5 7.5q36 47 76.5 94.5t87 90t100.5 76t118 51.5q39 12 66 12q26 0 35.5 -9t11.5 -19q4 -22 -18.5 -58t-66.5 -76.5t-108 -81t-143 -70.5q-23 -33 -49 -67t-57 -67t-66.5 -64t-77.5 -57q12 -5 22 -6q35 -8 67.5 -14t62.5 -6
q41 0 77 17q17 10 28 25.5t9 32.5q-2 22 -24 33l-10 3l10 5q27 14 54.5 22t52.5 8zM1053 641q0 18 6.5 33.5t18 27t26.5 18t33 6.5q46 -1 64.5 -29t5 -67.5t-62.5 -82.5t-139 -74l-29 35q33 18 49 34t22.5 32t6 32t-0.5 35zM675 391q43 25 80 55.5t64 59.5t41.5 52t12.5 32
l-1 1q-2 2 -5 2q-8 0 -19 -5q-43 -17 -81.5 -66.5t-80.5 -114.5zM234 61q-6 0 -12 0.5t-12 0.5q-45 0 -84 -15q-32 -11 -41 -17q-5 -4 -7 -6q0 -4 18 -4q23 0 61 10t77 31z" />
    <glyph glyph-name="lcaron" unicode="&#x13e;" horiz-adv-x="453" 
d="M411 526q-13 -9 -33.5 -27.5t-43.5 -42t-47.5 -49.5t-46 -49.5t-39 -43.5t-25.5 -30q-21 -26 -41.5 -53t-35 -50t-19.5 -40t4 -24t29 -2.5t44.5 17.5t50.5 32t49 42q13 13 24 15t15.5 -4t2 -17.5t-14.5 -23.5q-31 -31 -74.5 -67t-87.5 -63.5t-84 -40.5t-64 2
q-17 10 -26 27.5t-7 42.5t15.5 57t42.5 72q25 35 54.5 70.5t60 69.5t60 64.5t54 54.5t42 40t24.5 21h117zM433 488q0 18 6.5 33.5t18 27t26.5 18t33 6.5q46 -1 64.5 -29t5 -67.5t-62.5 -82.5t-139 -74l-29 35q33 18 49 34t22.5 32t6 32t-0.5 35z" />
    <glyph glyph-name="Lslash" unicode="&#x141;" horiz-adv-x="905" 
d="M334 229l90 20q5 8 10.5 15t11.5 15l5 9q-27 -4 -54 -7t-52 -3q-64 0 -112 16t-73 43q-22 27 -19 57q3 18 13 31.5t24.5 22.5t32 13.5t34.5 4.5q12 0 24.5 -2.5t23.5 -6.5l10 -4l-10 -4q-24 -11 -35 -29t-7 -37q3 -12 12 -23.5t26 -20.5t42.5 -14.5t60.5 -5.5
q20 0 42.5 2.5t47.5 7.5q36 47 76.5 94.5t87 90t100.5 76t118 51.5q39 12 66 12q26 0 35.5 -9t11.5 -19q4 -22 -18.5 -58t-66.5 -76.5t-108 -81t-143 -70.5l-34 -47l96 22l-48 -75l-113 -26q-32 -35 -69 -68t-82 -61q12 -5 22 -6q35 -8 67.5 -14t62.5 -6q41 0 77 17
q17 10 28 25.5t9 32.5q-2 22 -24 33l-10 3l10 5q27 14 54.5 22t52.5 8q39 0 66 -19t29 -51q2 -18 -6 -38t-28 -39.5t-52 -36t-77 -26.5q-34 -7 -74 -7q-52 0 -102.5 12t-99.5 26q-19 5 -37.5 10.5t-35.5 9.5q-19 -8 -38 -15.5t-38 -14.5q-65 -20 -113.5 -30t-80.5 -10
q-29 0 -39 7.5t-11 15.5q-2 10 7 23t25.5 25.5t38.5 23.5t46 18q29 8 56.5 12.5t57.5 4.5q14 0 28.5 -1.5t30.5 -3.5q17 15 34 33t34 38l-75 -17zM675 391q43 25 80 55.5t64 59.5t41.5 52t12.5 32l-1 1q-2 2 -5 2q-8 0 -19 -5q-43 -17 -81.5 -66.5t-80.5 -114.5zM234 61
q-6 0 -12 0.5t-12 0.5q-45 0 -84 -15q-32 -11 -41 -17q-5 -4 -7 -6q0 -4 18 -4q23 0 61 10t77 31z" />
    <glyph glyph-name="lslash" unicode="&#x142;" horiz-adv-x="257" 
d="M411 526q-9 -6 -21.5 -17t-27.5 -25l77 24l-48 -75l-113 -35q-34 -36 -62 -67.5t-40 -46.5q-21 -26 -41.5 -53t-35 -50t-19.5 -40t4 -24t29 -2.5t44.5 17.5t50.5 32t49 42q13 13 24 15t15.5 -4t2 -17.5t-14.5 -23.5q-31 -31 -74.5 -67t-87.5 -63.5t-84 -40.5t-64 2
q-17 10 -26 27.5t-7 42.5t15.5 57t42.5 72q26 35 55.5 71.5t60.5 70.5l-114 -35l48 75l146 45q36 36 63 61t36 32h117v0z" />
    <glyph glyph-name="Nacute" unicode="&#x143;" horiz-adv-x="807" 
d="M280 504q-11 0 -21.5 -1t-21.5 -4l-20 -5l16 13q32 27 61 43.5t54.5 24.5t47.5 10.5t40 2.5q19 0 36.5 -1.5t35.5 -3.5q17 -2 33.5 -3t33.5 -1q20 0 38 2.5t35 8.5l21 6l-15 -14q-56 -51 -106.5 -75.5t-103.5 -24.5q-23 0 -44.5 3.5t-41.5 8.5q-20 4 -39 7t-39 3z
M679 565q-75 -94 -129.5 -169.5t-96.5 -135.5q-39 -56 -71 -99.5t-63 -76.5t-64 -55.5t-75 -35.5q-17 -5 -33 -8.5t-31 -3.5q-41 0 -70 19.5t-39 52.5q-5 14 -4.5 31.5t8 36.5t22.5 37.5t40 35.5l2 2l4 -2q27 -20 66 -20q45 0 96 26.5t102 66.5t100.5 88t92.5 92
q42 43 77.5 77t60.5 48l21 11zM1181 572q-54 1 -124.5 -32.5t-146 -96.5t-150 -151.5t-136.5 -197.5q-12 -24 -31.5 -47t-51.5 -49l4 14q15 51 19 101t6 100q2 49 5.5 97t18 95t44 92.5t83.5 90.5l13 13l-6 -18q-23 -60 -32 -120t-14 -120q-2 -33 -5.5 -64.5t-9.5 -61.5
q57 87 118 160t122.5 128t121.5 89.5t115 45.5q13 2 30.5 1.5t27.5 -14.5q8 -20 -21 -55zM808 633l-28 29l180 112l79 -93z" />
    <glyph glyph-name="nacute" unicode="&#x144;" horiz-adv-x="425" 
d="M237 364l-59 -75q39 31 81.5 53t80.5 22q22 0 36 -9t19 -23.5t1 -32.5t-18 -36q-15 -20 -39.5 -40t-45.5 -39t-32 -35.5t1 -29.5q7 -8 23.5 -5t38.5 14.5t48 31.5t53 46q14 14 25 16t15.5 -4t1.5 -17.5t-15 -24.5q-35 -35 -74 -67t-77.5 -56t-74.5 -38.5t-64 -14.5
q-24 0 -40.5 8t-24.5 21.5t-8 30.5t8 36q6 15 20.5 31.5t33 33.5t38 33.5t36.5 31.5q16 13 21 23.5t0.5 15t-18.5 1t-36 -18.5q-31 -21 -66.5 -54t-68 -68t-59 -66t-39.5 -47l-10 -12h-115l291 364h112zM256 422l-28 29l180 112l79 -93z" />
    <glyph glyph-name="uni0145" unicode="&#x145;" horiz-adv-x="807" 
d="M280 504q-11 0 -21.5 -1t-21.5 -4l-20 -5l16 13q32 27 61 43.5t54.5 24.5t47.5 10.5t40 2.5q19 0 36.5 -1.5t35.5 -3.5q17 -2 33.5 -3t33.5 -1q20 0 38 2.5t35 8.5l21 6l-15 -14q-56 -51 -106.5 -75.5t-103.5 -24.5q-23 0 -44.5 3.5t-41.5 8.5q-20 4 -39 7t-39 3z
M679 565q-75 -94 -129.5 -169.5t-96.5 -135.5q-39 -56 -71 -99.5t-63 -76.5t-64 -55.5t-75 -35.5q-17 -5 -33 -8.5t-31 -3.5q-41 0 -70 19.5t-39 52.5q-5 14 -4.5 31.5t8 36.5t22.5 37.5t40 35.5l2 2l4 -2q27 -20 66 -20q45 0 96 26.5t102 66.5t100.5 88t92.5 92
q42 43 77.5 77t60.5 48l21 11zM1181 572q-54 1 -124.5 -32.5t-146 -96.5t-150 -151.5t-136.5 -197.5q-12 -24 -31.5 -47t-51.5 -49l4 14q15 51 19 101t6 100q2 49 5.5 97t18 95t44 92.5t83.5 90.5l13 13l-6 -18q-23 -60 -32 -120t-14 -120q-2 -33 -5.5 -64.5t-9.5 -61.5
q57 87 118 160t122.5 128t121.5 89.5t115 45.5q13 2 30.5 1.5t27.5 -14.5q8 -20 -21 -55zM254 -124q0 36 24.5 61t59.5 24q46 -1 64.5 -29t5 -67.5t-62.5 -82.5t-139 -74l-29 36q33 18 49.5 34t22.5 31.5t5.5 32t-0.5 34.5z" />
    <glyph glyph-name="uni0146" unicode="&#x146;" horiz-adv-x="425" 
d="M237 364l-59 -75q39 31 81.5 53t80.5 22q22 0 36 -9t19 -23.5t1 -32.5t-18 -36q-15 -20 -39.5 -40t-45.5 -39t-32 -35.5t1 -29.5q7 -8 23.5 -5t38.5 14.5t48 31.5t53 46q14 14 25 16t15.5 -4t1.5 -17.5t-15 -24.5q-35 -35 -74 -67t-77.5 -56t-74.5 -38.5t-64 -14.5
q-24 0 -40.5 8t-24.5 21.5t-8 30.5t8 36q6 15 20.5 31.5t33 33.5t38 33.5t36.5 31.5q16 13 21 23.5t0.5 15t-18.5 1t-36 -18.5q-31 -21 -66.5 -54t-68 -68t-59 -66t-39.5 -47l-10 -12h-115l291 364h112zM-96 -148q0 18 6.5 33.5t18 27t26.5 18t33 6.5q46 -1 64.5 -29
t5 -67.5t-62.5 -82.5t-139 -74l-30 35q33 18 49.5 34t23 32t6 32t-0.5 35z" />
    <glyph glyph-name="Ncaron" unicode="&#x147;" horiz-adv-x="807" 
d="M280 504q-11 0 -21.5 -1t-21.5 -4l-20 -5l16 13q32 27 61 43.5t54.5 24.5t47.5 10.5t40 2.5q19 0 36.5 -1.5t35.5 -3.5q17 -2 33.5 -3t33.5 -1q20 0 38 2.5t35 8.5l21 6l-15 -14q-56 -51 -106.5 -75.5t-103.5 -24.5q-23 0 -44.5 3.5t-41.5 8.5q-20 4 -39 7t-39 3z
M679 565q-75 -94 -129.5 -169.5t-96.5 -135.5q-39 -56 -71 -99.5t-63 -76.5t-64 -55.5t-75 -35.5q-17 -5 -33 -8.5t-31 -3.5q-41 0 -70 19.5t-39 52.5q-5 14 -4.5 31.5t8 36.5t22.5 37.5t40 35.5l2 2l4 -2q27 -20 66 -20q45 0 96 26.5t102 66.5t100.5 88t92.5 92
q42 43 77.5 77t60.5 48l21 11zM1181 572q-54 1 -124.5 -32.5t-146 -96.5t-150 -151.5t-136.5 -197.5q-12 -24 -31.5 -47t-51.5 -49l4 14q15 51 19 101t6 100q2 49 5.5 97t18 95t44 92.5t83.5 90.5l13 13l-6 -18q-23 -60 -32 -120t-14 -120q-2 -33 -5.5 -64.5t-9.5 -61.5
q57 87 118 160t122.5 128t121.5 89.5t115 45.5q13 2 30.5 1.5t27.5 -14.5q8 -20 -21 -55zM876 626h-67l-33 141h117l8 -68l112 68h81z" />
    <glyph glyph-name="ncaron" unicode="&#x148;" horiz-adv-x="425" 
d="M237 364l-59 -75q39 31 81.5 53t80.5 22q22 0 36 -9t19 -23.5t1 -32.5t-18 -36q-15 -20 -39.5 -40t-45.5 -39t-32 -35.5t1 -29.5q7 -8 23.5 -5t38.5 14.5t48 31.5t53 46q14 14 25 16t15.5 -4t1.5 -17.5t-15 -24.5q-35 -35 -74 -67t-77.5 -56t-74.5 -38.5t-64 -14.5
q-24 0 -40.5 8t-24.5 21.5t-8 30.5t8 36q6 15 20.5 31.5t33 33.5t38 33.5t36.5 31.5q16 13 21 23.5t0.5 15t-18.5 1t-36 -18.5q-31 -21 -66.5 -54t-68 -68t-59 -66t-39.5 -47l-10 -12h-115l291 364h112zM344 429h-67l-33 141h117l8 -68l112 68h81z" />
    <glyph glyph-name="Eng" unicode="&#x14a;" horiz-adv-x="823" 
d="M1170 572q-38 5 -86 -16t-102 -62t-112.5 -99t-117 -127t-116.5 -146.5t-111 -156.5q-30 -46 -68 -90t-82 -73t-93.5 -37.5t-102.5 17.5l-9 17q28 4 66 20t87 51t108.5 94.5t130.5 150.5q3 25 4 49t2 49q2 49 5.5 97t18 95t44 92.5t83.5 90.5l13 13l-6 -18
q-23 -60 -32 -120t-14 -120q-2 -33 -5.5 -64.5t-9.5 -61.5q57 87 118 160t122.5 128t121.5 89.5t115 45.5q6 1 12.5 1h11.5q25 0 34 -14q8 -20 -20 -53l-1 -2h-9zM677 565q-75 -94 -129.5 -169.5t-96.5 -135.5q-39 -56 -71 -99.5t-63 -76.5t-64 -55.5t-75 -35.5
q-17 -5 -33 -8.5t-31 -3.5q-41 0 -70 19.5t-39 52.5q-5 14 -4.5 31.5t8 36.5t22.5 37.5t40 35.5l2 2l4 -2q27 -20 66 -20q45 0 96 26.5t102 66.5t100.5 88t92.5 92q42 43 77.5 77t60.5 48l21 11zM278 504q-11 0 -21.5 -1t-21.5 -4l-20 -5l16 13q32 27 61 43.5t54.5 24.5
t47.5 10.5t40 2.5q19 0 36.5 -1.5t35.5 -3.5q17 -2 33.5 -3t33.5 -1q20 0 38 2.5t35 8.5l21 6l-15 -14q-56 -51 -106.5 -75.5t-103.5 -24.5q-23 0 -44.5 3.5t-41.5 8.5q-20 4 -39 7t-39 3z" />
    <glyph glyph-name="eng" unicode="&#x14b;" horiz-adv-x="457" 
d="M218 52q39 14 74 33t66 40t56 42t43 39q13 13 24 15t16 -4t2.5 -17.5t-15.5 -23.5q-69 -69 -144 -115t-164 -67q-41 -54 -81 -92t-77 -52q-19 -8 -37 -7.5t-33 6.5t-25 16.5t-13 23.5q-4 21 4.5 38.5t26 29t41.5 17t51 4.5q68 67 110 115.5t63.5 81t27 51t0.5 26
t-17.5 5.5t-24.5 -10q-32 -21 -67.5 -54.5t-68.5 -69t-60.5 -67.5t-41.5 -50l-5 -6h-115l291 364h112l-60 -76q40 32 82.5 54t80.5 22q46 0 54.5 -27t-11 -71t-63 -100t-102.5 -114zM-41 -100q3 -8 10.5 -10t17.5 2.5t19.5 14.5t15.5 27q-12 0 -24 -3t-21.5 -7.5t-14.5 -11
t-3 -12.5z" />
    <glyph glyph-name="Omacron" unicode="&#x14c;" horiz-adv-x="677" 
d="M709 515q12 -44 -0.5 -98t-50.5 -113q-39 -63 -100 -121t-139 -108q-64 -40 -126 -60.5t-116 -20.5q-64 0 -109 27t-59 74q-14 43 1.5 102t58.5 125q28 45 71.5 92t98.5 88t120.5 71t139.5 39q11 1 23 1.5t23 0.5q66 0 108 -25.5t56 -73.5zM377 92q56 22 106.5 72
t86.5 111t54 123.5t10 108.5q-14 76 -96 76h-18.5t-19.5 -2q-53 -10 -100.5 -45t-84 -83t-59.5 -104t-27 -109q-4 -38 5.5 -70.5t30.5 -55.5q27 -29 69 -29q22 0 43 7zM481 765h279l-48 -75h-279z" />
    <glyph glyph-name="omacron" unicode="&#x14d;" horiz-adv-x="407" 
d="M249 398q60 12 88 -7.5t25 -67.5l-2 -16q18 -4 40.5 -3t45.5 4.5t44.5 10.5t37.5 15q20 10 25.5 9t0 -8.5t-20 -19.5t-35.5 -24q-34 -19 -75 -32.5t-81 -9.5q-20 -46 -55.5 -90.5t-77.5 -80t-86.5 -57t-81.5 -21.5q-23 0 -41.5 8.5t-29.5 24.5t-14 39.5t5 53.5
q12 44 44.5 89t74 83.5t87 65.5t82.5 34zM129 118q21 3 43.5 16.5t43 33.5t37.5 44t28 49q-24 11 -34.5 30.5t-7.5 39.5l-17 -8.5t-20 -11.5q-28 -17 -53 -41t-45 -60q-12 -22 -15.5 -40.5t0.5 -31t14.5 -18t25.5 -2.5zM229 535h279l-48 -75h-279z" />
    <glyph glyph-name="Ohungarumlaut" unicode="&#x150;" horiz-adv-x="677" 
d="M709 515q12 -44 -0.5 -98t-50.5 -113q-39 -63 -100 -121t-139 -108q-64 -40 -126 -60.5t-116 -20.5q-64 0 -109 27t-59 74q-14 43 1.5 102t58.5 125q28 45 71.5 92t98.5 88t120.5 71t139.5 39q11 1 23 1.5t23 0.5q66 0 108 -25.5t56 -73.5zM377 92q56 22 106.5 72
t86.5 111t54 123.5t10 108.5q-14 76 -96 76h-18.5t-19.5 -2q-53 -10 -100.5 -45t-84 -83t-59.5 -104t-27 -109q-4 -38 5.5 -70.5t30.5 -55.5q27 -29 69 -29q22 0 43 7zM449 635l-35 20l139 160l102 -65zM625 635l-35 20l139 160l102 -65z" />
    <glyph glyph-name="ohungarumlaut" unicode="&#x151;" horiz-adv-x="407" 
d="M249 398q60 12 88 -7.5t25 -67.5l-2 -16q18 -4 40.5 -3t45.5 4.5t44.5 10.5t37.5 15q20 10 25.5 9t0 -8.5t-20 -19.5t-35.5 -24q-34 -19 -75 -32.5t-81 -9.5q-20 -46 -55.5 -90.5t-77.5 -80t-86.5 -57t-81.5 -21.5q-23 0 -41.5 8.5t-29.5 24.5t-14 39.5t5 53.5
q12 44 44.5 89t74 83.5t87 65.5t82.5 34zM129 118q21 3 43.5 16.5t43 33.5t37.5 44t28 49q-24 11 -34.5 30.5t-7.5 39.5l-17 -8.5t-20 -11.5q-28 -17 -53 -41t-45 -60q-12 -22 -15.5 -40.5t0.5 -31t14.5 -18t25.5 -2.5zM212 442l-35 20l139 160l102 -65zM388 442l-35 20
l139 160l102 -65z" />
    <glyph glyph-name="OE" unicode="&#x152;" horiz-adv-x="995" 
d="M1006 172q-37 -59 -90.5 -102.5t-114.5 -72t-123.5 -42t-117.5 -13.5q-73 0 -124 21t-72 59q-2 5 -4 9t-4 9q-98 -46 -179 -46q-64 0 -109 27t-59 74q-14 43 1.5 102t58.5 125q28 45 71.5 92t98.5 88t120.5 71t139.5 39q11 1 23 1.5t23 0.5q53 0 91 -17t58 -49
q45 26 102.5 44.5t124.5 21.5h22q88 0 139 -31q23 -14 34.5 -31.5t11.5 -37.5q0 -33 -33 -59.5t-99 -26.5q-50 0 -104 16l-21 7l23 2q50 6 76.5 29t25.5 48q-1 20 -19 31.5t-50 11.5h-8.5t-8.5 -1q-35 -3 -64 -15.5t-49.5 -30t-31.5 -38t-10 -39.5q2 -30 31 -47.5t81 -17.5
h23l-20 -9q-130 -53 -209 -109.5t-96 -109.5q-12 -37 9 -70q17 -26 49 -40.5t76 -14.5q37 0 77 10.5t79 29.5t75.5 46t66.5 61zM591 430q3 17 14.5 35.5t29.5 36.5q0 2 -0.5 2.5t-0.5 2.5q-14 76 -96 76h-18.5t-19.5 -2q-53 -10 -100.5 -45t-84 -83t-59.5 -104t-27 -109
q-4 -38 5.5 -70.5t30.5 -55.5q27 -29 69 -29h8t8 1q2 19 9 38q12 30 37 57.5t56.5 51t67.5 43.5t69 35q7 13 12.5 25.5t10.5 25.5q-29 29 -21 68z" />
    <glyph glyph-name="oe" unicode="&#x153;" horiz-adv-x="585" 
d="M584 206q14 14 25.5 16.5t16.5 -3.5t2 -17.5t-16 -25.5q-85 -84 -166.5 -130t-153.5 -46q-38 0 -64 17t-34 49q-39 -30 -79 -48t-74 -18q-23 0 -41.5 8.5t-29.5 24.5t-14 39.5t5 53.5q12 44 44.5 89t74 83.5t87 65.5t82.5 34q55 11 83 -5t30 -54q35 23 68.5 34t59.5 11
q41 0 58.5 -25t2.5 -59q-10 -23 -32.5 -43.5t-55 -36.5t-72.5 -26t-85 -12q-11 -35 3 -59t58 -22q29 0 59.5 9.5t59 24.5t54 33.5t44.5 37.5zM129 118q19 3 39.5 15t40.5 30q5 10 10 21t13 22q25 39 55 71q16 48 -6.5 58.5t-78.5 -24.5q-28 -17 -53 -41t-45 -60
q-12 -22 -15.5 -40.5t0.5 -31t14.5 -18t25.5 -2.5zM320 215q29 4 60 21.5t51 36.5q17 16 22 27.5t0.5 16t-18.5 1t-35 -18.5q-21 -14 -42.5 -35t-33.5 -42z" />
    <glyph glyph-name="Racute" unicode="&#x154;" horiz-adv-x="879" 
d="M1026 573q6 -42 -34 -90q-20 -23 -51 -46.5t-74 -43.5t-96.5 -34t-117.5 -18q24 -9 36.5 -23.5t17.5 -32.5t4 -40t-4 -46q-6 -64 14 -87q16 -14 32 -14q21 0 46 14.5t53 41.5l8 -4q-29 -45 -59 -72.5t-57 -42.5t-50.5 -19.5t-39.5 -4.5q-40 0 -72.5 18t-47.5 50
q-28 60 17 118q36 45 50 71.5t8 40.5q-5 9 -21 14t-47 5q-46 -59 -92 -113t-93 -97t-96.5 -71.5t-101.5 -35.5q-18 -3 -34 -3q-48 0 -78 19t-40 54q-5 21 -3 42.5t10 41.5t22.5 37t33.5 29l3 1l2 -1q21 -16 43 -23.5t43 -7.5q32 0 64.5 14t66 38t68.5 55.5t72 66.5
q39 36 80.5 73.5t87 72t95.5 64.5t106 50t107 20q50 0 81.5 -21.5t37.5 -59.5zM850 612q-8 0 -15.5 -1.5t-16.5 -3.5q-29 -8 -59.5 -31t-62.5 -57t-65 -75t-67 -85q49 0 88.5 7t71 17.5t55 24t40.5 25.5q39 28 61.5 63t22.5 65q0 24 -14 37.5t-39 13.5zM343 537
q-29 0 -47 -17l-22 -17l15 24q21 33 44 52.5t47 30t47.5 13.5t44.5 3q19 0 37.5 -2t36.5 -4q17 -1 34.5 -2.5t32.5 -1.5q28 0 48.5 6.5t37.5 17.5l27 20l-20 -26q-50 -65 -99.5 -95.5t-104.5 -30.5q-26 0 -49.5 5t-43.5 11q-18 5 -34.5 9t-31.5 4zM853 681l-28 29l180 112
l79 -93z" />
    <glyph glyph-name="racute" unicode="&#x155;" horiz-adv-x="363" 
d="M46 254q-17 8 -23.5 23t-2 32t21.5 34.5t48 31.5q34 15 57.5 8.5t29.5 -23t-9.5 -37t-59.5 -31.5q19 -3 49 5t60.5 20.5t56 25.5t35.5 18l5 3h92q-12 -12 -34 -32.5t-47.5 -44.5t-51 -50t-44.5 -49.5t-27.5 -41.5t-0.5 -27q7 -8 23.5 -5t38.5 14.5t48 31.5t52 46
q15 14 25.5 16t15 -4t2 -17.5t-15.5 -24.5q-35 -35 -74 -67t-77.5 -56t-74.5 -38.5t-64 -14.5q-24 0 -39 11t-21.5 27.5t-5 37t10.5 38.5q16 35 55.5 76.5t85.5 79.5q-23 -10 -46 -16.5t-45 -7.5l-68 -70q-15 -15 -27 -18t-17 2.5t-1.5 18t18.5 27.5zM230 430l-28 29
l180 112l79 -93z" />
    <glyph glyph-name="uni0156" unicode="&#x156;" horiz-adv-x="879" 
d="M1026 573q6 -42 -34 -90q-20 -23 -51 -46.5t-74 -43.5t-96.5 -34t-117.5 -18q24 -9 36.5 -23.5t17.5 -32.5t4 -40t-4 -46q-6 -64 14 -87q16 -14 32 -14q21 0 46 14.5t53 41.5l8 -4q-29 -45 -59 -72.5t-57 -42.5t-50.5 -19.5t-39.5 -4.5q-40 0 -72.5 18t-47.5 50
q-28 60 17 118q36 45 50 71.5t8 40.5q-5 9 -21 14t-47 5q-46 -59 -92 -113t-93 -97t-96.5 -71.5t-101.5 -35.5q-18 -3 -34 -3q-48 0 -78 19t-40 54q-5 21 -3 42.5t10 41.5t22.5 37t33.5 29l3 1l2 -1q21 -16 43 -23.5t43 -7.5q32 0 64.5 14t66 38t68.5 55.5t72 66.5
q39 36 80.5 73.5t87 72t95.5 64.5t106 50t107 20q50 0 81.5 -21.5t37.5 -59.5zM850 612q-8 0 -15.5 -1.5t-16.5 -3.5q-29 -8 -59.5 -31t-62.5 -57t-65 -75t-67 -85q49 0 88.5 7t71 17.5t55 24t40.5 25.5q39 28 61.5 63t22.5 65q0 24 -14 37.5t-39 13.5zM343 537
q-29 0 -47 -17l-22 -17l15 24q21 33 44 52.5t47 30t47.5 13.5t44.5 3q19 0 37.5 -2t36.5 -4q17 -1 34.5 -2.5t32.5 -1.5q28 0 48.5 6.5t37.5 17.5l27 20l-20 -26q-50 -65 -99.5 -95.5t-104.5 -30.5q-26 0 -49.5 5t-43.5 11q-18 5 -34.5 9t-31.5 4zM284 -114q0 36 24.5 61
t59.5 24q46 -1 64.5 -29t5 -67.5t-62.5 -82.5t-139 -74l-29 36q33 18 49.5 34t22.5 31.5t5.5 32t-0.5 34.5z" />
    <glyph glyph-name="uni0157" unicode="&#x157;" horiz-adv-x="363" 
d="M46 254q-17 8 -23.5 23t-2 32t21.5 34.5t48 31.5q34 15 57.5 8.5t29.5 -23t-9.5 -37t-59.5 -31.5q19 -3 49 5t60.5 20.5t56 25.5t35.5 18l5 3h92q-12 -12 -34 -32.5t-47.5 -44.5t-51 -50t-44.5 -49.5t-27.5 -41.5t-0.5 -27q7 -8 23.5 -5t38.5 14.5t48 31.5t52 46
q15 14 25.5 16t15 -4t2 -17.5t-15.5 -24.5q-35 -35 -74 -67t-77.5 -56t-74.5 -38.5t-64 -14.5q-24 0 -39 11t-21.5 27.5t-5 37t10.5 38.5q16 35 55.5 76.5t85.5 79.5q-23 -10 -46 -16.5t-45 -7.5l-68 -70q-15 -15 -27 -18t-17 2.5t-1.5 18t18.5 27.5zM-96 -148
q0 18 6.5 33.5t18 27t26.5 18t33 6.5q46 -1 64.5 -29t5 -67.5t-62.5 -82.5t-139 -74l-30 35q33 18 49.5 34t23 32t6 32t-0.5 35z" />
    <glyph glyph-name="Rcaron" unicode="&#x158;" horiz-adv-x="879" 
d="M1026 573q6 -42 -34 -90q-20 -23 -51 -46.5t-74 -43.5t-96.5 -34t-117.5 -18q24 -9 36.5 -23.5t17.5 -32.5t4 -40t-4 -46q-6 -64 14 -87q16 -14 32 -14q21 0 46 14.5t53 41.5l8 -4q-29 -45 -59 -72.5t-57 -42.5t-50.5 -19.5t-39.5 -4.5q-40 0 -72.5 18t-47.5 50
q-28 60 17 118q36 45 50 71.5t8 40.5q-5 9 -21 14t-47 5q-46 -59 -92 -113t-93 -97t-96.5 -71.5t-101.5 -35.5q-18 -3 -34 -3q-48 0 -78 19t-40 54q-5 21 -3 42.5t10 41.5t22.5 37t33.5 29l3 1l2 -1q21 -16 43 -23.5t43 -7.5q32 0 64.5 14t66 38t68.5 55.5t72 66.5
q39 36 80.5 73.5t87 72t95.5 64.5t106 50t107 20q50 0 81.5 -21.5t37.5 -59.5zM850 612q-8 0 -15.5 -1.5t-16.5 -3.5q-29 -8 -59.5 -31t-62.5 -57t-65 -75t-67 -85q49 0 88.5 7t71 17.5t55 24t40.5 25.5q39 28 61.5 63t22.5 65q0 24 -14 37.5t-39 13.5zM343 537
q-29 0 -47 -17l-22 -17l15 24q21 33 44 52.5t47 30t47.5 13.5t44.5 3q19 0 37.5 -2t36.5 -4q17 -1 34.5 -2.5t32.5 -1.5q28 0 48.5 6.5t37.5 17.5l27 20l-20 -26q-50 -65 -99.5 -95.5t-104.5 -30.5q-26 0 -49.5 5t-43.5 11q-18 5 -34.5 9t-31.5 4zM888 682h-67l-33 141h117
l8 -68l112 68h81z" />
    <glyph glyph-name="rcaron" unicode="&#x159;" horiz-adv-x="363" 
d="M46 254q-17 8 -23.5 23t-2 32t21.5 34.5t48 31.5q34 15 57.5 8.5t29.5 -23t-9.5 -37t-59.5 -31.5q19 -3 49 5t60.5 20.5t56 25.5t35.5 18l5 3h92q-12 -12 -34 -32.5t-47.5 -44.5t-51 -50t-44.5 -49.5t-27.5 -41.5t-0.5 -27q7 -8 23.5 -5t38.5 14.5t48 31.5t52 46
q15 14 25.5 16t15 -4t2 -17.5t-15.5 -24.5q-35 -35 -74 -67t-77.5 -56t-74.5 -38.5t-64 -14.5q-24 0 -39 11t-21.5 27.5t-5 37t10.5 38.5q16 35 55.5 76.5t85.5 79.5q-23 -10 -46 -16.5t-45 -7.5l-68 -70q-15 -15 -27 -18t-17 2.5t-1.5 18t18.5 27.5zM296 425h-67l-33 141
h117l8 -68l112 68h81z" />
    <glyph glyph-name="Sacute" unicode="&#x15a;" horiz-adv-x="596" 
d="M817 608q5 -22 -6 -52t-43 -65t-88.5 -74t-142.5 -78q-20 -45 -42 -89t-47.5 -83t-55 -71.5t-63.5 -54.5q-78 -49 -155 -49q-59 0 -104 28t-61 75q-14 42 1 81.5t55 69.5l3 4l4 -5q44 -58 127 -58q55 0 113.5 29t103.5 77q-44 -12 -86.5 -18t-81.5 -6q-51 0 -90.5 9
t-67 24t-43 33.5t-17.5 38.5q-4 36 32 64.5t105 43.5l12 2l-7 -9q-21 -28 -7 -58q7 -14 22.5 -27.5t38.5 -25t54 -18.5t69 -7q53 0 112 15q10 16 18.5 31.5t17.5 30.5q39 66 79.5 123t100.5 92q37 23 75 23q26 0 43.5 -11.5t21.5 -34.5zM562 394q47 23 80.5 51t54 55
t29.5 50t6 35q-2 6 -5.5 9.5t-11.5 3.5q-4 0 -9 -1.5t-10 -3.5q-18 -7 -35 -26t-33.5 -46t-33 -59.5t-32.5 -67.5zM696 683l-28 29l180 112l79 -93z" />
    <glyph glyph-name="sacute" unicode="&#x15b;" 
d="M0 206q11 11 23.5 24t24 25t21 22.5t15.5 16.5q-8 36 22 70q12 13 26.5 22t29.5 13t29.5 2t25.5 -10q27 -20 24.5 -45t-21.5 -43t-43.5 -19t-37.5 19q-1 -11 8 -19t22.5 -17t29.5 -20t28 -26q17 -22 22.5 -51.5t-6.5 -63.5q30 26 58 52t48 48q15 16 26.5 19t17 -3
t2.5 -18.5t-18 -27.5q-17 -17 -49 -44t-67 -54.5t-68.5 -49.5t-52.5 -29l-19 26q25 11 57 32.5t65 48.5q-13 -33 -44 -66q-22 -23 -51.5 -39.5t-60 -22.5t-59 0t-48.5 28q-25 27 -21 60t32 60q7 8 19.5 16.5t26 13t25.5 2t20 -15.5q8 -15 1.5 -32t-20.5 -30.5t-31 -20
t-29 -0.5q6 -17 19 -19.5t29 4.5t32.5 20.5t30.5 28.5q13 16 25 37.5t17 42.5t1 39t-22 27q-9 4 -16 9t-12 10l-80 -82q-15 -15 -27 -18t-17 2.5t-1.5 18t18.5 27.5zM198 443l-28 29l180 112l79 -93z" />
    <glyph glyph-name="Scircumflex" unicode="&#x15c;" horiz-adv-x="596" 
d="M817 608q5 -22 -6 -52t-43 -65t-88.5 -74t-142.5 -78q-20 -45 -42 -89t-47.5 -83t-55 -71.5t-63.5 -54.5q-78 -49 -155 -49q-59 0 -104 28t-61 75q-14 42 1 81.5t55 69.5l3 4l4 -5q44 -58 127 -58q55 0 113.5 29t103.5 77q-44 -12 -86.5 -18t-81.5 -6q-51 0 -90.5 9
t-67 24t-43 33.5t-17.5 38.5q-4 36 32 64.5t105 43.5l12 2l-7 -9q-21 -28 -7 -58q7 -14 22.5 -27.5t38.5 -25t54 -18.5t69 -7q53 0 112 15q10 16 18.5 31.5t17.5 30.5q39 66 79.5 123t100.5 92q37 23 75 23q26 0 43.5 -11.5t21.5 -34.5zM562 394q47 23 80.5 51t54 55
t29.5 50t6 35q-2 6 -5.5 9.5t-11.5 3.5q-4 0 -9 -1.5t-10 -3.5q-18 -7 -35 -26t-33.5 -46t-33 -59.5t-32.5 -67.5zM829 830h52l25 -132h-91l-6 64l-87 -64h-63z" />
    <glyph glyph-name="scircumflex" unicode="&#x15d;" 
d="M0 206q11 11 23.5 24t24 25t21 22.5t15.5 16.5q-8 36 22 70q12 13 26.5 22t29.5 13t29.5 2t25.5 -10q27 -20 24.5 -45t-21.5 -43t-43.5 -19t-37.5 19q-1 -11 8 -19t22.5 -17t29.5 -20t28 -26q17 -22 22.5 -51.5t-6.5 -63.5q30 26 58 52t48 48q15 16 26.5 19t17 -3
t2.5 -18.5t-18 -27.5q-17 -17 -49 -44t-67 -54.5t-68.5 -49.5t-52.5 -29l-19 26q25 11 57 32.5t65 48.5q-13 -33 -44 -66q-22 -23 -51.5 -39.5t-60 -22.5t-59 0t-48.5 28q-25 27 -21 60t32 60q7 8 19.5 16.5t26 13t25.5 2t20 -15.5q8 -15 1.5 -32t-20.5 -30.5t-31 -20
t-29 -0.5q6 -17 19 -19.5t29 4.5t32.5 20.5t30.5 28.5q13 16 25 37.5t17 42.5t1 39t-22 27q-9 4 -16 9t-12 10l-80 -82q-15 -15 -27 -18t-17 2.5t-1.5 18t18.5 27.5zM298 590h67l33 -141h-117l-8 68l-112 -68h-81z" />
    <glyph glyph-name="Scedilla" unicode="&#x15e;" horiz-adv-x="596" 
d="M817 608q5 -22 -6 -52t-43 -65t-88.5 -74t-142.5 -78q-20 -45 -42 -89t-47.5 -83t-55 -71.5t-63.5 -54.5q-78 -49 -155 -49q-10 0 -15 1l-45 -57q37 -3 61 -15q10 -5 18.5 -13t13 -18.5t3.5 -25t-10 -32.5q-12 -26 -35 -40.5t-50.5 -19t-56.5 -1t-53.5 13t-42 24
t-22.5 30.5l35 16q4 -13 20.5 -20.5t37 -8.5t38.5 5t25 21q7 16 4 28t-12.5 18.5t-22.5 9t-25 0.5q11 17 23 34q10 14 22 30t23 30q-35 12 -61.5 36t-37.5 57q-14 42 1 81.5t55 69.5l3 4l4 -5q44 -58 127 -58q55 0 113.5 29t103.5 77q-44 -12 -86.5 -18t-81.5 -6
q-51 0 -90.5 9t-67 24t-43 33.5t-17.5 38.5q-4 36 32 64.5t105 43.5l12 2l-7 -9q-21 -28 -7 -58q7 -14 22.5 -27.5t38.5 -25t54 -18.5t69 -7q53 0 112 15q10 16 18.5 31.5t17.5 30.5q39 66 79.5 123t100.5 92q37 23 75 23q26 0 43.5 -11.5t21.5 -34.5zM562 394
q47 23 80.5 51t54 55t29.5 50t6 35q-2 6 -5.5 9.5t-11.5 3.5q-4 0 -9 -1.5t-10 -3.5q-18 -7 -35 -26t-33.5 -46t-33 -59.5t-32.5 -67.5z" />
    <glyph glyph-name="scedilla" unicode="&#x15f;" 
d="M0 206q11 11 23.5 24t24 25t21 22.5t15.5 16.5q-8 36 22 70q12 13 26.5 22t29.5 13t29.5 2t25.5 -10q27 -20 24.5 -45t-21.5 -43t-43.5 -19t-37.5 19q-1 -11 8 -19t22.5 -17t29.5 -20t28 -26q17 -22 22.5 -51.5t-6.5 -63.5q30 26 58 52t48 48q15 16 26.5 19t17 -3
t2.5 -18.5t-18 -27.5t-42 -38.5t-58.5 -48.5t-63 -47.5t-54.5 -34.5q-20 -11 -41 -19t-42 -11l-47 -60q37 -3 61 -15q10 -5 18.5 -13t13 -18.5t3.5 -25t-10 -32.5q-12 -26 -35 -40.5t-50.5 -19t-56.5 -1t-53.5 13t-42 24t-22.5 30.5l35 16q4 -13 20.5 -20.5t37 -8.5t38.5 5
t25 21q7 16 4 28t-12.5 18.5t-22.5 9t-25 0.5q11 15 22 32q10 14 21.5 30t22.5 30q-23 7 -41 25q-25 27 -21 60t32 60q7 8 19.5 16.5t26 13t25.5 2t20 -15.5q8 -15 1.5 -32t-20.5 -30.5t-31 -20t-29 -0.5q6 -17 19 -19.5t29 4.5t32.5 20.5t30.5 28.5q13 16 25 37.5t17 42.5
t1 39t-22 27q-9 4 -16 9t-12 10l-80 -82q-15 -15 -27 -18t-17 2.5t-1.5 18t18.5 27.5z" />
    <glyph glyph-name="Scaron" unicode="&#x160;" horiz-adv-x="596" 
d="M817 608q5 -22 -6 -52t-43 -65t-88.5 -74t-142.5 -78q-20 -45 -42 -89t-47.5 -83t-55 -71.5t-63.5 -54.5q-78 -49 -155 -49q-59 0 -104 28t-61 75q-14 42 1 81.5t55 69.5l3 4l4 -5q44 -58 127 -58q55 0 113.5 29t103.5 77q-44 -12 -86.5 -18t-81.5 -6q-51 0 -90.5 9
t-67 24t-43 33.5t-17.5 38.5q-4 36 32 64.5t105 43.5l12 2l-7 -9q-21 -28 -7 -58q7 -14 22.5 -27.5t38.5 -25t54 -18.5t69 -7q53 0 112 15q10 16 18.5 31.5t17.5 30.5q39 66 79.5 123t100.5 92q37 23 75 23q26 0 43.5 -11.5t21.5 -34.5zM562 394q47 23 80.5 51t54 55
t29.5 50t6 35q-2 6 -5.5 9.5t-11.5 3.5q-4 0 -9 -1.5t-10 -3.5q-18 -7 -35 -26t-33.5 -46t-33 -59.5t-32.5 -67.5zM802 689h-67l-33 141h117l8 -68l112 68h81z" />
    <glyph glyph-name="scaron" unicode="&#x161;" 
d="M0 206q11 11 23.5 24t24 25t21 22.5t15.5 16.5q-8 36 22 70q12 13 26.5 22t29.5 13t29.5 2t25.5 -10q27 -20 24.5 -45t-21.5 -43t-43.5 -19t-37.5 19q-1 -11 8 -19t22.5 -17t29.5 -20t28 -26q17 -22 22.5 -51.5t-6.5 -63.5q30 26 58 52t48 48q15 16 26.5 19t17 -3
t2.5 -18.5t-18 -27.5q-17 -17 -49 -44t-67 -54.5t-68.5 -49.5t-52.5 -29l-19 26q25 11 57 32.5t65 48.5q-13 -33 -44 -66q-22 -23 -51.5 -39.5t-60 -22.5t-59 0t-48.5 28q-25 27 -21 60t32 60q7 8 19.5 16.5t26 13t25.5 2t20 -15.5q8 -15 1.5 -32t-20.5 -30.5t-31 -20
t-29 -0.5q6 -17 19 -19.5t29 4.5t32.5 20.5t30.5 28.5q13 16 25 37.5t17 42.5t1 39t-22 27q-9 4 -16 9t-12 10l-80 -82q-15 -15 -27 -18t-17 2.5t-1.5 18t18.5 27.5zM271 449h-67l-33 141h117l8 -68l112 68h81z" />
    <glyph glyph-name="uni0162" unicode="&#x162;" horiz-adv-x="636" 
d="M502 356q47 47 87.5 83t82.5 43l22 2q-27 2 -52.5 6t-49.5 9q-26 6 -52.5 10.5t-52.5 4.5q-44 0 -85 -19q-32 -16 -45 -34.5t-9 -32.5q6 -26 50 -26q13 0 27.5 2.5t30.5 9.5l13 3l-8 -12q-32 -48 -69.5 -67t-65.5 -19q-24 0 -40.5 10.5t-22.5 28.5q-3 9 -3 24.5t11 37.5
t36 51t73 64q71 53 130.5 76.5t121.5 23.5q29 0 58 -4.5t58 -10.5q36 -5 76.5 -11t89.5 -6q23 0 46 2t47 4l15 3l-12 -10q-73 -61 -142.5 -90t-144.5 -29h-14.5t-13.5 1l-19 -11q-29 -18 -58.5 -63.5t-64.5 -103.5q-30 -51 -64 -106t-74.5 -101t-89.5 -78.5t-109 -38.5
q-10 -1 -19.5 -1h-19.5q-43 0 -74.5 10t-52.5 26.5t-32.5 37.5t-14.5 42t2.5 44t20 44t37.5 38t56 27l6 1v-6q1 -15 9 -27.5t21.5 -21.5t31.5 -14.5t38 -5.5q33 0 62 11q31 13 60 32t55.5 41.5t51.5 47t48 48.5zM94 -134q0 36 24.5 61t59.5 24q46 -1 64.5 -29t5 -67.5
t-62.5 -82.5t-139 -74l-29 36q33 18 49.5 34t22.5 31.5t5.5 32t-0.5 34.5z" />
    <glyph glyph-name="uni0163" unicode="&#x163;" horiz-adv-x="258" 
d="M311 432q-22 -23 -43.5 -46.5t-40 -43.5t-32 -35.5t-18.5 -22.5q-21 -26 -41.5 -53t-35 -50t-19.5 -40t4 -24t29 -2.5t44.5 17.5t50.5 32t49 42q13 13 24 15t15.5 -4t2 -17.5t-14.5 -23.5q-31 -31 -74.5 -67t-87.5 -63.5t-84 -40.5t-64 2q-17 10 -26 27.5t-7 42.5
t15.5 57t42.5 72q18 25 41.5 54t49.5 59t52.5 59t49.5 54h-107l18 32q69 5 142.5 18t144.5 32l-49 -50h166l-18 -32h-179zM-166 -134q0 36 24.5 61t59.5 24q46 -1 64.5 -29t5 -67.5t-62.5 -82.5t-139 -74l-29 36q33 18 49.5 34t22.5 31.5t5.5 32t-0.5 34.5z" />
    <glyph glyph-name="Tcaron" unicode="&#x164;" horiz-adv-x="636" 
d="M502 356q47 47 87.5 83t82.5 43l22 2q-27 2 -52.5 6t-49.5 9q-26 6 -52.5 10.5t-52.5 4.5q-44 0 -85 -19q-32 -16 -45 -34.5t-9 -32.5q6 -26 50 -26q13 0 27.5 2.5t30.5 9.5l13 3l-8 -12q-32 -48 -69.5 -67t-65.5 -19q-24 0 -40.5 10.5t-22.5 28.5q-3 9 -3 24.5t11 37.5
t36 51t73 64q71 53 130.5 76.5t121.5 23.5q29 0 58 -4.5t58 -10.5q36 -5 76.5 -11t89.5 -6q23 0 46 2t47 4l15 3l-12 -10q-73 -61 -142.5 -90t-144.5 -29h-14.5t-13.5 1l-19 -11q-29 -18 -58.5 -63.5t-64.5 -103.5q-30 -51 -64 -106t-74.5 -101t-89.5 -78.5t-109 -38.5
q-10 -1 -19.5 -1h-19.5q-43 0 -74.5 10t-52.5 26.5t-32.5 37.5t-14.5 42t2.5 44t20 44t37.5 38t56 27l6 1v-6q1 -15 9 -27.5t21.5 -21.5t31.5 -14.5t38 -5.5q33 0 62 11q31 13 60 32t55.5 41.5t51.5 47t48 48.5zM772 669h-67l-33 141h117l8 -68l112 68h81z" />
    <glyph glyph-name="tcaron" unicode="&#x165;" horiz-adv-x="413" 
d="M439 488q0 18 6.5 33.5t18 27t26.5 18t33 6.5q46 -1 64.5 -29t5 -67.5t-62.5 -82.5t-139 -74l-29 35q38 22 54 40t21 37h-126q-22 -23 -43.5 -46.5t-40 -43.5t-32 -35.5t-18.5 -22.5q-21 -26 -41.5 -53t-35 -50t-19.5 -40t4 -24t29 -2.5t44.5 17.5t50.5 32t49 42
q13 13 24 15t15.5 -4t2 -17.5t-14.5 -23.5q-31 -31 -74.5 -67t-87.5 -63.5t-84 -40.5t-64 2q-17 10 -26 27.5t-7 42.5t15.5 57t42.5 72q18 25 41.5 54t49.5 59t52.5 59t49.5 54h-107l18 32q69 5 142.5 18t144.5 32l-49 -50h97v24v0z" />
    <glyph glyph-name="Tbar" unicode="&#x166;" horiz-adv-x="636" 
d="M1010 602q-73 -61 -142.5 -90t-144.5 -29h-14.5t-13.5 1l-19 -11q-17 -11 -34 -31t-34 -46h122l-53 -53h-102l-22 -37q-30 -51 -64 -106t-74.5 -101t-89.5 -78.5t-109 -38.5q-10 -1 -19.5 -1h-19.5q-43 0 -74.5 10t-52.5 26.5t-32.5 37.5t-14.5 42t2.5 44t20 44t37.5 38
t56 27l6 1v-6q1 -15 9 -27.5t21.5 -21.5t31.5 -14.5t38 -5.5q33 0 62 11q58 24 107.5 67.5t94.5 88.5h-90q-20 -13 -39 -18.5t-34 -5.5q-24 0 -40.5 10.5t-22.5 28.5q-3 9 -3 24.5t11 37.5t36 51t73 64q71 53 130.5 76.5t121.5 23.5q29 0 58 -4.5t58 -10.5q36 -5 76.5 -11
t89.5 -6q23 0 46 2t47 4l15 3zM454 396h88q34 33 66 57t64 29l22 2q-27 2 -52.5 6t-49.5 9q-26 6 -52.5 10.5t-52.5 4.5q-44 0 -85 -19q-32 -16 -45 -34.5t-9 -32.5q6 -26 50 -26q13 0 27.5 2.5t30.5 9.5l13 3l-8 -12z" />
    <glyph glyph-name="tbar" unicode="&#x167;" horiz-adv-x="258" 
d="M311 432l-27 -29h64l-26 -37h-73q-26 -29 -45.5 -51t-26.5 -31q-21 -26 -41.5 -53t-35 -50t-19.5 -40t4 -24t29 -2.5t44.5 17.5t50.5 32t49 42q13 13 24 15t15.5 -4t2 -17.5t-14.5 -23.5q-31 -31 -74.5 -67t-87.5 -63.5t-84 -40.5t-64 2q-17 10 -26 27.5t-7 42.5t15.5 57
t42.5 72q25 35 60.5 77t72.5 83h-48l27 37h54l14.5 14.5t12.5 14.5h-107l18 32q69 5 142.5 18t144.5 32l-49 -50h166l-18 -32h-179z" />
    <glyph glyph-name="Utilde" unicode="&#x168;" horiz-adv-x="706" 
d="M745 205q-84 -105 -161.5 -160.5t-141.5 -55.5q-20 0 -39 7t-34 18q-35 26 -38 72q-2 26 8 55q-72 -70 -138 -106.5t-118 -36.5q-62 0 -76 50q-12 38 6.5 96t71 129.5t141.5 154t219 170.5l37 25l-32 -31q-76 -79 -123 -146t-71.5 -120.5t-30 -91t2.5 -56.5
q10 -24 36 -24q23 0 52.5 17t61.5 49q48 59 99 118t100.5 111.5t96 95t86.5 68.5l33 22l-27 -29q-61 -64 -110 -126.5t-83 -118.5t-52 -102.5t-17 -79.5q1 -30 20 -47q9 -7 19 -10.5t24 -3.5q30 0 72 22.5t99 70.5zM467 695q44 63 86 89t87 28q22 1 32.5 -7t18 -17.5
t15.5 -18.5t23 -10q11 -1 20.5 7.5t17.5 18.5q9 11 16 27h53q-23 -36 -49 -64q-11 -12 -24.5 -23.5t-28 -20.5t-30.5 -14t-32 -4q-25 1 -37 10t-19.5 19t-15 18.5t-23.5 8.5q-14 0 -25.5 -7.5t-20.5 -16.5q-11 -11 -19 -23h-45zM76 488q24 40 48 63.5t47 35.5t46 15t44 3
h13.5t11.5 -2h26q23 0 48.5 3.5t52.5 16.5l25 12l-20 -20q-44 -42 -78.5 -65t-63 -33.5t-51.5 -12.5t-45 -2q-23 0 -46 -2.5t-51 -17.5l-15 -8z" />
    <glyph glyph-name="utilde" unicode="&#x169;" horiz-adv-x="478" 
d="M478 206q13 13 24 15t15.5 -4t2.5 -17.5t-14 -23.5q-32 -31 -73.5 -67t-84 -63.5t-81 -40.5t-62.5 2q-23 14 -27 45t8 70q-30 -27 -61 -51t-60.5 -40t-56 -21t-47.5 7q-18 10 -22 30.5t2.5 47t23 57t40.5 62.5q19 25 42 51.5t44 48.5q24 26 49 50h115q-20 -20 -38 -39
q-16 -17 -33.5 -36.5t-29.5 -35.5q-15 -20 -29 -38t-23.5 -33.5t-12 -26.5t5.5 -17q10 -8 29 2t42 28.5t46.5 41t43.5 41.5q19 19 38 39t34 37q18 19 34 37h102q-20 -22 -38 -43q-16 -18 -32.5 -38.5t-27.5 -37.5q-33 -48 -50 -84t-2 -44q10 -6 28.5 -1t41 17.5t47 31
t47.5 41.5zM185 436q44 63 86 89t87 28q22 1 32.5 -7t18 -17.5t15.5 -18.5t23 -10q11 -1 20.5 7.5t17.5 18.5q9 11 16 27h53q-23 -36 -49 -64q-11 -12 -24.5 -23.5t-28 -20.5t-30.5 -14t-32 -4q-25 1 -37 10t-19.5 19t-15 18.5t-23.5 8.5q-14 0 -25.5 -7.5t-20.5 -16.5
q-11 -11 -19 -23h-45z" />
    <glyph glyph-name="Umacron" unicode="&#x16a;" horiz-adv-x="706" 
d="M745 205q-84 -105 -161.5 -160.5t-141.5 -55.5q-20 0 -39 7t-34 18q-35 26 -38 72q-2 26 8 55q-72 -70 -138 -106.5t-118 -36.5q-62 0 -76 50q-12 38 6.5 96t71 129.5t141.5 154t219 170.5l37 25l-32 -31q-76 -79 -123 -146t-71.5 -120.5t-30 -91t2.5 -56.5
q10 -24 36 -24q23 0 52.5 17t61.5 49q48 59 99 118t100.5 111.5t96 95t86.5 68.5l33 22l-27 -29q-61 -64 -110 -126.5t-83 -118.5t-52 -102.5t-17 -79.5q1 -30 20 -47q9 -7 19 -10.5t24 -3.5q30 0 72 22.5t99 70.5zM76 488q24 40 48 63.5t47 35.5t46 15t44 3h13.5t11.5 -2
h26q23 0 48.5 3.5t52.5 16.5l25 12l-20 -20q-44 -42 -78.5 -65t-63 -33.5t-51.5 -12.5t-45 -2q-23 0 -46 -2.5t-51 -17.5l-15 -8zM533 765h279l-48 -75h-279z" />
    <glyph glyph-name="umacron" unicode="&#x16b;" horiz-adv-x="478" 
d="M478 206q13 13 24 15t15.5 -4t2.5 -17.5t-14 -23.5q-32 -31 -73.5 -67t-84 -63.5t-81 -40.5t-62.5 2q-23 14 -27 45t8 70q-30 -27 -61 -51t-60.5 -40t-56 -21t-47.5 7q-18 10 -22 30.5t2.5 47t23 57t40.5 62.5q19 25 42 51.5t44 48.5q24 26 49 50h115q-20 -20 -38 -39
q-16 -17 -33.5 -36.5t-29.5 -35.5q-15 -20 -29 -38t-23.5 -33.5t-12 -26.5t5.5 -17q10 -8 29 2t42 28.5t46.5 41t43.5 41.5q19 19 38 39t34 37q18 19 34 37h102q-20 -22 -38 -43q-16 -18 -32.5 -38.5t-27.5 -37.5q-33 -48 -50 -84t-2 -44q10 -6 28.5 -1t41 17.5t47 31
t47.5 41.5zM256 520h279l-48 -75h-279z" />
    <glyph glyph-name="Ubreve" unicode="&#x16c;" horiz-adv-x="706" 
d="M745 205q-84 -105 -161.5 -160.5t-141.5 -55.5q-20 0 -39 7t-34 18q-35 26 -38 72q-2 26 8 55q-72 -70 -138 -106.5t-118 -36.5q-62 0 -76 50q-12 38 6.5 96t71 129.5t141.5 154t219 170.5l37 25l-32 -31q-76 -79 -123 -146t-71.5 -120.5t-30 -91t2.5 -56.5
q10 -24 36 -24q23 0 52.5 17t61.5 49q48 59 99 118t100.5 111.5t96 95t86.5 68.5l33 22l-27 -29q-61 -64 -110 -126.5t-83 -118.5t-52 -102.5t-17 -79.5q1 -30 20 -47q9 -7 19 -10.5t24 -3.5q30 0 72 22.5t99 70.5zM76 488q24 40 48 63.5t47 35.5t46 15t44 3h13.5t11.5 -2
h26q23 0 48.5 3.5t52.5 16.5l25 12l-20 -20q-44 -42 -78.5 -65t-63 -33.5t-51.5 -12.5t-45 -2q-23 0 -46 -2.5t-51 -17.5l-15 -8zM750 748q-6 -39 -36.5 -65.5t-71.5 -26.5q-22 0 -41.5 8.5t-34 23t-23 34t-8.5 42.5v10.5t1 10.5l55 -9q0 -3 -0.5 -6t-0.5 -6q0 -22 16 -38
t38 -16q20 0 35 12.5t18 31.5z" />
    <glyph glyph-name="ubreve" unicode="&#x16d;" horiz-adv-x="478" 
d="M478 206q13 13 24 15t15.5 -4t2.5 -17.5t-14 -23.5q-32 -31 -73.5 -67t-84 -63.5t-81 -40.5t-62.5 2q-23 14 -27 45t8 70q-30 -27 -61 -51t-60.5 -40t-56 -21t-47.5 7q-18 10 -22 30.5t2.5 47t23 57t40.5 62.5q19 25 42 51.5t44 48.5q24 26 49 50h115q-20 -20 -38 -39
q-16 -17 -33.5 -36.5t-29.5 -35.5q-15 -20 -29 -38t-23.5 -33.5t-12 -26.5t5.5 -17q10 -8 29 2t42 28.5t46.5 41t43.5 41.5q19 19 38 39t34 37q18 19 34 37h102q-20 -22 -38 -43q-16 -18 -32.5 -38.5t-27.5 -37.5q-33 -48 -50 -84t-2 -44q10 -6 28.5 -1t41 17.5t47 31
t47.5 41.5zM483 511q-6 -39 -36.5 -65.5t-71.5 -26.5q-22 0 -41.5 8.5t-34 23t-23 34t-8.5 42.5v10.5t1 10.5l55 -9q0 -3 -0.5 -6t-0.5 -6q0 -22 16 -38t38 -16q20 0 35 12.5t18 31.5z" />
    <glyph glyph-name="Uring" unicode="&#x16e;" horiz-adv-x="706" 
d="M745 205q-84 -105 -161.5 -160.5t-141.5 -55.5q-20 0 -39 7t-34 18q-35 26 -38 72q-2 26 8 55q-72 -70 -138 -106.5t-118 -36.5q-62 0 -76 50q-12 38 6.5 96t71 129.5t141.5 154t219 170.5l37 25l-32 -31q-76 -79 -123 -146t-71.5 -120.5t-30 -91t2.5 -56.5
q10 -24 36 -24q23 0 52.5 17t61.5 49q48 59 99 118t100.5 111.5t96 95t86.5 68.5l33 22l-27 -29q-61 -64 -110 -126.5t-83 -118.5t-52 -102.5t-17 -79.5q1 -30 20 -47q9 -7 19 -10.5t24 -3.5q30 0 72 22.5t99 70.5zM536 735q0 41 28 69.5t69 28.5q20 0 37.5 -7.5t31 -21
t21 -31.5t7.5 -38t-7.5 -37.5t-21 -31t-31 -21t-37.5 -7.5t-38 7.5t-31 21t-20.5 31t-7.5 37.5zM76 488q24 40 48 63.5t47 35.5t46 15t44 3h13.5t11.5 -2h26q23 0 48.5 3.5t52.5 16.5l25 12l-20 -20q-44 -42 -78.5 -65t-63 -33.5t-51.5 -12.5t-45 -2q-23 0 -46 -2.5
t-51 -17.5l-15 -8zM585 735q0 -20 14.5 -34.5t34.5 -14.5t34.5 14.5t14.5 34.5t-14.5 34.5t-34.5 14.5t-34.5 -14.5t-14.5 -34.5z" />
    <glyph glyph-name="uring" unicode="&#x16f;" horiz-adv-x="478" 
d="M478 206q13 13 24 15t15.5 -4t2.5 -17.5t-14 -23.5q-32 -31 -73.5 -67t-84 -63.5t-81 -40.5t-62.5 2q-23 14 -27 45t8 70q-30 -27 -61 -51t-60.5 -40t-56 -21t-47.5 7q-18 10 -22 30.5t2.5 47t23 57t40.5 62.5q19 25 42 51.5t44 48.5q24 26 49 50h115q-20 -20 -38 -39
q-16 -17 -33.5 -36.5t-29.5 -35.5q-15 -20 -29 -38t-23.5 -33.5t-12 -26.5t5.5 -17q10 -8 29 2t42 28.5t46.5 41t43.5 41.5q19 19 38 39t34 37q18 19 34 37h102q-20 -22 -38 -43q-16 -18 -32.5 -38.5t-27.5 -37.5q-33 -48 -50 -84t-2 -44q10 -6 28.5 -1t41 17.5t47 31
t47.5 41.5zM279 507q0 41 28 69.5t69 28.5q20 0 37.5 -7.5t31 -21t21 -31.5t7.5 -38t-7.5 -37.5t-21 -31t-31 -21t-37.5 -7.5t-38 7.5t-31 21t-20.5 31t-7.5 37.5zM328 507q0 -20 14.5 -34.5t34.5 -14.5t34.5 14.5t14.5 34.5t-14.5 34.5t-34.5 14.5t-34.5 -14.5t-14.5 -34.5
z" />
    <glyph glyph-name="Uhungarumlaut" unicode="&#x170;" horiz-adv-x="706" 
d="M745 205q-84 -105 -161.5 -160.5t-141.5 -55.5q-20 0 -39 7t-34 18q-35 26 -38 72q-2 26 8 55q-72 -70 -138 -106.5t-118 -36.5q-62 0 -76 50q-12 38 6.5 96t71 129.5t141.5 154t219 170.5l37 25l-32 -31q-76 -79 -123 -146t-71.5 -120.5t-30 -91t2.5 -56.5
q10 -24 36 -24q23 0 52.5 17t61.5 49q48 59 99 118t100.5 111.5t96 95t86.5 68.5l33 22l-27 -29q-61 -64 -110 -126.5t-83 -118.5t-52 -102.5t-17 -79.5q1 -30 20 -47q9 -7 19 -10.5t24 -3.5q30 0 72 22.5t99 70.5zM76 488q24 40 48 63.5t47 35.5t46 15t44 3h13.5t11.5 -2
h26q23 0 48.5 3.5t52.5 16.5l25 12l-20 -20q-44 -42 -78.5 -65t-63 -33.5t-51.5 -12.5t-45 -2q-23 0 -46 -2.5t-51 -17.5l-15 -8zM519 651l-35 20l139 160l102 -65zM695 651l-35 20l139 160l102 -65z" />
    <glyph glyph-name="uhungarumlaut" unicode="&#x171;" horiz-adv-x="478" 
d="M478 206q13 13 24 15t15.5 -4t2.5 -17.5t-14 -23.5q-32 -31 -73.5 -67t-84 -63.5t-81 -40.5t-62.5 2q-23 14 -27 45t8 70q-30 -27 -61 -51t-60.5 -40t-56 -21t-47.5 7q-18 10 -22 30.5t2.5 47t23 57t40.5 62.5q19 25 42 51.5t44 48.5q24 26 49 50h115q-20 -20 -38 -39
q-16 -17 -33.5 -36.5t-29.5 -35.5q-15 -20 -29 -38t-23.5 -33.5t-12 -26.5t5.5 -17q10 -8 29 2t42 28.5t46.5 41t43.5 41.5q19 19 38 39t34 37q18 19 34 37h102q-20 -22 -38 -43q-16 -18 -32.5 -38.5t-27.5 -37.5q-33 -48 -50 -84t-2 -44q10 -6 28.5 -1t41 17.5t47 31
t47.5 41.5zM392 418l-35 20l139 160l102 -65zM216 418l-35 20l139 160l102 -65z" />
    <glyph glyph-name="Uogonek" unicode="&#x172;" horiz-adv-x="706" 
d="M556 26q-27 -18 -56 -41t-51 -46.5t-31 -45t3 -35.5q8 -11 23 -9.5t29 8.5q17 7 35 21l30 -23q-38 -33 -74 -53q-15 -9 -31.5 -15.5t-33 -9t-31.5 0.5t-27 14q-18 16 -16 39t18 49.5t42 54.5t56 54q-20 0 -38.5 7t-33.5 18q-35 26 -38 72q-2 26 8 55q-72 -70 -138 -106.5
t-118 -36.5q-62 0 -76 50q-12 38 6.5 96t71 129.5t141.5 154t219 170.5l37 25l-32 -31q-76 -79 -123 -146t-71.5 -120.5t-30 -91t2.5 -56.5q10 -24 36 -24q23 0 52.5 17t61.5 49q48 59 99 118t100.5 111.5t96 95t86.5 68.5l33 22l-27 -29q-61 -64 -110 -126.5t-83 -118.5
t-52 -102.5t-17 -79.5q1 -30 20 -47q9 -7 19 -10.5t24 -3.5q30 0 72 22.5t99 70.5l7 -6q-94 -117 -178 -171q-2 -2 -5 -4zM76 488q24 40 48 63.5t47 35.5t46 15t44 3h13.5t11.5 -2h26q23 0 48.5 3.5t52.5 16.5l25 12l-20 -20q-44 -42 -78.5 -65t-63 -33.5t-51.5 -12.5
t-45 -2q-23 0 -46 -2.5t-51 -17.5l-15 -8z" />
    <glyph glyph-name="uogonek" unicode="&#x173;" horiz-adv-x="478" 
d="M478 206q13 13 24 15t15.5 -4t2.5 -17.5t-14 -23.5q-21 -20 -46 -43t-52 -44.5t-55 -40.5t-54 -31q-26 -18 -53 -40t-46 -44t-27 -42t4 -33q8 -11 23 -9.5t29 8.5q17 7 35 21l30 -23q-38 -33 -74 -53q-15 -9 -31.5 -15.5t-33 -9t-31.5 0.5t-27 14q-19 17 -15.5 42t22 54
t48 58.5t62.5 55.5q-3 1 -9 5q-23 14 -27 45t8 70q-30 -27 -61 -51t-60.5 -40t-56 -21t-47.5 7q-18 10 -22 30.5t2.5 47t23 57t40.5 62.5q19 25 42 51.5t44 48.5q24 26 49 50h115q-20 -20 -38 -39q-16 -17 -33.5 -36.5t-29.5 -35.5q-15 -20 -29 -38t-23.5 -33.5t-12 -26.5
t5.5 -17q10 -8 29 2t42 28.5t46.5 41t43.5 41.5q19 19 38 39t34 37q18 19 34 37h102q-20 -22 -38 -43q-16 -18 -32.5 -38.5t-27.5 -37.5q-33 -48 -50 -84t-2 -44q10 -6 28.5 -1t41 17.5t47 31t47.5 41.5z" />
    <glyph glyph-name="Wcircumflex" unicode="&#x174;" horiz-adv-x="860" 
d="M892 599q15 -26 16.5 -64t-8 -81.5t-29 -91t-47 -93t-62.5 -86.5t-74 -73q-36 -30 -74 -53.5t-74 -40.5t-69 -26t-60 -9q-30 0 -51.5 10.5t-35.5 30.5q-7 10 -10.5 21.5t-5.5 22.5q-106 -77 -189 -77q-45 0 -75 24t-39 66q-8 43 16.5 101.5t78.5 123.5q64 78 164 156.5
t228 152.5l5 -7q-84 -74 -142 -147.5t-92 -137.5t-44.5 -114.5t-0.5 -78.5q11 -30 48 -30q19 0 42 8q2 23 11.5 50.5t25.5 59.5q22 41 54 84.5t68.5 84.5t74.5 77t73 63t63.5 42.5t46.5 15.5h6l9 -1l-7 -7q-57 -50 -104 -109.5t-78 -118t-43.5 -109.5t0.5 -84q13 -42 71 -42
h4q39 1 78 28.5t73 70t60.5 95.5t38.5 105q14 58 7 97.5t-35 54.5l-2 2v3q0 6 4 15.5t11 19t16.5 16.5t20.5 7q21 0 37 -27zM764 830h67l33 -141h-117l-8 68l-112 -68h-81zM212 541q-27 0 -43 -12l-15 -10l8 16q13 27 28 43.5t32 25t35.5 11.5t36.5 3h17t19 -2
q8 0 17.5 -0.5t17.5 -0.5q17 0 36 2.5t39 13.5l21 10l-15 -18q-25 -29 -47.5 -46t-42.5 -26t-37.5 -12t-32.5 -3q-22 0 -41 3q-9 1 -17 1.5t-16 0.5z" />
    <glyph glyph-name="wcircumflex" unicode="&#x175;" horiz-adv-x="595" 
d="M568 312q19 -5 41 -3.5t44 6.5t43.5 13t39.5 17q20 10 25.5 8.5t0 -9t-20 -19t-35.5 -23.5q-43 -25 -87.5 -39.5t-95.5 -6.5q-47 -71 -101.5 -120.5t-104 -79t-88.5 -39t-55 -0.5q-17 10 -19.5 32.5t5.5 51.5q-27 -23 -55 -42.5t-54 -32t-49 -16t-40 6.5q-18 10 -22 30.5
t2.5 47t23 57t40.5 62.5q19 25 42 51.5t44 48.5q24 26 49 50h115q-20 -20 -38 -39q-16 -17 -33.5 -36.5t-29.5 -35.5q-15 -20 -29 -38t-23.5 -33.5t-12 -27t5.5 -16.5q6 -5 20.5 2.5t33 22.5t40.5 35.5t44 43.5q51 52 111 122h97q-15 -16 -31 -34q-14 -16 -31.5 -37
t-36.5 -44q-11 -15 -24 -32.5t-22 -33.5t-11.5 -28.5t8.5 -16.5q13 -6 35.5 2.5t48.5 27.5t54 46.5t53 59.5q-14 15 -12.5 39t13 46t30.5 37.5t41 13.5q25 -3 29.5 -30t-18.5 -68zM468 563h67l33 -141h-117l-8 68l-112 -68h-81z" />
    </font>
</defs>
</svg>
