<?xml version="1.0" standalone="no"?>
<!DOCTYPE svg PUBLIC "-//W3C//DTD SVG 1.1//EN" "http://www.w3.org/Graphics/SVG/1.1/DTD/svg11.dtd" >
<svg xmlns="http://www.w3.org/2000/svg" xmlns:xlink="http://www.w3.org/1999/xlink" version="1.1">
<metadata>
Created by FontForge 20170731 at Sat Jul 17 21:04:32 1999
 By Aleksey,,,
</metadata>
<defs>
<font id="lemans" horiz-adv-x="536" >
  <font-face 
    font-family="le mans"
    font-weight="400"
    font-stretch="normal"
    units-per-em="1000"
    panose-1="0 0 0 0 0 0 0 0 0 0"
    ascent="800"
    descent="-200"
    x-height="726"
    cap-height="883"
    bbox="4 -111 911 998"
    underline-thickness="50"
    underline-position="-175"
    unicode-range="U+0020-E001"
  />
<missing-glyph horiz-adv-x="500" 
 />
    <glyph glyph-name=".notdef" horiz-adv-x="500" 
 />
    <glyph glyph-name=".null" unicode="&#xe000;" horiz-adv-x="0" 
 />
    <glyph glyph-name="nonmarkingreturn" unicode="&#xe001;" horiz-adv-x="500" 
 />
    <glyph glyph-name="space" unicode=" " horiz-adv-x="500" 
 />
    <glyph glyph-name="exclam" unicode="!" horiz-adv-x="272" 
d="M28 5h214v191l-12 11l35 637h-249l-11 -10l35 -627l-12 -11v-191v0zM46 178h178v-149h-178v149v0zM58 225l-32 602h218l-32 -602h-154v0z" />
    <glyph glyph-name="quotedbl" unicode="&#x22;" horiz-adv-x="398" 
d="M34 574l4 -9t8 -9h119l12 12l18 101l6 6l24 -107l12 -12h113q5 0 8 5t5.5 11.5t3.5 12t1 7.5q2 10 5 26.5l6 33t5 28.5t2 13q0 2 0.5 13t1 24.5t0.5 26.5v22v14q0 10 -0.5 19t-1 16t-0.5 9l-12 11h-352l-12 -11q0 -2 -0.5 -9t-1 -16t-1 -17.5t-0.5 -13.5q0 -29 1 -54
t4 -49t8 -49.5t14 -54.5zM28 831h154q0 -8 -0.5 -26.5t-1.5 -39.5t-1.5 -40t-1.5 -26q-1 -10 -3 -28t-5 -36t-6 -32t-4 -17l-6 -12h-95q-1 0 -3 6.5t-3 11.5q-2 9 -5 23t-6 28.5t-5 25t-2 12.5q-1 9 -2 30t-2 45t-1.5 45t-0.5 30zM213 831h154q0 -9 -0.5 -30t-1.5 -45
t-1.5 -45t-1.5 -30q-1 -10 -3 -26.5t-5 -33t-6 -28.5t-4 -13l-6 -6h-89l-6 6q-2 1 -5.5 15.5t-7 33.5t-7 38.5t-4.5 31.5q-1 7 -2 26t-2 40t-1.5 39.5t-0.5 26.5z" />
    <glyph glyph-name="numbersign" unicode="#" horiz-adv-x="656" 
d="M57 31v-12q0 -7 1 -8l6 -6h107l12 12l39 173h127q0 -20 -3.5 -40t-8 -40t-8 -40.5t-3.5 -41.5q0 -3 0.5 -9.5t0.5 -7.5l6 -6h108q4 0 7 4t5 9t3.5 10t2.5 7q1 5 5.5 25t9.5 43.5t9 43.5t6 25q1 5 3 13l2 8h150v132h-118q0 2 -1 10.5t-1 10.5q1 9 4 22.5l6 27t5.5 23.5
t2.5 11l6 9h96v131h-72l30 153q0 1 0.5 6.5t0.5 7.5v3q0 4 -0.5 8t-2 7.5t-4.5 3.5h-113q-1 0 -3 -2.5t-3 -3.5q-2 -2 -4 -6.5t-2 -5.5l-36 -168h-131q0 20 3.5 40t8 39.5t8.5 39.5t4 41q0 3 -0.5 10.5t-0.5 9.5l-6 6h-118l-41 -189h-152v-131h117q0 -3 1.5 -13.5t1.5 -13.5
q-2 -10 -4.5 -24.5t-5.5 -28.5t-5.5 -24l-2.5 -10h-102v-132h70q0 -21 -3.5 -41t-8 -40t-8 -40t-3.5 -41zM73 29l37 182h-82v96h102l31 150h-133v95h152l41 189h92l-37 -186h171l6 6q2 9 7 32.5t10.5 49t11 48.5t7.5 32q1 4 3 11l2 7h90l-37 -189h79v-95h-96l-6 -9
q0 -1 -3 -14.5t-7 -32l-8 -37t-6 -30.5q0 -3 1.5 -13.5t1.5 -13.5h123v-96h-149q-1 0 -3 -8t-3 -13q-2 -9 -7.5 -32t-11 -48.5t-10.5 -48.5t-7 -32h-91l36 179h-176l-38 -179h-93zM255 454l-30 -144h174l2.5 7t3.5 11q1 7 5 23.5t7.5 34.5t7 34t4.5 22q0 1 0.5 5.5t0.5 6.5
h-175zM405 436v-6q-1 -6 -3.5 -18t-5.5 -25.5t-5.5 -25t-3.5 -15.5t-3.5 -11l-2.5 -7h-128q0 3 1 12t1 12q1 9 4 23.5t6 28t5.5 23l2.5 9.5h132z" />
    <glyph glyph-name="dollar" unicode="$" horiz-adv-x="560" 
d="M210 -71h132v72l15 6q52 16 88 38t59 53.5t33.5 73t10.5 95.5q0 67 -20 121t-76 97q-7 6 -26.5 19t-41.5 28t-41.5 28t-27.5 18h197l12 15q0 1 0.5 14.5t0.5 20.5q0 96 -42.5 154t-140.5 74v59h-132v-59q-51 -10 -88.5 -27t-62.5 -43.5t-37.5 -64.5t-12.5 -90
q0 -70 23 -121t80 -97q6 -5 22 -16.5t34 -24.5t34 -24t23 -15h-209l-6 -9q0 -2 -0.5 -14.5t-0.5 -19.5q0 -42 4.5 -79t17 -70t36.5 -60.5t63 -49.5q3 -2 16 -6.5t27 -9.5t25.5 -9t11.5 -5v-72zM228 -53v72q0 1 -3.5 3t-5.5 3q-65 21 -102.5 43.5t-56.5 54.5t-23.5 77.5
t-4.5 111.5h193q0 -7 1 -24t2 -36t2 -36t1 -24q2 -16 9 -32t27 -16q12 0 22.5 9.5t13.5 20.5v45v21v17q0 9 -1.5 17.5t-4.5 19.5l-6 12q-41 45 -87 74.5t-85.5 60.5t-65.5 74t-26 115q0 48 14.5 83.5t41 60.5t63.5 40.5t82 23.5v59h96v-59q44 -9 78 -24.5t57.5 -39.5
t35.5 -58.5t12 -82.5q0 -5 -0.5 -13.5t-0.5 -9.5q0 -2 -2 -6.5t-4 -4.5h-191q0 4 -1 15t-2 23.5t-2 23.5t-1 15q-2 17 -8.5 27t-23.5 10q-25 0 -32.5 -15.5t-7.5 -39.5q0 -26 9 -47t33 -36l173 -114q14 -9 28 -24t25 -33t18 -37t7 -37v-126q0 -39 -17.5 -68.5t-44.5 -51
t-59.5 -36t-63.5 -23.5l-15 -6v-72h-96zM255 174q-5 29 -5.5 49.5t-0.5 49.5v45q26 -19 31 -46t5 -57v-13t-1.5 -15.5t-5 -13t-11.5 -5.5q-4 0 -7 0.5t-5 5.5zM255 658v24q2 2 6 6.5t6 5.5l1 0.5t2 0.5t2 -0.5l1 -0.5q7 -3 10 -17t4 -30.5t0.5 -31t-0.5 -18.5q-11 0 -17.5 7
t-9.5 16.5t-4 20t-1 17.5z" />
    <glyph glyph-name="percent" unicode="%" horiz-adv-x="728" 
d="M153 17q0 -1 -0.5 -6t1 -10.5t6.5 -5.5h95q1 0 3 2t3 4q2 3 6.5 12.5t5.5 11.5l111 287v-215q0 -1 3.5 -10t5.5 -14q1 -2 3 -7t3 -5q18 -20 34 -32t34 -18.5t38 -8.5t46 -2q28 0 57 5t53 17.5t39.5 35t15.5 57.5v239q0 35 -15.5 58t-40 37t-54.5 19.5t-58 5.5
q-30 0 -58.5 -9t-51.5 -9h-3l137 371q1 0 1 5v8v12t-7 11h-95q-4 0 -8 -9l-4 -9l-117 -300v222q0 16 -11 33t-26.5 31t-34 23t-33.5 9h-125q-20 0 -38.5 -10.5t-32.5 -27t-22.5 -37t-8.5 -39.5v-245q0 -34 16.5 -56t41.5 -35t54.5 -18.5t55.5 -5.5q30 0 58.5 4.5t54.5 20.5
v-12l-137 -371q-1 -1 -1 -6v-8zM481 845h76l-312 -832h-73zM548 456q58 0 89 -17t45 -46.5t15.5 -70t1.5 -88.5t-1.5 -88t-15 -68.5t-43 -44t-84.5 -15.5q-22 0 -48 4.5t-48.5 15.5t-38 29.5t-15.5 47.5v245q0 27 14.5 45.5t36 29.5t46.5 16t46 5zM551 385q-5 0 -12.5 -2
t-7.5 -11v-269q0 -11 4.5 -12t12.5 -1h10t8 7v281q0 5 -6.5 6t-8.5 1zM548 348q1 -13 2 -45t1 -69q0 -36 -1 -68t-2 -45q-1 -9 -1.5 7t-0.5 44v62v63t0.5 44t1.5 7zM28 528v18q0 14 -0.5 29.5t-0.5 28.5v19q0 49 1 89.5t13.5 70t42.5 46t87 16.5q22 0 48 -4t48.5 -15
t38 -29.5t15.5 -47.5v-245q0 -15 -8.5 -31t-21.5 -29t-29 -21.5t-31 -8.5h-107q-23 0 -40 10.5t-29 27t-18.5 37t-8.5 39.5zM174 779h-2q-3 -2 -7.5 -6.5t-4.5 -5.5v-281q0 -6 6.5 -6.5t8.5 -0.5q5 0 12.5 2t7.5 11v275q0 3 -8.5 7.5l-8.5 4.5h-4zM178 743q1 -13 1.5 -45
t0.5 -69q0 -36 -0.5 -68t-1.5 -45q-1 -9 -1.5 7t-1 44t-0.5 62t0.5 62.5t1 44t1.5 7.5z" />
    <glyph glyph-name="ampersand" unicode="&#x26;" horiz-adv-x="620" 
d="M9 208q0 -70 26.5 -123.5t94.5 -83.5q3 -2 9.5 -4t8.5 -2h119q13 0 27.5 4.5t28.5 10.5t27.5 13.5t24.5 13.5l30 -30h197q2 0 4 2t2 4q0 1 0.5 8.5t0.5 11.5q0 3 -0.5 9t-0.5 7l-50 99l38 38v156q0 6 -8 6h-10h-12q-4 -3 -13.5 -9t-20 -12.5t-19.5 -12.5t-13 -8
q-7 -5 -9 -5.5t-9 -0.5h-6l-13 19.5t-13.5 22t-11 23t-4.5 22.5q0 13 6.5 23.5t14.5 21t14.5 22t6.5 25.5v114q0 1 -2 8t-4 10q-3 7 -9.5 20.5t-7.5 15.5q-20 25 -40.5 41.5t-42.5 26t-47.5 13t-55.5 3.5q-48 0 -89.5 -13t-72 -38.5t-48.5 -63.5t-18 -89q0 -42 11.5 -79.5
t43.5 -69.5l-6 -6q-1 -1 -5.5 -4.5t-9.5 -7.5t-9.5 -7.5t-5.5 -4.5q-33 -29 -41 -64t-8 -76zM27 207q0 47 15 78.5t52 62.5q1 1 5 3.5t9.5 5.5t10 5.5t5.5 3.5q1 0 3 2.5t3 3.5q-33 35 -52.5 70.5t-19.5 84.5q0 46 17.5 80.5t46.5 58t67.5 35.5t80.5 12q39 0 73.5 -12
t60 -34.5t40.5 -55t15 -72.5v-33t-6 -33l-4.5 -9t-7 -14.5t-7.5 -14t-5 -9.5q-1 -2 -4.5 -7t-7.5 -11t-7.5 -11.5t-4.5 -6.5l-1 -3q0 -1 0.5 -2l0.5 -1l67 -123l106 67v-130q0 -1 -4.5 -5.5t-7.5 -6.5q-4 -3 -17.5 -12t-18.5 -12v-6l63 -125h-182q-3 0 -7 5t-8.5 11t-8 12
t-6.5 8q-46 -26 -85.5 -40.5t-90.5 -14.5q-42 0 -75 15.5t-56 42t-35 62t-12 75.5zM213 195q0 -14 6.5 -28t17.5 -22q2 -1 10 -1h11q14 0 31.5 3t25.5 15q-3 5 -10.5 18t-16 27.5t-16.5 27t-11 17.5q-1 2 -5.5 6.5t-6.5 5.5q-17 -14 -26.5 -30t-9.5 -39zM237 195q0 10 2 19
t10 14l7 -10.5t10 -16.5t9 -17.5t4 -12.5q0 -6 -6.5 -7.5t-11.5 -1.5q-16 0 -20 10t-4 23zM236 557q0 -7 1.5 -20t5 -26t10 -22.5t17.5 -9.5q7 0 13 9t10.5 21.5t7 25t2.5 19.5q0 17 -8 34t-28 17q-9 0 -17 -5t-13 -13q0 -3 -0.5 -14.5t-0.5 -15.5zM255 557q0 5 0.5 15
t8.5 10q13 0 14.5 -10.5t1.5 -18.5q0 -11 -1.5 -21t-11.5 -17q-12 19 -12 42z" />
    <glyph glyph-name="quotesingle" unicode="'" horiz-adv-x="201" 
d="M7 775q0 -9 0.5 -24.5t1 -31.5t1 -28.5t0.5 -15.5q1 -11 4 -29.5t7 -36.5t7.5 -31.5t5.5 -15.5l6 -6h119l12 12q1 1 4 13.5t6 28.5t5 32.5t3 26.5q0 3 0.5 16t1 29.5t0.5 32.5v26v15q0 11 -0.5 22.5t-1 20.5t-0.5 11l-6 6h-167l-6 -6q0 -3 -0.5 -12t-1 -19.5t-1 -20.5
t-0.5 -15zM21 831h155q0 -8 -0.5 -28.5t-1.5 -43.5t-1.5 -43.5t-1.5 -28.5q-1 -11 -3 -28.5t-5 -34.5t-6 -30t-4 -14l-6 -6h-89l-6 6q-2 1 -5.5 15t-7.5 32t-7 36.5t-4 29.5q-1 8 -2 27.5t-2 41.5t-2 41.5t-1 27.5z" />
    <glyph glyph-name="parenleft" unicode="(" horiz-adv-x="308" 
d="M236 846q-28 0 -66.5 -1t-74 -10.5t-60.5 -32t-25 -64.5v-626q0 -43 26.5 -65.5t64 -32t77.5 -10t67 -0.5h11q8 0 15 0.5t12 0.5h7l6 6v125q0 7 -11 7t-24.5 2.5t-24.5 12.5t-11 38v459q0 4 2 17.5t3 17.5q2 4 6 9.5t6 5.5h54v134l-6 6q-1 0 -7.5 0.5t-15.5 0.5h-17h-14z
M278 829v-103q-12 -1 -24.5 -1.5t-23 -4.5t-17 -12t-6.5 -24v-518q0 -15 7 -23t17.5 -12t23 -5t23.5 -2v-98q-21 0 -47.5 -1t-54.5 0.5t-54.5 6.5t-47.5 17t-33.5 33t-12.5 54v584q0 46 28 69t67.5 32t82 8.5t72.5 -0.5z" />
    <glyph glyph-name="parenright" unicode=")" horiz-adv-x="314" 
d="M10 17l12 -12q1 0 18 -0.5t27 -0.5q32 0 73 1t77 12t60.5 35.5t24.5 71.5v602q0 46 -23 70.5t-57 35.5t-73.5 12.5t-72.5 1.5h-15h-18q-8 0 -14.5 -0.5l-6.5 -0.5l-12 -12v-113l12 -15h48l12 -15v-530q0 -9 -11.5 -10.5t-25.5 -1.5q-13 0 -24 -1.5t-11 -10.5v-119z
M34 124q16 1 29.5 3.5t22.5 9t14 17.5t5 30v483q0 67 -71 59v103q39 0 83 -0.5t81 -11t61.5 -37t24.5 -78.5v-554q0 -52 -25.5 -77.5t-63 -35.5t-81.5 -9.5t-80 0.5v98z" />
    <glyph glyph-name="asterisk" unicode="*" horiz-adv-x="302" 
d="M33 622q0 -11 7 -21t17 -17.5t22 -12.5t21 -5q2 0 6.5 0.5t4.5 1.5l42 42l36 -36q1 -1 7 -1.5t8 -0.5q9 0 20 4t20.5 10.5t16 15t6.5 18.5q0 17 -8 29t-17 26q4 6 10.5 9.5t13.5 5.5t13.5 5.5t10.5 9.5q0 2 0.5 10.5t0.5 10.5q0 9 -1.5 20.5t-5.5 22.5t-11.5 18.5
t-18.5 7.5q-14 0 -24 -2.5t-26 -9.5v53l-15 12h-87v-65q-14 5 -23.5 5.5t-23.5 0.5h-11q-8 0 -10 -1q-17 -8 -21 -28.5t-4 -36.5q0 -7 -0.5 -13.5t7.5 -10.5q2 -1 8 -3.5t12.5 -5.5t12.5 -5.5t9 -3.5v-3q0 -8 -4 -14.5t-8.5 -13t-8.5 -13.5t-4 -15zM57 624q0 1 0.5 2t0.5 2
q3 7 8.5 14.5t11.5 14.5t10.5 14.5t4.5 15.5q0 1 -2 3t-4 3q-3 1 -11.5 5t-18 7.5t-18 7t-11.5 4.5q0 1 -0.5 3t-0.5 3q0 4 2 12t5 16t7.5 14t9.5 6h7q3 -1 12 -3.5t19 -5.5t19 -5.5t12 -3.5v77h60v-69q18 0 34.5 5t34.5 5q5 0 9.5 -6t7.5 -14t5 -16.5t2 -12.5
q0 -2 -0.5 -3.5l-0.5 -1.5l-59 -30q-1 0 -1 -1v-1q0 -4 1 -4q0 -1 2 -5.5t4 -6.5q1 -3 5.5 -9.5t9 -14t8.5 -14t6 -9.5q-7 -9 -20 -19.5t-25 -10.5q-7 0 -13.5 6.5t-12.5 15.5l-12 18t-12 13q0 1 -3 1h-2q-1 0 -1 -1q-2 -3 -7 -9.5t-10.5 -14t-11 -14t-7.5 -9.5
q-4 -5 -5.5 -6t-6.5 -1q-3 0 -10 3.5t-14 8.5t-12.5 10.5t-5.5 10.5z" />
    <glyph glyph-name="plus" unicode="+" 
d="M186 173h156v176h182v156h-182v182h-156v-182h-176v-156h176v-176v0zM204 367h-176v120h176v176h120v-176h176v-120h-176v-176h-120v176v0z" />
    <glyph glyph-name="comma" unicode="," horiz-adv-x="189" 
d="M10 -11v-78q0 -7 9.5 -6.5t10.5 0.5q20 0 36.5 7t32.5 17q29 18 45 41.5t23.5 51t9 57.5t1.5 60v13q0 9 -0.5 17.5t-0.5 14.5v7l-6 6h-161v-185q2 -1 4 -5.5t2 -6.5t-2 -6t-4 -5zM53 16q0 2 -0.5 5l-0.5 3q-2 2 -11.5 5t-12.5 1v149h133q0 -47 -2 -87.5t-14.5 -73
t-39.5 -56.5t-77 -39q-1 3 -1.5 13.5t-0.5 13.5q0 14 4 22.5t9.5 14.5t9.5 12t4 17z" />
    <glyph glyph-name="minus" unicode="-" horiz-adv-x="314" 
d="M10 269h292v173h-292v-173v0zM28 418h256v-131h-256v131v0z" />
    <glyph glyph-name="period" unicode="." horiz-adv-x="207" 
d="M10 17l12 -12h173v197h-185v-185v0zM34 184h143v-155h-143v155v0z" />
    <glyph glyph-name="slash" unicode="/" horiz-adv-x="446" 
d="M9 13q0 -2 0.5 -10t6.5 -8h173q4 0 8 9l4 9l233 812q0 1 0.5 6.5t0.5 7.5v3q0 4 -0.5 8t-2 7.5t-4.5 3.5h-177l-241 -836q0 -1 -0.5 -5.5t-0.5 -6.5zM29 13l238 830h149l-236 -830h-151z" />
    <glyph glyph-name="zero" unicode="0" horiz-adv-x="530" 
d="M261 868q-48 0 -93 -12.5t-80 -38t-56.5 -65.5t-21.5 -94v-466q0 -56 24 -93.5t62 -60.5t84.5 -33t92.5 -10q49 0 93 14t78 41t54 67t20 93v436q0 55 -21 96.5t-56.5 69.5t-82 42t-97.5 14zM258 850q115 0 178.5 -61.5t63.5 -177.5v-359q0 -44 -9 -82t-29.5 -68.5
t-52 -51.5t-76.5 -31h-14q-9 0 -19.5 -0.5t-19.5 -0.5h-13q-48 0 -91 10.5t-76 34t-52.5 61.5t-19.5 92v413q0 51 17 92t47.5 69.5t73 44t92.5 15.5zM264 725q-10 0 -21.5 -6t-11.5 -19v-538q0 -11 10 -17.5t19 -6.5q14 0 25.5 7t11.5 23v526q0 16 -9.5 23.5t-23.5 7.5z
M264 707q4 0 7 -4t5 -9.5t2.5 -10.5t0.5 -7v-484q0 -9 -3.5 -19.5t-14.5 -10.5q-6 0 -9 2t-3 10v508q0 5 3.5 15t11.5 10z" />
    <glyph glyph-name="one" unicode="1" horiz-adv-x="392" 
d="M144 11h236v836h-143q-26 -24 -51 -43.5t-51.5 -34.5t-55.5 -27t-63 -21l-6 -6v-113l6 -6q5 0 18.5 -2t29 -4t29 -3.5t18.5 -2.5q6 -1 19.5 -7.5t13.5 -16.5v-549zM28 614v83l6 6q66 18 116.5 48t98.5 78h113v-800h-194v489q0 37 -10.5 56t-29 27.5t-44 9.5t-56.5 3z" />
    <glyph glyph-name="two" unicode="2" horiz-adv-x="512" 
d="M10 11h472v170h-191l6 15q8 13 28.5 45t43.5 68.5t43 68.5t28 45t18.5 32t19.5 39.5t15.5 41t6.5 37.5v125q0 4 -3.5 15t-8.5 22.5t-10 21.5t-8 13q-46 57 -99.5 76.5t-124.5 19.5q-68 0 -113.5 -18t-73 -52t-39 -83t-11.5 -112v-14q0 -8 0.5 -16t0.5 -15v-7l6 -6h197
l6 6q0 5 1 18.5t2 29t2 29t1 18.5q0 3 1.5 13t4.5 20.5t8 19t13 8.5q1 0 2 -0.5l1 -0.5l9 -9l9 -9v-24q0 -24 -6 -46.5t-15.5 -44t-21.5 -42t-23 -40.5q-7 -12 -22 -37.5t-33.5 -57.5t-39.5 -67t-40 -67t-34 -57t-22 -37l-6 -12v-143zM28 142l215 365q20 33 37 75t17 81
q0 24 -9.5 42t-35.5 18q-23 0 -33 -13t-12 -36q0 -6 -1 -22.5t-2 -34.5t-2 -34t-1 -22h-175q0 60 7.5 112.5t30.5 91t65.5 61t113.5 22.5q49 0 93 -13.5t76.5 -40.5t51.5 -66.5t19 -91.5q0 -49 -14 -98t-41 -91l-179 -284h215v-134h-436v113z" />
    <glyph glyph-name="three" unicode="3" horiz-adv-x="530" 
d="M9 304q0 -79 8 -137t35 -96.5t78 -57t137 -18.5q43 0 87.5 9.5t81 31t59.5 57t23 87.5v198q0 18 -8.5 37.5t-18.5 35t-18.5 26t-8.5 11.5v3q18 18 31.5 38t16.5 46v11q0 9 0.5 19t0.5 18v12q0 69 -17 114t-50.5 71.5t-83 37t-113.5 10.5q-72 0 -118.5 -13t-73.5 -42.5
t-37.5 -76.5t-10.5 -116v-12t0.5 -14t0.5 -13v-6l6 -6h221l6 6q0 5 1 17.5t2 27t2 27t1 17.5q1 11 3.5 24t14.5 18l12 -12v-119q0 -8 -4.5 -13t-11 -8.5t-14 -5.5t-12.5 -3q-4 0 -13.5 -1t-20 -2t-19.5 -2t-13 -1l-6 -6v-132l12 -12q10 0 27.5 -1t34 -5t28.5 -13.5t12 -27.5
v-168q0 -4 -5 -11t-10 -7h-3q-5 3 -7.5 9t-3.5 13t-1 12v8q0 9 -1 32t-2 48.5t-2 49t-1 32.5l-6 6h-215l-12 -12q0 -2 -0.5 -20.5t-0.5 -29.5zM31 342h197v-174q0 -14 12 -22.5t24 -8.5q21 0 29.5 16t10.5 37.5t0.5 43t-1.5 33.5q0 39 -1 63.5t-9.5 39.5t-28 23t-57.5 14
q-5 2 -14.5 4l-9.5 2v108q4 0 15.5 0.5t23.5 1.5t23 2t16 2q18 2 27 14.5t12.5 29t3 34t-0.5 30.5q0 10 0.5 25t-2 29.5t-10 25t-23.5 10.5q-19 0 -27 -8.5t-10 -28.5q0 -6 -1 -20t-2 -30.5t-2 -30.5t-1 -20h-191v131q0 41 22 66.5t54.5 40t70 20t68.5 5.5q55 0 100 -9.5
t77.5 -33t50.5 -64t18 -103.5q0 -53 -15.5 -89t-63.5 -66q34 -14 51.5 -36.5t25 -49.5t8 -58t0.5 -62q0 -64 -10 -113.5t-36 -83.5t-71.5 -51.5t-116.5 -17.5q-89 0 -137 22.5t-70 64.5t-25.5 103t-3.5 139z" />
    <glyph glyph-name="four" unicode="4" horiz-adv-x="554" 
d="M252 11h239v137q3 0 9 1t13.5 2t13.5 2t9 1q2 1 4 3t2 3v156q0 1 -2 3t-4 3q-3 0 -9 1t-13.5 2t-13.5 2t-9 1v520h-306l-175 -532v-165h242v-140zM270 169h-236v153l169 508h264v-523h57v-138h-48l-9 -9v-131h-197v140zM267 639q-1 -2 -3 -9t-3 -9q-6 -22 -14 -53
t-16.5 -64t-17 -65.5t-15.5 -58.5t-11 -42l-4 -16v-12h84v329zM249 489v-161h-42z" />
    <glyph glyph-name="five" unicode="5" 
d="M10 348v-162q0 -52 24.5 -88t62 -59t83.5 -33.5t90 -10.5q91 0 142.5 23t76.5 66.5t30.5 106.5t5.5 142q0 56 -1.5 111.5t-18 99t-54.5 70.5t-110 27q-27 0 -52.5 -9t-51.5 -9v62h245v165h-460l-6 -6l-1 -27.5t-2 -65.5t-2 -78.5t-1 -67.5v-19q0 -14 -0.5 -32t-0.5 -36
v-26v-20t0.5 -23.5t0.5 -20.5v-9l6 -6h230v54q0 5 8.5 6t10.5 1q7 0 10.5 -5t5.5 -12t3 -14.5t1 -11.5v-104q0 -16 0.5 -36t0 -41.5t-2 -42.5t-4.5 -39q-2 -5 -5 -5.5t-7 -0.5q-8 0 -14.5 8t-6.5 16v150l-15 12h-221zM26 330h193l12 -162q1 -12 13 -21.5t23 -9.5t23.5 9.5
t12.5 21.5v287q0 18 -10.5 30.5t-28.5 12.5q-13 0 -21.5 -6.5t-13.5 -16t-7 -21.5t-3 -23h-192v19q0 14 0.5 29.5t0.5 28.5v19q0 20 0.5 48t1 58t1.5 60t1.5 54t1 39t0.5 16l6 30h424v-123h-245v-134q28 22 55.5 35t64.5 13q31 0 60 -9.5t51.5 -28t36 -45.5t13.5 -61v-299
q0 -35 -14 -62t-36.5 -47t-51.5 -33t-59 -19h-14q-9 0 -19.5 -0.5t-19.5 -0.5h-13q-83 0 -132 21t-74.5 61t-33 98t-7.5 132z" />
    <glyph glyph-name="six" unicode="6" 
d="M273 868q-54 0 -101.5 -12t-83.5 -38.5t-57 -68.5t-21 -103v-430q0 -61 21 -103t57.5 -68.5t85 -38t102.5 -11.5q63 0 120.5 18t97.5 72q4 6 9.5 15t10 20t7.5 22t3 20v281q0 34 -16.5 61t-42 45.5t-56.5 28t-61 9.5q-26 0 -50.5 -8.5t-48.5 -8.5v112q0 5 7.5 14t10.5 10
l5 -2t7 -4q2 -1 5.5 -3t3.5 -3v-77l15 -12h215l6 6q0 1 0.5 14t0.5 19q0 62 -18 104.5t-51 69t-79.5 38.5t-103.5 12zM27 428q0 56 -0.5 109t4 99.5t17.5 86t40 67.5t72 44t113 16q115 0 175 -56t60 -171h-193q-1 10 -1 27q0 18 -4 34.5t-12.5 28.5t-25.5 12q-11 0 -26 -5
t-15 -20v-185q26 29 50.5 38.5t62.5 9.5q30 0 59.5 -8.5t52 -26t36.5 -43.5t14 -60v-239q0 -46 -21.5 -78t-55 -52t-74 -29t-78.5 -9q-69 0 -114.5 14t-73.5 39.5t-41 62t-17.5 82t-4 99t0.5 113.5zM266 444q-14 0 -24.5 -11.5t-10.5 -25.5v-233q0 -12 9.5 -24t22.5 -12
q25 0 35.5 19t10.5 41v191q0 23 -10 39t-33 16zM271 420q6 0 10 -1.5t4 -11.5v-227q0 -7 -6 -12.5t-12 -5.5q-11 0 -14.5 10.5t-3.5 19.5v197q0 14 4.5 22.5t17.5 8.5z" />
    <glyph glyph-name="seven" unicode="7" horiz-adv-x="440" 
d="M63 32v-6q0 -4 1.5 -9.5t5.5 -5.5h221q1 0 3 2t3 4t3 9t3 9l125 609v203h-418v-176h188l-134 -624q0 -1 -0.5 -6.5t-0.5 -8.5zM224 689h-196v140h376v-197l-125 -603h-197z" />
    <glyph glyph-name="eight" unicode="8" horiz-adv-x="530" 
d="M58 488q0 -4 -7.5 -15.5t-16.5 -28t-16.5 -35.5t-7.5 -37v-198q0 -51 24.5 -85.5t62 -55t82 -29.5t85.5 -9q40 0 84.5 8.5t82 28.5t62.5 53t25 83v210q0 18 -4 32.5t-11 26.5t-17 23.5t-22 24.5v6q18 18 31.5 38t16.5 46v12t0.5 19t0.5 19v12q0 67 -15.5 112t-47 71
t-78 37t-108.5 11q-59 0 -105.5 -11.5t-78.5 -38t-48.5 -69.5t-16.5 -106q0 -26 2.5 -44.5t7.5 -35t13.5 -33.5l19.5 -39v-3zM27 273q0 33 1 62.5t8 56t22 49.5t42 44q-38 33 -52.5 71t-14.5 87q0 56 16.5 95.5t47 64t73 36t94.5 11.5q111 0 171 -49t60 -164q0 -40 -4 -59
t-13.5 -31t-24.5 -24t-37 -38q34 -14 51.5 -38t25 -53t8 -61.5t0.5 -62.5q0 -69 -10.5 -117t-37 -78t-72.5 -43.5t-117 -13.5q-70 0 -115.5 14.5t-72.5 45.5t-38 79.5t-11 115.5zM225 273q0 -12 -2 -35t0.5 -45t12 -38.5t32.5 -16.5q11 0 18 5t10.5 13t5 17.5t1.5 18.5v75
v75q0 9 -1.5 19.5t-6 19.5t-12 15t-19.5 6q-23 0 -30 -18t-9 -36v-75zM264 378q5 0 10 -7t5 -11v-186q0 -9 -4.5 -11t-10.5 -2t-10.5 2t-4.5 11v192q0 1 4.5 5.5t7.5 6.5h3zM264 725q-14 0 -23.5 -7.5t-9.5 -23.5v-125q0 -16 9.5 -23.5t23.5 -7.5t23.5 7.5t9.5 23.5v125
q0 16 -9.5 23.5t-23.5 7.5zM249 632v38q0 4 2 15.5t4 14.5q1 2 3 4t3 2q10 0 14 -10t5 -23t0 -25t-1 -16q0 -3 0.5 -15.5t0 -26t-4 -24t-11.5 -10.5t-11.5 10.5t-4.5 24t0 26t1 15.5z" />
    <glyph glyph-name="nine" unicode="9" 
d="M9 223q0 -62 18 -105t51 -70.5t80 -40t106 -12.5q43 0 89 10.5t84 33.5t62.5 59t24.5 88v490q0 9 -3.5 26.5t-8.5 27.5q-19 41 -44.5 68t-57.5 42.5t-69.5 21.5t-79.5 6q-43 0 -87.5 -9.5t-81 -31t-59.5 -57.5t-23 -88v-251q0 -37 15.5 -66t40.5 -48.5t57.5 -30
t65.5 -10.5q26 0 49.5 8.5t46.5 8.5v-119q0 -6 -6 -12t-12 -6q-5 0 -13 6.5t-8 11.5v84h-230l-6 -6q0 -1 -0.5 -12t-0.5 -17zM26 240h193l6 -6v-33t4 -31t13.5 -23t29.5 -9q8 0 19.5 2t11.5 16v192q-25 -32 -51.5 -40.5t-64.5 -8.5q-61 0 -93.5 22t-47.5 58t-17 81.5
t-2 92.5q0 69 6.5 124.5t30.5 93.5t70.5 58.5t126.5 20.5q49 0 93 -12.5t78 -38.5t54 -65t20 -93v-419q0 -52 -19.5 -91t-52 -65.5t-76 -39.5t-91.5 -13q-114 0 -177.5 54t-63.5 173zM266 725q-11 0 -23 -9.5t-12 -21.5v-245q0 -13 14 -21.5t25 -8.5q13 0 23 7.5t10 22.5
v245q0 17 -11.5 24t-25.5 7zM267 701q6 0 12 -6t6 -13v-221q0 -7 -6 -12.5t-12 -5.5t-12 5.5t-6 12.5v215q0 8 4.5 16.5t13.5 8.5z" />
    <glyph glyph-name="colon" unicode=":" horiz-adv-x="201" 
d="M10 11h179v197h-179v-197v0zM28 184h143v-155h-143v155v0zM10 369h179v197h-179v-197v0zM28 548h143v-155h-143v155v0z" />
    <glyph glyph-name="semicolon" unicode=";" horiz-adv-x="207" 
d="M22 -5v-78q0 -2 2 -4t4 -2l7 -0.5t10 -0.5q41 0 72 25q27 21 42 43.5t21.5 48t8 53.5t1.5 60v13q0 9 -0.5 17.5t-0.5 14.5v7l-12 11h-155v-185q2 -1 4 -5t2 -6t-2 -6.5t-4 -5.5zM40 -17q11 8 18.5 19.5t11.5 24.5h-30v153h133q0 -32 -0.5 -65.5t-7.5 -65t-23.5 -58
t-47.5 -44.5q-12 -7 -26 -13t-28 -6v55zM10 383l12 -12h173v197h-185v-185zM34 550h143v-156h-143v156z" />
    <glyph glyph-name="less" unicode="&#x3c;" horiz-adv-x="530" 
d="M496 706q-3 0 -8 -0.5t-6 -0.5l-442 -185q-3 -2 -12.5 -6t-11.5 -6q-2 -1 -4 -3.5l-2 -2.5v-126q0 -1 2 -3t4 -3q2 -2 11.5 -6t12.5 -6l430 -179q11 -5 15.5 -5.5t15.5 -0.5h9q8 0 8 6v155l-6 6q-12 5 -43.5 18t-67 27t-67 27t-43.5 18q-2 1 -7 3t-5 3l-0.5 1t-0.5 2l1 3
q2 2 11.5 6t12.5 6q7 3 23 9.5t36 15t42 17.5t42 17.5t36 15t24 9.5l12 12v149q0 4 -5.5 5.5t-10.5 1.5h-6zM28 387v104l472 198v-128l-9.5 -4.5t-14.5 -6.5q-6 -3 -25 -11t-44 -18.5t-53.5 -22t-53.5 -22t-44 -18.5t-25 -10q-2 -1 -6.5 -3.5t-5.5 -2.5v-3v-3q1 -1 5.5 -3
t6.5 -3q6 -3 25.5 -10.5t45 -18t55 -22t55 -22t45 -18.5t25.5 -11l9 -4t9 -8v-125z" />
    <glyph glyph-name="equal" unicode="=" 
d="M10 257h514v155h-514v-155v0zM28 275v119h478v-119h-478v0zM10 448h514v156h-514v-156v0zM28 466v120h478v-120h-478v0z" />
    <glyph glyph-name="greater" unicode="&#x3e;" horiz-adv-x="530" 
d="M249 436q-12 -5 -42.5 -17.5t-65 -27t-65 -27.5t-42.5 -18q-4 -2 -14 -7.5t-10 -10.5v-149q0 -6 7 -6h10q11 0 15.5 0.5t15.5 5.5l460 194v136l-472 196q-1 0 -6 0.5t-8 0.5h-6t-10.5 -1.5t-5.5 -5.5v-149q0 -5 10 -10.5t14 -7.5q7 -3 35 -14.5t60.5 -24.5t60.5 -24.5
t35 -14.5q5 -2 14.5 -6.5t9.5 -5.5v-6zM309 436l0.5 1t0.5 2t-0.5 2l-0.5 1q-1 0 -5.5 2.5t-6.5 3.5q-15 6 -52.5 21.5t-79.5 32.5t-79 32.5t-52 21.5l-6 5v127l472 -196v-98q0 -1 -2 -3t-4 -3q-2 -2 -11.5 -6t-12.5 -6l-442 -185v125q0 4 9 8l9 4q15 6 52 21.5t79 33
t79.5 32.5z" />
    <glyph glyph-name="question" unicode="?" horiz-adv-x="530" 
d="M22 149l12 -12h197l12 12v173l-6 12v3q0 4 2 11.5t4 16t4 15t2 8.5q23 -8 43 -13t44 -5q35 0 68 12t58.5 33.5t40.5 52.5t15 69v234q0 55 -21.5 97.5t-57 71.5t-82 43.5t-96.5 14.5q-68 0 -116 -17.5t-78 -51t-44 -83.5t-14 -115q0 -8 0.5 -22.5t0.5 -15.5l6 -6h230v131
q0 1 3.5 8t5.5 10q1 1 3 3.5t3 2.5q5 -2 8.5 -10.5t3.5 -13.5v-221q0 -9 -3.5 -23t-14.5 -19q-4 3 -6.5 9.5t-5.5 14t-5.5 13t-6.5 5.5h-209v-245l6 -12v-3v-3l-6 -12v-173zM40 310h185v-149h-185v149zM40 579h179q4 -14 11 -28t24 -14q37 0 37 36v263q0 11 -10.5 18
t-19.5 7q-8 0 -20.5 -7.5t-12.5 -17.5v-131h-202q0 38 3 73.5t14 66.5t31.5 57.5t55.5 47.5q14 8 34 16t37 8h120q9 0 22 -4t26 -10t24.5 -12t16.5 -10q36 -26 54.5 -59.5t26.5 -71t9 -78t1 -79.5q0 -47 -3 -93t-19 -82.5t-48.5 -59t-91.5 -22.5q-20 0 -34 2t-26 6.5
t-23.5 13t-27.5 21.5v-72h-188v215z" />
    <glyph glyph-name="at" unicode="@" horiz-adv-x="811" 
d="M9 534q0 -94 28 -173.5t81.5 -137t130 -90t173.5 -32.5q114 0 204.5 41t166.5 126q0 2 0.5 6.5t0.5 5.5q0 2 -0.5 10t-6.5 8h-125q-55 -38 -114 -61t-126 -23q-68 0 -124 26.5t-96.5 71t-62.5 103.5t-22 125q0 68 22.5 130.5t63.5 110t99 75.5t129 28q15 0 39.5 -3
t49.5 -10t44.5 -18t25.5 -26h-96l-6 -9q-1 -1 -3 -5.5t-3 -6.5q-4 3 -12 8t-16.5 10t-15.5 8.5t-10 3.5h-95q-2 0 -8.5 -2t-9.5 -4q-7 -3 -20.5 -9.5t-15.5 -8.5q-72 -58 -102 -137.5t-30 -170.5q0 -43 9.5 -84t31 -73.5t55.5 -52.5t84 -20q18 0 30.5 1.5t23.5 5.5t23 9.5
t30 13.5q1 0 2 0.5l1 0.5q4 0 12 -5t20 -10.5t26.5 -10.5t31.5 -5q69 0 120 32t85 82t51 111.5t17 121.5q0 85 -26 154.5t-74 119t-117 76.5t-155 27q-104 0 -182 -36t-131 -98.5t-79.5 -147.5t-26.5 -182zM27 534q0 94 26 174.5t77 139.5t126 93t172 34q80 0 145 -25
t111.5 -71.5t71.5 -112t25 -145.5q0 -53 -16.5 -111t-48.5 -106.5t-79.5 -80t-109.5 -31.5q-32 0 -49.5 14t-31.5 40q-26 -23 -53 -38.5t-63 -15.5q-43 0 -74 19t-51.5 49t-30 68t-9.5 76q0 48 12.5 103t39 102t67 78.5t97.5 31.5q39 0 63 -15.5t50 -44.5q1 3 2.5 10.5t4 16
t5 14.5t6.5 6h88l-58 -376v-48q0 -6 8 -6.5t10 -0.5q15 0 28.5 7t25.5 17t22.5 21.5t19.5 21.5q15 16 25.5 37.5t16.5 45t9 47.5t3 46q0 62 -20.5 114.5t-58 90.5t-89.5 59t-114 21q-80 0 -141 -29t-103 -78.5t-63.5 -115.5t-21.5 -140q0 -76 22 -139t63.5 -108.5t102.5 -71
t139 -25.5q37 0 69 5.5t61.5 16t58 26.5t58.5 36h102q-72 -77 -158.5 -119t-194.5 -42q-88 0 -160.5 33t-124.5 89t-81 131.5t-29 161.5zM267 480q0 -17 3.5 -37t12 -37.5t23 -29.5t36.5 -12q26 0 45.5 15t33 39t22.5 54.5t13.5 60.5t6.5 57.5t2 45.5q0 20 -3 39t-10.5 33.5
t-22 23.5t-36.5 9q-26 0 -45 -14.5t-33 -37t-23.5 -51.5t-15 -58t-7.5 -55.5t-2 -44.5zM291 448v8q0 7 -0.5 14t-0.5 13v10q0 21 5 60t17 76.5t32 65.5t51 28q15 0 25 -9t16 -22.5t8.5 -28t2.5 -26.5q0 -15 -2 -39t-7 -51.5t-13 -56t-20 -51.5t-28 -37.5t-37 -14.5
q-11 0 -19 6t-14 15t-10 20t-6 20zM560 412l60 394q20 -15 32.5 -37t20 -47.5t10.5 -51.5t3 -49q0 -61 -18.5 -111t-65.5 -92q-8 -8 -19.5 -14t-22.5 -6v14z" />
    <glyph glyph-name="A" unicode="A" horiz-adv-x="598" 
d="M10 12h242q1 0 3 2l4 4l3.5 7t2.5 6l12 124h37q1 -7 2.5 -23.5t3.5 -35.5t4 -35.5t3 -23.5q0 -2 2.5 -9.5t3.5 -9.5t3 -4t3 -2h243q3 0 4.5 3t2 7t0 7.5t-0.5 4.5v15l-125 833h-341l-13 -13l-99 -751v-106zM29 93l102 770h313l125 -832h-217q-1 0 -3 11.5t-4 19.5
q0 3 -1 13.5t-2 23.5t-2 23.5t-1 13.5q0 4 -1 10.5t-2 12.5t-2 10.5l-1 4.5h-74l-1 -4.5t-2 -10.5t-2 -12.5t-2 -10.5q0 -3 -1 -13.5t-2 -23.5t-2 -23.5t-1 -13.5q-1 -8 -3 -19.5t-3 -11.5h-211v62zM296 664q-1 -3 -3.5 -15t-2.5 -16q-3 -18 -6 -44t-6.5 -54.5l-7 -57
t-6 -51.5t-4 -38t-1.5 -16v-43h70zM290 459q8 -9 11 -23t3.5 -29.5t-0.5 -31.5t-1 -28h-21q0 29 1.5 56.5t6.5 55.5z" />
    <glyph glyph-name="B" unicode="B" horiz-adv-x="560" 
d="M10 12h385q28 0 56 9.5t50 27.5t35.5 43t13.5 57v217q0 37 -21 62.5t-47 48.5v7q19 16 30 32t17 33.5t7.5 37.5t1.5 45q0 42 -8.5 86.5t-29.5 80.5t-56 59t-87 23h-347v-869zM29 862h304q52 0 87 -17.5t56 -48t29.5 -71t8.5 -86.5v-14t-0.5 -20.5t-0.5 -20.5v-14
q-2 -20 -11.5 -34t-24 -24t-31.5 -17t-33 -11q2 -4 8 -7.5t12.5 -6t12 -4l5.5 -1.5q38 -17 56 -47.5t24 -70.5v-18q0 -12 0.5 -25.5t0.5 -26.5v-17q0 -51 -3.5 -93t-20 -72t-50 -47t-94.5 -17h-335v831zM246 403v-231q11 0 23 2t22 7t16.5 13.5t6.5 22.5v149q0 22 -18 29.5
t-35 7.5h-15zM264 378q2 0 5 0.5t5 0.5q12 0 17 -11.5t6 -26.5t0 -29.5t-1 -20.5q0 -8 1 -24t-1 -32t-9 -28t-23 -12v183zM246 719v-186q26 0 40 7t20.5 20t7.5 30.5t1 38.5v9q0 7 -0.5 14.5t-0.5 13.5v10q-6 23 -16 33.5t-34 10.5q-2 0 -9 -0.5t-9 -0.5zM264 701
q12 0 18.5 -7t9.5 -17t3.5 -21t0.5 -20q0 -18 -1.5 -31t-5.5 -35q-4 -5 -11 -9t-14 -4v144z" />
    <glyph glyph-name="C" unicode="C" horiz-adv-x="567" 
d="M284 902q-34 0 -69.5 -4t-68 -16t-60 -32.5t-45.5 -53.5q-10 -18 -20.5 -42t-10.5 -45v-504q0 -58 25 -98t64.5 -65.5t89 -37t98.5 -11.5q83 0 136 21.5t83 62.5t41 100t11 135v15q0 10 -0.5 20t-0.5 17v9l-6 6h-237l-6 -6q0 -8 -1 -27.5t-2 -41t-2 -41t-1 -27.5
q0 -3 -1 -10t-2 -14.5t-2 -14.5t-1 -10q-2 -5 -5 -6t-8 -1q-11 0 -14.5 11t-3.5 20v473q0 3 1 8.5t3 11.5t5.5 11t8.5 6q2 1 7 -1.5t6 -4.5q0 -3 1 -9t2 -13t2 -13t1 -9q1 -10 2 -35.5t2 -54.5t1.5 -54.5t0.5 -35.5l6 -6h237l6 6v10q0 10 0.5 22t0.5 24v20q0 78 -9 140.5
t-37.5 105.5t-83 66t-144.5 23zM280 883q98 0 151 -29.5t77 -80.5t28 -120t4 -149h-216v198q0 17 -10.5 27.5t-25.5 10.5t-28.5 -6.5t-13.5 -24.5v-522q0 -17 12.5 -24.5t26.5 -7.5q10 0 16.5 4.5t10.5 12t6 16t3 17.5q0 9 1 31t2 47t2 47t1 31h213q0 -73 -7 -136.5
t-33 -111t-77 -74.5t-139 -27q-51 0 -97 13.5t-81 40.5t-56 68t-21 96v454q0 51 23 88.5t59 62t80.5 36.5t88.5 12z" />
    <glyph glyph-name="D" unicode="D" horiz-adv-x="554" 
d="M10 12h385q26 0 52.5 10t48 27.5t35 41t13.5 51.5v584q0 36 -18 64.5t-46.5 48.5t-62.5 31t-66 11h-341v-869zM29 862h291q37 0 73.5 -9t65.5 -28.5t47.5 -50t18.5 -73.5v-534q0 -32 -13 -57.5t-34.5 -43t-49.5 -26.5t-58 -9h-341v831zM246 720v-548q25 0 43.5 11
t18.5 40v466q0 8 -5 14t-12 9.5t-15.5 5.5t-14.5 2h-15zM264 695h7q9 0 13.5 -8.5t4.5 -16.5v-428q0 -5 -1 -12.5t-3.5 -15t-7.5 -13t-13 -5.5v499z" />
    <glyph glyph-name="E" unicode="E" horiz-adv-x="436" 
d="M10 12h416v202h-155v149h130v183l-12 15h-118v118h136v202h-397v-869v0zM35 862h354v-164h-137v-162h124v-155h-124v-186h149v-164h-366v831v0z" />
    <glyph glyph-name="F" unicode="F" horiz-adv-x="418" 
d="M10 12h252v351h133v184l-12 15h-118v118h143v202h-398v-870v0zM29 864h360v-165h-143v-162h124v-155h-127v-351h-214v833v0z" />
    <glyph glyph-name="G" unicode="G" horiz-adv-x="560" 
d="M274 900q-52 0 -99.5 -12.5t-84 -38.5t-58.5 -67t-22 -99v-484q0 -46 19.5 -84t51 -65t72.5 -42t83 -15q40 0 69 9t59 35q1 -2 5.5 -9t6.5 -9q1 -2 3.5 -4l2.5 -2h168v484h-283q0 10 -0.5 34.5t-1 52t-1 52t-0.5 34.5q0 3 1 9t2 13t2 13t2 9q0 1 2 3.5t4 2.5l15 -12v-156
l16 -12h229l13 12v6q0 6 0.5 13.5t0.5 14.5v13q0 73 -14 129.5t-46.5 94.5t-85.5 57.5t-131 19.5zM274 882q80 0 130.5 -23t79 -64.5t39 -100t10.5 -129.5h-213q0 6 -1 22t-2 34t-2 34t-1 22q-1 11 -1.5 22t-3.5 20t-10 14.5t-20 5.5q-33 0 -33 -38v-502q0 -17 8 -30.5
t26 -13.5q13 0 21 7t12 17t5.5 22t1.5 23q1 14 0.5 35.5t-1 42t-1 35l-0.5 14.5h-35v127h248v-447h-136l-19 50h-6q-26 -35 -58.5 -52t-75.5 -17q-45 0 -82.5 17.5t-65.5 47.5t-43.5 69.5t-15.5 83.5v422q0 57 17.5 100t49.5 72t77 43.5t101 14.5zM264 283v52l31 -6v-130
q0 -5 -5 -12t-10 -7h-3q-8 4 -10.5 18.5t-3.5 31.5t0 32.5t1 20.5z" />
    <glyph glyph-name="H" unicode="H" horiz-adv-x="560" 
d="M10 12h257v347h25v-347h258v869h-258v-292h-25v292h-257v-869v0zM35 862h214v-292h62v292h214v-831h-214v347h-62v-347h-214v831v0z" />
    <glyph glyph-name="I" unicode="I" horiz-adv-x="269" 
d="M10 12h249v871h-249v-871v0zM29 864h211v-833h-211v833v0z" />
    <glyph glyph-name="J" unicode="J" horiz-adv-x="349" 
d="M10 12h205q19 0 41 8.5t40.5 23t30.5 33.5t12 40v764h-251v-658q0 -6 -8.5 -17t-13.5 -11h-56v-183zM29 171q7 0 20 1.5t25.5 6t22 12.5t9.5 20v651h214v-726q0 -25 -12.5 -44t-31.5 -32.5t-42 -21t-44 -7.5q-9 0 -32 -0.5t-48.5 -1t-48.5 -1t-32 -0.5v143z" />
    <glyph glyph-name="K" unicode="K" horiz-adv-x="585" 
d="M10 6h251v205l53 -193l13 -12h235q11 0 12.5 9.5t1.5 15.5q0 2 -0.5 6.5t-0.5 5.5l-131 441l118 360q1 1 1 6v8v12t-7 11h-223q-4 0 -8.5 -9t-4.5 -10l-59 -179v198h-251v-875zM29 862h214v-310l9 13l93 297h199l-122 -378l133 -453h-222q-3 12 -9.5 37t-14 57t-16.5 67
t-17 67t-14.5 57.5t-9.5 37.5q-1 2 -4 9t-5 9v-341h-214v831z" />
    <glyph glyph-name="L" unicode="L" horiz-adv-x="405" 
d="M10 6h372l13 12v180l-13 16h-121v667h-251v-875v0zM29 862h214v-664l9 -9h118v-158h-341v831v0z" />
    <glyph glyph-name="M" unicode="M" horiz-adv-x="728" 
d="M10 18l12 -12h215v279l40 -254q0 -2 2.5 -9.5t3.5 -9.5t3 -4t3 -2h149q5 0 8.5 5.5t6 12t3.5 12.5t1 7l7 45.5t10 69.5t10 69.5l7 45.5v-267h214l13 12v863h-311q-8 0 -13 -30t-9.5 -70.5t-9 -80.5t-11.5 -61l-38 242h-316v-863zM29 863h273q1 0 3 -2.5t3 -3.5
q1 -2 3 -14t3 -17q2 -13 6 -40t9 -60.5t10.5 -71t10.5 -71t8.5 -60t5.5 -39.5l6 19q1 12 4.5 38t8 58t9 68t9 68.5t8 58.5t5.5 38q1 7 3 19t3 12h279v-832h-189v546l-78 -546h-133l-81 534v-534h-189v832z" />
    <glyph glyph-name="N" unicode="N" horiz-adv-x="542" 
d="M10 6h205l16 12v224l75 -236h213l13 12v851l-13 13h-208v-255l-88 255h-213v-876v0zM29 863h178l123 -366v366h177v-832h-185l-107 354l-9 12v-366h-177v832v0z" />
    <glyph glyph-name="O" unicode="O" horiz-adv-x="554" 
d="M277 901q-43 0 -90 -12t-86.5 -36.5t-65 -62t-25.5 -88.5v-509q0 -35 17 -70t44 -64t61.5 -47t69.5 -18h149q36 0 70.5 18t62 47t44 64t16.5 70v509q0 51 -25.5 88.5t-65 62t-86.5 36.5t-90 12zM277 876h12h19t19 -0.5t12 -0.5q38 -8 71.5 -25t59 -43.5t40.5 -60.5
t15 -75v-454q0 -51 -21 -89.5t-55.5 -64t-78.5 -38.5t-90 -13q-47 0 -92 12.5t-80 37.5t-57 63.5t-22 91.5v454q0 52 21.5 91t56 64t79 37.5t91.5 12.5zM280 739q-14 0 -24 -8.5t-10 -22.5v-528q0 -17 7.5 -21t21.5 -4t23.5 8t9.5 23v522q0 11 -8.5 21t-19.5 10zM281 715
l2 -1l6 -25v-478q0 -1 -0.5 -5t-1.5 -9l-2 -10t-2 -7q0 -1 -2.5 -3.5t-3.5 -2.5q-4 1 -6.5 6t-4 10t-2 9.5t-0.5 5.5v478q0 2 0.5 7t2.5 10.5t5.5 10t8.5 4.5z" />
    <glyph glyph-name="P" unicode="P" horiz-adv-x="523" 
d="M10 18l12 -12h230l16 12v323q20 1 46.5 2.5t53.5 5.5t53 12t46.5 22.5t33 36t12.5 52.5v266q0 36 -19 62.5t-47.5 44.5t-62.5 27t-64 9h-298l-12 -12v-851zM35 863h124q27 0 62.5 1t73 -1.5t73 -10t64 -24t45.5 -44.5t17 -70v-224q0 -47 -26 -72.5t-64 -38t-80.5 -15.5
t-74.5 -4v-329h-214v832zM252 720v-213q23 0 42.5 8.5t19.5 36.5v124q0 23 -18 33.5t-38 10.5h-6zM271 695h3q10 0 15 -10.5t6.5 -24t1 -26t-0.5 -16.5q0 -6 0.5 -20t-1 -29t-7 -26t-17.5 -11v163z" />
    <glyph glyph-name="Q" unicode="Q" horiz-adv-x="560" 
d="M274 900q-125 0 -194.5 -68t-69.5 -193v-366q0 -45 8.5 -87t28 -76.5t51.5 -60t80 -37.5q1 0 6.5 -1t11.5 -2t11.5 -2t7.5 -1q5 -2 8.5 -17.5t12.5 -33.5t25.5 -33t46.5 -15h242v140h-118q1 6 19.5 16t40.5 27.5t40 45t18 69.5v484q0 55 -25.5 94.5t-66 65.5t-89.5 38.5
t-95 12.5zM240 25q-39 2 -76 16.5t-65.5 39.5t-46 59.5t-17.5 76.5v472q0 49 22 84t56.5 57.5t77 33.5t82.5 11q49 0 95.5 -12.5t82.5 -38t58 -65.5t22 -95v-428q0 -29 -6 -59t-25 -53q-5 -6 -21.5 -16.5t-33.5 -21t-30.5 -18.5t-13.5 -9q0 -19 10 -25.5t27 -8.5
q5 -1 18.5 -2t28 -2t28 -1.5t18.5 -0.5v-96q-11 0 -38 0.5t-58 1t-58 1t-38 0.5q-27 1 -44.5 7t-28 18t-16.5 30.5t-10 43.5zM283 739q-9 0 -20 -7t-11 -18v-540q0 -9 10 -17t18 -8q9 0 15.5 5t10.5 12.5t6 16.5t2 16v502q0 14 -8.5 26t-22.5 12zM280 714h3q5 -3 7.5 -9.5
t3.5 -13.5t1 -14v-7v-440l-6 -50q0 -1 -2 -3t-4 -3l-3 -1q-1 0 -2 0.5l-1 0.5q-2 2 -4 9t-2 9v503q0 2 2 9.5t4 9.5h3z" />
    <glyph glyph-name="R" unicode="R" horiz-adv-x="542" 
d="M10 18l12 -12h230l16 12v361q10 -5 17.5 -16t7.5 -22v-335h226l13 12v336q0 33 -16.5 57.5t-39.5 47.5q21 17 32.5 37t17 42t6 46t0.5 49q0 71 -13.5 117.5t-38.5 74.5t-61 40.5t-80.5 16.5t-97 2.5t-111.5 -1.5h-29t-36 -0.5t-33 -0.5h-16l-6 -6v-858zM29 857l6 6
q1 0 11.5 0.5t23.5 0.5h28h22q55 0 106 1.5t95 -2t79.5 -15t60.5 -37.5t39 -69t14 -109q0 -26 -1.5 -50.5t-9 -45.5t-22.5 -38t-42 -27q-4 -2 -16 -3.5t-15 -9.5q57 -20 80.5 -54t24.5 -95q0 -16 0.5 -55.5t1 -84t1 -84t0.5 -55.5h-205v329q0 23 -18.5 33.5t-37.5 10.5h-3
q-2 -2 -5.5 -4t-3.5 -3v-366h-214v826zM255 721q-1 0 -2 -0.5l-1 -0.5q-2 -1 -4 -3t-2 -3v-174q0 -1 2 -3t4 -3h3q17 0 35 7.5t18 29.5v112q0 20 -18.5 29t-34.5 9zM271 696q6 -5 11.5 -11t7.5 -14v-41q0 -3 1 -14.5t0 -24.5t-5.5 -23t-14.5 -9v137z" />
    <glyph glyph-name="S" unicode="S" horiz-adv-x="548" 
d="M16 345v-171q0 -38 16.5 -68.5t43.5 -53t60 -37t66 -21.5h15t23 -0.5t22 -0.5h15q39 0 84.5 7t85 26t65.5 52t26 84v161q0 49 -23 87t-57.5 69t-75 56t-74.5 49q-1 1 -3.5 4t-2.5 5h211l6 10v7t0.5 14t0.5 15v13q0 70 -13.5 117.5t-44 76.5t-80 42t-121.5 13
q-37 0 -81 -8.5t-81.5 -28t-63 -51.5t-25.5 -80v-162q0 -18 7 -36.5t17.5 -36t24 -32.5t26.5 -25q7 -6 25.5 -19.5t39 -29t39 -29t26.5 -18.5h-199zM32 323h195q0 -7 1 -23.5t2 -35.5t2 -35.5t2 -23.5q2 -24 6.5 -37.5t30.5 -13.5q14 0 22.5 6.5t13.5 16t6.5 22t1.5 24.5
q0 33 -7.5 62.5t-36.5 50.5l-174 124q-23 16 -37 38.5t-21 48t-9 52.5t-2 53q0 62 13.5 104.5t42 69t72.5 38.5t105 12q76 0 123.5 -14.5t73.5 -45.5t35.5 -81t9.5 -120h-204v105q0 2 -3.5 5t-8.5 6t-9.5 5t-6.5 3h-3q-11 0 -21.5 -10.5t-12.5 -20.5q-1 -5 -1 -19v-18
q0 -35 14 -58.5t36.5 -41.5t50 -33.5t55.5 -34.5q42 -29 67.5 -55.5t39.5 -56.5t19 -66.5t5 -85.5q0 -123 -58 -175t-182 -52q-85 0 -134 21t-74.5 61t-32.5 97.5t-7 131.5zM258 313q12 0 18.5 -11t9.5 -25t3.5 -27.5t0.5 -19.5v-19t-1 -18q-2 -5 -5.5 -12t-9.5 -7h-3
q-3 2 -8 6.5t-5 5.5v127zM252 671v10t1.5 14.5t4.5 13.5t10 6q1 0 2 -0.5l1 -0.5q2 -2 4 -6t2 -6v-93q-18 12 -21.5 27t-3.5 35z" />
    <glyph glyph-name="T" unicode="T" horiz-adv-x="529" 
d="M137 12h255v667h127v202h-509v-202h127v-667v0zM156 698h-127v164h471v-164h-127v-667h-217v667v0z" />
    <glyph glyph-name="U" unicode="U" horiz-adv-x="554" 
d="M10 882v-615q0 -144 67.5 -209t208.5 -65q20 0 42 1t44 4.5t42 11t37 21.5q16 13 32.5 29.5t30 35.5t22 40t8.5 44v702h-252v-658l-9 -44l-1 -0.5t-2 -0.5l-3 1q-2 2 -5.5 6.5t-3.5 6.5v689h-258zM35 863h214v-689q0 -11 12 -15t20 -4q13 0 21.5 13t8.5 25v670h214v-652
q0 -49 -21 -86.5t-54.5 -62.5t-76.5 -37.5t-87 -12.5q-37 0 -81 10t-81.5 31t-63 54t-25.5 79v677z" />
    <glyph glyph-name="V" unicode="V" horiz-adv-x="616" 
d="M135 12h364l107 807v62h-255q-1 0 -3 -2t-3 -4q-1 -3 -3 -17.5t-3 -20.5q-1 -10 -3 -31t-4.5 -47t-5.5 -55t-5.5 -55t-4 -47t-2.5 -31h-6l-31 285q0 2 -2.5 9t-3.5 10q-1 2 -3.5 4t-3.5 2h-248l-12 -12zM28 862h227l53 -540l6 -18l50 558h226l-109 -831h-328z" />
    <glyph glyph-name="W" unicode="W" horiz-adv-x="921" 
d="M110 12h298q1 0 3 2t3 4t3 12t3 13q2 15 7.5 52t11.5 78.5t11 78.5t7 52q2 -13 7.5 -45.5t11.5 -69.5t11.5 -69.5t7.5 -45.5q1 -6 2.5 -15.5t3.5 -18.5t4 -15.5l2 -6.5l6 -6h292q1 0 3 2t3 4q2 2 4 9.5t3 9.5l93 801v19v19q0 1 -2.5 3.5t-3.5 2.5h-242l-38 -305l-6 -12
l-25 292q0 2 -2.5 9t-3.5 10l-6 6h-243l-12 -13l-37 -292l-7 13l-25 292h-242q-6 0 -6 -8v-10v-13zM30 863h210l45 -565l62 565h225l48 -587l62 587h210l-97 -832h-269l-68 430l-63 -430h-267z" />
    <glyph glyph-name="X" unicode="X" horiz-adv-x="579" 
d="M9 37q0 -4 0.5 -11t0.5 -8q0 -2 2.5 -4t3.5 -2h241l26 168h6l38 -149l4 -9.5t8 -9.5h224q6 0 6 8v11v12l-112 453l68 336v49h-205l-12 -12l-25 -118l-25 118l-12 12h-230q-3 0 -4.5 -3.5t-2 -7.5t-0.5 -8v-3q0 -3 0.5 -8.5t0.5 -6.5l75 -350l-75 -439q0 -1 -0.5 -7.5
t-0.5 -10.5zM28 31l79 465l-78 367h208l46 -218l46 218h180l-74 -365l113 -467h-197l-1.5 4t-3.5 10t-4 12.5t-3 10.5q-2 9 -6.5 29t-10 45t-11.5 53t-11.5 53t-10 44.5t-6.5 29.5l-45 -291h-210z" />
    <glyph glyph-name="Y" unicode="Y" horiz-adv-x="567" 
d="M156 12h242v311l159 528v12v10q0 9 -6 9h-229l-39 -180l-6 -7l-31 168q0 2 -2 6.5t-4 6.5q-1 2 -3.5 4l-2.5 2h-218q-1 0 -3.5 -2t-2.5 -4q0 -1 -0.5 -8.5t-0.5 -11.5t0.5 -10.5t0.5 -7.5l146 -503v-323zM181 329l-154 534h197l53 -310l6 18q3 15 10 52t15 78.5t15 78.5
t10 52q1 5 3.5 14t2.5 11q1 2 3 4t4 2h192l-158 -522v-310h-199v298z" />
    <glyph glyph-name="Z" unicode="Z" horiz-adv-x="455" 
d="M10 12h435v202h-148l148 463v205h-416v-202h135l-154 -513v-155zM29 155l164 543h-146v165h379v-168l-149 -466q-1 -2 -3 -12t-3 -12q0 -2 0.5 -5t0.5 -5h154v-164h-397v124z" />
    <glyph glyph-name="bracketleft" unicode="[" horiz-adv-x="278" 
d="M10 137h256v149q0 1 -2 3t-4 3q-3 1 -14.5 3t-15.5 3v518q4 0 15.5 2t14.5 4q2 0 4 2.5t2 3.5v149h-256v-840zM28 959h220v-122h-41v-551q0 -1 2 -3.5t3 -2.5q5 -2 18.5 -4t17.5 -2v-113h-220v798z" />
    <glyph glyph-name="backslash" unicode="\" horiz-adv-x="446" 
d="M249 137l12 -12h167q2 0 4 2t2 4q0 1 0.5 8t0.5 11q0 3 -0.5 9.5t-0.5 7.5l-233 806l-4 9t-8 9h-173q-6 0 -6.5 -8t-0.5 -10t0.5 -6.5t0.5 -5.5zM269 143l-240 830h148l241 -830h-149z" />
    <glyph glyph-name="a" unicode="a" horiz-adv-x="529" 
d="M9 205q0 -47 6 -86t24.5 -66.5t51.5 -43t87 -15.5q27 0 50.5 5.5t48.5 19.5l12 -13h217l13 13v490q0 40 -9.5 81t-30 74t-53.5 54t-81 21h-155q-17 0 -38.5 -8t-36.5 -17q-35 -22 -56 -46.5t-32 -53.5t-14.5 -62.5t-3.5 -73.5q0 -8 0.5 -22t0.5 -15l12 -16h131
q-5 -2 -17.5 -8t-26.5 -13.5t-26.5 -14.5t-16.5 -10q-23 -16 -35 -36t-17 -42.5t-5 -46.5v-49zM254 603q-10 0 -20 -10.5t-10 -21.5v-124h-192q0 71 8.5 123t34.5 85.5t72.5 49.5t123.5 16q76 0 121.5 -17.5t69 -52t30.5 -86t8 -118.5q0 -16 0.5 -48t1 -73t0.5 -87
q0 -45 0.5 -86t0.5 -74v-48h-204v50q-15 -17 -28 -29t-27.5 -19.5t-31.5 -11t-40 -3.5q-21 0 -45.5 5.5t-44.5 17.5t-33.5 31t-13.5 46v174q0 26 19 45.5t47 35t61 27.5t61 23t47 23t19 26v99q0 15 -10.5 23.5t-24.5 8.5zM227 217q0 -11 -0.5 -24.5t1.5 -26.5t9.5 -21.5
t22.5 -8.5q9 0 19 3t10 16v193q-19 -13 -31 -26.5t-19 -29t-9.5 -34t-2.5 -41.5zM245 214q0 26 5 47.5t21 42.5v-130q0 -4 -4.5 -10.5t-8.5 -8.5q-7 2 -10 9.5t-3.5 16.5t0 18t0.5 15zM252 577l3 1q8 0 11.5 -8t4.5 -18.5t0.5 -20t-0.5 -13.5v-18q0 -9 -2.5 -17t-8 -13
t-16.5 -5v24q0 15 0.5 30.5t2.5 30.5t5 27z" />
    <glyph glyph-name="b" unicode="b" 
d="M255 25h4q15 -7 27.5 -12.5t24 -9.5t24 -6.5t29.5 -2.5q26 0 54.5 8t52.5 23.5t39.5 38.5t15.5 54v529q0 15 -10 31.5t-25 30t-32.5 22.5t-32.5 9h-111q-16 0 -29.5 -9t-30.5 -9v161h-233l-12 -13v-851l12 -13h212q2 3 9 10l9 9h3zM240 75q-1 -2 -3.5 -9.5t-5.5 -15
t-5.5 -13.5t-4.5 -6h-186v833h202v-193q18 13 33.5 22.5t31 16t32.5 9.5t39 3q19 0 42.5 -5.5t44 -16.5t34 -29t13.5 -43v-485q0 -30 -11.5 -53.5t-31 -39.5t-45 -24t-52.5 -8q-39 0 -70 13t-57 44zM267 604q-11 0 -19 -10.5t-8 -21.5v-398q0 -16 7.5 -27t23.5 -11
q12 0 18 5t9 13.5t3.5 18.5t0.5 20v354q0 20 -6 38.5t-29 18.5zM259 541l6 37l2 1q1 0 2.5 -0.5l1.5 -0.5q2 -1 4 -3t2 -3v-404l-6 -12q-1 0 -3.5 2t-2.5 4q-2 5 -4 19t-2 18v342z" />
    <glyph glyph-name="c" unicode="c" horiz-adv-x="523" 
d="M9 379q0 -79 3.5 -149t27 -122.5t74.5 -83t147 -30.5q69 0 117.5 18.5t78.5 54t43.5 86t13.5 115.5v12t-0.5 16t-0.5 14v7l-6 6h-205l-6 -6q0 -7 -1 -25t-2 -37.5t-2 -37t-2 -24.5q0 -2 -0.5 -7t-2 -10.5t-4.5 -10t-8 -4.5q-3 0 -3 1q-3 3 -5.5 9.5t-4 13.5t-2.5 13t-1 7
v341l6 31q1 1 3 1q3 0 4 -1q2 -2 5.5 -6t3.5 -6v-118l16 -12h211l6 6q0 2 0.5 16.5t0.5 22.5q0 34 -3.5 67t-14 62.5t-30.5 54.5t-53 44q-7 4 -17 9t-21 10t-22 8.5t-20 3.5h-143q-30 0 -59.5 -15t-53.5 -38.5t-40.5 -52t-20.5 -56.5q0 -3 -1 -11t-2 -16.5t-2 -16.5t-1 -11
v-29q0 -20 -0.5 -43t-0.5 -43v-28zM258 721q66 0 111.5 -17.5t73.5 -50.5t40.5 -81.5t12.5 -111.5h-197v124q0 11 -11.5 15t-19.5 4q-12 0 -20 -10t-8 -22v-391q0 -17 9.5 -30.5t27.5 -13.5q11 0 22.5 9t11.5 23v136h185q0 -37 -2 -74.5t-12 -72t-30.5 -63.5t-56.5 -50
q-14 -8 -33.5 -16.5t-34.5 -8.5h-131q-33 0 -62.5 16.5t-51.5 42.5t-34.5 58t-12.5 63v360q0 43 22 73.5t55 50t72 29t74 9.5z" />
    <glyph glyph-name="d" unicode="d" 
d="M228 740h-112q-24 0 -43.5 -14t-33.5 -34.5t-21.5 -44.5t-7.5 -44v-466q0 -33 12.5 -59t34 -45t49.5 -29t59 -10q15 0 29.5 4t28.5 8.5t26.5 8.5t24.5 4h3q2 -2 9.5 -6.5t9.5 -6.5h230v877h-246v-162zM174 722q38 0 65.5 -12t59.5 -32v186h208v-833h-208v38
q-17 -13 -31.5 -22.5t-29.5 -16t-32 -9.5t-38 -3q-68 0 -103.5 40.5t-35.5 109.5v398q0 72 36 114t109 42zM268 603q-8 0 -18 -4t-10 -15v-428q0 -11 8.5 -15.5t16.5 -4.5t19.5 3.5t11.5 16.5v428q0 11 -10 15t-18 4zM268 579l3 -1q2 -1 4 -3t2 -3v-398q0 -2 -2 -6t-4 -6
l-1 -0.5t-2 -0.5t-2 0.5l-1 0.5q-2 2 -4 6t-2 6v392q0 2 2 6t4 6l1 0.5t2 0.5z" />
    <glyph glyph-name="e" unicode="e" 
d="M190 740q-38 -8 -70.5 -26t-57 -44.5t-38.5 -60.5t-14 -74v-330q0 -55 23 -95t60.5 -65.5t85 -38t95.5 -12.5q72 0 120.5 19t78 55t42 87.5t12.5 116.5v13t-0.5 16.5t-0.5 14.5v7l-6 7h-218l-6 -7q0 -6 -1 -23t-2 -35.5t-2 -35.5t-1 -24q0 -5 -0.5 -12t-2.5 -14.5
t-5.5 -14t-10.5 -8.5q-6 2 -9 11t-3 13v159h261l6 9v9q0 9 0.5 19.5t0.5 21.5v17q0 76 -10 136t-38.5 102t-80.5 64.5t-136 22.5h-72zM28 370q0 47 1 91.5t7 83.5t20 71.5t40 56t66.5 36.5t99.5 13q90 0 140 -29t74 -78.5t28.5 -115.5t4.5 -141h-269v-196q0 -17 9 -21.5
t22 -4.5q20 0 27.5 12.5t9.5 31.5q1 7 2 26t2 39.5t2 39t1 26.5h186l6 -6q0 -1 0.5 -12.5t0.5 -17.5q0 -29 -1 -53t-6 -54q-4 -25 -19.5 -51.5t-38 -48t-50 -35.5t-54.5 -14h-130q-1 0 -10.5 2t-14.5 4q-65 19 -97.5 54t-45.5 80t-13 99v112zM269 604q-9 0 -19 -4t-10 -16
v-111h56v105q0 10 -9.5 18t-17.5 8zM268 579q1 0 2 -0.5l1 -0.5q2 -2 4 -9t2 -9q0 -4 0.5 -14t1 -21t1 -20.5t0.5 -13.5h-24q0 4 0.5 13.5t1 20.5t1 21t0.5 14q0 2 2 9t4 9l1 0.5t2 0.5z" />
    <glyph glyph-name="f" unicode="f" horiz-adv-x="356" 
d="M50 6h234l15 12v548q5 0 20.5 2t20.5 4q1 0 3.5 2.5t2.5 3.5v140h-81v16l81 13v130l-6 6h-9q-7 0 -17 0.5t-20 0.5h-16q-56 0 -98 -2.5t-70.5 -17.5t-44 -48t-18.5 -95q-3 0 -15 -2.5t-16 -3.5q-2 -1 -4 -3t-2 -3v-131q0 -1 2 -3.5t4 -2.5q4 -2 17 -4t17 -2v-560zM69 584
q-4 1 -17 3t-17 4q-2 0 -4 2t-2 4v93q0 1 2 3.5t4 2.5q3 2 15 4t16 2q3 69 20.5 103t49.5 47.5t79 13.5h112v-101q-27 -2 -44 -2.5t-26 -6.5t-12 -19t-3 -38h85v-112h-47v-556h-211v553z" />
    <glyph glyph-name="g" unicode="g" 
d="M9 54q0 -51 21.5 -83t56 -50.5t77 -25t85.5 -6.5q55 0 105 9t88.5 32.5t61 64.5t22.5 105v628h-224q-1 -4 -8 -11t-11 -8q-5 -1 -12.5 4t-16 11t-17.5 11t-16 5h-112q-19 0 -36.5 -13t-31.5 -31.5t-22.5 -40t-8.5 -39.5v-410q0 -19 8 -36t21 -31.5t28.5 -26.5t29.5 -21
h-81l-6 -9q0 -2 -0.5 -12.5t-0.5 -15.5zM27 69h194q6 -17 14.5 -27.5t26.5 -10.5q4 0 10 0.5t11 2t9 5.5t4 12v91q-11 0 -24 -5.5t-27.5 -12.5t-31 -12.5t-35.5 -5.5q-27 0 -54 8t-48 23.5t-34 39t-13 54.5v366q0 30 11.5 53.5t31 39t44 24t51.5 8.5q21 0 38 -3.5t32 -10.5
t29 -17.5t30 -24.5q5 9 10.5 22t8.5 21h186v-665q0 -3 -2.5 -9.5t-6 -13.5l-6.5 -13t-4 -7q-18 -30 -44.5 -47.5t-57.5 -26.5t-64 -11.5t-64 -2.5q-42 0 -82.5 5.5t-72 22.5t-51 47.5t-19.5 80.5zM246 88q0 1 2 3t4 3q3 2 12.5 6.5t12.5 6.5q0 -2 0.5 -9.5t0.5 -9.5
q0 -11 -1.5 -21t-11.5 -16q-10 5 -14.5 16t-4.5 21zM268 605q-10 0 -16.5 -5t-10.5 -13t-5.5 -17t-1.5 -16v-280q0 -17 5 -33.5t26 -16.5q14 0 22.5 12t8.5 26v311q0 11 -8 21.5t-20 10.5zM259 256v317q0 1 2 3t4 3h3h3l6 -31v-255q0 -4 -2 -18t-4 -19q0 -2 -2.5 -4t-3.5 -3
z" />
    <glyph glyph-name="h" unicode="h" 
d="M10 6h230l15 12v547q0 2 4 6.5t6 6.5l1 0.5t2 0.5t2 -0.5l1 -0.5l9 -25v-547h233l13 12v572q0 53 -29 94.5t-83 54.5h-11q-7 0 -15.5 0.5t-16.5 0.5h-10q-28 0 -53.5 -6t-52.5 -6v142l-15 12h-230v-876zM29 864h202v-179q13 0 26.5 5.5t28.5 12.5t32 12.5t38 5.5
q83 0 117 -43.5t34 -124.5v-522h-208v547q0 8 -11.5 17t-19.5 9q-10 0 -17 -6t-11.5 -15t-6.5 -19t-2 -17v-516h-202v833z" />
    <glyph glyph-name="i" unicode="i" horiz-adv-x="269" 
d="M10 18l12 -12h237v721h-249v-709v0zM35 709h205v-678h-205v678v0zM10 752l12 -12h237v143h-237l-12 -12v-119v0zM35 864h205v-105h-205v105v0z" />
    <glyph glyph-name="j" unicode="j" horiz-adv-x="312" 
d="M10 -86h168q19 0 41 8.5t40.5 23.5t30.5 34t12 40v707h-252v-664q-4 0 -17 -2.5t-17 -3.5q-2 -1 -4 -3t-2 -3v-137zM29 38q29 2 37.5 12.5t8.5 43.5v615h208v-665q0 -32 -13.5 -53t-35.5 -34t-49.5 -18.5t-55.5 -7.5t-54.5 -1.5t-45.5 0.5v108zM53 752l13 -12h236v143
h-236l-13 -13v-118zM78 864h205v-106h-205v106z" />
    <glyph glyph-name="k" unicode="k" horiz-adv-x="529" 
d="M10 18l12 -12h233v124q1 -6 5 -21t8.5 -32t8.5 -31.5t6 -20.5l4.5 -9.5t7.5 -9.5h224v50l-100 381l75 252l0.5 5.5t0.5 8.5v6t-1.5 11t-5.5 6h-200l-33 -81v236h-233l-12 -13v-850zM35 862h201v-341q2 1 5.5 5.5t4.5 6.5l11 33l17 51l17 51l11 33l6 6h169l-82 -268
l107 -408h-194l-6 12q-3 14 -11 49.5t-17 75t-17 74.5t-11 49q-1 3 -4.5 10t-5.5 9v-279h-201v831z" />
    <glyph glyph-name="l" unicode="l" horiz-adv-x="269" 
d="M10 18l12 -12h237v877h-237l-12 -12v-853v0zM35 864h205v-833h-205v833v0z" />
    <glyph glyph-name="m" unicode="m" horiz-adv-x="803" 
d="M10 18l12 -12h227v540q0 1 1.5 6.5t3.5 11t5.5 10t8.5 4.5h3q2 -2 5.5 -6.5t3.5 -6.5v-547l16 -12h227v534q0 1 1 7t3 13t5.5 12.5t9.5 5.5h2l10 -38v-534h226l13 12v572q0 21 -6.5 47t-20 48.5t-33.5 38t-46 15.5h-105q-10 0 -21.5 -5.5t-22.5 -13.5t-21 -16.5
t-16 -14.5q-6 6 -16 14.5t-21 16.5t-22.5 13.5t-21.5 5.5h-106q-1 0 -8 -2t-10 -4q-2 -1 -7.5 -4t-11.5 -6l-11 -5.5l-7 -3.5l-13 13h-236v-709zM35 708h199v-56q15 17 29 30t29 21.5t32.5 13t40.5 4.5q45 0 75.5 -17.5t60.5 -51.5q29 34 59.5 51.5t75.5 17.5q39 0 65.5 -13
t42.5 -36t23 -53.5t7 -65.5v-522h-202v540q0 11 -10 21.5t-20 10.5q-16 0 -27 -10.5t-11 -27.5v-534h-205v553q0 11 -11.5 15t-19.5 4q-5 0 -11 -3t-12 -8t-10 -10.5t-4 -10.5v-540h-196v677z" />
    <glyph glyph-name="n" unicode="n" 
d="M10 6h245v541q0 1 1 5.5t3.5 9.5t5.5 9.5t6 6.5l9 -6v-566h246v609q0 32 -14 55.5t-36.5 39t-50 23t-55.5 7.5q-22 0 -41 -2.5t-39 -10.5q-2 -1 -12.5 -7t-12.5 -6q-3 0 -10 5t-9 8h-236v-721zM29 708h208v-56q26 31 57.5 50t72.5 19q27 0 52.5 -8.5t45 -24t31 -39
t11.5 -53.5v-571h-202v515q0 2 -1 9.5t-3 16.5t-5 17t-6 13q-2 1 -10 1h-9q-12 0 -23 -4t-11 -21v-547h-208v683z" />
    <glyph glyph-name="o" unicode="o" 
d="M262 740q-47 0 -92 -11.5t-80.5 -36.5t-57.5 -64t-22 -93v-355q0 -56 22.5 -92.5t59 -57.5t82 -29t91.5 -8q65 0 110 13.5t74 38t44.5 59.5t23 77.5t8.5 92.5t1 105v137q-4 59 -24.5 101.5t-54.5 69.5t-81 40t-104 13zM258 721q36 0 78 -9.5t79 -29.5t61.5 -52t24.5 -77
v-366q0 -46 -22.5 -79t-57.5 -54.5t-76.5 -31.5t-79.5 -10q-51 0 -94 10t-74.5 33.5t-49.5 61.5t-18 95v298q0 50 18 89t49 66t72.5 41.5t89.5 14.5zM267 598q-5 0 -16 -1.5t-11 -12.5v-435q0 -5 11.5 -12t16.5 -7q11 0 19.5 10.5t8.5 21.5v404q0 20 -6.5 26t-22.5 6z
M259 566l6 12q1 0 3.5 -2.5t2.5 -3.5q2 -5 4 -16.5t2 -14.5v-354l-6 -31q0 -2 -3 -2l-1.5 0.5t-1.5 1.5q-2 1 -4 5.5t-2 6.5v398z" />
    <glyph glyph-name="p" unicode="p" 
d="M10 -93h230l15 12v98q9 0 17 -3.5t16 -8t16 -8t17 -3.5h93q32 0 53.5 19.5t34.5 47.5t18.5 59t5.5 54v398q0 36 -9.5 67t-28.5 53.5t-48 35t-67 12.5q-18 0 -32.5 -1.5t-27 -5t-25.5 -9.5t-29 -15l-4.5 9t-8.5 9h-236v-820zM29 709h205v-50h6q27 27 59 44.5t71 17.5
q21 0 44.5 -7.5t42.5 -21t31.5 -33.5t12.5 -44v-484q0 -28 -11.5 -50t-30.5 -37.5t-43.5 -23.5t-49.5 -8q-22 0 -39.5 5t-33.5 13.5t-31 20t-31 24.5v-149h-202v783zM267 598q-24 0 -28.5 -17t-4.5 -40v-348q0 -8 1 -18.5t4.5 -20.5t10 -17t18.5 -7q11 0 19.5 10.5t8.5 21.5
v410q0 17 -8 21.5t-21 4.5zM268 579q1 0 2 -0.5l1 -0.5l6 -37v-348l-6 -37q0 -1 -3 -1h-2q-1 0 -1 1q-2 1 -4 3t-2 3v410q0 1 2 3t4 3z" />
    <glyph glyph-name="q" unicode="q" horiz-adv-x="529" 
d="M274 -81l15 -12h230v819h-230l-2.5 -2t-3.5 -4q-1 -1 -3 -6.5t-3 -6.5h-3q-8 0 -17 8t-17 11q-20 8 -38.5 10.5t-39.5 2.5q-24 0 -50.5 -6.5t-49 -20t-37.5 -35t-15 -50.5v-503q0 -34 15 -58.5t39 -40.5t53 -24t57 -8q29 0 51.5 2.5t48.5 16.5v-93zM299 68h-10
q-25 -31 -51 -43.5t-64 -12.5q-29 0 -55.5 9.5t-46.5 27.5t-31.5 43t-11.5 57v453q0 27 11.5 48.5t30 37t42.5 24t49 8.5q22 0 38.5 -5.5t31 -14.5t28 -20t29.5 -22q2 -2 6 0.5l4 2.5v46h201v-781h-201v142zM264 597q-18 0 -24.5 -14t-6.5 -31v-366q0 -8 1 -17.5t4.5 -18
t9.5 -14.5t16 -6t16.5 6t9.5 14.5t4 18t1 17.5v360q0 19 -5 35t-26 16zM258 161v410l6 6l7 -12v-404l-7 -6z" />
    <glyph glyph-name="r" unicode="r" horiz-adv-x="387" 
d="M10 6h236l6 6q0 12 0.5 38t1 58.5t1.5 68.5t1.5 68.5t1 58.5t1.5 38q1 40 5.5 61.5t16 33.5t33 17t57.5 12l6 6v261q0 2 -2.5 4t-3.5 3h-19q-26 0 -49.5 -11t-43.5 -27q-1 2 -3 9.5t-4 9.5q0 2 -2.5 4t-3.5 2h-224l-12 -12v-709zM35 708h199v-80q10 17 23 33t28 29t33 21
t40 10v-236q-23 -3 -44.5 -8.5t-38.5 -17t-27.5 -29.5t-10.5 -45v-360h-202v683z" />
    <glyph glyph-name="s" unicode="s" horiz-adv-x="517" 
d="M15 241q0 -68 13.5 -115t43.5 -76.5t77.5 -43t114.5 -13.5q63 0 109 11.5t76 38.5t44 70.5t14 107.5q0 56 -13.5 92.5t-39 62.5t-62.5 46.5t-84 46.5h180v140q0 3 -2.5 9.5t-5.5 13.5t-6 13t-4 7q-23 27 -47.5 44.5t-52 27t-57.5 13t-64 3.5q-58 0 -102.5 -10.5t-75 -35
t-46 -66t-15.5 -103.5q0 -32 3.5 -56.5t12.5 -45.5t25 -40.5t40 -40.5q6 -5 20 -13l28 -16t25.5 -16t13.5 -14h-156l-6 -10q0 -1 -0.5 -13.5t-0.5 -18.5zM39 261h176q0 -5 1 -17.5t2 -26t2 -26t1 -17.5q2 -13 9.5 -28.5t24.5 -15.5q3 0 8.5 1.5t11 4t10 6t4.5 7.5v87
q0 12 -19 25.5t-47 29t-61 34t-61 40t-47 46.5t-19 55v124q0 39 22.5 64t55 40t69 21t64.5 6q27 0 61 -4.5t65.5 -16.5t56.5 -32.5t34 -52.5q9 -30 9 -62v-62h-186v87q0 11 -11.5 15t-18.5 4q-27 0 -31 -13t-4 -37q0 -36 18 -59t45.5 -40t60.5 -31t62 -32t50 -42.5t25 -62.5
v-13t0.5 -18.5t0.5 -18.5v-12q0 -110 -49.5 -158t-160.5 -48q-72 0 -117.5 13.5t-71.5 43t-35.5 77t-9.5 115.5zM239 224q0 2 0.5 12t0.5 13q20 -6 25.5 -22t5.5 -34q0 -3 0.5 -9.5t0 -13t-3.5 -11t-9 -4.5q-10 0 -14.5 8t-5.5 19.5t-0.5 23t0.5 18.5zM239 547q0 7 3 19
t14 12h2q2 -2 4 -9.5t3 -9.5q0 -3 0.5 -12t0.5 -20q0 -10 0.5 -19t0.5 -12q-8 0 -13.5 5.5t-8.5 14t-4.5 17t-1.5 14.5z" />
    <glyph glyph-name="t" unicode="t" horiz-adv-x="374" 
d="M50 565v-404q0 -26 6.5 -53t20 -50t35.5 -37.5t53 -14.5h199v137q0 7 -9.5 6.5t-21.5 0.5t-21.5 9t-9.5 33v373q5 0 21.5 2t21.5 4q2 0 4 2.5t2 3.5v124q0 2 -2 4t-4 2q-3 1 -9.5 2t-13.5 2t-13.5 2t-9.5 1v105h-233l-16 -12v-93q-4 -1 -17 -3t-17 -4q-2 0 -4 -2.5
t-2 -3.5v-124q0 -1 2 -3.5t4 -2.5q4 -2 17 -4t17 -2zM29 589v100q4 0 18 2t19 4q2 1 5.5 3t3.5 3v93h205v-102h53v-106h-50v-425q0 -17 9.5 -22t21.5 -6t21.5 -1.5t9.5 -7.5v-102q-9 0 -31 0.5t-46.5 1t-46.5 1t-31 0.5q-14 0 -34 6t-38 16t-30.5 25t-12.5 33v472
q0 1 -3.5 3t-5.5 3q-5 2 -19 4t-18 2z" />
    <glyph glyph-name="u" unicode="u" 
d="M10 715v-547q0 -58 19 -100.5t74 -67.5q3 -2 10 -4t9 -2h99q1 0 8 2t11 4q1 0 5.5 2t10 4.5t10 4.5t5.5 2h3h3q2 -1 6.5 -3t6.5 -4h236v721h-230l-16 -12v-559h-15l-10 43v528h-233zM35 709h202v-541q0 -14 10 -26t24 -12q5 0 14 3.5t11 9.5l9 50v516h202v-684h-205v41
q-6 0 -17.5 -8.5t-28 -18.5t-37 -18.5t-44.5 -8.5q-23 0 -47.5 6t-45 19t-34 33t-13.5 48v591z" />
    <glyph glyph-name="v" unicode="v" horiz-adv-x="523" 
d="M110 6h309l94 658v62h-211q-2 0 -4 -2t-2 -4q-1 -2 -2 -6.5t-2 -10.5t-2 -11.5t-1 -8.5q-2 -15 -5.5 -53t-7 -80.5t-7.5 -80.5t-5 -53l-38 310h-216v-68zM129 25l-105 682h184l56 -471l7 -13l43 484h184l-98 -682h-271z" />
    <glyph glyph-name="w" unicode="w" horiz-adv-x="765" 
d="M4 714l87 -671q0 -5 2.5 -17t3.5 -14t3 -4t3 -2h248l7 6q1 8 4.5 28.5t7 43.5t7 43t5.5 28q1 3 3 12.5t4 12.5q1 -8 3.5 -27.5t5.5 -41t5.5 -41t3.5 -27.5q0 -2 1 -7l2 -10t2 -9t1 -5q1 -2 3 -4t4 -2h253l82 652v68h-205q-1 0 -3 -2t-3 -4t-3.5 -11.5t-2.5 -13.5
q-2 -9 -5.5 -33t-7.5 -50.5t-7.5 -50.5t-4.5 -34l-26 199h-198q-1 0 -3 -2t-3 -4t-3.5 -12t-2.5 -13q-2 -11 -5.5 -39.5t-7.5 -60t-7.5 -60t-4.5 -39.5q-1 11 -4.5 39.5t-7.5 60t-8 60t-5 39.5q0 3 -2.5 13t-3.5 12t-3 4t-3 2h-199zM27 707h175q2 -13 5.5 -40t7.5 -61.5
t9 -72t9 -72t7.5 -61.5t5.5 -40q0 -4 2.5 -16t3.5 -15l50 378h161l6 -6q1 -12 4 -38t7 -58t8 -68t8 -68.5t6.5 -58.5t4.5 -38q0 -4 2.5 -18.5t3.5 -18.5q1 12 4.5 38.5t7.5 59.5t9 69.5t9 69.5t7.5 59t5.5 39q1 5 3 17t3 14t3 4t4 2h170l-84 -682h-223l-43 316l-50 -316
h-223z" />
    <glyph glyph-name="x" unicode="x" horiz-adv-x="523" 
d="M9 25q0 -2 0.5 -10.5t6.5 -8.5h204l26 118q5 -6 9 -25.5t8.5 -40t9 -36.5t10.5 -16h224q3 0 4.5 3.5t2 7.5t0.5 8v4q0 2 -0.5 7.5t-0.5 6.5l-93 335l74 298v50h-211q-6 0 -10.5 -17t-8.5 -38.5t-8.5 -41.5t-9.5 -27l-25 112l-12 12h-193q-6 0 -6.5 -8.5t-0.5 -10.5
t0.5 -6.5t0.5 -5.5l86 -316l-86 -342q0 -1 -0.5 -5.5t-0.5 -6.5zM118 382l-88 325h171l45 -223l6 6l7 38.5t11 58t11.5 58t7.5 38.5q1 2 3 9t4 9q0 2 2.5 4t3.5 2h177l-82 -326l97 -356h-198l-44 211l-6 6l-45 -217h-172z" />
    <glyph glyph-name="y" unicode="y" horiz-adv-x="529" 
d="M60 -87l6 -6h10t20.5 -0.5t23.5 -0.5h19q46 0 96.5 1t94.5 14.5t75 44t39 90.5l75 589v81h-211q-1 0 -3 -2t-3 -4q-2 -3 -4 -10t-3 -9l-18 -248l-6 12l-38 242q0 2 -2 6.5t-4 6.5q-1 2 -3 4t-3 2h-211v-56l120 -607l-70 -15v-135zM78 31q11 1 30.5 3.5t31.5 9.5
q2 0 4.5 2.5t2.5 3.5v43l-122 614h187l70 -461l35 461h188l-79 -632q-3 -27 -14 -52.5t-28.5 -45.5t-41 -32.5t-53.5 -12.5h-211v99z" />
    <glyph glyph-name="z" unicode="z" horiz-adv-x="405" 
d="M10 6h385v171h-136l136 357v192h-373v-161l13 -16h112l-137 -363v-180v0zM29 174l152 400h-140v133h335v-161l-149 -388h149v-133h-347v149v0z" />
    <glyph glyph-name="braceright" unicode="}" horiz-adv-x="278" 
d="M10 137h244l12 12v828h-256v-149q0 -1 2 -3.5t4 -2.5q3 -2 14.5 -4t15.5 -2v-518q-4 -1 -15.5 -3t-14.5 -3q-2 -1 -4 -3t-2 -3v-149zM28 277h36v560h-36v122h220v-798h-220v116z" />
    <glyph glyph-name="asciitilde" unicode="~" horiz-adv-x="530" 
d="M9 569q0 -2 0.5 -10.5t6.5 -8.5h161q5 0 13 13.5t17 33.5t18.5 44.5t18 46t14.5 38t9 21.5q4 -10 14.5 -34.5t21.5 -52t21.5 -52t14.5 -34.5q2 -4 7.5 -14t10.5 -10h155q7 0 7 9v11q0 12 -1 17.5t-6 16.5l-173 376h-141l-188 -400q0 -1 -0.5 -5t-0.5 -6zM216 962h108
l179 -394h-134q-4 0 -8 9l-4 9q-3 7 -14.5 35t-24.5 60.5t-24.5 60.5t-14.5 35q-2 3 -6 12.5t-6 11.5l-6 -6l-92 -227h-141z" />
    <glyph glyph-name="quotesinglbase" unicode="&#x201a;" horiz-adv-x="632" 
d="M10 0h610v72l-12 12h-598v-84v0zM28 60h568v-42h-568v42v0z" />
  </font>
</defs>
</svg>
