<?xml version="1.0" standalone="no"?>
<!DOCTYPE svg PUBLIC "-//W3C//DTD SVG 1.1//EN" "http://www.w3.org/Graphics/SVG/1.1/DTD/svg11.dtd" >
<svg xmlns="http://www.w3.org/2000/svg" xmlns:xlink="http://www.w3.org/1999/xlink" version="1.1">
<metadata>
Created by FontForge 20170731 at Mon Feb 19 16:21:24 2018
 By Aleksey,,,
Copyright (c) 2017 by Svet Simov. All rights reserved.
</metadata>
<defs>
<font id="Colus-Regular" horiz-adv-x="600" >
  <font-face 
    font-family="Colus"
    font-weight="400"
    font-stretch="normal"
    units-per-em="1000"
    panose-1="0 0 5 0 0 0 0 0 0 0"
    ascent="800"
    descent="-200"
    x-height="695"
    cap-height="695"
    bbox="-480 -271 1148 1097"
    underline-thickness="50"
    underline-position="-200"
    unicode-range="U+0020-25CA"
  />
<missing-glyph horiz-adv-x="500" 
d="M410 800v-1000h-317v1000h317zM333 733h-165v-33h65v-37h-66v-33h166v33h-66v37h66v33zM267 604h-100v-104h166v34h-66v70zM233 570v-36h-33v36h33zM333 473h-166v-33h66v-37h-66v-33h100v70h66v33zM333 413h-33v-66h-133v-34h166v100zM333 291h-100v-56h34v23h33v-47
h-100v80h-33v-113h166v113zM333 118h-166v-113h166v113zM300 85v-47h-100v47h100zM333 -18h-166v-33h70l-70 -47v-33h166v33h-102l70 47h32v33z" />
    <glyph glyph-name=".notdef" horiz-adv-x="500" 
d="M410 800v-1000h-317v1000h317zM333 733h-165v-33h65v-37h-66v-33h166v33h-66v37h66v33zM267 604h-100v-104h166v34h-66v70zM233 570v-36h-33v36h33zM333 473h-166v-33h66v-37h-66v-33h100v70h66v33zM333 413h-33v-66h-133v-34h166v100zM333 291h-100v-56h34v23h33v-47
h-100v80h-33v-113h166v113zM333 118h-166v-113h166v113zM300 85v-47h-100v47h100zM333 -18h-166v-33h70l-70 -47v-33h166v33h-102l70 47h32v33z" />
    <glyph glyph-name=".null" horiz-adv-x="0" 
 />
    <glyph glyph-name="nonmarkingreturn" horiz-adv-x="333" 
 />
    <glyph glyph-name="space" unicode=" " horiz-adv-x="250" 
 />
    <glyph glyph-name="exclam" unicode="!" horiz-adv-x="270" 
d="M63 205v2q15 56 11 146l-14 265q-5 84 -31 143v2h208v-2q-27 -56 -31 -143l-15 -265q-4 -90 12 -146v-2h-140zM134 -10q-37 0 -63 25.5t-26 62.5t26 62.5t63 25.5t62 -25.5t25 -62.5t-25 -62.5t-62 -25.5z" />
    <glyph glyph-name="quotedbl" unicode="&#x22;" horiz-adv-x="330" 
d="M31 476q2 28 -1 64l-9 119q-3 38 -8 55h122q-5 -17 -8 -55l-8 -119q-3 -44 -1 -64h-87zM213 476q2 28 -1 64l-9 119q-3 38 -8 55h122q-5 -17 -8 -55l-8 -119q-3 -44 -1 -64h-87z" />
    <glyph glyph-name="numbersign" unicode="#" horiz-adv-x="761" 
d="M719 418h-136l-32 -132h28q90 0 127 35l2 -1l-39 -130h-142l-16 -64q-23 -95 -11 -124l-2 -2h-165l-1 2q14 13 31.5 47.5t28.5 79.5l15 61h-141l-16 -64q-24 -92 -11 -124l-2 -2h-167l-1 2q38 30 62 127l15 61h-21q-80 0 -120 -42l-2 1l32 137h134l33 132h-27
q-80 0 -120 -42l-2 1l32 137h140l15 61q23 95 -3 118l1 2h175l1 -2q-32 -34 -53 -118l-15 -61h140l15 61q23 94 -1 118l1 2h173l1 -2q-32 -34 -53 -118l-15 -61h22q39 0 74 11t53 28l2 -1zM430 286l33 132h-141l-32 -132h140z" />
    <glyph glyph-name="dollar" unicode="$" horiz-adv-x="516" 
d="M499 192q0 -78 -53 -136.5t-138 -71.5v-5q0 -58 13 -78l-1 -2h-130l-1 2q15 21 15 78v4q-84 6 -151 35l-17 160l2 1q64 -96 216 -96q112 0 112 99q0 32 -18 55t-46.5 37t-63 27t-69 29.5t-63 38.5t-46.5 60t-18 89q0 66 46 118t124 70v14q0 59 -15 78l1 2h130l1 -2
q-13 -20 -13 -78v-8q60 -3 123 -17l12 -154h-2q-57 68 -173 68q-51 0 -77.5 -21.5t-26.5 -59.5q0 -31 18 -53t47 -36t63.5 -26.5t69.5 -29t64 -39t47 -61.5t18 -91z" />
    <glyph glyph-name="percent" unicode="%" horiz-adv-x="785" 
d="M178 376q-70 0 -119.5 49t-49.5 120t49.5 120t119.5 49t119.5 -49t49.5 -120t-49.5 -120t-119.5 -49zM136 0v2q41 33 73 97l245 495q28 56 44 101h145v-2q-31 -27 -60 -85l-262 -533q-24 -49 -32 -75h-153zM179 470q29 0 48 20.5t19 54.5t-19 54.5t-48 20.5
q-30 0 -49.5 -21t-19.5 -54q0 -34 20 -54.5t49 -20.5zM607 -19q-71 0 -120 49.5t-49 119.5t49 119.5t120 49.5t120 -49.5t49 -119.5t-49 -119.5t-120 -49.5zM608 79q29 0 48 20t19 51t-19 51.5t-48 20.5q-30 0 -49.5 -20.5t-19.5 -51.5t19.5 -51t49.5 -20z" />
    <glyph glyph-name="ampersand" unicode="&#x26;" horiz-adv-x="684" 
d="M317 -19q-127 0 -201 57.5t-74 155.5q0 53 29.5 103t75.5 72v2q-38 21 -59.5 57t-21.5 79q0 92 71.5 147.5t184.5 55.5q89 0 181 -30l15 -149l-2 -1q-23 31 -71.5 53.5t-106.5 22.5q-59 0 -94.5 -25t-35.5 -64q0 -47 35.5 -73t95.5 -26l209 1q85 0 126 41l2 -1l-21 -140
h-67v-121q0 -100 -72.5 -158.5t-198.5 -58.5zM322 84q64 0 101.5 31.5t37.5 88.5v115h-118q-73 0 -115.5 -30.5t-42.5 -84.5q0 -56 37 -88t100 -32z" />
    <glyph glyph-name="quotesingle" unicode="'" horiz-adv-x="148" 
d="M31 476q2 28 -1 64l-9 119q-3 38 -8 55h122q-5 -17 -8 -55l-8 -119q-3 -44 -1 -64h-87z" />
    <glyph glyph-name="parenleft" unicode="(" horiz-adv-x="314" 
d="M157 -178q-71 128 -100 249t-29 260t29 260t100 249l147 -47v-2q-148 -101 -148 -460t148 -460v-2z" />
    <glyph glyph-name="parenright" unicode=")" horiz-adv-x="314" 
d="M157 840q71 -128 100 -249t29 -260t-29 -260t-100 -249l-147 47v2q148 101 148 460t-148 460v2z" />
    <glyph glyph-name="asterisk" unicode="*" horiz-adv-x="427" 
d="M155 357l-1 2q15 19 13 68l-1 48l-38 -25q-41 -25 -51 -47h-2l-60 101l1 2q23 -2 66 23l39 23l-39 21q-45 24 -65 23l-2 2l60 101h2q10 -22 51 -47l38 -22l1 45q2 47 -13 68l1 2h117l1 -2q-9 -11 -14 -68l-4 -44l43 22q40 21 52 46h2l60 -101l-1 -2q-17 1 -67 -22
l-47 -22l47 -24q45 -23 66 -22l2 -2l-60 -101h-2q-9 22 -52 46l-43 25l4 -47q5 -57 14 -68l-1 -2h-117z" />
    <glyph glyph-name="plus" unicode="+" horiz-adv-x="476" 
d="M451 275h-149v-79q0 -65 17 -89l-1 -2h-159l-2 2q17 24 17 89v79h-52q-77 0 -108 -25l-2 1l15 124h147v84q0 65 -17 89l1 2h160l1 -2q-17 -24 -17 -89v-84h54q74 0 106 26l2 -1z" />
    <glyph glyph-name="comma" unicode="," horiz-adv-x="235" 
d="M113 161q43 0 67.5 -31t24.5 -81q0 -107 -89 -199l-73 33v2q45 38 55 101q-32 5 -53 29.5t-21 57.5q0 37 26 62.5t63 25.5z" />
    <glyph glyph-name="hyphen" unicode="-" horiz-adv-x="384" 
d="M5 265l-2 1l19 114h282q42 0 75 15l2 -1l-16 -115h-276q-56 0 -84 -14z" />
    <glyph glyph-name="period" unicode="." horiz-adv-x="238" 
d="M120 -10q-37 0 -63 25.5t-26 62.5t26 62.5t63 25.5t62 -25.5t25 -62.5t-25 -62.5t-62 -25.5z" />
    <glyph glyph-name="slash" unicode="/" horiz-adv-x="354" 
d="M-26 -104l-1 2q40 33 71 159l137 556q26 102 2 148l1 2h196l1 -2q-27 -30 -41.5 -62.5t-27.5 -85.5l-138 -560q-27 -111 -3 -155l-1 -2h-196z" />
    <glyph glyph-name="zero" unicode="0" horiz-adv-x="694" 
d="M341 -19q-137 0 -210 91.5t-73 256.5q0 167 77 258.5t215 91.5t212 -85.5t74 -252.5q0 -172 -78 -266t-217 -94zM348 80q68 0 106 65.5t38 187.5q0 248 -149 248q-67 0 -104 -63.5t-37 -180.5q0 -257 146 -257z" />
    <glyph glyph-name="one" unicode="1" horiz-adv-x="389" 
d="M286 149q0 -56 15.5 -94t35.5 -53l-1 -2h-232l-1 2q20 15 35.5 53.5t15.5 94.5v398q-72 -3 -122 -50l-2 1l37 166q32 -6 135 -6h134l1 -2q-20 -15 -35.5 -53.5t-15.5 -94.5v-360z" />
    <glyph glyph-name="two" unicode="2" horiz-adv-x="522" 
d="M491 177l2 -1l-32 -182q-49 6 -149 6h-303v3l186 237q67 85 92.5 130.5t26.5 87.5q1 55 -30.5 83.5t-79.5 28.5q-96 0 -154 -81l-2 1l29 153q79 32 165 32q95 0 153 -55t58 -143q0 -60 -27.5 -113.5t-111.5 -147.5l-93 -105h130q44 0 75.5 14.5t64.5 51.5z" />
    <glyph glyph-name="three" unicode="3" horiz-adv-x="542" 
d="M317 408q82 -17 129.5 -68.5t47.5 -127.5q0 -101 -71.5 -164.5t-181.5 -63.5q-103 0 -177 37l-19 139l2 1q27 -43 68.5 -60.5t115.5 -17.5q53 0 88.5 32t35.5 87q0 58 -42 85.5t-115 27.5q-35 0 -57 -2v2l140 233h-97q-93 0 -135 -49l-2 1l35 165q50 -6 147 -6h237v-2z
" />
    <glyph glyph-name="four" unicode="4" horiz-adv-x="556" 
d="M529 149q-42 5 -84 6v-6q0 -56 15.5 -94t35.5 -53v-2h-220v2q20 15 35.5 53.5t15.5 94.5v5h-319v2l126 391q21 64 16 111h188v-2q-26 -23 -46.5 -61t-47.5 -110l-84 -232l167 -1v107q0 83 -19 110l1 2l161 40l1 -2q-26 -28 -26 -111v-146q69 3 104 48l2 -1z" />
    <glyph glyph-name="five" unicode="5" horiz-adv-x="539" 
d="M235 418q124 0 193.5 -52t69.5 -154q0 -103 -75 -165.5t-190 -62.5q-96 0 -168 36l-19 140l2 1q44 -78 173 -78q64 0 101 32.5t37 86.5q0 57 -46 86.5t-118 29.5q-76 0 -126 -10l-2 1l25 351l196 -1q79 0 148 6l28 -175l-2 -1q-25 32 -58 45t-90 13h-123l-9 -133
q25 4 53 4z" />
    <glyph glyph-name="six" unicode="6" horiz-adv-x="616" 
d="M314 -16q-119 0 -187.5 84.5t-68.5 247.5q0 169 81 264t220 95q74 0 137 -15l14 -139l-2 -1q-44 56 -149 56q-68 0 -119.5 -54.5t-58.5 -145.5l2 -1q60 69 155 69t162.5 -58t67.5 -162q0 -101 -68 -170.5t-186 -69.5zM318 82q51 0 81.5 35t30.5 98q0 60 -31 95t-81 35
t-81 -35t-31 -95q0 -63 31 -98t81 -35z" />
    <glyph glyph-name="seven" unicode="7" horiz-adv-x="511" 
d="M492 657l-179 -518q-31 -93 8 -137v-2h-217v2q48 57 78 134l158 402h-181q-96 0 -138 -60l-2 1l31 186q48 -6 141 -6h301v-2z" />
    <glyph glyph-name="eight" unicode="8" horiz-adv-x="583" 
d="M453 349q87 -46 87 -161q0 -94 -69.5 -149t-179.5 -55q-111 0 -180.5 53.5t-69.5 140.5q0 96 92 150q-73 51 -73 143q0 99 64.5 151.5t171.5 52.5q102 0 162.5 -53t60.5 -131q0 -85 -66 -142zM286 576q-43 0 -69 -21.5t-26 -57.5q0 -22 7.5 -37.5t27.5 -27t33 -16.5
t48 -14.5t47 -13.5q40 45 40 93q0 42 -30 68.5t-78 26.5zM301 83q48 0 77 23t29 62q0 15 -4 27.5t-15.5 23t-20 17t-29.5 13.5t-30.5 10.5t-37.5 11t-37 9.5q-57 -32 -57 -92q0 -46 35.5 -75.5t89.5 -29.5z" />
    <glyph glyph-name="nine" unicode="9" horiz-adv-x="609" 
d="M250 -14q-74 0 -137 15l-14 139l2 1q44 -56 149 -56q68 0 119.5 54.5t58.5 145.5l-2 1q-60 -69 -155 -69t-162.5 58t-67.5 162q0 101 68 170.5t186 69.5q119 0 187.5 -84.5t68.5 -247.5q0 -169 -81 -264t-220 -95zM290 316q47 0 80 36.5t33 93.5q0 60 -33 96.5t-80 36.5
q-45 0 -78 -37t-33 -96q0 -56 33.5 -93t77.5 -37z" />
    <glyph glyph-name="colon" unicode=":" horiz-adv-x="232" 
d="M117 350q-37 0 -63 25.5t-26 62.5t26 62.5t63 25.5t62 -25.5t25 -62.5t-25 -62.5t-62 -25.5zM117 -10q-37 0 -63 25.5t-26 62.5t26 62.5t63 25.5t62 -25.5t25 -62.5t-25 -62.5t-62 -25.5z" />
    <glyph glyph-name="semicolon" unicode=";" horiz-adv-x="252" 
d="M122 341q-37 0 -63 25.5t-26 62.5t26 62.5t63 25.5t62 -25.5t25 -62.5t-25 -62.5t-62 -25.5zM120 161q43 0 67.5 -31t24.5 -81q0 -107 -89 -199l-73 33v2q45 38 55 101q-32 5 -53 29.5t-21 57.5q0 37 26 62.5t63 25.5z" />
    <glyph glyph-name="less" unicode="&#x3c;" horiz-adv-x="380" 
d="M345 192l2 -2l-18 -154l-2 -1q-24 30 -62 52l-274 154v76l275 160q41 24 64 49l2 -1l13 -142l-2 -2q-28 2 -57 -15l-142 -82l145 -75q36 -19 56 -17z" />
    <glyph glyph-name="equal" unicode="=" horiz-adv-x="488" 
d="M21 323l-2 1l14 117h329q74 0 106 26l2 -1l-13 -123h-329q-75 0 -107 -20zM20 159l-2 1l15 125h329q69 0 105 20l2 -1l-12 -120h-329q-77 0 -108 -25z" />
    <glyph glyph-name="greater" unicode="&#x3e;" horiz-adv-x="396" 
d="M115 470l274 -154v-76l-275 -160q-41 -24 -64 -49l-2 1l-13 142l2 2q28 -2 57 15l142 82l-145 75q-36 19 -56 17l-2 2l18 154l2 1q24 -30 62 -52z" />
    <glyph glyph-name="question" unicode="?" horiz-adv-x="455" 
d="M176 200l-29 158q161 101 161 198q0 111 -111 111q-57 0 -96.5 -19.5t-74.5 -63.5l-2 1l24 142q78 43 171 43q97 0 159.5 -56t62.5 -142q0 -37 -9.5 -68t-32 -60.5t-39 -46.5t-49.5 -48q-2 -2 -14 -13t-15 -13.5t-14 -13t-15 -14.5l-13.5 -13.5t-14 -15t-12.5 -15
t-13 -17l-11 -16.5t-11 -18h-2zM211 -10q-37 0 -63 25.5t-26 62.5t26 62.5t63 25.5t62 -25.5t25 -62.5t-25 -62.5t-62 -25.5z" />
    <glyph glyph-name="at" unicode="@" horiz-adv-x="808" 
d="M409 -18q-162 0 -263.5 105.5t-101.5 260.5q0 154 101.5 259.5t263.5 105.5q161 0 258 -90.5t97 -241.5q0 -86 -42.5 -151.5t-124.5 -65.5q-89 0 -120 57q-45 -60 -118 -60q-57 0 -94.5 40.5t-37.5 112.5q0 93 49.5 156.5t127.5 63.5q54 0 82 -31l4 31h88v-2
q-11 -9 -16 -35q-14 -91 -23 -190q-3 -29 11 -48.5t44 -19.5q39 0 60.5 38t21.5 90q0 122 -68.5 190.5t-198.5 68.5q-119 0 -193.5 -82.5t-74.5 -195.5q0 -124 73 -200.5t195 -76.5q43 0 80.5 14t50.5 42h2l49 -96q-31 -20 -85 -34.5t-97 -14.5zM382 243q41 0 66 40t25 95
q0 37 -17.5 57t-48.5 20q-43 0 -68.5 -42t-25.5 -89q0 -43 16 -62t53 -19z" />
    <glyph glyph-name="A" unicode="A" horiz-adv-x="676" 
d="M596 164q19 -54 47 -98.5t51 -63.5v-2h-226v2q14 11 15.5 40.5t-15.5 82.5l-9 24h-258l-9 -24q-17 -54 -16 -82.5t14 -40.5v-2h-210v2q58 52 97 162l143 412q12 47 5.5 75t-23.5 42v2h265v-2q-17 -16 -24 -43t6 -74zM327 562q-9 -76 -56 -209l-37 -106h192l-37 106
q-49 138 -58 209h-4z" />
    <glyph glyph-name="B" unicode="B" horiz-adv-x="642" 
d="M444 370q62 -8 106.5 -56t44.5 -109q0 -96 -65 -150.5t-169 -54.5h-304v2q59 45 59 154v384q0 112 -59 153v2h276q226 0 226 -175q0 -55 -35 -97.5t-80 -49.5v-3zM325 597h-72v-180h72q44 0 68.5 24.5t24.5 71.5q0 84 -93 84zM341 98q55 0 83 30.5t28 81.5t-28 80.5
t-83 29.5h-88v-222h88z" />
    <glyph glyph-name="C" unicode="C" horiz-adv-x="657" 
d="M396 -15q-159 0 -255.5 101t-96.5 257q0 168 102 267t274 99q91 0 176 -25l16 -173l-2 -1q-30 46 -80.5 70t-110.5 24q-105 0 -165.5 -67.5t-60.5 -183.5q0 -118 55.5 -190t157.5 -72q77 0 130 28.5t95 83.5l2 -1l-24 -179q-108 -38 -213 -38z" />
    <glyph glyph-name="D" unicode="D" horiz-adv-x="741" 
d="M59 0v2q22 15 38 53t16 95v395q0 52 -16.5 93t-37.5 55v2h290q159 0 253.5 -92.5t94.5 -254.5q0 -167 -91 -257.5t-273 -90.5h-274zM250 99h93q100 0 153 64t53 185q0 127 -52 187.5t-159 60.5h-88v-497z" />
    <glyph glyph-name="E" unicode="E" 
d="M560 192l2 -1l-28 -199q-49 8 -122 8h-353v2q22 15 38 53t16 95v395q0 58 -16 95.5t-38 52.5v2h359q71 0 106 8l17 -179l-2 -1q-36 74 -157 74h-132v-176h76q104 0 156 7l-29 -168h-2q-24 63 -109 63h-92v-225h109q135 0 201 94z" />
    <glyph glyph-name="F" unicode="F" horiz-adv-x="576" 
d="M524 703l18 -187l-2 -1q-49 80 -178 80h-112v-186h88q110 0 150 8l-32 -180h-2q-10 32 -40.5 52t-68.5 20h-95v-159q0 -58 16 -95.5t38 -52.5v-2h-245v2q22 15 38 53t16 95v395q0 118 -53 148v2h335q85 0 129 8z" />
    <glyph glyph-name="G" unicode="G" horiz-adv-x="702" 
d="M503 372h174v-2q-33 -22 -33 -148v-165q-50 -32 -119 -52t-129 -20q-156 0 -254 98.5t-98 254.5q0 172 102 271.5t270 99.5q104 0 190 -27l15 -163l-2 -1q-77 86 -206 86q-104 0 -162.5 -68.5t-58.5 -187.5t57 -188t157 -69q63 0 110 22v163q-101 -2 -149 -52l-2 1
l16 153q33 -6 122 -6z" />
    <glyph glyph-name="H" unicode="H" horiz-adv-x="766" 
d="M707 693q-22 -15 -38 -53t-16 -95v-399q0 -55 16 -92.5t38 -51.5v-2h-242v2q20 15 35.5 52.5t15.5 91.5v175h-266v-171q0 -57 15 -95t36 -53v-2h-242v2q22 15 38 53t16 95v395q0 58 -16 95.5t-38 52.5v2h242v-2q-20 -15 -35.5 -53.5t-15.5 -94.5v-124h266v124
q0 57 -15 95t-36 53v2h242v-2z" />
    <glyph glyph-name="I" unicode="I" horiz-adv-x="364" 
d="M59 0v2q22 15 38 53t16 95v395q0 58 -16 95.5t-38 52.5v2h246v-2q-22 -15 -38 -53t-16 -95v-395q0 -58 16 -95.5t38 -52.5v-2h-246z" />
    <glyph glyph-name="J" unicode="J" horiz-adv-x="449" 
d="M116 -22q-43 0 -100 15l-10 155h2q6 -11 15.5 -22.5t33.5 -25t53 -13.5q112 0 112 112v345q0 58 -16 96t-38 53v2h245v-2q-22 -15 -38 -53t-16 -95v-310q0 -133 -58 -195t-185 -62z" />
    <glyph glyph-name="K" unicode="K" horiz-adv-x="680" 
d="M250 149q0 -57 14.5 -94.5t34.5 -52.5v-2h-240v2q22 15 38 53t16 95v399q0 55 -16 92.5t-38 51.5v2h240v-2q-20 -15 -34.5 -53t-14.5 -95v-396zM602 113q26 -38 50.5 -59.5t60.5 -36.5v-2l-201 -34q-10 37 -49 95l-202 300l169 239q35 50 33 80h208v-2q-57 -27 -118 -111
l-141 -191z" />
    <glyph glyph-name="L" unicode="L" horiz-adv-x="554" 
d="M525 -8q-43 8 -111 8h-355v2q22 15 38 53t16 95v399q0 55 -16 92.5t-38 51.5v2h245v-2q-22 -15 -38 -53t-16 -95v-445h99q135 0 200 90l2 -1z" />
    <glyph glyph-name="M" unicode="M" horiz-adv-x="958" 
d="M33 0l-1 2q54 59 60 145l26 388q3 47 -10 93t-44 65l1 2h229q-21 -27 16 -91l99 -170q50 -86 62 -165h4q15 62 74 165l98 173q35 62 15 88h231l1 -2q-31 -17 -46 -64.5t-12 -93.5l31 -388q8 -94 59 -145l-1 -2h-229l-1 2q16 14 26 47t7 77l-16 207q-6 73 6 172h-4
q-26 -84 -77 -170l-111 -188q-42 -70 -47 -121h-8q-7 52 -50 120l-119 190q-47 76 -72 169h-4q10 -91 6 -172l-11 -207q-4 -91 33 -124l-1 -2h-220z" />
    <glyph glyph-name="N" unicode="N" horiz-adv-x="790" 
d="M59 0v2q22 15 38 53t16 95v400q0 44 -14 84.5t-40 58.5v2h227q3 -33 41 -96l144 -242q42 -71 92 -198h4q-16 91 -16 206v180q0 58 -14.5 96t-36.5 52v2h231v-2q-22 -14 -38 -52.5t-16 -95.5v-395q0 -57 16 -95.5t38 -52.5v-2h-211q-18 43 -50 95l-141 229
q-62 100 -104 228h-4q18 -107 18 -232v-170q0 -58 14.5 -96t36.5 -52v-2h-231z" />
    <glyph glyph-name="O" unicode="O" horiz-adv-x="816" 
d="M400 -20q-164 0 -260 101.5t-96 259.5q0 170 99.5 272t271.5 102q160 0 258.5 -99.5t98.5 -260.5q0 -168 -102.5 -271.5t-269.5 -103.5zM410 84q94 0 153.5 71.5t59.5 189.5q0 126 -58 196t-160 70q-98 0 -155 -71t-57 -189q0 -125 56 -196t161 -71z" />
    <glyph glyph-name="P" unicode="P" horiz-adv-x="614" 
d="M332 695q120 0 186 -59t66 -167q0 -120 -65 -180t-187 -60h-82v-83q0 -55 16 -92.5t38 -51.5v-2h-245v2q22 15 38 53t16 95v399q0 55 -16 92.5t-38 51.5v2h273zM309 328q68 -1 100.5 33.5t32.5 100.5q0 69 -32.5 101.5t-100.5 32.5h-59v-267z" />
    <glyph glyph-name="Q" unicode="Q" horiz-adv-x="816" 
d="M626 41q34 -49 63.5 -74.5t77.5 -42.5v-2l-205 -32q-12 44 -36 82l-14 22q-53 -14 -112 -14q-164 0 -260 101.5t-96 259.5q0 170 99.5 272t271.5 102q160 0 258.5 -99.5t98.5 -260.5q0 -101 -39 -181t-110 -129zM410 84q21 0 44 5l-44 72q-38 60 -87 90v2l168 12
q6 -32 29 -67l35 -52q68 74 68 199q0 126 -58 196t-160 70q-98 0 -155 -71.5t-57 -188.5q0 -125 56 -196t161 -71z" />
    <glyph glyph-name="R" unicode="R" horiz-adv-x="661" 
d="M553 135q58 -93 130 -117v-2l-205 -37q-19 57 -51 111l-155 265h48q134 0 134 124q0 55 -35 87t-99 31l-70 -1v-450q0 -54 15 -91.5t35 -52.5v-2h-241v2q22 14 38 52.5t16 95.5v399q0 55 -16 92.5t-38 51.5v2h284q119 0 186 -56.5t67 -154.5q0 -154 -136 -198z" />
    <glyph glyph-name="S" unicode="S" horiz-adv-x="548" 
d="M267 -15q-133 -2 -202 40l-17 168l2 1q83 -108 207 -105q116 3 116 90q0 25 -9.5 44t-31 33.5t-38.5 23t-50 22.5q-35 14 -53.5 23t-47.5 28t-44 39.5t-27 53t-12 72.5q0 79 64.5 134.5t175.5 55.5q76 0 157 -21l13 -164h-2q-53 82 -158 82q-115 0 -115 -77
q0 -21 8.5 -37t29 -29.5t36 -21t47.5 -20.5q30 -13 46 -20t43.5 -22.5t42.5 -31.5t31.5 -38.5t24 -52.5t7.5 -66q0 -87 -63.5 -145t-180.5 -59z" />
    <glyph glyph-name="T" unicode="T" horiz-adv-x="592" 
d="M555 703l17 -183l-2 -1q-18 32 -52.5 53t-77.5 21h-75v-435q0 -61 17.5 -101.5t43.5 -54.5v-2h-259v2q24 14 42.5 55.5t18.5 100.5v435h-76q-43 0 -77.5 -21t-52.5 -53l-2 1l17 183q61 -8 137 -8h244q76 0 137 8z" />
    <glyph glyph-name="U" unicode="U" horiz-adv-x="744" 
d="M367 -17q-135 0 -206 76t-71 227v259q0 57 -16 95t-38 53v2h243v-2q-20 -15 -35.5 -53t-15.5 -95v-270q0 -102 34 -144.5t116 -42.5q73 0 107 45.5t34 141.5v270q0 56 -15.5 94.5t-35.5 53.5v2h240v-2q-22 -15 -38 -52.5t-16 -95.5v-259q0 -303 -287 -303z" />
    <glyph glyph-name="V" unicode="V" horiz-adv-x="695" 
d="M225 0v2q17 17 21 50.5t-12 87.5l-151 419q-33 92 -91 134v2h234v-2q-13 -15 -16 -41t6 -55l88 -254q40 -118 52 -205h4q19 110 52 206l84 251q22 66 -5 98v2h214v-2q-52 -31 -84 -125l-150 -428q-16 -55 -12 -88t21 -50v-2h-255z" />
    <glyph glyph-name="W" unicode="W" horiz-adv-x="1052" 
d="M168 0v2q50 54 23 154l-116 422q-24 91 -68 115v2h242v-2q-21 -18 -28 -51t2 -73l57 -223q20 -79 24 -181h4q23 95 70 191l107 219q35 74 49 126h6q21 -70 49 -125l97 -190q57 -113 79 -221h4q7 101 31 204l49 200q21 82 -25 124l1 2h222v-2q-47 -26 -68 -116l-101 -421
q-22 -94 23 -154v-2h-234v2q30 49 -6 124l-73 156q-37 78 -47 153h-4q-18 -73 -44 -130l-84 -179q-36 -78 -5 -124v-2h-236z" />
    <glyph glyph-name="X" unicode="X" horiz-adv-x="637" 
d="M547 158q64 -93 137 -141v-2l-209 -37q0 36 -63 133l-102 158l-110 -179q-20 -36 -20 -57.5t14 -30.5v-2h-236v2q57 26 124 129l155 239l-158 236q-39 58 -90 87v2h233v-2q-7 -37 27 -95l76 -127l71 122q11 19 16.5 30t9.5 24t3 24t-7 22v2h220v-2q-53 -21 -115 -121
l-123 -202z" />
    <glyph glyph-name="Y" unicode="Y" horiz-adv-x="643" 
d="M461 695h201v-2q-32 -24 -80 -102l-189 -312v-121q0 -61 17.5 -101.5t43.5 -54.5v-2h-259v2q24 14 42.5 55.5t18.5 100.5v116l-192 317q-46 75 -81 102v2h213v-2q-13 -39 23 -102l77 -133q19 -31 31 -65h4q7 20 32 65l76 133q36 63 22 102v2z" />
    <glyph glyph-name="Z" unicode="Z" horiz-adv-x="599" 
d="M573 191l2 -1l-26 -198q-49 8 -134 8h-405v2l341 594h-125q-123 0 -171 -68l-2 1l27 172q46 -6 149 -6h329v-2l-341 -594h153q138 0 203 92z" />
    <glyph glyph-name="bracketleft" unicode="[" horiz-adv-x="328" 
d="M219 -35q65 0 96 14l2 -2l-18 -119q-52 7 -111 7h-154q15 47 15 164v635q0 100 -19 150h158q59 0 111 7l19 -122l-2 -1q-29 16 -97 16h-48v-749h48z" />
    <glyph glyph-name="backslash" unicode="\" horiz-adv-x="334" 
d="M170 -104l-1 2q13 19 13.5 63.5t-12.5 95.5l-136 556q-15 58 -30.5 90.5t-42.5 57.5l1 2h211l1 -2q-35 -35 -7 -148l135 -556q13 -55 33 -100t38 -59l-1 -2h-202z" />
    <glyph glyph-name="bracketright" unicode="]" horiz-adv-x="328" 
d="M279 15q0 -100 19 -150h-158q-59 0 -111 -7l-19 122l2 1q29 -16 97 -16h48v749h-48q-65 0 -96 -14l-2 2l18 119q52 -7 111 -7h154q-15 -46 -15 -164v-635z" />
    <glyph glyph-name="asciicircum" unicode="^" horiz-adv-x="460" 
d="M395 541q26 -39 48 -62v-2h-130q-1 25 -20 55l-65 106l-66 -106q-19 -30 -20 -55h-125v2q17 15 48 62l127 201h76z" />
    <glyph glyph-name="underscore" unicode="_" horiz-adv-x="559" 
d="M8 -146l-2 1l23 145h389q71 0 121 24l2 -1l-17 -123h-395q-81 0 -121 -46z" />
    <glyph glyph-name="grave" unicode="`" 
d="M343 737q-19 26 -62 69t-70 63l88 85l2 -1q5 -25 48 -84t75 -90z" />
    <glyph glyph-name="a" unicode="a" horiz-adv-x="676" 
d="M596 164q19 -54 47 -98.5t51 -63.5v-2h-226v2q14 11 15.5 40.5t-15.5 82.5l-9 24h-258l-9 -24q-17 -54 -16 -82.5t14 -40.5v-2h-210v2q58 52 97 162l143 412q12 47 5.5 75t-23.5 42v2h265v-2q-17 -16 -24 -43t6 -74zM327 562q-9 -76 -56 -209l-37 -106h192l-37 106
q-49 138 -58 209h-4z" />
    <glyph glyph-name="b" unicode="b" horiz-adv-x="642" 
d="M444 370q62 -8 106.5 -56t44.5 -109q0 -96 -65 -150.5t-169 -54.5h-304v2q59 45 59 154v384q0 112 -59 153v2h276q226 0 226 -175q0 -55 -35 -97.5t-80 -49.5v-3zM325 597h-72v-180h72q44 0 68.5 24.5t24.5 71.5q0 84 -93 84zM341 98q55 0 83 30.5t28 81.5t-28 80.5
t-83 29.5h-88v-222h88z" />
    <glyph glyph-name="c" unicode="c" horiz-adv-x="657" 
d="M396 -15q-159 0 -255.5 101t-96.5 257q0 168 102 267t274 99q91 0 176 -25l16 -173l-2 -1q-30 46 -80.5 70t-110.5 24q-105 0 -165.5 -67.5t-60.5 -183.5q0 -118 55.5 -190t157.5 -72q77 0 130 28.5t95 83.5l2 -1l-24 -179q-108 -38 -213 -38z" />
    <glyph glyph-name="d" unicode="d" horiz-adv-x="741" 
d="M59 0v2q22 15 38 53t16 95v395q0 52 -16.5 93t-37.5 55v2h290q159 0 253.5 -92.5t94.5 -254.5q0 -167 -91 -257.5t-273 -90.5h-274zM250 99h93q100 0 153 64t53 185q0 127 -52 187.5t-159 60.5h-88v-497z" />
    <glyph glyph-name="e" unicode="e" 
d="M560 192l2 -1l-28 -199q-49 8 -122 8h-353v2q22 15 38 53t16 95v395q0 58 -16 95.5t-38 52.5v2h359q71 0 106 8l17 -179l-2 -1q-36 74 -157 74h-132v-176h76q104 0 156 7l-29 -168h-2q-24 63 -109 63h-92v-225h109q135 0 201 94z" />
    <glyph glyph-name="f" unicode="f" horiz-adv-x="576" 
d="M524 703l18 -187l-2 -1q-49 80 -178 80h-112v-186h88q110 0 150 8l-32 -180h-2q-10 32 -40.5 52t-68.5 20h-95v-159q0 -58 16 -95.5t38 -52.5v-2h-245v2q22 15 38 53t16 95v395q0 118 -53 148v2h335q85 0 129 8z" />
    <glyph glyph-name="g" unicode="g" horiz-adv-x="702" 
d="M503 372h174v-2q-33 -22 -33 -148v-165q-50 -32 -119 -52t-129 -20q-156 0 -254 98.5t-98 254.5q0 172 102 271.5t270 99.5q104 0 190 -27l15 -163l-2 -1q-77 86 -206 86q-104 0 -162.5 -68.5t-58.5 -187.5t57 -188t157 -69q63 0 110 22v163q-101 -2 -149 -52l-2 1
l16 153q33 -6 122 -6z" />
    <glyph glyph-name="h" unicode="h" horiz-adv-x="766" 
d="M707 693q-22 -15 -38 -53t-16 -95v-399q0 -55 16 -92.5t38 -51.5v-2h-242v2q20 15 35.5 52.5t15.5 91.5v175h-266v-171q0 -57 15 -95t36 -53v-2h-242v2q22 15 38 53t16 95v395q0 58 -16 95.5t-38 52.5v2h242v-2q-20 -15 -35.5 -53.5t-15.5 -94.5v-124h266v124
q0 57 -15 95t-36 53v2h242v-2z" />
    <glyph glyph-name="i" unicode="i" horiz-adv-x="364" 
d="M59 0v2q22 15 38 53t16 95v395q0 58 -16 95.5t-38 52.5v2h246v-2q-22 -15 -38 -53t-16 -95v-395q0 -58 16 -95.5t38 -52.5v-2h-246z" />
    <glyph glyph-name="j" unicode="j" horiz-adv-x="449" 
d="M116 -22q-43 0 -100 15l-10 155h2q6 -11 15.5 -22.5t33.5 -25t53 -13.5q112 0 112 112v345q0 58 -16 96t-38 53v2h245v-2q-22 -15 -38 -53t-16 -95v-310q0 -133 -58 -195t-185 -62z" />
    <glyph glyph-name="k" unicode="k" horiz-adv-x="680" 
d="M250 149q0 -57 14.5 -94.5t34.5 -52.5v-2h-240v2q22 15 38 53t16 95v399q0 55 -16 92.5t-38 51.5v2h240v-2q-20 -15 -34.5 -53t-14.5 -95v-396zM602 113q26 -38 50.5 -59.5t60.5 -36.5v-2l-201 -34q-10 37 -49 95l-202 300l169 239q35 50 33 80h208v-2q-57 -27 -118 -111
l-141 -191z" />
    <glyph glyph-name="l" unicode="l" horiz-adv-x="554" 
d="M525 -8q-43 8 -111 8h-355v2q22 15 38 53t16 95v399q0 55 -16 92.5t-38 51.5v2h245v-2q-22 -15 -38 -53t-16 -95v-445h99q135 0 200 90l2 -1z" />
    <glyph glyph-name="m" unicode="m" horiz-adv-x="958" 
d="M33 0l-1 2q54 59 60 145l26 388q3 47 -10 93t-44 65l1 2h229q-21 -27 16 -91l99 -170q50 -86 62 -165h4q15 62 74 165l98 173q35 62 15 88h231l1 -2q-31 -17 -46 -64.5t-12 -93.5l31 -388q8 -94 59 -145l-1 -2h-229l-1 2q16 14 26 47t7 77l-16 207q-6 73 6 172h-4
q-26 -84 -77 -170l-111 -188q-42 -70 -47 -121h-8q-7 52 -50 120l-119 190q-47 76 -72 169h-4q10 -91 6 -172l-11 -207q-4 -91 33 -124l-1 -2h-220z" />
    <glyph glyph-name="n" unicode="n" horiz-adv-x="790" 
d="M59 0v2q22 15 38 53t16 95v400q0 44 -14 84.5t-40 58.5v2h227q3 -33 41 -96l144 -242q42 -71 92 -198h4q-16 91 -16 206v180q0 58 -14.5 96t-36.5 52v2h231v-2q-22 -14 -38 -52.5t-16 -95.5v-395q0 -57 16 -95.5t38 -52.5v-2h-211q-18 43 -50 95l-141 229
q-62 100 -104 228h-4q18 -107 18 -232v-170q0 -58 14.5 -96t36.5 -52v-2h-231z" />
    <glyph glyph-name="o" unicode="o" horiz-adv-x="816" 
d="M400 -20q-164 0 -260 101.5t-96 259.5q0 170 99.5 272t271.5 102q160 0 258.5 -99.5t98.5 -260.5q0 -168 -102.5 -271.5t-269.5 -103.5zM410 84q94 0 153.5 71.5t59.5 189.5q0 126 -58 196t-160 70q-98 0 -155 -71t-57 -189q0 -125 56 -196t161 -71z" />
    <glyph glyph-name="p" unicode="p" horiz-adv-x="614" 
d="M332 695q120 0 186 -59t66 -167q0 -120 -65 -180t-187 -60h-82v-83q0 -55 16 -92.5t38 -51.5v-2h-245v2q22 15 38 53t16 95v399q0 55 -16 92.5t-38 51.5v2h273zM309 328q68 -1 100.5 33.5t32.5 100.5q0 69 -32.5 101.5t-100.5 32.5h-59v-267z" />
    <glyph glyph-name="q" unicode="q" horiz-adv-x="816" 
d="M626 41q34 -49 63.5 -74.5t77.5 -42.5v-2l-205 -32q-12 44 -36 82l-14 22q-53 -14 -112 -14q-164 0 -260 101.5t-96 259.5q0 170 99.5 272t271.5 102q160 0 258.5 -99.5t98.5 -260.5q0 -101 -39 -181t-110 -129zM410 84q21 0 44 5l-44 72q-38 60 -87 90v2l168 12
q6 -32 29 -67l35 -52q68 74 68 199q0 126 -58 196t-160 70q-98 0 -155 -71.5t-57 -188.5q0 -125 56 -196t161 -71z" />
    <glyph glyph-name="r" unicode="r" horiz-adv-x="661" 
d="M553 135q58 -93 130 -117v-2l-205 -37q-19 57 -51 111l-155 265h48q134 0 134 124q0 55 -35 87t-99 31l-70 -1v-450q0 -54 15 -91.5t35 -52.5v-2h-241v2q22 14 38 52.5t16 95.5v399q0 55 -16 92.5t-38 51.5v2h284q119 0 186 -56.5t67 -154.5q0 -154 -136 -198z" />
    <glyph glyph-name="s" unicode="s" horiz-adv-x="548" 
d="M267 -15q-133 -2 -202 40l-17 168l2 1q83 -108 207 -105q116 3 116 90q0 25 -9.5 44t-31 33.5t-38.5 23t-50 22.5q-35 14 -53.5 23t-47.5 28t-44 39.5t-27 53t-12 72.5q0 79 64.5 134.5t175.5 55.5q76 0 157 -21l13 -164h-2q-53 82 -158 82q-115 0 -115 -77
q0 -21 8.5 -37t29 -29.5t36 -21t47.5 -20.5q30 -13 46 -20t43.5 -22.5t42.5 -31.5t31.5 -38.5t24 -52.5t7.5 -66q0 -87 -63.5 -145t-180.5 -59z" />
    <glyph glyph-name="t" unicode="t" horiz-adv-x="592" 
d="M555 703l17 -183l-2 -1q-18 32 -52.5 53t-77.5 21h-75v-435q0 -61 17.5 -101.5t43.5 -54.5v-2h-259v2q24 14 42.5 55.5t18.5 100.5v435h-76q-43 0 -77.5 -21t-52.5 -53l-2 1l17 183q61 -8 137 -8h244q76 0 137 8z" />
    <glyph glyph-name="u" unicode="u" horiz-adv-x="744" 
d="M367 -17q-135 0 -206 76t-71 227v259q0 57 -16 95t-38 53v2h243v-2q-20 -15 -35.5 -53t-15.5 -95v-270q0 -102 34 -144.5t116 -42.5q73 0 107 45.5t34 141.5v270q0 56 -15.5 94.5t-35.5 53.5v2h240v-2q-22 -15 -38 -52.5t-16 -95.5v-259q0 -303 -287 -303z" />
    <glyph glyph-name="v" unicode="v" horiz-adv-x="695" 
d="M225 0v2q17 17 21 50.5t-12 87.5l-151 419q-33 92 -91 134v2h234v-2q-13 -15 -16 -41t6 -55l88 -254q40 -118 52 -205h4q19 110 52 206l84 251q22 66 -5 98v2h214v-2q-52 -31 -84 -125l-150 -428q-16 -55 -12 -88t21 -50v-2h-255z" />
    <glyph glyph-name="w" unicode="w" horiz-adv-x="1052" 
d="M168 0v2q50 54 23 154l-116 422q-24 91 -68 115v2h242v-2q-21 -18 -28 -51t2 -73l57 -223q20 -79 24 -181h4q23 95 70 191l107 219q35 74 49 126h6q21 -70 49 -125l97 -190q57 -113 79 -221h4q7 101 31 204l49 200q21 82 -25 124l1 2h222v-2q-47 -26 -68 -116l-101 -421
q-22 -94 23 -154v-2h-234v2q30 49 -6 124l-73 156q-37 78 -47 153h-4q-18 -73 -44 -130l-84 -179q-36 -78 -5 -124v-2h-236z" />
    <glyph glyph-name="x" unicode="x" horiz-adv-x="637" 
d="M547 158q64 -93 137 -141v-2l-209 -37q0 36 -63 133l-102 158l-110 -179q-20 -36 -20 -57.5t14 -30.5v-2h-236v2q57 26 124 129l155 239l-158 236q-39 58 -90 87v2h233v-2q-7 -37 27 -95l76 -127l71 122q11 19 16.5 30t9.5 24t3 24t-7 22v2h220v-2q-53 -21 -115 -121
l-123 -202z" />
    <glyph glyph-name="y" unicode="y" horiz-adv-x="643" 
d="M461 695h201v-2q-32 -24 -80 -102l-189 -312v-121q0 -61 17.5 -101.5t43.5 -54.5v-2h-259v2q24 14 42.5 55.5t18.5 100.5v116l-192 317q-46 75 -81 102v2h213v-2q-13 -39 23 -102l77 -133q19 -31 31 -65h4q7 20 32 65l76 133q36 63 22 102v2z" />
    <glyph glyph-name="z" unicode="z" horiz-adv-x="599" 
d="M573 191l2 -1l-26 -198q-49 8 -134 8h-405v2l341 594h-125q-123 0 -171 -68l-2 1l27 172q46 -6 149 -6h329v-2l-341 -594h153q138 0 203 92z" />
    <glyph glyph-name="braceleft" unicode="{" horiz-adv-x="333" 
d="M309 -175q-104 1 -157.5 45.5t-53.5 128.5v216q0 33 -17.5 53.5t-45.5 19.5v92q28 -1 45.5 19.5t17.5 53.5v216q0 84 53.5 128.5t157.5 45.5l14 -101l-2 -1q-20 12 -45 12q-24 0 -38.5 -17.5t-14.5 -49.5v-227q0 -102 -63 -123v-4q63 -21 63 -123v-226q0 -32 14.5 -49.5
t38.5 -17.5q25 0 45 12l2 -1z" />
    <glyph glyph-name="bar" unicode="|" horiz-adv-x="244" 
d="M39 -53l-1 2q20 24 20 99v591q0 80 -18 101v2h166v-2q-20 -24 -20 -101v-591q0 -76 19 -99v-2h-166z" />
    <glyph glyph-name="braceright" unicode="}" horiz-adv-x="332" 
d="M24 843q104 -1 157.5 -45.5t53.5 -128.5v-216q0 -33 17.5 -53.5t45.5 -19.5v-92q-28 1 -45.5 -19.5t-17.5 -53.5v-216q0 -84 -53.5 -128.5t-157.5 -45.5l-14 101l2 1q20 -12 45 -12q24 0 38.5 17.5t14.5 49.5v227q0 102 63 123v4q-63 21 -63 123v226q0 32 -14.5 49.5
t-38.5 17.5q-25 0 -45 -12l-2 1z" />
    <glyph glyph-name="asciitilde" unicode="~" horiz-adv-x="446" 
d="M117 140l-102 29q-3 63 35 107.5t94 44.5q42 0 88.5 -26t62.5 -26q24 0 35.5 20.5t5.5 45.5l2 2l94 -29q5 -57 -35.5 -105.5t-95.5 -48.5q-42 0 -86 27.5t-61 27.5q-23 0 -33 -22t-2 -45z" />
    <glyph glyph-name="uni00A0" unicode="&#xa0;" horiz-adv-x="250" 
 />
    <glyph glyph-name="exclamdown" unicode="&#xa1;" horiz-adv-x="270" 
d="M136 763q37 0 63 -25.5t26 -62.5t-26 -62.5t-63 -25.5t-62 25.5t-25 62.5t25 62.5t62 25.5zM207 548v-2q-15 -56 -11 -146l14 -265q5 -84 31 -143v-2h-208v2q27 56 31 143l15 265q4 90 -12 146v2h140z" />
    <glyph glyph-name="cent" unicode="&#xa2;" horiz-adv-x="543" 
d="M486 18q-53 -26 -123 -34v-5q0 -59 15 -78l-1 -2h-128l-1 2q15 21 15 78v8q-102 17 -161 92.5t-59 185.5q0 107 62 183t161 94v10q0 57 -15 78l1 2h128l1 -2q-15 -19 -15 -78v-7q64 -6 116 -30l13 -137l-2 -1q-64 60 -149 60q-78 0 -124 -46.5t-46 -124.5
q0 -79 43.5 -127t117.5 -48q55 0 92 16t76 57l2 -1z" />
    <glyph glyph-name="sterling" unicode="&#xa3;" horiz-adv-x="532" 
d="M489 140l2 -1l-16 -139h-446l-1 2q104 126 104 245q0 11 -2 35q-96 -2 -124 -27l-2 1l27 124h81q-19 82 -19 134q0 89 61.5 144.5t154.5 55.5q68 0 126 -22l23 -153l-2 -1q-27 41 -58.5 57t-78.5 16t-71.5 -28t-24.5 -80q0 -41 14 -123h149q56 0 90 24l2 -1l-25 -121
h-203q1 -8 1 -24q0 -81 -34 -161l171 1q65 0 101 42z" />
    <glyph glyph-name="currency" unicode="&#xa4;" horiz-adv-x="584" 
d="M501 202q39 -39 66 -45l1 -2l-95 -95l-2 1q-4 20 -45 67l-13 16q-56 -35 -121 -35q-63 0 -120 34l-14 -15q-41 -44 -45 -68h-2l-95 95l1 2q29 6 66 45l15 16q-33 53 -33 118t34 119l-16 16q-39 39 -66 44l-1 2l95 96l2 -1q3 -24 45 -66l16 -16q55 33 118 33t118 -33
l16 16q42 42 45 66h2l95 -95l-1 -2q-27 -5 -66 -44l-16 -16q34 -54 34 -119t-34 -118zM292 209q44 0 78 37.5t34 89.5q0 53 -34 90.5t-78 37.5q-45 0 -78.5 -37.5t-33.5 -90.5t33.5 -90t78.5 -37z" />
    <glyph glyph-name="yen" unicode="&#xa5;" horiz-adv-x="674" 
d="M473 695h201q-26 -21 -80 -104l-150 -228h42q58 0 92 28l2 -1l-37 -124h-143l1 -58h85q58 0 92 28l2 -1l-37 -121h-137q5 -39 17.5 -72.5t25.5 -42.5h-216q13 9 25.5 42.5t17.5 72.5h-33q-107 0 -137 -27l-2 1l37 120h137v58h-35q-107 0 -137 -27l-2 1l37 123h90
l-151 228q-56 85 -80 104h204q-8 -21 -1.5 -50t23.5 -54l112 -167l113 167q17 26 23.5 54.5t-1.5 49.5z" />
    <glyph glyph-name="brokenbar" unicode="&#xa6;" horiz-adv-x="244" 
d="M38 407v2q20 24 20 99v131q0 80 -18 101v2h166v-2q-20 -24 -20 -101v-131q0 -76 19 -99v-2h-167zM38 -53v2q20 24 20 99v131q0 80 -18 101v2h166v-2q-20 -24 -20 -101v-131q0 -76 19 -99v-2h-167z" />
    <glyph glyph-name="section" unicode="&#xa7;" horiz-adv-x="451" 
d="M412 327q0 -66 -46 -112q16 -30 16 -72q0 -70 -53.5 -116t-141.5 -46q-65 0 -123 21l-9 114h2q20 -29 57.5 -45t79.5 -16q84 0 84 76q0 31 -24.5 51t-59.5 33.5t-70.5 30t-60 51.5t-24.5 87q0 62 49 105q-19 33 -19 79q0 60 49 103t128 43q57 0 119 -22l10 -109h-2
q-37 51 -124 51q-38 0 -58.5 -16t-20.5 -43q0 -30 25 -49.5t60.5 -32t71 -29t60.5 -51t25 -86.5zM140 391q0 -23 16 -40.5t36 -26t54 -22t53 -23.5q9 15 9 36q0 24 -15.5 41.5t-34 26.5t-52 22.5t-51.5 23.5q-15 -13 -15 -38z" />
    <glyph glyph-name="dieresis" unicode="&#xa8;" horiz-adv-x="200" 
d="M240 758q-25 0 -42 17.5t-17 41.5q0 25 17 42t42 17q24 0 40.5 -17t16.5 -42q0 -24 -16.5 -41.5t-40.5 -17.5zM396 758q-25 0 -42 17.5t-17 41.5q0 25 17 42t42 17q24 0 40.5 -17t16.5 -42q0 -24 -16.5 -41.5t-40.5 -17.5z" />
    <glyph glyph-name="copyright" unicode="&#xa9;" horiz-adv-x="853" 
d="M427 -19q-159 0 -271 107.5t-112 258.5q0 153 112 260t271 107q158 0 270 -107.5t112 -259.5q0 -151 -112 -258.5t-270 -107.5zM427 38q127 0 221.5 92t94.5 217q0 126 -94.5 218t-221.5 92q-128 0 -222.5 -91.5t-94.5 -218.5q0 -126 94.5 -217.5t222.5 -91.5zM426 120
q-100 0 -160.5 63.5t-60.5 161.5q0 105 64 167.5t172 62.5q56 0 110 -15l10 -109h-3q-35 59 -118 59q-66 0 -103.5 -43t-37.5 -116q0 -74 34.5 -119.5t98.5 -45.5q87 0 139 70h3l-15 -112q-70 -24 -133 -24z" />
    <glyph glyph-name="guillemotleft" unicode="&#xab;" horiz-adv-x="623" 
d="M279 162q40 -47 89 -82l-1 -2h-189q-12 30 -45 66l-143 164l143 164q33 36 45 66h173l1 -2q-39 -31 -83 -82l-119 -140zM519 162q40 -48 96 -82l-1 -2h-196q-12 30 -45 66l-143 164l143 164q33 36 45 66h176l1 -2q-38 -23 -88 -82l-118 -139z" />
    <glyph glyph-name="logicalnot" unicode="&#xac;" horiz-adv-x="465" 
d="M426 188q0 -65 17 -89l-1 -2h-159l-2 2q17 24 17 89v48h-172q-77 0 -108 -25l-2 1l15 134h403l1 -2q-9 -23 -9 -91v-65z" />
    <glyph glyph-name="registered" unicode="&#xae;" horiz-adv-x="581" 
d="M291 739q111 0 189.5 -75.5t78.5 -181.5q0 -107 -78.5 -182.5t-189.5 -75.5q-112 0 -190.5 75.5t-78.5 182.5q0 106 79 181.5t190 75.5zM291 272q90 0 154.5 62t64.5 148t-64.5 147.5t-154.5 61.5q-89 0 -153.5 -61.5t-64.5 -147.5q0 -87 64.5 -148.5t153.5 -61.5z
M383 387q24 -41 56 -50v-2l-89 -16q-8 24 -22 48l-67 114v2h20q58 0 58 54q0 24 -15 38t-43 14l-31 -1v-196q0 -49 24 -62v-2h-107v2q23 13 23 64v174q0 47 -23 62v2h124q52 0 81 -25t29 -68q0 -67 -59 -86z" />
    <glyph glyph-name="macron" unicode="&#xaf;" 
d="M185 762l-2 1l16 103h230q49 0 68 12l2 -1l-15 -106l-235 -1q-43 0 -64 -8z" />
    <glyph glyph-name="degree" unicode="&#xb0;" horiz-adv-x="318" 
d="M159 434q-58 0 -99 41t-41 99t41 99t99 41t99 -41t41 -99t-41 -99t-99 -41zM160 512q26 0 42 17t16 45t-16 45.5t-42 17.5t-42.5 -17.5t-16.5 -45.5t16.5 -45t42.5 -17z" />
    <glyph glyph-name="plusminus" unicode="&#xb1;" horiz-adv-x="476" 
d="M122 319q-77 0 -108 -25l-2 1l15 124h147v84q0 65 -17 89l1 2h160l1 -2q-17 -24 -17 -89v-84h54q74 0 106 26l2 -1l-13 -125h-149v-79q0 -65 17 -89l-1 -2h-159l-2 2q17 24 17 89v79h-52zM356 96q74 0 106 26l2 -1l-13 -122h-329q-77 0 -108 -25l-2 1l15 121h329z" />
    <glyph glyph-name="acute" unicode="&#xb4;" 
d="M301 737l-81 42q34 32 75 90t46 84l2 1l89 -85q-28 -20 -69.5 -63t-61.5 -69z" />
    <glyph glyph-name="paragraph" unicode="&#xb6;" horiz-adv-x="661" 
d="M24 484q0 90 64.5 150.5t161.5 60.5h138v-2q-11 -21 -11 -89v-614q0 -68 11 -89v-2h-152v2q14 20 14 89v282q-98 0 -162 60t-64 152zM597 693q-17 -24 -17 -89v-614q0 -64 17 -89v-2h-154v2q10 20 10 89v614q0 66 -10 89v2h154v-2z" />
    <glyph glyph-name="periodcentered" unicode="&#xb7;" horiz-adv-x="222" 
d="M112 235q-37 0 -63 25.5t-26 62.5t26 62.5t63 25.5t62 -25.5t25 -62.5t-25 -62.5t-62 -25.5z" />
    <glyph glyph-name="cedilla" unicode="&#xb8;" 
d="M343 -38q116 -12 116 -105q0 -57 -41 -87t-96 -30q-50 0 -88 23l-9 87l2 1q42 -37 85 -37q27 0 42 11.5t15 30.5q0 39 -62 39q-30 0 -50 -4l-2 2l32 153h71z" />
    <glyph glyph-name="guillemotright" unicode="&#xbb;" horiz-adv-x="615" 
d="M242 472l143 -164l-143 -164q-33 -36 -45 -66h-176l-1 2q38 23 88 82l118 139l-130 153q-40 48 -96 82l1 2h196q12 -30 45 -66zM482 472l143 -164l-143 -164q-33 -36 -45 -66h-173l-1 2q39 31 83 82l119 140l-129 152q-40 47 -89 82l1 2h189q12 -30 45 -66z" />
    <glyph glyph-name="questiondown" unicode="&#xbf;" horiz-adv-x="445" 
d="M234 768q37 0 63 -25.5t26 -62.5t-26 -62.5t-63 -25.5t-62 25.5t-25 62.5t25 62.5t62 25.5zM269 558l29 -158q-161 -101 -161 -198q0 -111 111 -111q57 0 96.5 19.5t74.5 63.5l2 -1l-24 -142q-78 -43 -171 -43q-97 0 -159.5 56t-62.5 142q0 37 9.5 68t32 60.5t39 46.5
t49.5 48q2 2 14 13t15 13.5t14 13t15 14.5l13.5 13.5t14 15t12.5 15t13 17l11 16.5t11 18h2z" />
    <glyph glyph-name="Agrave" unicode="&#xc0;" horiz-adv-x="676" 
d="M345 737q-20 26 -62.5 69t-69.5 63l88 85l2 -1q5 -25 48 -84t75 -90zM596 164q19 -54 47 -98.5t51 -63.5v-2h-226v2q14 11 15.5 40.5t-15.5 82.5l-9 24h-258l-9 -24q-17 -54 -16 -82.5t14 -40.5v-2h-210v2q58 52 97 162l143 412q12 47 5.5 75t-23.5 42v2h265v-2
q-17 -16 -24 -43t6 -74zM327 562q-9 -76 -56 -209l-37 -106h192l-37 106q-49 138 -58 209h-4z" />
    <glyph glyph-name="Aacute" unicode="&#xc1;" horiz-adv-x="676" 
d="M464 869q-28 -20 -69.5 -63t-61.5 -69l-81 42q34 32 75 90t46 84l2 1zM596 164q19 -54 47 -98.5t51 -63.5v-2h-226v2q14 11 15.5 40.5t-15.5 82.5l-9 24h-258l-9 -24q-17 -54 -16 -82.5t14 -40.5v-2h-210v2q58 52 97 162l143 412q12 47 5.5 75t-23.5 42v2h265v-2
q-17 -16 -24 -43t6 -74zM327 562q-9 -76 -56 -209l-37 -106h192l-37 106q-49 138 -58 209h-4z" />
    <glyph glyph-name="Acircumflex" unicode="&#xc2;" horiz-adv-x="676" 
d="M241 729l-2 -1l-79 94q30 17 70 49.5t65 61.5h71q25 -29 64 -61t71 -50l-79 -94l-2 1q-6 17 -33.5 52t-56.5 65q-28 -29 -55.5 -64.5t-33.5 -52.5zM596 164q19 -54 47 -98.5t51 -63.5v-2h-226v2q14 11 15.5 40.5t-15.5 82.5l-9 24h-258l-9 -24q-17 -54 -16 -82.5
t14 -40.5v-2h-210v2q58 52 97 162l143 412q12 47 5.5 75t-23.5 42v2h265v-2q-17 -16 -24 -43t6 -74zM327 562q-9 -76 -56 -209l-37 -106h192l-37 106q-49 138 -58 209h-4z" />
    <glyph glyph-name="Atilde" unicode="&#xc3;" horiz-adv-x="676" 
d="M201 748h-2l-51 75q60 64 129 64q29 0 64.5 -18.5t56.5 -18.5t36 11t20 27h2l53 -83q-57 -51 -120 -51q-32 0 -68 19.5t-58 19.5q-39 0 -62 -45zM596 164q19 -54 47 -98.5t51 -63.5v-2h-226v2q14 11 15.5 40.5t-15.5 82.5l-9 24h-258l-9 -24q-17 -54 -16 -82.5t14 -40.5
v-2h-210v2q58 52 97 162l143 412q12 47 5.5 75t-23.5 42v2h265v-2q-17 -16 -24 -43t6 -74zM327 562q-9 -76 -56 -209l-37 -106h192l-37 106q-49 138 -58 209h-4z" />
    <glyph glyph-name="Adieresis" unicode="&#xc4;" horiz-adv-x="676" 
d="M254 758q-25 0 -42 17.5t-17 41.5q0 25 17 42t42 17q24 0 40.5 -17t16.5 -42q0 -24 -16.5 -41.5t-40.5 -17.5zM410 758q-25 0 -42 17.5t-17 41.5q0 25 17 42t42 17q24 0 40.5 -17t16.5 -42q0 -24 -16.5 -41.5t-40.5 -17.5zM596 164q19 -54 47 -98.5t51 -63.5v-2h-226v2
q14 11 15.5 40.5t-15.5 82.5l-9 24h-258l-9 -24q-17 -54 -16 -82.5t14 -40.5v-2h-210v2q58 52 97 162l143 412q12 47 5.5 75t-23.5 42v2h265v-2q-17 -16 -24 -43t6 -74zM327 562q-9 -76 -56 -209l-37 -106h192l-37 106q-49 138 -58 209h-4z" />
    <glyph glyph-name="Aring" unicode="&#xc5;" horiz-adv-x="672" 
d="M597 164q20 -55 47.5 -99t50.5 -63v-2h-226v2q14 11 15.5 40.5t-15.5 82.5l-8 24h-259l-9 -24q-17 -54 -16 -82.5t14 -40.5v-2h-210v2q24 20 51.5 64t46.5 98l142 412q19 55 -2 83q-26 36 -26 81q0 60 42 100t102 40q59 0 101 -40.5t42 -99.5q0 -42 -24 -77
q-24 -34 -6 -87zM337 792q-23 0 -37 -14t-14 -38t13.5 -37.5t37.5 -13.5q23 0 36 13.5t13 37.5q0 52 -49 52zM329 562q-9 -74 -57 -209l-38 -106h194l-36 102q-49 137 -59 213h-4z" />
    <glyph glyph-name="AE" unicode="&#xc6;" horiz-adv-x="863" 
d="M823 201l2 -1l-28 -208q-49 8 -122 8h-304v2q35 27 35 123v24h-203l-11 -24q-18 -55 -17.5 -83.5t12.5 -39.5v-2h-207v2q33 30 96 162l197 412q39 82 -16 117v2h424q71 0 106 8l17 -187l-2 -1q-36 74 -157 74h-109v-168h53q103 0 156 7l-29 -175h-2q-24 63 -109 63h-69
v-209h86q135 0 201 94zM252 247h154v318h-3q-1 -2 -39 -83z" />
    <glyph glyph-name="Ccedilla" unicode="&#xc7;" horiz-adv-x="657" 
d="M609 23q-90 -31 -178 -37l-6 -32q116 -12 116 -105q0 -57 -41 -87t-96 -30q-50 0 -88 23l-9 87l2 1q42 -37 85 -37q27 0 42 11.5t15 30.5q0 39 -62 39q-30 0 -50 -4l-2 2l21 102q-144 12 -229 110.5t-85 245.5q0 168 102 267t274 99q91 0 176 -25l16 -173l-2 -1
q-30 46 -80.5 70t-110.5 24q-105 0 -165.5 -67.5t-60.5 -183.5q0 -118 55.5 -190t157.5 -72q77 0 130 28.5t95 83.5l2 -1z" />
    <glyph glyph-name="Egrave" unicode="&#xc8;" 
d="M329 737q-19 26 -62 69t-70 63l88 85l2 -1q5 -25 48 -84t75 -90zM560 192l2 -1l-28 -199q-49 8 -122 8h-353v2q22 15 38 53t16 95v395q0 58 -16 95.5t-38 52.5v2h359q71 0 106 8l17 -179l-2 -1q-36 74 -157 74h-132v-176h76q104 0 156 7l-29 -168h-2q-24 63 -109 63h-92
v-225h109q135 0 201 94z" />
    <glyph glyph-name="Eacute" unicode="&#xc9;" 
d="M448 869q-28 -20 -69.5 -63t-61.5 -69l-81 42q34 32 75 90t46 84l2 1zM560 192l2 -1l-28 -199q-49 8 -122 8h-353v2q22 15 38 53t16 95v395q0 58 -16 95.5t-38 52.5v2h359q71 0 106 8l17 -179l-2 -1q-36 74 -157 74h-132v-176h76q104 0 156 7l-29 -168h-2q-24 63 -109 63
h-92v-225h109q135 0 201 94z" />
    <glyph glyph-name="Ecircumflex" unicode="&#xca;" 
d="M225 729l-2 -1l-79 94q30 17 70 49.5t65 61.5h71q25 -29 64 -61t71 -50l-79 -94l-2 1q-6 17 -33.5 52t-56.5 65q-28 -29 -55.5 -64.5t-33.5 -52.5zM560 192l2 -1l-28 -199q-49 8 -122 8h-353v2q22 15 38 53t16 95v395q0 58 -16 95.5t-38 52.5v2h359q71 0 106 8l17 -179
l-2 -1q-36 74 -157 74h-132v-176h76q104 0 156 7l-29 -168h-2q-24 63 -109 63h-92v-225h109q135 0 201 94z" />
    <glyph glyph-name="Edieresis" unicode="&#xcb;" 
d="M238 758q-25 0 -42 17.5t-17 41.5q0 25 17 42t42 17q24 0 40.5 -17t16.5 -42q0 -24 -16.5 -41.5t-40.5 -17.5zM394 758q-25 0 -42 17.5t-17 41.5q0 25 17 42t42 17q24 0 40.5 -17t16.5 -42q0 -24 -16.5 -41.5t-40.5 -17.5zM560 192l2 -1l-28 -199q-49 8 -122 8h-353v2
q22 15 38 53t16 95v395q0 58 -16 95.5t-38 52.5v2h359q71 0 106 8l17 -179l-2 -1q-36 74 -157 74h-132v-176h76q104 0 156 7l-29 -168h-2q-24 63 -109 63h-92v-225h109q135 0 201 94z" />
    <glyph glyph-name="Igrave" unicode="&#xcc;" horiz-adv-x="364" 
d="M196 737q-20 26 -62.5 69t-69.5 63l88 85l2 -1q5 -25 48 -84t75 -90zM59 0v2q22 15 38 53t16 95v395q0 58 -16 95.5t-38 52.5v2h246v-2q-22 -15 -38 -53t-16 -95v-395q0 -58 16 -95.5t38 -52.5v-2h-246z" />
    <glyph glyph-name="Iacute" unicode="&#xcd;" horiz-adv-x="364" 
d="M184 737l-81 42q34 32 75 90t46 84l2 1l89 -85q-28 -20 -69.5 -63t-61.5 -69zM59 0v2q22 15 38 53t16 95v395q0 58 -16 95.5t-38 52.5v2h246v-2q-22 -15 -38 -53t-16 -95v-395q0 -58 16 -95.5t38 -52.5v-2h-246z" />
    <glyph glyph-name="Icircumflex" unicode="&#xce;" horiz-adv-x="364" 
d="M92 729l-2 -1l-79 94q30 17 70 49.5t65 61.5h71q25 -29 64 -61t71 -50l-79 -94l-2 1q-6 17 -33.5 52t-56.5 65q-28 -29 -55.5 -64.5t-33.5 -52.5zM59 693v2h246v-2q-22 -15 -38 -53t-16 -95v-395q0 -58 16 -95.5t38 -52.5v-2h-246v2q22 15 38 53t16 95v395q0 58 -16 95.5
t-38 52.5z" />
    <glyph glyph-name="Idieresis" unicode="&#xcf;" horiz-adv-x="364" 
d="M105 758q-25 0 -42 17.5t-17 41.5q0 25 17 42t42 17q24 0 40.5 -17t16.5 -42q0 -24 -16.5 -41.5t-40.5 -17.5zM261 758q-25 0 -42 17.5t-17 41.5q0 25 17 42t42 17q24 0 40.5 -17t16.5 -42q0 -24 -16.5 -41.5t-40.5 -17.5zM59 0v2q22 15 38 53t16 95v395q0 58 -16 95.5
t-38 52.5v2h246v-2q-22 -15 -38 -53t-16 -95v-395q0 -58 16 -95.5t38 -52.5v-2h-246z" />
    <glyph glyph-name="Eth" unicode="&#xd0;" horiz-adv-x="750" 
d="M358 695q159 0 253.5 -92.5t94.5 -254.5q0 -167 -91 -257.5t-273 -90.5h-274v2q22 15 38 53t16 95v156h-16q-55 0 -79 -17l-2 1l17 106h80v149q0 52 -16.5 93t-37.5 55v2h290zM352 99q100 0 153 64t53 185q0 127 -52 187.5t-159 60.5h-88v-200h49q44 0 71 14l2 -1
l-14 -103h-108v-207h93z" />
    <glyph glyph-name="Ntilde" unicode="&#xd1;" horiz-adv-x="790" 
d="M266 748l-51 75q60 64 129 64q29 0 64.5 -18.5t56.5 -18.5t36 11t20 27h2l53 -83q-57 -51 -120 -51q-32 0 -68 19.5t-58 19.5q-39 0 -62 -45h-2zM59 0v2q22 15 38 53t16 95v400q0 44 -14 84.5t-40 58.5v2h227q3 -33 41 -96l144 -242q42 -71 92 -198h4q-16 91 -16 206v180
q0 58 -14.5 96t-36.5 52v2h231v-2q-22 -14 -38 -52.5t-16 -95.5v-395q0 -57 16 -95.5t38 -52.5v-2h-211q-18 43 -50 95l-141 229q-62 100 -104 228h-4q18 -107 18 -232v-170q0 -58 14.5 -96t36.5 -52v-2h-231z" />
    <glyph glyph-name="Ograve" unicode="&#xd2;" horiz-adv-x="816" 
d="M426 745q-19 26 -62 69t-70 63l88 85l2 -1q5 -25 48 -84t75 -90zM400 -20q-164 0 -260 101.5t-96 259.5q0 170 99.5 272t271.5 102q160 0 258.5 -99.5t98.5 -260.5q0 -168 -102.5 -271.5t-269.5 -103.5zM410 84q94 0 153.5 71.5t59.5 189.5q0 126 -58 196t-160 70
q-98 0 -155 -71t-57 -189q0 -125 56 -196t161 -71z" />
    <glyph glyph-name="Oacute" unicode="&#xd3;" horiz-adv-x="816" 
d="M414 745l-81 42q34 32 75 90t46 84l2 1l89 -85q-28 -20 -69.5 -63t-61.5 -69zM400 -20q-164 0 -260 101.5t-96 259.5q0 170 99.5 272t271.5 102q160 0 258.5 -99.5t98.5 -260.5q0 -168 -102.5 -271.5t-269.5 -103.5zM410 84q94 0 153.5 71.5t59.5 189.5q0 126 -58 196
t-160 70q-98 0 -155 -71t-57 -189q0 -125 56 -196t161 -71z" />
    <glyph glyph-name="Ocircumflex" unicode="&#xd4;" horiz-adv-x="816" 
d="M322 737l-2 -1l-79 94q30 17 70 49.5t65 61.5h71q25 -29 64 -61t71 -50l-79 -94l-2 1q-6 17 -33.5 52t-56.5 65q-28 -29 -55.5 -64.5t-33.5 -52.5zM415 715q160 0 258.5 -99.5t98.5 -260.5q0 -168 -102.5 -271.5t-269.5 -103.5q-164 0 -260 101.5t-96 259.5
q0 170 99.5 272t271.5 102zM410 84q94 0 153.5 71.5t59.5 189.5q0 126 -58 196t-160 70q-98 0 -155 -71t-57 -189q0 -125 56 -196t161 -71z" />
    <glyph glyph-name="Otilde" unicode="&#xd5;" horiz-adv-x="816" 
d="M280 756l-51 75q60 64 129 64q29 0 64.5 -18.5t56.5 -18.5t36 11t20 27h2l53 -83q-57 -51 -120 -51q-32 0 -68 19.5t-58 19.5q-39 0 -62 -45h-2zM400 -20q-164 0 -260 101.5t-96 259.5q0 170 99.5 272t271.5 102q160 0 258.5 -99.5t98.5 -260.5q0 -168 -102.5 -271.5
t-269.5 -103.5zM410 84q94 0 153.5 71.5t59.5 189.5q0 126 -58 196t-160 70q-98 0 -155 -71t-57 -189q0 -125 56 -196t161 -71z" />
    <glyph glyph-name="Odieresis" unicode="&#xd6;" horiz-adv-x="816" 
d="M335 766q-25 0 -42 17.5t-17 41.5q0 25 17 42t42 17q24 0 40.5 -17t16.5 -42q0 -24 -16.5 -41.5t-40.5 -17.5zM491 766q-25 0 -42 17.5t-17 41.5q0 25 17 42t42 17q24 0 40.5 -17t16.5 -42q0 -24 -16.5 -41.5t-40.5 -17.5zM400 -20q-164 0 -260 101.5t-96 259.5
q0 170 99.5 272t271.5 102q160 0 258.5 -99.5t98.5 -260.5q0 -168 -102.5 -271.5t-269.5 -103.5zM410 84q94 0 153.5 71.5t59.5 189.5q0 126 -58 196t-160 70q-98 0 -155 -71t-57 -189q0 -125 56 -196t161 -71z" />
    <glyph glyph-name="multiply" unicode="&#xd7;" horiz-adv-x="465" 
d="M375 272q32 -30 45.5 -39.5t29.5 -12.5v-2l-109 -112h-2q-7 27 -54 73l-56 55l-52 -55q-48 -50 -55 -72h-2l-106 101v2q18 3 32 12.5t43 39.5l55 56l-56 55q-48 48 -73 54v2l106 111h2q4 -17 13.5 -31.5t39.5 -42.5l57 -56l50 52q30 31 39.5 44.5t14.5 28.5h2l101 -99v-2
q-30 -7 -73 -54l-49 -52z" />
    <glyph glyph-name="Oslash" unicode="&#xd8;" horiz-adv-x="816" 
d="M774 695l-83 -99q81 -95 81 -241q0 -167 -103 -270.5t-269 -103.5q-109 0 -190 47l-24 -28q-38 -45 -54 -83l-2 -1l-88 85l83 98q-81 96 -81 242q0 169 99.5 271t271.5 102q105 0 190 -47l16 20q47 56 60 88l2 1zM405 609q-98 0 -155 -70.5t-57 -187.5q0 -88 28 -148
l311 368q-52 38 -127 38zM410 87q94 0 153.5 70.5t59.5 187.5q0 87 -29 148l-312 -368q52 -38 128 -38z" />
    <glyph glyph-name="Ugrave" unicode="&#xd9;" horiz-adv-x="744" 
d="M386 737q-19 26 -62 69t-70 63l88 85l2 -1q5 -25 48 -84t75 -90zM367 -17q-135 0 -206 76t-71 227v259q0 57 -16 95t-38 53v2h243v-2q-20 -15 -35.5 -53t-15.5 -95v-270q0 -102 34 -144.5t116 -42.5q73 0 107 45.5t34 141.5v270q0 56 -15.5 94.5t-35.5 53.5v2h240v-2
q-22 -15 -38 -52.5t-16 -95.5v-259q0 -303 -287 -303z" />
    <glyph glyph-name="Uacute" unicode="&#xda;" horiz-adv-x="744" 
d="M374 737l-81 42q34 32 75 90t46 84l2 1l89 -85q-28 -20 -69.5 -63t-61.5 -69zM367 -17q-135 0 -206 76t-71 227v259q0 57 -16 95t-38 53v2h243v-2q-20 -15 -35.5 -53t-15.5 -95v-270q0 -102 34 -144.5t116 -42.5q73 0 107 45.5t34 141.5v270q0 56 -15.5 94.5t-35.5 53.5
v2h240v-2q-22 -15 -38 -52.5t-16 -95.5v-259q0 -303 -287 -303z" />
    <glyph glyph-name="Ucircumflex" unicode="&#xdb;" horiz-adv-x="744" 
d="M282 729l-2 -1l-79 94q30 17 70 49.5t65 61.5h71q25 -29 64 -61t71 -50l-79 -94l-2 1q-6 17 -33.5 52t-56.5 65q-28 -29 -55.5 -64.5t-33.5 -52.5zM468 695h240v-2q-22 -15 -38 -52.5t-16 -95.5v-259q0 -303 -287 -303q-135 0 -206 76t-71 227v259q0 57 -16 95t-38 53v2
h243v-2q-20 -15 -35.5 -53t-15.5 -95v-270q0 -102 34 -144.5t116 -42.5q73 0 107 45.5t34 141.5v270q0 56 -15.5 94.5t-35.5 53.5v2z" />
    <glyph glyph-name="Udieresis" unicode="&#xdc;" horiz-adv-x="744" 
d="M295 758q-25 0 -42 17.5t-17 41.5q0 25 17 42t42 17q24 0 40.5 -17t16.5 -42q0 -24 -16.5 -41.5t-40.5 -17.5zM451 758q-25 0 -42 17.5t-17 41.5q0 25 17 42t42 17q24 0 40.5 -17t16.5 -42q0 -24 -16.5 -41.5t-40.5 -17.5zM367 -17q-135 0 -206 76t-71 227v259
q0 57 -16 95t-38 53v2h243v-2q-20 -15 -35.5 -53t-15.5 -95v-270q0 -102 34 -144.5t116 -42.5q73 0 107 45.5t34 141.5v270q0 56 -15.5 94.5t-35.5 53.5v2h240v-2q-22 -15 -38 -52.5t-16 -95.5v-259q0 -303 -287 -303z" />
    <glyph glyph-name="Yacute" unicode="&#xdd;" horiz-adv-x="643" 
d="M456 869q-28 -20 -69.5 -63t-61.5 -69l-81 42q34 32 75 90t46 84l2 1zM461 695h201v-2q-32 -24 -80 -102l-189 -312v-121q0 -61 17.5 -101.5t43.5 -54.5v-2h-259v2q24 14 42.5 55.5t18.5 100.5v116l-192 317q-46 75 -81 102v2h213v-2q-13 -39 23 -102l77 -133
q19 -31 31 -65h4q7 20 32 65l76 133q36 63 22 102v2z" />
    <glyph glyph-name="Thorn" unicode="&#xde;" horiz-adv-x="611" 
d="M332 578q250 0 250 -226q0 -112 -67.5 -170.5t-182.5 -58.5h-82q4 -93 46 -121v-2h-237v2q22 15 38 53t16 95v395q0 58 -16 95.5t-38 52.5v2h234v-2q-39 -25 -43 -115h82zM309 221q133 -1 133 126q0 68 -33 100.5t-100 31.5h-59v-257z" />
    <glyph glyph-name="germandbls" unicode="&#xdf;" horiz-adv-x="730" 
d="M515 426q78 -17 128.5 -75.5t50.5 -133.5q0 -97 -65.5 -166.5t-176.5 -69.5q-53 0 -99 13l-16 126l2 1q42 -36 94 -36t86.5 35t34.5 87q0 79 -59 114.5t-159 18.5v2l135 253h-221v-445q0 -57 15 -95t36 -53v-2h-242v2q22 15 38 53t16 95v395q0 58 -16 95.5t-38 52.5v2
h607l1 -3z" />
    <glyph glyph-name="agrave" unicode="&#xe0;" horiz-adv-x="676" 
d="M345 737q-20 26 -62.5 69t-69.5 63l88 85l2 -1q5 -25 48 -84t75 -90zM596 164q19 -54 47 -98.5t51 -63.5v-2h-226v2q14 11 15.5 40.5t-15.5 82.5l-9 24h-258l-9 -24q-17 -54 -16 -82.5t14 -40.5v-2h-210v2q58 52 97 162l143 412q12 47 5.5 75t-23.5 42v2h265v-2
q-17 -16 -24 -43t6 -74zM327 562q-9 -76 -56 -209l-37 -106h192l-37 106q-49 138 -58 209h-4z" />
    <glyph glyph-name="aacute" unicode="&#xe1;" horiz-adv-x="676" 
d="M464 869q-28 -20 -69.5 -63t-61.5 -69l-81 42q34 32 75 90t46 84l2 1zM596 164q19 -54 47 -98.5t51 -63.5v-2h-226v2q14 11 15.5 40.5t-15.5 82.5l-9 24h-258l-9 -24q-17 -54 -16 -82.5t14 -40.5v-2h-210v2q58 52 97 162l143 412q12 47 5.5 75t-23.5 42v2h265v-2
q-17 -16 -24 -43t6 -74zM327 562q-9 -76 -56 -209l-37 -106h192l-37 106q-49 138 -58 209h-4z" />
    <glyph glyph-name="acircumflex" unicode="&#xe2;" horiz-adv-x="676" 
d="M241 729l-2 -1l-79 94q30 17 70 49.5t65 61.5h71q25 -29 64 -61t71 -50l-79 -94l-2 1q-6 17 -33.5 52t-56.5 65q-28 -29 -55.5 -64.5t-33.5 -52.5zM596 164q19 -54 47 -98.5t51 -63.5v-2h-226v2q14 11 15.5 40.5t-15.5 82.5l-9 24h-258l-9 -24q-17 -54 -16 -82.5
t14 -40.5v-2h-210v2q58 52 97 162l143 412q12 47 5.5 75t-23.5 42v2h265v-2q-17 -16 -24 -43t6 -74zM327 562q-9 -76 -56 -209l-37 -106h192l-37 106q-49 138 -58 209h-4z" />
    <glyph glyph-name="atilde" unicode="&#xe3;" horiz-adv-x="676" 
d="M201 748h-2l-51 75q60 64 129 64q29 0 64.5 -18.5t56.5 -18.5t36 11t20 27h2l53 -83q-57 -51 -120 -51q-32 0 -68 19.5t-58 19.5q-39 0 -62 -45zM596 164q19 -54 47 -98.5t51 -63.5v-2h-226v2q14 11 15.5 40.5t-15.5 82.5l-9 24h-258l-9 -24q-17 -54 -16 -82.5t14 -40.5
v-2h-210v2q58 52 97 162l143 412q12 47 5.5 75t-23.5 42v2h265v-2q-17 -16 -24 -43t6 -74zM327 562q-9 -76 -56 -209l-37 -106h192l-37 106q-49 138 -58 209h-4z" />
    <glyph glyph-name="adieresis" unicode="&#xe4;" horiz-adv-x="676" 
d="M254 758q-25 0 -42 17.5t-17 41.5q0 25 17 42t42 17q24 0 40.5 -17t16.5 -42q0 -24 -16.5 -41.5t-40.5 -17.5zM410 758q-25 0 -42 17.5t-17 41.5q0 25 17 42t42 17q24 0 40.5 -17t16.5 -42q0 -24 -16.5 -41.5t-40.5 -17.5zM596 164q19 -54 47 -98.5t51 -63.5v-2h-226v2
q14 11 15.5 40.5t-15.5 82.5l-9 24h-258l-9 -24q-17 -54 -16 -82.5t14 -40.5v-2h-210v2q58 52 97 162l143 412q12 47 5.5 75t-23.5 42v2h265v-2q-17 -16 -24 -43t6 -74zM327 562q-9 -76 -56 -209l-37 -106h192l-37 106q-49 138 -58 209h-4z" />
    <glyph glyph-name="aring" unicode="&#xe5;" horiz-adv-x="672" 
d="M597 164q20 -55 47.5 -99t50.5 -63v-2h-226v2q14 11 15.5 40.5t-15.5 82.5l-8 24h-259l-9 -24q-17 -54 -16 -82.5t14 -40.5v-2h-210v2q24 20 51.5 64t46.5 98l142 412q19 55 -2 83q-26 36 -26 81q0 60 42 100t102 40q59 0 101 -40.5t42 -99.5q0 -42 -24 -77
q-24 -34 -6 -87zM337 792q-23 0 -37 -14t-14 -38t13.5 -37.5t37.5 -13.5q23 0 36 13.5t13 37.5q0 52 -49 52zM329 562q-9 -74 -57 -209l-38 -106h194l-36 102q-49 137 -59 213h-4z" />
    <glyph glyph-name="ae" unicode="&#xe6;" horiz-adv-x="863" 
d="M823 201l2 -1l-28 -208q-49 8 -122 8h-304v2q35 27 35 123v24h-203l-11 -24q-18 -55 -17.5 -83.5t12.5 -39.5v-2h-207v2q33 30 96 162l197 412q39 82 -16 117v2h424q71 0 106 8l17 -187l-2 -1q-36 74 -157 74h-109v-168h53q103 0 156 7l-29 -175h-2q-24 63 -109 63h-69
v-209h86q135 0 201 94zM252 247h154v318h-3q-1 -2 -39 -83z" />
    <glyph glyph-name="ccedilla" unicode="&#xe7;" horiz-adv-x="657" 
d="M609 23q-90 -31 -178 -37l-6 -32q116 -12 116 -105q0 -57 -41 -87t-96 -30q-50 0 -88 23l-9 87l2 1q42 -37 85 -37q27 0 42 11.5t15 30.5q0 39 -62 39q-30 0 -50 -4l-2 2l21 102q-144 12 -229 110.5t-85 245.5q0 168 102 267t274 99q91 0 176 -25l16 -173l-2 -1
q-30 46 -80.5 70t-110.5 24q-105 0 -165.5 -67.5t-60.5 -183.5q0 -118 55.5 -190t157.5 -72q77 0 130 28.5t95 83.5l2 -1z" />
    <glyph glyph-name="egrave" unicode="&#xe8;" 
d="M329 737q-19 26 -62 69t-70 63l88 85l2 -1q5 -25 48 -84t75 -90zM560 192l2 -1l-28 -199q-49 8 -122 8h-353v2q22 15 38 53t16 95v395q0 58 -16 95.5t-38 52.5v2h359q71 0 106 8l17 -179l-2 -1q-36 74 -157 74h-132v-176h76q104 0 156 7l-29 -168h-2q-24 63 -109 63h-92
v-225h109q135 0 201 94z" />
    <glyph glyph-name="eacute" unicode="&#xe9;" 
d="M448 869q-28 -20 -69.5 -63t-61.5 -69l-81 42q34 32 75 90t46 84l2 1zM560 192l2 -1l-28 -199q-49 8 -122 8h-353v2q22 15 38 53t16 95v395q0 58 -16 95.5t-38 52.5v2h359q71 0 106 8l17 -179l-2 -1q-36 74 -157 74h-132v-176h76q104 0 156 7l-29 -168h-2q-24 63 -109 63
h-92v-225h109q135 0 201 94z" />
    <glyph glyph-name="ecircumflex" unicode="&#xea;" 
d="M225 729l-2 -1l-79 94q30 17 70 49.5t65 61.5h71q25 -29 64 -61t71 -50l-79 -94l-2 1q-6 17 -33.5 52t-56.5 65q-28 -29 -55.5 -64.5t-33.5 -52.5zM560 192l2 -1l-28 -199q-49 8 -122 8h-353v2q22 15 38 53t16 95v395q0 58 -16 95.5t-38 52.5v2h359q71 0 106 8l17 -179
l-2 -1q-36 74 -157 74h-132v-176h76q104 0 156 7l-29 -168h-2q-24 63 -109 63h-92v-225h109q135 0 201 94z" />
    <glyph glyph-name="edieresis" unicode="&#xeb;" 
d="M238 758q-25 0 -42 17.5t-17 41.5q0 25 17 42t42 17q24 0 40.5 -17t16.5 -42q0 -24 -16.5 -41.5t-40.5 -17.5zM394 758q-25 0 -42 17.5t-17 41.5q0 25 17 42t42 17q24 0 40.5 -17t16.5 -42q0 -24 -16.5 -41.5t-40.5 -17.5zM560 192l2 -1l-28 -199q-49 8 -122 8h-353v2
q22 15 38 53t16 95v395q0 58 -16 95.5t-38 52.5v2h359q71 0 106 8l17 -179l-2 -1q-36 74 -157 74h-132v-176h76q104 0 156 7l-29 -168h-2q-24 63 -109 63h-92v-225h109q135 0 201 94z" />
    <glyph glyph-name="igrave" unicode="&#xec;" horiz-adv-x="364" 
d="M196 737q-20 26 -62.5 69t-69.5 63l88 85l2 -1q5 -25 48 -84t75 -90zM59 0v2q22 15 38 53t16 95v395q0 58 -16 95.5t-38 52.5v2h246v-2q-22 -15 -38 -53t-16 -95v-395q0 -58 16 -95.5t38 -52.5v-2h-246z" />
    <glyph glyph-name="iacute" unicode="&#xed;" horiz-adv-x="364" 
d="M184 737l-81 42q34 32 75 90t46 84l2 1l89 -85q-28 -20 -69.5 -63t-61.5 -69zM59 0v2q22 15 38 53t16 95v395q0 58 -16 95.5t-38 52.5v2h246v-2q-22 -15 -38 -53t-16 -95v-395q0 -58 16 -95.5t38 -52.5v-2h-246z" />
    <glyph glyph-name="icircumflex" unicode="&#xee;" horiz-adv-x="364" 
d="M92 729l-2 -1l-79 94q30 17 70 49.5t65 61.5h71q25 -29 64 -61t71 -50l-79 -94l-2 1q-6 17 -33.5 52t-56.5 65q-28 -29 -55.5 -64.5t-33.5 -52.5zM59 693v2h246v-2q-22 -15 -38 -53t-16 -95v-395q0 -58 16 -95.5t38 -52.5v-2h-246v2q22 15 38 53t16 95v395q0 58 -16 95.5
t-38 52.5z" />
    <glyph glyph-name="idieresis" unicode="&#xef;" horiz-adv-x="364" 
d="M105 758q-25 0 -42 17.5t-17 41.5q0 25 17 42t42 17q24 0 40.5 -17t16.5 -42q0 -24 -16.5 -41.5t-40.5 -17.5zM261 758q-25 0 -42 17.5t-17 41.5q0 25 17 42t42 17q24 0 40.5 -17t16.5 -42q0 -24 -16.5 -41.5t-40.5 -17.5zM59 0v2q22 15 38 53t16 95v395q0 58 -16 95.5
t-38 52.5v2h246v-2q-22 -15 -38 -53t-16 -95v-395q0 -58 16 -95.5t38 -52.5v-2h-246z" />
    <glyph glyph-name="eth" unicode="&#xf0;" horiz-adv-x="750" 
d="M358 695q159 0 253.5 -92.5t94.5 -254.5q0 -167 -91 -257.5t-273 -90.5h-274v2q22 15 38 53t16 95v156h-16q-55 0 -79 -17l-2 1l17 106h80v149q0 52 -16.5 93t-37.5 55v2h290zM352 99q100 0 153 64t53 185q0 127 -52 187.5t-159 60.5h-88v-200h49q44 0 71 14l2 -1
l-14 -103h-108v-207h93z" />
    <glyph glyph-name="ntilde" unicode="&#xf1;" horiz-adv-x="790" 
d="M266 748l-51 75q60 64 129 64q29 0 64.5 -18.5t56.5 -18.5t36 11t20 27h2l53 -83q-57 -51 -120 -51q-32 0 -68 19.5t-58 19.5q-39 0 -62 -45h-2zM59 0v2q22 15 38 53t16 95v400q0 44 -14 84.5t-40 58.5v2h227q3 -33 41 -96l144 -242q42 -71 92 -198h4q-16 91 -16 206v180
q0 58 -14.5 96t-36.5 52v2h231v-2q-22 -14 -38 -52.5t-16 -95.5v-395q0 -57 16 -95.5t38 -52.5v-2h-211q-18 43 -50 95l-141 229q-62 100 -104 228h-4q18 -107 18 -232v-170q0 -58 14.5 -96t36.5 -52v-2h-231z" />
    <glyph glyph-name="ograve" unicode="&#xf2;" horiz-adv-x="816" 
d="M426 745q-19 26 -62 69t-70 63l88 85l2 -1q5 -25 48 -84t75 -90zM400 -20q-164 0 -260 101.5t-96 259.5q0 170 99.5 272t271.5 102q160 0 258.5 -99.5t98.5 -260.5q0 -168 -102.5 -271.5t-269.5 -103.5zM410 84q94 0 153.5 71.5t59.5 189.5q0 126 -58 196t-160 70
q-98 0 -155 -71t-57 -189q0 -125 56 -196t161 -71z" />
    <glyph glyph-name="oacute" unicode="&#xf3;" horiz-adv-x="816" 
d="M414 745l-81 42q34 32 75 90t46 84l2 1l89 -85q-28 -20 -69.5 -63t-61.5 -69zM400 -20q-164 0 -260 101.5t-96 259.5q0 170 99.5 272t271.5 102q160 0 258.5 -99.5t98.5 -260.5q0 -168 -102.5 -271.5t-269.5 -103.5zM410 84q94 0 153.5 71.5t59.5 189.5q0 126 -58 196
t-160 70q-98 0 -155 -71t-57 -189q0 -125 56 -196t161 -71z" />
    <glyph glyph-name="ocircumflex" unicode="&#xf4;" horiz-adv-x="816" 
d="M322 737l-2 -1l-79 94q30 17 70 49.5t65 61.5h71q25 -29 64 -61t71 -50l-79 -94l-2 1q-6 17 -33.5 52t-56.5 65q-28 -29 -55.5 -64.5t-33.5 -52.5zM415 715q160 0 258.5 -99.5t98.5 -260.5q0 -168 -102.5 -271.5t-269.5 -103.5q-164 0 -260 101.5t-96 259.5
q0 170 99.5 272t271.5 102zM410 84q94 0 153.5 71.5t59.5 189.5q0 126 -58 196t-160 70q-98 0 -155 -71t-57 -189q0 -125 56 -196t161 -71z" />
    <glyph glyph-name="otilde" unicode="&#xf5;" horiz-adv-x="816" 
d="M280 756l-51 75q60 64 129 64q29 0 64.5 -18.5t56.5 -18.5t36 11t20 27h2l53 -83q-57 -51 -120 -51q-32 0 -68 19.5t-58 19.5q-39 0 -62 -45h-2zM400 -20q-164 0 -260 101.5t-96 259.5q0 170 99.5 272t271.5 102q160 0 258.5 -99.5t98.5 -260.5q0 -168 -102.5 -271.5
t-269.5 -103.5zM410 84q94 0 153.5 71.5t59.5 189.5q0 126 -58 196t-160 70q-98 0 -155 -71t-57 -189q0 -125 56 -196t161 -71z" />
    <glyph glyph-name="odieresis" unicode="&#xf6;" horiz-adv-x="816" 
d="M335 766q-25 0 -42 17.5t-17 41.5q0 25 17 42t42 17q24 0 40.5 -17t16.5 -42q0 -24 -16.5 -41.5t-40.5 -17.5zM491 766q-25 0 -42 17.5t-17 41.5q0 25 17 42t42 17q24 0 40.5 -17t16.5 -42q0 -24 -16.5 -41.5t-40.5 -17.5zM400 -20q-164 0 -260 101.5t-96 259.5
q0 170 99.5 272t271.5 102q160 0 258.5 -99.5t98.5 -260.5q0 -168 -102.5 -271.5t-269.5 -103.5zM410 84q94 0 153.5 71.5t59.5 189.5q0 126 -58 196t-160 70q-98 0 -155 -71t-57 -189q0 -125 56 -196t161 -71z" />
    <glyph glyph-name="divide" unicode="&#xf7;" horiz-adv-x="488" 
d="M254 438q-32 0 -54 21.5t-22 53.5q0 31 22 53t54 22t53 -21.5t21 -53.5t-21.5 -53.5t-52.5 -21.5zM20 247l-2 1l15 124h329q74 0 106 26l2 -1l-13 -125h-329q-77 0 -108 -25zM254 48q-32 0 -54 21.5t-22 53.5q0 31 22 53t54 22t53 -21.5t21 -53.5t-21.5 -53.5
t-52.5 -21.5z" />
    <glyph glyph-name="oslash" unicode="&#xf8;" horiz-adv-x="816" 
d="M774 695l-83 -99q81 -95 81 -241q0 -167 -103 -270.5t-269 -103.5q-109 0 -190 47l-24 -28q-38 -45 -54 -83l-2 -1l-88 85l83 98q-81 96 -81 242q0 169 99.5 271t271.5 102q105 0 190 -47l16 20q47 56 60 88l2 1zM405 609q-98 0 -155 -70.5t-57 -187.5q0 -88 28 -148
l311 368q-52 38 -127 38zM410 87q94 0 153.5 70.5t59.5 187.5q0 87 -29 148l-312 -368q52 -38 128 -38z" />
    <glyph glyph-name="ugrave" unicode="&#xf9;" horiz-adv-x="744" 
d="M386 737q-19 26 -62 69t-70 63l88 85l2 -1q5 -25 48 -84t75 -90zM367 -17q-135 0 -206 76t-71 227v259q0 57 -16 95t-38 53v2h243v-2q-20 -15 -35.5 -53t-15.5 -95v-270q0 -102 34 -144.5t116 -42.5q73 0 107 45.5t34 141.5v270q0 56 -15.5 94.5t-35.5 53.5v2h240v-2
q-22 -15 -38 -52.5t-16 -95.5v-259q0 -303 -287 -303z" />
    <glyph glyph-name="uacute" unicode="&#xfa;" horiz-adv-x="744" 
d="M374 737l-81 42q34 32 75 90t46 84l2 1l89 -85q-28 -20 -69.5 -63t-61.5 -69zM367 -17q-135 0 -206 76t-71 227v259q0 57 -16 95t-38 53v2h243v-2q-20 -15 -35.5 -53t-15.5 -95v-270q0 -102 34 -144.5t116 -42.5q73 0 107 45.5t34 141.5v270q0 56 -15.5 94.5t-35.5 53.5
v2h240v-2q-22 -15 -38 -52.5t-16 -95.5v-259q0 -303 -287 -303z" />
    <glyph glyph-name="ucircumflex" unicode="&#xfb;" horiz-adv-x="744" 
d="M282 729l-2 -1l-79 94q30 17 70 49.5t65 61.5h71q25 -29 64 -61t71 -50l-79 -94l-2 1q-6 17 -33.5 52t-56.5 65q-28 -29 -55.5 -64.5t-33.5 -52.5zM468 695h240v-2q-22 -15 -38 -52.5t-16 -95.5v-259q0 -303 -287 -303q-135 0 -206 76t-71 227v259q0 57 -16 95t-38 53v2
h243v-2q-20 -15 -35.5 -53t-15.5 -95v-270q0 -102 34 -144.5t116 -42.5q73 0 107 45.5t34 141.5v270q0 56 -15.5 94.5t-35.5 53.5v2z" />
    <glyph glyph-name="udieresis" unicode="&#xfc;" horiz-adv-x="744" 
d="M295 758q-25 0 -42 17.5t-17 41.5q0 25 17 42t42 17q24 0 40.5 -17t16.5 -42q0 -24 -16.5 -41.5t-40.5 -17.5zM451 758q-25 0 -42 17.5t-17 41.5q0 25 17 42t42 17q24 0 40.5 -17t16.5 -42q0 -24 -16.5 -41.5t-40.5 -17.5zM367 -17q-135 0 -206 76t-71 227v259
q0 57 -16 95t-38 53v2h243v-2q-20 -15 -35.5 -53t-15.5 -95v-270q0 -102 34 -144.5t116 -42.5q73 0 107 45.5t34 141.5v270q0 56 -15.5 94.5t-35.5 53.5v2h240v-2q-22 -15 -38 -52.5t-16 -95.5v-259q0 -303 -287 -303z" />
    <glyph glyph-name="yacute" unicode="&#xfd;" horiz-adv-x="643" 
d="M456 869q-28 -20 -69.5 -63t-61.5 -69l-81 42q34 32 75 90t46 84l2 1zM461 695h201v-2q-32 -24 -80 -102l-189 -312v-121q0 -61 17.5 -101.5t43.5 -54.5v-2h-259v2q24 14 42.5 55.5t18.5 100.5v116l-192 317q-46 75 -81 102v2h213v-2q-13 -39 23 -102l77 -133
q19 -31 31 -65h4q7 20 32 65l76 133q36 63 22 102v2z" />
    <glyph glyph-name="thorn" unicode="&#xfe;" horiz-adv-x="611" 
d="M332 578q250 0 250 -226q0 -112 -67.5 -170.5t-182.5 -58.5h-82q4 -93 46 -121v-2h-237v2q22 15 38 53t16 95v395q0 58 -16 95.5t-38 52.5v2h234v-2q-39 -25 -43 -115h82zM309 221q133 -1 133 126q0 68 -33 100.5t-100 31.5h-59v-257z" />
    <glyph glyph-name="ydieresis" unicode="&#xff;" horiz-adv-x="643" 
d="M246 758q-25 0 -42 17.5t-17 41.5q0 25 17 42t42 17q24 0 40.5 -17t16.5 -42q0 -24 -16.5 -41.5t-40.5 -17.5zM402 758q-25 0 -42 17.5t-17 41.5q0 25 17 42t42 17q24 0 40.5 -17t16.5 -42q0 -24 -16.5 -41.5t-40.5 -17.5zM461 695h201v-2q-32 -24 -80 -102l-189 -312
v-121q0 -61 17.5 -101.5t43.5 -54.5v-2h-259v2q24 14 42.5 55.5t18.5 100.5v116l-192 317q-46 75 -81 102v2h213v-2q-13 -39 23 -102l77 -133q19 -31 31 -65h4q7 20 32 65l76 133q36 63 22 102v2z" />
    <glyph glyph-name="Amacron" unicode="&#x100;" horiz-adv-x="676" 
d="M247 780q-43 0 -64 -8l-2 1l16 103h230q49 0 68 12l2 -1l-15 -106zM596 164q19 -54 47 -98.5t51 -63.5v-2h-226v2q14 11 15.5 40.5t-15.5 82.5l-9 24h-258l-9 -24q-17 -54 -16 -82.5t14 -40.5v-2h-210v2q58 52 97 162l143 412q12 47 5.5 75t-23.5 42v2h265v-2
q-17 -16 -24 -43t6 -74zM327 562q-9 -76 -56 -209l-37 -106h192l-37 106q-49 138 -58 209h-4z" />
    <glyph glyph-name="amacron" unicode="&#x101;" horiz-adv-x="676" 
d="M236 770q-43 0 -64 -8l-2 1l16 103h230q48 0 68 12l2 -1l-15 -106zM596 164q19 -54 47 -98.5t51 -63.5v-2h-226v2q14 11 15.5 40.5t-15.5 82.5l-9 24h-258l-9 -24q-17 -54 -16 -82.5t14 -40.5v-2h-210v2q58 52 97 162l143 412q12 47 5.5 75t-23.5 42v2h265v-2
q-17 -16 -24 -43t6 -74zM327 562q-9 -76 -56 -209l-37 -106h192l-37 106q-49 138 -58 209h-4z" />
    <glyph glyph-name="Abreve" unicode="&#x102;" horiz-adv-x="676" 
d="M331 742q-72 0 -118.5 38.5t-58.5 103.5l102 34l1 -2q-11 -30 9 -56.5t65 -26.5t65 26t11 57l1 2l100 -33q-16 -66 -62 -104.5t-115 -38.5zM596 164q19 -54 47 -98.5t51 -63.5v-2h-226v2q14 11 15.5 40.5t-15.5 82.5l-9 24h-258l-9 -24q-17 -54 -16 -82.5t14 -40.5v-2
h-210v2q58 52 97 162l143 412q12 47 5.5 75t-23.5 42v2h265v-2q-17 -16 -24 -43t6 -74zM327 562q-9 -76 -56 -209l-37 -106h192l-37 106q-49 138 -58 209h-4z" />
    <glyph glyph-name="abreve" unicode="&#x103;" horiz-adv-x="676" 
d="M331 742q-72 0 -118.5 38.5t-58.5 103.5l102 34l1 -2q-11 -30 9 -56.5t65 -26.5t65 26t11 57l1 2l100 -33q-16 -66 -62 -104.5t-115 -38.5zM596 164q19 -54 47 -98.5t51 -63.5v-2h-226v2q14 11 15.5 40.5t-15.5 82.5l-9 24h-258l-9 -24q-17 -54 -16 -82.5t14 -40.5v-2
h-210v2q58 52 97 162l143 412q12 47 5.5 75t-23.5 42v2h265v-2q-17 -16 -24 -43t6 -74zM327 562q-9 -76 -56 -209l-37 -106h192l-37 106q-49 138 -58 209h-4z" />
    <glyph glyph-name="Aogonek" unicode="&#x104;" horiz-adv-x="676" 
d="M629 0q-97 -44 -97 -111q0 -39 31 -55t74 3l1 -2l-64 -97q-60 -3 -104 27.5t-44 85.5q0 83 103 149h-61v2q14 11 15.5 40.5t-15.5 82.5l-9 24h-258l-9 -24q-17 -54 -16 -82.5t14 -40.5v-2h-210v2q58 52 97 162l143 412q12 47 5.5 75t-23.5 42v2h265v-2q-17 -16 -24 -43
t6 -74l147 -412q19 -54 47 -98.5t51 -63.5v-2h-65zM327 562q-9 -76 -56 -209l-37 -106h192l-37 106q-49 138 -58 209h-4z" />
    <glyph glyph-name="aogonek" unicode="&#x105;" horiz-adv-x="676" 
d="M629 0q-97 -44 -97 -111q0 -39 31 -55t74 3l1 -2l-64 -97q-60 -3 -104 27.5t-44 85.5q0 83 103 149h-61v2q14 11 15.5 40.5t-15.5 82.5l-9 24h-258l-9 -24q-17 -54 -16 -82.5t14 -40.5v-2h-210v2q58 52 97 162l143 412q12 47 5.5 75t-23.5 42v2h265v-2q-17 -16 -24 -43
t6 -74l147 -412q19 -54 47 -98.5t51 -63.5v-2h-65zM327 562q-9 -76 -56 -209l-37 -106h192l-37 106q-49 138 -58 209h-4z" />
    <glyph glyph-name="Cacute" unicode="&#x106;" horiz-adv-x="657" 
d="M411 745l-81 42q34 32 75 90t46 84l2 1l89 -85q-28 -20 -69.5 -63t-61.5 -69zM396 -15q-159 0 -255.5 101t-96.5 257q0 168 102 267t274 99q91 0 176 -25l16 -173l-2 -1q-30 46 -80.5 70t-110.5 24q-105 0 -165.5 -67.5t-60.5 -183.5q0 -118 55.5 -190t157.5 -72
q77 0 130 28.5t95 83.5l2 -1l-24 -179q-108 -38 -213 -38z" />
    <glyph glyph-name="cacute" unicode="&#x107;" horiz-adv-x="657" 
d="M411 745l-81 42q34 32 75 90t46 84l2 1l89 -85q-28 -20 -69.5 -63t-61.5 -69zM396 -15q-159 0 -255.5 101t-96.5 257q0 168 102 267t274 99q91 0 176 -25l16 -173l-2 -1q-30 46 -80.5 70t-110.5 24q-105 0 -165.5 -67.5t-60.5 -183.5q0 -118 55.5 -190t157.5 -72
q77 0 130 28.5t95 83.5l2 -1l-24 -179q-108 -38 -213 -38z" />
    <glyph glyph-name="Ccircumflex" unicode="&#x108;" horiz-adv-x="657" 
d="M319 737l-2 -1l-79 94q30 17 70 49.5t65 61.5h71q25 -29 64 -61t71 -50l-79 -94l-2 1q-6 17 -33.5 52t-56.5 65q-28 -29 -55.5 -64.5t-33.5 -52.5zM631 203l2 -1l-24 -179q-108 -38 -213 -38q-159 0 -255.5 101t-96.5 257q0 168 102 267t274 99q91 0 176 -25l16 -173
l-2 -1q-30 46 -80.5 70t-110.5 24q-105 0 -165.5 -67.5t-60.5 -183.5q0 -118 55.5 -190t157.5 -72q77 0 130 28.5t95 83.5z" />
    <glyph glyph-name="ccircumflex" unicode="&#x109;" horiz-adv-x="657" 
d="M319 737l-2 -1l-79 94q30 17 70 49.5t65 61.5h71q25 -29 64 -61t71 -50l-79 -94l-2 1q-6 17 -33.5 52t-56.5 65q-28 -29 -55.5 -64.5t-33.5 -52.5zM631 203l2 -1l-24 -179q-108 -38 -213 -38q-159 0 -255.5 101t-96.5 257q0 168 102 267t274 99q91 0 176 -25l16 -173
l-2 -1q-30 46 -80.5 70t-110.5 24q-105 0 -165.5 -67.5t-60.5 -183.5q0 -118 55.5 -190t157.5 -72q77 0 130 28.5t95 83.5z" />
    <glyph glyph-name="Cdotaccent" unicode="&#x10a;" horiz-adv-x="657" 
d="M409 756q-30 0 -50.5 21t-20.5 50q0 30 20.5 51t50.5 21q29 0 49.5 -21t20.5 -51q0 -29 -20.5 -50t-49.5 -21zM396 -15q-159 0 -255.5 101t-96.5 257q0 168 102 267t274 99q91 0 176 -25l16 -173l-2 -1q-30 46 -80.5 70t-110.5 24q-105 0 -165.5 -67.5t-60.5 -183.5
q0 -118 55.5 -190t157.5 -72q77 0 130 28.5t95 83.5l2 -1l-24 -179q-108 -38 -213 -38z" />
    <glyph glyph-name="cdotaccent" unicode="&#x10b;" horiz-adv-x="657" 
d="M409 756q-30 0 -50.5 21t-20.5 50q0 30 20.5 51t50.5 21q29 0 49.5 -21t20.5 -51q0 -29 -20.5 -50t-49.5 -21zM396 -15q-159 0 -255.5 101t-96.5 257q0 168 102 267t274 99q91 0 176 -25l16 -173l-2 -1q-30 46 -80.5 70t-110.5 24q-105 0 -165.5 -67.5t-60.5 -183.5
q0 -118 55.5 -190t157.5 -72q77 0 130 28.5t95 83.5l2 -1l-24 -179q-108 -38 -213 -38z" />
    <glyph glyph-name="Ccaron" unicode="&#x10c;" horiz-adv-x="657" 
d="M373 746q-25 29 -65.5 62t-69.5 49l79 94l2 -1q6 -17 33.5 -52t56.5 -65q79 83 89 117l2 1l79 -94q-30 -17 -70 -49.5t-65 -61.5h-71zM631 203l2 -1l-24 -179q-108 -38 -213 -38q-159 0 -255.5 101t-96.5 257q0 168 102 267t274 99q91 0 176 -25l16 -173l-2 -1
q-30 46 -80.5 70t-110.5 24q-105 0 -165.5 -67.5t-60.5 -183.5q0 -118 55.5 -190t157.5 -72q77 0 130 28.5t95 83.5z" />
    <glyph glyph-name="ccaron" unicode="&#x10d;" horiz-adv-x="657" 
d="M500 951l79 -94q-30 -17 -70 -49.5t-65 -61.5h-71q-25 29 -65.5 62t-69.5 49l79 94l2 -1q6 -17 33.5 -52t56.5 -65q79 83 89 117zM396 -15q-159 0 -255.5 101t-96.5 257q0 168 102 267t274 99q91 0 176 -25l16 -173l-2 -1q-30 46 -80.5 70t-110.5 24q-105 0 -165.5 -67.5
t-60.5 -183.5q0 -118 55.5 -190t157.5 -72q77 0 130 28.5t95 83.5l2 -1l-24 -179q-108 -38 -213 -38z" />
    <glyph glyph-name="Dcaron" unicode="&#x10e;" horiz-adv-x="741" 
d="M282 738q-25 29 -65.5 62t-69.5 49l79 94l2 -1q6 -17 33.5 -52t56.5 -65q79 83 89 117l2 1l79 -94q-30 -17 -70 -49.5t-65 -61.5h-71zM349 695q159 0 253.5 -92.5t94.5 -254.5q0 -167 -91 -257.5t-273 -90.5h-274v2q22 15 38 53t16 95v395q0 52 -16.5 93t-37.5 55v2h290z
M343 99q100 0 153 64t53 185q0 127 -52 187.5t-159 60.5h-88v-497h93z" />
    <glyph glyph-name="dcaron" unicode="&#x10f;" horiz-adv-x="741" 
d="M409 943l79 -94q-30 -17 -70 -49.5t-65 -61.5h-71q-25 29 -65.5 62t-69.5 49l79 94l2 -1q6 -17 33.5 -52t56.5 -65q79 83 89 117zM59 0v2q22 15 38 53t16 95v395q0 52 -16.5 93t-37.5 55v2h290q159 0 253.5 -92.5t94.5 -254.5q0 -167 -91 -257.5t-273 -90.5h-274zM250 99
h93q100 0 153 64t53 185q0 127 -52 187.5t-159 60.5h-88v-497z" />
    <glyph glyph-name="Dcroat" unicode="&#x110;" horiz-adv-x="750" 
d="M358 695q159 0 253.5 -92.5t94.5 -254.5q0 -167 -91 -257.5t-273 -90.5h-274v2q22 15 38 53t16 95v156h-16q-55 0 -79 -17l-2 1l17 106h80v149q0 52 -16.5 93t-37.5 55v2h290zM352 99q100 0 153 64t53 185q0 127 -52 187.5t-159 60.5h-88v-200h49q44 0 71 14l2 -1
l-14 -103h-108v-207h93z" />
    <glyph glyph-name="dcroat" unicode="&#x111;" horiz-adv-x="750" 
d="M358 695q159 0 253.5 -92.5t94.5 -254.5q0 -167 -91 -257.5t-273 -90.5h-274v2q22 15 38 53t16 95v156h-16q-55 0 -79 -17l-2 1l17 106h80v149q0 52 -16.5 93t-37.5 55v2h290zM352 99q100 0 153 64t53 185q0 127 -52 187.5t-159 60.5h-88v-200h49q44 0 71 14l2 -1
l-14 -103h-108v-207h93z" />
    <glyph glyph-name="Emacron" unicode="&#x112;" 
d="M220 770q-43 0 -64 -8l-2 1l16 103h230q48 0 68 12l2 -1l-15 -106zM560 192l2 -1l-28 -199q-49 8 -122 8h-353v2q22 15 38 53t16 95v395q0 58 -16 95.5t-38 52.5v2h359q71 0 106 8l17 -179l-2 -1q-36 74 -157 74h-132v-176h76q104 0 156 7l-29 -168h-2q-24 63 -109 63
h-92v-225h109q135 0 201 94z" />
    <glyph glyph-name="emacron" unicode="&#x113;" 
d="M220 770q-43 0 -64 -8l-2 1l16 103h230q48 0 68 12l2 -1l-15 -106zM560 192l2 -1l-28 -199q-49 8 -122 8h-353v2q22 15 38 53t16 95v395q0 58 -16 95.5t-38 52.5v2h359q71 0 106 8l17 -179l-2 -1q-36 74 -157 74h-132v-176h76q104 0 156 7l-29 -168h-2q-24 63 -109 63
h-92v-225h109q135 0 201 94z" />
    <glyph glyph-name="Ebreve" unicode="&#x114;" 
d="M315 742q-72 0 -118.5 38.5t-58.5 103.5l102 34l1 -2q-11 -30 9 -56.5t65 -26.5t65 26t11 57l1 2l100 -33q-16 -66 -62 -104.5t-115 -38.5zM560 192l2 -1l-28 -199q-49 8 -122 8h-353v2q22 15 38 53t16 95v395q0 58 -16 95.5t-38 52.5v2h359q71 0 106 8l17 -179l-2 -1
q-36 74 -157 74h-132v-176h76q104 0 156 7l-29 -168h-2q-24 63 -109 63h-92v-225h109q135 0 201 94z" />
    <glyph glyph-name="ebreve" unicode="&#x115;" 
d="M315 742q-72 0 -118.5 38.5t-58.5 103.5l102 34l1 -2q-11 -30 9 -56.5t65 -26.5t65 26t11 57l1 2l100 -33q-16 -66 -62 -104.5t-115 -38.5zM560 192l2 -1l-28 -199q-49 8 -122 8h-353v2q22 15 38 53t16 95v395q0 58 -16 95.5t-38 52.5v2h359q71 0 106 8l17 -179l-2 -1
q-36 74 -157 74h-132v-176h76q104 0 156 7l-29 -168h-2q-24 63 -109 63h-92v-225h109q135 0 201 94z" />
    <glyph glyph-name="Edotaccent" unicode="&#x116;" 
d="M315 748q-30 0 -50.5 21t-20.5 50q0 30 20.5 51t50.5 21q29 0 49.5 -21t20.5 -51q0 -29 -20.5 -50t-49.5 -21zM560 192l2 -1l-28 -199q-49 8 -122 8h-353v2q22 15 38 53t16 95v395q0 58 -16 95.5t-38 52.5v2h359q71 0 106 8l17 -179l-2 -1q-36 74 -157 74h-132v-176h76
q104 0 156 7l-29 -168h-2q-24 63 -109 63h-92v-225h109q135 0 201 94z" />
    <glyph glyph-name="edotaccent" unicode="&#x117;" 
d="M315 748q-30 0 -50.5 21t-20.5 50q0 30 20.5 51t50.5 21q29 0 49.5 -21t20.5 -51q0 -29 -20.5 -50t-49.5 -21zM560 192l2 -1l-28 -199q-49 8 -122 8h-353v2q22 15 38 53t16 95v395q0 58 -16 95.5t-38 52.5v2h359q71 0 106 8l17 -179l-2 -1q-36 74 -157 74h-132v-176h76
q104 0 156 7l-29 -168h-2q-24 63 -109 63h-92v-225h109q135 0 201 94z" />
    <glyph glyph-name="Eogonek" unicode="&#x118;" 
d="M487 -2q-92 -44 -92 -109q0 -39 31 -55t74 3l1 -2l-64 -97q-60 -3 -104 27.5t-44 85.5q0 83 103 149h-333v2q22 15 38 53t16 95v395q0 58 -16 95.5t-38 52.5v2h359q71 0 106 8l17 -179l-2 -1q-36 74 -157 74h-132v-176h76q104 0 156 7l-29 -168h-2q-24 63 -109 63h-92
v-225h109q135 0 201 94l2 -1l-28 -199q-24 5 -47 6z" />
    <glyph glyph-name="eogonek" unicode="&#x119;" 
d="M487 -2q-92 -44 -92 -109q0 -39 31 -55t74 3l1 -2l-64 -97q-60 -3 -104 27.5t-44 85.5q0 83 103 149h-333v2q22 15 38 53t16 95v395q0 58 -16 95.5t-38 52.5v2h359q71 0 106 8l17 -179l-2 -1q-36 74 -157 74h-132v-176h76q104 0 156 7l-29 -168h-2q-24 63 -109 63h-92
v-225h109q135 0 201 94l2 -1l-28 -199q-24 5 -47 6z" />
    <glyph glyph-name="Ecaron" unicode="&#x11a;" 
d="M279 738q-25 29 -65.5 62t-69.5 49l79 94l2 -1q6 -17 33.5 -52t56.5 -65q79 83 89 117l2 1l79 -94q-30 -17 -70 -49.5t-65 -61.5h-71zM560 192l2 -1l-28 -199q-49 8 -122 8h-353v2q22 15 38 53t16 95v395q0 58 -16 95.5t-38 52.5v2h359q71 0 106 8l17 -179l-2 -1
q-36 74 -157 74h-132v-176h76q104 0 156 7l-29 -168h-2q-24 63 -109 63h-92v-225h109q135 0 201 94z" />
    <glyph glyph-name="ecaron" unicode="&#x11b;" 
d="M279 738q-25 29 -65.5 62t-69.5 49l79 94l2 -1q6 -17 33.5 -52t56.5 -65q79 83 89 117l2 1l79 -94q-30 -17 -70 -49.5t-65 -61.5h-71zM560 192l2 -1l-28 -199q-49 8 -122 8h-353v2q22 15 38 53t16 95v395q0 58 -16 95.5t-38 52.5v2h359q71 0 106 8l17 -179l-2 -1
q-36 74 -157 74h-132v-176h76q104 0 156 7l-29 -168h-2q-24 63 -109 63h-92v-225h109q135 0 201 94z" />
    <glyph glyph-name="Gcircumflex" unicode="&#x11c;" horiz-adv-x="702" 
d="M314 737l-2 -1l-79 94q30 17 70 49.5t65 61.5h71q25 -29 64 -61t71 -50l-79 -94l-2 1q-6 17 -33.5 52t-56.5 65q-28 -29 -55.5 -64.5t-33.5 -52.5zM503 372h174v-2q-33 -22 -33 -148v-165q-50 -32 -119 -52t-129 -20q-156 0 -254 98.5t-98 254.5q0 172 102 271.5
t270 99.5q104 0 190 -27l15 -163l-2 -1q-77 86 -206 86q-104 0 -162.5 -68.5t-58.5 -187.5t57 -188t157 -69q63 0 110 22v163q-101 -2 -149 -52l-2 1l16 153q33 -6 122 -6z" />
    <glyph glyph-name="gcircumflex" unicode="&#x11d;" horiz-adv-x="702" 
d="M314 737l-2 -1l-79 94q30 17 70 49.5t65 61.5h71q25 -29 64 -61t71 -50l-79 -94l-2 1q-6 17 -33.5 52t-56.5 65q-28 -29 -55.5 -64.5t-33.5 -52.5zM503 372h174v-2q-33 -22 -33 -148v-165q-50 -32 -119 -52t-129 -20q-156 0 -254 98.5t-98 254.5q0 172 102 271.5
t270 99.5q104 0 190 -27l15 -163l-2 -1q-77 86 -206 86q-104 0 -162.5 -68.5t-58.5 -187.5t57 -188t157 -69q63 0 110 22v163q-101 -2 -149 -52l-2 1l16 153q33 -6 122 -6z" />
    <glyph glyph-name="Gbreve" unicode="&#x11e;" horiz-adv-x="702" 
d="M404 750q-72 0 -118.5 38.5t-58.5 103.5l102 34l1 -2q-11 -30 9 -56.5t65 -26.5t65 26t11 57l1 2l100 -33q-16 -66 -62 -104.5t-115 -38.5zM503 372h174v-2q-33 -22 -33 -148v-165q-50 -32 -119 -52t-129 -20q-156 0 -254 98.5t-98 254.5q0 172 102 271.5t270 99.5
q104 0 190 -27l15 -163l-2 -1q-77 86 -206 86q-104 0 -162.5 -68.5t-58.5 -187.5t57 -188t157 -69q63 0 110 22v163q-101 -2 -149 -52l-2 1l16 153q33 -6 122 -6z" />
    <glyph glyph-name="gbreve" unicode="&#x11f;" horiz-adv-x="702" 
d="M404 750q-72 0 -118.5 38.5t-58.5 103.5l102 34l1 -2q-11 -30 9 -56.5t65 -26.5t65 26t11 57l1 2l100 -33q-16 -66 -62 -104.5t-115 -38.5zM503 372h174v-2q-33 -22 -33 -148v-165q-50 -32 -119 -52t-129 -20q-156 0 -254 98.5t-98 254.5q0 172 102 271.5t270 99.5
q104 0 190 -27l15 -163l-2 -1q-77 86 -206 86q-104 0 -162.5 -68.5t-58.5 -187.5t57 -188t157 -69q63 0 110 22v163q-101 -2 -149 -52l-2 1l16 153q33 -6 122 -6z" />
    <glyph glyph-name="Gdotaccent" unicode="&#x120;" horiz-adv-x="702" 
d="M404 756q-30 0 -50.5 21t-20.5 50q0 30 20.5 51t50.5 21q29 0 49.5 -21t20.5 -51q0 -29 -20.5 -50t-49.5 -21zM503 372h174v-2q-33 -22 -33 -148v-165q-50 -32 -119 -52t-129 -20q-156 0 -254 98.5t-98 254.5q0 172 102 271.5t270 99.5q104 0 190 -27l15 -163l-2 -1
q-77 86 -206 86q-104 0 -162.5 -68.5t-58.5 -187.5t57 -188t157 -69q63 0 110 22v163q-101 -2 -149 -52l-2 1l16 153q33 -6 122 -6z" />
    <glyph glyph-name="gdotaccent" unicode="&#x121;" horiz-adv-x="702" 
d="M404 756q-30 0 -50.5 21t-20.5 50q0 30 20.5 51t50.5 21q29 0 49.5 -21t20.5 -51q0 -29 -20.5 -50t-49.5 -21zM503 372h174v-2q-33 -22 -33 -148v-165q-50 -32 -119 -52t-129 -20q-156 0 -254 98.5t-98 254.5q0 172 102 271.5t270 99.5q104 0 190 -27l15 -163l-2 -1
q-77 86 -206 86q-104 0 -162.5 -68.5t-58.5 -187.5t57 -188t157 -69q63 0 110 22v163q-101 -2 -149 -52l-2 1l16 153q33 -6 122 -6z" />
    <glyph glyph-name="uni0122" unicode="&#x122;" horiz-adv-x="702" 
d="M503 372h174v-2q-33 -22 -33 -148v-165q-50 -32 -119 -52t-129 -20q-156 0 -254 98.5t-98 254.5q0 172 102 271.5t270 99.5q104 0 190 -27l15 -163l-2 -1q-77 86 -206 86q-104 0 -162.5 -68.5t-58.5 -187.5t57 -188t157 -69q63 0 110 22v163q-101 -2 -149 -52l-2 1
l16 153q33 -6 122 -6zM346 -52l130 -9l1 -2q-75 -107 -101 -208l-83 30q14 24 32 90.5t21 98.5z" />
    <glyph glyph-name="uni0123" unicode="&#x123;" horiz-adv-x="702" 
d="M503 372h174v-2q-33 -22 -33 -148v-165q-50 -32 -119 -52t-129 -20q-156 0 -254 98.5t-98 254.5q0 172 102 271.5t270 99.5q104 0 190 -27l15 -163l-2 -1q-77 86 -206 86q-104 0 -162.5 -68.5t-58.5 -187.5t57 -188t157 -69q63 0 110 22v163q-101 -2 -149 -52l-2 1
l16 153q33 -6 122 -6zM346 -52l130 -9l1 -2q-75 -107 -101 -208l-83 30q14 24 32 90.5t21 98.5z" />
    <glyph glyph-name="Hcircumflex" unicode="&#x124;" horiz-adv-x="766" 
d="M293 729l-2 -1l-79 94q30 17 70 49.5t65 61.5h71q25 -29 64 -61t71 -50l-79 -94l-2 1q-6 17 -33.5 52t-56.5 65q-28 -29 -55.5 -64.5t-33.5 -52.5zM707 693q-22 -15 -38 -53t-16 -95v-399q0 -55 16 -92.5t38 -51.5v-2h-242v2q20 15 35.5 52.5t15.5 91.5v175h-266v-171
q0 -57 15 -95t36 -53v-2h-242v2q22 15 38 53t16 95v395q0 58 -16 95.5t-38 52.5v2h242v-2q-20 -15 -35.5 -53.5t-15.5 -94.5v-124h266v124q0 57 -15 95t-36 53v2h242v-2z" />
    <glyph glyph-name="hcircumflex" unicode="&#x125;" horiz-adv-x="766" 
d="M293 729l-2 -1l-79 94q30 17 70 49.5t65 61.5h71q25 -29 64 -61t71 -50l-79 -94l-2 1q-6 17 -33.5 52t-56.5 65q-28 -29 -55.5 -64.5t-33.5 -52.5zM707 693q-22 -15 -38 -53t-16 -95v-399q0 -55 16 -92.5t38 -51.5v-2h-242v2q20 15 35.5 52.5t15.5 91.5v175h-266v-171
q0 -57 15 -95t36 -53v-2h-242v2q22 15 38 53t16 95v395q0 58 -16 95.5t-38 52.5v2h242v-2q-20 -15 -35.5 -53.5t-15.5 -94.5v-124h266v124q0 57 -15 95t-36 53v2h242v-2z" />
    <glyph glyph-name="Hbar" unicode="&#x126;" horiz-adv-x="789" 
d="M758 501h-96v-355q0 -55 16 -92.5t38 -51.5v-2h-242v2q20 15 35.5 52.5t15.5 91.5v175h-266v-171q0 -57 15 -95t36 -53v-2h-242v2q22 15 38 53t16 95v351h-36q-40 0 -67 -13l-2 1l16 99h86q-9 77 -51 105v2h242v-2q-38 -28 -48 -105h260q-10 78 -48 105v2h242v-2
q-40 -28 -51 -105h34q34 0 71 14l2 -1zM525 421v80h-266v-80h266z" />
    <glyph glyph-name="hbar" unicode="&#x127;" horiz-adv-x="848" 
d="M788 486h-100v-340q0 -56 16 -94.5t36 -51.5h-241q20 13 36 52.5t16 97.5v167h-266v-171q0 -56 16 -94.5t36 -51.5h-241q20 13 36 52.5t16 97.5v336h-32q-50 0 -72 -25l19 115h84q-6 90 -51 119h241q-45 -23 -51 -119h264q-6 90 -51 119h241q-45 -23 -51 -119h40
q43 0 75 21zM551 423v63h-266v-63h266z" />
    <glyph glyph-name="Itilde" unicode="&#x128;" horiz-adv-x="364" 
d="M50 748l-51 75q60 64 129 64q29 0 64.5 -18.5t56.5 -18.5t36 11t20 27h2l53 -83q-57 -51 -120 -51q-32 0 -68 19.5t-58 19.5q-39 0 -62 -45h-2zM59 0v2q22 15 38 53t16 95v395q0 58 -16 95.5t-38 52.5v2h246v-2q-22 -15 -38 -53t-16 -95v-395q0 -58 16 -95.5t38 -52.5v-2
h-246z" />
    <glyph glyph-name="itilde" unicode="&#x129;" horiz-adv-x="364" 
d="M50 748l-51 75q60 64 129 64q29 0 64.5 -18.5t56.5 -18.5t36 11t20 27h2l53 -83q-57 -51 -120 -51q-32 0 -68 19.5t-58 19.5q-39 0 -62 -45h-2zM59 0v2q22 15 38 53t16 95v395q0 58 -16 95.5t-38 52.5v2h246v-2q-22 -15 -38 -53t-16 -95v-395q0 -58 16 -95.5t38 -52.5v-2
h-246z" />
    <glyph glyph-name="Imacron" unicode="&#x12a;" horiz-adv-x="364" 
d="M23 762l-2 1l16 103h230q49 0 68 12l2 -1l-15 -106l-235 -1q-43 0 -64 -8zM59 0v2q22 15 38 53t16 95v395q0 58 -16 95.5t-38 52.5v2h246v-2q-22 -15 -38 -53t-16 -95v-395q0 -58 16 -95.5t38 -52.5v-2h-246z" />
    <glyph glyph-name="imacron" unicode="&#x12b;" horiz-adv-x="364" 
d="M23 762l-2 1l16 103h230q49 0 68 12l2 -1l-15 -106l-235 -1q-43 0 -64 -8zM59 0v2q22 15 38 53t16 95v395q0 58 -16 95.5t-38 52.5v2h246v-2q-22 -15 -38 -53t-16 -95v-395q0 -58 16 -95.5t38 -52.5v-2h-246z" />
    <glyph glyph-name="Ibreve" unicode="&#x12c;" horiz-adv-x="364" 
d="M182 742q-72 0 -118.5 38.5t-58.5 103.5l102 34l1 -2q-11 -30 9 -56.5t65 -26.5t65 26t11 57l1 2l100 -33q-16 -66 -62 -104.5t-115 -38.5zM59 0v2q22 15 38 53t16 95v395q0 58 -16 95.5t-38 52.5v2h246v-2q-22 -15 -38 -53t-16 -95v-395q0 -58 16 -95.5t38 -52.5v-2
h-246z" />
    <glyph glyph-name="ibreve" unicode="&#x12d;" horiz-adv-x="364" 
d="M182 742q-72 0 -118.5 38.5t-58.5 103.5l102 34l1 -2q-11 -30 9 -56.5t65 -26.5t65 26t11 57l1 2l100 -33q-16 -66 -62 -104.5t-115 -38.5zM59 0v2q22 15 38 53t16 95v395q0 58 -16 95.5t-38 52.5v2h246v-2q-22 -15 -38 -53t-16 -95v-395q0 -58 16 -95.5t38 -52.5v-2
h-246z" />
    <glyph glyph-name="Iogonek" unicode="&#x12e;" horiz-adv-x="364" 
d="M305 693q-22 -15 -38 -53t-16 -95v-395q0 -58 16 -95.5t38 -52.5v-2h-54q-97 -44 -97 -111q0 -39 31 -55t74 3l1 -2l-64 -97q-60 -3 -104 27.5t-44 85.5q0 83 103 149h-92v2q22 15 38 53t16 95v395q0 58 -16 95.5t-38 52.5v2h246v-2z" />
    <glyph glyph-name="iogonek" unicode="&#x12f;" horiz-adv-x="364" 
d="M305 693q-22 -15 -38 -53t-16 -95v-395q0 -58 16 -95.5t38 -52.5v-2h-54q-97 -44 -97 -111q0 -39 31 -55t74 3l1 -2l-64 -97q-60 -3 -104 27.5t-44 85.5q0 83 103 149h-92v2q22 15 38 53t16 95v395q0 58 -16 95.5t-38 52.5v2h246v-2z" />
    <glyph glyph-name="Idotaccent" unicode="&#x130;" horiz-adv-x="364" 
d="M182 748q-30 0 -50.5 21t-20.5 50q0 30 20.5 51t50.5 21q29 0 49.5 -21t20.5 -51q0 -29 -20.5 -50t-49.5 -21zM59 0v2q22 15 38 53t16 95v395q0 58 -16 95.5t-38 52.5v2h246v-2q-22 -15 -38 -53t-16 -95v-395q0 -58 16 -95.5t38 -52.5v-2h-246z" />
    <glyph glyph-name="IJ" unicode="&#x132;" horiz-adv-x="793" 
d="M59 0v2q22 15 38 53t16 95v395q0 58 -16 95.5t-38 52.5v2h246v-2q-22 -15 -38 -53t-16 -95v-395q0 -58 16 -95.5t38 -52.5v-2h-246zM460 -22q-43 0 -100 15l-10 155h2q6 -11 15.5 -22.5t33.5 -25t53 -13.5q112 0 112 112v345q0 58 -16 96t-38 53v2h245v-2
q-22 -15 -38 -53t-16 -95v-310q0 -133 -58 -195t-185 -62z" />
    <glyph glyph-name="ij" unicode="&#x133;" horiz-adv-x="793" 
d="M59 0v2q22 15 38 53t16 95v395q0 58 -16 95.5t-38 52.5v2h246v-2q-22 -15 -38 -53t-16 -95v-395q0 -58 16 -95.5t38 -52.5v-2h-246zM460 -22q-43 0 -100 15l-10 155h2q6 -11 15.5 -22.5t33.5 -25t53 -13.5q112 0 112 112v345q0 58 -16 96t-38 53v2h245v-2
q-22 -15 -38 -53t-16 -95v-310q0 -133 -58 -195t-185 -62z" />
    <glyph glyph-name="Jcircumflex" unicode="&#x134;" horiz-adv-x="449" 
d="M189 729l-2 -1l-79 94q30 17 70 49.5t65 61.5h71q25 -29 64 -61t71 -50l-79 -94l-2 1q-6 17 -33.5 52t-56.5 65q-28 -29 -55.5 -64.5t-33.5 -52.5zM168 693v2h245v-2q-22 -15 -38 -53t-16 -95v-310q0 -133 -58 -195t-185 -62q-43 0 -100 15l-10 155h2q6 -11 15.5 -22.5
t33.5 -25t53 -13.5q112 0 112 112v345q0 58 -16 96t-38 53z" />
    <glyph glyph-name="jcircumflex" unicode="&#x135;" horiz-adv-x="449" 
d="M189 729l-2 -1l-79 94q30 17 70 49.5t65 61.5h71q25 -29 64 -61t71 -50l-79 -94l-2 1q-6 17 -33.5 52t-56.5 65q-28 -29 -55.5 -64.5t-33.5 -52.5zM168 693v2h245v-2q-22 -15 -38 -53t-16 -95v-310q0 -133 -58 -195t-185 -62q-43 0 -100 15l-10 155h2q6 -11 15.5 -22.5
t33.5 -25t53 -13.5q112 0 112 112v345q0 58 -16 96t-38 53z" />
    <glyph glyph-name="uni0136" unicode="&#x136;" horiz-adv-x="680" 
d="M299 2v-2h-240v2q22 15 38 53t16 95v399q0 55 -16 92.5t-38 51.5v2h240v-2q-20 -15 -34.5 -53t-14.5 -95v-396q0 -57 14.5 -94.5t34.5 -52.5zM602 113q26 -38 50.5 -59.5t60.5 -36.5v-2l-201 -34q-10 37 -49 95l-202 300l169 239q35 50 33 80h208v-2q-57 -27 -118 -111
l-141 -191zM325 -44l130 -9l1 -2q-75 -107 -101 -208l-83 30q14 24 32 90.5t21 98.5z" />
    <glyph glyph-name="uni0137" unicode="&#x137;" horiz-adv-x="680" 
d="M299 2v-2h-240v2q22 15 38 53t16 95v399q0 55 -16 92.5t-38 51.5v2h240v-2q-20 -15 -34.5 -53t-14.5 -95v-396q0 -57 14.5 -94.5t34.5 -52.5zM602 113q26 -38 50.5 -59.5t60.5 -36.5v-2l-201 -34q-10 37 -49 95l-202 300l169 239q35 50 33 80h208v-2q-57 -27 -118 -111
l-141 -191zM325 -44l130 -9l1 -2q-75 -107 -101 -208l-83 30q14 24 32 90.5t21 98.5z" />
    <glyph glyph-name="Lacute" unicode="&#x139;" horiz-adv-x="554" 
d="M181 737l-81 42q34 32 75 90t46 84l2 1l89 -85q-28 -20 -69.5 -63t-61.5 -69zM525 -8q-43 8 -111 8h-355v2q22 15 38 53t16 95v399q0 55 -16 92.5t-38 51.5v2h245v-2q-22 -15 -38 -53t-16 -95v-445h99q135 0 200 90l2 -1z" />
    <glyph glyph-name="lacute" unicode="&#x13a;" horiz-adv-x="554" 
d="M181 737l-81 42q34 32 75 90t46 84l2 1l89 -85q-28 -20 -69.5 -63t-61.5 -69zM525 -8q-43 8 -111 8h-355v2q22 15 38 53t16 95v399q0 55 -16 92.5t-38 51.5v2h245v-2q-22 -15 -38 -53t-16 -95v-445h99q135 0 200 90l2 -1z" />
    <glyph glyph-name="uni013B" unicode="&#x13b;" horiz-adv-x="554" 
d="M525 -8q-43 8 -111 8h-355v2q22 15 38 53t16 95v399q0 55 -16 92.5t-38 51.5v2h245v-2q-22 -15 -38 -53t-16 -95v-445h99q135 0 200 90l2 -1zM282 -263l-83 30q14 24 32 90.5t21 98.5l130 -9l1 -2q-75 -107 -101 -208z" />
    <glyph glyph-name="uni013C" unicode="&#x13c;" horiz-adv-x="554" 
d="M525 -8q-43 8 -111 8h-355v2q22 15 38 53t16 95v399q0 55 -16 92.5t-38 51.5v2h245v-2q-22 -15 -38 -53t-16 -95v-445h99q135 0 200 90l2 -1zM282 -263l-83 30q14 24 32 90.5t21 98.5l130 -9l1 -2q-75 -107 -101 -208z" />
    <glyph glyph-name="Lcaron" unicode="&#x13d;" horiz-adv-x="554" 
d="M143 738q-25 29 -65.5 62t-69.5 49l79 94l2 -1q6 -17 33.5 -52t56.5 -65q79 83 89 117l2 1l79 -94q-30 -17 -70 -49.5t-65 -61.5h-71zM549 190l2 -1l-26 -197q-43 8 -111 8h-355v2q22 15 38 53t16 95v399q0 55 -16 92.5t-38 51.5v2h245v-2q-22 -15 -38 -53t-16 -95v-445
h99q135 0 200 90z" />
    <glyph glyph-name="lcaron" unicode="&#x13e;" horiz-adv-x="554" 
d="M270 943l79 -94q-30 -17 -70 -49.5t-65 -61.5h-71q-25 29 -65.5 62t-69.5 49l79 94l2 -1q6 -17 33.5 -52t56.5 -65q79 83 89 117zM525 -8q-43 8 -111 8h-355v2q22 15 38 53t16 95v399q0 55 -16 92.5t-38 51.5v2h245v-2q-22 -15 -38 -53t-16 -95v-445h99q135 0 200 90
l2 -1z" />
    <glyph glyph-name="Ldot" unicode="&#x13f;" horiz-adv-x="554" 
d="M525 -8q-43 8 -111 8h-355v2q22 15 38 53t16 95v399q0 55 -16 92.5t-38 51.5v2h245v-2q-22 -15 -38 -53t-16 -95v-445h99q135 0 200 90l2 -1z" />
    <glyph glyph-name="ldot" unicode="&#x140;" horiz-adv-x="554" 
d="M525 -8q-43 8 -111 8h-355v2q22 15 38 53t16 95v399q0 55 -16 92.5t-38 51.5v2h245v-2q-22 -15 -38 -53t-16 -95v-445h99q135 0 200 90l2 -1z" />
    <glyph glyph-name="Lslash" unicode="&#x141;" horiz-adv-x="569" 
d="M564 190l2 -1l-26 -197q-43 8 -111 8h-355v2q22 15 38 53t16 95v92l-26 -14q-49 -25 -65 -55h-2l-22 99l115 62v215q0 55 -16 92.5t-38 51.5v2h245v-2q-22 -15 -38 -53t-16 -95v-137l71 38q23 12 44 30t28 30h2l27 -101l-172 -91v-214h99q136 0 200 90z" />
    <glyph glyph-name="lslash" unicode="&#x142;" horiz-adv-x="569" 
d="M564 190l2 -1l-26 -197q-43 8 -111 8h-355v2q22 15 38 53t16 95v92l-26 -14q-49 -25 -65 -55h-2l-22 99l115 62v215q0 55 -16 92.5t-38 51.5v2h245v-2q-22 -15 -38 -53t-16 -95v-137l71 38q23 12 44 30t28 30h2l27 -101l-172 -91v-214h99q136 0 200 90z" />
    <glyph glyph-name="Nacute" unicode="&#x143;" horiz-adv-x="790" 
d="M400 737l-81 42q34 32 75 90t46 84l2 1l89 -85q-28 -20 -69.5 -63t-61.5 -69zM59 0v2q22 15 38 53t16 95v400q0 44 -14 84.5t-40 58.5v2h227q3 -33 41 -96l144 -242q42 -71 92 -198h4q-16 91 -16 206v180q0 58 -14.5 96t-36.5 52v2h231v-2q-22 -14 -38 -52.5t-16 -95.5
v-395q0 -57 16 -95.5t38 -52.5v-2h-211q-18 43 -50 95l-141 229q-62 100 -104 228h-4q18 -107 18 -232v-170q0 -58 14.5 -96t36.5 -52v-2h-231z" />
    <glyph glyph-name="nacute" unicode="&#x144;" horiz-adv-x="790" 
d="M400 737l-81 42q34 32 75 90t46 84l2 1l89 -85q-28 -20 -69.5 -63t-61.5 -69zM59 0v2q22 15 38 53t16 95v400q0 44 -14 84.5t-40 58.5v2h227q3 -33 41 -96l144 -242q42 -71 92 -198h4q-16 91 -16 206v180q0 58 -14.5 96t-36.5 52v2h231v-2q-22 -14 -38 -52.5t-16 -95.5
v-395q0 -57 16 -95.5t38 -52.5v-2h-211q-18 43 -50 95l-141 229q-62 100 -104 228h-4q18 -107 18 -232v-170q0 -58 14.5 -96t36.5 -52v-2h-231z" />
    <glyph glyph-name="uni0145" unicode="&#x145;" horiz-adv-x="790" 
d="M59 0v2q22 15 38 53t16 95v400q0 44 -14 84.5t-40 58.5v2h227q3 -33 41 -96l144 -242q42 -71 92 -198h4q-16 91 -16 206v180q0 58 -14.5 96t-36.5 52v2h231v-2q-22 -14 -38 -52.5t-16 -95.5v-395q0 -57 16 -95.5t38 -52.5v-2h-211q-18 43 -50 95l-141 229
q-62 100 -104 228h-4q18 -107 18 -232v-170q0 -58 14.5 -96t36.5 -52v-2h-231zM383 -263l-83 30q14 24 32 90.5t21 98.5l130 -9l1 -2q-75 -107 -101 -208z" />
    <glyph glyph-name="uni0146" unicode="&#x146;" horiz-adv-x="790" 
d="M59 0v2q22 15 38 53t16 95v400q0 44 -14 84.5t-40 58.5v2h227q3 -33 41 -96l144 -242q42 -71 92 -198h4q-16 91 -16 206v180q0 58 -14.5 96t-36.5 52v2h231v-2q-22 -14 -38 -52.5t-16 -95.5v-395q0 -57 16 -95.5t38 -52.5v-2h-211q-18 43 -50 95l-141 229
q-62 100 -104 228h-4q18 -107 18 -232v-170q0 -58 14.5 -96t36.5 -52v-2h-231zM383 -263l-83 30q14 24 32 90.5t21 98.5l130 -9l1 -2q-75 -107 -101 -208z" />
    <glyph glyph-name="Ncaron" unicode="&#x147;" horiz-adv-x="790" 
d="M362 738q-25 29 -65.5 62t-69.5 49l79 94l2 -1q6 -17 33.5 -52t56.5 -65q79 83 89 117l2 1l79 -94q-30 -17 -70 -49.5t-65 -61.5h-71zM731 693q-22 -14 -38 -52.5t-16 -95.5v-395q0 -57 16 -95.5t38 -52.5v-2h-211q-18 43 -50 95l-141 229q-62 100 -104 228h-4
q18 -107 18 -232v-170q0 -58 14.5 -96t36.5 -52v-2h-231v2q22 15 38 53t16 95v400q0 44 -14 84.5t-40 58.5v2h227q3 -33 41 -96l144 -242q42 -71 92 -198h4q-16 91 -16 206v180q0 58 -14.5 96t-36.5 52v2h231v-2z" />
    <glyph glyph-name="ncaron" unicode="&#x148;" horiz-adv-x="790" 
d="M489 943l79 -94q-30 -17 -70 -49.5t-65 -61.5h-71q-25 29 -65.5 62t-69.5 49l79 94l2 -1q6 -17 33.5 -52t56.5 -65q79 83 89 117zM59 0v2q22 15 38 53t16 95v400q0 44 -14 84.5t-40 58.5v2h227q3 -33 41 -96l144 -242q42 -71 92 -198h4q-16 91 -16 206v180q0 58 -14.5 96
t-36.5 52v2h231v-2q-22 -14 -38 -52.5t-16 -95.5v-395q0 -57 16 -95.5t38 -52.5v-2h-211q-18 43 -50 95l-141 229q-62 100 -104 228h-4q18 -107 18 -232v-170q0 -58 14.5 -96t36.5 -52v-2h-231z" />
    <glyph glyph-name="Eng" unicode="&#x14a;" horiz-adv-x="790" 
d="M490 -186q-45 0 -91 17l-14 122h2q28 -39 81 -39q35 0 53.5 17.5t18.5 42.5q-20 41 -70 121l-141 225q-57 92 -104 232h-4q18 -118 18 -244v-158q0 -58 14.5 -96t36.5 -52v-2h-231v2q22 15 38 53t16 95v400q0 44 -14 84.5t-40 58.5v2h227q3 -33 41 -96l144 -242
q42 -71 92 -198h4q-16 102 -16 206l-1 180q0 116 -49 148v2h230v-2q-22 -14 -38 -52.5t-16 -95.5v-492q0 -239 -187 -239z" />
    <glyph glyph-name="eng" unicode="&#x14b;" horiz-adv-x="790" 
d="M490 -186q-45 0 -91 17l-14 122h2q28 -39 81 -39q35 0 53.5 17.5t18.5 42.5q-20 41 -70 121l-141 225q-57 92 -104 232h-4q18 -118 18 -244v-158q0 -58 14.5 -96t36.5 -52v-2h-231v2q22 15 38 53t16 95v400q0 44 -14 84.5t-40 58.5v2h227q3 -33 41 -96l144 -242
q42 -71 92 -198h4q-16 102 -16 206l-1 180q0 116 -49 148v2h230v-2q-22 -14 -38 -52.5t-16 -95.5v-492q0 -239 -187 -239z" />
    <glyph glyph-name="Omacron" unicode="&#x14c;" horiz-adv-x="816" 
d="M253 770l-2 1l16 103h230q49 0 68 12l2 -1l-15 -106l-235 -1q-43 0 -64 -8zM400 -20q-164 0 -260 101.5t-96 259.5q0 170 99.5 272t271.5 102q160 0 258.5 -99.5t98.5 -260.5q0 -168 -102.5 -271.5t-269.5 -103.5zM410 84q94 0 153.5 71.5t59.5 189.5q0 126 -58 196
t-160 70q-98 0 -155 -71t-57 -189q0 -125 56 -196t161 -71z" />
    <glyph glyph-name="omacron" unicode="&#x14d;" horiz-adv-x="816" 
d="M253 770l-2 1l16 103h230q49 0 68 12l2 -1l-15 -106l-235 -1q-43 0 -64 -8zM400 -20q-164 0 -260 101.5t-96 259.5q0 170 99.5 272t271.5 102q160 0 258.5 -99.5t98.5 -260.5q0 -168 -102.5 -271.5t-269.5 -103.5zM410 84q94 0 153.5 71.5t59.5 189.5q0 126 -58 196
t-160 70q-98 0 -155 -71t-57 -189q0 -125 56 -196t161 -71z" />
    <glyph glyph-name="Obreve" unicode="&#x14e;" horiz-adv-x="816" 
d="M412 750q-72 0 -118.5 38.5t-58.5 103.5l102 34l1 -2q-11 -30 9 -56.5t65 -26.5t65 26t11 57l1 2l100 -33q-16 -66 -62 -104.5t-115 -38.5zM400 -20q-164 0 -260 101.5t-96 259.5q0 170 99.5 272t271.5 102q160 0 258.5 -99.5t98.5 -260.5q0 -168 -102.5 -271.5
t-269.5 -103.5zM410 84q94 0 153.5 71.5t59.5 189.5q0 126 -58 196t-160 70q-98 0 -155 -71t-57 -189q0 -125 56 -196t161 -71z" />
    <glyph glyph-name="obreve" unicode="&#x14f;" horiz-adv-x="816" 
d="M412 750q-72 0 -118.5 38.5t-58.5 103.5l102 34l1 -2q-11 -30 9 -56.5t65 -26.5t65 26t11 57l1 2l100 -33q-16 -66 -62 -104.5t-115 -38.5zM400 -20q-164 0 -260 101.5t-96 259.5q0 170 99.5 272t271.5 102q160 0 258.5 -99.5t98.5 -260.5q0 -168 -102.5 -271.5
t-269.5 -103.5zM410 84q94 0 153.5 71.5t59.5 189.5q0 126 -58 196t-160 70q-98 0 -155 -71t-57 -189q0 -125 56 -196t161 -71z" />
    <glyph glyph-name="Ohungarumlaut" unicode="&#x150;" horiz-adv-x="816" 
d="M313 748l-74 37q31 29 72.5 87.5t46.5 83.5l2 1l79 -79q-92 -87 -126 -130zM458 743l-74 37q31 30 72 87.5t47 83.5l2 1l83 -81q-27 -20 -68 -61t-62 -67zM400 -20q-164 0 -260 101.5t-96 259.5q0 170 99.5 272t271.5 102q160 0 258.5 -99.5t98.5 -260.5
q0 -168 -102.5 -271.5t-269.5 -103.5zM410 84q94 0 153.5 71.5t59.5 189.5q0 126 -58 196t-160 70q-98 0 -155 -71t-57 -189q0 -125 56 -196t161 -71z" />
    <glyph glyph-name="ohungarumlaut" unicode="&#x151;" horiz-adv-x="816" 
d="M313 748l-74 37q31 29 72.5 87.5t46.5 83.5l2 1l79 -79q-92 -87 -126 -130zM458 743l-74 37q31 30 72 87.5t47 83.5l2 1l83 -81q-27 -20 -68 -61t-62 -67zM400 -20q-164 0 -260 101.5t-96 259.5q0 170 99.5 272t271.5 102q160 0 258.5 -99.5t98.5 -260.5
q0 -168 -102.5 -271.5t-269.5 -103.5zM410 84q94 0 153.5 71.5t59.5 189.5q0 126 -58 196t-160 70q-98 0 -155 -71t-57 -189q0 -125 56 -196t161 -71z" />
    <glyph glyph-name="OE" unicode="&#x152;" horiz-adv-x="964" 
d="M924 201l2 -1l-28 -208q-49 8 -122 8h-268q-50 -9 -99 -9q-169 0 -267 99.5t-98 250.5q0 162 101 262t276 100q49 0 86 -8h275q71 0 106 8l17 -187l-2 -1q-36 74 -157 74h-110v-168h54q104 0 156 7l-29 -175h-2q-24 63 -109 63h-70v-209h87q135 0 201 94zM192 351
q0 -118 57.5 -186t169.5 -68q54 0 87 11v475q-36 15 -95 15q-101 0 -160 -71t-59 -176z" />
    <glyph glyph-name="oe" unicode="&#x153;" horiz-adv-x="964" 
d="M924 201l2 -1l-28 -208q-49 8 -122 8h-268q-50 -9 -99 -9q-169 0 -267 99.5t-98 250.5q0 162 101 262t276 100q49 0 86 -8h275q71 0 106 8l17 -187l-2 -1q-36 74 -157 74h-110v-168h54q104 0 156 7l-29 -175h-2q-24 63 -109 63h-70v-209h87q135 0 201 94zM192 351
q0 -118 57.5 -186t169.5 -68q54 0 87 11v475q-36 15 -95 15q-101 0 -160 -71t-59 -176z" />
    <glyph glyph-name="Racute" unicode="&#x154;" horiz-adv-x="661" 
d="M434 869q-28 -20 -69.5 -63t-61.5 -69l-81 42q34 32 75 90t46 84l2 1zM553 135q58 -93 130 -117v-2l-205 -37q-19 57 -51 111l-155 265h48q134 0 134 124q0 55 -35 87t-99 31l-70 -1v-450q0 -54 15 -91.5t35 -52.5v-2h-241v2q22 14 38 52.5t16 95.5v399q0 55 -16 92.5
t-38 51.5v2h284q119 0 186 -56.5t67 -154.5q0 -154 -136 -198z" />
    <glyph glyph-name="racute" unicode="&#x155;" horiz-adv-x="661" 
d="M434 869q-28 -20 -69.5 -63t-61.5 -69l-81 42q34 32 75 90t46 84l2 1zM553 135q58 -93 130 -117v-2l-205 -37q-19 57 -51 111l-155 265h48q134 0 134 124q0 55 -35 87t-99 31l-70 -1v-450q0 -54 15 -91.5t35 -52.5v-2h-241v2q22 14 38 52.5t16 95.5v399q0 55 -16 92.5
t-38 51.5v2h284q119 0 186 -56.5t67 -154.5q0 -154 -136 -198z" />
    <glyph glyph-name="uni0156" unicode="&#x156;" horiz-adv-x="661" 
d="M553 135q58 -93 130 -117v-2l-205 -37q-19 57 -51 111l-155 265h48q134 0 134 124q0 55 -35 87t-99 31l-70 -1v-450q0 -54 15 -91.5t35 -52.5v-2h-241v2q22 14 38 52.5t16 95.5v399q0 55 -16 92.5t-38 51.5v2h284q119 0 186 -56.5t67 -154.5q0 -154 -136 -198zM319 -44
l130 -9l1 -2q-75 -107 -101 -208l-83 30q14 24 32 90.5t21 98.5z" />
    <glyph glyph-name="uni0157" unicode="&#x157;" horiz-adv-x="661" 
d="M553 135q58 -93 130 -117v-2l-205 -37q-19 57 -51 111l-155 265h48q134 0 134 124q0 55 -35 87t-99 31l-70 -1v-450q0 -54 15 -91.5t35 -52.5v-2h-241v2q22 14 38 52.5t16 95.5v399q0 55 -16 92.5t-38 51.5v2h284q119 0 186 -56.5t67 -154.5q0 -154 -136 -198zM319 -44
l130 -9l1 -2q-75 -107 -101 -208l-83 30q14 24 32 90.5t21 98.5z" />
    <glyph glyph-name="Rcaron" unicode="&#x158;" horiz-adv-x="661" 
d="M265 738q-25 29 -65.5 62t-69.5 49l79 94l2 -1q6 -17 33.5 -52t56.5 -65q79 83 89 117l2 1l79 -94q-30 -17 -70 -49.5t-65 -61.5h-71zM553 135q58 -93 130 -117v-2l-205 -37q-19 57 -51 111l-155 265h48q134 0 134 124q0 55 -35 87t-99 31l-70 -1v-450q0 -54 15 -91.5
t35 -52.5v-2h-241v2q22 14 38 52.5t16 95.5v399q0 55 -16 92.5t-38 51.5v2h284q119 0 186 -56.5t67 -154.5q0 -154 -136 -198z" />
    <glyph glyph-name="rcaron" unicode="&#x159;" horiz-adv-x="661" 
d="M265 738q-25 29 -65.5 62t-69.5 49l79 94l2 -1q6 -17 33.5 -52t56.5 -65q79 83 89 117l2 1l79 -94q-30 -17 -70 -49.5t-65 -61.5h-71zM553 135q58 -93 130 -117v-2l-205 -37q-19 57 -51 111l-155 265h48q134 0 134 124q0 55 -35 87t-99 31l-70 -1v-450q0 -54 15 -91.5
t35 -52.5v-2h-241v2q22 14 38 52.5t16 95.5v399q0 55 -16 92.5t-38 51.5v2h284q119 0 186 -56.5t67 -154.5q0 -154 -136 -198z" />
    <glyph glyph-name="Sacute" unicode="&#x15a;" horiz-adv-x="548" 
d="M297 744l-81 42q34 32 75 90t46 84l2 1l89 -85q-28 -20 -69.5 -63t-61.5 -69zM267 -15q-133 -2 -202 40l-17 168l2 1q83 -108 207 -105q116 3 116 90q0 25 -9.5 44t-31 33.5t-38.5 23t-50 22.5q-35 14 -53.5 23t-47.5 28t-44 39.5t-27 53t-12 72.5q0 79 64.5 134.5
t175.5 55.5q76 0 157 -21l13 -164h-2q-53 82 -158 82q-115 0 -115 -77q0 -21 8.5 -37t29 -29.5t36 -21t47.5 -20.5q30 -13 46 -20t43.5 -22.5t42.5 -31.5t31.5 -38.5t24 -52.5t7.5 -66q0 -87 -63.5 -145t-180.5 -59z" />
    <glyph glyph-name="sacute" unicode="&#x15b;" horiz-adv-x="548" 
d="M297 744l-81 42q34 32 75 90t46 84l2 1l89 -85q-28 -20 -69.5 -63t-61.5 -69zM267 -15q-133 -2 -202 40l-17 168l2 1q83 -108 207 -105q116 3 116 90q0 25 -9.5 44t-31 33.5t-38.5 23t-50 22.5q-35 14 -53.5 23t-47.5 28t-44 39.5t-27 53t-12 72.5q0 79 64.5 134.5
t175.5 55.5q76 0 157 -21l13 -164h-2q-53 82 -158 82q-115 0 -115 -77q0 -21 8.5 -37t29 -29.5t36 -21t47.5 -20.5q30 -13 46 -20t43.5 -22.5t42.5 -31.5t31.5 -38.5t24 -52.5t7.5 -66q0 -87 -63.5 -145t-180.5 -59z" />
    <glyph glyph-name="Scircumflex" unicode="&#x15c;" horiz-adv-x="548" 
d="M205 736l-2 -1l-79 94q30 17 70 49.5t65 61.5h71q25 -29 64 -61t71 -50l-79 -94l-2 1q-6 17 -33.5 52t-56.5 65q-28 -29 -55.5 -64.5t-33.5 -52.5zM316 420q30 -13 46 -20t43.5 -22.5t42.5 -31.5t31.5 -38.5t24 -52.5t7.5 -66q0 -87 -63.5 -145t-180.5 -59
q-133 -2 -202 40l-17 168l2 1q83 -108 207 -105q116 3 116 90q0 25 -9.5 44t-31 33.5t-38.5 23t-50 22.5q-35 14 -53.5 23t-47.5 28t-44 39.5t-27 53t-12 72.5q0 79 64.5 134.5t175.5 55.5q76 0 157 -21l13 -164h-2q-53 82 -158 82q-115 0 -115 -77q0 -21 8.5 -37t29 -29.5
t36 -21t47.5 -20.5z" />
    <glyph glyph-name="scircumflex" unicode="&#x15d;" horiz-adv-x="548" 
d="M205 736l-2 -1l-79 94q30 17 70 49.5t65 61.5h71q25 -29 64 -61t71 -50l-79 -94l-2 1q-6 17 -33.5 52t-56.5 65q-28 -29 -55.5 -64.5t-33.5 -52.5zM316 420q30 -13 46 -20t43.5 -22.5t42.5 -31.5t31.5 -38.5t24 -52.5t7.5 -66q0 -87 -63.5 -145t-180.5 -59
q-133 -2 -202 40l-17 168l2 1q83 -108 207 -105q116 3 116 90q0 25 -9.5 44t-31 33.5t-38.5 23t-50 22.5q-35 14 -53.5 23t-47.5 28t-44 39.5t-27 53t-12 72.5q0 79 64.5 134.5t175.5 55.5q76 0 157 -21l13 -164h-2q-53 82 -158 82q-115 0 -115 -77q0 -21 8.5 -37t29 -29.5
t36 -21t47.5 -20.5z" />
    <glyph glyph-name="Scedilla" unicode="&#x15e;" horiz-adv-x="548" 
d="M511 189q0 -82 -56 -138t-159 -65l-5 -27q116 -12 116 -105q0 -57 -41 -87t-96 -30q-50 0 -88 23l-9 87l2 1q42 -37 85 -37q27 0 42 11.5t15 30.5q0 39 -62 39q-30 0 -50 -4l-2 2l20 96q-103 6 -158 39l-17 168l2 1q83 -108 207 -105q116 3 116 90q0 25 -9.5 44t-31 33.5
t-38.5 23t-50 22.5q-35 14 -53.5 23t-47.5 28t-44 39.5t-27 53t-12 72.5q0 79 64.5 134.5t175.5 55.5q76 0 157 -21l13 -164h-2q-53 82 -158 82q-115 0 -115 -77q0 -21 8.5 -37t29 -29.5t36 -21t47.5 -20.5q30 -13 46 -20t43.5 -22.5t42.5 -31.5t31.5 -38.5t24 -52.5
t7.5 -66z" />
    <glyph glyph-name="scedilla" unicode="&#x15f;" horiz-adv-x="548" 
d="M511 189q0 -82 -56 -138t-159 -65l-5 -27q116 -12 116 -105q0 -57 -41 -87t-96 -30q-50 0 -88 23l-9 87l2 1q42 -37 85 -37q27 0 42 11.5t15 30.5q0 39 -62 39q-30 0 -50 -4l-2 2l20 96q-103 6 -158 39l-17 168l2 1q83 -108 207 -105q116 3 116 90q0 25 -9.5 44t-31 33.5
t-38.5 23t-50 22.5q-35 14 -53.5 23t-47.5 28t-44 39.5t-27 53t-12 72.5q0 79 64.5 134.5t175.5 55.5q76 0 157 -21l13 -164h-2q-53 82 -158 82q-115 0 -115 -77q0 -21 8.5 -37t29 -29.5t36 -21t47.5 -20.5q30 -13 46 -20t43.5 -22.5t42.5 -31.5t31.5 -38.5t24 -52.5
t7.5 -66z" />
    <glyph glyph-name="Scaron" unicode="&#x160;" horiz-adv-x="548" 
d="M386 950l79 -94q-30 -17 -70 -49.5t-65 -61.5h-71q-25 29 -65.5 62t-69.5 49l79 94l2 -1q6 -17 33.5 -52t56.5 -65q79 83 89 117zM267 -15q-133 -2 -202 40l-17 168l2 1q83 -108 207 -105q116 3 116 90q0 25 -9.5 44t-31 33.5t-38.5 23t-50 22.5q-35 14 -53.5 23
t-47.5 28t-44 39.5t-27 53t-12 72.5q0 79 64.5 134.5t175.5 55.5q76 0 157 -21l13 -164h-2q-53 82 -158 82q-115 0 -115 -77q0 -21 8.5 -37t29 -29.5t36 -21t47.5 -20.5q30 -13 46 -20t43.5 -22.5t42.5 -31.5t31.5 -38.5t24 -52.5t7.5 -66q0 -87 -63.5 -145t-180.5 -59z" />
    <glyph glyph-name="scaron" unicode="&#x161;" horiz-adv-x="548" 
d="M386 950l79 -94q-30 -17 -70 -49.5t-65 -61.5h-71q-25 29 -65.5 62t-69.5 49l79 94l2 -1q6 -17 33.5 -52t56.5 -65q79 83 89 117zM267 -15q-133 -2 -202 40l-17 168l2 1q83 -108 207 -105q116 3 116 90q0 25 -9.5 44t-31 33.5t-38.5 23t-50 22.5q-35 14 -53.5 23
t-47.5 28t-44 39.5t-27 53t-12 72.5q0 79 64.5 134.5t175.5 55.5q76 0 157 -21l13 -164h-2q-53 82 -158 82q-115 0 -115 -77q0 -21 8.5 -37t29 -29.5t36 -21t47.5 -20.5q30 -13 46 -20t43.5 -22.5t42.5 -31.5t31.5 -38.5t24 -52.5t7.5 -66q0 -87 -63.5 -145t-180.5 -59z" />
    <glyph glyph-name="uni0162" unicode="&#x162;" horiz-adv-x="592" 
d="M555 703l17 -183l-2 -1q-18 32 -52.5 53t-77.5 21h-75v-435q0 -61 17.5 -101.5t43.5 -54.5v-2h-93l-5 -26q116 -12 116 -105q0 -57 -41 -87t-96 -30q-50 0 -88 23l-9 87l2 1q42 -37 85 -37q27 0 42 11.5t15 30.5q0 39 -62 39q-30 0 -50 -4l-2 2l20 95h-93v2
q24 14 42.5 55.5t18.5 100.5v435h-76q-43 0 -77.5 -21t-52.5 -53l-2 1l17 183q61 -8 137 -8h244q76 0 137 8z" />
    <glyph glyph-name="uni0163" unicode="&#x163;" horiz-adv-x="592" 
d="M555 703l17 -183l-2 -1q-18 32 -52.5 53t-77.5 21h-75v-435q0 -61 17.5 -101.5t43.5 -54.5v-2h-93l-5 -26q116 -12 116 -105q0 -57 -41 -87t-96 -30q-50 0 -88 23l-9 87l2 1q42 -37 85 -37q27 0 42 11.5t15 30.5q0 39 -62 39q-30 0 -50 -4l-2 2l20 95h-93v2
q24 14 42.5 55.5t18.5 100.5v435h-76q-43 0 -77.5 -21t-52.5 -53l-2 1l17 183q61 -8 137 -8h244q76 0 137 8z" />
    <glyph glyph-name="Tcaron" unicode="&#x164;" horiz-adv-x="592" 
d="M260 738q-25 29 -65.5 62t-69.5 49l79 94l2 -1q6 -17 33.5 -52t56.5 -65q79 83 89 117l2 1l79 -94q-30 -17 -70 -49.5t-65 -61.5h-71zM555 703l17 -183l-2 -1q-18 32 -52.5 53t-77.5 21h-75v-435q0 -61 17.5 -101.5t43.5 -54.5v-2h-259v2q24 14 42.5 55.5t18.5 100.5v435
h-76q-43 0 -77.5 -21t-52.5 -53l-2 1l17 183q61 -8 137 -8h244q76 0 137 8z" />
    <glyph glyph-name="tcaron" unicode="&#x165;" horiz-adv-x="592" 
d="M260 738q-25 29 -65.5 62t-69.5 49l79 94l2 -1q6 -17 33.5 -52t56.5 -65q79 83 89 117l2 1l79 -94q-30 -17 -70 -49.5t-65 -61.5h-71zM555 703l17 -183l-2 -1q-18 32 -52.5 53t-77.5 21h-75v-435q0 -61 17.5 -101.5t43.5 -54.5v-2h-259v2q24 14 42.5 55.5t18.5 100.5v435
h-76q-43 0 -77.5 -21t-52.5 -53l-2 1l17 183q61 -8 137 -8h244q76 0 137 8z" />
    <glyph glyph-name="Tbar" unicode="&#x166;" horiz-adv-x="592" 
d="M555 703l17 -183l-2 -1q-18 32 -52.5 53t-77.5 21h-75v-217h50q43 0 73 20l2 -1l-16 -109h-109v-128q0 -61 17.5 -101.5t43.5 -54.5v-2h-259v2q24 14 42.5 55.5t18.5 100.5v128h-46q-45 0 -69 -22l-2 1l18 111h99v217h-76q-43 0 -77.5 -21t-52.5 -53l-2 1l17 183
q61 -8 137 -8h244q76 0 137 8z" />
    <glyph glyph-name="tbar" unicode="&#x167;" horiz-adv-x="592" 
d="M555 703l17 -183l-2 -1q-18 32 -52.5 53t-77.5 21h-75v-217h50q43 0 73 20l2 -1l-16 -109h-109v-128q0 -61 17.5 -101.5t43.5 -54.5v-2h-259v2q24 14 42.5 55.5t18.5 100.5v128h-46q-45 0 -69 -22l-2 1l18 111h99v217h-76q-43 0 -77.5 -21t-52.5 -53l-2 1l17 183
q61 -8 137 -8h244q76 0 137 8z" />
    <glyph glyph-name="Utilde" unicode="&#x168;" horiz-adv-x="744" 
d="M240 748l-51 75q60 64 129 64q29 0 64.5 -18.5t56.5 -18.5t36 11t20 27h2l53 -83q-57 -51 -120 -51q-32 0 -68 19.5t-58 19.5q-39 0 -62 -45h-2zM367 -17q-135 0 -206 76t-71 227v259q0 57 -16 95t-38 53v2h243v-2q-20 -15 -35.5 -53t-15.5 -95v-270q0 -102 34 -144.5
t116 -42.5q73 0 107 45.5t34 141.5v270q0 56 -15.5 94.5t-35.5 53.5v2h240v-2q-22 -15 -38 -52.5t-16 -95.5v-259q0 -303 -287 -303z" />
    <glyph glyph-name="utilde" unicode="&#x169;" horiz-adv-x="744" 
d="M240 748l-51 75q60 64 129 64q29 0 64.5 -18.5t56.5 -18.5t36 11t20 27h2l53 -83q-57 -51 -120 -51q-32 0 -68 19.5t-58 19.5q-39 0 -62 -45h-2zM367 -17q-135 0 -206 76t-71 227v259q0 57 -16 95t-38 53v2h243v-2q-20 -15 -35.5 -53t-15.5 -95v-270q0 -102 34 -144.5
t116 -42.5q73 0 107 45.5t34 141.5v270q0 56 -15.5 94.5t-35.5 53.5v2h240v-2q-22 -15 -38 -52.5t-16 -95.5v-259q0 -303 -287 -303z" />
    <glyph glyph-name="Umacron" unicode="&#x16a;" horiz-adv-x="744" 
d="M213 762l-2 1l16 103h230q49 0 68 12l2 -1l-15 -106l-235 -1q-43 0 -64 -8zM367 -17q-135 0 -206 76t-71 227v259q0 57 -16 95t-38 53v2h243v-2q-20 -15 -35.5 -53t-15.5 -95v-270q0 -102 34 -144.5t116 -42.5q73 0 107 45.5t34 141.5v270q0 56 -15.5 94.5t-35.5 53.5v2
h240v-2q-22 -15 -38 -52.5t-16 -95.5v-259q0 -303 -287 -303z" />
    <glyph glyph-name="umacron" unicode="&#x16b;" horiz-adv-x="744" 
d="M213 762l-2 1l16 103h230q49 0 68 12l2 -1l-15 -106l-235 -1q-43 0 -64 -8zM367 -17q-135 0 -206 76t-71 227v259q0 57 -16 95t-38 53v2h243v-2q-20 -15 -35.5 -53t-15.5 -95v-270q0 -102 34 -144.5t116 -42.5q73 0 107 45.5t34 141.5v270q0 56 -15.5 94.5t-35.5 53.5v2
h240v-2q-22 -15 -38 -52.5t-16 -95.5v-259q0 -303 -287 -303z" />
    <glyph glyph-name="Uring" unicode="&#x16e;" horiz-adv-x="744" 
d="M374 703q-61 0 -102.5 39.5t-41.5 98.5q0 60 42 100t102 40q59 0 101 -40.5t42 -99.5q0 -58 -42 -98t-101 -40zM374 790q23 0 36 13.5t13 37.5q0 52 -49 52q-24 0 -37.5 -13.5t-13.5 -38.5q0 -24 13.5 -37.5t37.5 -13.5zM367 -17q-135 0 -206 76t-71 227v259q0 57 -16 95
t-38 53v2h243v-2q-20 -15 -35.5 -53t-15.5 -95v-270q0 -102 34 -144.5t116 -42.5q73 0 107 45.5t34 141.5v270q0 56 -15.5 94.5t-35.5 53.5v2h240v-2q-22 -15 -38 -52.5t-16 -95.5v-259q0 -303 -287 -303z" />
    <glyph glyph-name="uring" unicode="&#x16f;" horiz-adv-x="744" 
d="M374 695q-61 0 -102.5 39.5t-41.5 98.5q0 60 42 100t102 40q59 0 101 -40.5t42 -99.5q0 -58 -42 -98t-101 -40zM374 782q23 0 36 13.5t13 37.5q0 52 -49 52q-24 0 -37.5 -13.5t-13.5 -38.5q0 -24 13.5 -37.5t37.5 -13.5zM367 -17q-135 0 -206 76t-71 227v259q0 57 -16 95
t-38 53v2h243v-2q-20 -15 -35.5 -53t-15.5 -95v-270q0 -102 34 -144.5t116 -42.5q73 0 107 45.5t34 141.5v270q0 56 -15.5 94.5t-35.5 53.5v2h240v-2q-22 -15 -38 -52.5t-16 -95.5v-259q0 -303 -287 -303z" />
    <glyph glyph-name="Uhungarumlaut" unicode="&#x170;" horiz-adv-x="744" 
d="M273 740l-74 37q31 29 72.5 87.5t46.5 83.5l2 1l79 -79q-92 -87 -126 -130zM418 735l-74 37q31 30 72 87.5t47 83.5l2 1l83 -81q-27 -20 -68 -61t-62 -67zM367 -17q-135 0 -206 76t-71 227v259q0 57 -16 95t-38 53v2h243v-2q-20 -15 -35.5 -53t-15.5 -95v-270
q0 -102 34 -144.5t116 -42.5q73 0 107 45.5t34 141.5v270q0 56 -15.5 94.5t-35.5 53.5v2h240v-2q-22 -15 -38 -52.5t-16 -95.5v-259q0 -303 -287 -303z" />
    <glyph glyph-name="uhungarumlaut" unicode="&#x171;" horiz-adv-x="744" 
d="M273 740l-74 37q31 29 72.5 87.5t46.5 83.5l2 1l79 -79q-92 -87 -126 -130zM418 735l-74 37q31 30 72 87.5t47 83.5l2 1l83 -81q-27 -20 -68 -61t-62 -67zM367 -17q-135 0 -206 76t-71 227v259q0 57 -16 95t-38 53v2h243v-2q-20 -15 -35.5 -53t-15.5 -95v-270
q0 -102 34 -144.5t116 -42.5q73 0 107 45.5t34 141.5v270q0 56 -15.5 94.5t-35.5 53.5v2h240v-2q-22 -15 -38 -52.5t-16 -95.5v-259q0 -303 -287 -303z" />
    <glyph glyph-name="Uogonek" unicode="&#x172;" horiz-adv-x="744" 
d="M468 695h240v-2q-22 -15 -38 -52.5t-16 -95.5v-259q0 -200 -122 -267q-79 -58 -79 -130q0 -39 31 -55t74 3l1 -2l-64 -97q-60 -3 -104 27.5t-44 85.5q0 73 71 135q-24 -3 -51 -3q-135 0 -206 76t-71 227v259q0 57 -16 95t-38 53v2h243v-2q-20 -15 -35.5 -53t-15.5 -95
v-270q0 -102 34 -144.5t116 -42.5q73 0 107 45.5t34 141.5v270q0 56 -15.5 94.5t-35.5 53.5v2z" />
    <glyph glyph-name="uogonek" unicode="&#x173;" horiz-adv-x="744" 
d="M468 695h240v-2q-22 -15 -38 -52.5t-16 -95.5v-259q0 -231 -165 -286q-98 -42 -98 -111q0 -39 31 -55t74 3l1 -2l-64 -97q-60 -3 -104 27.5t-44 85.5q0 72 79 132q-134 1 -204 76.5t-70 226.5v259q0 57 -16 95t-38 53v2h243v-2q-20 -15 -35.5 -53t-15.5 -95v-270
q0 -102 34 -144.5t116 -42.5q73 0 107 45.5t34 141.5v270q0 56 -15.5 94.5t-35.5 53.5v2z" />
    <glyph glyph-name="Wcircumflex" unicode="&#x174;" horiz-adv-x="1052" 
d="M445 729l-2 -1l-79 94q30 17 70 49.5t65 61.5h71q25 -29 64 -61t71 -50l-79 -94l-2 1q-6 17 -33.5 52t-56.5 65q-28 -29 -55.5 -64.5t-33.5 -52.5zM825 695h222v-2q-47 -26 -68 -116l-101 -421q-22 -94 23 -154v-2h-234v2q30 49 -6 124l-73 156q-37 78 -47 153h-4
q-18 -73 -44 -130l-84 -179q-36 -78 -5 -124v-2h-236v2q50 54 23 154l-116 422q-24 91 -68 115v2h242v-2q-21 -18 -28 -51t2 -73l57 -223q20 -79 24 -181h4q23 95 70 191l107 219q35 74 49 126h6q21 -70 49 -125l97 -190q57 -113 79 -221h4q7 101 31 204l49 200
q21 82 -25 124z" />
    <glyph glyph-name="wcircumflex" unicode="&#x175;" horiz-adv-x="1052" 
d="M445 729l-2 -1l-79 94q30 17 70 49.5t65 61.5h71q25 -29 64 -61t71 -50l-79 -94l-2 1q-6 17 -33.5 52t-56.5 65q-28 -29 -55.5 -64.5t-33.5 -52.5zM825 695h222v-2q-47 -26 -68 -116l-101 -421q-22 -94 23 -154v-2h-234v2q30 49 -6 124l-73 156q-37 78 -47 153h-4
q-18 -73 -44 -130l-84 -179q-36 -78 -5 -124v-2h-236v2q50 54 23 154l-116 422q-24 91 -68 115v2h242v-2q-21 -18 -28 -51t2 -73l57 -223q20 -79 24 -181h4q23 95 70 191l107 219q35 74 49 126h6q21 -70 49 -125l97 -190q57 -113 79 -221h4q7 101 31 204l49 200
q21 82 -25 124z" />
    <glyph glyph-name="Ycircumflex" unicode="&#x176;" horiz-adv-x="643" 
d="M233 729l-2 -1l-79 94q30 17 70 49.5t65 61.5h71q25 -29 64 -61t71 -50l-79 -94l-2 1q-6 17 -33.5 52t-56.5 65q-28 -29 -55.5 -64.5t-33.5 -52.5zM461 695h201v-2q-32 -24 -80 -102l-189 -312v-121q0 -61 17.5 -101.5t43.5 -54.5v-2h-259v2q24 14 42.5 55.5t18.5 100.5
v116l-192 317q-46 75 -81 102v2h213v-2q-13 -39 23 -102l77 -133q19 -31 31 -65h4q7 20 32 65l76 133q36 63 22 102v2z" />
    <glyph glyph-name="ycircumflex" unicode="&#x177;" horiz-adv-x="643" 
d="M233 729l-2 -1l-79 94q30 17 70 49.5t65 61.5h71q25 -29 64 -61t71 -50l-79 -94l-2 1q-6 17 -33.5 52t-56.5 65q-28 -29 -55.5 -64.5t-33.5 -52.5zM461 695h201v-2q-32 -24 -80 -102l-189 -312v-121q0 -61 17.5 -101.5t43.5 -54.5v-2h-259v2q24 14 42.5 55.5t18.5 100.5
v116l-192 317q-46 75 -81 102v2h213v-2q-13 -39 23 -102l77 -133q19 -31 31 -65h4q7 20 32 65l76 133q36 63 22 102v2z" />
    <glyph glyph-name="Ydieresis" unicode="&#x178;" horiz-adv-x="643" 
d="M246 758q-25 0 -42 17.5t-17 41.5q0 25 17 42t42 17q24 0 40.5 -17t16.5 -42q0 -24 -16.5 -41.5t-40.5 -17.5zM402 758q-25 0 -42 17.5t-17 41.5q0 25 17 42t42 17q24 0 40.5 -17t16.5 -42q0 -24 -16.5 -41.5t-40.5 -17.5zM461 695h201v-2q-32 -24 -80 -102l-189 -312
v-121q0 -61 17.5 -101.5t43.5 -54.5v-2h-259v2q24 14 42.5 55.5t18.5 100.5v116l-192 317q-46 75 -81 102v2h213v-2q-13 -39 23 -102l77 -133q19 -31 31 -65h4q7 20 32 65l76 133q36 63 22 102v2z" />
    <glyph glyph-name="Zacute" unicode="&#x179;" horiz-adv-x="599" 
d="M441 869q-28 -20 -69.5 -63t-61.5 -69l-81 42q34 32 75 90t46 84l2 1zM573 191l2 -1l-26 -198q-49 8 -134 8h-405v2l341 594h-125q-123 0 -171 -68l-2 1l27 172q46 -6 149 -6h329v-2l-341 -594h153q138 0 203 92z" />
    <glyph glyph-name="zacute" unicode="&#x17a;" horiz-adv-x="599" 
d="M441 869q-28 -20 -69.5 -63t-61.5 -69l-81 42q34 32 75 90t46 84l2 1zM573 191l2 -1l-26 -198q-49 8 -134 8h-405v2l341 594h-125q-123 0 -171 -68l-2 1l27 172q46 -6 149 -6h329v-2l-341 -594h153q138 0 203 92z" />
    <glyph glyph-name="Zdotaccent" unicode="&#x17b;" horiz-adv-x="599" 
d="M308 748q-30 0 -50.5 21t-20.5 50q0 30 20.5 51t50.5 21q29 0 49.5 -21t20.5 -51q0 -29 -20.5 -50t-49.5 -21zM573 191l2 -1l-26 -198q-49 8 -134 8h-405v2l341 594h-125q-123 0 -171 -68l-2 1l27 172q46 -6 149 -6h329v-2l-341 -594h153q138 0 203 92z" />
    <glyph glyph-name="zdotaccent" unicode="&#x17c;" horiz-adv-x="599" 
d="M308 748q-30 0 -50.5 21t-20.5 50q0 30 20.5 51t50.5 21q29 0 49.5 -21t20.5 -51q0 -29 -20.5 -50t-49.5 -21zM573 191l2 -1l-26 -198q-49 8 -134 8h-405v2l341 594h-125q-123 0 -171 -68l-2 1l27 172q46 -6 149 -6h329v-2l-341 -594h153q138 0 203 92z" />
    <glyph glyph-name="Zcaron" unicode="&#x17d;" horiz-adv-x="599" 
d="M272 738q-25 29 -65.5 62t-69.5 49l79 94l2 -1q6 -17 33.5 -52t56.5 -65q79 83 89 117l2 1l79 -94q-30 -17 -70 -49.5t-65 -61.5h-71zM573 191l2 -1l-26 -198q-49 8 -134 8h-405v2l341 594h-125q-123 0 -171 -68l-2 1l27 172q46 -6 149 -6h329v-2l-341 -594h153
q138 0 203 92z" />
    <glyph glyph-name="zcaron" unicode="&#x17e;" horiz-adv-x="599" 
d="M272 738q-25 29 -65.5 62t-69.5 49l79 94l2 -1q6 -17 33.5 -52t56.5 -65q79 83 89 117l2 1l79 -94q-30 -17 -70 -49.5t-65 -61.5h-71zM573 191l2 -1l-26 -198q-49 8 -134 8h-405v2l341 594h-125q-123 0 -171 -68l-2 1l27 172q46 -6 149 -6h329v-2l-341 -594h153
q138 0 203 92z" />
    <glyph glyph-name="Aringacute" unicode="&#x1fa;" horiz-adv-x="676" 
d="M435 1000q-30 -16 -76.5 -52t-71.5 -60l-74 53q38 26 86.5 78t57.5 77l2 1zM596 164q20 -55 47.5 -99t50.5 -63v-2h-226v2q14 11 15.5 40.5t-15.5 82.5l-8 24h-259l-9 -24q-17 -54 -16 -82.5t14 -40.5v-2h-210v2q24 20 51.5 64t46.5 98l142 412q19 55 -2 83
q-26 36 -26 81q0 60 42 100t102 40q59 0 101 -40.5t42 -99.5q0 -42 -24 -77q-24 -34 -6 -87zM336 792q-24 0 -37.5 -14t-13.5 -38t13.5 -37.5t37.5 -13.5q23 0 36 13.5t13 37.5q0 52 -49 52zM328 562q-9 -74 -57 -209l-38 -106h194l-36 102q-49 137 -59 213h-4z" />
    <glyph glyph-name="aringacute" unicode="&#x1fb;" horiz-adv-x="676" 
d="M435 1000q-30 -16 -76.5 -52t-71.5 -60l-74 53q38 26 86.5 78t57.5 77l2 1zM596 164q20 -55 47.5 -99t50.5 -63v-2h-226v2q14 11 15.5 40.5t-15.5 82.5l-8 24h-259l-9 -24q-17 -54 -16 -82.5t14 -40.5v-2h-210v2q24 20 51.5 64t46.5 98l142 412q19 55 -2 83
q-26 36 -26 81q0 60 42 100t102 40q59 0 101 -40.5t42 -99.5q0 -42 -24 -77q-24 -34 -6 -87zM336 792q-24 0 -37.5 -14t-13.5 -38t13.5 -37.5t37.5 -13.5q23 0 36 13.5t13 37.5q0 52 -49 52zM328 562q-9 -74 -57 -209l-38 -106h194l-36 102q-49 137 -59 213h-4z" />
    <glyph glyph-name="AEacute" unicode="&#x1fc;" horiz-adv-x="863" 
d="M620 869q-28 -20 -69.5 -63t-61.5 -69l-81 42q34 32 75 90t46 84l2 1zM823 201l2 -1l-28 -208q-49 8 -122 8h-304v2q35 27 35 123v24h-203l-11 -24q-18 -55 -17.5 -83.5t12.5 -39.5v-2h-207v2q33 30 96 162l197 412q39 82 -16 117v2h424q71 0 106 8l17 -187l-2 -1
q-36 74 -157 74h-109v-168h53q103 0 156 7l-29 -175h-2q-24 63 -109 63h-69v-209h86q135 0 201 94zM252 247h154v318h-3q-1 -2 -39 -83z" />
    <glyph glyph-name="aeacute" unicode="&#x1fd;" horiz-adv-x="863" 
d="M620 869q-28 -20 -69.5 -63t-61.5 -69l-81 42q34 32 75 90t46 84l2 1zM823 201l2 -1l-28 -208q-49 8 -122 8h-304v2q35 27 35 123v24h-203l-11 -24q-18 -55 -17.5 -83.5t12.5 -39.5v-2h-207v2q33 30 96 162l197 412q39 82 -16 117v2h424q71 0 106 8l17 -187l-2 -1
q-36 74 -157 74h-109v-168h53q103 0 156 7l-29 -175h-2q-24 63 -109 63h-69v-209h86q135 0 201 94zM252 247h154v318h-3q-1 -2 -39 -83z" />
    <glyph glyph-name="Oslashacute" unicode="&#x1fe;" horiz-adv-x="816" 
d="M544 869q-28 -20 -69.5 -63t-61.5 -69l-81 42q34 32 75 90t46 84l2 1zM774 695l-83 -99q81 -95 81 -241q0 -167 -103 -270.5t-269 -103.5q-109 0 -190 47l-24 -28q-38 -45 -54 -83l-2 -1l-88 85l83 98q-81 96 -81 242q0 169 99.5 271t271.5 102q105 0 190 -47l16 20
q47 56 60 88l2 1zM405 609q-98 0 -155 -70.5t-57 -187.5q0 -88 28 -148l311 368q-52 38 -127 38zM410 87q94 0 153.5 70.5t59.5 187.5q0 87 -29 148l-312 -368q52 -38 128 -38z" />
    <glyph glyph-name="oslashacute" unicode="&#x1ff;" horiz-adv-x="816" 
d="M544 869q-28 -20 -69.5 -63t-61.5 -69l-81 42q34 32 75 90t46 84l2 1zM774 695l-83 -99q81 -95 81 -241q0 -167 -103 -270.5t-269 -103.5q-109 0 -190 47l-24 -28q-38 -45 -54 -83l-2 -1l-88 85l83 98q-81 96 -81 242q0 169 99.5 271t271.5 102q105 0 190 -47l16 20
q47 56 60 88l2 1zM405 609q-98 0 -155 -70.5t-57 -187.5q0 -88 28 -148l311 368q-52 38 -127 38zM410 87q94 0 153.5 70.5t59.5 187.5q0 87 -29 148l-312 -368q52 -38 128 -38z" />
    <glyph glyph-name="uni0218" unicode="&#x218;" horiz-adv-x="548" 
d="M267 -15q-133 -2 -202 40l-17 168l2 1q83 -108 207 -105q116 3 116 90q0 25 -9.5 44t-31 33.5t-38.5 23t-50 22.5q-35 14 -53.5 23t-47.5 28t-44 39.5t-27 53t-12 72.5q0 79 64.5 134.5t175.5 55.5q76 0 157 -21l13 -164h-2q-53 82 -158 82q-115 0 -115 -77
q0 -21 8.5 -37t29 -29.5t36 -21t47.5 -20.5q30 -13 46 -20t43.5 -22.5t42.5 -31.5t31.5 -38.5t24 -52.5t7.5 -66q0 -87 -63.5 -145t-180.5 -59zM238 -266l-83 30q14 24 32 90.5t21 98.5l130 -9l1 -2q-75 -107 -101 -208z" />
    <glyph glyph-name="uni0219" unicode="&#x219;" horiz-adv-x="548" 
d="M267 -15q-133 -2 -202 40l-17 168l2 1q83 -108 207 -105q116 3 116 90q0 25 -9.5 44t-31 33.5t-38.5 23t-50 22.5q-35 14 -53.5 23t-47.5 28t-44 39.5t-27 53t-12 72.5q0 79 64.5 134.5t175.5 55.5q76 0 157 -21l13 -164h-2q-53 82 -158 82q-115 0 -115 -77
q0 -21 8.5 -37t29 -29.5t36 -21t47.5 -20.5q30 -13 46 -20t43.5 -22.5t42.5 -31.5t31.5 -38.5t24 -52.5t7.5 -66q0 -87 -63.5 -145t-180.5 -59zM238 -266l-83 30q14 24 32 90.5t21 98.5l130 -9l1 -2q-75 -107 -101 -208z" />
    <glyph glyph-name="uni021A" unicode="&#x21a;" horiz-adv-x="592" 
d="M555 703l17 -183l-2 -1q-18 32 -52.5 53t-77.5 21h-75v-435q0 -61 17.5 -101.5t43.5 -54.5v-2h-259v2q24 14 42.5 55.5t18.5 100.5v435h-76q-43 0 -77.5 -21t-52.5 -53l-2 1l17 183q61 -8 137 -8h244q76 0 137 8zM237 -32l130 -9l1 -2q-75 -107 -101 -208l-83 30
q14 24 32 90.5t21 98.5z" />
    <glyph glyph-name="uni021B" unicode="&#x21b;" horiz-adv-x="592" 
d="M555 703l17 -183l-2 -1q-18 32 -52.5 53t-77.5 21h-75v-435q0 -61 17.5 -101.5t43.5 -54.5v-2h-259v2q24 14 42.5 55.5t18.5 100.5v435h-76q-43 0 -77.5 -21t-52.5 -53l-2 1l17 183q61 -8 137 -8h244q76 0 137 8zM237 -32l130 -9l1 -2q-75 -107 -101 -208l-83 30
q14 24 32 90.5t21 98.5z" />
    <glyph glyph-name="circumflex" unicode="&#x2c6;" 
d="M326 933q25 -29 64 -61t71 -50l-79 -94l-2 1q-6 17 -33.5 52t-56.5 65q-28 -29 -55.5 -64.5t-33.5 -52.5l-2 -1l-79 94q30 17 70 49.5t65 61.5h71z" />
    <glyph glyph-name="caron" unicode="&#x2c7;" 
d="M395 906l70 -77q-19 0 -38 -13l-93 -63h-86l-93 63q-19 13 -38 13l70 77l104 -85z" />
    <glyph glyph-name="breve" unicode="&#x2d8;" 
d="M339 742q-72 0 -118.5 38.5t-58.5 103.5l102 34l1 -2q-11 -30 9 -56.5t65 -26.5t65 26t11 57l1 2l100 -33q-16 -66 -62 -104.5t-115 -38.5z" />
    <glyph glyph-name="dotaccent" unicode="&#x2d9;" 
d="M300 748q-30 0 -50.5 21t-20.5 50q0 30 20.5 51t50.5 21q29 0 49.5 -21t20.5 -51q0 -29 -20.5 -50t-49.5 -21z" />
    <glyph glyph-name="ring" unicode="&#x2da;" 
d="M340 695q-61 0 -102.5 39.5t-41.5 98.5q0 60 42 100t102 40q59 0 101 -40.5t42 -99.5q0 -58 -42 -98t-101 -40zM340 782q23 0 36 13.5t13 37.5q0 52 -49 52q-24 0 -37.5 -13.5t-13.5 -38.5q0 -24 13.5 -37.5t37.5 -13.5z" />
    <glyph glyph-name="ogonek" unicode="&#x2db;" 
d="M329 -262q-60 -3 -104 27.5t-44 85.5q0 90 118 158l90 2l7 -6q-109 -44 -109 -116q0 -39 31 -55t74 3l1 -2z" />
    <glyph glyph-name="tilde" unicode="&#x2dc;" 
d="M181 748l-51 75q60 64 129 64q29 0 64.5 -18.5t56.5 -18.5t36 11t20 27h2l53 -83q-57 -51 -120 -51q-32 0 -68 19.5t-58 19.5q-39 0 -62 -45h-2z" />
    <glyph glyph-name="hungarumlaut" unicode="&#x2dd;" 
d="M287 740l-74 37q31 29 72.5 87.5t46.5 83.5l2 1l79 -79q-92 -87 -126 -130zM432 735l-74 37q31 30 72 87.5t47 83.5l2 1l83 -81q-27 -20 -68 -61t-62 -67z" />
    <glyph glyph-name="gravecomb" unicode="&#x300;" horiz-adv-x="0" 
d="M-257 737q-20 26 -62.5 69t-69.5 63l88 85l2 -1q5 -25 48 -84t75 -90z" />
    <glyph glyph-name="acutecomb" unicode="&#x301;" horiz-adv-x="0" 
d="M-269 737l-81 42q34 32 75 90t46 84l2 1l89 -85q-28 -20 -69.5 -63t-61.5 -69z" />
    <glyph glyph-name="uni0302" unicode="&#x302;" horiz-adv-x="0" 
d="M-274 933q25 -29 64 -61t71 -50l-79 -94l-2 1q-6 17 -33.5 52t-56.5 65q-28 -29 -55.5 -64.5t-33.5 -52.5l-2 -1l-79 94q30 17 70 49.5t65 61.5h71z" />
    <glyph glyph-name="tildecomb" unicode="&#x303;" horiz-adv-x="0" 
d="M-419 748l-51 75q60 64 129 64q29 0 64.5 -18.5t56.5 -18.5t36 11t20 27h2l53 -83q-57 -51 -120 -51q-32 0 -68 19.5t-58 19.5q-39 0 -62 -45h-2z" />
    <glyph glyph-name="uni0304" unicode="&#x304;" horiz-adv-x="0" 
d="M-415 762l-2 1l16 103h230q49 0 68 12l2 -1l-15 -106l-235 -1q-43 0 -64 -8z" />
    <glyph glyph-name="uni0306" unicode="&#x306;" horiz-adv-x="0" 
d="M-261 742q-72 0 -118.5 38.5t-58.5 103.5l102 34l1 -2q-11 -30 9 -56.5t65 -26.5t65 26t11 57l1 2l100 -33q-16 -66 -62 -104.5t-115 -38.5z" />
    <glyph glyph-name="uni0307" unicode="&#x307;" horiz-adv-x="0" 
d="M-300 748q-30 0 -50.5 21t-20.5 50q0 30 20.5 51t50.5 21q29 0 49.5 -21t20.5 -51q0 -29 -20.5 -50t-49.5 -21z" />
    <glyph glyph-name="uni0308" unicode="&#x308;" horiz-adv-x="0" 
d="M-360 758q-25 0 -42 17.5t-17 41.5q0 25 17 42t42 17q24 0 40.5 -17t16.5 -42q0 -24 -16.5 -41.5t-40.5 -17.5zM-204 758q-25 0 -42 17.5t-17 41.5q0 25 17 42t42 17q24 0 40.5 -17t16.5 -42q0 -24 -16.5 -41.5t-40.5 -17.5z" />
    <glyph glyph-name="uni030A" unicode="&#x30a;" horiz-adv-x="0" 
d="M-260 695q-61 0 -102.5 39.5t-41.5 98.5q0 60 42 100t102 40q59 0 101 -40.5t42 -99.5q0 -58 -42 -98t-101 -40zM-260 782q23 0 36 13.5t13 37.5q0 52 -49 52q-24 0 -37.5 -13.5t-13.5 -38.5q0 -24 13.5 -37.5t37.5 -13.5z" />
    <glyph glyph-name="uni030B" unicode="&#x30b;" horiz-adv-x="0" 
d="M-313 740l-74 37q31 29 72.5 87.5t46.5 83.5l2 1l79 -79q-92 -87 -126 -130zM-168 735l-74 37q31 30 72 87.5t47 83.5l2 1l83 -81q-27 -20 -68 -61t-62 -67z" />
    <glyph glyph-name="uni030C" unicode="&#x30c;" horiz-adv-x="0" 
d="M-218 943l79 -94q-30 -17 -70 -49.5t-65 -61.5h-71q-25 29 -65.5 62t-69.5 49l79 94l2 -1q6 -17 33.5 -52t56.5 -65q79 83 89 117z" />
    <glyph glyph-name="uni0312" unicode="&#x312;" horiz-adv-x="0" 
d="M-258 754l-125 29l-1 2q33 33 62.5 86.5t44.5 100.5l82 -32q-15 -27 -36.5 -90.5t-26.5 -95.5z" />
    <glyph glyph-name="uni0326" unicode="&#x326;" horiz-adv-x="0" 
d="M-238 -263l-83 30q14 24 32 90.5t21 98.5l130 -9l1 -2q-75 -107 -101 -208z" />
    <glyph glyph-name="uni0327" unicode="&#x327;" horiz-adv-x="0" 
d="M-257 -38q116 -12 116 -105q0 -57 -41 -87t-96 -30q-50 0 -88 23l-9 87l2 1q42 -37 85 -37q27 0 42 11.5t15 30.5q0 39 -62 39q-30 0 -50 -4l-2 2l32 153h71z" />
    <glyph glyph-name="uni0328" unicode="&#x328;" horiz-adv-x="0" 
d="M-271 -262q-60 -3 -104 27.5t-44 85.5q0 90 118 158l90 2l7 -6q-109 -44 -109 -116q0 -39 31 -55t74 3l1 -2z" />
    <glyph glyph-name="uni0335" unicode="&#x335;" horiz-adv-x="0" 
 />
    <glyph glyph-name="uni0337" unicode="&#x337;" horiz-adv-x="0" 
 />
    <glyph glyph-name="uni0338" unicode="&#x338;" horiz-adv-x="0" 
 />
    <glyph glyph-name="uni0401" unicode="&#x401;" 
d="M238 758q-25 0 -42 17.5t-17 41.5q0 25 17 42t42 17q24 0 40.5 -17t16.5 -42q0 -24 -16.5 -41.5t-40.5 -17.5zM394 758q-25 0 -42 17.5t-17 41.5q0 25 17 42t42 17q24 0 40.5 -17t16.5 -42q0 -24 -16.5 -41.5t-40.5 -17.5zM560 192l2 -1l-28 -199q-49 8 -122 8h-353v2
q22 15 38 53t16 95v395q0 58 -16 95.5t-38 52.5v2h359q71 0 106 8l17 -179l-2 -1q-36 74 -157 74h-132v-176h76q104 0 156 7l-29 -168h-2q-24 63 -109 63h-92v-225h109q135 0 201 94z" />
    <glyph glyph-name="uni0402" unicode="&#x402;" horiz-adv-x="733" 
d="M432 442q127 0 197.5 -59t70.5 -167q0 -95 -48 -155t-146 -69l-41 116l2 1q17 -3 30 -3q73 0 73 107q0 132 -148 132q-30 0 -57 -6v-181q0 -124 29 -156v-2h-220v2q54 33 54 156v435h-76q-43 0 -77.5 -21t-52.5 -53l-2 1l17 183q61 -8 137 -8h244q76 0 137 8l15 -174
l-2 -1q-18 26 -52 45.5t-76 19.5h-75v-158q31 7 67 7z" />
    <glyph glyph-name="uni0403" unicode="&#x403;" horiz-adv-x="525" 
d="M300 737l-81 42q34 32 75 90t46 84l2 1l89 -85q-28 -20 -69.5 -63t-61.5 -69zM59 0v2q22 14 39 56.5t17 96.5v394q0 55 -16 92.5t-38 51.5v2h294q109 0 147 7l17 -179l-2 -1q-36 74 -157 74h-108v-445q0 -54 17.5 -95t43.5 -54v-2h-254z" />
    <glyph glyph-name="uni0404" unicode="&#x404;" horiz-adv-x="666" 
d="M631 203l2 -1l-24 -179q-108 -38 -213 -38q-159 0 -255.5 101t-96.5 257q0 168 102 267t274 99q91 0 176 -25l16 -173l-2 -1q-30 46 -80.5 70t-110.5 24q-92 0 -150 -51.5t-72 -142.5h189q102 0 155 6l-27 -158h-2q-27 54 -110 54h-207q9 -101 64 -161t147 -60
q77 0 130 28.5t95 83.5z" />
    <glyph glyph-name="uni0405" unicode="&#x405;" horiz-adv-x="548" 
d="M267 -15q-133 -2 -202 40l-17 168l2 1q83 -108 207 -105q116 3 116 90q0 25 -9.5 44t-31 33.5t-38.5 23t-50 22.5q-35 14 -53.5 23t-47.5 28t-44 39.5t-27 53t-12 72.5q0 79 64.5 134.5t175.5 55.5q76 0 157 -21l13 -164h-2q-53 82 -158 82q-115 0 -115 -77
q0 -21 8.5 -37t29 -29.5t36 -21t47.5 -20.5q30 -13 46 -20t43.5 -22.5t42.5 -31.5t31.5 -38.5t24 -52.5t7.5 -66q0 -87 -63.5 -145t-180.5 -59z" />
    <glyph glyph-name="uni0406" unicode="&#x406;" horiz-adv-x="364" 
d="M59 0v2q22 15 38 53t16 95v395q0 58 -16 95.5t-38 52.5v2h246v-2q-22 -15 -38 -53t-16 -95v-395q0 -58 16 -95.5t38 -52.5v-2h-246z" />
    <glyph glyph-name="uni0407" unicode="&#x407;" horiz-adv-x="364" 
d="M105 758q-25 0 -42 17.5t-17 41.5q0 25 17 42t42 17q24 0 40.5 -17t16.5 -42q0 -24 -16.5 -41.5t-40.5 -17.5zM261 758q-25 0 -42 17.5t-17 41.5q0 25 17 42t42 17q24 0 40.5 -17t16.5 -42q0 -24 -16.5 -41.5t-40.5 -17.5zM59 0v2q22 15 38 53t16 95v395q0 58 -16 95.5
t-38 52.5v2h246v-2q-22 -15 -38 -53t-16 -95v-395q0 -58 16 -95.5t38 -52.5v-2h-246z" />
    <glyph glyph-name="uni0408" unicode="&#x408;" horiz-adv-x="449" 
d="M116 -22q-43 0 -100 15l-10 155h2q6 -11 15.5 -22.5t33.5 -25t53 -13.5q112 0 112 112v345q0 58 -16 96t-38 53v2h245v-2q-22 -15 -38 -53t-16 -95v-310q0 -133 -58 -195t-185 -62z" />
    <glyph glyph-name="uni0409" unicode="&#x409;" horiz-adv-x="908" 
d="M630 457q112 0 180.5 -57.5t68.5 -161.5q0 -113 -68.5 -175.5t-171.5 -62.5h-233v565h-3q-1 -2 -39 -83l-161 -357q-20 -54 -19 -82.5t14 -40.5v-2h-207v2q39 36 96 162l186 412q38 82 -16 117v2h336v-2q-22 -15 -38 -53t-16 -95v-88h91zM594 100q142 0 142 130
q0 65 -34.5 96.5t-107.5 31.5h-55v-258h55z" />
    <glyph glyph-name="uni040A" unicode="&#x40a;" horiz-adv-x="993" 
d="M715 431q113 0 181 -53.5t68 -152.5q0 -103 -65 -164t-175 -61h-289v2q20 15 35.5 52.5t15.5 91.5v185h-236v-181q0 -57 15 -95t36 -53v-2h-242v2q22 15 38 53t16 95v395q0 58 -16 95.5t-38 52.5v2h242v-2q-20 -15 -35.5 -53.5t-15.5 -94.5v-114h236v114q0 57 -15 95
t-36 53v2h242v-2q-22 -15 -38 -53t-16 -95v-114h92zM679 100q142 0 142 117q0 114 -142 114h-56v-231h56z" />
    <glyph glyph-name="uni040B" unicode="&#x40b;" horiz-adv-x="746" 
d="M680 146q0 -55 14 -92.5t34 -51.5v-2h-226v2q41 30 41 144v68q0 57 -28.5 88t-80.5 31q-34 0 -69 -9v-166q0 -124 31 -156v-2h-222v2q54 33 54 156v435h-76q-43 0 -77.5 -21t-52.5 -53l-2 1l17 183q61 -8 137 -8h244q76 0 137 8l15 -174l-2 -1q-18 26 -52 45.5t-76 19.5
h-75v-170q39 9 79 9q113 0 174.5 -54t61.5 -156v-76z" />
    <glyph glyph-name="uni040C" unicode="&#x40c;" horiz-adv-x="680" 
d="M489 869q-28 -20 -69.5 -63t-61.5 -69l-81 42q34 32 75 90t46 84l2 1zM250 149q0 -57 14.5 -94.5t34.5 -52.5v-2h-240v2q22 15 38 53t16 95v399q0 55 -16 92.5t-38 51.5v2h240v-2q-20 -15 -34.5 -53t-14.5 -95v-396zM602 113q26 -38 50.5 -59.5t60.5 -36.5v-2l-201 -34
q-10 37 -49 95l-202 300l169 239q35 50 33 80h208v-2q-57 -27 -118 -111l-141 -191z" />
    <glyph glyph-name="uni040D" unicode="&#x40d;" horiz-adv-x="795" 
d="M412 737q-19 26 -62 69t-70 63l88 85l2 -1q5 -25 48 -84t75 -90zM62 0v2q20 15 35.5 53.5t15.5 94.5v395q0 58 -16 95.5t-38 52.5v2h244v-2q-20 -15 -36 -53.5t-16 -94.5v-176q0 -88 -22 -210h4q33 94 97 201l144 239q38 63 41 96h221v-2q-19 -10 -39 -54t-20 -89v-400
q0 -58 16 -95.5t38 -52.5v-2h-246v2q22 15 38 53t16 95v180q0 100 28 222h-4q-40 -114 -101 -213l-151 -244q-32 -52 -50 -95h-199z" />
    <glyph glyph-name="uni040E" unicode="&#x40e;" horiz-adv-x="655" 
d="M329 742q-72 0 -118.5 38.5t-58.5 103.5l102 34l1 -2q-8 -31 12 -60t62 -29q43 0 63.5 28.5t12.5 60.5l1 2l100 -33q-16 -66 -62 -104.5t-115 -38.5zM433 695h219v-2q-67 -51 -103 -148l-141 -379q-23 -62 -23 -99.5t24 -64.5v-2h-238v2q60 60 97 158l38 100h-93
l-131 295q-47 104 -92 138v2h234v-2q-17 -31 -15.5 -62t20.5 -76l100 -234l89 234q30 79 15 140z" />
    <glyph glyph-name="uni040F" unicode="&#x40f;" horiz-adv-x="754" 
d="M696 693q-22 -15 -38 -53t-16 -95v-395q0 -119 44 -148v-2h-251q0 -72 27 -122l-1 -2h-167l-1 2q27 50 27 122h-252v2q45 29 45 148v395q0 57 -16 95t-37 53v2h245v-2q-22 -15 -38.5 -53t-16.5 -95v-445h255v445q0 58 -16 95.5t-38 52.5v2h245v-2z" />
    <glyph glyph-name="uni0410" unicode="&#x410;" horiz-adv-x="676" 
d="M596 164q19 -54 47 -98.5t51 -63.5v-2h-226v2q14 11 15.5 40.5t-15.5 82.5l-9 24h-258l-9 -24q-17 -54 -16 -82.5t14 -40.5v-2h-210v2q58 52 97 162l143 412q12 47 5.5 75t-23.5 42v2h265v-2q-17 -16 -24 -43t6 -74zM327 562q-9 -76 -56 -209l-37 -106h192l-37 106
q-49 138 -58 209h-4z" />
    <glyph glyph-name="uni0411" unicode="&#x411;" horiz-adv-x="636" 
d="M350 425q121 0 186 -54.5t65 -146.5q0 -103 -65 -163.5t-186 -60.5h-291v2q22 15 38 53t16 95v395q0 58 -16 95.5t-38 52.5v2h328q107 0 145 7l16 -178l-2 -1q-35 74 -156 74h-140v-172h100zM338 99q119 1 119 119q0 111 -119 111l-88 -1v-230z" />
    <glyph glyph-name="uni0412" unicode="&#x412;" horiz-adv-x="642" 
d="M444 370q62 -8 106.5 -56t44.5 -109q0 -96 -65 -150.5t-169 -54.5h-304v2q59 45 59 154v384q0 112 -59 153v2h276q226 0 226 -175q0 -55 -35 -97.5t-80 -49.5v-3zM325 597h-72v-180h72q44 0 68.5 24.5t24.5 71.5q0 84 -93 84zM341 98q55 0 83 30.5t28 81.5t-28 80.5
t-83 29.5h-88v-222h88z" />
    <glyph glyph-name="uni0413" unicode="&#x413;" horiz-adv-x="525" 
d="M59 0v2q22 14 39 56.5t17 96.5v394q0 55 -16 92.5t-38 51.5v2h294q109 0 147 7l17 -179l-2 -1q-36 74 -157 74h-108v-445q0 -54 17.5 -95t43.5 -54v-2h-254z" />
    <glyph glyph-name="uni0414" unicode="&#x414;" horiz-adv-x="687" 
d="M630 99q58 2 87 4l-51 -205h-2q-10 47 -49 74.5t-95 27.5h-353q-56 0 -95.5 -28t-48.5 -74h-2l-51 205q31 -2 91 -4l156 455q34 99 -10 139v2h274v-2q-20 -18 -25 -50t10 -78zM280 349l-83 -250h286l-85 250q-47 137 -56 218h-4q-12 -77 -58 -218z" />
    <glyph glyph-name="uni0415" unicode="&#x415;" 
d="M560 192l2 -1l-28 -199q-49 8 -122 8h-353v2q22 15 38 53t16 95v395q0 58 -16 95.5t-38 52.5v2h359q71 0 106 8l17 -179l-2 -1q-36 74 -157 74h-132v-176h76q104 0 156 7l-29 -168h-2q-24 63 -109 63h-92v-225h109q135 0 201 94z" />
    <glyph glyph-name="uni0416" unicode="&#x416;" horiz-adv-x="982" 
d="M418 376l-200 -288q-38 -56 -28 -88h-218v2q33 15 57 39.5t57 71.5l181 256l-135 213q-22 36 -54 66t-63 45v2h224v-1q-1 -24 33 -79zM561 149q0 -57 16 -94.5t38 -52.5v-2h-240v2q22 15 38 53t16 95v399q0 55 -16 92.5t-38 51.5v2h240v-2q-22 -15 -38 -53t-16 -95v-396z
M904 113q25 -38 50 -59.5t61 -36.5v-2l-207 -35q-8 41 -43 96l-193 300l159 239q34 53 33 79v1h210v-2q-65 -30 -119 -111l-132 -195z" />
    <glyph glyph-name="uni0417" unicode="&#x417;" horiz-adv-x="537" 
d="M226 -16q-112 0 -174 35l-14 156l2 1q53 -89 183 -89q62 0 95.5 31.5t33.5 87.5q0 54 -32 87t-88 33q-65 0 -118 -27l-2 1l19 130q27 -4 85 -4q57 0 85 27t28 71q0 39 -27 61.5t-79 22.5q-110 0 -170 -78l-2 1l23 150q81 30 159 30q111 0 173 -47t62 -130
q0 -103 -88 -154v-2q51 -21 82.5 -68.5t31.5 -111.5q0 -95 -69.5 -154.5t-198.5 -59.5z" />
    <glyph glyph-name="uni0418" unicode="&#x418;" horiz-adv-x="795" 
d="M62 0v2q20 15 35.5 53.5t15.5 94.5v395q0 58 -16 95.5t-38 52.5v2h244v-2q-20 -15 -36 -53.5t-16 -94.5v-176q0 -88 -22 -210h4q33 94 97 201l144 239q38 63 41 96h221v-2q-19 -10 -39 -54t-20 -89v-400q0 -58 16 -95.5t38 -52.5v-2h-246v2q22 15 38 53t16 95v180
q0 100 28 222h-4q-40 -114 -101 -213l-151 -244q-32 -52 -50 -95h-199z" />
    <glyph glyph-name="uni0419" unicode="&#x419;" horiz-adv-x="795" 
d="M398 742q-72 0 -118.5 38.5t-58.5 103.5l102 34l1 -2q-8 -31 12 -60t62 -29q43 0 63.5 28.5t12.5 60.5l1 2l100 -33q-16 -66 -62 -104.5t-115 -38.5zM62 0v2q20 15 35.5 53.5t15.5 94.5v395q0 58 -16 95.5t-38 52.5v2h244v-2q-20 -15 -36 -53.5t-16 -94.5v-176
q0 -88 -22 -210h4q33 94 97 201l144 239q38 63 41 96h221v-2q-19 -10 -39 -54t-20 -89v-400q0 -58 16 -95.5t38 -52.5v-2h-246v2q22 15 38 53t16 95v180q0 100 28 222h-4q-40 -114 -101 -213l-151 -244q-32 -52 -50 -95h-199z" />
    <glyph glyph-name="uni041A" unicode="&#x41a;" horiz-adv-x="680" 
d="M250 149q0 -57 14.5 -94.5t34.5 -52.5v-2h-240v2q22 15 38 53t16 95v399q0 55 -16 92.5t-38 51.5v2h240v-2q-20 -15 -34.5 -53t-14.5 -95v-396zM602 113q26 -38 50.5 -59.5t60.5 -36.5v-2l-201 -34q-10 37 -49 95l-202 300l169 239q35 50 33 80h208v-2q-57 -27 -118 -111
l-141 -191z" />
    <glyph glyph-name="uni041B" unicode="&#x41b;" horiz-adv-x="663" 
d="M-20 0v2q24 21 52 64.5t46 97.5l130 395q14 46 9 80.5t-26 53.5v2h273v-2q-20 -17 -24 -51t11 -79l132 -399q18 -54 46 -97.5t52 -64.5v-2h-231v2q28 26 -2 123l-69 224q-40 132 -52 207h-4q-9 -68 -51 -207l-69 -224q-15 -54 -14.5 -83.5t12.5 -39.5v-2h-221z" />
    <glyph glyph-name="uni041C" unicode="&#x41c;" horiz-adv-x="958" 
d="M33 0l-1 2q54 59 60 145l26 388q3 47 -10 93t-44 65l1 2h229q-21 -27 16 -91l99 -170q50 -86 62 -165h4q15 62 74 165l98 173q35 62 15 88h231l1 -2q-31 -17 -46 -64.5t-12 -93.5l31 -388q8 -94 59 -145l-1 -2h-229l-1 2q16 14 26 47t7 77l-16 207q-6 73 6 172h-4
q-26 -84 -77 -170l-111 -188q-42 -70 -47 -121h-8q-7 52 -50 120l-119 190q-47 76 -72 169h-4q10 -91 6 -172l-11 -207q-4 -91 33 -124l-1 -2h-220z" />
    <glyph glyph-name="uni041D" unicode="&#x41d;" horiz-adv-x="766" 
d="M707 693q-22 -15 -38 -53t-16 -95v-399q0 -55 16 -92.5t38 -51.5v-2h-242v2q20 15 35.5 52.5t15.5 91.5v175h-266v-171q0 -57 15 -95t36 -53v-2h-242v2q22 15 38 53t16 95v395q0 58 -16 95.5t-38 52.5v2h242v-2q-20 -15 -35.5 -53.5t-15.5 -94.5v-124h266v124
q0 57 -15 95t-36 53v2h242v-2z" />
    <glyph glyph-name="uni041E" unicode="&#x41e;" horiz-adv-x="816" 
d="M400 -20q-164 0 -260 101.5t-96 259.5q0 170 99.5 272t271.5 102q160 0 258.5 -99.5t98.5 -260.5q0 -168 -102.5 -271.5t-269.5 -103.5zM410 84q94 0 153.5 71.5t59.5 189.5q0 126 -58 196t-160 70q-98 0 -155 -71t-57 -189q0 -125 56 -196t161 -71z" />
    <glyph glyph-name="uni041F" unicode="&#x41f;" horiz-adv-x="754" 
d="M59 0v2q22 15 38 53t16 95v395q0 119 -44 148v2h618v-2q-45 -29 -45 -148v-395q0 -57 16 -95t37 -53v-2h-245v2q22 15 38.5 53t16.5 95v445h-255v-445q0 -58 16 -95.5t38 -52.5v-2h-245z" />
    <glyph glyph-name="uni0420" unicode="&#x420;" horiz-adv-x="614" 
d="M332 695q120 0 186 -59t66 -167q0 -120 -65 -180t-187 -60h-82v-83q0 -55 16 -92.5t38 -51.5v-2h-245v2q22 15 38 53t16 95v399q0 55 -16 92.5t-38 51.5v2h273zM309 328q68 -1 100.5 33.5t32.5 100.5q0 69 -32.5 101.5t-100.5 32.5h-59v-267z" />
    <glyph glyph-name="uni0421" unicode="&#x421;" horiz-adv-x="657" 
d="M396 -15q-159 0 -255.5 101t-96.5 257q0 168 102 267t274 99q91 0 176 -25l16 -173l-2 -1q-30 46 -80.5 70t-110.5 24q-105 0 -165.5 -67.5t-60.5 -183.5q0 -118 55.5 -190t157.5 -72q77 0 130 28.5t95 83.5l2 -1l-24 -179q-108 -38 -213 -38z" />
    <glyph glyph-name="uni0422" unicode="&#x422;" horiz-adv-x="592" 
d="M555 703l17 -183l-2 -1q-18 32 -52.5 53t-77.5 21h-75v-435q0 -61 17.5 -101.5t43.5 -54.5v-2h-259v2q24 14 42.5 55.5t18.5 100.5v435h-76q-43 0 -77.5 -21t-52.5 -53l-2 1l17 183q61 -8 137 -8h244q76 0 137 8z" />
    <glyph glyph-name="uni0423" unicode="&#x423;" horiz-adv-x="655" 
d="M433 695h219v-2q-67 -51 -103 -148l-141 -379q-23 -62 -23 -99.5t24 -64.5v-2h-238v2q60 60 97 158l38 100h-93l-131 295q-47 104 -92 138v2h234v-2q-17 -31 -15.5 -62t20.5 -76l100 -234l89 234q30 79 15 140z" />
    <glyph glyph-name="uni0424" unicode="&#x424;" horiz-adv-x="909" 
d="M868 356q0 -151 -95.5 -251t-248.5 -106q7 -91 53 -121v-2h-245v2q19 13 34.5 45t18.5 78q-161 7 -252.5 97.5t-91.5 241.5q0 146 95.5 245.5t246.5 106.5q-11 78 -51 105v2h245v-2q-40 -28 -51 -105q156 -8 249 -101t93 -235zM190 350q0 -104 55 -171.5t143 -75.5v487
q-95 -6 -146.5 -70.5t-51.5 -169.5zM521 102q90 5 144 72t54 172q0 101 -54.5 169t-143.5 75v-488z" />
    <glyph glyph-name="uni0425" unicode="&#x425;" horiz-adv-x="637" 
d="M547 158q64 -93 137 -141v-2l-209 -37q0 36 -63 133l-102 158l-110 -179q-20 -36 -20 -57.5t14 -30.5v-2h-236v2q57 26 124 129l155 239l-158 236q-39 58 -90 87v2h233v-2q-7 -37 27 -95l76 -127l71 122q11 19 16.5 30t9.5 24t3 24t-7 22v2h220v-2q-53 -21 -115 -121
l-123 -202z" />
    <glyph glyph-name="uni0426" unicode="&#x426;" horiz-adv-x="765" 
d="M642 99q43 2 115 8l-52 -219h-2q-42 112 -154 112h-490v2q22 15 38 53t16 95v395q0 58 -16 95.5t-38 52.5v2h242v-2q-20 -15 -35.5 -53.5t-15.5 -94.5v-445l255 -1v446q0 57 -15.5 95t-35.5 53v2h242v-2q-22 -15 -38 -53t-16 -95v-446z" />
    <glyph glyph-name="uni0427" unicode="&#x427;" horiz-adv-x="689" 
d="M630 693q-22 -15 -38 -53t-16 -95v-395q0 -58 16 -95.5t38 -52.5v-2h-245v2q22 15 38 53t16 95v103q-45 -8 -98 -8q-142 0 -202.5 66.5t-60.5 194.5v39q0 57 -15.5 95t-37.5 53v2h236v-2q-46 -33 -46 -148v-54q0 -145 165 -145q32 0 59 5v194q0 118 -46 148v2h237v-2z
" />
    <glyph glyph-name="uni0428" unicode="&#x428;" horiz-adv-x="1085" 
d="M1026 693q-22 -15 -38 -52.5t-16 -95.5v-395q0 -57 16 -95t38 -53v-2h-967v2q22 15 38 53t16 95v395q0 58 -16 95.5t-38 52.5v2h239v-2q-20 -15 -35.5 -53.5t-15.5 -94.5v-446h229v446q0 56 -15.5 94.5t-35.5 53.5v2h235v-2q-20 -15 -35.5 -53t-15.5 -95v-446h229v446
q0 56 -15.5 94.5t-35.5 53.5v2h239v-2z" />
    <glyph glyph-name="uni0429" unicode="&#x429;" horiz-adv-x="1095" 
d="M972 99q65 2 115 7l-52 -218h-2q-42 112 -154 112h-820v2q22 15 38 53t16 95v395q0 58 -16 95.5t-38 52.5v2h239v-2q-20 -15 -35.5 -53.5t-15.5 -94.5v-446h229v446q0 56 -15.5 94.5t-35.5 53.5v2h235v-2q-20 -15 -35.5 -53t-15.5 -95v-446h229v446q0 56 -15.5 94.5
t-35.5 53.5v2h239v-2q-22 -15 -38 -52.5t-16 -95.5v-446z" />
    <glyph glyph-name="uni042A" unicode="&#x42a;" horiz-adv-x="657" 
d="M373 447q123 0 191.5 -56.5t68.5 -158.5q0 -114 -68 -173t-192 -59h-273v2q22 14 38 52.5t16 95.5v438q-100 -15 -159 -110l-2 1l43 223q60 -7 171 -7h138v-2q-22 -15 -38 -53t-16 -95v-98h82zM349 100q73 0 107 29t34 94t-34 95t-107 30h-58v-248h58z" />
    <glyph glyph-name="uni042B" unicode="&#x42b;" horiz-adv-x="937" 
d="M344 457q112 0 180.5 -57.5t68.5 -161.5q0 -113 -68.5 -175.5t-171.5 -62.5h-294v2q22 15 38 53t16 95v399q0 55 -16 92.5t-38 51.5v2h245v-2q-22 -15 -38 -53t-16 -95v-88h94zM878 693q-22 -15 -38 -53t-16 -95v-395q0 -58 16 -95.5t38 -52.5v-2h-246v2q22 15 38 53
t16 95v395q0 58 -16 95.5t-38 52.5v2h246v-2zM308 100q142 0 142 130q0 65 -34.5 96.5t-107.5 31.5h-58v-258h58z" />
    <glyph glyph-name="uni042C" unicode="&#x42c;" horiz-adv-x="622" 
d="M344 457q112 0 180.5 -57.5t68.5 -161.5q0 -113 -68.5 -175.5t-171.5 -62.5h-294v2q22 15 38 53t16 95v399q0 55 -16 92.5t-38 51.5v2h245v-2q-22 -15 -38 -53t-16 -95v-88h94zM308 100q142 0 142 130q0 65 -34.5 96.5t-107.5 31.5h-58v-258h58z" />
    <glyph glyph-name="uni042D" unicode="&#x42d;" horiz-adv-x="666" 
d="M266 709q154 0 255 -95t101 -258q0 -166 -103 -268.5t-268 -102.5q-101 0 -190 38l-24 171l2 1q70 -104 214 -104q105 0 160 63.5t61 166.5h-219q-50 0 -78 -9.5t-53 -34.5l-2 1l23 146q45 -5 101 -5h223q-16 90 -72.5 137.5t-139.5 47.5q-134 0 -207 -91l-2 1l29 167
q94 28 189 28z" />
    <glyph glyph-name="uni042E" unicode="&#x42e;" horiz-adv-x="1116" 
d="M716 715q160 0 258 -99.5t98 -260.5q0 -167 -102.5 -271t-269.5 -104q-154 0 -248 93.5t-102 240.5h-100v-164q0 -58 15 -96t36 -52v-2h-242v2q22 15 38 53t16 95v395q0 58 -16 95.5t-38 52.5v2h242v-2q-21 -15 -36 -53t-15 -95v-132h104q20 140 115.5 221t246.5 81z
M711 84q94 0 153.5 70.5t59.5 190.5q0 126 -58 196t-160 70q-98 0 -155 -71t-57 -189q0 -125 56 -196t161 -71z" />
    <glyph glyph-name="uni042F" unicode="&#x42f;" horiz-adv-x="636" 
d="M577 693q-22 -15 -38 -53t-16 -95v-395q0 -58 16 -95.5t38 -52.5v-2h-239v2q19 15 33.5 53.5t14.5 94.5v446l-76 1q-133 2 -133 -125q0 -55 35 -86t98 -31h54l-148 -264q-33 -59 -48 -112l-190 37v2q62 18 117 112l86 150q-67 21 -105 68.5t-38 114.5q0 114 64.5 173
t190.5 59h284v-2z" />
    <glyph glyph-name="uni0430" unicode="&#x430;" horiz-adv-x="676" 
d="M596 164q19 -54 47 -98.5t51 -63.5v-2h-226v2q14 11 15.5 40.5t-15.5 82.5l-9 24h-258l-9 -24q-17 -54 -16 -82.5t14 -40.5v-2h-210v2q58 52 97 162l143 412q12 47 5.5 75t-23.5 42v2h265v-2q-17 -16 -24 -43t6 -74zM327 562q-9 -76 -56 -209l-37 -106h192l-37 106
q-49 138 -58 209h-4z" />
    <glyph glyph-name="uni0431" unicode="&#x431;" horiz-adv-x="636" 
d="M350 425q121 0 186 -54.5t65 -146.5q0 -103 -65 -163.5t-186 -60.5h-291v2q22 15 38 53t16 95v395q0 58 -16 95.5t-38 52.5v2h328q107 0 145 7l16 -178l-2 -1q-35 74 -156 74h-140v-172h100zM338 99q119 1 119 119q0 111 -119 111l-88 -1v-230z" />
    <glyph glyph-name="uni0432" unicode="&#x432;" horiz-adv-x="642" 
d="M444 370q62 -8 106.5 -56t44.5 -109q0 -96 -65 -150.5t-169 -54.5h-304v2q59 45 59 154v384q0 112 -59 153v2h276q226 0 226 -175q0 -55 -35 -97.5t-80 -49.5v-3zM325 597h-72v-180h72q44 0 68.5 24.5t24.5 71.5q0 84 -93 84zM341 98q55 0 83 30.5t28 81.5t-28 80.5
t-83 29.5h-88v-222h88z" />
    <glyph glyph-name="uni0433" unicode="&#x433;" horiz-adv-x="525" 
d="M59 0v2q22 14 39 56.5t17 96.5v394q0 55 -16 92.5t-38 51.5v2h294q109 0 147 7l17 -179l-2 -1q-36 74 -157 74h-108v-445q0 -54 17.5 -95t43.5 -54v-2h-254z" />
    <glyph glyph-name="uni0434" unicode="&#x434;" horiz-adv-x="687" 
d="M630 99q58 2 87 4l-51 -205h-2q-10 47 -49 74.5t-95 27.5h-353q-56 0 -95.5 -28t-48.5 -74h-2l-51 205q31 -2 91 -4l156 455q34 99 -10 139v2h274v-2q-20 -18 -25 -50t10 -78zM280 349l-83 -250h286l-85 250q-47 137 -56 218h-4q-12 -77 -58 -218z" />
    <glyph glyph-name="uni0435" unicode="&#x435;" 
d="M560 192l2 -1l-28 -199q-49 8 -122 8h-353v2q22 15 38 53t16 95v395q0 58 -16 95.5t-38 52.5v2h359q71 0 106 8l17 -179l-2 -1q-36 74 -157 74h-132v-176h76q104 0 156 7l-29 -168h-2q-24 63 -109 63h-92v-225h109q135 0 201 94z" />
    <glyph glyph-name="uni0436" unicode="&#x436;" horiz-adv-x="982" 
d="M418 376l-200 -288q-38 -56 -28 -88h-218v2q33 15 57 39.5t57 71.5l181 256l-135 213q-22 36 -54 66t-63 45v2h224v-1q-1 -24 33 -79zM561 149q0 -57 16 -94.5t38 -52.5v-2h-240v2q22 15 38 53t16 95v399q0 55 -16 92.5t-38 51.5v2h240v-2q-22 -15 -38 -53t-16 -95v-396z
M904 113q25 -38 50 -59.5t61 -36.5v-2l-207 -35q-8 41 -43 96l-193 300l159 239q34 53 33 79v1h210v-2q-65 -30 -119 -111l-132 -195z" />
    <glyph glyph-name="uni0437" unicode="&#x437;" horiz-adv-x="537" 
d="M226 -16q-112 0 -174 35l-14 156l2 1q53 -89 183 -89q62 0 95.5 31.5t33.5 87.5q0 54 -32 87t-88 33q-65 0 -118 -27l-2 1l19 130q27 -4 85 -4q57 0 85 27t28 71q0 39 -27 61.5t-79 22.5q-110 0 -170 -78l-2 1l23 150q81 30 159 30q111 0 173 -47t62 -130
q0 -103 -88 -154v-2q51 -21 82.5 -68.5t31.5 -111.5q0 -95 -69.5 -154.5t-198.5 -59.5z" />
    <glyph glyph-name="uni0438" unicode="&#x438;" horiz-adv-x="795" 
d="M62 0v2q20 15 35.5 53.5t15.5 94.5v395q0 58 -16 95.5t-38 52.5v2h244v-2q-20 -15 -36 -53.5t-16 -94.5v-176q0 -88 -22 -210h4q33 94 97 201l144 239q38 63 41 96h221v-2q-19 -10 -39 -54t-20 -89v-400q0 -58 16 -95.5t38 -52.5v-2h-246v2q22 15 38 53t16 95v180
q0 100 28 222h-4q-40 -114 -101 -213l-151 -244q-32 -52 -50 -95h-199z" />
    <glyph glyph-name="uni0439" unicode="&#x439;" horiz-adv-x="795" 
d="M398 742q-72 0 -118.5 38.5t-58.5 103.5l102 34l1 -2q-8 -31 12 -60t62 -29q43 0 63.5 28.5t12.5 60.5l1 2l100 -33q-16 -66 -62 -104.5t-115 -38.5zM62 0v2q20 15 35.5 53.5t15.5 94.5v395q0 58 -16 95.5t-38 52.5v2h244v-2q-20 -15 -36 -53.5t-16 -94.5v-176
q0 -88 -22 -210h4q33 94 97 201l144 239q38 63 41 96h221v-2q-19 -10 -39 -54t-20 -89v-400q0 -58 16 -95.5t38 -52.5v-2h-246v2q22 15 38 53t16 95v180q0 100 28 222h-4q-40 -114 -101 -213l-151 -244q-32 -52 -50 -95h-199z" />
    <glyph glyph-name="uni043A" unicode="&#x43a;" horiz-adv-x="680" 
d="M250 149q0 -57 14.5 -94.5t34.5 -52.5v-2h-240v2q22 15 38 53t16 95v399q0 55 -16 92.5t-38 51.5v2h240v-2q-20 -15 -34.5 -53t-14.5 -95v-396zM602 113q26 -38 50.5 -59.5t60.5 -36.5v-2l-201 -34q-10 37 -49 95l-202 300l169 239q35 50 33 80h208v-2q-57 -27 -118 -111
l-141 -191z" />
    <glyph glyph-name="uni043B" unicode="&#x43b;" horiz-adv-x="663" 
d="M-20 0v2q24 21 52 64.5t46 97.5l130 395q14 46 9 80.5t-26 53.5v2h273v-2q-20 -17 -24 -51t11 -79l132 -399q18 -54 46 -97.5t52 -64.5v-2h-231v2q28 26 -2 123l-69 224q-40 132 -52 207h-4q-9 -68 -51 -207l-69 -224q-15 -54 -14.5 -83.5t12.5 -39.5v-2h-221z" />
    <glyph glyph-name="uni043C" unicode="&#x43c;" horiz-adv-x="958" 
d="M33 0l-1 2q54 59 60 145l26 388q3 47 -10 93t-44 65l1 2h229q-21 -27 16 -91l99 -170q50 -86 62 -165h4q15 62 74 165l98 173q35 62 15 88h231l1 -2q-31 -17 -46 -64.5t-12 -93.5l31 -388q8 -94 59 -145l-1 -2h-229l-1 2q16 14 26 47t7 77l-16 207q-6 73 6 172h-4
q-26 -84 -77 -170l-111 -188q-42 -70 -47 -121h-8q-7 52 -50 120l-119 190q-47 76 -72 169h-4q10 -91 6 -172l-11 -207q-4 -91 33 -124l-1 -2h-220z" />
    <glyph glyph-name="uni043D" unicode="&#x43d;" horiz-adv-x="766" 
d="M707 693q-22 -15 -38 -53t-16 -95v-399q0 -55 16 -92.5t38 -51.5v-2h-242v2q20 15 35.5 52.5t15.5 91.5v175h-266v-171q0 -57 15 -95t36 -53v-2h-242v2q22 15 38 53t16 95v395q0 58 -16 95.5t-38 52.5v2h242v-2q-20 -15 -35.5 -53.5t-15.5 -94.5v-124h266v124
q0 57 -15 95t-36 53v2h242v-2z" />
    <glyph glyph-name="uni043E" unicode="&#x43e;" horiz-adv-x="816" 
d="M400 -20q-164 0 -260 101.5t-96 259.5q0 170 99.5 272t271.5 102q160 0 258.5 -99.5t98.5 -260.5q0 -168 -102.5 -271.5t-269.5 -103.5zM410 84q94 0 153.5 71.5t59.5 189.5q0 126 -58 196t-160 70q-98 0 -155 -71t-57 -189q0 -125 56 -196t161 -71z" />
    <glyph glyph-name="uni043F" unicode="&#x43f;" horiz-adv-x="754" 
d="M59 0v2q22 15 38 53t16 95v395q0 119 -44 148v2h618v-2q-45 -29 -45 -148v-395q0 -57 16 -95t37 -53v-2h-245v2q22 15 38.5 53t16.5 95v445h-255v-445q0 -58 16 -95.5t38 -52.5v-2h-245z" />
    <glyph glyph-name="uni0440" unicode="&#x440;" horiz-adv-x="614" 
d="M332 695q120 0 186 -59t66 -167q0 -120 -65 -180t-187 -60h-82v-83q0 -55 16 -92.5t38 -51.5v-2h-245v2q22 15 38 53t16 95v399q0 55 -16 92.5t-38 51.5v2h273zM309 328q68 -1 100.5 33.5t32.5 100.5q0 69 -32.5 101.5t-100.5 32.5h-59v-267z" />
    <glyph glyph-name="uni0441" unicode="&#x441;" horiz-adv-x="657" 
d="M396 -15q-159 0 -255.5 101t-96.5 257q0 168 102 267t274 99q91 0 176 -25l16 -173l-2 -1q-30 46 -80.5 70t-110.5 24q-105 0 -165.5 -67.5t-60.5 -183.5q0 -118 55.5 -190t157.5 -72q77 0 130 28.5t95 83.5l2 -1l-24 -179q-108 -38 -213 -38z" />
    <glyph glyph-name="uni0442" unicode="&#x442;" horiz-adv-x="592" 
d="M555 703l17 -183l-2 -1q-18 32 -52.5 53t-77.5 21h-75v-435q0 -61 17.5 -101.5t43.5 -54.5v-2h-259v2q24 14 42.5 55.5t18.5 100.5v435h-76q-43 0 -77.5 -21t-52.5 -53l-2 1l17 183q61 -8 137 -8h244q76 0 137 8z" />
    <glyph glyph-name="uni0443" unicode="&#x443;" horiz-adv-x="655" 
d="M433 695h219v-2q-67 -51 -103 -148l-141 -379q-23 -62 -23 -99.5t24 -64.5v-2h-238v2q60 60 97 158l38 100h-93l-131 295q-47 104 -92 138v2h234v-2q-17 -31 -15.5 -62t20.5 -76l100 -234l89 234q30 79 15 140z" />
    <glyph glyph-name="uni0444" unicode="&#x444;" horiz-adv-x="909" 
d="M868 356q0 -151 -95.5 -251t-248.5 -106q7 -91 53 -121v-2h-245v2q19 13 34.5 45t18.5 78q-161 7 -252.5 97.5t-91.5 241.5q0 146 95.5 245.5t246.5 106.5q-11 78 -51 105v2h245v-2q-40 -28 -51 -105q156 -8 249 -101t93 -235zM190 350q0 -104 55 -171.5t143 -75.5v487
q-95 -6 -146.5 -70.5t-51.5 -169.5zM521 102q90 5 144 72t54 172q0 101 -54.5 169t-143.5 75v-488z" />
    <glyph glyph-name="uni0445" unicode="&#x445;" horiz-adv-x="637" 
d="M547 158q64 -93 137 -141v-2l-209 -37q0 36 -63 133l-102 158l-110 -179q-20 -36 -20 -57.5t14 -30.5v-2h-236v2q57 26 124 129l155 239l-158 236q-39 58 -90 87v2h233v-2q-7 -37 27 -95l76 -127l71 122q11 19 16.5 30t9.5 24t3 24t-7 22v2h220v-2q-53 -21 -115 -121
l-123 -202z" />
    <glyph glyph-name="uni0446" unicode="&#x446;" horiz-adv-x="765" 
d="M642 99q43 2 115 8l-52 -219h-2q-42 112 -154 112h-490v2q22 15 38 53t16 95v395q0 58 -16 95.5t-38 52.5v2h242v-2q-20 -15 -35.5 -53.5t-15.5 -94.5v-445l255 -1v446q0 57 -15.5 95t-35.5 53v2h242v-2q-22 -15 -38 -53t-16 -95v-446z" />
    <glyph glyph-name="uni0447" unicode="&#x447;" horiz-adv-x="689" 
d="M630 693q-22 -15 -38 -53t-16 -95v-395q0 -58 16 -95.5t38 -52.5v-2h-245v2q22 15 38 53t16 95v103q-45 -8 -98 -8q-142 0 -202.5 66.5t-60.5 194.5v39q0 57 -15.5 95t-37.5 53v2h236v-2q-46 -33 -46 -148v-54q0 -145 165 -145q32 0 59 5v194q0 118 -46 148v2h237v-2z
" />
    <glyph glyph-name="uni0448" unicode="&#x448;" horiz-adv-x="1085" 
d="M1026 693q-22 -15 -38 -52.5t-16 -95.5v-395q0 -57 16 -95t38 -53v-2h-967v2q22 15 38 53t16 95v395q0 58 -16 95.5t-38 52.5v2h239v-2q-20 -15 -35.5 -53.5t-15.5 -94.5v-446h229v446q0 56 -15.5 94.5t-35.5 53.5v2h235v-2q-20 -15 -35.5 -53t-15.5 -95v-446h229v446
q0 56 -15.5 94.5t-35.5 53.5v2h239v-2z" />
    <glyph glyph-name="uni0449" unicode="&#x449;" horiz-adv-x="1095" 
d="M972 99q65 2 115 7l-52 -218h-2q-42 112 -154 112h-820v2q22 15 38 53t16 95v395q0 58 -16 95.5t-38 52.5v2h239v-2q-20 -15 -35.5 -53.5t-15.5 -94.5v-446h229v446q0 56 -15.5 94.5t-35.5 53.5v2h235v-2q-20 -15 -35.5 -53t-15.5 -95v-446h229v446q0 56 -15.5 94.5
t-35.5 53.5v2h239v-2q-22 -15 -38 -52.5t-16 -95.5v-446z" />
    <glyph glyph-name="uni044A" unicode="&#x44a;" horiz-adv-x="657" 
d="M373 447q123 0 191.5 -56.5t68.5 -158.5q0 -114 -68 -173t-192 -59h-273v2q22 14 38 52.5t16 95.5v438q-100 -15 -159 -110l-2 1l43 223q60 -7 171 -7h138v-2q-22 -15 -38 -53t-16 -95v-98h82zM349 100q73 0 107 29t34 94t-34 95t-107 30h-58v-248h58z" />
    <glyph glyph-name="uni044B" unicode="&#x44b;" horiz-adv-x="937" 
d="M344 457q112 0 180.5 -57.5t68.5 -161.5q0 -113 -68.5 -175.5t-171.5 -62.5h-294v2q22 15 38 53t16 95v399q0 55 -16 92.5t-38 51.5v2h245v-2q-22 -15 -38 -53t-16 -95v-88h94zM878 693q-22 -15 -38 -53t-16 -95v-395q0 -58 16 -95.5t38 -52.5v-2h-246v2q22 15 38 53
t16 95v395q0 58 -16 95.5t-38 52.5v2h246v-2zM308 100q142 0 142 130q0 65 -34.5 96.5t-107.5 31.5h-58v-258h58z" />
    <glyph glyph-name="uni044C" unicode="&#x44c;" horiz-adv-x="622" 
d="M344 457q112 0 180.5 -57.5t68.5 -161.5q0 -113 -68.5 -175.5t-171.5 -62.5h-294v2q22 15 38 53t16 95v399q0 55 -16 92.5t-38 51.5v2h245v-2q-22 -15 -38 -53t-16 -95v-88h94zM308 100q142 0 142 130q0 65 -34.5 96.5t-107.5 31.5h-58v-258h58z" />
    <glyph glyph-name="uni044D" unicode="&#x44d;" horiz-adv-x="666" 
d="M266 709q154 0 255 -95t101 -258q0 -166 -103 -268.5t-268 -102.5q-101 0 -190 38l-24 171l2 1q70 -104 214 -104q105 0 160 63.5t61 166.5h-219q-50 0 -78 -9.5t-53 -34.5l-2 1l23 146q45 -5 101 -5h223q-16 90 -72.5 137.5t-139.5 47.5q-134 0 -207 -91l-2 1l29 167
q94 28 189 28z" />
    <glyph glyph-name="uni044E" unicode="&#x44e;" horiz-adv-x="1116" 
d="M716 715q160 0 258 -99.5t98 -260.5q0 -167 -102.5 -271t-269.5 -104q-154 0 -248 93.5t-102 240.5h-100v-164q0 -58 15 -96t36 -52v-2h-242v2q22 15 38 53t16 95v395q0 58 -16 95.5t-38 52.5v2h242v-2q-21 -15 -36 -53t-15 -95v-132h104q20 140 115.5 221t246.5 81z
M711 84q94 0 153.5 70.5t59.5 190.5q0 126 -58 196t-160 70q-98 0 -155 -71t-57 -189q0 -125 56 -196t161 -71z" />
    <glyph glyph-name="uni044F" unicode="&#x44f;" horiz-adv-x="636" 
d="M577 693q-22 -15 -38 -53t-16 -95v-395q0 -58 16 -95.5t38 -52.5v-2h-239v2q19 15 33.5 53.5t14.5 94.5v446l-76 1q-133 2 -133 -125q0 -55 35 -86t98 -31h54l-148 -264q-33 -59 -48 -112l-190 37v2q62 18 117 112l86 150q-67 21 -105 68.5t-38 114.5q0 114 64.5 173
t190.5 59h284v-2z" />
    <glyph glyph-name="uni0451" unicode="&#x451;" 
d="M238 758q-25 0 -42 17.5t-17 41.5q0 25 17 42t42 17q24 0 40.5 -17t16.5 -42q0 -24 -16.5 -41.5t-40.5 -17.5zM394 758q-25 0 -42 17.5t-17 41.5q0 25 17 42t42 17q24 0 40.5 -17t16.5 -42q0 -24 -16.5 -41.5t-40.5 -17.5zM560 192l2 -1l-28 -199q-49 8 -122 8h-353v2
q22 15 38 53t16 95v395q0 58 -16 95.5t-38 52.5v2h359q71 0 106 8l17 -179l-2 -1q-36 74 -157 74h-132v-176h76q104 0 156 7l-29 -168h-2q-24 63 -109 63h-92v-225h109q135 0 201 94z" />
    <glyph glyph-name="uni0452" unicode="&#x452;" horiz-adv-x="733" 
d="M432 442q127 0 197.5 -59t70.5 -167q0 -95 -48 -155t-146 -69l-41 116l2 1q17 -3 30 -3q73 0 73 107q0 132 -148 132q-30 0 -57 -6v-181q0 -124 29 -156v-2h-220v2q54 33 54 156v435h-76q-43 0 -77.5 -21t-52.5 -53l-2 1l17 183q61 -8 137 -8h244q76 0 137 8l15 -174
l-2 -1q-18 26 -52 45.5t-76 19.5h-75v-158q31 7 67 7z" />
    <glyph glyph-name="uni0453" unicode="&#x453;" horiz-adv-x="525" 
d="M300 737l-81 42q34 32 75 90t46 84l2 1l89 -85q-28 -20 -69.5 -63t-61.5 -69zM59 0v2q22 14 39 56.5t17 96.5v394q0 55 -16 92.5t-38 51.5v2h294q109 0 147 7l17 -179l-2 -1q-36 74 -157 74h-108v-445q0 -54 17.5 -95t43.5 -54v-2h-254z" />
    <glyph glyph-name="uni0454" unicode="&#x454;" horiz-adv-x="666" 
d="M631 203l2 -1l-24 -179q-108 -38 -213 -38q-159 0 -255.5 101t-96.5 257q0 168 102 267t274 99q91 0 176 -25l16 -173l-2 -1q-30 46 -80.5 70t-110.5 24q-92 0 -150 -51.5t-72 -142.5h189q102 0 155 6l-27 -158h-2q-27 54 -110 54h-207q9 -101 64 -161t147 -60
q77 0 130 28.5t95 83.5z" />
    <glyph glyph-name="uni0455" unicode="&#x455;" horiz-adv-x="548" 
d="M267 -15q-133 -2 -202 40l-17 168l2 1q83 -108 207 -105q116 3 116 90q0 25 -9.5 44t-31 33.5t-38.5 23t-50 22.5q-35 14 -53.5 23t-47.5 28t-44 39.5t-27 53t-12 72.5q0 79 64.5 134.5t175.5 55.5q76 0 157 -21l13 -164h-2q-53 82 -158 82q-115 0 -115 -77
q0 -21 8.5 -37t29 -29.5t36 -21t47.5 -20.5q30 -13 46 -20t43.5 -22.5t42.5 -31.5t31.5 -38.5t24 -52.5t7.5 -66q0 -87 -63.5 -145t-180.5 -59z" />
    <glyph glyph-name="uni0456" unicode="&#x456;" horiz-adv-x="364" 
d="M59 0v2q22 15 38 53t16 95v395q0 58 -16 95.5t-38 52.5v2h246v-2q-22 -15 -38 -53t-16 -95v-395q0 -58 16 -95.5t38 -52.5v-2h-246z" />
    <glyph glyph-name="uni0457" unicode="&#x457;" horiz-adv-x="364" 
d="M105 758q-25 0 -42 17.5t-17 41.5q0 25 17 42t42 17q24 0 40.5 -17t16.5 -42q0 -24 -16.5 -41.5t-40.5 -17.5zM261 758q-25 0 -42 17.5t-17 41.5q0 25 17 42t42 17q24 0 40.5 -17t16.5 -42q0 -24 -16.5 -41.5t-40.5 -17.5zM59 0v2q22 15 38 53t16 95v395q0 58 -16 95.5
t-38 52.5v2h246v-2q-22 -15 -38 -53t-16 -95v-395q0 -58 16 -95.5t38 -52.5v-2h-246z" />
    <glyph glyph-name="uni0458" unicode="&#x458;" horiz-adv-x="449" 
d="M116 -22q-43 0 -100 15l-10 155h2q6 -11 15.5 -22.5t33.5 -25t53 -13.5q112 0 112 112v345q0 58 -16 96t-38 53v2h245v-2q-22 -15 -38 -53t-16 -95v-310q0 -133 -58 -195t-185 -62z" />
    <glyph glyph-name="uni0459" unicode="&#x459;" horiz-adv-x="908" 
d="M630 457q112 0 180.5 -57.5t68.5 -161.5q0 -113 -68.5 -175.5t-171.5 -62.5h-233v565h-3q-1 -2 -39 -83l-161 -357q-20 -54 -19 -82.5t14 -40.5v-2h-207v2q39 36 96 162l186 412q38 82 -16 117v2h336v-2q-22 -15 -38 -53t-16 -95v-88h91zM594 100q142 0 142 130
q0 65 -34.5 96.5t-107.5 31.5h-55v-258h55z" />
    <glyph glyph-name="uni045A" unicode="&#x45a;" horiz-adv-x="993" 
d="M715 431q113 0 181 -53.5t68 -152.5q0 -103 -65 -164t-175 -61h-289v2q20 15 35.5 52.5t15.5 91.5v185h-236v-181q0 -57 15 -95t36 -53v-2h-242v2q22 15 38 53t16 95v395q0 58 -16 95.5t-38 52.5v2h242v-2q-20 -15 -35.5 -53.5t-15.5 -94.5v-114h236v114q0 57 -15 95
t-36 53v2h242v-2q-22 -15 -38 -53t-16 -95v-114h92zM679 100q142 0 142 117q0 114 -142 114h-56v-231h56z" />
    <glyph glyph-name="uni045B" unicode="&#x45b;" horiz-adv-x="746" 
d="M680 146q0 -55 14 -92.5t34 -51.5v-2h-226v2q41 30 41 144v68q0 57 -28.5 88t-80.5 31q-34 0 -69 -9v-166q0 -124 31 -156v-2h-222v2q54 33 54 156v435h-76q-43 0 -77.5 -21t-52.5 -53l-2 1l17 183q61 -8 137 -8h244q76 0 137 8l15 -174l-2 -1q-18 26 -52 45.5t-76 19.5
h-75v-170q39 9 79 9q113 0 174.5 -54t61.5 -156v-76z" />
    <glyph glyph-name="uni045C" unicode="&#x45c;" horiz-adv-x="680" 
d="M489 869q-28 -20 -69.5 -63t-61.5 -69l-81 42q34 32 75 90t46 84l2 1zM250 149q0 -57 14.5 -94.5t34.5 -52.5v-2h-240v2q22 15 38 53t16 95v399q0 55 -16 92.5t-38 51.5v2h240v-2q-20 -15 -34.5 -53t-14.5 -95v-396zM602 113q26 -38 50.5 -59.5t60.5 -36.5v-2l-201 -34
q-10 37 -49 95l-202 300l169 239q35 50 33 80h208v-2q-57 -27 -118 -111l-141 -191z" />
    <glyph glyph-name="uni045D" unicode="&#x45d;" horiz-adv-x="795" 
d="M412 737q-19 26 -62 69t-70 63l88 85l2 -1q5 -25 48 -84t75 -90zM62 0v2q20 15 35.5 53.5t15.5 94.5v395q0 58 -16 95.5t-38 52.5v2h244v-2q-20 -15 -36 -53.5t-16 -94.5v-176q0 -88 -22 -210h4q33 94 97 201l144 239q38 63 41 96h221v-2q-19 -10 -39 -54t-20 -89v-400
q0 -58 16 -95.5t38 -52.5v-2h-246v2q22 15 38 53t16 95v180q0 100 28 222h-4q-40 -114 -101 -213l-151 -244q-32 -52 -50 -95h-199z" />
    <glyph glyph-name="uni045E" unicode="&#x45e;" horiz-adv-x="655" 
d="M329 742q-72 0 -118.5 38.5t-58.5 103.5l102 34l1 -2q-8 -31 12 -60t62 -29q43 0 63.5 28.5t12.5 60.5l1 2l100 -33q-16 -66 -62 -104.5t-115 -38.5zM433 695h219v-2q-67 -51 -103 -148l-141 -379q-23 -62 -23 -99.5t24 -64.5v-2h-238v2q60 60 97 158l38 100h-93
l-131 295q-47 104 -92 138v2h234v-2q-17 -31 -15.5 -62t20.5 -76l100 -234l89 234q30 79 15 140z" />
    <glyph glyph-name="uni045F" unicode="&#x45f;" horiz-adv-x="754" 
d="M696 693q-22 -15 -38 -53t-16 -95v-395q0 -119 44 -148v-2h-251q0 -72 27 -122l-1 -2h-167l-1 2q27 50 27 122h-252v2q45 29 45 148v395q0 57 -16 95t-37 53v2h245v-2q-22 -15 -38.5 -53t-16.5 -95v-445h255v445q0 58 -16 95.5t-38 52.5v2h245v-2z" />
    <glyph glyph-name="uni0490" unicode="&#x490;" horiz-adv-x="525" 
d="M382 807l149 9q-18 -44 -18 -102v-145l-2 -1q-26 18 -57 23t-94 5h-108v-445q0 -54 17.5 -95t43.5 -54v-2h-254v2q22 14 39 56.5t17 96.5v394q0 55 -16 92.5t-38 51.5v2h337v19q0 50 -16 93z" />
    <glyph glyph-name="uni0491" unicode="&#x491;" horiz-adv-x="525" 
d="M382 807l149 9q-18 -44 -18 -102v-145l-2 -1q-26 18 -57 23t-94 5h-108v-445q0 -54 17.5 -95t43.5 -54v-2h-254v2q22 14 39 56.5t17 96.5v394q0 55 -16 92.5t-38 51.5v2h337v19q0 50 -16 93z" />
    <glyph glyph-name="Wgrave" unicode="&#x1e80;" horiz-adv-x="1052" 
d="M549 737q-20 26 -62.5 69t-69.5 63l88 85l2 -1q5 -25 48 -84t75 -90zM168 0v2q50 54 23 154l-116 422q-24 91 -68 115v2h242v-2q-21 -18 -28 -51t2 -73l57 -223q20 -79 24 -181h4q23 95 70 191l107 219q35 74 49 126h6q21 -70 49 -125l97 -190q57 -113 79 -221h4
q7 101 31 204l49 200q21 82 -25 124l1 2h222v-2q-47 -26 -68 -116l-101 -421q-22 -94 23 -154v-2h-234v2q30 49 -6 124l-73 156q-37 78 -47 153h-4q-18 -73 -44 -130l-84 -179q-36 -78 -5 -124v-2h-236z" />
    <glyph glyph-name="wgrave" unicode="&#x1e81;" horiz-adv-x="1052" 
d="M549 737q-20 26 -62.5 69t-69.5 63l88 85l2 -1q5 -25 48 -84t75 -90zM168 0v2q50 54 23 154l-116 422q-24 91 -68 115v2h242v-2q-21 -18 -28 -51t2 -73l57 -223q20 -79 24 -181h4q23 95 70 191l107 219q35 74 49 126h6q21 -70 49 -125l97 -190q57 -113 79 -221h4
q7 101 31 204l49 200q21 82 -25 124l1 2h222v-2q-47 -26 -68 -116l-101 -421q-22 -94 23 -154v-2h-234v2q30 49 -6 124l-73 156q-37 78 -47 153h-4q-18 -73 -44 -130l-84 -179q-36 -78 -5 -124v-2h-236z" />
    <glyph glyph-name="Wacute" unicode="&#x1e82;" horiz-adv-x="1052" 
d="M537 737l-81 42q34 32 75 90t46 84l2 1l89 -85q-28 -20 -69.5 -63t-61.5 -69zM168 0v2q50 54 23 154l-116 422q-24 91 -68 115v2h242v-2q-21 -18 -28 -51t2 -73l57 -223q20 -79 24 -181h4q23 95 70 191l107 219q35 74 49 126h6q21 -70 49 -125l97 -190q57 -113 79 -221h4
q7 101 31 204l49 200q21 82 -25 124l1 2h222v-2q-47 -26 -68 -116l-101 -421q-22 -94 23 -154v-2h-234v2q30 49 -6 124l-73 156q-37 78 -47 153h-4q-18 -73 -44 -130l-84 -179q-36 -78 -5 -124v-2h-236z" />
    <glyph glyph-name="wacute" unicode="&#x1e83;" horiz-adv-x="1052" 
d="M537 737l-81 42q34 32 75 90t46 84l2 1l89 -85q-28 -20 -69.5 -63t-61.5 -69zM168 0v2q50 54 23 154l-116 422q-24 91 -68 115v2h242v-2q-21 -18 -28 -51t2 -73l57 -223q20 -79 24 -181h4q23 95 70 191l107 219q35 74 49 126h6q21 -70 49 -125l97 -190q57 -113 79 -221h4
q7 101 31 204l49 200q21 82 -25 124l1 2h222v-2q-47 -26 -68 -116l-101 -421q-22 -94 23 -154v-2h-234v2q30 49 -6 124l-73 156q-37 78 -47 153h-4q-18 -73 -44 -130l-84 -179q-36 -78 -5 -124v-2h-236z" />
    <glyph glyph-name="Wdieresis" unicode="&#x1e84;" horiz-adv-x="1052" 
d="M458 758q-25 0 -42 17.5t-17 41.5q0 25 17 42t42 17q24 0 40.5 -17t16.5 -42q0 -24 -16.5 -41.5t-40.5 -17.5zM614 758q-25 0 -42 17.5t-17 41.5q0 25 17 42t42 17q24 0 40.5 -17t16.5 -42q0 -24 -16.5 -41.5t-40.5 -17.5zM168 0v2q50 54 23 154l-116 422q-24 91 -68 115
v2h242v-2q-21 -18 -28 -51t2 -73l57 -223q20 -79 24 -181h4q23 95 70 191l107 219q35 74 49 126h6q21 -70 49 -125l97 -190q57 -113 79 -221h4q7 101 31 204l49 200q21 82 -25 124l1 2h222v-2q-47 -26 -68 -116l-101 -421q-22 -94 23 -154v-2h-234v2q30 49 -6 124l-73 156
q-37 78 -47 153h-4q-18 -73 -44 -130l-84 -179q-36 -78 -5 -124v-2h-236z" />
    <glyph glyph-name="wdieresis" unicode="&#x1e85;" horiz-adv-x="1052" 
d="M458 758q-25 0 -42 17.5t-17 41.5q0 25 17 42t42 17q24 0 40.5 -17t16.5 -42q0 -24 -16.5 -41.5t-40.5 -17.5zM614 758q-25 0 -42 17.5t-17 41.5q0 25 17 42t42 17q24 0 40.5 -17t16.5 -42q0 -24 -16.5 -41.5t-40.5 -17.5zM168 0v2q50 54 23 154l-116 422q-24 91 -68 115
v2h242v-2q-21 -18 -28 -51t2 -73l57 -223q20 -79 24 -181h4q23 95 70 191l107 219q35 74 49 126h6q21 -70 49 -125l97 -190q57 -113 79 -221h4q7 101 31 204l49 200q21 82 -25 124l1 2h222v-2q-47 -26 -68 -116l-101 -421q-22 -94 23 -154v-2h-234v2q30 49 -6 124l-73 156
q-37 78 -47 153h-4q-18 -73 -44 -130l-84 -179q-36 -78 -5 -124v-2h-236z" />
    <glyph glyph-name="uni1E9E" unicode="&#x1e9e;" horiz-adv-x="730" 
d="M515 426q78 -17 128.5 -75.5t50.5 -133.5q0 -97 -65.5 -166.5t-176.5 -69.5q-53 0 -99 13l-16 126l2 1q42 -36 94 -36t86.5 35t34.5 87q0 79 -59 114.5t-159 18.5v2l135 253h-221v-445q0 -57 15 -95t36 -53v-2h-242v2q22 15 38 53t16 95v395q0 58 -16 95.5t-38 52.5v2
h607l1 -3z" />
    <glyph glyph-name="Ygrave" unicode="&#x1ef2;" horiz-adv-x="643" 
d="M337 737q-19 26 -62 69t-70 63l88 85l2 -1q5 -25 48 -84t75 -90zM461 695h201v-2q-32 -24 -80 -102l-189 -312v-121q0 -61 17.5 -101.5t43.5 -54.5v-2h-259v2q24 14 42.5 55.5t18.5 100.5v116l-192 317q-46 75 -81 102v2h213v-2q-13 -39 23 -102l77 -133q19 -31 31 -65h4
q7 20 32 65l76 133q36 63 22 102v2z" />
    <glyph glyph-name="ygrave" unicode="&#x1ef3;" horiz-adv-x="643" 
d="M337 737q-19 26 -62 69t-70 63l88 85l2 -1q5 -25 48 -84t75 -90zM461 695h201v-2q-32 -24 -80 -102l-189 -312v-121q0 -61 17.5 -101.5t43.5 -54.5v-2h-259v2q24 14 42.5 55.5t18.5 100.5v116l-192 317q-46 75 -81 102v2h213v-2q-13 -39 23 -102l77 -133q19 -31 31 -65h4
q7 20 32 65l76 133q36 63 22 102v2z" />
    <glyph glyph-name="endash" unicode="&#x2013;" horiz-adv-x="505" 
d="M5 265l-2 1l19 114h403q42 0 75 15l2 -1l-16 -115h-397q-56 0 -84 -14z" />
    <glyph glyph-name="emdash" unicode="&#x2014;" horiz-adv-x="694" 
d="M5 264l-2 1l19 114h592q42 0 75 15l2 -1l-16 -115h-586q-56 0 -84 -14z" />
    <glyph glyph-name="quoteleft" unicode="&#x2018;" horiz-adv-x="225" 
d="M127 591q32 -5 53 -29.5t21 -57.5q0 -37 -26 -62.5t-63 -25.5q-43 0 -67.5 31t-24.5 81q0 107 89 199l73 -33v-2q-45 -38 -55 -101z" />
    <glyph glyph-name="quoteright" unicode="&#x2019;" horiz-adv-x="234" 
d="M113 744q43 0 67.5 -31t24.5 -81q0 -107 -89 -199l-73 33v2q45 38 55 101q-32 5 -53 29.5t-21 57.5q0 37 26 62.5t63 25.5z" />
    <glyph glyph-name="quotesinglbase" unicode="&#x201a;" horiz-adv-x="236" 
d="M113 161q43 0 67.5 -31t24.5 -81q0 -107 -89 -199l-73 33v2q45 38 55 101q-32 5 -53 29.5t-21 57.5q0 37 26 62.5t63 25.5z" />
    <glyph glyph-name="quotedblleft" unicode="&#x201c;" horiz-adv-x="424" 
d="M138 612q32 -5 53 -29.5t21 -57.5q0 -37 -26 -62.5t-63 -25.5q-43 0 -67.5 31t-24.5 81q0 107 89 199l73 -33v-2q-45 -38 -55 -101zM338 612q32 -5 53 -29.5t21 -57.5q0 -37 -26 -62.5t-63 -25.5q-43 0 -67.5 31t-24.5 81q0 107 89 199l73 -33v-2q-45 -38 -55 -101z" />
    <glyph glyph-name="quotedblright" unicode="&#x201d;" horiz-adv-x="442" 
d="M111 744q43 0 67.5 -31t24.5 -81q0 -107 -89 -199l-73 33v2q45 38 55 101q-32 5 -53 29.5t-21 57.5q0 37 26 62.5t63 25.5zM311 744q43 0 67.5 -31t24.5 -81q0 -107 -89 -199l-73 33v2q45 38 55 101q-32 5 -53 29.5t-21 57.5q0 37 26 62.5t63 25.5z" />
    <glyph glyph-name="quotedblbase" unicode="&#x201e;" horiz-adv-x="455" 
d="M113 161q43 0 67.5 -31t24.5 -81q0 -107 -89 -199l-73 33v2q45 38 55 101q-32 5 -53 29.5t-21 57.5q0 37 26 62.5t63 25.5zM333 161q43 0 67.5 -31t24.5 -81q0 -107 -89 -199l-73 33v2q45 38 55 101q-32 5 -53 29.5t-21 57.5q0 37 26 62.5t63 25.5z" />
    <glyph glyph-name="dagger" unicode="&#x2020;" horiz-adv-x="507" 
d="M471 469h-154v-421q0 -76 19 -99v-2h-167v2q20 24 20 99v421h-56q-76 0 -107 -21h-2l14 131h151v60q0 80 -18 101v2h166v-2q-20 -24 -20 -101v-60h59q73 0 105 21h2z" />
    <glyph glyph-name="daggerdbl" unicode="&#x2021;" horiz-adv-x="507" 
d="M376 272q73 0 105 21h2l-12 -131h-154v-114q0 -76 19 -99v-2h-167v2q20 24 20 99v114h-56q-76 0 -107 -21h-2l14 131h151v197h-56q-76 0 -107 -21h-2l14 131h151v60q0 80 -18 101v2h166v-2q-20 -24 -20 -101v-60h59q73 0 105 21h2l-12 -131h-154v-197h59z" />
    <glyph glyph-name="bullet" unicode="&#x2022;" horiz-adv-x="398" 
d="M201 154q-72 0 -121.5 49t-49.5 120q0 70 50 119.5t121 49.5t119 -48.5t48 -120.5q0 -71 -48.5 -120t-118.5 -49z" />
    <glyph glyph-name="ellipsis" unicode="&#x2026;" horiz-adv-x="708" 
d="M112 -9q-35 0 -59.5 25t-24.5 61q0 37 24.5 62t59.5 25t59 -25t24 -62q0 -36 -24 -61t-59 -25zM354 -9q-35 0 -59.5 25t-24.5 61q0 37 24.5 62t59.5 25t59 -25t24 -62q0 -36 -24 -61t-59 -25zM597 -9q-35 0 -59.5 25t-24.5 61q0 37 24.5 62t59.5 25t59 -25t24 -62
q0 -36 -24 -61t-59 -25z" />
    <glyph glyph-name="perthousand" unicode="&#x2030;" horiz-adv-x="1157" 
d="M178 376q-70 0 -119.5 49t-49.5 120t49.5 120t119.5 49t119.5 -49t49.5 -120t-49.5 -120t-119.5 -49zM136 0v2q41 33 73 97l245 495q28 56 44 101h145v-2q-31 -27 -60 -85l-262 -533q-24 -49 -32 -75h-153zM179 470q29 0 48 20.5t19 54.5t-19 54.5t-48 20.5
q-30 0 -49.5 -21t-19.5 -54q0 -34 20 -54.5t49 -20.5zM607 -19q-71 0 -120 49.5t-49 119.5t49 119.5t120 49.5t120 -49.5t49 -119.5t-49 -119.5t-120 -49.5zM979 -19q-71 0 -120 49.5t-49 119.5t49 119.5t120 49.5t120 -49.5t49 -119.5t-49 -119.5t-120 -49.5zM608 79
q29 0 48 20t19 51t-19 51.5t-48 20.5q-30 0 -49.5 -20.5t-19.5 -51.5t19.5 -51t49.5 -20zM980 79q29 0 48 20t19 51t-19 51.5t-48 20.5q-30 0 -49.5 -20.5t-19.5 -51.5t19.5 -51t49.5 -20z" />
    <glyph glyph-name="guilsinglleft" unicode="&#x2039;" horiz-adv-x="375" 
d="M279 162q40 -48 96 -82l-1 -2h-196q-12 30 -45 66l-143 164l143 164q33 36 45 66h175l1 -2q-38 -23 -88 -82l-118 -138z" />
    <glyph glyph-name="guilsinglright" unicode="&#x203a;" horiz-adv-x="375" 
d="M242 472l143 -164l-143 -164q-33 -36 -45 -66h-175l-1 2q38 23 88 82l118 138l-131 154q-40 48 -96 82l1 2h196q12 -30 45 -66z" />
    <glyph glyph-name="fraction" unicode="&#x2044;" horiz-adv-x="532" 
d="M-18 -14l-1 2q42 36 82 109l261 483q34 62 28 101h201l1 -2q-29 -20 -44.5 -40.5t-35.5 -57.5l-248 -460q-44 -82 -34 -135h-210z" />
    <glyph glyph-name="Euro" unicode="&#x20ac;" horiz-adv-x="711" 
d="M690 195l2 -1l-25 -175q-108 -38 -211 -38q-116 0 -203.5 62.5t-123.5 168.5h-17q-106 0 -136 -24l-2 1l36 123h98q-1 12 -1 36v19q-101 0 -131 -24l-2 1l36 123h113q33 114 125 180.5t220 66.5q103 0 186 -26l14 -159h-2q-59 77 -204 77q-71 0 -122.5 -36.5
t-75.5 -102.5h274q55 0 90 23l2 -1l-35 -122h-351v-19q0 -12 2 -36h292q55 0 90 23l2 -1l-35 -122h-325q26 -59 75.5 -91.5t118.5 -32.5q133 0 226 107z" />
    <glyph glyph-name="trademark" unicode="&#x2122;" horiz-adv-x="671" 
d="M188 695q30 0 60 3l8 -85h-2q-20 32 -56 32h-33v-186q0 -54 27 -67v-2h-114v2q27 15 27 67v186h-34q-36 0 -56 -32h-2l7 85q32 -3 61 -3h107zM633 454q4 -40 26 -62v-2h-102v2q18 14 15 53l-8 91q-1 11 0.5 34t1.5 30h-3q-16 -41 -23 -52l-54 -94q-18 -29 -22 -55h-3
q-4 26 -22 55l-53 90q-6 10 -14 29.5t-11 26.5h-1v-64l-6 -91q-3 -39 15 -53v-2h-100v2q25 27 27 62l13 170q2 19 -4.5 40t-19.5 29v2h101v-2q-7 -11 8 -38l49 -86q13 -21 18 -49h2q6 20 20 44l53 92q16 24 8 37v2h100v-2q-29 -17 -25 -69z" />
    <glyph glyph-name="product" unicode="&#x220f;" horiz-adv-x="579" 
d="M555 585h-66v-494q0 -42 4 -59t15 -30l-1 -2h-158l-1 2q14 22 14 89v494h-140v-494q0 -64 16 -89l-1 -2h-154l-2 2q14 22 14 89v493q-57 -3 -82 -24l-2 1l15 134h434q74 0 106 26l2 -1z" />
    <glyph glyph-name="summation" unicode="&#x2211;" horiz-adv-x="465" 
d="M454 150h2l-20 -150h-406v2l174 347l-166 344v2h396l-17 -142h-2q-21 33 -87 33h-100l114 -238l-116 -238h122q62 0 106 40z" />
    <glyph glyph-name="minus" unicode="&#x2212;" horiz-adv-x="476" 
d="M14 256l-2 1l15 121h329q74 0 106 26l2 -1l-13 -122h-329q-77 0 -108 -25z" />
    <glyph glyph-name="radical" unicode="&#x221a;" horiz-adv-x="611" 
d="M619 695l-18 -144h-2q-16 44 -86 44h-46l-158 -594h-167l-103 330q-17 55 -55 85v2h172q-3 -17 12 -69l49 -177q5 -18 7 -45h5q1 19 7 45l128 523h255z" />
    <glyph glyph-name="integral" unicode="&#x222b;" horiz-adv-x="321" 
d="M-30 -15l21 124h2q13 -23 38.5 -12t31.5 47l70 447q24 154 218 125l-26 -126h-2q-17 16 -39.5 7t-26.5 -36l-71 -451q-11 -73 -58.5 -107.5t-157.5 -17.5z" />
    <glyph glyph-name="approxequal" unicode="&#x2248;" horiz-adv-x="446" 
d="M117 240l-102 29q-3 63 35 107.5t94 44.5q42 0 88.5 -26t62.5 -26q24 0 35.5 20.5t5.5 45.5l2 2l94 -29q5 -58 -33 -106t-93 -48q-35 0 -64 14t-50.5 27.5t-37.5 13.5q-23 0 -33 -22t-2 -45zM117 30l-102 29q-3 63 35 107.5t94 44.5q42 0 88.5 -26t62.5 -26
q24 0 35.5 20.5t5.5 45.5l2 2l94 -29q5 -58 -33.5 -106t-92.5 -48q-35 0 -64 14t-50.5 27.5t-37.5 13.5q-23 0 -33 -22t-2 -45z" />
    <glyph glyph-name="notequal" unicode="&#x2260;" horiz-adv-x="498" 
d="M367 293q69 0 105 20l2 -1l-12 -125h-193l-10 -36q-19 -67 -8 -89l-1 -2h-155l-1 2q30 26 48 89l10 36h-19q-77 0 -108 -25l-2 1l15 130h145l17 59h-67q-75 0 -107 -20l-2 1l14 124h192l6 20q20 66 8 89l1 2h157l1 -2q-31 -20 -51 -89l-6 -20h21q74 0 106 26l2 -1
l-13 -130h-146l-16 -59h67z" />
    <glyph glyph-name="lessequal" unicode="&#x2264;" horiz-adv-x="399" 
d="M344 140q-24 30 -62 52l-274 154v76l275 160q41 24 64 49l2 -1l13 -142l-2 -2q-28 2 -57 -15l-142 -82l145 -75q36 -19 56 -17l2 -2l-18 -154zM375 124l2 -1l-12 -123h-243q-77 0 -108 -25l-2 1l15 128h243q69 0 105 20z" />
    <glyph glyph-name="greaterequal" unicode="&#x2265;" horiz-adv-x="397" 
d="M86 454q-36 19 -56 17l-2 2l18 154l2 1q24 -30 62 -52l274 -154v-76l-275 -160q-41 -24 -64 -49l-2 1l-13 142l2 2q28 -2 57 15l142 82zM385 123l2 -1l-12 -122h-243q-77 0 -108 -25l-2 1l15 127h243q69 0 105 20z" />
    <glyph glyph-name="lozenge" unicode="&#x25ca;" horiz-adv-x="534" 
d="M299 682l222 -341l-222 -341h-64l-222 341l222 341h64zM275 165l107 164l-123 188l-107 -164z" />
    <glyph glyph-name="zero.osf" horiz-adv-x="672" 
d="M331 -19q-128 0 -202 78.5t-74 200.5q0 126 77 206.5t207 80.5q123 0 200.5 -77t77.5 -200q0 -128 -78 -208.5t-208 -80.5zM339 80q63 0 98.5 48t35.5 132q0 88 -36 138.5t-106 50.5q-62 0 -97 -46.5t-35 -132.5q0 -90 36 -140t104 -50z" />
    <glyph glyph-name="one.osf" horiz-adv-x="373" 
d="M326 525q-20 -15 -35.5 -53.5t-15.5 -94.5v-228q0 -56 15.5 -94t35.5 -53v-2h-234v2q20 15 35.5 53.5t15.5 94.5v266q-72 -3 -122 -50l-2 1l37 166q32 -6 135 -6h135v-2z" />
    <glyph glyph-name="two.osf" horiz-adv-x="513" 
d="M472 173l2 -1l-29 -178q-49 6 -149 6h-271l-2 2q160 178 230 257q41 47 41 92q0 37 -27 64t-73 27q-93 0 -148 -81l-2 1l29 152q80 32 160 32q89 0 145 -49.5t56 -128.5q0 -76 -63 -145l-104 -112h75q41 0 70 15t60 47z" />
    <glyph glyph-name="three.osf" horiz-adv-x="497" 
d="M291 277q80 -15 127 -67.5t47 -129.5q0 -108 -94 -176t-259 -68l-74 122l1 2q121 -34 203.5 -0.5t82.5 110.5q0 56 -38 85t-104 29q-33 0 -65 -2l-1 2l140 233h-97q-93 0 -135 -49l-2 1l35 165q46 -7 137 -7h243z" />
    <glyph glyph-name="four.osf" horiz-adv-x="556" 
d="M534 17q-42 5 -84 6v-19q0 -56 15.5 -94t35.5 -53v-2h-220v2q20 15 35.5 53.5t15.5 94.5v18h-319v2l126 391q21 64 16 111h188v-2q-26 -23 -46.5 -61t-47.5 -110l-84 -232l167 -1v107q0 83 -19 110l1 2l161 40l1 -2q-26 -28 -26 -111v-146q69 3 104 48l2 -1z" />
    <glyph glyph-name="five.osf" horiz-adv-x="493" 
d="M210 285q116 0 186.5 -52t70.5 -152q0 -114 -99 -179.5t-262 -65.5l-74 122l1 2q115 -35 205 -6t90 105q0 70 -45.5 98t-125.5 28q-69 0 -118 -12l-2 1l24 352h196q86 0 148 7l28 -176l-2 -1q-25 32 -58 45t-90 13h-123l-9 -132q30 3 59 3z" />
    <glyph glyph-name="six.osf" horiz-adv-x="606" 
d="M309 -16q-117 0 -185.5 83t-68.5 237q0 175 103.5 276t252.5 111l74 -122l-1 -2q-78 22 -144.5 1t-112 -75t-48.5 -116l2 -1q59 68 161 68q94 0 158.5 -56t64.5 -164q0 -100 -68.5 -170t-187.5 -70zM314 82q52 0 82.5 36t30.5 97t-30 95.5t-83 34.5q-52 0 -81.5 -35
t-29.5 -95q0 -61 30 -97t81 -36z" />
    <glyph glyph-name="seven.osf" horiz-adv-x="484" 
d="M294 -6q-32 -95 11 -137l-1 -2h-216l-1 2q43 50 75 134l161 415h-181q-96 0 -138 -60l-2 1l31 186q48 -6 141 -6h300l1 -2z" />
    <glyph glyph-name="eight.osf" horiz-adv-x="581" 
d="M453 349q87 -46 87 -161q0 -94 -69.5 -149t-179.5 -55q-111 0 -180.5 53.5t-69.5 140.5q0 96 92 150q-73 51 -73 143q0 99 64.5 151.5t171.5 52.5q102 0 162.5 -53t60.5 -131q0 -85 -66 -142zM286 576q-43 0 -69 -21.5t-26 -57.5q0 -22 7.5 -37.5t27.5 -27t33 -16.5
t48 -14.5t47 -13.5q40 45 40 93q0 42 -30 68.5t-78 26.5zM301 83q48 0 77 23t29 62q0 15 -4 27.5t-15.5 23t-20 17t-29.5 13.5t-30.5 10.5t-37.5 11t-37 9.5q-57 -32 -57 -92q0 -46 35.5 -75.5t89.5 -29.5z" />
    <glyph glyph-name="nine.osf" horiz-adv-x="593" 
d="M284 545q117 0 185.5 -83t68.5 -237q0 -175 -103.5 -276t-252.5 -111l-74 122l1 2q78 -22 144.5 -1t112 75t48.5 116l-2 1q-59 -68 -161 -68q-94 0 -158.5 56t-64.5 164q0 100 68.5 170t187.5 70zM279 447q-52 0 -82.5 -36t-30.5 -97t30 -95.5t83 -34.5q52 0 81.5 35
t29.5 95q0 61 -30 97t-81 36z" />
    <glyph glyph-name="period.ss02" horiz-adv-x="238" 
d="M67 -34l-2 2q-5 50 -46 146q72 35 144 77l2 -2q2 -37 53 -155q-6 -2 -151 -68z" />
    <glyph glyph-name="comma.ss02" horiz-adv-x="235" 
d="M113 161q43 0 67.5 -31t24.5 -81q0 -47 -26.5 -100t-67.5 -95l-63 29v2q46 36 54 100q-34 4 -56 29t-22 59q0 37 26 62.5t63 25.5z" />
    <glyph glyph-name="ampersand.ss01" horiz-adv-x="694" 
d="M718 70l1 -2l-157 -97q-16 24 -60 68q-74 -58 -195 -58q-119 0 -192 58t-73 155q0 59 27.5 108t81.5 76q-35 39 -50 74t-15 83q0 81 67.5 128t182.5 47q66 0 158 -25l14 -146l-2 -1q-26 32 -74 51t-106 19q-103 0 -103 -80q0 -48 48 -94l180 -173v97q0 57 -19 89v2h178
v-2q-21 -12 -27.5 -36.5t-6.5 -72.5v-140q0 -28 -6 -52q85 -81 148 -76zM178 204q0 -57 38 -89.5t96 -32.5q69 0 106 37l-189 182q-51 -35 -51 -97z" />
    <glyph glyph-name="brevecombcy" horiz-adv-x="0" 
d="M-261 742q-72 0 -118.5 38.5t-58.5 103.5l102 34l1 -2q-8 -31 12 -60t62 -29q43 0 63.5 28.5t12.5 60.5l1 2l100 -33q-16 -66 -62 -104.5t-115 -38.5z" />
    </font>
</defs>
</svg>
