<?xml version="1.0" standalone="no"?>
<!DOCTYPE svg PUBLIC "-//W3C//DTD SVG 1.1//EN" "http://www.w3.org/Graphics/SVG/1.1/DTD/svg11.dtd" >
<svg xmlns="http://www.w3.org/2000/svg" xmlns:xlink="http://www.w3.org/1999/xlink" version="1.1">
<metadata>
Created by FontForge 20170731 at Mon Jun 12 12:16:05 2017
 By Aleksey,,,
Created by Bart Wesolek, Bart.Co Design Shoppe
Free for personal and commercial use.
</metadata>
<defs>
<font id="Rheiborn_Sans_Clean" horiz-adv-x="415" >
  <font-face 
    font-family="Rheiborn Sans Clean"
    font-weight="400"
    font-stretch="normal"
    units-per-em="1000"
    panose-1="2 0 5 3 0 0 0 0 0 0"
    ascent="800"
    descent="-200"
    x-height="641"
    cap-height="642"
    bbox="25 -110 684 830"
    underline-thickness="48"
    underline-position="-194"
    unicode-range="U+0020-0237"
  />
<missing-glyph horiz-adv-x="500" 
d="M50 0v533h400v-533h-400zM100 50h300v433h-300v-433z" />
    <glyph glyph-name=".notdef" horiz-adv-x="500" 
d="M50 0v533h400v-533h-400zM100 50h300v433h-300v-433z" />
    <glyph glyph-name=".null" horiz-adv-x="0" 
 />
    <glyph glyph-name="nonmarkingreturn" horiz-adv-x="333" 
 />
    <glyph glyph-name="space" unicode=" " horiz-adv-x="292" 
 />
    <glyph glyph-name="exclam" unicode="!" horiz-adv-x="190" 
d="M148 91l2 -6v-62l-2 -6l-16 -15l-5 -2h-63l-5 2l-16 15l-2 6v62l2 6l16 16l5 2h63l5 -2zM57 163l-16 469l8 8h94l7 -8l-15 -469l-8 -7h-63z" />
    <glyph glyph-name="quotedbl" unicode="&#x22;" horiz-adv-x="314" 
d="M271 638v-187l-8 -8h-62l-8 7l-32 187l8 9h94zM137 646l8 -8v-187l-8 -8h-62l-8 7l-30 187l8 9h92z" />
    <glyph glyph-name="numbersign" unicode="#" horiz-adv-x="635" 
d="M365 268l16 110h-108l-18 -110h110zM599 487l8 -9l-16 -94l-6 -6h-94l-16 -110h94l8 -9l-16 -94l-8 -6h-96l-22 -150l-8 -7h-92l-8 9l22 148h-110l-22 -150l-8 -7h-94l-8 9l22 148h-92l-8 9l16 94l8 6h94l16 110h-94l-8 9l16 93l8 7h94l22 149l8 7h94l8 -9l-22 -147h108
l24 149l6 7h94l8 -9l-22 -147h92z" />
    <glyph glyph-name="dollar" unicode="$" horiz-adv-x="411" 
d="M262 244q-2 23 -24 23h-7v-125h7q11 0 17.5 7t6.5 17v78zM151 400q2 -24 25 -24h8v126h-8q-11 0 -18 -7.5t-7 -16.5v-78zM42 509q0 42 28 72t74 30h40v23l6 8h32l9 -8v-23h39q62 0 88 -51q13 -27 13 -51v-62l-9 -8h-92l-8 8v31q-2 24 -24 24h-7v-126h39q62 0 88 -51
q13 -27 13 -50v-141q0 -42 -27.5 -71.5t-73.5 -29.5h-39v-24l-9 -7h-32l-6 7v24h-40q-64 0 -90 51q-12 25 -12 50v63l8 8h94l7 -8v-32q2 -23 25 -23h8v125h-40q-64 0 -90 51q-12 25 -12 51v140z" />
    <glyph glyph-name="percent" unicode="%" horiz-adv-x="711" 
d="M559 96q11 0 17.5 7t6.5 17v31q0 11 -7 17t-17 6h-30q-24 -2 -24 -23v-31q0 -11 7 -17.5t17 -6.5v0v0v0v0h1v0v0h1v0h1v0h1h1h1h1h1h1h1h1h1h1h1h1h1h1h1h1h1h10zM411 167q0 45 28 71.5t70 29.5h66q64 0 90 -51q12 -25 12 -50v-63q0 -46 -27 -71.5t-69 -29.5v-1h-68
q-46 0 -72 27.5t-30 69.5v68zM505 633l-188 -625l-8 -6h-92l-8 10l188 626l6 5h94zM185 472q11 0 17.5 7t6.5 16v31q0 11 -7 17t-17 6h-32q-22 -2 -22 -23v-31q0 -23 22 -23h32zM37 542q0 45 27 71.5t69 29.5h68q62 0 88 -51q14 -29 14 -50v-63q0 -46 -27.5 -71.5
t-70.5 -29.5h-66q-46 0 -72 27t-30 69v68z" />
    <glyph glyph-name="ampersand" unicode="&#x26;" horiz-adv-x="434" 
d="M152 133q2 -24 23 -24h86v157h-86q-23 -2 -23 -23v-110zM152 399q0 -11 7 -17.5t16 -6.5h220l6 -7v-94l-6 -8h-25v-258l-7 -8h-218q-63 0 -90 52q-12 25 -12 50v156q0 44 36 62v1q-36 17 -36 62v157q0 42 28 71.5t74 29.5h124q64 0 90 -51q11 -23 11 -50v-94l-7 -8h-94
l-8 8v63q-2 23 -24 23h-62q-11 0 -17 -7t-6 -17v-109z" />
    <glyph glyph-name="quotesingle" unicode="'" horiz-adv-x="188" 
d="M145 637v-187l-8 -8h-62l-8 7l-30 187l8 9h92z" />
    <glyph glyph-name="parenleft" unicode="(" horiz-adv-x="253" 
d="M177 532q-11 0 -17.5 -7t-6.5 -17v-375q2 -24 24 -24h31l8 -7v-94l-8 -8h-62q-42 0 -72 28t-30 74v438q0 63 51 89q25 12 51 12h62l8 -8v-93l-8 -8h-31z" />
    <glyph glyph-name="parenright" unicode=")" horiz-adv-x="251" 
d="M107 641q42 0 71.5 -27.5t29.5 -73.5v-438q0 -63 -51 -89q-27 -13 -50 -13h-62l-8 8v94l8 7v0v0v0v0h1v0v0h1v0h1v0h1h1h1h1h1h1h1h1h1h1h1h1h1h1h1h1h1h10q11 0 17.5 7t6.5 17v376q-2 23 -24 23h-3h-3h-3h-3h-3h-3h-3h-9l-8 8v93l8 8h62z" />
    <glyph glyph-name="asterisk" unicode="*" horiz-adv-x="450" 
d="M414 270l3 -10l-49 -81l-11 -2l-77 47v-91l-8 -7h-94l-7 7v91l-78 -47l-10 2l-49 81l3 10l83 51l-83 50l-3 11l49 80l10 3l78 -47v90l7 8h94l8 -8v-90l77 47l11 -3l49 -80l-3 -11l-83 -50z" />
    <glyph glyph-name="plus" unicode="+" horiz-adv-x="402" 
d="M365 370v-94l-8 -8h-101v-101l-7 -8h-94l-8 8v101h-102l-8 8v94l8 7h102v102l8 8h94l7 -8v-102h101z" />
    <glyph glyph-name="comma" unicode="," horiz-adv-x="195" 
d="M152 86v-62l-2 -6l-47 -47l-13 6v23h-24l-5 2l-16 16l-2 6v62l2 6l16 15l5 3h63l5 -3l16 -15z" />
    <glyph glyph-name="hyphen" unicode="-" horiz-adv-x="414" 
d="M371 370v-94l-8 -8h-312l-8 8v94l8 7h312z" />
    <glyph glyph-name="period" unicode="." horiz-adv-x="196" 
d="M153 85v-62l-2 -6l-16 -15l-5 -2h-63l-5 2l-16 15l-2 6v62l2 6l16 16l5 2h63l5 -2l16 -16z" />
    <glyph glyph-name="slash" unicode="/" horiz-adv-x="408" 
d="M383 664l-250 -688l-7 -5h-94l-7 11l250 687l7 5h94z" />
    <glyph glyph-name="zero" unicode="0" 
d="M153 133q2 -24 24 -24h62q14 0 21 12l-107 298v-286zM263 509q-2 23 -24 23h-62q-9 0 -13 -3l99 -276v256zM44 540q0 42 28 71.5t74 29.5h125q63 0 89 -51q12 -25 12 -50v-438q0 -42 -27.5 -72t-73.5 -30h-125q-62 0 -89 52q-13 27 -13 50v438z" />
    <glyph glyph-name="one" unicode="1" horiz-adv-x="250" 
d="M205 632v-625l-8 -7h-94l-8 7v508h-54l-8 8v109l8 8h156z" />
    <glyph glyph-name="two" unicode="2" horiz-adv-x="413" 
d="M176 266q-11 0 -17.5 -7t-6.5 -16v-134h110v24l8 8h93l8 -8v-125l-8 -8h-312l-8 8v266q0 42 28 71.5t74 29.5h93q11 0 17.5 7t6.5 17v110q-2 23 -24 23h-62q-11 0 -17.5 -7t-6.5 -17v-31l-7 -8h-94l-8 8v63q0 42 28 71.5t74 29.5h125q63 0 89 -51q12 -25 12 -50v-172
q0 -42 -27.5 -72t-73.5 -30h-94z" />
    <glyph glyph-name="three" unicode="3" horiz-adv-x="410" 
d="M259 509q-2 23 -24 23h-87v-24l-7 -8h-94l-8 8v125l8 8h220q62 0 88 -51q13 -27 13 -50v-157q0 -43 -37 -61v-1q37 -18 37 -63v-156q0 -42 -27.5 -72t-73.5 -30h-220l-8 8v125l8 8h94l7 -8v-24h87q11 0 17.5 7t6.5 17v110q0 11 -7 17t-17 6h-94l-8 8v94l8 7h94
q24 2 24 24v110z" />
    <glyph glyph-name="four" unicode="4" horiz-adv-x="406" 
d="M361 633v-625l-7 -8h-94l-8 8v196h-210l-8 7v94q11 55 31 165t31 165l8 6h94l8 -9l-62 -319h108v320l8 8h94z" />
    <glyph glyph-name="five" unicode="5" 
d="M263 259q-2 23 -24 23h-94q-62 0 -88 51q-14 29 -14 50v250l8 8h312l9 -8v-125l-9 -8h-92l-8 8v24h-111v-118q2 -23 25 -23h94q62 0 88 -51q13 -27 13 -50v-188q0 -42 -27.5 -72t-73.5 -30h-126q-61 0 -88 52q-14 29 -14 50v63l8 7h94l7 -7v-32q2 -24 25 -24h62
q11 0 17.5 7t6.5 17v126z" />
    <glyph glyph-name="six" unicode="6" 
d="M178 266q-11 0 -18 -7t-7 -16v-110q2 -24 25 -24h62q11 0 17.5 7t6.5 17v110q-2 23 -24 23h-62zM44 540q0 42 28 71.5t74 29.5h126q62 0 88 -51q13 -27 13 -50v-63l-9 -8h-92l-8 8v32q-2 23 -24 23h-62q-11 0 -18 -7.5t-7 -16.5v-109q2 -24 25 -24h94q62 0 88 -51
q13 -27 13 -50v-172q0 -42 -27.5 -72t-73.5 -30h-126q-61 0 -88 52q-14 29 -14 50v438z" />
    <glyph glyph-name="seven" unicode="7" horiz-adv-x="394" 
d="M361 633v-93l-141 -534l-7 -6h-110l-7 10l138 522h-193l-8 8v93l8 8h312z" />
    <glyph glyph-name="eight" unicode="8" 
d="M239 391q11 0 17.5 7t6.5 17v93q0 11 -7 17.5t-17 6.5h-62q-11 0 -18 -7.5t-7 -16.5v-93q0 -11 7.5 -17.5t17.5 -6.5h62zM239 109q11 0 17.5 7t6.5 17v94q0 11 -7 17t-17 6h-62q-11 0 -18 -7t-7 -16v-94q0 -11 7.5 -17.5t17.5 -6.5h62zM372 383q0 -43 -37 -62
q37 -18 37 -63v-156q0 -42 -27.5 -72t-73.5 -30h-126q-42 0 -72 28t-30 74v156q0 44 36 62l2 1q-38 18 -38 62v157q0 62 52 89q25 12 50 12h126q62 0 88 -51q13 -27 13 -50v-157z" />
    <glyph glyph-name="nine" unicode="9" 
d="M239 375q11 0 17.5 7t6.5 16v110q-2 23 -24 23h-62q-11 0 -18 -7t-7 -16v-110q2 -23 25 -23h62zM43 539q0 42 28 71.5t74 29.5h126q62 0 88 -51q13 -27 13 -50v-438q0 -42 -27.5 -71.5t-73.5 -29.5h-126q-62 0 -88 51q-14 29 -14 50v63l8 8h94l7 -8v-32q2 -23 25 -23h62
q11 0 17.5 7t6.5 17v109q-2 24 -24 24h-94q-62 0 -88 51q-14 29 -14 50v172z" />
    <glyph glyph-name="colon" unicode=":" horiz-adv-x="196" 
d="M151 92l2 -6v-62l-2 -6l-16 -15l-5 -3h-63l-5 3l-16 15l-2 6v62l2 6l16 16l5 1h63l5 -1zM153 355v-63l-2 -5l-16 -16l-5 -2h-63l-5 2l-16 16l-2 5v63l2 5l16 16l5 2h63l5 -2l16 -16z" />
    <glyph glyph-name="semicolon" unicode=";" horiz-adv-x="195" 
d="M152 355v-63l-1 -5l-16 -16l-6 -2h-62l-6 2l-16 16l-2 5v63l2 5l16 16l6 2h62l6 -2l16 -16zM151 92l1 -6v-62l-1 -6l-48 -46l-12 5v23h-24l-6 3l-16 15l-2 6v62l2 6l16 16l6 2h62l6 -2z" />
    <glyph glyph-name="less" unicode="&#x3c;" horiz-adv-x="403" 
d="M359 378l-166 -55l166 -55l6 -8v-94l-10 -7l-314 109l-4 8v94l4 7l314 109l10 -7v-94z" />
    <glyph glyph-name="equal" unicode="=" horiz-adv-x="411" 
d="M371 448v-94l-8 -8h-312l-8 8v94l8 7h312zM363 299l8 -7v-94l-8 -8h-312l-8 8v94l8 7h312z" />
    <glyph glyph-name="greater" unicode="&#x3e;" horiz-adv-x="405" 
d="M368 370v-94l-5 -8l-313 -109l-10 7v94l5 8l166 55l-166 55l-5 7v94l10 7l313 -109z" />
    <glyph glyph-name="question" unicode="?" horiz-adv-x="400" 
d="M234 92l2 -6v-62l-2 -6l-16 -15l-5 -3h-63l-5 3l-16 15l-2 6v62l2 6l16 16l5 1h63l5 -1zM127 290q0 45 29 73t70 28h2q11 0 17.5 7t6.5 17v109q-2 23 -24 23h-62q-11 0 -17.5 -7t-6.5 -16v-31l-7 -8h-94l-8 8v62q0 42 27.5 72t73.5 30l1 -1h125l1 1q63 0 88 -51
q12 -25 12 -51v-172q0 -45 -28.5 -73t-70.5 -28h-2q-11 0 -17.5 -7t-6.5 -17v-93l-8 -8h-93l-8 8v125z" />
    <glyph glyph-name="at" unicode="@" horiz-adv-x="727" 
d="M396 250q11 0 17 7t6 17v94q-2 23 -23 23h-63q-11 0 -17.5 -7t-6.5 -16v-94q2 -24 24 -24h63zM583 641q42 0 71.5 -27.5t29.5 -73.5v-438q0 -42 -27.5 -72t-73.5 -30h-156l-8 8v110q-2 23 -23 23h-94q-63 0 -89 51q-13 27 -13 51v156q0 42 28 71.5t74 29.5h125
q63 0 89 -51q12 -25 12 -50v-290h24q11 0 17 7t6 17v376q-2 23 -23 23h-375q-11 0 -17.5 -7t-6.5 -17v-375q2 -24 24 -24h187l8 -7v-94l-8 -8h-218q-42 0 -72 28t-30 74v438q0 63 51 89q25 12 51 12h437z" />
    <glyph glyph-name="A" unicode="A" horiz-adv-x="449" 
d="M224 468l-37 -200h74zM294 637l125 -625l-7 -10h-94l-8 7l-28 149h-116l-28 -149l-8 -7h-93l-8 10l125 625l8 6h125z" />
    <glyph glyph-name="B" unicode="B" horiz-adv-x="414" 
d="M154 531v-140h86q16 0 19 10l4 13v96q0 9 -6.5 15t-16.5 6h-86zM263 229q0 9 -6.5 15t-16.5 6h-86v-141h86q11 0 15.5 6t7.5 18v96zM372 102q0 -42 -28 -72t-73 -30h-219l-8 8v625l8 8h219q62 0 89 -51q12 -23 12 -51v-156q0 -46 -36 -62l-1 -1q37 -16 37 -62v-156z" />
    <glyph glyph-name="C" unicode="C" horiz-adv-x="410" 
d="M40 538q0 43 28 72.5t74 29.5h125q61 0 89 -51q13 -25 13 -51v-94l-8 -7h-94l-8 7v64l-1 1q0 21 -22 21h-63q-17 0 -20 -10l-3 -13v-377q0 -9 6.5 -15.5t16.5 -6.5h63q15 0 19 11l4 13v62l8 8h94l8 -8v-93q-3 -43 -29.5 -72.5t-72.5 -29.5h-125q-62 0 -90 52
q-12 23 -12 50v437z" />
    <glyph glyph-name="D" unicode="D" horiz-adv-x="414" 
d="M240 109q16 0 23 24v377q0 9 -6.5 15t-16.5 6h-86v-422h86zM372 102q0 -42 -28 -72t-73 -30h-219l-8 8v625l8 8h219q62 0 89 -51q12 -23 12 -51v-437z" />
    <glyph glyph-name="E" unicode="E" 
d="M154 533v-156h117l8 -8v-94l-8 -7h-117v-157h211l7 -7v-94l-7 -8h-313l-8 8v625l8 8h313l7 -8v-94l-7 -8h-211z" />
    <glyph glyph-name="F" unicode="F" horiz-adv-x="411" 
d="M372 633v-94l-7 -8h-211v-156h117l8 -8v-94l-8 -7h-117v-258l-8 -8h-94l-8 8v625l8 8h313z" />
    <glyph glyph-name="G" unicode="G" horiz-adv-x="411" 
d="M40 539q0 43 28 72.5t74 29.5h125q61 0 89 -51q13 -25 13 -51v-94l-8 -7h-94l-8 7v64l-1 1q0 21 -22 21h-63q-17 0 -20 -10l-3 -13v-377q0 -9 6.5 -15.5t16.5 -6.5h63q15 0 19 11l4 13v86h-23l-8 8v93l8 8h125l8 -8v-218q-3 -43 -29.5 -72.5t-72.5 -29.5h-125
q-62 0 -90 52q-12 23 -12 50v437z" />
    <glyph glyph-name="H" unicode="H" horiz-adv-x="419" 
d="M373 632v-625l-7 -8h-94l-8 8v258h-110v-258l-8 -8h-94l-8 8v625l8 8h94l8 -8v-258h110v258l8 8h94z" />
    <glyph glyph-name="I" unicode="I" horiz-adv-x="200" 
d="M154 634v-625l-8 -8h-94l-8 8v625l8 8h94z" />
    <glyph glyph-name="J" unicode="J" horiz-adv-x="413" 
d="M151 130q0 -9 6 -15.5t17 -6.5h63q16 0 23 24v398h-211l-8 8v94l8 8h313l7 -8v-531q0 -42 -28 -72t-73 -30h-125q-62 0 -90 52q-12 23 -12 50v156l8 8h94l8 -8v-127z" />
    <glyph glyph-name="K" unicode="K" horiz-adv-x="402" 
d="M216 321l154 -309l-6 -11h-94l-6 4l-110 221v-217l-8 -8h-94l-8 8v625l8 8h94l8 -8v-218l110 221l6 5h94l6 -12z" />
    <glyph glyph-name="L" unicode="L" horiz-adv-x="412" 
d="M372 103v-94l-8 -8h-312l-8 8v625l8 8h94l8 -8v-524h210z" />
    <glyph glyph-name="M" unicode="M" horiz-adv-x="482" 
d="M436 634v-625l-8 -8h-94l-8 8v327l-47 -329l-7 -6h-64l-8 6l-46 329v-327l-8 -8h-94l-8 8v625l8 8h142l6 -8l40 -313l39 313l7 8h142z" />
    <glyph glyph-name="N" unicode="N" horiz-adv-x="419" 
d="M373 634v-625l-7 -8h-94l-8 5l-110 329v-326l-8 -8h-94l-8 8v625l8 8h94l8 -6l110 -329v327l8 8h94z" />
    <glyph glyph-name="O" unicode="O" horiz-adv-x="412" 
d="M40 539q0 43 28 72.5t74 29.5h125q61 0 89 -51q13 -25 13 -51v-437q-3 -43 -29.5 -72.5t-72.5 -29.5h-125q-62 0 -90 52q-12 23 -12 50v437zM236 109q10 0 16.5 7.5t6.5 16.5v376l-1 1q0 9 -6 15t-16 6h-63q-17 0 -20 -10l-3 -13v-377q0 -9 6.5 -15.5t16.5 -6.5h63z" />
    <glyph glyph-name="P" unicode="P" horiz-adv-x="412" 
d="M255 641q37 0 64 -16.5t39 -42.5q14 -27 14 -59v-156q1 -15 -5 -36q-10 -34 -39 -57.5t-73 -23.5h-101v-242l-8 -8h-94l-8 8v625l8 8h203zM240 359q10 0 16.5 7.5t6.5 16.5v127q0 8 -6.5 14.5t-16.5 6.5h-86v-172h86z" />
    <glyph glyph-name="Q" unicode="Q" horiz-adv-x="427" 
d="M150 131q0 -9 6.5 -15.5t16.5 -6.5h28l-18 19v11l47 47h11l18 -18v341l-1 1q0 9 -6 15t-16 6h-63q-17 0 -20 -10l-3 -13v-377zM40 539q0 43 28 72.5t74 29.5h125q61 0 89 -51q13 -25 13 -51v-437q-1 -17 -8 -37l36 -36v-10l-47 -47h-11l-35 34q-16 -6 -37 -6h-125
q-62 0 -90 52q-12 23 -12 50v437z" />
    <glyph glyph-name="R" unicode="R" horiz-adv-x="412" 
d="M372 523v-162q0 -34 -22 -65t-55 -40l76 -245l-6 -11h-94l-8 6l-76 244h-33v-242l-8 -8h-94l-8 8v625l8 8h203q37 0 64 -16.5t39 -42.5q14 -27 14 -59zM240 359q10 0 16.5 7.5t6.5 16.5v127q0 8 -6.5 14.5t-16.5 6.5h-86v-172h86z" />
    <glyph glyph-name="S" unicode="S" horiz-adv-x="411" 
d="M142 0q-45 0 -73.5 30.5t-28.5 71.5v62l8 8h94l8 -8v-33q0 -9 6.5 -15.5t16.5 -6.5h63q10 0 16.5 7.5t6.5 16.5v110l-1 1q0 6 -2.5 11t-7.5 8t-12 3h-94q-62 0 -90 51q-12 23 -12 50v172q0 43 28 72.5t74 29.5h125q61 0 89 -51q13 -25 13 -51v-62l-8 -8h-94l-8 8v32l-1 1
q0 9 -6 15t-16 6h-63q-17 0 -20 -10l-3 -13v-112q0 -5 3 -10t8.5 -8t11.5 -3h94q61 0 89 -51q13 -25 13 -51v-171q-1 -14 -6 -32q-10 -34 -37 -54q-24 -16 -59 -16h-125z" />
    <glyph glyph-name="T" unicode="T" horiz-adv-x="401" 
d="M364 633v-94l-8 -8h-102v-523l-8 -8h-93l-8 8v523h-102l-7 8v94l7 8h313z" />
    <glyph glyph-name="U" unicode="U" 
d="M160 0q-49 0 -83.5 32t-34.5 85v516l8 8h94l8 -8v-500q0 -3 0.5 -5.5t1.5 -4.5t1.5 -3.5t2.5 -2.5t3 -2t3.5 -2t3.5 -1.5t4 -1.5t4 -1h64q8 0 15 7t7 17v500l8 8h94l7 -8v-516q0 -71 -59 -102q-29 -15 -58 -15h-94z" />
    <glyph glyph-name="V" unicode="V" horiz-adv-x="451" 
d="M420 632l-125 -625l-7 -6h-125l-8 6l-125 625l8 10h93l8 -7l86 -459l86 459l8 7h94z" />
    <glyph glyph-name="W" unicode="W" horiz-adv-x="582" 
d="M548 633l-62 -625l-8 -7h-140l-8 6l-40 222l-38 -222l-8 -6h-140l-8 7l-62 625l6 9h94l8 -8l42 -383l68 384l8 7h62l7 -7l69 -384l42 383l8 8h92z" />
    <glyph glyph-name="X" unicode="X" horiz-adv-x="452" 
d="M289 321l131 -309l-7 -11h-109l-8 4l-70 167l-71 -167l-7 -4h-110l-7 11l131 309l-131 309l7 12h110l7 -5l71 -167l70 167l8 5h109l7 -12z" />
    <glyph glyph-name="Y" unicode="Y" 
d="M386 631l-124 -343v-279l-8 -8h-93l-8 8v279l-125 343l8 11h93l7 -6l72 -198l70 198l8 6h93z" />
    <glyph glyph-name="Z" unicode="Z" horiz-adv-x="411" 
d="M369 540q-37 -82 -106 -230t-93 -200h192l7 -7v-94l-7 -8h-313l-8 8v96l199 427h-191l-8 8v94l8 8h313l7 -8v-94z" />
    <glyph glyph-name="bracketleft" unicode="[" horiz-adv-x="254" 
d="M154 532v-423h55l8 -7v-94l-8 -8h-156l-8 8v625l8 8h156l8 -8v-93l-8 -8h-55z" />
    <glyph glyph-name="backslash" unicode="\" horiz-adv-x="408" 
d="M383 -16l-6 -11h-94l-8 5l-250 688l8 10h94l6 -5z" />
    <glyph glyph-name="bracketright" unicode="]" horiz-adv-x="254" 
d="M209 633v-625l-8 -8h-156l-8 8v94l8 7h56v423h-56l-8 8v93l8 8h156z" />
    <glyph glyph-name="asciicircum" unicode="^" horiz-adv-x="394" 
d="M361 454l-8 -12h-94l-6 3l-56 85l-56 -85l-6 -3h-94l-6 12l108 187l8 4h94l6 -4z" />
    <glyph glyph-name="underscore" unicode="_" horiz-adv-x="676" 
d="M627 -8v-94l-8 -8h-562l-8 8v94l8 7h562z" />
    <glyph glyph-name="grave" unicode="`" horiz-adv-x="232" 
d="M198 468l-5 -10l-58 -21l-10 4l-92 166l4 11l88 31l10 -4z" />
    <glyph glyph-name="a" unicode="a" horiz-adv-x="449" 
d="M224 466l-37 -200h74zM294 635l125 -625l-7 -10h-94l-8 7l-28 149h-116l-28 -149l-8 -7h-93l-8 10l125 625l8 6h125z" />
    <glyph glyph-name="b" unicode="b" horiz-adv-x="414" 
d="M154 531v-140h86q16 0 19 10l4 13v96q0 9 -6.5 15t-16.5 6h-86zM263 229q0 9 -6.5 15t-16.5 6h-86v-141h86q11 0 15.5 6t7.5 18v96zM372 102q0 -42 -28 -72t-73 -30h-219l-8 8v625l8 8h219q62 0 89 -51q12 -23 12 -51v-156q0 -46 -36 -62l-1 -1q37 -16 37 -62v-156z" />
    <glyph glyph-name="c" unicode="c" horiz-adv-x="410" 
d="M40 539q0 43 28 72.5t74 29.5h125q61 0 89 -51q13 -25 13 -51v-94l-8 -7h-94l-8 7v64l-1 1q0 21 -22 21h-63q-17 0 -20 -10l-3 -13v-377q0 -9 6.5 -15.5t16.5 -6.5h63q15 0 19 11l4 13v62l8 8h94l8 -8v-93q-3 -43 -29.5 -72.5t-72.5 -29.5h-125q-62 0 -90 52
q-12 23 -12 50v437z" />
    <glyph glyph-name="d" unicode="d" horiz-adv-x="414" 
d="M240 109q16 0 23 24v377q0 9 -6.5 15t-16.5 6h-86v-422h86zM372 102q0 -42 -28 -72t-73 -30h-219l-8 8v625l8 8h219q62 0 89 -51q12 -23 12 -51v-437z" />
    <glyph glyph-name="e" unicode="e" 
d="M154 531v-156h117l8 -8v-94l-8 -7h-117v-157h211l7 -7v-94l-7 -8h-313l-8 8v625l8 8h313l7 -8v-94l-7 -8h-211z" />
    <glyph glyph-name="f" unicode="f" horiz-adv-x="411" 
d="M372 633v-94l-7 -8h-211v-156h117l8 -8v-94l-8 -7h-117v-258l-8 -8h-94l-8 8v625l8 8h313z" />
    <glyph glyph-name="g" unicode="g" horiz-adv-x="411" 
d="M40 539q0 43 28 72.5t74 29.5h125q61 0 89 -51q13 -25 13 -51v-94l-8 -7h-94l-8 7v64l-1 1q0 21 -22 21h-63q-17 0 -20 -10l-3 -13v-377q0 -9 6.5 -15.5t16.5 -6.5h63q15 0 19 11l4 13v86h-23l-8 8v93l8 8h125l8 -8v-218q-3 -43 -29.5 -72.5t-72.5 -29.5h-125
q-62 0 -90 52q-12 23 -12 50v437z" />
    <glyph glyph-name="h" unicode="h" horiz-adv-x="419" 
d="M373 634v-625l-7 -8h-94l-8 8v258h-110v-258l-8 -8h-94l-8 8v625l8 8h94l8 -8v-258h110v258l8 8h94z" />
    <glyph glyph-name="i" unicode="i" horiz-adv-x="200" 
d="M154 634v-625l-8 -8h-94l-8 8v625l8 8h94z" />
    <glyph glyph-name="j" unicode="j" horiz-adv-x="413" 
d="M151 131q0 -9 6 -15t17 -6h63q8 0 13 4.5t6.5 8t3.5 11.5v398h-211l-8 8v94l8 8h313l7 -8v-531q0 -43 -27.5 -72.5t-73.5 -29.5h-125q-64 0 -90 51q-12 23 -12 51v156l8 8h94l8 -8v-128z" />
    <glyph glyph-name="k" unicode="k" horiz-adv-x="402" 
d="M216 321l154 -309l-6 -11h-94l-6 4l-110 221v-217l-8 -8h-94l-8 8v625l8 8h94l8 -8v-218l110 221l6 5h94l6 -12z" />
    <glyph glyph-name="l" unicode="l" horiz-adv-x="412" 
d="M372 103v-94l-8 -8h-312l-8 8v625l8 8h94l8 -8v-524h210z" />
    <glyph glyph-name="m" unicode="m" horiz-adv-x="482" 
d="M436 634v-625l-8 -8h-94l-8 8v327l-47 -329l-7 -6h-64l-8 6l-46 329v-327l-8 -8h-94l-8 8v625l8 8h142l6 -8l40 -313l39 313l7 8h142z" />
    <glyph glyph-name="n" unicode="n" horiz-adv-x="419" 
d="M373 634v-625l-7 -8h-94l-8 5l-110 329v-326l-8 -8h-94l-8 8v625l8 8h94l8 -6l110 -329v327l8 8h94z" />
    <glyph glyph-name="o" unicode="o" horiz-adv-x="412" 
d="M40 539q0 43 28 72.5t74 29.5h125q61 0 89 -51q13 -25 13 -51v-437q-3 -43 -29.5 -72.5t-72.5 -29.5h-125q-62 0 -90 52q-12 23 -12 50v437zM236 109q10 0 16.5 7.5t6.5 16.5v376l-1 1q0 9 -6 15t-16 6h-63q-17 0 -20 -10l-3 -13v-377q0 -9 6.5 -15.5t16.5 -6.5h63z" />
    <glyph glyph-name="p" unicode="p" horiz-adv-x="412" 
d="M255 641q37 0 64 -16.5t39 -42.5q14 -27 14 -59v-156q1 -15 -5 -36q-10 -34 -39 -57.5t-73 -23.5h-101v-242l-8 -8h-94l-8 8v625l8 8h203zM240 359q10 0 16.5 7.5t6.5 16.5v127q0 8 -6.5 14.5t-16.5 6.5h-86v-172h86z" />
    <glyph glyph-name="q" unicode="q" horiz-adv-x="427" 
d="M150 131q0 -9 6.5 -15.5t16.5 -6.5h28l-18 19v11l47 47h11l18 -18v341l-1 1q0 9 -6 15t-16 6h-63q-17 0 -20 -10l-3 -13v-377zM40 539q0 43 28 72.5t74 29.5h125q61 0 89 -51q13 -25 13 -51v-437q-1 -17 -8 -37l36 -36v-10l-47 -47h-11l-35 34q-16 -6 -37 -6h-125
q-62 0 -90 52q-12 23 -12 50v437z" />
    <glyph glyph-name="r" unicode="r" horiz-adv-x="412" 
d="M372 523v-162q0 -34 -22 -65t-55 -40l76 -245l-6 -11h-94l-8 6l-76 244h-33v-242l-8 -8h-94l-8 8v625l8 8h203q37 0 64 -16.5t39 -42.5q14 -27 14 -59zM240 359q10 0 16.5 7.5t6.5 16.5v127q0 8 -6.5 14.5t-16.5 6.5h-86v-172h86z" />
    <glyph glyph-name="s" unicode="s" horiz-adv-x="411" 
d="M142 0q-45 0 -73.5 30.5t-28.5 71.5v62l8 8h94l8 -8v-33q0 -9 6.5 -15.5t16.5 -6.5h63q10 0 16.5 7.5t6.5 16.5v110l-1 1q0 6 -2.5 11t-7.5 8t-12 3h-94q-62 0 -90 51q-12 23 -12 50v172q0 43 28 72.5t74 29.5h125q61 0 89 -51q13 -25 13 -51v-62l-8 -8h-94l-8 8v32l-1 1
q0 9 -6 15t-16 6h-63q-17 0 -20 -10l-3 -13v-112q0 -5 3 -10t8.5 -8t11.5 -3h94q61 0 89 -51q13 -25 13 -51v-171q-1 -14 -6 -32q-10 -34 -37 -54q-24 -16 -59 -16h-125z" />
    <glyph glyph-name="t" unicode="t" horiz-adv-x="401" 
d="M364 633v-94l-8 -8h-102v-523l-8 -8h-93l-8 8v523h-102l-7 8v94l7 8h313z" />
    <glyph glyph-name="u" unicode="u" 
d="M160 0q-49 0 -83.5 32t-34.5 85v516l8 8h94l8 -8v-500q0 -3 0.5 -5.5t1.5 -4.5t1.5 -3.5t2.5 -2.5t3 -2t3.5 -2t3.5 -1.5t4 -1.5t4 -1h64q8 0 15 7t7 17v500l8 8h94l7 -8v-516q0 -71 -59 -102q-29 -15 -58 -15h-94z" />
    <glyph glyph-name="v" unicode="v" horiz-adv-x="451" 
d="M420 632l-125 -625l-7 -6h-125l-8 6l-125 625l8 10h93l8 -7l86 -459l86 459l8 7h94z" />
    <glyph glyph-name="w" unicode="w" horiz-adv-x="582" 
d="M548 633l-62 -625l-8 -7h-140l-8 6l-40 222l-38 -222l-8 -6h-140l-8 7l-62 625l6 9h94l8 -8l42 -383l68 384l8 7h62l7 -7l69 -384l42 383l8 8h92z" />
    <glyph glyph-name="x" unicode="x" horiz-adv-x="452" 
d="M289 321l131 -309l-7 -11h-109l-8 4l-70 167l-71 -167l-7 -4h-110l-7 11l131 309l-131 309l7 12h110l7 -5l71 -167l70 167l8 5h109l7 -12z" />
    <glyph glyph-name="y" unicode="y" 
d="M386 631l-124 -343v-279l-8 -8h-93l-8 8v279l-125 343l8 11h93l7 -6l72 -198l70 198l8 6h93z" />
    <glyph glyph-name="z" unicode="z" horiz-adv-x="411" 
d="M369 540q-37 -82 -106 -230t-93 -200h192l7 -7v-94l-7 -8h-313l-8 8v96l199 427h-191l-8 8v94l8 8h313l7 -8v-94z" />
    <glyph glyph-name="braceleft" unicode="{" horiz-adv-x="290" 
d="M213 532q-11 0 -17 -7t-6 -17v-125q0 -43 -36 -61l-1 -1q37 -18 37 -63v-125q2 -24 23 -24h32l8 -7v-94l-8 -8h-63q-42 0 -71.5 28t-29.5 74v156q0 24 -16.5 39.5t-38.5 15.5v16h1q26 4 40 16t14 38v157q0 63 51 89q25 12 50 12h63l8 -8v-93l-8 -8h-32z" />
    <glyph glyph-name="bar" unicode="|" horiz-adv-x="199" 
d="M154 667v-688l-7 -8h-94l-8 8v688l8 7h94z" />
    <glyph glyph-name="braceright" unicode="}" horiz-adv-x="289" 
d="M100 258q0 44 37 63q-37 18 -37 62v126q-2 23 -24 23h-31l-8 8v93l8 8h62q42 0 72 -27.5t30 -73.5v-157q0 -24 16 -39t38 -15h1v-16h-2q-53 -9 -53 -55v-156q0 -63 -51 -89q-27 -13 -51 -13h-62l-8 8v94l8 7h31q11 0 17.5 7t6.5 17v125z" />
    <glyph glyph-name="asciitilde" unicode="~" horiz-adv-x="528" 
d="M185 424h2q46 0 82 -31q11 -10 27 -28t21 -22q15 -13 26 -13q18 0 28 11.5t10 27.5v1l8 7h94l8 -7q0 -36 -17.5 -71t-46.5 -55q-35 -23 -84 -23q-46 0 -84 32q-11 10 -27 27.5t-21 21.5q-15 13 -26 13q-18 0 -28 -11.5t-10 -27.5l-8 -8h-94l-8 8q0 35 17.5 70t46.5 55
q34 23 84 23z" />
    <glyph glyph-name="exclamdown" unicode="&#xa1;" horiz-adv-x="189" 
d="M42 550l-2 5v63l2 5l16 16l4 2h64l4 -2l16 -16l3 -5v-63l-3 -5l-16 -16l-4 -2h-64l-4 2zM134 477l15 -468l-7 -9h-94l-8 9l16 468l6 8h64z" />
    <glyph glyph-name="cent" unicode="&#xa2;" horiz-adv-x="407" 
d="M150 213q2 -23 24 -23h8v266h-8q-11 0 -17.5 -7t-6.5 -17v-219zM41 464q0 42 28 71.5t74 29.5h39v24l7 7h32l8 -7v-24h39q63 0 89 -51q12 -25 12 -50v-94l-8 -8h-93l-8 8v63q-2 23 -24 23h-7v-266h7q11 0 17.5 7t6.5 17v62l8 8h93l8 -8v-94q0 -42 -27.5 -71.5
t-73.5 -29.5h-39v-24l-8 -7h-32l-7 7v24h-39q-63 0 -89 51q-13 27 -13 50v282z" />
    <glyph glyph-name="sterling" unicode="&#xa3;" horiz-adv-x="436" 
d="M69 540q0 42 28 71.5t74 29.5h125q63 0 89 -51q12 -25 12 -50v-94l-7 -8h-94l-8 8v63q-2 23 -23 23h-63q-11 0 -17.5 -7t-6.5 -17v-180h118l8 -7v-94l-8 -8h-118v-109h212l7 -8v-94l-7 -7h-344l-8 7v94l8 8h23v109h-23l-8 8v94l8 7h23v212z" />
    <glyph glyph-name="currency" unicode="&#xa4;" horiz-adv-x="483" 
d="M211 378q-11 0 -17 -7t-6 -17v-63q2 -23 23 -23h63q11 0 17 7t6 17v63q-2 23 -23 23h-63zM451 469v-11l-48 -48l3 -24v-126q0 -10 -3 -24l48 -48v-11l-62 -63h-11l-47 48q-12 -3 -26 -3h-125q-13 0 -25 3l-48 -48h-11l-62 63v11l48 48l-3 24v126q0 10 3 24l-48 48v11
l62 63h11l48 -48q12 3 25 3h125q14 0 26 -3l47 48h11z" />
    <glyph glyph-name="yen" unicode="&#xa5;" horiz-adv-x="419" 
d="M366 328l8 -7v-94l-8 -8h-101v-47h101l8 -7v-94l-8 -8h-101v-55l-9 -7h-94l-6 7v55h-102l-8 8v94l8 7h102v47h-102l-8 8v94l8 7h86l-110 303l8 10h94l6 -5l72 -198l70 198l8 5h94l6 -10l-108 -303h86z" />
    <glyph glyph-name="brokenbar" unicode="&#xa6;" horiz-adv-x="199" 
d="M154 667v-313l-7 -8h-94l-8 8v313l8 7h94zM154 276v-297l-7 -8h-94l-8 8v297l8 8h94z" />
    <glyph glyph-name="section" unicode="&#xa7;" horiz-adv-x="414" 
d="M176 377q-11 0 -17.5 -7t-6.5 -16v-63q2 -23 24 -23h62q11 0 17.5 7t6.5 17v62q-2 23 -24 23h-62zM43 635q0 42 28 71.5t74 29.5h125q63 0 89 -50q12 -25 12 -51v-62l-8 -8h-93l-8 8v31q-2 23 -24 23h-62q-11 0 -17.5 -7t-6.5 -16v-94q2 -24 24 -24h94q63 0 89 -50
q12 -25 12 -51v-125q0 -14 -5 -32l-6 -15q11 -24 11 -47v-156q0 -42 -27.5 -71.5t-73.5 -29.5h-125q-63 0 -89 51q-13 27 -13 50v63l8 8h94l7 -8v-32q2 -23 24 -23h62q11 0 17.5 7t6.5 17v94q-2 23 -24 23h-93q-63 0 -89 51q-13 27 -13 50v125q0 14 5 32l6 15q-11 24 -11 47
v156z" />
    <glyph glyph-name="copyright" unicode="&#xa9;" horiz-adv-x="329" 
d="M185 609q19 0 29.5 -12t10.5 -28v-38l-3 -3h-38l-3 3v26q-2 9 -9 9h-13q-9 0 -9 -9v-76q2 -9 9 -9h13q9 0 9 9v25l3 3h38l3 -3v-37q0 -16 -11 -28.5t-30 -12.5h-37q-19 0 -30 12.5t-11 28.5v100q0 16 10.5 28t29.5 12h39zM166 408q46 0 78 32.5t32 78.5t-32 78.5
t-78 32.5t-78.5 -32.5t-32.5 -78.5t32.5 -78.5t78.5 -32.5zM166 646q52 0 89 -37t37 -90t-37 -90t-89 -37t-89.5 37t-37.5 90t37.5 90t89.5 37z" />
    <glyph glyph-name="registered" unicode="&#xae;" horiz-adv-x="329" 
d="M174 535v35h-17v-35h17zM215 531q0 -26 -19 -33l19 -61l-8 -10h-25l-7 5l-18 59v-56l-8 -8h-25l-8 8v168l8 8h54q16 0 26.5 -11.5t10.5 -26.5v-42zM166 408q46 0 78 32.5t32 78.5t-32 78.5t-78 32.5t-78.5 -32.5t-32.5 -78.5t32.5 -78.5t78.5 -32.5zM166 646q52 0 89 -37
t37 -90t-37 -90t-89 -37t-89.5 37t-37.5 90t37.5 90t89.5 37z" />
    <glyph glyph-name="questiondown" unicode="&#xbf;" horiz-adv-x="398" 
d="M233 110q11 0 17.5 7t6.5 17v31l8 8h94l7 -8v-63q0 -42 -27.5 -71.5t-73.5 -29.5h-124q-64 0 -90 51q-12 25 -12 50v172q0 63 50 89q27 13 52 13q22 0 22 23v94l8 8h94l7 -8v-125q0 -63 -51 -89q-27 -13 -50 -13t-23 -23v-110q2 -23 23 -23h62zM165 566l-2 5v63l2 5
l16 16l6 2h62l6 -2l16 -16l1 -5v-63l-1 -5l-16 -16l-6 -2h-62l-6 2z" />
    <glyph glyph-name="Agrave" unicode="&#xc0;" horiz-adv-x="448" 
d="M310 743v-47l-10 -8l-156 32l-6 7v47l10 8l156 -31zM224 466l-38 -200h76zM294 635l124 -625l-6 -9h-94l-8 6l-28 150h-116l-28 -150l-8 -6h-94l-8 9l126 625l8 6h124z" />
    <glyph glyph-name="Aacute" unicode="&#xc1;" horiz-adv-x="449" 
d="M310 776v-47l-6 -8l-157 -31l-8 8v47l5 7l157 32zM225 468l-39 -200h76zM294 637l125 -625l-7 -10h-94l-8 7l-28 150h-116l-28 -150l-7 -7h-94l-8 10l125 625l8 6h125z" />
    <glyph glyph-name="Acircumflex" unicode="&#xc2;" horiz-adv-x="448" 
d="M308 722l-32 -31l-10 -2l-42 29l-42 -29l-10 2l-32 31v12l64 46l4 2h32q13 -8 35 -24.5t31 -23.5zM224 466l-38 -200h76zM294 635l124 -625l-6 -9h-94l-8 6l-28 150h-116l-28 -150l-8 -6h-94l-8 9l126 625l8 6h124z" />
    <glyph glyph-name="Atilde" unicode="&#xc3;" horiz-adv-x="449" 
d="M260 748q14 0 14 14l8 8h43l8 -8q0 -31 -20 -52t-53 -21q-12 0 -22.5 4.5t-15.5 9t-14 14t-11 11.5q-5 4 -9 4q-14 0 -14 -13l-7 -8h-44l-8 8q0 30 20 51t53 21q15 0 25.5 -5t24.5 -19l13 -14q7 -5 9 -5zM224 467l-37 -200h75zM294 636l125 -625l-7 -9h-94l-8 6l-28 150
h-116l-28 -150l-8 -6h-93l-8 9l125 625l8 6h125z" />
    <glyph glyph-name="Adieresis" unicode="&#xc4;" horiz-adv-x="447" 
d="M325 742v-31l-3 -6l-15 -15l-6 -3h-31l-5 3l-16 15l-2 6v31l2 5l16 16l5 2h31l6 -2l15 -16zM197 747l3 -5v-31l-3 -6l-15 -15l-6 -3h-31l-5 3l-16 15l-2 6v31l2 5l16 16l5 2h31l6 -2zM223 465l-37 -200h75zM293 634l125 -625l-7 -9h-94l-8 6l-28 150h-116l-28 -150l-8 -6
h-93l-8 9l125 625l8 6h125z" />
    <glyph glyph-name="Aring" unicode="&#xc5;" horiz-adv-x="449" 
d="M224 467l-37 -200h75zM294 636l125 -625l-7 -9h-94l-8 6l-28 150h-116l-28 -150l-8 -6h-93l-8 9l125 625l8 6h125zM224 783q-16 0 -27.5 -11.5t-11.5 -27.5t11.5 -27t27.5 -11t27 11t11 27t-11 27.5t-27 11.5zM224 659q-35 0 -60.5 25t-25.5 60t25.5 60.5t60.5 25.5
t60 -25.5t25 -60.5t-25 -60t-60 -25z" />
    <glyph glyph-name="AE" unicode="&#xc6;" horiz-adv-x="680" 
d="M309 465l-69 -183h69v183zM629 532h-211v-157h117l8 -7v-94l-8 -8h-117v-156h211l8 -8v-94l-8 -7h-312l-8 7v165h-110l-63 -167l-7 -5h-94l-7 10l219 625l7 5h375l8 -7v-94z" />
    <glyph glyph-name="Ccedilla" unicode="&#xc7;" horiz-adv-x="409" 
d="M40 539q0 42 28 71.5t74 29.5h125q63 0 89 -50q12 -25 12 -51v-94l-8 -7h-93l-8 8v62q-2 23 -24 23h-62q-11 0 -17.5 -7t-6.5 -16v-375q2 -24 24 -24h62q11 0 17.5 7t6.5 17v63l8 7h93l8 -7v-94q0 -42 -27.5 -72t-73.5 -30h-47v-4q13 0 22 -8.5t9 -22.5v-43
q0 -13 -8.5 -22t-22.5 -9h-32q-14 0 -22.5 9t-8.5 22v16l8 8h23l8 -8v-8h16v27q-13 0 -22 8.5t-9 22.5v12h-39q-63 0 -89 51q-13 27 -13 51v437z" />
    <glyph glyph-name="Egrave" unicode="&#xc8;" 
d="M153 532v-157h118l7 -7v-94l-7 -8h-118v-156h211l8 -8v-94l-8 -7h-312l-8 7v626l8 7h312l8 -7v-94l-8 -8h-211zM128 720l-6 7v47l10 8l156 -31l6 -8v-47l-9 -8z" />
    <glyph glyph-name="Eacute" unicode="&#xc9;" 
d="M132 688l-10 8v47l6 8l157 31l9 -8v-47l-6 -7zM153 532v-157h118l7 -7v-94l-7 -8h-118v-156h211l8 -8v-94l-8 -7h-312l-8 7v626l8 7h312l8 -7v-94l-8 -8h-211z" />
    <glyph glyph-name="Ecircumflex" unicode="&#xca;" 
d="M153 532v-157h118l7 -7v-94l-7 -8h-118v-156h211l8 -8v-94l-8 -7h-312l-8 7v626l8 7h312l8 -7v-94l-8 -8h-211zM156 691l-32 31l1 12l63 46l4 2h32q13 -8 35.5 -25t31.5 -23l1 -12l-32 -31l-9 -2l-43 29l-42 -29z" />
    <glyph glyph-name="Edieresis" unicode="&#xcb;" 
d="M109 705l-3 6v31l3 5l15 16l6 2h31l6 -2l15 -16l2 -5v-31l-2 -6l-15 -15l-6 -3h-31l-6 3zM153 531v-157h118l7 -7v-94l-7 -8h-118v-156h211l8 -8v-93l-8 -8h-312l-8 8v624l8 8h312l8 -8v-93l-8 -8h-211zM234 705l-2 6v31l2 5l15 16l6 2h31l6 -2l15 -16l3 -5v-31l-3 -6
l-15 -15l-6 -3h-31l-6 3z" />
    <glyph glyph-name="Igrave" unicode="&#xcc;" horiz-adv-x="225" 
d="M198 743v-47l-9 -8l-157 32l-6 7v47l9 8l157 -31zM159 641l7 -7v-626l-7 -7h-94l-8 7v626l8 7h94z" />
    <glyph glyph-name="Iacute" unicode="&#xcd;" horiz-adv-x="225" 
d="M198 774v-47l-6 -7l-157 -32l-9 8v47l6 8l157 31zM159 641l7 -7v-626l-7 -7h-94l-8 7v626l8 7h94z" />
    <glyph glyph-name="Icircumflex" unicode="&#xce;" horiz-adv-x="222" 
d="M156 641l9 -7v-626l-9 -7h-92l-8 7v626l8 7h92zM58 691l-32 31l2 12l62 46l4 2h32l4 -2l62 -46l2 -12l-32 -31l-10 -2l-42 29l-42 -29z" />
    <glyph glyph-name="Idieresis" unicode="&#xcf;" horiz-adv-x="256" 
d="M229 742v-31l-2 -6l-16 -15l-5 -3h-32l-5 3l-16 15l-2 6v31l2 5l16 16l5 2h32l5 -2l16 -16zM174 640l8 -8v-624l-8 -8h-93l-8 8v624l8 8h93zM81 687h-32l-5 3l-16 15l-2 6v31l2 5l16 16l5 2h32l5 -2l16 -16l2 -5v-31l-2 -6l-16 -15z" />
    <glyph glyph-name="Eth" unicode="&#xd0;" horiz-adv-x="465" 
d="M289 110q11 0 17.5 7t6.5 17v375q-2 23 -24 23h-85v-157h55l6 -7v-94l-6 -8h-55v-156h85zM422 102q0 -42 -27.5 -71.5t-73.5 -29.5h-220l-6 7v258h-56l-8 8v94l8 7h56v259l6 7h220q62 0 88 -51q13 -27 13 -50v-438z" />
    <glyph glyph-name="Ntilde" unicode="&#xd1;" horiz-adv-x="417" 
d="M172 732q-14 0 -14 -13l-8 -8h-43l-8 8q0 30 20 51t53 21q15 0 25.5 -5t24.5 -19l13 -14q7 -5 9 -5q14 0 14 14l8 8h43l8 -8q0 -31 -20 -52t-53 -21q-15 0 -25.5 5.5t-23.5 19t-14 14.5q-5 4 -9 4zM372 634v-624l-8 -8h-93l-8 5l-110 329v-326l-7 -8h-94l-8 8v624l8 8h94
l7 -5l110 -329v326l8 8h93z" />
    <glyph glyph-name="Ograve" unicode="&#xd2;" horiz-adv-x="411" 
d="M235 110q11 0 17.5 7t6.5 17v375q-2 23 -24 23h-62q-11 0 -17.5 -7t-6.5 -17v-375q2 -23 24 -23h62zM40 540q0 42 28 71.5t74 29.5h125q63 0 89 -51q12 -25 12 -50v-438q0 -42 -27.5 -71.5t-73.5 -29.5h-125q-64 0 -90 51q-12 25 -12 50v438zM124 720l-6 7v47l10 8
l156 -31l6 -8v-47l-9 -8z" />
    <glyph glyph-name="Oacute" unicode="&#xd3;" horiz-adv-x="411" 
d="M128 688l-10 8v47l6 8l157 31l9 -8v-47l-6 -7zM235 110q11 0 17.5 7t6.5 17v375q-2 23 -24 23h-62q-11 0 -17.5 -7t-6.5 -17v-375q2 -23 24 -23h62zM40 540q0 42 28 71.5t74 29.5h125q63 0 89 -51q12 -25 12 -50v-438q0 -42 -27.5 -71.5t-73.5 -29.5h-125q-64 0 -90 51
q-12 25 -12 50v438z" />
    <glyph glyph-name="Ocircumflex" unicode="&#xd4;" horiz-adv-x="411" 
d="M152 691l-32 31l1 12l63 46l4 2h32q13 -8 35.5 -25t31.5 -23l1 -12l-32 -31l-9 -2l-43 29l-42 -29zM235 110q11 0 17.5 7t6.5 17v375q-2 23 -24 23h-62q-11 0 -17.5 -7t-6.5 -17v-375q2 -23 24 -23h62zM40 540q0 42 28 71.5t74 29.5h125q63 0 89 -51q12 -25 12 -50v-438
q0 -42 -27.5 -71.5t-73.5 -29.5h-125q-64 0 -90 51q-12 25 -12 50v438z" />
    <glyph glyph-name="Otilde" unicode="&#xd5;" horiz-adv-x="411" 
d="M168 731q-14 0 -14 -13l-8 -8h-43l-8 8q0 30 20 51t53 21q15 0 25.5 -5t24.5 -19l13 -14q7 -5 9 -5q14 0 14 14l8 8h43l8 -8q0 -31 -20 -52t-53 -21q-12 0 -22.5 4.5t-15.5 9t-14 14t-11 11.5q-5 4 -9 4zM235 110q11 0 17.5 7t6.5 17v375q-2 23 -24 23h-62
q-11 0 -17.5 -7t-6.5 -17v-375q2 -23 24 -23h62zM40 540q0 42 28 71.5t74 29.5h125q63 0 89 -51q12 -25 12 -50v-438q0 -42 -27.5 -71.5t-73.5 -29.5h-125q-64 0 -90 51q-12 25 -12 50v438z" />
    <glyph glyph-name="Odieresis" unicode="&#xd6;" horiz-adv-x="411" 
d="M235 109q11 0 17.5 7t6.5 16v376q-2 23 -24 23h-62q-11 0 -17.5 -7t-6.5 -16v-376q2 -23 24 -23h62zM40 539q0 42 28 71.5t74 29.5h125q63 0 89 -51q12 -25 12 -50v-438q0 -42 -27.5 -71.5t-73.5 -29.5h-125q-64 0 -90 51q-12 25 -12 50v438zM230 705l-2 6v31l2 5l15 16
l6 2h31l6 -2l15 -16l3 -5v-31l-3 -6l-15 -15l-6 -3h-31l-6 3zM105 705l-3 6v31l3 5l15 16l6 2h31l6 -2l15 -16l2 -5v-31l-2 -6l-15 -15l-6 -3h-31l-6 3z" />
    <glyph glyph-name="multiply" unicode="&#xd7;" horiz-adv-x="367" 
d="M330 394l-71 -72l71 -72v-11l-66 -66h-11l-72 72l-72 -72h-11l-66 66v11l72 72l-72 72v11l66 66h11l72 -72l72 72h11l66 -66v-11z" />
    <glyph glyph-name="Oslash" unicode="&#xd8;" horiz-adv-x="448" 
d="M255 109q23 0 23 23v204l-104 -219q6 -8 18 -8h63zM192 531q-11 0 -17.5 -7t-6.5 -16v-204l105 219q-6 8 -18 8h-63zM59 539q0 42 28 71.5t74 29.5h125q24 0 40 -6l15 33l11 4l62 -31l4 -11l-33 -69l2 -21v-438q0 -42 -27.5 -71.5t-73.5 -29.5h-125q-23 0 -40 6l-15 -33
l-11 -4l-62 31l-4 11l33 69l-3 21v438z" />
    <glyph glyph-name="Ugrave" unicode="&#xd9;" horiz-adv-x="413" 
d="M237 110q23 2 23 24v500l8 7h93l8 -7v-516q0 -75 -59 -103q-28 -14 -57 -14h-95q-49 0 -83 31.5t-34 85.5v516l8 7h94l7 -7v-500q0 -11 7 -17.5t17 -6.5h63zM125 717l-6 8v46l10 8l156 -31l6 -8v-47l-9 -7z" />
    <glyph glyph-name="Uacute" unicode="&#xda;" horiz-adv-x="413" 
d="M237 110q23 2 23 24v500l8 7h93l8 -7v-516q0 -75 -59 -103q-28 -14 -57 -14h-95q-49 0 -83 31.5t-34 85.5v516l8 7h94l7 -7v-500q0 -11 7 -17.5t17 -6.5h63zM129 686l-10 7v47l6 8l157 31l9 -8v-46l-6 -8z" />
    <glyph glyph-name="Ucircumflex" unicode="&#xdb;" horiz-adv-x="413" 
d="M153 691l-32 31l1 12l63 46l4 2h32q13 -8 35.5 -25t31.5 -23l1 -12l-32 -31l-9 -2l-43 29l-42 -29zM237 110q23 2 23 24v500l8 7h93l8 -7v-516q0 -75 -59 -103q-28 -14 -57 -14h-95q-49 0 -83 31.5t-34 85.5v516l8 7h94l7 -7v-500q0 -11 7 -17.5t17 -6.5h63z" />
    <glyph glyph-name="Udieresis" unicode="&#xdc;" horiz-adv-x="413" 
d="M237 110q23 2 23 24v500l8 7h93l8 -7v-516q0 -75 -59 -103q-28 -14 -57 -14h-95q-49 0 -83 31.5t-34 85.5v516l8 7h94l7 -7v-500q0 -11 7 -17.5t17 -6.5h63zM231 704l-2 5v31l2 6l15 15l6 3h31l6 -3l15 -15l3 -6v-31l-3 -5l-15 -16l-6 -2h-31l-6 2zM106 704l-3 5v31l3 6
l15 15l6 3h31l6 -3l15 -15l2 -6v-31l-2 -5l-15 -16l-6 -2h-31l-6 2z" />
    <glyph glyph-name="Yacute" unicode="&#xdd;" 
d="M131 688l-10 8v47l7 8l156 31l9 -8v-47l-6 -7zM386 631l-124 -343v-280l-8 -7h-94l-7 7v280l-125 343l7 10h94l7 -5l71 -198l71 198l7 5h94z" />
    <glyph glyph-name="germandbls" unicode="&#xdf;" 
d="M264 509q-2 23 -24 23h-87v-524l-7 -7h-94l-8 7v626l8 7h220q62 0 88 -51q13 -27 13 -50v-156q0 -44 -37 -62v-1q37 -18 37 -63v-156q0 -42 -27.5 -71.5t-73.5 -29.5h-94l-8 7v94l8 8h62q11 0 17.5 7t6.5 17v109q0 11 -7 17t-17 6h-62l-8 8v94l8 7h62q24 2 24 24v110z
" />
    <glyph glyph-name="agrave" unicode="&#xe0;" horiz-adv-x="447" 
d="M309 742v-47l-9 -8l-157 32l-6 7v47l10 8l156 -31zM223 465l-37 -200h75zM293 634l125 -625l-7 -9h-94l-8 6l-28 150h-116l-28 -150l-8 -6h-93l-8 9l125 625l8 6h125z" />
    <glyph glyph-name="aacute" unicode="&#xe1;" horiz-adv-x="448" 
d="M310 774v-47l-6 -7l-156 -32l-10 8v47l6 8l156 31zM224 466l-38 -200h76zM294 635l124 -625l-6 -9h-94l-8 6l-28 150h-116l-28 -150l-8 -6h-94l-8 9l126 625l8 6h124z" />
    <glyph glyph-name="acircumflex" unicode="&#xe2;" horiz-adv-x="448" 
d="M308 722l-32 -31l-10 -2l-42 29l-42 -29l-10 2l-32 31v12l64 46l4 2h32q13 -8 35 -24.5t31 -23.5zM224 466l-38 -200h76zM294 635l124 -625l-6 -9h-94l-8 6l-28 150h-116l-28 -150l-8 -6h-94l-8 9l126 625l8 6h124z" />
    <glyph glyph-name="atilde" unicode="&#xe3;" horiz-adv-x="449" 
d="M260 748q14 0 14 14l8 8h43l8 -8q0 -31 -20 -52t-53 -21q-12 0 -22.5 4.5t-15.5 9t-14 14t-11 11.5q-5 4 -9 4q-14 0 -14 -13l-7 -8h-44l-8 8q0 30 20 51t53 21q15 0 25.5 -5t24.5 -19l13 -14q7 -5 9 -5zM224 467l-37 -200h75zM294 636l125 -625l-7 -9h-94l-8 6l-28 150
h-116l-28 -150l-8 -6h-93l-8 9l125 625l8 6h125z" />
    <glyph glyph-name="adieresis" unicode="&#xe4;" horiz-adv-x="447" 
d="M325 742v-31l-3 -6l-15 -15l-6 -3h-31l-5 3l-16 15l-2 6v31l2 5l16 16l5 2h31l6 -2l15 -16zM197 747l3 -5v-31l-3 -6l-15 -15l-6 -3h-31l-5 3l-16 15l-2 6v31l2 5l16 16l5 2h31l6 -2zM223 465l-37 -200h75zM293 634l125 -625l-7 -9h-94l-8 6l-28 150h-116l-28 -150l-8 -6
h-93l-8 9l125 625l8 6h125z" />
    <glyph glyph-name="aring" unicode="&#xe5;" horiz-adv-x="449" 
d="M224 467l-37 -200h75zM294 636l125 -625l-7 -9h-94l-8 6l-28 150h-116l-28 -150l-8 -6h-93l-8 9l125 625l8 6h125zM224 783q-16 0 -27.5 -11.5t-11.5 -27.5t11.5 -27t27.5 -11t27 11t11 27t-11 27.5t-27 11.5zM224 659q-35 0 -60.5 25t-25.5 60t25.5 60.5t60.5 25.5
t60 -25.5t25 -60.5t-25 -60t-60 -25z" />
    <glyph glyph-name="ae" unicode="&#xe6;" horiz-adv-x="680" 
d="M309 465l-69 -183h69v183zM629 532h-211v-157h117l8 -7v-94l-8 -8h-117v-156h211l8 -8v-94l-8 -7h-312l-8 7v165h-110l-63 -167l-7 -5h-94l-7 10l219 625l7 5h375l8 -7v-94z" />
    <glyph glyph-name="ccedilla" unicode="&#xe7;" horiz-adv-x="409" 
d="M40 540q0 42 28 71.5t74 29.5h125q63 0 89 -50q12 -25 12 -51v-94l-8 -7h-93l-8 7v63q-2 23 -24 23h-62q-11 0 -17.5 -7t-6.5 -16v-375q2 -24 24 -24h62q11 0 17.5 7t6.5 17v63l8 7h93l8 -7v-94q0 -42 -27.5 -72t-73.5 -30h-47v-4q13 0 22 -8.5t9 -22.5v-43
q0 -13 -8.5 -22t-22.5 -9h-32q-14 0 -22.5 9t-8.5 22v16l8 7h23l8 -7v-8h16v27q-13 0 -22 8.5t-9 22.5v12h-39q-63 0 -89 51q-13 27 -13 51v437z" />
    <glyph glyph-name="egrave" unicode="&#xe8;" 
d="M153 532v-157h118l7 -7v-94l-7 -8h-118v-156h211l8 -8v-94l-8 -7h-312l-8 7v626l8 7h312l8 -7v-94l-8 -8h-211zM128 720l-6 7v47l10 8l156 -31l6 -8v-47l-9 -8z" />
    <glyph glyph-name="eacute" unicode="&#xe9;" 
d="M132 688l-10 8v47l6 8l157 31l9 -8v-47l-6 -7zM153 532v-157h118l7 -7v-94l-7 -8h-118v-156h211l8 -8v-94l-8 -7h-312l-8 7v626l8 7h312l8 -7v-94l-8 -8h-211z" />
    <glyph glyph-name="ecircumflex" unicode="&#xea;" 
d="M153 532v-157h118l7 -7v-94l-7 -8h-118v-156h211l8 -8v-94l-8 -7h-312l-8 7v626l8 7h312l8 -7v-94l-8 -8h-211zM156 691l-32 31l1 12l63 46l4 2h32q13 -8 35.5 -25t31.5 -23l1 -12l-32 -31l-9 -2l-43 29l-42 -29z" />
    <glyph glyph-name="edieresis" unicode="&#xeb;" 
d="M109 705l-3 6v31l3 5l15 16l6 2h31l6 -2l15 -16l2 -5v-31l-2 -6l-15 -15l-6 -3h-31l-6 3zM153 531v-157h118l7 -7v-94l-7 -8h-118v-156h211l8 -8v-93l-8 -8h-312l-8 8v624l8 8h312l8 -8v-93l-8 -8h-211zM234 705l-2 6v31l2 5l15 16l6 2h31l6 -2l15 -16l3 -5v-31l-3 -6
l-15 -15l-6 -3h-31l-6 3z" />
    <glyph glyph-name="igrave" unicode="&#xec;" horiz-adv-x="225" 
d="M198 743v-47l-9 -8l-157 32l-6 7v47l9 8l157 -31zM159 641l7 -7v-626l-7 -7h-94l-8 7v626l8 7h94z" />
    <glyph glyph-name="iacute" unicode="&#xed;" horiz-adv-x="225" 
d="M198 774v-47l-6 -7l-157 -32l-9 8v47l6 8l157 31zM159 641l7 -7v-626l-7 -7h-94l-8 7v626l8 7h94z" />
    <glyph glyph-name="icircumflex" unicode="&#xee;" horiz-adv-x="222" 
d="M156 641l9 -7v-626l-9 -7h-92l-8 7v626l8 7h92zM58 691l-32 31l2 12l62 46l4 2h32l4 -2l62 -46l2 -12l-32 -31l-10 -2l-42 29l-42 -29z" />
    <glyph glyph-name="idieresis" unicode="&#xef;" horiz-adv-x="256" 
d="M229 743v-31l-2 -6l-16 -15l-5 -3h-32l-5 3l-16 15l-2 6v31l2 5l16 16l5 2h32l5 -2l16 -16zM174 641l8 -7v-626l-8 -7h-93l-8 7v626l8 7h93zM81 688h-32l-5 3l-16 15l-2 6v31l2 5l16 16l5 2h32l5 -2l16 -16l2 -5v-31l-2 -6l-16 -15z" />
    <glyph glyph-name="ntilde" unicode="&#xf1;" horiz-adv-x="417" 
d="M172 732q-14 0 -14 -13l-8 -8h-43l-8 8q0 30 20 51t53 21q15 0 25.5 -5t24.5 -19l13 -14q7 -5 9 -5q14 0 14 14l8 8h43l8 -8q0 -31 -20 -52t-53 -21q-15 0 -25.5 5.5t-23.5 19t-14 14.5q-5 4 -9 4zM372 634v-624l-8 -8h-93l-8 5l-110 329v-326l-7 -8h-94l-8 8v624l8 8h94
l7 -5l110 -329v326l8 8h93z" />
    <glyph glyph-name="ograve" unicode="&#xf2;" horiz-adv-x="411" 
d="M235 110q11 0 17.5 7t6.5 17v375q-2 23 -24 23h-62q-11 0 -17.5 -7t-6.5 -17v-375q2 -23 24 -23h62zM40 540q0 42 28 71.5t74 29.5h125q63 0 89 -51q12 -25 12 -50v-438q0 -42 -27.5 -71.5t-73.5 -29.5h-125q-64 0 -90 51q-12 25 -12 50v438zM124 720l-6 7v47l10 8
l156 -31l6 -8v-47l-9 -8z" />
    <glyph glyph-name="oacute" unicode="&#xf3;" horiz-adv-x="411" 
d="M128 688l-10 8v47l6 8l157 31l9 -8v-47l-6 -7zM235 110q11 0 17.5 7t6.5 17v375q-2 23 -24 23h-62q-11 0 -17.5 -7t-6.5 -17v-375q2 -23 24 -23h62zM40 540q0 42 28 71.5t74 29.5h125q63 0 89 -51q12 -25 12 -50v-438q0 -42 -27.5 -71.5t-73.5 -29.5h-125q-64 0 -90 51
q-12 25 -12 50v438z" />
    <glyph glyph-name="ocircumflex" unicode="&#xf4;" horiz-adv-x="411" 
d="M152 691l-32 31l1 12l63 46l4 2h32q13 -8 35.5 -25t31.5 -23l1 -12l-32 -31l-9 -2l-43 29l-42 -29zM235 110q11 0 17.5 7t6.5 17v375q-2 23 -24 23h-62q-11 0 -17.5 -7t-6.5 -17v-375q2 -23 24 -23h62zM40 540q0 42 28 71.5t74 29.5h125q63 0 89 -51q12 -25 12 -50v-438
q0 -42 -27.5 -71.5t-73.5 -29.5h-125q-64 0 -90 51q-12 25 -12 50v438z" />
    <glyph glyph-name="otilde" unicode="&#xf5;" horiz-adv-x="411" 
d="M168 731q-14 0 -14 -13l-8 -8h-43l-8 8q0 30 20 51t53 21q15 0 25.5 -5t24.5 -19l13 -14q7 -5 9 -5q14 0 14 14l8 8h43l8 -8q0 -31 -20 -52t-53 -21q-12 0 -22.5 4.5t-15.5 9t-14 14t-11 11.5q-5 4 -9 4zM235 110q11 0 17.5 7t6.5 17v375q-2 23 -24 23h-62
q-11 0 -17.5 -7t-6.5 -17v-375q2 -23 24 -23h62zM40 540q0 42 28 71.5t74 29.5h125q63 0 89 -51q12 -25 12 -50v-438q0 -42 -27.5 -71.5t-73.5 -29.5h-125q-64 0 -90 51q-12 25 -12 50v438z" />
    <glyph glyph-name="odieresis" unicode="&#xf6;" horiz-adv-x="411" 
d="M235 109q11 0 17.5 7t6.5 16v376q-2 23 -24 23h-62q-11 0 -17.5 -7t-6.5 -16v-376q2 -23 24 -23h62zM40 539q0 42 28 71.5t74 29.5h125q63 0 89 -51q12 -25 12 -50v-438q0 -42 -27.5 -71.5t-73.5 -29.5h-125q-64 0 -90 51q-12 25 -12 50v438zM230 705l-2 6v31l2 5l15 16
l6 2h31l6 -2l15 -16l3 -5v-31l-3 -6l-15 -15l-6 -3h-31l-6 3zM105 705l-3 6v31l3 5l15 16l6 2h31l6 -2l15 -16l2 -5v-31l-2 -6l-15 -15l-6 -3h-31l-6 3z" />
    <glyph glyph-name="divide" unicode="&#xf7;" horiz-adv-x="401" 
d="M362 370v-94l-8 -8h-312l-8 8v94l8 7h312zM146 411l-3 6v62l3 6l15 15l6 2h62l6 -2l15 -15l2 -6v-62l-2 -6l-15 -15l-6 -3h-62l-6 3zM250 235l2 -6v-62l-2 -6l-15 -15l-6 -3h-62l-6 3l-15 15l-3 6v62l3 6l15 15l6 2h62l6 -2z" />
    <glyph glyph-name="oslash" unicode="&#xf8;" horiz-adv-x="448" 
d="M255 109q23 0 23 23v204l-104 -219q6 -8 18 -8h63zM192 531q-11 0 -17.5 -7t-6.5 -16v-204l105 219q-6 8 -18 8h-63zM59 539q0 42 28 71.5t74 29.5h125q24 0 40 -6l15 33l11 4l62 -31l4 -11l-33 -69l2 -21v-438q0 -42 -27.5 -71.5t-73.5 -29.5h-125q-23 0 -40 6l-15 -33
l-11 -4l-62 31l-4 11l33 69l-3 21v438z" />
    <glyph glyph-name="ugrave" unicode="&#xf9;" horiz-adv-x="413" 
d="M237 110q23 2 23 24v500l8 7h93l8 -7v-516q0 -75 -59 -103q-28 -14 -57 -14h-95q-49 0 -83 31.5t-34 85.5v516l8 7h94l7 -7v-500q0 -11 7 -17.5t17 -6.5h63zM125 717l-6 8v46l10 8l156 -31l6 -8v-47l-9 -7z" />
    <glyph glyph-name="uacute" unicode="&#xfa;" horiz-adv-x="413" 
d="M237 110q23 2 23 24v500l8 7h93l8 -7v-516q0 -75 -59 -103q-28 -14 -57 -14h-95q-49 0 -83 31.5t-34 85.5v516l8 7h94l7 -7v-500q0 -11 7 -17.5t17 -6.5h63zM129 686l-10 7v47l6 8l157 31l9 -8v-46l-6 -8z" />
    <glyph glyph-name="ucircumflex" unicode="&#xfb;" horiz-adv-x="413" 
d="M153 691l-32 31l1 12l63 46l4 2h32q13 -8 35.5 -25t31.5 -23l1 -12l-32 -31l-9 -2l-43 29l-42 -29zM237 110q23 2 23 24v500l8 7h93l8 -7v-516q0 -75 -59 -103q-28 -14 -57 -14h-95q-49 0 -83 31.5t-34 85.5v516l8 7h94l7 -7v-500q0 -11 7 -17.5t17 -6.5h63z" />
    <glyph glyph-name="udieresis" unicode="&#xfc;" horiz-adv-x="413" 
d="M237 110q23 2 23 24v500l8 7h93l8 -7v-516q0 -75 -59 -103q-28 -14 -57 -14h-95q-49 0 -83 31.5t-34 85.5v516l8 7h94l7 -7v-500q0 -11 7 -17.5t17 -6.5h63zM231 704l-2 5v31l2 6l15 15l6 3h31l6 -3l15 -15l3 -6v-31l-3 -5l-15 -16l-6 -2h-31l-6 2zM106 704l-3 5v31l3 6
l15 15l6 3h31l6 -3l15 -15l2 -6v-31l-2 -5l-15 -16l-6 -2h-31l-6 2z" />
    <glyph glyph-name="yacute" unicode="&#xfd;" 
d="M131 688l-10 8v47l7 8l156 31l9 -8v-47l-6 -7zM386 631l-124 -343v-280l-8 -7h-94l-7 7v280l-125 343l7 10h94l7 -5l71 -198l71 198l7 5h94z" />
    <glyph glyph-name="ydieresis" unicode="&#xff;" 
d="M233 705l-2 6v31l2 5l16 16l5 2h31l6 -2l15 -16l3 -5v-31l-3 -6l-15 -15l-6 -3h-31l-5 3zM386 630l-124 -343v-279l-8 -8h-94l-7 8v279l-125 343l7 10h94l7 -5l71 -198l71 198l7 5h94zM108 705l-2 6v31l2 5l16 16l5 2h31l6 -2l15 -16l3 -5v-31l-3 -6l-15 -15l-6 -3h-31
l-5 3z" />
    <glyph glyph-name="Aogonek" unicode="&#x104;" horiz-adv-x="449" 
d="M224 467l-37 -200h74zM388 -3h4q11 0 19 -9t8 -22v-43q0 -13 -8.5 -22t-22.5 -9h-31q-14 0 -22.5 9t-8.5 22v15l7 8h24l8 -8v-7h15v27q-12 0 -21.5 9t-9.5 22v12h-31l-8 7l-28 149h-116l-28 -149l-8 -7h-93l-8 10l125 625l8 6h125l7 -6l125 -625l-7 -10h-24v-4z" />
    <glyph glyph-name="aogonek" unicode="&#x105;" horiz-adv-x="449" 
d="M224 467l-37 -200h74zM388 -3h4q11 0 19 -9t8 -22v-43q0 -13 -8.5 -22t-22.5 -9h-31q-14 0 -22.5 9t-8.5 22v15l7 8h24l8 -8v-7h15v27q-12 0 -21.5 9t-9.5 22v12h-31l-8 7l-28 149h-116l-28 -149l-8 -7h-93l-8 10l125 625l8 6h125l7 -6l125 -625l-7 -10h-24v-4z" />
    <glyph glyph-name="Cacute" unicode="&#x106;" horiz-adv-x="409" 
d="M165 694l-31 93l8 11h62l7 -6l32 -94l-8 -10h-62zM40 540q0 42 28 71.5t74 29.5h125q63 0 89 -51q12 -25 12 -50v-94l-8 -8h-93l-8 8v63q-2 23 -24 23h-62q-11 0 -17.5 -7t-6.5 -17v-375q2 -23 24 -23h62q11 0 17.5 7t6.5 17v62l8 8h93l8 -8v-94q0 -42 -27.5 -71.5
t-73.5 -29.5h-125q-64 0 -90 51q-12 25 -12 50v438z" />
    <glyph glyph-name="cacute" unicode="&#x107;" horiz-adv-x="409" 
d="M165 694l-31 93l8 11h62l7 -6l32 -94l-8 -10h-62zM40 540q0 42 28 71.5t74 29.5h125q63 0 89 -51q12 -25 12 -50v-94l-8 -8h-93l-8 8v63q-2 23 -24 23h-62q-11 0 -17.5 -7t-6.5 -17v-375q2 -23 24 -23h62q11 0 17.5 7t6.5 17v62l8 8h93l8 -8v-94q0 -42 -27.5 -71.5
t-73.5 -29.5h-125q-64 0 -90 51q-12 25 -12 50v438z" />
    <glyph glyph-name="Eogonek" unicode="&#x118;" 
d="M333 -42q-13 0 -22 8.5t-9 22.5v12h-250l-8 8v625l8 7h312l8 -7v-94l-8 -8h-211v-156h118l7 -8v-93l-7 -8h-118v-157h211l8 -7v-94l-8 -8h-23v-4q13 0 22 -8.5t9 -22.5v-43q0 -13 -8.5 -22t-22.5 -9h-31q-14 0 -23 9.5t-9 21.5v16l8 7h24l7 -7v-8h16v27z" />
    <glyph glyph-name="eogonek" unicode="&#x119;" 
d="M333 -42q-13 0 -22 8.5t-9 22.5v12h-250l-8 8v625l8 7h312l8 -7v-94l-8 -8h-211v-156h118l7 -8v-93l-7 -8h-118v-157h211l8 -7v-94l-8 -8h-23v-4q13 0 22 -8.5t9 -22.5v-43q0 -13 -8.5 -22t-22.5 -9h-31q-14 0 -23 9.5t-9 21.5v16l8 7h24l7 -7v-8h16v27z" />
    <glyph glyph-name="dotlessi" unicode="&#x131;" horiz-adv-x="103" 
 />
    <glyph glyph-name="Lslash" unicode="&#x141;" horiz-adv-x="462" 
d="M422 102v-94l-8 -7h-312l-8 7v217l-50 -35l-12 6v109l2 7l60 42v280l8 7h94l7 -7v-202l51 36l12 -6v-110l-4 -6l-59 -42v-194h211z" />
    <glyph glyph-name="lslash" unicode="&#x142;" horiz-adv-x="462" 
d="M422 102v-94l-8 -7h-312l-8 7v217l-50 -35l-12 6v109l2 7l60 42v280l8 7h94l7 -7v-202l51 36l12 -6v-110l-4 -6l-59 -42v-194h211z" />
    <glyph glyph-name="Nacute" unicode="&#x143;" horiz-adv-x="417" 
d="M169 694l-31 93l8 11h62l7 -6l32 -94l-8 -10h-62zM372 634v-626l-8 -7h-93l-8 5l-110 329v-327l-7 -7h-94l-8 7v626l8 7h94l7 -5l110 -329v327l8 7h93z" />
    <glyph glyph-name="nacute" unicode="&#x144;" horiz-adv-x="417" 
d="M169 694l-31 93l8 11h62l7 -6l32 -94l-8 -10h-62zM372 634v-626l-8 -7h-93l-8 5l-110 329v-327l-7 -7h-94l-8 7v626l8 7h94l7 -5l110 -329v327l8 7h93z" />
    <glyph glyph-name="Sacute" unicode="&#x15a;" horiz-adv-x="409" 
d="M165 694l-31 93l8 11h62l7 -6l32 -94l-8 -10h-62zM40 540q0 42 28 71.5t74 29.5h125q63 0 89 -51q12 -25 12 -50v-63l-8 -8h-93l-8 8v32q-2 23 -24 23h-62q-11 0 -17.5 -7t-6.5 -17v-109q2 -24 24 -24h94q63 0 89 -51q12 -25 12 -50v-172q0 -42 -27.5 -71.5t-73.5 -29.5
h-125q-64 0 -90 51q-12 25 -12 50v63l8 8h94l7 -8v-32q2 -23 24 -23h62q11 0 17.5 7t6.5 17v109q-2 23 -24 23h-93q-63 0 -90 52q-12 25 -12 50v172z" />
    <glyph glyph-name="sacute" unicode="&#x15b;" horiz-adv-x="409" 
d="M165 694l-31 93l8 11h62l7 -6l32 -94l-8 -10h-62zM40 540q0 42 28 71.5t74 29.5h125q63 0 89 -51q12 -25 12 -50v-63l-8 -8h-93l-8 8v32q-2 23 -24 23h-62q-11 0 -17.5 -7t-6.5 -17v-109q2 -24 24 -24h94q63 0 89 -51q12 -25 12 -50v-172q0 -42 -27.5 -71.5t-73.5 -29.5
h-125q-64 0 -90 51q-12 25 -12 50v63l8 8h94l7 -8v-32q2 -23 24 -23h62q11 0 17.5 7t6.5 17v109q-2 23 -24 23h-93q-63 0 -90 52q-12 25 -12 50v172z" />
    <glyph glyph-name="Zacute" unicode="&#x179;" horiz-adv-x="410" 
d="M368 540q-38 -84 -109 -237t-89 -193h190l8 -8v-94l-8 -7h-312l-8 7v94q36 81 105 226.5t95 203.5h-192l-8 8v94l8 7h312l8 -7v-94zM166 694l-32 93l8 11h62l8 -6l32 -94l-8 -10h-62z" />
    <glyph glyph-name="zacute" unicode="&#x17a;" horiz-adv-x="410" 
d="M368 540q-38 -84 -109 -237t-89 -193h190l8 -8v-94l-8 -7h-312l-8 7v94q36 81 105 226.5t95 203.5h-192l-8 8v94l8 7h312l8 -7v-94zM166 694l-32 93l8 11h62l8 -6l32 -94l-8 -10h-62z" />
    <glyph glyph-name="Zdotaccent" unicode="&#x17b;" horiz-adv-x="410" 
d="M368 540q-16 -39 -74 -165h36l8 -7v-94l-8 -8h-88l-72 -156h190l8 -8v-94l-8 -7h-312l-8 7v94q14 32 41 89t35 75h-36l-8 8v94l8 7h86l74 157h-192l-8 8v94l8 7h312l8 -7v-94z" />
    <glyph glyph-name="zdotaccent" unicode="&#x17c;" horiz-adv-x="410" 
d="M368 540q-16 -39 -74 -165h36l8 -7v-94l-8 -8h-88l-72 -156h190l8 -8v-94l-8 -7h-312l-8 7v94q14 32 41 89t35 75h-36l-8 8v94l8 7h86l74 157h-192l-8 8v94l8 7h312l8 -7v-94z" />
    <glyph glyph-name="Zcaron" unicode="&#x17d;" horiz-adv-x="410" 
d="M122 737l-2 11l32 32l10 1l42 -29l44 29l8 -1l32 -32v-11l-64 -47l-4 -2h-32q-12 8 -34 25t-32 24zM368 540q-38 -84 -109 -237t-89 -193h190l8 -8v-94l-8 -7h-312l-8 7v94q36 81 105 226.5t95 203.5h-192l-8 8v94l8 7h312l8 -7v-94z" />
    <glyph glyph-name="zcaron" unicode="&#x17e;" horiz-adv-x="410" 
d="M122 737l-2 11l32 32l10 1l42 -29l44 29l8 -1l32 -32v-11l-64 -47l-4 -2h-32q-12 8 -34 25t-32 24zM368 540q-38 -84 -109 -237t-89 -193h190l8 -8v-94l-8 -7h-312l-8 7v94q36 81 105 226.5t95 203.5h-192l-8 8v94l8 7h312l8 -7v-94z" />
    <glyph glyph-name="uni0237" unicode="&#x237;" horiz-adv-x="103" 
 />
  </font>
</defs>
</svg>
