<?xml version="1.0" standalone="no"?>
<!DOCTYPE svg PUBLIC "-//W3C//DTD SVG 1.1//EN" "http://www.w3.org/Graphics/SVG/1.1/DTD/svg11.dtd" >
<svg xmlns="http://www.w3.org/2000/svg" xmlns:xlink="http://www.w3.org/1999/xlink" version="1.1">
<metadata>
Created by FontForge 20170731 at Fri Dec 15 09:56:24 2006
 By Aleksey,,,
Based on Casadau&#38;Green's "Collegiate Inside 4.1", Created by Character for "Peter", Dec 2006 Ver2
</metadata>
<defs>
<font id="CollegiateHeavyOutline-Medium" horiz-adv-x="592" >
  <font-face 
    font-family="CollegiateHeavyOutline"
    font-weight="400"
    font-stretch="normal"
    units-per-em="1000"
    panose-1="2 0 6 3 6 0 0 2 0 4"
    ascent="800"
    descent="-200"
    x-height="591"
    cap-height="742"
    bbox="25 -133 1247 761"
    underline-thickness="42"
    underline-position="-84"
    unicode-range="U+0020-2022"
  />
<missing-glyph horiz-adv-x="9" 
 />
    <glyph glyph-name=".notdef" horiz-adv-x="9" 
 />
    <glyph glyph-name=".null" horiz-adv-x="0" 
 />
    <glyph glyph-name="nonmarkingreturn" horiz-adv-x="5" 
 />
    <glyph glyph-name="space" unicode=" " horiz-adv-x="371" 
 />
    <glyph glyph-name="space" unicode="&#xa0;" horiz-adv-x="371" 
 />
    <glyph glyph-name="exclam" unicode="!" horiz-adv-x="187" 
d="M131 142v-84h-76v84h76zM131 704v-428h-76v428h76zM38 168v-136h110v136h-110zM38 730v-480h110v480h-110zM162 752v-524h-137v524h137zM162 189v-179h-137v179h137z" />
    <glyph glyph-name="quotedbl" unicode="&#x22;" horiz-adv-x="304" 
d="M241 502v-111h-52v111h52zM116 502v-111h-52v111h52zM43 521v-148h94v148h-94zM168 521v-148h94v148h-94zM279 536v-179h-254v179h254z" />
    <glyph glyph-name="numbersign" unicode="#" horiz-adv-x="725" 
d="M294 215h-93v97h-129v62h129v146h-129v63h129v98h93v-98h136v98h93v-98h129v-63h-129v-146h129v-62h-129v-97h-93v97h-136v-97zM430 374v146h-136v-146h136zM320 399v96h84v-96h-84zM320 287h84v-97h145v97h129v112h-129v96h129v113h-129v98h-145v-98h-84v98h-145v-98
h-129v-113h129v-96h-129v-112h129v-97h145v97zM341 169h-187v97h-129v154h129v55h-129v154h129v98h187v-98h41v98h189v-98h129v-154h-129v-55h129v-154h-129v-97h-189v97h-41v-97zM382 420v55h-41v-55h41z" />
    <glyph glyph-name="dollar" unicode="$" 
d="M522 510h-115v51l-43 45h-136l-43 -45v-110l43 -45h202l92 -96v-109l-92 -97h-62v-53h-29v53h-83v-53h-27v53h-67l-91 97v49h114v-47l43 -45h136l43 45v106l-43 45h-202l-91 96v113l91 96h67v54h27v-54h83v54h29v-54h62l92 -96v-53zM546 573l-106 112h-47v54h-78v-54h-34
v54h-77v-54h-52l-106 -112v-133l106 -112h202l28 -30v-84l-28 -30h-116l-28 30v63h-164v-87l106 -112h52v-53h77v53h34v-53h78v53h47l106 112v130l-106 112h-202l-28 30v89q9 10 14 14.5t14 14.5h116q9 -11 14 -15.5t14 -13.5v-68h164v90zM567 462h-206v79l-17 17h-97
q-3 -4 -7 -7.5t-9 -9.5v-70l16 -17h202l118 -124v-150l-118 -124h-36v-53h-230v53h-40l-118 124v118h206v-75l16 -17h97l17 17v66l-17 17h-201l-118 124v153l118 124h40v54h230v-54h36l118 -124v-121z" />
    <glyph glyph-name="ampersand" unicode="&#x26;" 
d="M522 563v-61h-115v29l-43 44h-136l-43 -44v-70l43 -46h65v-67h-65l-43 -44v-70l43 -46h136l43 46v14h115v-47l-92 -97h-86v-53h-97v53h-85l-91 97v133l46 48l-46 48v133l91 96h85v54h97v-54h86zM440 685h-71v54h-147v-54h-70l-106 -112v-153l36 -38l-36 -37v-155
l106 -112h70v-53h147v53h71l106 112v84h-164v-30l-28 -29h-116l-28 29v49q9 10 14 15l14 14h80v120h-80l-28 29v49q9 10 14 15l14 14h116q9 -10 14 -15l14 -14v-44h164v97zM567 583v-129h-206v57q-3 3 -7 6.5t-10 9.5h-97l-16 -16v-30l16 -18h92v-163h-92l-16 -16v-30
l16 -18h97l17 18v42h206v-116l-118 -124h-59v-53h-189v53h-58l-118 124v174l27 28l-27 28v173l118 124h58v54h189v-54h59z" />
    <glyph glyph-name="quotesingle" unicode="'" horiz-adv-x="125" 
d="M77 502v-111h-30v111h30zM35 521v-148h55v148h-55zM100 536v-179h-75v179h75z" />
    <glyph glyph-name="comma" unicode="," horiz-adv-x="187" 
d="M55 92h76v-74l-33 -37v52h-43v59zM38 14h44v-80l66 76v101h-110v-97zM25 126h137v-121l-94 -109v102h-43v128z" />
    <glyph glyph-name="hyphen" unicode="-" horiz-adv-x="287" 
d="M63 212h162v-44h-162v44zM42 154h203v72h-203v-72zM25 238h237v-96h-237v96z" />
    <glyph glyph-name="period" unicode="." horiz-adv-x="171" 
d="M117 86v-63h-63v63h63zM38 102v-95h95v95h-95zM146 115v-121h-121v121h121z" />
    <glyph glyph-name="slash" unicode="/" horiz-adv-x="603" 
d="M402 704h104l-304 -646h-104zM58 32h159l328 698h-159zM374 752h204l-348 -742h-205z" />
    <glyph glyph-name="zero" unicode="0" 
d="M162 704h268l92 -96v-454l-92 -96h-268l-91 96v454zM364 621h-136l-43 -46v-389l43 -44h136l43 44v389zM382 565v-369q-10 -10 -15 -14.5t-13 -13.5h-116q-9 10 -14.5 14.5t-13.5 13.5v369l28 29h116zM46 619v-476l106 -111h288l106 111v476l-106 111h-288zM143 752h306
l118 -124v-494l-118 -124h-306l-118 124v494zM344 573h-97l-16 -18v-349l7 -7t9 -10h97q4 4 8 7.5t9 9.5v349z" />
    <glyph glyph-name="one" unicode="1" horiz-adv-x="375" 
d="M309 142v-84h-243v84h78v391h-78v58l97 113h84v-562h62zM270 168v562h-116l-110 -129v-94h78v-339h-78v-136h288v136h-62zM350 189v-179h-325v179h78v297h-78v125l121 141h142v-563h62z" />
    <glyph glyph-name="two" unicode="2" horiz-adv-x="558" 
d="M488 166v-108h-418v112l305 323v82l-43 46h-107l-42 -46v-51h-113v84l90 96h237l91 -96v-156l-270 -286h270zM277 192l235 249v178l-105 111h-256l-106 -111v-121h162v67l28 29h87l28 -29v-61l-305 -323v-149h467v160h-235zM533 214v-204h-508v180l305 323v42l-17 18h-69
l-16 -18v-79h-203v152l117 124h274l117 -124v-196l-206 -218h206z" />
    <glyph glyph-name="three" unicode="3" 
d="M364 425l43 44v106l-43 46h-136l-43 -46v-28h-114v61l91 96h268l92 -96v-179l-46 -48l46 -48v-179l-92 -96h-268l-91 96v46h114v-14l43 -44h136l43 44v106l-43 46h-65v87h65zM274 451v-140h80l28 -29v-86q-10 -10 -15 -14.5t-13 -13.5h-116q-9 10 -14.5 14.5t-13.5 13.5
v30h-164v-83l106 -111h288l106 111v201l-35 37l35 38v200l-106 111h-288l-106 -111v-98h164v44l28 29h116l28 -29v-86q-10 -10 -15 -14.5t-13 -13.5h-80zM344 473q4 3 8 6.5t9 9.5v66l-17 18h-97l-16 -18v-55h-206v128l118 124h306l118 -124v-219l-26 -28l26 -28v-219
l-118 -124h-306l-118 124v114h206v-42q3 -3 6.5 -7t9.5 -10h97q4 4 8 7.5t9 9.5v66l-17 18h-91v183h91z" />
    <glyph glyph-name="four" unicode="4" horiz-adv-x="587" 
d="M289 58v84h42v134h-260v155l260 273h114v-345h72v-83h-72v-134h42v-84h-198zM185 395v-36h146v188zM306 485v-100h-96zM512 32v136h-42v82h71v135h-71v345h-149l-275 -289v-191h260v-82h-42v-136h248zM243 10v179h42v39h-260v223l287 301h179v-345h71v-179h-71v-39h41
v-179h-289zM261 407h24v25z" />
    <glyph glyph-name="five" unicode="5" 
d="M228 476h208l86 -89v-233l-92 -96h-268l-91 96v69h114v-37l43 -44h136l43 44v162l-43 45h-202l-91 96v215h451v-83h-337v-100zM210 532v62h336v136h-500v-251l106 -112h202l28 -29v-142q-10 -10 -15 -14.5t-13 -13.5h-116q-9 10 -14.5 14.5t-13.5 13.5v54h-164v-107
l106 -111h288l106 111v255l-100 104h-208zM247 524h208l112 -117v-273l-118 -124h-306l-118 124v137h206v-65l7 -7t9 -10h97q4 4 8 7.5t9 9.5v122l-17 17h-201l-118 124v283h542v-179h-336v-32z" />
    <glyph glyph-name="six" unicode="6" 
d="M430 413l92 -96v-163l-92 -96h-268l-91 96v454l91 96h268l92 -96v-59h-115v26l-43 46h-136l-43 -46v-162h245zM228 142h136l43 44v99l-43 45h-136l-43 -45v-99zM210 196v79q9 10 14 14.5t14 14.5h116q9 -11 14 -15.5t14 -13.5v-79q-10 -10 -15 -14.5t-13 -13.5h-116z
M210 439v126l28 29h116l28 -29v-42h164v96l-106 111h-288l-106 -111v-476l106 -111h288l106 111v185l-106 111h-230zM449 461l118 -123v-204l-118 -124h-306l-118 124v494l118 124h306l118 -124v-127h-206v54l-17 18h-97l-16 -18v-94h218zM247 189h97q4 4 8 7.5t9 9.5v59
q-3 4 -7 7.5t-10 9.5h-97q-3 -4 -7 -7.5t-9 -9.5v-59z" />
    <glyph glyph-name="seven" unicode="7" horiz-adv-x="576" 
d="M309 61h-114l196 559h-241v-43h-79v127h435v-84zM530 616v114h-484v-180h129v44h181l-196 -559h166zM341 14h-211l195 558h-130v-43h-170v223h526v-141z" />
    <glyph glyph-name="eight" unicode="8" horiz-adv-x="589" 
d="M519 315v-161l-92 -96h-265l-91 96v161l62 66l-62 66v161l91 96h265l92 -96v-161l-63 -66zM194 294v-108l43 -44h116l42 44v108l-42 44h-116zM194 575v-107l43 -45h116l42 45v107l-42 46h-116zM247 312h96l27 -28v-88l-27 -28h-96q-9 10 -14.5 14.5t-13.5 13.5v88z
M247 594h96l13.5 -15t13.5 -14v-86q-9 -10 -14 -15.5t-13 -14.5h-96l-28 30v86zM490 381l54 56v182l-107 111h-285l-106 -111v-182q11 -12 25 -27t27 -29l-52 -56v-182l106 -111h285l107 111v182zM564 335v-201l-118 -124h-303l-118 124v201l44 45q-12 13 -23.5 25.5
t-20.5 21.5v201l118 124h303l118 -124v-201l-44 -46zM240 555v-67l16 -17h77q4 3 7.5 7t8.5 10v67q-3 4 -6.5 8t-9.5 10h-77zM240 274v-68l7 -7t9 -10h77l16 17v69q-5 5 -6.5 6t-9.5 9h-77z" />
    <glyph glyph-name="nine" unicode="9" horiz-adv-x="610" 
d="M163 348l-92 96v164l92 96h285l91 -96v-454l-91 -96h-283l-94 97v57h115v-26l43 -44h153l42 44v162h-261zM186 575v-98l43 -45h153l42 45v98l-42 46h-153zM239 594h132q10 -10 14.5 -15t13.5 -14v-78q-9 -10 -14 -15l-14 -14h-132l-28 29v78zM399 322v-126l-28 -28h-132
q-9 10 -14 14.5t-14 13.5v42h-165v-93l109 -113h303l107 111v476l-107 111h-305l-107 -111v-186l107 -111h246zM144 300l-119 124v204l119 124h323l118 -124v-494l-118 -124h-321l-121 125v125h207v-54l17 -17h113l16 17v94h-234zM232 555v-58l17 -18h113q3 4 7 8t9 10v58
q-3 4 -6.5 8t-9.5 10h-113z" />
    <glyph glyph-name="colon" unicode=":" horiz-adv-x="187" 
d="M131 537v-80h-76v80h76zM131 135v-80h-76v80h76zM38 161v-131h110v131h-110zM38 563v-131h110v131h-110zM162 584v-173h-137v173h137zM162 182v-173h-137v173h137z" />
    <glyph glyph-name="semicolon" unicode=";" horiz-adv-x="187" 
d="M55 139h76v-102l-33 -52v72h-43v82zM131 549v-82h-76v82h76zM38 575v-134h110v134h-110zM38 31h44v-111l66 106v138h-110v-133zM25 186h137v-168l-94 -151v142h-43v177zM162 596v-176h-137v176h137z" />
    <glyph glyph-name="question" unicode="?" horiz-adv-x="533" 
d="M331 142v-84h-129v84h129zM202 323l150 160v77l-42 46h-86l-42 -46v-36h-112v84l90 96h214l90 -96v-156l-133 -142v-54h-129v67zM178 168v-136h177v136h-177zM178 230h177v69l133 142v178l-104 111h-234l-104 -111v-121h160v52l28 30h66l28 -30v-57l-150 -160v-103z
M157 343l150 160v37l-16 18h-48l-16 -18v-64h-202v152l116 124h252l115 -124v-196l-132 -142v-82h-219v135zM376 189v-179h-219v179h219z" />
    <glyph glyph-name="A" unicode="A" horiz-adv-x="727" 
d="M517 611h-51l158 -479h30v-84h-196v84h40l-37 113h-196l-37 -113h39v-84h-195v84h31l157 479h-45v83h302v-83zM441 304l-78 238l-79 -238h157zM320 330q13 39 22.5 68.5t20.5 61.5q8 -25 13 -41.5t9.5 -30t9.5 -26.5t11 -32h-86zM542 720h-353v-136h36
q-19 -57 -36 -109.5t-34 -104.5t-34.5 -104t-35.5 -108h-39v-136h247v136h-29q7 22 11 33t9 28h157q6 -19 11 -32.5t10 -28.5h-30v-136h248v136h-38q-37 111 -71 213.5t-70 212.5h41v136zM564 563h-33q16 -50 31.5 -96.5l31 -93l31.5 -94.5t33 -100h44v-179h-291v179h20
q-1 5 -2 9t-3 9h-127q-1 -3 -2 -7.5t-3 -10.5h20v-179h-289v179h44q17 53 32 98.5t30 90.5t30.5 92t33.5 103h-28v179h397v-179zM376 352q-2 5 -5.5 16t-7.5 24q-4 -9 -6.5 -18.5t-6.5 -21.5h26z" />
    <glyph glyph-name="B" unicode="B" horiz-adv-x="607" 
d="M536 319v-175l-91 -96h-374v84h42v479h-42v83h374l91 -96v-149l-62 -65zM379 132l43 44v121l-43 44h-151v-209h151zM379 425l43 45v95l-43 46h-151v-186h151zM253 451v133h116l28 -29v-74l-28 -30h-116zM253 158v157h116q9 -10 14 -14.5t14 -13.5v-101q-10 -10 -15 -14.5
t-13 -13.5h-116zM509 384l53 55v170l-107 111h-409v-136h42v-426h-42v-136h409l107 111v196zM582 339v-215l-118 -124h-439v179h42v384h-42v179h439l118 -124v-189l-43 -45zM359 179q4 4 8 7.5t9 9.5v81l-17 17h-86v-115h86zM359 473l17 17v55l-17 18h-86v-90h86z" />
    <glyph glyph-name="C" unicode="C" 
d="M407 495v70l-43 46h-136l-43 -46v-389l43 -44h136l43 44v65h115v-97l-92 -96h-268l-91 96v454l91 96h268l92 -96v-103h-115zM546 469v140l-106 111h-288l-106 -111v-476l106 -111h288l106 111v134h-164v-81q-10 -10 -15 -14.5t-13 -13.5h-116q-9 10 -14.5 14.5
t-13.5 13.5v369l28 29h116l28 -29v-86h164zM361 447v98l-17 18h-97l-16 -18v-349l7 -7t9 -10h97q4 4 8 7.5t9 9.5v93h206v-165l-118 -124h-306l-118 124v494l118 124h306l118 -124v-171h-206z" />
    <glyph glyph-name="D" unicode="D" horiz-adv-x="607" 
d="M445 694l91 -96v-454l-91 -96h-374v84h42v479h-42v83h374zM379 132l43 44v389l-43 46h-151v-479h151zM253 158v426h116l28 -29v-369q-10 -10 -15 -14.5t-13 -13.5h-116zM46 720v-136h42v-426h-42v-136h409l107 111v476l-107 111h-409zM464 742l118 -124v-494l-118 -124
h-439v179h42v384h-42v179h439zM359 179q4 4 8 7.5t9 9.5v349l-17 18h-86v-384h86z" />
    <glyph glyph-name="E" unicode="E" horiz-adv-x="571" 
d="M501 48h-431v84h42v479h-42v83h431v-113h-80v30h-196v-199h103v30h79v-141h-79v28h-103v-197h196v28h80v-112zM525 186h-128v-28h-147v145h53v-29h129v194h-129v-30h-53v146h147v-29h128v165h-479v-136h41v-426h-41v-136h479v164zM546 0h-521v179h41v384h-41v179h521
v-209h-170v30h-106v-103h13v30h170v-237h-170v28h-13v-102h106v29h170v-208z" />
    <glyph glyph-name="F" unicode="F" horiz-adv-x="571" 
d="M225 329v-197h79v-84h-234v84h42v479h-42v83h431v-113h-80v30h-196v-199h103v30h79v-141h-79v28h-103zM303 303v-29h129v194h-129v-30h-53v146h147v-29h128v165h-479v-136h41v-426h-41v-136h283v136h-79v145h53zM283 253v28h-13v-102h79v-179h-324v179h41v384h-41v179
h521v-209h-170v30h-106v-103h13v30h170v-237h-170z" />
    <glyph glyph-name="G" unicode="G" horiz-adv-x="590" 
d="M428 48h-266l-91 96v454l91 96h266l92 -96v-103h-115v70l-42 46h-135l-43 -46v-389l43 -44h135l42 44v126h-51v70h166v-228zM544 133v265h-215v-122h51v-90l-27 -28h-115q-10 10 -15 14.5t-13 13.5v369l28 29h115l13.5 -15t13.5 -14v-86h164v140l-106 111h-286l-106 -111
v-476l106 -111h286zM447 0h-304l-118 124v494l118 124h304l118 -124v-171h-206v98q-3 4 -6.5 8t-9.5 10h-96l-17 -18v-349q7 -6 17 -17h96l16 17v58h-50v166h256v-296z" />
    <glyph glyph-name="H" unicode="H" horiz-adv-x="679" 
d="M231 132h43v-84h-202v84h43v479h-43v83h202v-83h-43v-180h217v180h-42v83h201v-83h-42v-479h42v-84h-201v84h42v201h-217v-201zM257 307h166v-149h-43v-136h253v136h-43v426h43v136h-253v-136h43v-127h-166v127h42v136h-253v-136h43v-426h-43v-136h253v136h-42v149z
M278 179h43v-179h-296v179h43v384h-43v179h296v-179h-43v-84h123v84h-42v179h295v-179h-42v-384h42v-179h-295v179h42v106h-123v-106z" />
    <glyph glyph-name="I" unicode="I" horiz-adv-x="287" 
d="M63 48v84h34v479h-34v83h162v-83h-34v-479h34v-84h-162zM245 22v136h-34v426h34v136h-203v-136h35v-426h-35v-136h203zM25 0v179h35v384h-35v179h237v-179h-34v-384h34v-179h-237z" />
    <glyph glyph-name="J" unicode="J" horiz-adv-x="579" 
d="M295 611v84h214v-84h-42v-474l-91 -96h-214l-91 96v123h113v-84l43 -44h84l43 44v435h-59zM329 585v-398l-15 -15t-13 -14h-64q-9 10 -14.5 15t-13.5 14v99h-163v-159l106 -112h234l106 112v458h41v136h-263v-136h59zM249 563v180h305v-180h-41v-446l-118 -124h-252
l-118 124v191h205v-112q3 -3 7 -6.5t9 -9.5h46q3 3 7 6.5t9 9.5v367h-59z" />
    <glyph glyph-name="K" unicode="K" horiz-adv-x="730" 
d="M276 132v-84h-204v84h43v479h-43v83h204v-83h-43v-242l238 242h-75v83h261v-83h-43l-236 -240l236 -239h43v-84h-261v84h77l-167 167l-73 -74v-93h43zM259 158v56l47 48q29 -29 54.5 -53.5t50.5 -50.5h-41v-136h313v136h-58l-211 213l211 213h58v136h-313v-136h39
l-150 -152v152h43v136h-256v-136h43v-426h-43v-136h256v136h-43zM280 179h43v-179h-298v179h43v384h-43v179h298v-179h-43v-78l77 78h-9v179h357v-179h-71l-189 -192l189 -192h71v-179h-357v179h9l-51 52l-26 -26v-26z" />
    <glyph glyph-name="L" unicode="L" horiz-adv-x="575" 
d="M225 132h200v43h80v-127h-434v84h41v479h-41v83h195v-83h-41v-479zM250 584h41v136h-245v-136h41v-426h-41v-136h483v179h-129v-43h-150v426zM271 563v-384h109v44h170v-223h-525v179h41v384h-41v179h287v-179h-41z" />
    <glyph glyph-name="M" unicode="M" horiz-adv-x="880" 
d="M806 694v-83h-44v-479h44v-84h-210v84h44v364l-200 -330l-202 330v-364h44v-84h-209v84h44v479h-44v83h164l203 -333l202 333h164zM627 720q-45 -73 -93 -152.5t-94 -154.5l-188 307h-205v-136h44v-426h-44v-136h262v136h-44v244l175 -287q38 63 84 138.5t90 147.5v-243
h-45v-136h264v136h-45v426h45v136h-206zM855 742v-179h-45v-384h45v-179h-308v179h44v143q-40 -67 -80 -133t-71 -117l-153 252v-145h44v-179h-306v179h44v384h-44v179h240l175 -287l174 287h241z" />
    <glyph glyph-name="N" unicode="N" horiz-adv-x="737" 
d="M460 611v83h204v-83h-43v-479h43v-84h-170l-261 437v-353h43v-84h-204v84h43v479h-43v83h166l265 -447v364h-43zM477 584v-241l-225 377h-206v-136h43v-426h-43v-136h256v136h-43v233l220 -369h211v136h-43v426h43v136h-256v-136h43zM456 421v142h-43v179h299v-179h-43
v-384h43v-179h-245l-186 312v-133h43v-179h-299v179h43v384h-43v179h239z" />
    <glyph glyph-name="O" unicode="O" 
d="M162 694h268l92 -96v-454l-92 -96h-268l-91 96v454zM364 611h-136l-43 -46v-389l43 -44h136l43 44v389zM382 555v-369q-10 -10 -15 -14.5t-13 -13.5h-116q-9 10 -14.5 14.5t-13.5 13.5v369l28 29h116zM46 609v-476l106 -111h288l106 111v476l-106 111h-288zM143 742h306
l118 -124v-494l-118 -124h-306l-118 124v494zM344 563h-97l-16 -18v-349l7 -7t9 -10h97q4 4 8 7.5t9 9.5v349z" />
    <glyph glyph-name="P" unicode="P" horiz-adv-x="607" 
d="M228 323v-191h41v-84h-198v84h42v479h-42v83h374l91 -96v-179l-91 -96h-217zM422 451v114l-43 46h-151v-204h151zM369 433h-116v151h116l28 -29v-93zM455 297l107 112v200l-107 111h-409v-136h42v-426h-42v-136h248v136h-41v139h202zM273 275v-96h42v-179h-290v179h42
v384h-42v179h439l118 -124v-219l-118 -124h-191zM376 471v74l-17 18h-86v-108h86z" />
    <glyph glyph-name="Q" unicode="Q" horiz-adv-x="679" 
d="M165 694h273l93 -96v-399l57 -60l-52 -54l-31 33l-67 -70h-273l-93 96v454zM370 611h-138l-44 -46v-389l44 -44h138l44 44v35l-99 103l51 54l48 -49v246zM388 555v-173l-22 22l-87 -90q12 -12 25.5 -26.5t28 -29.5l29 -30t26.5 -28v-14q-9 -10 -14.5 -14.5t-13.5 -13.5
h-118q-10 10 -15 14.5t-14 13.5v369l29 29h118zM46 609v-476l109 -111h293l57 59l31 -32l88 90l-68 70v400l-108 111h-293zM145 742h312l120 -124v-399l77 -80l-118 -122l-32 32l-47 -49h-312l-120 124v494zM350 563h-99l-17 -18v-349q3 -3 7.5 -7t9.5 -10h99q4 3 7.5 6.5
l7.5 7.5q-14 14 -30 30.5l-32 33t-30 31.5t-24 26l117 122l1 -1v110z" />
    <glyph glyph-name="R" unicode="R" horiz-adv-x="657" 
d="M72 48v84h42v479h-42v83h378l93 -96v-149l-63 -65l63 -65v-187h42v-84h-158v249l-44 44h-153v-209h42v-84h-200zM427 470v95l-44 46h-153v-186h153zM373 451h-118v133h118l29 -29v-74zM298 22v136h-43v157h118q10 -10 15 -14.5t14 -13.5v-265h209v136h-43v171l-53 55
l53 55v170l-108 111h-414v-136h42v-426h-42v-136h252zM25 0v179h42v384h-42v179h444l121 -124v-189l-44 -45l44 -45v-160h42v-179h-251v277q-7 6 -17 17h-88v-115h43v-179h-294zM381 490v55l-17 18h-88v-90h88z" />
    <glyph glyph-name="S" unicode="S" 
d="M162 328l-91 95v175l91 96h268l92 -96v-83h-115v50l-43 46h-136l-43 -46v-109l43 -45h202l92 -96v-171l-92 -96h-268l-91 96v80h114v-48l43 -44h136l43 44v106l-43 46h-202zM354 301l28 -29v-86q-10 -10 -15 -14.5t-13 -13.5h-116q-9 10 -14.5 14.5t-13.5 13.5v64h-164
v-117l106 -111h288l106 111v193l-106 111h-202q-9 10 -14.5 15t-13.5 14v89l28 29h116l28 -29v-66h164v120l-106 111h-288l-106 -111v-196l106 -112h202zM143 280l-118 123v215l118 124h306l118 -124v-151h-206v78l-17 18h-97l-16 -18v-69q3 -4 7 -7.5t9 -9.5h202l118 -124
v-211l-118 -124h-306l-118 124v148h206v-76l7 -7t9 -10h97q4 4 8 7.5t9 9.5v66l-17 18h-201z" />
    <glyph glyph-name="T" unicode="T" horiz-adv-x="662" 
d="M510 611h-121v-479h43v-84h-202v84h43v479h-120v-44h-81v127h518v-127h-80v44zM484 541h132v179h-570v-179h132v43h69v-426h-42v-136h252v136h-42v426h69v-43zM463 563h-27v-384h42v-179h-294v179h42v384h-26v-44h-175v223h612v-223h-174v44z" />
    <glyph glyph-name="U" unicode="U" horiz-adv-x="692" 
d="M484 48h-275l-94 96v467h-43v83h203v-83h-43v-435l44 -44h139l45 44v435h-43v83h203v-83h-42v-467zM603 133v451h43v136h-254v-136h42v-398q-10 -10 -15 -14.5t-14 -13.5h-118q-10 10 -15.5 14.5t-14.5 13.5v398h43v136h-253v-136h42v-451l110 -111h295zM503 0h-314
l-121 124v439h-43v179h297v-179h-43v-367l17 -17h100q3 4 7 7.5t10 9.5v367h-43v179h297v-179h-42v-439z" />
    <glyph glyph-name="V" unicode="V" horiz-adv-x="769" 
d="M477 611v83h219v-83h-53l-158 -479h51v-84h-306v84h47l-159 479h-45v83h211v-83h-40l136 -411l137 411h-40zM481 584q-27 -83 -51.5 -154t-49.5 -148q-15 47 -27.5 84t-23.5 71t-23 69t-26 78h30v136h-263v-136h52q37 -111 71.5 -214t71.5 -212h-38v-136h358v136h-42
l36.5 109.5t34.5 104.5t34.5 104t36.5 108h60v136h-271v-136h30zM309 563l17 -51t14.5 -43t16.5 -49l23 -69l71 212h-22v179h315v-179h-67q-18 -53 -33 -98.5t-29.5 -90.5t-30 -92t-34.5 -103h33v-179h-400v179h28q-17 49 -32 96t-30.5 93.5l-31.5 94.5t-33 100h-59v179h307
v-179h-23z" />
    <glyph glyph-name="W" unicode="W" horiz-adv-x="1272" 
d="M559 132v-84h-307v84h46l-169 479h-53v83h235v-83h-48l144 -410l143 410h-42v83h258v-83h-43l143 -410l145 410h-44v83h230v-83h-53l-167 -479h45v-84h-307v84h42l-120 344l-121 -344h43zM555 158q22 65 41.5 120t39.5 114q13 -38 23.5 -67t20 -55t19 -52.5t21.5 -59.5
h-32v-136h362v136h-36q20 57 38.5 109.5t36.5 104.5t36.5 104t38.5 108h60v136h-284v-136h33q-29 -83 -54.5 -154t-52.5 -148q-17 47 -29.5 84t-24.5 71t-24 69t-27 78h32v136h-313v-136h32q-15 -42 -28 -79.5t-25.5 -74t-25.5 -73t-26 -75.5q-17 47 -30 84t-25 71t-24.5 69
t-27.5 78h39v136h-291v-136h62q39 -111 75.5 -214t74.5 -212h-36v-136h363v136h-32zM637 324q-13 -37 -25.5 -73t-25.5 -72h24v-179h-409v179h27q-18 49 -34 96t-32.5 93.5t-33.5 94.5t-35 100h-68v179h337v-179h-29q10 -30 17.5 -51t15 -42.5t17 -48.5t24.5 -69
q17 50 34 98.5t39 112.5h-23v179h359v-179h-23l17 -51t14.5 -42.5t17 -48.5t24.5 -69q9 25 17.5 49t17.5 49.5t19 53t21 59.5h-24v179h330v-179h-67q-18 -53 -34 -98.5t-31.5 -90.5t-32 -92t-36.5 -103h27v-179h-408v179h23q-6 18 -11 31t-10 27.5t-12 34t-18 52.5z" />
    <glyph glyph-name="X" unicode="X" horiz-adv-x="872" 
d="M277 132h64v-84h-268v84h46l242 239l-242 240h-46v83h268v-83h-64l164 -162l163 162h-64v83h258v-83h-36l-243 -240l243 -239h36v-84h-258v84h64l-163 162zM440 256q29 -29 52 -51.5t49 -46.5h-28v-136h312v136h-53l-216 213l216 213h53v136h-312v-136h28l-30 -30
t-23 -22.5l-22 -21t-26 -25.5l-52 52t-48 47h28v136h-321v-136h61l216 -213l-216 -213h-61v-136h321v136h-28zM390 175v-175h-365v179h74l194 192l-194 192h-74v179h365v-175l51 -51l50 50v176h356v-179h-65l-194 -192l194 -192h65v-179h-356v174q-22 20 -51 51z" />
    <glyph glyph-name="Y" unicode="Y" horiz-adv-x="872" 
d="M545 41h-209v91h44v221l-261 258h-46v84h266v-84h-64l166 -164l165 164h-65v84h257v-84h-36l-261 -258v-221h44v-91zM571 158h-44v185l245 242h53v136h-310v-136h27l-101 -101q-29 29 -52.5 52t-49.5 49h27v136h-319v-136h61l246 -242v-185h-45v-143h262v143zM593 -7
h-306v187h44v153l-232 230h-74v180h363v-175l53 -52l52 51v176h354v-180h-65l-233 -230v-153h44v-187z" />
    <glyph glyph-name="Z" unicode="Z" horiz-adv-x="581" 
d="M431 132v43h80v-127h-440v84l304 479h-225v-44h-79v127h440v-83l-304 -479h224zM253 158l282 445v117h-489v-179h129v43h153l-282 -445v-117h489v179h-129v-43h-153zM385 179v44h171v-223h-531v147l264 416h-93v-44h-171v223h531v-147l-264 -416h93z" />
    <glyph glyph-name="a" unicode="a" horiz-adv-x="591" 
d="M415 483h-40l122 -371h23v-64h-151v64h31l-30 88h-150l-29 -88h30v-64h-151v64h24l122 371h-36v65h235v-65zM355 246l-59 184l-61 -184h120zM269 271q8 25 14 43.5t13 36.5q6 -17 9.5 -28t6 -19.5t4.5 -16t5 -16.5h-52zM439 573h-284v-115h26q-15 -44 -27.5 -83.5
t-25 -78t-25.5 -77.5t-27 -82h-30v-115h200v115h-20q5 17 7 22.5t5 15.5h114l7 -21t6 -17h-21v-115h201v115h-31q-27 84 -52.5 161.5t-51.5 159.5h29v115zM460 436h-22q23 -71 44 -136.5t47 -141.5h37v-157h-243v153h-56v-153h-242v157h36q13 39 23.5 71.5t21 64.5t22 66
t25.5 76h-19v158h326v-158z" />
    <glyph glyph-name="b" unicode="b" horiz-adv-x="496" 
d="M427 257v-135l-71 -74h-287v64h32v371h-32v65h287l71 -74v-116l-49 -51zM305 112l33 35v93l-33 35h-116v-163h116zM305 339l33 36v73l-33 35h-116v-144h116zM213 365v93h83l18 -20v-54q-5 -6 -9.5 -10t-9.5 -9h-82zM213 137v113h82q5 -6 10 -10t9 -9v-75q-5 -6 -9.5 -10
t-9.5 -9h-82zM412 307l39 41v136l-85 89h-321v-115h32v-321h-32v-115h321l85 90v155zM471 276v-174l-97 -101h-349v157h32v278h-32v158h349l97 -101v-154l-30 -32zM289 158q2 2 1.5 2.5t3.5 4.5v56q-1 1 -3 3.5t-4 4.5h-54v-71h56zM289 386q2 2 1.5 2.5t3.5 4.5v36l-7 7h-54
v-50h56z" />
    <glyph glyph-name="c" unicode="c" horiz-adv-x="483" 
d="M326 394v54l-34 35h-103l-33 -35v-301l33 -35h103l34 35v51h88v-76l-71 -74h-204l-71 74v352l71 74h204l71 -74v-80h-88zM438 369v115l-85 89h-224l-85 -89v-372l85 -90h224l85 90v111h-136v-66l-19 -20h-84q-10 12 -19 19v282l18 20h86q6 -6 9.5 -11t8.5 -10v-68h136z
M282 348v83q-2 2 -2.5 1.5t-3.5 3.5h-69l-7 -7v-262q3 -3 7 -9h67l8 9v77h176v-142l-96 -101h-242l-95 101v391l95 101h242l96 -101v-145h-176z" />
    <glyph glyph-name="d" unicode="d" horiz-adv-x="496" 
d="M356 548l71 -74v-352l-71 -74h-287v64h32v371h-32v65h287zM305 112l33 35v301l-33 35h-116v-371h116zM213 137v321h83l18 -20v-282q-5 -6 -9.5 -10t-9.5 -9h-82zM45 573v-115h32v-321h-32v-115h321l85 90v372l-85 89h-321zM374 594l97 -101v-391l-97 -101h-349v157h32
v278h-32v158h349zM289 158q2 2 1.5 2.5t3.5 4.5v264l-7 7h-54v-278h56z" />
    <glyph glyph-name="e" unicode="e" horiz-adv-x="466" 
d="M398 48h-329v64h31v371h-31v65h329v-87h-60v22h-151v-153h79v22h61v-110h-61v23h-79v-153h151v22h60v-86zM421 160h-107v-23h-103v103h32v-23h107v160h-107v-22h-32v103h103v-22h107v137h-376v-115h32v-321h-32v-115h376v138zM441 1h-416v157h32v278h-32v158h416v-179
h-147v21h-63v-37h139v-203h-139v-38h63v23h147v-180z" />
    <glyph glyph-name="f" unicode="f" horiz-adv-x="466" 
d="M187 265v-153h60v-64h-178v64h31v371h-31v65h329v-87h-60v22h-151v-153h79v22h61v-110h-61v23h-79zM350 217v160h-107v-22h-32v103h103v-22h107v137h-376v-115h32v-321h-32v-115h226v115h-60v103h32v-23h107zM231 196v-38h60v-157h-266v157h32v278h-32v158h416v-179h-147
v21h-63v-37h139v-203h-139z" />
    <glyph glyph-name="g" unicode="g" horiz-adv-x="481" 
d="M343 48h-204l-70 74v352l70 74h204l70 -74v-80h-88v54l-32 35h-103l-33 -35v-301l33 -35h103l32 35v98h-39v53h127v-176zM437 112v211h-175v-103h39v-64q-5 -6 -9.5 -10t-8.5 -9h-83q-5 6 -10 10.5t-9 8.5v282l18 20h85q6 -8 9 -10.5t8 -9.5v-69h136v115l-84 89h-223
l-85 -89v-372l85 -90h223zM362 1h-241l-96 101v391l96 101h241l94 -101v-145h-175v82l-6 6h-67l-7 -7v-262q1 -2 3 -4.5t4 -4.5h68q2 2 1.5 2t3.5 5v34h-39v146h214v-243z" />
    <glyph glyph-name="h" unicode="h" horiz-adv-x="553" 
d="M194 112h32v-64h-156v64h33v371h-33v65h156v-65h-32v-139h166v139h-33v65h156v-65h-33v-371h33v-64h-156v64h33v156h-166v-156zM218 242h118v-105h-33v-115h205v115h-33v321h33v115h-205v-115h33v-89h-118v89h33v115h-205v-115h33v-321h-33v-115h205v115h-33v105z
M239 158h33v-157h-247v157h33v278h-33v158h247v-158h-33v-46h76v46h-33v158h246v-158h-32v-278h32v-157h-246v157h33v63h-76v-63z" />
    <glyph glyph-name="i" unicode="i" horiz-adv-x="240" 
d="M60 48v64h26v371h-26v65h121v-65h-26v-371h26v-64h-121zM200 22v115h-26v321h26v115h-159v-115h26v-321h-26v-115h159zM25 1v157h26v278h-26v158h190v-158h-25v-278h25v-157h-190z" />
    <glyph glyph-name="j" unicode="j" horiz-adv-x="473" 
d="M240 484v65h165v-65h-32v-368l-70 -74h-164l-70 74v97h87v-66l33 -35h63l34 35v337h-46zM262 458v-300l-19 -21h-44q-5 7 -9.5 11t-9.5 9v81h-135v-132l84 -90h184l84 90v352h32v116h-212v-116h45zM197 437v158h251v-158h-31v-340l-96 -102h-200l-96 102v162h175v-92
q3 -3 7 -9h27l8 9v270h-45z" />
    <glyph glyph-name="k" unicode="k" horiz-adv-x="594" 
d="M229 112v-64h-158v64h33v371h-33v65h158v-65h-34v-187l184 187h-58v65h202v-65h-33l-183 -186l183 -185h33v-64h-202v64h59l-128 130l-57 -58v-72h34zM220 137v37q8 9 16.5 17t16.5 15q20 -20 35 -36t32 -33h-24v-115h252v115h-48l-158 160l158 161h48v115h-252v-115h23
l-99 -101v101h34v115h-208v-115h33v-321h-33v-115h208v115h-34zM275 1v151l-1 1v-152h-249v157h33v278h-33v158h249v-152l1 1v151h294v-158h-60l-137 -139l137 -139h60v-157h-294zM241 409l27 27h-27v-27zM241 158h28l-18 19q-2 -3 -5 -5.5t-5 -5.5v-8z" />
    <glyph glyph-name="l" unicode="l" horiz-adv-x="470" 
d="M188 112h153v33h61v-97h-333v64h32v371h-32v65h150v-65h-31v-371zM212 458h31v115h-198v-115h32v-321h-32v-115h381v149h-109v-34h-105v321zM231 436v-278h66v34h148v-191h-420v157h32v278h-32v158h238v-158h-32z" />
    <glyph glyph-name="m" unicode="m" horiz-adv-x="714" 
d="M642 548v-65h-35v-371h35v-64h-163v64h34v282l-157 -255l-155 255v-282h34v-64h-163v64h34v371h-34v65h127l157 -257l158 257h128zM498 573q-33 -54 -70 -115t-72 -118l-143 233h-167v-115h35v-321h-35v-115h215v115h-35v165l130 -213q29 47 63.5 103t67.5 110v-165h-34
v-115h214v115h-34v321h34v115h-169zM689 594v-158h-35v-278h35v-157h-258v157h35v70q-30 -49 -59.5 -96.5t-50.5 -82.5l-108 178v-69h34v-157h-257v157h34v278h-34v158h200l131 -214q33 54 67.5 109.5t63.5 104.5h202z" />
    <glyph glyph-name="n" unicode="n" horiz-adv-x="600" 
d="M371 483v65h158v-65h-33v-371h33v-64h-133l-200 338v-274h33v-64h-158v64h33v371h-33v65h128l205 -346v281h-33zM379 458v-165l-166 280h-167v-115h33v-321h-33v-115h208v115h-33v158l161 -273h172v115h-33v321h33v115h-208v-115h33zM358 368v68h-33v158h250v-158h-34
v-278h34v-157h-204l-130 219v-62h34v-157h-250v157h33v278h-33v158h200z" />
    <glyph glyph-name="o" unicode="o" horiz-adv-x="483" 
d="M139 548h204l71 -74v-352l-71 -74h-204l-71 74v352zM292 483h-103l-33 -35v-301l33 -35h103l34 35v301zM302 437v-280l-19 -20h-84q-10 12 -19 19v282l18 20h86zM44 484v-372l85 -90h224l85 90v372l-85 89h-224zM120 594h242l96 -101v-391l-96 -101h-242l-95 101v391z
M276 436h-69l-7 -7v-262q3 -3 7 -9h67l8 9v263z" />
    <glyph glyph-name="p" unicode="p" horiz-adv-x="496" 
d="M189 260v-148h32v-64h-152v64h32v371h-32v65h287l71 -74v-139l-71 -75h-167zM338 361v87l-33 35h-116v-158h116zM295 350h-82v108h83l18 -20v-68zM366 235l85 90v159l-85 89h-321v-115h32v-321h-32v-115h200v115h-32v98h153zM233 214v-56h32v-157h-240v157h32v278h-32
v158h349l97 -101v-177l-97 -102h-141zM294 378v51l-7 7h-54v-64h55z" />
    <glyph glyph-name="q" unicode="q" horiz-adv-x="557" 
d="M142 548h210l71 -74v-310l45 -46l-40 -41l-24 25l-52 -54h-210l-72 74v352zM299 483h-106l-33 -35v-301l33 -35h106l35 35v27l-77 79l40 42l37 -38v191zM309 437v-119l-12 12l-74 -77l86 -89v-7l-19 -20h-86q-5 6 -10 10.5t-10 8.5v282l19 20h87zM46 484v-372l86 -90h229
l43 44l24 -24l75 76q-10 11 -26.5 27t-28.5 29v310l-87 89h-229zM123 594h247l98 -101v-310q8 -8 17.5 -17t18.5 -18.5t16.5 -17.5t11.5 -12l-104 -107l-24 25l-34 -35h-247l-98 101v391zM282 436h-70l-7 -7v-164l84 87v78zM205 242v-75q1 -2 3 -4.5t4 -4.5h69l2 3z" />
    <glyph glyph-name="r" unicode="r" horiz-adv-x="536" 
d="M70 48v64h33v371h-33v65h292l72 -74v-116l-49 -51l49 -50v-145h32v-64h-122v192l-33 35h-119v-163h33v-64h-155zM344 375v73l-33 35h-119v-144h119zM300 365h-83v93h84l19 -20v-54zM249 22v115h-32v113h83q5 -6 10 -10t10 -9v-209h171v115h-33v130l-39 40l39 41v136
l-86 89h-326v-115h32v-321h-32v-115h203zM25 1v157h33v278h-33v158h356l98 -101v-154l-31 -32l31 -31v-118h32v-157h-212v220q-1 1 -3 3.5t-4 4.5h-55v-71h33v-157h-245zM299 393v36l-7 7h-55v-50h56z" />
    <glyph glyph-name="s" unicode="s" horiz-adv-x="483" 
d="M139 264l-71 75v135l71 74h204l71 -74v-65h-88v39l-34 35h-103l-33 -35v-84l33 -36h154l71 -74v-132l-71 -74h-204l-71 74v61h88v-36l33 -35h103l34 35v82l-34 35h-153zM284 238q6 -5 9.5 -10t8.5 -10v-61l-19 -20h-84q-10 12 -19 19v53h-136v-97l85 -90h224l85 90v152
l-85 90h-154q-5 6 -9.5 10t-9.5 9v65l18 20h86q6 -6 9.5 -11t8.5 -10v-54h136v101l-85 89h-224l-85 -89v-156l85 -90h155zM25 230h83l-83 89v174l95 101h242l96 -101v-131h-84l84 -88v-172l-96 -101h-242l-95 101v128zM200 383q2 -1 3.5 -3.5t3.5 -4.5h75v56q-2 2 -2.5 1.5
t-3.5 3.5h-69l-7 -7v-46zM200 217v-50q3 -3 7 -9h67l8 9v44q-2 2 -2.5 2t-3.5 4h-76z" />
    <glyph glyph-name="t" unicode="t" horiz-adv-x="539" 
d="M406 483h-92v-370h33v-65h-154v65h32v370h-93v-34h-62v99h399v-99h-63v34zM382 424h112v149h-448v-149h111v33h44v-319h-33v-115h203v115h-32v319h43v-33zM362 436h-3v-277h33v-157h-244v157h32v277h-3v-33h-152v191h489v-191h-152v33z" />
    <glyph glyph-name="u" unicode="u" horiz-adv-x="563" 
d="M388 48h-212l-72 74v361h-33v65h156v-65h-33v-336l34 -35h107l35 35v336h-33v65h156v-65h-33v-361zM485 112v346h33v115h-206v-115h33v-301l-20 -20h-86l-10.5 10.5t-9.5 8.5v302h33v115h-206v-115h33v-346l87 -90h232zM407 1h-250l-99 101v334h-33v158h247v-158h-32
v-269q1 -2 3 -4.5t4 -4.5h69l8 9v269h-33v158h247v-158h-32v-334z" />
    <glyph glyph-name="v" unicode="v" horiz-adv-x="625" 
d="M383 483v65h171v-65h-41l-123 -371h40v-64h-236v64h35l-123 371h-35v65h164v-65h-31l106 -317l105 317h-32zM309 246q-12 35 -20.5 61t-16.5 49.5t-16 47.5l-18 54h22v115h-214v-115h42q28 -85 53.5 -162t52.5 -159h-25v-115h286v115h-31l28 84t25.5 77t25.5 76.5
t27 83.5h49v115h-221v-115h21q-17 -53 -35 -107.5t-35 -104.5zM310 312q10 31 20 61.5t21 62.5h-14v158h263v-158h-54q-12 -38 -23 -70.5l-22 -65t-23 -66.5t-25 -76h23v-157h-328v157h16q-12 36 -23 69.5l-22 67t-22.5 68.5t-23.5 73h-48v158h256v-158h-13q4 -14 7.5 -24.5
t8 -23.5t10.5 -30.5t16 -45.5z" />
    <glyph glyph-name="w" unicode="w" horiz-adv-x="1028" 
d="M453 112v-64h-241v64h36l-132 371h-41v65h184v-65h-38l113 -316l113 316h-34v65h202v-65h-32l112 -316l112 316h-33v65h180v-65h-42l-132 -371h36v-64h-241v64h35l-96 266l-94 -266h33zM514 300q10 -29 17.5 -49.5t13.5 -38t12.5 -35t15.5 -40.5h-25v-115h295v115h-27
q16 45 30 84t27.5 77t27.5 76.5t29 83.5h51v115h-234v-115h23q-20 -59 -38.5 -108.5t-36.5 -101.5q-12 35 -21.5 61t-18 49t-17 46.5t-19.5 53.5h23v115h-256v-115h23q-11 -30 -20.5 -57t-18.5 -52.5t-17.5 -50t-18.5 -51.5q-12 34 -21.5 60t-17.5 49.5t-17 47.5t-19 54h27
v115h-238v-115h49q30 -85 57 -162t56 -159h-25v-115h295v115h-23q15 41 28.5 81.5t28.5 81.5zM514 232q-7 -18 -13.5 -36.5t-12.5 -37.5h15v-157h-340v157h16q-12 36 -24 69.5l-24 67t-24.5 68.5t-25.5 73h-56v158h283v-158h-18q5 -15 9 -25.5t8.5 -22.5t10.5 -29.5
t16 -46.5q10 28 20.5 57t24.5 67h-16v158h301v-158h-13q5 -15 9 -25.5t8.5 -22.5t11 -29.5t16.5 -46.5q10 28 20 57t24 67h-15v158h278v-158h-55q-14 -38 -25.5 -70.5t-23.5 -65t-24.5 -66.5t-26.5 -76h18v-157h-340v157h15l-3.5 10.5t-4.5 12t-7.5 19.5t-11.5 32z" />
    <glyph glyph-name="x" unicode="x" horiz-adv-x="715" 
d="M231 112h51v-64h-210v64h36l191 184l-191 185h-36v64h210v-64h-51l129 -125l130 125h-51v64h203v-64h-29l-190 -185l190 -184h29v-64h-203v64h51l-130 124zM360 202q20 -20 35.5 -35t31.5 -30h-14v-115h255v115h-44q-45 43 -83.5 80t-81.5 79q23 22 43 41.5t39.5 38.5
t39.5 38.5t43 40.5h44v115h-255v-115h13q-13 -12 -21.5 -20.5l-15.5 -15.5l-13.5 -13.5t-15.5 -14.5q-20 19 -35 33.5t-32 30.5h15v115h-262v-115h52q44 -43 83 -80t82 -79q-46 -44 -83.5 -80t-81.5 -79h-52v-115h262v115h-14zM329 141v-140h-304v157h63q21 20 38 36
t33 31.5t33.5 32.5t39.5 38q-37 35 -71 67.5t-73 70.5h-63v157h304v-141l14 -14t17 -16q8 8 16 15t16 15v141h298v-157h-58q-19 -18 -35.5 -34t-33 -32.5t-34 -33.5t-38.5 -38q36 -35 69 -67.5t72 -70.5h58v-157h-298v141l-31 30z" />
    <glyph glyph-name="y" unicode="y" horiz-adv-x="706" 
d="M437 43h-161v70h34v172l-203 199h-35v65h206v-65h-49l128 -126l128 126h-50v65h199v-65h-28l-203 -199v-172h34v-70zM463 138h-34v137q48 48 93.5 92.5t93.5 90.5h43v116h-250v-116h14l-67 -66l-66 66h14v116h-258v-116h51q50 -49 93.5 -92.5t93.5 -91.5v-136h-34v-121
h213v121zM485 -4h-256v163h34v106l-175 172h-63v158h300v-143q7 -6 14 -13t17 -16l32 31v141h293v-158h-56q-24 -23 -45 -44t-42 -41.5t-42.5 -41.5t-45.5 -45v-106h35v-163z" />
    <glyph glyph-name="z" unicode="z" horiz-adv-x="475" 
d="M346 112v33h61v-97h-338v64l233 371h-173v-34h-60v99h338v-65l-234 -371h173zM218 137l213 337v99h-386v-149h108v34h104l-212 -339v-97h386v149h-109v-34h-104zM302 158v34h148v-191h-425v124l196 311h-48v-33h-148v191h425v-126l-194 -310h46z" />
    <glyph glyph-name="quoteleft" unicode="&#x2018;" horiz-adv-x="162" 
d="M83 377l-30 35v64h56v-58h-26v-41zM98 400h27v94h-87v-89l60 -71v66zM110 385v-88l-85 101v111h112v-124h-27z" />
    <glyph glyph-name="quoteright" unicode="&#x2019;" horiz-adv-x="162" 
d="M53 476h56v-64l-29 -35v41h-27v58zM38 400h27v-66l60 71v89h-87v-94zM25 509h112v-111l-85 -101v88h-27v124z" />
    <glyph glyph-name="quotedblleft" unicode="&#x201c;" horiz-adv-x="420" 
d="M113 377l-45 35v64h86v-58h-41v-41zM312 377l-46 35v64h87v-58h-41v-41zM136 400h41v94h-132v-89l91 -71v66zM335 400h41v94h-133v-90l92 -69v65zM156 385v-88l-131 101v111h172v-124h-41zM355 385v-85l-131 98v111h171v-124h-40z" />
    <glyph glyph-name="quotedblright" unicode="&#x201d;" horiz-adv-x="420" 
d="M266 476h87v-64l-45 -35v41h-42v58zM68 476h86v-64l-45 -35v41h-41v58zM45 400h41v-66l91 71v89h-132v-94zM243 400h41v-66l92 71v89h-133v-94zM224 509h171v-111l-130 -101v88h-41v124zM25 509h172v-111l-131 -101v88h-41v124z" />
    <glyph glyph-name="bullet" unicode="&#x2022;" horiz-adv-x="458" 
d="M69 342q0 33 12.5 62t34.5 51t51 34.5t62 12.5t62.5 -12.5t51.5 -34.5t34.5 -51t12.5 -62t-12.5 -62.5t-34.5 -51.5t-51.5 -34.5t-62.5 -12.5t-62 12.5t-51 34.5t-34.5 51.5t-12.5 62.5zM45 342q0 -39 14.5 -72.5t39.5 -58.5t58.5 -39.5t71.5 -14.5q39 0 72.5 14.5
t58.5 39.5t39.5 58.5t14.5 72.5q0 38 -14.5 71.5t-39.5 58.5t-58.5 39.5t-72.5 14.5q-38 0 -71.5 -14.5t-58.5 -39.5t-39.5 -58.5t-14.5 -71.5zM25 342q0 42 16 79t44 65t65 44t79 16t79.5 -16t65 -44t43.5 -65t16 -79t-16 -79.5t-43.5 -65t-65 -43.5t-79.5 -16t-79 16
t-65 43.5t-44 65t-16 79.5z" />
    </font>
</defs>
</svg>
