<?xml version="1.0" standalone="no"?>
<!DOCTYPE svg PUBLIC "-//W3C//DTD SVG 1.1//EN" "http://www.w3.org/Graphics/SVG/1.1/DTD/svg11.dtd" >
<svg xmlns="http://www.w3.org/2000/svg" xmlns:xlink="http://www.w3.org/1999/xlink" version="1.1">
<metadata>
Created by FontForge 20170731 at Sun Apr  8 01:39:56 2012
 By Aleksey,,,
1.2, Copyright Castcraft Software, Inc. 1990.
</metadata>
<defs>
<font id="OPTIJaffaGothicBold-Outline" horiz-adv-x="565" >
  <font-face 
    font-family="OPTIJaffaGothicBold"
    font-weight="400"
    font-stretch="normal"
    units-per-em="1000"
    panose-1="0 0 0 0 0 0 0 0 0 0"
    ascent="800"
    descent="-200"
    x-height="617"
    cap-height="802"
    bbox="-76 -236 708 1028.1"
    underline-thickness="59"
    underline-position="-223"
    unicode-range="U+0020-FB02"
  />
<missing-glyph horiz-adv-x="280" 
 />
    <glyph glyph-name=".notdef" horiz-adv-x="280" 
 />
    <glyph glyph-name=".null" horiz-adv-x="0" 
 />
    <glyph glyph-name="nonmarkingreturn" horiz-adv-x="333" 
 />
    <glyph glyph-name="space" unicode=" " horiz-adv-x="241" 
 />
    <glyph glyph-name="exclam" unicode="!" horiz-adv-x="244" 
d="M54 774l10 10h127l10 -10v-605l-10 -10h-127l-10 10v605zM74 764v-585h107v585h-107zM53 135l10 10h130l10 -10v-135l-10 -10h-130l-10 10v135zM73 125v-115h110v115h-110z" />
    <glyph glyph-name="dollar" unicode="$" horiz-adv-x="522" 
d="M234 153v187q-94 7 -119 18q-47 20 -57 90q-4 26 -4 63v121q0 103 44 142q23 21 54.5 27.5t81.5 7.5v41l10 10h46l10 -10v-43q108 -6 151 -47q10 -10 16.5 -23.5t9 -33t3 -30.5t0 -35.5t-0.5 -28.5v-70l-10 -10h-155l-10 10v32q0 68 -6 76v-146q161 -2 178 -116
q3 -24 3 -66v-157q0 -43 -2.5 -66t-14 -47t-36 -37t-66.5 -20q-27 -5 -58 -7v-32l-10 -10h-46l-10 10v33q-109 6 -145 41t-36 151v92v35l10 10h154l10 -10v-58v-60q0 -21 5 -34zM254 840v-41l-10 -10q-34 0 -50 -1t-39.5 -6t-35 -15t-22.5 -29t-17 -47q-6 -32 -6 -59v-121
q0 -103 36 -128q9 -6 21.5 -10t29.5 -6.5t29.5 -3.5t31 -2.5t23.5 -1.5l9 -10v-215l-10 -10q-35 0 -35 63v60v48h-134v-25v-92q0 -58 6.5 -90t28.5 -50t50.5 -24t86.5 -9l9 -10v-32h26v31l9 10q86 8 111 19q55 24 57 104v35v157v7q0 26 -0.5 41t-6.5 36.5t-18 34.5
q-41 43 -146 43l-10 10v169l10 10q12 0 19.5 -4.5t10.5 -15t3.5 -16.5t1.5 -20q0 -11 0.5 -32.5t0.5 -32.5h135v60q0 4 0.5 25t0 32t-2 29t-7 30.5t-13.5 20.5q-21 20 -67.5 30.5t-79.5 10.5l-10 10v43h-26zM232 636q-4 -16 -4 -59q0 -36 4 -50l1 -4v115zM213 641
q6 26 30 27l10 -10v-159l-10 -10q-35 0 -35 88q0 47 5 64zM301 153q3 11 3 35v100q0 22 -3 30v-165zM281 136v200l11 10q32 -2 32 -58v-100q0 -14 -0.5 -20.5t-3 -18t-9.5 -17t-19 -6.5z" />
    <glyph glyph-name="percent" unicode="%" horiz-adv-x="752" 
d="M417 845l10 8h33l10 -12l-132 -843l-10 -8h-32l-10 12zM436 833l-128 -823h11l129 823h-12zM404 403q3 80 74 102q14 4 54 6.5t85.5 -3t60.5 -21.5q6 -7 11 -15t8 -14.5t5.5 -17t3.5 -16.5t1.5 -18t0.5 -16.5v-18.5v-17v-175v-18.5v-20.5t-1 -19t-2.5 -20t-5 -17
t-8 -17.5t-12 -14t-16.5 -12.5q-24 -13 -110 -13t-110 14q-10 6 -17 14t-11 19t-6.5 20t-3.5 23.5t-1.5 22t0 23.5t0.5 20v175v45zM424 402v-44v-175v-19.5v-25t1.5 -23t4.5 -24.5t9 -18.5t14 -15.5q19 -12 100 -11t100 12q10 6 17 15t10.5 17t5.5 23t2.5 21.5t0 24
t-0.5 20.5v175v16.5v19t-0.5 17.5t-2 19t-4.5 16.5t-7 17t-10 13.5q-16 17 -90 18t-90 -6q-33 -10 -45.5 -29.5t-14.5 -53.5zM532 373q-1 -9 -1 -65v-85q0 -2 -0.5 -13.5t-0.5 -21.5t1 -22.5t3.5 -21.5t6.5 -12q9 -6 22 -2.5t17 15.5q2 7 2 28v54v83q0 2 0.5 15.5t0 22
t-1.5 21.5t-3.5 21.5t-7.5 13.5q-1 1 -11 1.5t-12 -1.5h-2q-10 -9 -13 -31zM512 375q3 32 22 45q9 6 26.5 5t23.5 -7q7 -7 11 -16.5t5.5 -24t2 -22.5t0 -25.5t-0.5 -19.5v-83v-54q0 -47 -25 -60q-8 -4 -23.5 -4t-24.5 7q-7 5 -11.5 15t-6 23.5t-1.5 24t0.5 26t0.5 18.5v85
q0 58 1 67zM54 761q3 80 74 102q15 4 55 6.5t85 -3t60 -21.5q6 -7 11 -15t8 -14.5t5.5 -17t3.5 -16t1.5 -18t0.5 -16.5v-18v-17v-176v-18.5v-20.5t-1 -18.5t-2.5 -20t-5 -17.5t-8 -17t-12 -13.5t-16.5 -12.5q-24 -13 -110.5 -13t-110.5 14q-11 7 -18.5 18t-11.5 20t-6 27.5
t-2.5 25t0 28.5t0.5 23v174v45zM74 760v-44v-174v-23q-1 -23 0 -31.5t3 -26.5t8.5 -28.5t16.5 -16.5q19 -12 100.5 -11t100.5 12q10 6 17 15t10.5 16.5t5.5 22.5t2.5 21.5t0 24t-0.5 20.5v176v16.5v19t-0.5 17.5t-2 18.5t-4.5 16t-7 17t-10 13.5q-16 17 -89.5 18t-90.5 -6
q-33 -10 -45.5 -29.5t-14.5 -53.5zM221 762q-34 12 -39 -30q-1 -9 -1 -65v-86q0 -2 -0.5 -13.5t-0.5 -21.5t1 -22t3.5 -21t6.5 -12q8 -7 21.5 -3t17.5 16q2 7 2 28v54v83q0 2 0.5 15t0 22t-1 21.5t-3.5 21t-7 13.5zM162 734q7 59 61 48q7 -1 12.5 -6.5t9 -14.5t5 -18t2 -21
t1 -20t0 -19t-0.5 -14v-83v-54q0 -49 -25 -60q-8 -4 -22 -4t-26 7q-7 5 -11.5 15t-6 23.5t-1.5 23.5t0.5 25.5t0.5 18.5v86q0 58 1 67z" />
    <glyph glyph-name="ampersand" unicode="&#x26;" horiz-adv-x="520" 
d="M460 514l-10 -10h-154l-10 10v43v14.5v21t-1 21.5t-2.5 23t-5 17.5t-8.5 12.5q-10 8 -28 0q-16 -8 -17 -36q-6 -88 4 -119.5t72 -93.5v22l10 10h149l10 -10v-208l58 -58l3 -7v-193l-16 -8l-73 60q-31 -26 -99 -37.5t-134 -6.5t-100 20q-24 11 -38.5 28t-20 42t-6.5 41.5
t-1 47.5v3.5v3.5v3v135v8q0 24 1.5 35.5t10 27t27.5 27.5q-18 26 -22.5 42t-4.5 52v74q0 2 -0.5 32.5t0 42t3 38.5t8 41.5t15.5 31t25 25.5q42 24 145 25.5t153 -23.5q57 -31 57 -166v-105zM440 524v95q0 123 -47 148q-46 23 -143.5 21.5t-134.5 -23.5q-12 -7 -20.5 -21.5
t-13 -29.5t-6.5 -38.5t-2 -37t0.5 -37.5t0.5 -29v-74q0 -36 4.5 -49t25.5 -42l-3 -15q-7 -4 -12.5 -7.5t-9.5 -8.5t-7 -7.5t-5 -9t-3 -8t-1.5 -10t-0.5 -10v-12.5v-13v-135v-18v-20t0.5 -18.5t2 -19.5t4 -17.5t6.5 -18t9.5 -15t13.5 -14t18 -10.5q33 -15 99 -18.5t131 8
t88 36.5l13 1l63 -52v168l-58 58l-3 7v202h-129v-36l-17 -7q-77 75 -91.5 112t-7.5 134q2 40 29 52q28 13 48 -2q6 -5 10.5 -12t7 -17.5t4.5 -18.5t2.5 -22t0.5 -20v-20.5v-15.5v-33h134zM291 136q1 5 1 31l-73 74v-13v-15v-21.5t0.5 -22.5t2.5 -23t6 -17.5t10 -11.5
q13 -8 31.5 -2t21.5 21zM311 132q-5 -25 -33 -35.5t-50 2.5q-8 5 -14 15t-9 19.5t-4.5 26t-1.5 24v25v19.5v38l17 7l93 -95l3 -7q0 -35 -1 -39z" />
    <glyph glyph-name="quotesingle" unicode="'" horiz-adv-x="243" 
d="M54 789l10 10h126l10 -10v-129l-2 -5l-64 -99l-8 -5h-68l-9 15l45 81h-30l-10 10v132zM74 779v-112h37l9 -15l-45 -81h46l59 92v116h-106z" />
    <glyph glyph-name="parenleft" unicode="(" horiz-adv-x="277" 
d="M54 624q0 27 0.5 38t3.5 33.5t9.5 34t20 26t33.5 24.5q37 19 160 19l10 -10v-126l-9 -10q-29 -2 -38 -8.5t-10 -30.5v-42v-365q0 -57 4 -66q5 -11 44 -15l9 -10v-127l-10 -10q-123 0 -160 19q-20 10 -33.5 24.5t-20 26t-9.5 34t-3.5 33.5t-0.5 38v470zM74 624v-470
q0 -68 10 -92q12 -29 45 -46q30 -15 142 -17v108q-17 2 -28 7t-17 9.5t-9 17t-3.5 18t0 24t0.5 24.5v365q0 6 -0.5 21t0 20.5l1.5 16.5t5 16t10 11.5t16.5 9.5t24.5 5v107q-112 -2 -142 -17q-20 -10 -32 -23.5t-16.5 -33t-5.5 -32.5t-1 -39v-10z" />
    <glyph glyph-name="parenright" unicode=")" horiz-adv-x="277" 
d="M234 154q0 -27 -0.5 -38t-3.5 -33.5t-9.5 -34t-20 -26t-33.5 -24.5q-37 -19 -160 -19l-10 10v127l9 10q29 2 38 8.5t10 29.5v43v365q0 56 -4 65q-5 12 -44 16l-9 10v126l10 10q123 0 160 -19q20 -10 33.5 -24.5t20 -26t9.5 -34t3.5 -33.5t0.5 -38v-470zM214 154v470
q0 68 -10 92q-12 29 -45 46q-30 15 -142 17v-107q14 -2 24.5 -5t16.5 -9.5t10 -11.5t5 -16l1.5 -16.5t0 -20.5t-0.5 -21v-365q0 -6 0.5 -24.5t0 -24t-3.5 -18t-9 -17t-17 -9.5t-28 -7v-108q112 2 142 17q20 10 32 23.5t16.5 33t5.5 32.5t1 39v10z" />
    <glyph glyph-name="asterisk" unicode="*" horiz-adv-x="262" 
d="M108 743l10 10h35l10 -10v-29l25 14l14 -4l18 -32l-4 -14l-25 -15l28 -17l4 -14l-18 -33l-14 -4l-26 14v-25l-10 -10h-37l-10 10v27l-25 -15l-13 3l-19 28l2 14l30 22l-29 14l-4 13l16 32l13 5l29 -14v30zM128 733v-36l-14 -9l-34 17l-8 -15l35 -17l1 -17l-35 -25l8 -13
l32 19l15 -9v-34h17v31l15 9l32 -17l9 16l-34 21v18l31 18l-9 15l-31 -17l-15 9v36h-15z" />
    <glyph glyph-name="comma" unicode="," horiz-adv-x="243" 
d="M54 132l10 10h126l10 -10v-130l-2 -5l-64 -98l-8 -5h-68l-9 15l45 81h-30l-10 10v132zM74 122v-112h37l9 -15l-45 -81h46l59 91v117h-106z" />
    <glyph glyph-name="hyphen" unicode="-" horiz-adv-x="388" 
d="M54 472l10 10h270l10 -10v-112l-10 -10h-270l-10 10v112zM74 462v-92h250v92h-250z" />
    <glyph glyph-name="period" unicode="." horiz-adv-x="244" 
d="M54 139l10 10h127l10 -10v-139l-10 -10h-127l-10 10v139zM74 129v-119h107v119h-107z" />
    <glyph glyph-name="slash" unicode="/" horiz-adv-x="259" 
d="M211 797l10 -12l-121 -787l-10 -8h-31l-10 12l120 787l10 8h32zM199 777h-11l-117 -767h10z" />
    <glyph glyph-name="zero" unicode="0" 
d="M216 810q58 6 138 -1.5t109 -32.5q36 -33 36 -140v-452v-22v-25.5t-1 -23.5t-3 -25.5t-5.5 -22.5t-9 -22.5t-14 -17.5t-19.5 -15q-48 -26 -157 -29t-158 23q-13 7 -23 16t-15.5 22.5t-9.5 21t-5.5 26.5t-2 24.5t0 28.5t0.5 25v470v14.5v16.5t0.5 15.5t1 17t2.5 15t4 16
t5.5 14t7.5 14t10 11.5t13 10q33 22 95 28zM218 790q-43 -4 -67.5 -13t-36.5 -30t-14.5 -42.5t-2.5 -66.5v-470q0 -4 -0.5 -26t0 -29t3 -25t7 -27.5t13.5 -20.5t22 -18q43 -23 147.5 -20.5t147.5 26.5q10 6 18 14.5t12.5 20.5t7 22t3.5 26.5t1.5 25t0 25.5t-0.5 22v452
q0 93 -27.5 121t-126.5 34q-61 4 -107 -1zM253 625q-1 -9 -1 -66v-320q0 -5 -0.5 -16.5t-0.5 -19t0.5 -19.5t2 -19t5.5 -16t10 -10.5t15 -4t22 4.5q7 3 11 12t5.5 24t2 25.5t0 26t-0.5 16.5v318v55q0 33 -19 42q-21 12 -43 -3q-8 -6 -9 -30zM233 627q2 33 17 44
q12 9 31 10.5t34 -5.5q29 -14 29 -60v-55v-318v-22q1 -22 0.5 -31.5t-3 -27t-9.5 -27.5t-18 -14q-34 -13 -55 0t-26 49q-1 9 -1 69v320q0 59 1 68z" />
    <glyph glyph-name="one" unicode="1" 
d="M366 801l10 -10v-791l-10 -10h-156l-10 10v791l10 10h156zM356 781h-136v-771h136v771z" />
    <glyph glyph-name="two" unicode="2" 
d="M310 156h176l10 -10v-146l-10 -10h-390l-10 10v76q0 49 8.5 75t38.5 69l112 160q56 78 69 126q4 12 5.5 42t1.5 54.5t-1 25.5q-8 16 -24.5 21t-31.5 -7q-4 -3 -6.5 -13.5t-3.5 -25t-1 -26.5t0.5 -26t0.5 -16v-47l-10 -10h-152l-10 10v122q0 5 -0.5 26t0 29t2 26.5t5 28.5
t9 23.5t15.5 23t23 17.5q47 26 149 27.5t154 -27.5q27 -16 40 -47.5t14 -51t1 -63.5v-79q0 -84 -8 -110t-60 -103zM283 152l127 190q49 73 56.5 96.5t7.5 104.5v79v10q0 33 -1.5 52t-12 44t-31.5 38q-47 26 -144 25.5t-139 -25.5q-13 -7 -22 -19t-13.5 -22.5t-6.5 -29
t-2.5 -28t0 -31t0.5 -26.5v-112h132v37q0 3 -0.5 20.5t-0.5 29.5t1.5 28.5t6 27.5t11.5 17q23 18 48.5 11t37.5 -33q3 -4 2.5 -60.5t-6.5 -75.5q-6 -22 -18 -45.5t-21.5 -38t-33.5 -48.5l-112 -160q-28 -40 -35.5 -63t-7.5 -69v-66h370v126h-185z" />
    <glyph glyph-name="three" unicode="3" 
d="M497 522q-1 -32 -11 -52t-37 -33q14 -5 24 -11t16 -16t10 -14t5.5 -19.5t2 -18.5t0 -23.5t-0.5 -22.5v-114q0 -95 -4 -117q-9 -42 -47 -65q-46 -27 -163.5 -27t-163.5 27q-20 12 -32 30.5t-16 46.5t-5 43t-1 47v131l10 10h155l10 -10v-58q0 -3 -0.5 -18.5t-0.5 -27
t1.5 -26.5t5.5 -25t11 -14q20 -12 45 -1q17 8 21 36q5 15 2.5 88t-16.5 85q-13 11 -66 11l-10 10v108l10 10h10.5h12t11 0.5t11 2t9 4t9 6.5t6.5 10q6 11 6.5 66t-2.5 62q-5 17 -25.5 23t-33.5 -6q-5 -5 -8 -15t-4 -24.5t-1.5 -25.5t0 -26t0.5 -17v-23l-10 -10h-18h-137
l-10 10v74q0 2 -0.5 26.5t0 31.5t2 28.5t5 31.5t9.5 25t15.5 25t22.5 17q40 22 156.5 23t156.5 -20q11 -6 19.5 -14t14 -15t9 -19t5.5 -19t3 -22t1 -20.5v-22.5v-21v-69v-47zM477 523v46v69q0 2 0.5 23t0 27.5t-3 24t-6.5 25.5t-12.5 18.5t-20.5 16.5q-36 19 -146.5 18
t-146.5 -21q-13 -7 -22 -20t-13.5 -24t-6.5 -32t-2.5 -30.5t0 -33.5t0.5 -27v-64h127h8v13q0 3 -0.5 21.5t0 29t2 27t6 27.5t11.5 17q22 19 52.5 10.5t38.5 -35.5q4 -9 4 -68.5t-8 -73.5q-11 -23 -29 -29t-48 -6v-88q28 0 42.5 -2.5t27 -15.5t17.5 -39q13 -74 3 -149
q-6 -39 -33 -52q-34 -16 -63 1q-10 6 -16.5 17.5t-8.5 28.5t-2.5 28.5t0 31t0.5 23.5v48h-135v-121v-14.5v-16.5t0.5 -16t1 -18t2.5 -16.5t4 -17t5.5 -14.5t7.5 -14.5t10 -11.5t13 -10q41 -25 153.5 -25t153.5 25q14 8 22.5 18.5t12.5 24.5t5 24.5t1 29.5v67v114v20.5v18.5
t-0.5 15t-2.5 13.5t-5 11t-8 10.5t-12 8.5t-16.5 9t-22.5 7.5v19q33 12 45 28.5t13 49.5z" />
    <glyph glyph-name="four" unicode="4" 
d="M54 332l1 5l258 457l9 5h142l10 -10v-449h38l10 -10v-140l-10 -10h-38v-180l-10 -10h-155l-10 10v180h-235l-10 10v142zM74 329v-129h235l10 -10v-180h135v180l10 10h38v120h-38l-10 10v449h-126zM230 340h69v141zM205 334l95 194l19 -4v-194l-10 -10h-95z" />
    <glyph glyph-name="five" unicode="5" 
d="M479 806l10 -10v-133l-10 -10h-232v-125q33 12 113 9t110 -29q15 -13 22.5 -36t8 -36t0.5 -44v-223v-21.5v-23t-1 -21t-3 -22t-6 -19.5t-9.5 -19.5t-14.5 -15.5t-20 -14q-53 -27 -162.5 -28t-159.5 28q-10 6 -18 13t-13.5 16.5t-10 16.5t-7 19.5t-4 19t-2 21.5t-0.5 19.5
v21.5v20v92l10 10h159l10 -10v-31q0 -2 -0.5 -16t-0.5 -24.5t1 -24t5 -23t10 -12.5q4 -3 20.5 -2t22.5 5q5 2 8 6.5t4 11t1.5 11t1 12.5t0.5 10v52v43v36q0 42 -19 54q-4 2 -18 2t-18 -2q-9 -7 -22 -30l-9 -5h-152l-10 10v441l10 10h395zM469 786h-375v-421h136q12 20 25 31
q9 6 29.5 6t30.5 -6q18 -11 22.5 -27.5t4.5 -42.5v-36v-43q0 -65 -3 -85q-4 -26 -22 -36q-10 -5 -30.5 -6.5t-32.5 3.5q-10 6 -16 16.5t-7.5 25.5t-2 25.5t0 28.5t0.5 22v21h-139v-82v-20v-21.5t0.5 -20t2.5 -21t5 -19t8 -19t12.5 -15t16.5 -13.5q45 -27 149 -26.5t153 26.5
q13 6 21.5 16.5t13.5 19.5t7 25.5t2.5 24t0 28t-0.5 24.5v223v6q0 72 -25 94q-18 17 -66 22t-91 1.5t-58 -10.5l-14 9v149l10 10h232v113z" />
    <glyph glyph-name="six" unicode="6" 
d="M501 564l-10 -10h-156l-10 10q0 3 0.5 17t0.5 24t-1.5 23t-6 22t-11.5 13q-5 4 -18.5 4t-22.5 -6q-6 -5 -10.5 -15t-5.5 -24.5t-1.5 -25t0 -26.5t0.5 -18v-35q36 7 117.5 2.5t105.5 -23.5q5 -4 9.5 -9t7.5 -9.5t5.5 -11t4 -10.5t2.5 -12t1.5 -11.5t1 -12.5t0.5 -11.5
v-12.5v-12v-201v-20.5v-22.5t-0.5 -20.5t-2.5 -22.5t-4.5 -19.5t-7 -20.5t-10.5 -17t-14.5 -17t-19.5 -13q-43 -25 -157.5 -25t-160.5 28q-27 16 -39.5 44t-14 46.5t-1.5 58.5v484q0 35 2 56t15 48t38 40q47 26 160.5 26t159.5 -26q13 -8 23 -17t15.5 -22t9 -21.5t5 -26
t2 -25t0 -28t-0.5 -25.5v-61zM481 574v51q0 4 0.5 26t0 29.5t-2.5 25t-7 27t-13.5 21t-21.5 18.5q-42 24 -150 23.5t-150 -23.5q-21 -12 -32 -36.5t-12 -41t-1 -48.5v-484v-8q0 -31 1.5 -48t12 -39.5t31.5 -35.5q42 -26 150.5 -26t147.5 23q12 6 20.5 14.5t13.5 21.5
t8.5 20.5t5 25.5t1.5 23v27v23v201v13.5v16t-0.5 14.5t-2 15.5t-4.5 13t-7 13t-10 10.5q-21 17 -106.5 20t-112.5 -5l-12 10v47q0 1 -0.5 23t0.5 31t3 26t8 28t16 17q13 9 32 9.5t29 -5.5q8 -5 14 -13t8.5 -15.5t4 -20.5t2 -19.5t0 -21.5t-0.5 -17h136zM252 333
q-1 -9 -1 -67v-85q0 -31 16 -40q21 -12 42 0q12 6 15 25q1 8 1 81v24q0 3 0.5 17.5t0.5 24.5t-1.5 23t-6 22.5t-11.5 13.5q-9 5 -21 3.5t-19 -5.5q-12 -8 -15 -37zM232 336q4 37 23 50q11 8 29 9.5t33 -5.5q10 -6 16.5 -16.5t9 -26t3 -24.5t0 -29t-0.5 -23v-24q0 -67 -2 -84
q-4 -32 -32.5 -43.5t-53.5 3.5q-26 15 -26 58v85q0 60 1 70z" />
    <glyph glyph-name="seven" unicode="7" 
d="M486 797l10 -10v-133l-1 -3l-222 -654l-9 -7h-164l-10 13l209 641h-208l-10 10v133l10 10h395zM476 777h-375v-113h212l10 -13l-209 -641h143l219 646v121z" />
    <glyph glyph-name="eight" unicode="8" 
d="M500 522q0 -56 -41 -81q29 -14 38.5 -32t9.5 -56v-174q0 -41 -1 -62.5t-14 -55.5t-38 -48q-53 -29 -166 -31t-166 29q-20 12 -32 30.5t-16 47t-5 43.5t-1 47v160q0 24 0.5 32t4 23t13 24.5t26.5 19.5q-10 7 -18 14.5t-12.5 17.5t-7.5 16.5t-4 19.5t-1.5 18.5t0 22
t0.5 20.5v55v20v22t0.5 20t2.5 22t4.5 19t7 20t10 16.5t14 16.5t18.5 13q50 29 160 29t160 -29q13 -8 23 -17.5t15.5 -22t9.5 -22.5t5 -27l1.5 -25.5t0 -28.5t-0.5 -26v-60v-40zM480 522v40v60q0 6 0.5 26.5t0 29.5t-2.5 26.5t-6.5 27.5t-13.5 22t-22 19q-46 26 -150 26
t-150 -26q-11 -6 -19.5 -14t-13.5 -20.5t-8 -20.5t-4.5 -25t-2 -22.5t0 -26t0.5 -22.5v-55q0 -5 -0.5 -21t0 -21t1.5 -17.5t4.5 -18t8.5 -15t13.5 -16t20.5 -12.5l-1 -18q-25 -12 -35.5 -25.5t-11.5 -23.5t-1 -40v-160q0 -39 0.5 -56.5t11 -49t32.5 -44.5q48 -28 156 -26.5
t156 28.5q21 11 31.5 43t11 49.5t0.5 55.5v174q0 36 -9 49t-45 29v18q27 13 36.5 28.5t10.5 44.5zM250 637q-1 -6 -1 -45v-77q2 -14 20.5 -20t35.5 3.5t17 32.5v105q0 20 -19 28q-5 2 -21.5 0.5t-18.5 -3.5q-10 -7 -13 -24zM231 640q3 26 20 37q9 6 30.5 7.5t29.5 -2.5
q31 -12 31 -46v-105q0 -35 -28 -50t-56.5 -4.5t-28.5 36.5v1v78q0 35 2 48zM249 331q-1 -8 -1 -26v-35v-93q0 -29 19 -37q19 -9 37 -1.5t21 28.5q2 13 2 59v89q0 33 -17 43q-6 4 -21.5 3.5t-21.5 -3.5q-15 -8 -18 -27zM229 334q5 29 28 42q10 5 31 5.5t32 -5.5
q27 -16 27 -61v-89q0 -3 0.5 -19t0 -23t-2 -19t-6.5 -20.5t-12 -15.5q-11 -10 -33 -11.5t-35 4.5q-31 11 -31 55v93v35q0 21 1 29z" />
    <glyph glyph-name="nine" unicode="9" 
d="M77 239l10 10h155l10 -10v-27v-29q0 -38 14 -47q6 -2 22.5 -0.5t21.5 4.5q10 5 12.5 12t2.5 32v58v39q-37 -11 -109 -9t-104 25q-38 28 -38 103v225v19v21.5t0.5 20t2 21t4 19t6.5 19.5t9.5 16.5t13 16t17.5 12.5q47 27 159 27.5t162 -27.5q9 -5 16 -11t12 -11.5t9 -14
t6.5 -13.5t4.5 -16t3 -15.5t1.5 -17t0.5 -16v-18v-16.5v-496q0 -20 -0.5 -31.5t-3.5 -29.5t-8 -30t-15.5 -24.5t-25.5 -20.5q-48 -26 -160 -27t-161 27q-14 9 -24.5 23t-15.5 26t-7.5 34.5t-3 32t0 36t0.5 30.5v48zM97 229v-38q0 -1 -0.5 -31.5t0.5 -41.5t4.5 -33.5
t12.5 -36t23 -21.5q45 -26 151.5 -25t149.5 25q20 11 30.5 34t11.5 38.5t1 45.5v496q0 4 0.5 20.5t0 22t-1.5 19.5t-4 21l-7.5 17.5t-12.5 17.5t-18 13q-45 25 -152 25t-149 -25q-10 -6 -18 -14t-12.5 -20l-7.5 -20t-4 -24t-1.5 -23t0 -25t0.5 -21v-225q0 -66 30 -87
q42 -22 102.5 -21.5t105.5 12.5l13 -10v-52v-58q0 -28 -4.5 -40.5t-20.5 -21.5q-10 -5 -31 -6.5t-31 2.5h-1q-13 6 -18.5 18.5t-6 20t-0.5 26.5v29v17h-135zM253 635q-1 -7 -1 -76v-30q0 -67 1 -74q3 -21 20.5 -27t35.5 4q7 3 11 12.5t5.5 23t1.5 24t-0.5 25t-0.5 16.5v30
v13t0.5 19t-0.5 20t-2.5 20.5t-5.5 16t-9 9.5q-20 10 -36.5 3t-19.5 -29zM233 638q4 32 29.5 43.5t54.5 -2.5q9 -4 15 -12.5t8.5 -17.5t4 -23t2 -22t0 -23t-0.5 -18v-30q0 -4 0.5 -18.5t0.5 -23t-1.5 -22.5t-4.5 -23.5t-9 -18t-15 -13.5q-26 -14 -53 -3.5t-31 41.5
q-1 8 -1 77v30q0 71 1 79z" />
    <glyph glyph-name="colon" unicode=":" horiz-adv-x="243" 
d="M190 346l10 -10v-132l-10 -10h-126l-10 10v132l10 10h126zM180 326h-106v-112h106v112zM190 142l10 -10v-132l-10 -10h-126l-10 10v132l10 10h126zM180 122h-106v-112h106v112z" />
    <glyph glyph-name="semicolon" unicode=";" horiz-adv-x="243" 
d="M190 346l10 -10v-132l-10 -10h-126l-10 10v132l10 10h126zM180 326h-106v-112h106v112zM54 132l10 10h126l10 -10v-130l-2 -5l-64 -98l-8 -5h-68l-9 15l45 81h-30l-10 10v132zM74 122v-112h37l9 -15l-45 -81h46l59 91v117h-106z" />
    <glyph glyph-name="question" unicode="?" horiz-adv-x="522" 
d="M350 304v-111v-15l-10 -10h-155l-10 10v216v27l10 10q52 0 76 4.5t36 20.5q5 7 6.5 81.5t-3.5 89.5q-7 21 -33 23.5t-34 -24.5q-6 -21 -6 -87v-57l-10 -10h-153l-10 10v120v38t3 36.5t8.5 39.5t17 31t28.5 26q46 24 159.5 22.5t156.5 -24.5q25 -14 37.5 -47.5t13.5 -54.5
t1 -62v-169q0 -75 -25.5 -103.5t-103.5 -30.5zM340 324q63 0 84 13q17 9 25 29t9 33t1 39v169q0 27 -0.5 39.5t-4 39t-13 43t-24.5 24.5q-38 21 -147 22t-149 -20q-18 -10 -28.5 -26.5t-14 -44.5t-4 -39t-0.5 -43v-110h133v47q0 74 8 97q17 46 67 32q27 -7 38 -35
q6 -16 3.5 -96.5t-10.5 -92.5q-7 -10 -19 -17t-21 -10t-28 -4.5t-24.5 -1.5h-25.5v-17v-206h135v5v121zM174 135l10 10h156l10 -10v-135l-10 -10h-156l-10 10v135zM194 125v-115h136v115h-136z" />
    <glyph glyph-name="A" unicode="A" horiz-adv-x="501" 
d="M136 792l10 9h219l10 -9l119 -791l-10 -11h-168l-10 9l-17 179h-73l-22 -179l-10 -9h-158l-10 11zM155 781l-117 -771h137l22 179l10 9h91l10 -9l17 -179h147l-116 771h-201zM254 535l-21 -200h41zM212 326l27 254l7 103l20 -1l4 -102l25 -254l-10 -11h-63z" />
    <glyph glyph-name="B" unicode="B" horiz-adv-x="526" 
d="M54 790l10 10h238h27.5h27.5t24.5 -1t25 -4t20 -7t19.5 -11.5l14 -17.5t12.5 -24t6.5 -31q3 -20 3 -95v-46q0 -3 0.5 -22t0 -25t-1.5 -21.5t-4.5 -23t-8 -19t-12.5 -20t-19 -15.5q55 -25 55 -103q0 -7 -0.5 -23t-0.5 -24v-102q0 -113 -35 -147q-7 -7 -15.5 -12t-21.5 -8
t-21 -4.5t-25 -2.5t-22 -1h-24h-19h-244l-10 10v775v15zM74 780v-5v-765h234q111 0 134 22q29 28 29 133v102q0 8 0.5 24t0.5 23q0 39 -13 60t-50 32l-1 19q13 5 23 12t15.5 17.5t9 17.5t5 22t2 21.5t0 24.5t-0.5 23v46q0 3 0.5 23t0 29t-2 27t-4 29t-8.5 23.5t-14 20.5
q-6 5 -17 9t-21 6t-26.5 3t-24.5 1h-25h-18h-228zM235 648v-151q36 0 51.5 9.5t15.5 42.5v55q0 15 -4 24.5t-8 14.5t-15.5 7.5t-17 2.5h-22.5v-5zM215 648v15l10 10q22 0 30.5 -0.5t25 -3.5t23 -10t12.5 -20.5t6 -34.5v-55q0 -20 -5.5 -34t-13.5 -21.5t-22.5 -11t-25.5 -4.5
t-30 -1l-10 10v161zM240 142q19 0 34 -0.5t24 10.5t9 35v98q0 15 -5.5 23.5t-17.5 12t-19.5 4t-24.5 0.5v-183zM220 132v203l10 10q18 0 27 -0.5t25 -3.5t24 -8.5t14.5 -17.5t6.5 -30v-98q0 -13 -2.5 -23.5t-5 -17.5t-10.5 -11.5t-11 -7t-15.5 -4t-15.5 -1.5h-18.5h-18.5z
" />
    <glyph glyph-name="C" unicode="C" horiz-adv-x="518" 
d="M475 471l-10 -10h-156l-10 10v80q0 2 0.5 18t0.5 27t-1.5 25.5t-6 24.5t-11.5 14q-8 4 -21.5 4t-19.5 -5t-9.5 -14t-5 -21.5t-1.5 -22t0.5 -23t0.5 -16.5v-321q0 -1 -0.5 -18.5t0 -25t2.5 -21.5t7.5 -22.5t13.5 -12.5q9 -4 21.5 -3t18.5 5t9.5 13.5t4.5 24t1.5 25t0 25.5
t-0.5 16v81l10 10h156l10 -10v-128q0 -96 -4 -118q-10 -49 -46 -69q-48 -26 -164 -27.5t-155 21.5q-26 14 -39 41.5t-15 47.5t-2 57v471v19.5v21t0.5 19t2 20.5t4 18t6.5 18.5t9.5 16t13.5 16t18 12.5q37 22 152.5 24t162.5 -24q13 -8 22 -18t15 -24t9.5 -24.5t4.5 -29.5
t1.5 -28t0 -30t-0.5 -26v-134zM455 481v124q0 4 0.5 26.5t0 32t-2.5 29.5t-6.5 31t-13 23.5t-20.5 19.5q-42 23 -152 21.5t-143 -21.5q-11 -6 -18.5 -14t-12.5 -19.5t-8 -19t-4 -23t-1.5 -21.5t0 -24.5t0.5 -21.5v-471q0 -34 1 -50t12 -41t33 -37q35 -21 145 -19.5t154 25.5
q18 10 27.5 29.5t10.5 33t2 40.5v66v118h-136v-71l1 -21q0 -21 -0.5 -30t-2.5 -25.5t-7.5 -27t-13.5 -16.5q-12 -8 -29.5 -9.5t-30.5 5.5q-8 4 -14.5 10.5t-10.5 15.5t-6 16.5t-3 20t-1 18.5v20v17v321q0 1 -0.5 21t0 27.5t2.5 22.5t7.5 25t13.5 17q14 9 31.5 8.5t29.5 -5.5
q11 -5 18 -16t9.5 -28t3 -28t0 -31.5t-0.5 -23.5v-70h136z" />
    <glyph glyph-name="D" unicode="D" horiz-adv-x="526" 
d="M54 789l10 10h242q62 0 92 -4t51.5 -21.5t27 -47.5t5.5 -87v-484q0 -40 -4.5 -68t-17 -46.5t-25 -28.5t-40.5 -15t-50.5 -6t-65.5 -1h-215l-10 10v789zM74 779v-769h205h19h24.5t23.5 0.5t26.5 2.5t22.5 4.5t22.5 7.5t15.5 11q29 28 29 119v484v15v16.5t-0.5 16
t-1.5 17.5t-3 15.5t-5 16t-7.5 13t-10.5 11.5q-22 19 -128 19h-232zM233 141h15h13.5t11 0.5t10 1.5l7.5 3t6.5 5t4.5 7t4 10.5t2 14t1 17.5v36v323q0 72 -11 84q-11 11 -64 11v-513zM213 131v533l10 10q39 1 59.5 -2t31 -19t12.5 -34t2 -60v-323q0 -4 0.5 -21t0 -23t-2 -20
t-5.5 -20t-10 -14.5t-17 -12t-25 -4.5h-46z" />
    <glyph glyph-name="E" unicode="E" horiz-adv-x="470" 
d="M54 789l10 10h352l10 -10v-131l-10 -10h-187v-149h140h27l10 -10v-125v-20l-10 -10h-167v-4v-179h200l10 -10v-141l-10 -10h-365l-10 10v789zM74 779v-769h345v121h-200l-10 10v189v14l10 10h167v10v115h-17h-150l-10 10v169l10 10h187v111h-332z" />
    <glyph glyph-name="F" unicode="F" horiz-adv-x="474" 
d="M54 790l10 10h357l10 -10v-16v-116l-10 -10h-189v-148h157l10 -10v-118v-27l-10 -10h-156v-335l-10 -10h-159l-10 10v790zM74 780v-770h139v335l10 10h156v17v108h-157l-10 10v168l10 10h189v106v6h-337z" />
    <glyph glyph-name="G" unicode="G" horiz-adv-x="524" 
d="M306 271h-49l-10 10v138l10 10h213l10 -10v-419l-10 -10h-97l-10 7l-3 15q-35 -27 -98.5 -35t-123.5 13t-76 69q-8 24 -8 77v494v16.5v18.5t0.5 17t1.5 18.5t3 16t5 16.5t7 14.5t9.5 15t13 11.5t16.5 11q49 25 158.5 27.5t156.5 -22.5q11 -6 19.5 -15t14.5 -16.5t10 -21
t6 -20.5t3 -24t1 -22.5v-24.5v-22v-140l-10 -10h-155l-10 10v68v58v6.5v6.5t-0.5 6t-1 6.5t-2 5.5t-3 5.5t-4.5 4t-6 4.5q-23 11 -38.5 2.5t-19.5 -33.5q-1 -8 -1 -65v-340q0 -81 20 -92q9 -5 21.5 -5t19.5 5q6 3 10 12.5t5.5 24.5t2 25t-0.5 27v17v38zM459 494v130
q0 5 0.5 22t0 24.5t-1.5 23t-4 24.5t-7.5 20.5t-12.5 19.5t-19 14q-42 23 -146.5 21t-148.5 -26q-9 -5 -16.5 -12t-12.5 -13.5t-8.5 -17.5t-5 -17t-2.5 -20t-1 -18.5v-20v-18.5v-494q0 -26 1.5 -40t6.5 -32.5t18.5 -30.5t35.5 -21q40 -20 114.5 -15t107.5 40l17 -4l6 -23h79
v399h-193v-118h42h7l10 -10v-48q0 -2 0.5 -18t0 -24.5t-2 -23.5t-4 -24.5t-8 -19t-13.5 -14.5q-12 -7 -29.5 -7t-31.5 7q-30 17 -30 110v340q0 2 -0.5 21t0 27.5t2.5 23.5t8 24.5t15 16.5q21 15 51 6t37 -34q3 -11 3 -34v-58v-58h135z" />
    <glyph glyph-name="H" unicode="H" horiz-adv-x="529" 
d="M54 790l10 10h155l10 -10v-279v-11h82v290l10 10h154l10 -10v-790l-10 -10h-154l-10 10v338h-82v-338l-10 -10h-155l-10 10v790zM74 780v-770h135v338l10 10h102l10 -10v-338h134v770h-134v-290l-10 -10h-102l-10 10v21v269h-135z" />
    <glyph glyph-name="I" unicode="I" horiz-adv-x="269" 
d="M215 802l10 -10v-792l-10 -10h-151l-10 10v792l10 10h151zM205 782h-131v-772h131v772z" />
    <glyph glyph-name="J" unicode="J" horiz-adv-x="515" 
d="M461 795l10 -10v-625q0 -3 0.5 -24.5t0 -27t-2 -23t-5 -25.5t-9 -20.5t-15 -21.5t-22.5 -16q-44 -26 -149 -26.5t-155 26.5q-21 12 -34.5 30t-18.5 44t-6 42.5t-1 47.5v10v159l10 10h131h30l10 -10v-98q0 -92 13 -102q19 -8 30 3t14 31q2 12 2 62v554l10 10h157zM451 775
h-137v-544v-18v-22.5t-1.5 -21t-4.5 -22t-9 -16.5t-15 -14q-21 -11 -46 0q-7 5 -11.5 14t-7 18.5t-3.5 24.5t-1 22.5v23v17.5v88h-20h-121v-149v-18v-20t0.5 -18.5t2 -21t4 -18t6 -19t9 -15.5t12.5 -15t16 -11q46 -24 145 -24t139 24q13 7 21.5 18t13 19.5t6.5 25.5t2.5 24
t0 27.5t-0.5 25.5v615z" />
    <glyph glyph-name="K" unicode="K" horiz-adv-x="530" 
d="M215 800l10 -10v-215l102 219l9 6h157l9 -14l-161 -355l193 -427l-9 -14h-189l-9 6l-99 249v-245l-10 -10h-154l-10 10v790l10 10h151zM205 780h-131v-770h134v287l19 4l116 -291h167l-189 417v8l156 345h-135l-118 -254l-19 4v250z" />
    <glyph glyph-name="L" unicode="L" horiz-adv-x="456" 
d="M226 799l10 -10v-638h172l10 -10v-141l-10 -10h-344l-10 10v789l10 10h162zM216 779h-142v-769h324v121h-172l-10 10v638z" />
    <glyph glyph-name="M" unicode="M" horiz-adv-x="640" 
d="M325 449l49 343l10 9h203l10 -10v-791l-10 -10h-142l-10 9q-5 67 0 344l-48 -344l-10 -9h-103l-10 9l-48 342q5 -285 0 -342l-10 -9h-142l-10 10v791l10 10h203l10 -9zM454 10h123v771h-184l-50 -351l-9 -88h-20l-6 88l-50 351h-184v-771h123q2 28 2 83.5t-1 115t-2 114
t-2 92.5t-1 39l-5 115l20 1l17 -150l58 -410h85l58 410l17 150l20 -1l-5 -115q-1 -38 -2 -92.5t-3 -191.5t1 -160z" />
    <glyph glyph-name="N" unicode="N" horiz-adv-x="527" 
d="M322 479q-11 219 -3 312l10 9h144l10 -10v-790l-10 -10h-173l-10 8l-75 312q11 -217 4 -311l-10 -9h-145l-10 10v790l10 10h172l10 -8zM308 10h155v770h-125q-3 -68 -1.5 -147.5t5.5 -144.5l3 -66l4 -98l-20 -2l-19 120l-82 338h-154v-770h126q3 68 1 147.5t-5 144.5
l-4 66l-4 98l20 2l19 -120z" />
    <glyph glyph-name="O" unicode="O" horiz-adv-x="526" 
d="M199 812q52 5 132 -1t111 -32q40 -35 40 -140v-473v-21.5v-23t-1 -21t-3 -22t-6 -19.5t-9.5 -19t-14.5 -15t-20 -14q-48 -25 -161 -26.5t-156 22.5q-21 12 -33.5 31t-17 48t-5.5 44t-1 49v452q0 6 -0.5 25t0 26t1.5 22.5t4.5 23.5t9 19.5t14.5 20t22 16.5q32 21 94 28z
M201 792q-108 -11 -123 -75q-4 -18 -4 -86v-452v-8q0 -35 1.5 -56t12.5 -49t33 -41q37 -22 145.5 -20.5t151.5 24.5q13 6 21.5 17t13 18.5t7 25.5t3 23.5t0 28t-0.5 24.5v473q0 96 -32 124q-26 22 -102 28t-127 1zM232 630q-1 -8 -1 -18t0.5 -26.5t0.5 -28.5v-315
q0 -5 -0.5 -14t-0.5 -16.5v-17t1.5 -17t3.5 -15.5t6 -12.5t10 -7.5t14.5 -2.5t19.5 4.5q5 2 8 4.5t5 7t3.5 7.5t2 9t0.5 8.5v9.5v8v48v315q0 3 0.5 17t0.5 23.5t-1.5 22.5t-6 21.5t-11.5 12.5q-10 5 -23 4t-21 -5q-10 -6 -11 -27zM213 632q2 29 20 41q11 7 29.5 9t34.5 -6
q10 -5 16.5 -15t9 -25.5t3 -24.5t0 -28.5t-0.5 -21.5v-315v-48q0 -16 -0.5 -23t-3 -18.5t-9.5 -19t-18 -11.5q-33 -13 -55 0t-26 47q-1 9 -1 69v315q0 66 1 75z" />
    <glyph glyph-name="P" unicode="P" horiz-adv-x="530" 
d="M298 802q123 0 152 -27q36 -33 36 -155v-132q0 -44 -3 -70t-14 -53t-36 -41.5t-65 -19.5q-20 -2 -80 -2h-55v-302l-10 -10h-159l-10 10v792l10 10h234zM298 782h-224v-772h139v302l10 10h65h17h19.5t19.5 0.5t21.5 1.5t19.5 3t19.5 5.5t16 8t14.5 10.5q20 21 25.5 51.5
t5.5 85.5v132q0 113 -30 141q-23 21 -138 21zM234 452q35 0 52 3q19 4 19 21v143q0 20 -11 25.5t-33 6.5h-27v-199zM214 442v219l10 10h13.5h15.5t15 -0.5t15 -2t13 -3.5t12 -6t8.5 -9.5t6.5 -13t2 -17.5v-143q0 -15 -6.5 -24.5t-20.5 -13.5t-23 -5.5t-28.5 -1t-22.5 0.5z
" />
    <glyph glyph-name="Q" unicode="Q" horiz-adv-x="526" 
d="M275 -19q-51 1 -108 11.5t-81 34.5q-15 14 -22.5 34t-8.5 35t-1 45v476q0 5 -0.5 27t0 29t2 25t5 27t9.5 22.5t16 23t24 17.5q39 23 157 23.5t161 -23.5q11 -7 19.5 -15.5t14.5 -16t10 -20t6 -19.5t3 -22.5t1 -21v-23.5v-22v-498q0 -21 -3 -40t-11 -41.5t-26 -38
t-44 -18.5q11 -33 82 -3l14 -9v-113l-5 -9q-31 -16 -92.5 -17.5t-90.5 18.5q-20 16 -25.5 44.5t-5.5 77.5zM385 11q77 0 77 119v498q0 5 0.5 22t0 24t-1.5 21.5t-4 22.5t-7.5 19t-12.5 19t-19 14q-38 21 -151 21t-147 -21q-13 -8 -22.5 -20t-14.5 -21.5t-7 -27.5t-2.5 -26.5
t0 -30t0.5 -27.5v-476q0 -42 4.5 -62.5t21.5 -37.5q22 -21 80.5 -30.5t104.5 -9.5l10 -10v-9q0 -87 23 -107q21 -15 73 -14.5t83 12.5v92q-79 -27 -95 21q0 1 -0.5 3t-1.5 5t-1 4zM233 639q-2 -10 -2 -29v-371q0 -3 -0.5 -17t0 -23t1.5 -22t5 -22t10 -13q17 -10 42 1
q7 2 11.5 11.5t5.5 24t1 26.5t-0.5 26t-0.5 16v312q0 3 0.5 17.5t0 24t-2 22.5t-6 22t-11.5 13q-14 9 -32 3t-22 -22zM214 644q5 19 21.5 29.5t34.5 10t34 -15t20 -40.5q2 -13 2 -69v-312q0 -3 1 -22t0 -30.5t-3 -28t-9 -27t-18 -14.5q-31 -13 -55 -1t-29 45q-2 17 -2 70
v371q0 23 3 34z" />
    <glyph glyph-name="R" unicode="R" horiz-adv-x="520" 
d="M229 323v-323l-10 -10h-155l-10 10v789l10 10h237h22h28t26.5 -1.5t29 -4t22.5 -7.5t20 -12q22 -20 29 -36.5t8 -47.5v-14v-20v-20v-114q0 -3 0.5 -24t0 -25.5t-2 -21t-5 -23t-9.5 -18t-15.5 -19t-22.5 -14.5q46 -25 46 -88q0 -6 -0.5 -18.5t-0.5 -19.5v-95q0 -40 1 -59
t7.5 -44t20.5 -48l-9 -15h-17h-150q-17 0 -26 36.5t-9 57.5v47v120q0 42 -11 57t-55 15zM332 10h148q-11 22 -16.5 49.5t-6 43.5t-0.5 53v95q0 7 0.5 19.5t0.5 18.5q0 32 -11.5 49.5t-42.5 29.5v18q15 6 26 13t18 17t11 16t5.5 20.5t2 19.5t0 24.5t-0.5 25.5v114q0 67 -4 84
q-4 14 -11 25t-20 17t-22.5 10t-28 5.5t-27 2t-28.5 0t-24 -0.5h-227v-769h135v323l10 10h9q55 0 71 -21.5t16 -70.5v-120v-47q0 -13 5.5 -39t11.5 -35zM232 470h22.5t17.5 2.5t16 7.5t8 15t4 25v100q0 6 -1.5 10.5t-4.5 8t-6 6t-8.5 4t-9 2t-10 1t-9.5 0.5h-10h-9v-182z
M212 460v202l10 10h12h13t13 -0.5t13.5 -1.5t11.5 -2.5t12 -4.5t9 -7t7.5 -9t4.5 -12t2 -15v-100q0 -21 -6 -35t-12 -21t-23.5 -10.5t-25 -3.5h-31.5z" />
    <glyph glyph-name="S" unicode="S" horiz-adv-x="526" 
d="M481 539l-10 -10h-155l-10 10q0 1 0.5 12.5t0.5 22.5t-0.5 26t-1.5 26.5t-4 20.5t-7 11q-26 11 -45 2q-16 -7 -18 -40q-8 -105 26 -113q19 -4 56.5 -6.5t67 -9t52.5 -22.5q18 -13 29 -29.5t15 -42t4.5 -37t0.5 -44.5v-146v-10q0 -39 -1.5 -60t-15 -50t-39.5 -43
q-43 -24 -156 -24t-162 28q-11 7 -19.5 16t-14.5 16t-10 19.5t-6 19t-3 22.5t-1 21v23v22v136l10 10h155l10 -10v-50q0 -1 -0.5 -17.5t0 -27.5t1.5 -27t4.5 -26.5t9.5 -14.5q12 -10 35 -3q12 3 16 6.5t9 16.5q3 7 2 78.5t-5 77.5q-17 26 -85 26h-16q-31 3 -52.5 7.5t-38 9.5
t-26 16t-16 21t-9 30t-3.5 37t-1 49v121q0 76 11 104q14 34 48 50q50 23 160 24t161 -30q31 -23 39 -48t8 -69v-128zM461 549v118q0 27 -1.5 40t-10.5 30.5t-27 30.5q-44 28 -149.5 27t-151.5 -23q-8 -4 -15 -9t-12 -13t-8.5 -13.5t-5.5 -16t-3.5 -15.5t-2 -18t-0.5 -17v-18
v-16v-121q0 -37 0.5 -52.5t4.5 -36.5t10.5 -27.5t22 -15.5t35.5 -12t53 -6h16q77 0 101 -34q7 -11 8 -88.5t-3 -85.5q-7 -18 -14 -25t-23 -12q-32 -9 -53 7q-7 5 -12 15.5t-7 20.5t-3 25.5t-1.5 24.5t0 24.5t0.5 18.5v40h-135v-126q0 -2 -0.5 -25t0 -28.5t3 -24t7 -26.5
t13 -19.5t21.5 -19.5q45 -25 152.5 -24t145.5 22q8 5 15 10.5t11.5 14t8 14.5t5.5 17.5t3.5 17t2 19t0.5 17.5v18.5v16.5v146q0 47 -3.5 71.5t-17.5 46.5t-42 31.5t-77 14.5q-10 1 -29.5 2.5t-27 2.5t-20.5 5.5t-18 12t-10.5 22t-6.5 35.5q-2 27 1 62q3 43 30 56
q18 10 44 4.5t34 -26.5q7 -19 7 -107h135z" />
    <glyph glyph-name="T" unicode="T" horiz-adv-x="423" 
d="M407 796l10 -10v-131l-10 -10h-104v-645l-10 -10h-158l-10 10v645h-98l-10 10v131l10 10h380zM397 776h-360v-111h98l10 -10v-645h138v645l10 10h104v111z" />
    <glyph glyph-name="U" unicode="U" horiz-adv-x="527" 
d="M221 799l10 -10v-552l-1 -15q0 -15 0.5 -24.5t2 -23.5t5 -23t9.5 -12q20 -11 40 1q19 10 19 58v45v546l10 10h157l10 -10v-613q0 -34 -0.5 -47.5t-5 -43.5t-16.5 -48.5t-32 -30.5q-40 -23 -155 -24t-162 24q-12 7 -21 16.5t-15.5 17.5t-10.5 23t-6.5 22t-3.5 26t-1 24
v26.5v23.5v604l10 10h157zM211 779h-137v-594q0 -4 -0.5 -24t0 -27.5t1.5 -24.5t4.5 -26t8.5 -22t13.5 -21.5t20.5 -15.5q42 -23 151.5 -22.5t145.5 22.5q7 4 13 10t10 11.5t7.5 15t5.5 15.5t4 17.5t2.5 16.5t1 18t0.5 16.5v17v14.5v603h-137v-536q0 -4 0.5 -23.5t0 -29.5
t-3 -25.5t-9 -26t-17.5 -16.5q-13 -7 -30.5 -7t-29.5 6q-9 5 -15 15t-8.5 26t-3 25t0 29t0.5 21v542z" />
    <glyph glyph-name="V" unicode="V" horiz-adv-x="510" 
d="M259 303l66 487l10 9h155l10 -12l-122 -789l-10 -8h-223l-10 8l-121 789l10 12h157l10 -9zM172 779h-136l118 -769h205l119 769h-134l-68 -503l-7 -87h-20l-6 87z" />
    <glyph glyph-name="W" unicode="W" horiz-adv-x="654" 
d="M204 410l38 382l10 9h142l10 -9l46 -430l6 -124h-20l6 124v4l1 14l4 48l11 148l15 216l10 9h152l10 -11l-95 -791l-10 -9h-191l-10 9l-17 292l-24 -292l-10 -9h-191l-10 9l-73 791l10 11h145l10 -9zM462 361l-6 -123h-20l-6 122l-45 421h-124l-42 -421l-7 -123l-20 1
l-5 122l-27 421h-125l71 -771h173l35 424h20l24 -424h173l93 771h-132l-15 -206l-10 -148l-4 -49l-1 -13v-4z" />
    <glyph glyph-name="X" unicode="X" horiz-adv-x="534" 
d="M327 795l9 7h154l9 -14l-140 -362l167 -422l-9 -14h-151l-9 6l-74 175l-1 1l-15 50l-12 -48l-63 -177l-9 -7h-157l-9 13l152 423l-126 363l9 13h156l9 -7l41 -120l14 -49l12 47zM343 782l-39 -115l-22 -81h-20l-23 83l-38 113h-135l123 -353v-6l-149 -413h136l59 170
l22 81h20l24 -83l72 -168h129l-163 412v8l136 352h-132z" />
    <glyph glyph-name="Y" unicode="Y" horiz-adv-x="532" 
d="M182 799l9 -7l76 -226l6 -26l7 30l75 222l9 7h156l9 -13l-173 -473v-313l-10 -10h-161l-10 10v313l-164 473l9 13h162zM175 779h-141l160 -461l1 -3v-305h141v305l1 3l169 461h-135l-71 -215l-17 -67h-20l-16 63z" />
    <glyph glyph-name="Z" unicode="Z" horiz-adv-x="489" 
d="M436 796l10 -10v-126l-1 -4l-198 -505h195l10 -10v-141l-10 -10h-390l-10 10v126l1 4l203 518h-187l-10 10v128l10 10h377zM426 776h-357v-108h192l9 -14l-208 -530v-114h370v121h-200l-9 14l203 517v114z" />
    <glyph glyph-name="asciicircum" unicode="^" horiz-adv-x="384" 
d="M185 892h12l145 -98l-8 -18l-141 33l-132 -33l-8 18zM191 872l-86 -64l86 21h4l91 -21z" />
    <glyph glyph-name="grave" unicode="`" horiz-adv-x="300" 
d="M259 796l-9 -17q-5 1 -32 5t-48.5 8t-48 10.5t-44.5 16t-24 21.5q-11 21 3 45t37 29q8 1 19.5 -3t26 -13.5t27.5 -19.5t29.5 -24t26 -23t22.5 -21.5t15 -13.5zM220 804q-1 1 -11 10t-17.5 15.5t-20 17t-23 18.5t-21 15.5t-18.5 11t-12 2.5q-13 -2 -23 -17t-3 -27
q4 -8 17.5 -14.5t33 -11.5t36 -8.5t37.5 -7t25 -4.5z" />
    <glyph glyph-name="a" unicode="a" horiz-adv-x="474" 
d="M267 405q4 77 -14 87t-29.5 -4t-12.5 -33v-22l-10 -10h-137l-10 10q0 91 13 126q11 30 34 45q35 22 136.5 23t139.5 -19q16 -8 27 -23t16 -27.5t8 -36.5t3 -34v-35v-302q0 -78 -12 -107q-11 -28 -35 -40q-30 -15 -142 -17.5t-147 15.5q-17 10 -27.5 27t-14.5 42t-5 40.5
t-1 41.5v8v78v35t3 33.5t8.5 36t16.5 27t28 22.5q52 25 164 13zM276 384q-113 15 -165 -10q-22 -11 -32.5 -39t-11 -44t-0.5 -53v-78q0 -88 16 -118q9 -16 22 -23q29 -15 136.5 -13t132.5 15q7 3 12 8t9 12.5t7 13.5t4.5 16t2.5 15.5t1.5 17.5t0.5 16v16.5v13.5v302
q0 74 -11 101q-11 26 -33 37q-33 18 -130 17.5t-126 -19.5q-37 -23 -37 -137v-8h117q0 49 28 66q22 12 44 1q8 -5 13.5 -13.5t8 -17.5t3.5 -23t1 -22t-1 -22.5t-1 -17.5zM212 238q-7 -109 8 -122q8 -7 25 -3.5t20 14.5q3 13 2.5 70t-5.5 71q-9 11 -23 7h-1q-23 -5 -26 -37z
M192 240q4 47 42 55q17 3 31.5 -4.5t17.5 -22.5q5 -19 4.5 -81t-8.5 -76q-10 -16 -34 -19t-37 8q-25 22 -16 140z" />
    <glyph glyph-name="b" unicode="b" horiz-adv-x="487" 
d="M211 839l10 -10v-209q35 10 90.5 6.5t85.5 -23.5q21 -13 32.5 -34.5t13 -36.5t1.5 -38v-325q0 -5 0.5 -29t0 -31t-3 -26.5t-8 -28.5t-15.5 -21.5t-25 -20.5q-48 -27 -146 -28t-144 25q-9 5 -16 11t-12 15.5t-8.5 15.5t-6 19t-4 18.5t-2 21t-0.5 19v20v17.5v663l10 10h147
zM201 819h-127v-653v-17v-20t1 -19t2 -21t4 -18.5t7 -18t10.5 -14t14.5 -11.5q41 -23 134 -22.5t136 25.5q25 14 32.5 33.5t8.5 52.5v53v325q0 22 -1.5 35t-10 30t-25.5 28q-29 18 -85.5 20.5t-87.5 -9.5l-13 9v212zM222 479q-3 -16 -3 -82v-184q0 -1 -0.5 -14.5t0 -23.5
t1 -23t3.5 -22t8 -12q10 -7 28 1q17 8 17 42v55v182v12.5v19.5t-0.5 20t-2.5 20.5t-6 16t-9 9.5q-30 12 -36 -17zM202 483q5 24 25.5 33t41.5 -3.5t25 -43.5q2 -13 2 -71v-182v-55q0 -46 -29 -60q-28 -14 -46.5 -0.5t-20.5 43.5q-1 9 -1 69v184q0 72 3 86z" />
    <glyph glyph-name="c" unicode="c" horiz-adv-x="479" 
d="M435 342l-10 -10h-143l-10 10v43q0 1 0.5 17t0 28t-1.5 28t-4.5 26t-9.5 13l-2 1q-2 2 -11 1t-13 -3q-5 -3 -8 -12t-3.5 -22.5t-1 -24t0 -23.5t0.5 -14v-191v-12.5v-18t0.5 -19t2 -19t4.5 -14.5t8 -10q11 -7 24 0q5 4 8.5 13.5t4.5 23.5t1.5 24.5t0 25.5t-0.5 16v29
l10 10h147l10 -10v-75q0 -2 0.5 -23t0 -28t-2 -25.5t-4.5 -28t-8 -23t-13 -22.5t-19 -16q-37 -22 -144 -22t-144 21q-24 14 -36 44t-13.5 51t-1.5 59v308q0 74 11 100q12 28 37 41q36 19 144.5 18.5t146.5 -23.5q9 -5 15.5 -13t11 -15t7.5 -18t5 -18.5t2.5 -21t0.5 -19.5
v-20.5v-18.5v-118zM415 352v108q0 3 0.5 20.5t0 25t-2 23t-5 24t-10 18t-15.5 15.5q-33 20 -136.5 21t-134.5 -16q-8 -4 -14 -10.5t-10 -12t-7 -15.5t-4.5 -16t-2 -18.5t-0.5 -17v-18v-15.5v-308q0 -35 1 -52t10.5 -45t29.5 -39q33 -19 134.5 -18.5t133.5 19.5
q9 5 15.5 13.5t10.5 20t6.5 21.5t3 25.5t1 24t0 24t-0.5 19.5v65h-127v-19q0 -2 0.5 -21t0 -29t-2.5 -26t-7.5 -26.5t-14.5 -16.5q-22 -14 -44 -2q-7 4 -12.5 12.5t-8 17t-3.5 22t-1.5 21t0 21.5t0.5 17v191q0 2 -0.5 19t0 27.5t2 25.5t6.5 25t13 15q9 6 23 7t23 -4
t15 -16.5t8.5 -30t3 -29t-0.5 -32.5v-22v-33h123z" />
    <glyph glyph-name="d" unicode="d" horiz-adv-x="491" 
d="M438 839l10 -10v-659v-10q0 -36 -1.5 -57t-13 -50t-33.5 -42q-45 -26 -146 -26.5t-143 23.5q-12 7 -21 15.5t-15 16t-10.5 20.5t-6.5 20t-3 22.5t-1 22v24.5v23v313q0 46 6.5 70t30.5 43q30 23 91.5 28t95.5 -6v209l10 10h150zM428 819h-130v-212l-13 -9q-28 12 -91.5 9
t-90.5 -25q-19 -15 -24 -34.5t-5 -62.5v-313q0 -4 -0.5 -26.5t0 -29.5t3 -25t7.5 -26.5t14.5 -20t22.5 -18.5q38 -22 133.5 -21.5t135.5 24.5q8 5 14 12t10 14t7 19t4.5 19t2 21t0.5 19.5v20v16.5v649zM225 461v-16v-23.5v-24.5v-186q0 -1 -0.5 -14.5t0 -23.5t1.5 -23
t4 -21.5t8 -11.5q14 -9 29 0q5 3 8 11.5t4 22t1.5 23.5t0 23.5t-0.5 14.5v185q0 2 0.5 16.5t0 24.5t-1.5 23t-6 22t-12 12h-1q-18 6 -28 -8q-6 -4 -7 -26zM205 462q2 27 11 39q21 23 52 12q11 -4 18.5 -13t10 -26t3.5 -25t0 -30v-22v-185v-20q1 -19 0.5 -27.5t-2.5 -24.5
t-7.5 -26t-13.5 -15q-25 -14 -49 0q-9 5 -14.5 15t-7 24.5t-2 25t0 27.5t0.5 20v186v65z" />
    <glyph glyph-name="e" unicode="e" horiz-adv-x="480" 
d="M436 263l-10 -10h-202v-35q0 -1 -0.5 -13.5t-0.5 -25t0.5 -27t3 -24.5t6.5 -13q9 -7 21.5 -0.5t13.5 19.5q1 5 1 18v24v33l10 10h147l10 -10v-25v-27q0 -93 -4 -109q-7 -27 -42 -46q-33 -18 -141 -17t-142 20q-33 19 -43 55t-10 86v324q0 73 11 99q12 28 39 42
q30 17 144.5 16.5t148.5 -21.5q11 -7 19 -19t12 -22t6 -28.5t2.5 -26.5t0 -29.5t-0.5 -24.5v-193zM416 273v183q0 2 0.5 24.5t0 32.5t-3 28t-9 29t-17.5 18q-30 19 -139 19t-134 -14q-8 -4 -14.5 -10.5t-10.5 -12t-7 -15.5t-4.5 -15.5t-2.5 -18.5t-1 -17v-18v-16v-324
q0 -29 1.5 -47t12 -41.5t29.5 -34.5q17 -10 83.5 -17t135 3t76.5 44q4 17 4 104v27v15h-127v-23v-24q0 -45 -25 -54q-54 -19 -59 39q-1 9 -1 81v45l10 10h202zM276 451q0 39 -12 45q-14 8 -26 3t-15 -20q-2 -7 -2 -30v-64h55v66zM296 451v-76l-10 -10h-75l-10 10v74
q0 18 0.5 26.5t6.5 21t19 19.5q19 10 40 1.5t26 -29.5q3 -10 3 -37z" />
    <glyph glyph-name="f" unicode="f" horiz-adv-x="340" 
d="M344 814l6 -9v-101l-14 -9q-13 5 -32.5 10t-42.5 6.5t-31 -7.5q-7 -7 -7 -87h90l10 -10v-109l-10 -10h-92v-488l-10 -10h-147l-10 10v665q0 120 53 150q35 17 116 15.5t121 -16.5zM330 798q-41 12 -113.5 12.5t-99.5 -13.5q-43 -24 -43 -132v-655h127v488l10 10h92v89
h-90l-10 10q0 2 -0.5 17.5t0 26.5t1.5 25.5t4 25.5t8 16q29 29 114 0v80z" />
    <glyph glyph-name="g" unicode="g" horiz-adv-x="488" 
d="M63 -194l-7 9v113l13 10q164 -48 193 -23q10 9 10 62q-33 -8 -93.5 -4t-82.5 20q-28 22 -35 45t-7 74v333v18.5v21t0.5 19.5t2 20.5t4 18.5t6.5 19t9 16t13 15.5t17 11.5q40 21 145.5 22t146.5 -22q22 -13 33 -40.5t12.5 -47.5t1.5 -56v-10v-532q0 -96 -52 -126
q-45 -25 -147 -20.5t-183 33.5zM76 -178q78 -26 174.5 -29.5t132.5 18.5q42 25 42 108v532v14.5v17.5t-0.5 16.5t-1.5 18t-2.5 16.5t-4.5 17t-7 13.5t-9 13t-12 9.5q-35 21 -136 20t-136 -20q-10 -5 -17.5 -13t-12 -19t-7.5 -19.5t-4 -24t-1.5 -22t0 -24t0.5 -20.5v-333
q0 -49 5.5 -67t28.5 -36q19 -14 83 -16.5t88 6.5l13 -9q0 -26 -1 -39.5t-4.5 -28.5t-10 -21.5t-19.5 -11.5t-31.5 -4t-45.5 5q-35 6 -104 25v-93zM221 475q-1 -8 -1 -74v-204q0 -2 -0.5 -15.5t-0.5 -23.5t1 -23t4.5 -22.5t8.5 -12.5h5h8h8h4q6 4 9.5 13.5t4.5 22.5t1 23.5
t-0.5 23.5t-0.5 16v206v11.5v18t-0.5 19t-2 19.5t-4.5 15t-8 10l-1 1q-2 2 -11 1.5t-13 -2.5q-9 -6 -11 -23zM201 477q3 27 21 37q7 5 21 6t24 -4q7 -4 12.5 -12.5t8 -17t3.5 -22t1.5 -21t0 -21.5t-0.5 -17v-206q0 -5 0.5 -22t0.5 -27t-2 -24.5t-8 -25t-15 -16.5
q-5 -4 -21.5 -4t-23.5 4q-9 5 -14.5 15.5t-7 25t-2 25t0 27.5t0.5 20v204q0 68 1 76z" />
    <glyph glyph-name="h" unicode="h" horiz-adv-x="481" 
d="M54 829l10 10h150l10 -10v-211q35 11 95.5 9.5t81.5 -17.5q36 -26 36 -124v-486l-10 -10h-143l-10 10v396q0 2 0.5 15.5t0.5 24t-1 23.5t-5 22.5t-10 12.5q-1 2 -10 2t-11 -2q-5 -3 -8.5 -12.5t-4.5 -23t-1 -24t0.5 -24t0.5 -15.5v-395l-10 -10h-151l-10 10v829zM74 819
v-809h131v385q0 3 -0.5 20.5t0 28.5t2 26.5t7 26t14.5 15.5q8 4 21 3.5t20 -3.5q20 -11 23 -38q2 -17 2 -78v-386h123v476q0 88 -28 108q-18 13 -80.5 13t-90.5 -12l-14 9v215h-130z" />
    <glyph glyph-name="i" unicode="i" horiz-adv-x="258" 
d="M54 607l10 10h140l10 -10v-607l-10 -10h-140l-10 10v607zM74 597v-587h120v587h-120zM54 762l10 10h140l10 -10v-132l-10 -10h-140l-10 10v132zM74 752v-112h120v112h-120z" />
    <glyph glyph-name="j" unicode="j" horiz-adv-x="429" 
d="M218 762l10 10h148l10 -10v-132l-10 -10h-148l-10 10v132zM238 752v-112h128v112h-128zM218 607l10 10h148l10 -10v-621q0 -5 0.5 -27.5t0 -29.5t-3 -25t-7.5 -27t-15 -20.5t-24 -19.5q-32 -18 -141 -19t-145 18q-17 10 -28 24.5t-15.5 38t-6 36.5t-1 43.5t0.5 36.5
l10 10h140l10 -10q0 -56 14 -63q1 -1 13.5 -1t17.5 1q8 4 9 13q3 10 3 65v577zM238 597v-567q0 -57 -3 -70q-4 -20 -22 -26l-1 -1q-30 -7 -47 1q-24 13 -24 71h-120q0 -4 -0.5 -24.5t0 -30t2.5 -27.5t6 -28.5t12 -22.5t20 -18q32 -17 135 -15.5t131 16.5q14 8 23 18t12 27.5
t4 25t0.5 32.5t-0.5 28v611h-128z" />
    <glyph glyph-name="k" unicode="k" horiz-adv-x="495" 
d="M202 839l10 -10v-354l57 136l9 6h121l9 -14l-91 -228l138 -372l-9 -13h-155l-9 7l-65 189v-186l-10 -10h-143l-10 10v829l10 10h138zM192 819h-118v-809h123v236l19 3l82 -239h134l-135 362v7l87 218h-99l-74 -176l-19 4v394z" />
    <glyph glyph-name="l" unicode="l" horiz-adv-x="263" 
d="M210 839l10 -10v-829l-10 -10h-146l-10 10v829l10 10h146zM200 819h-126v-809h126v809z" />
    <glyph glyph-name="m" unicode="m" horiz-adv-x="683" 
d="M356 581q18 31 61 42q20 7 92.5 2t95.5 -23q8 -7 14.5 -14.5t10 -19t6 -18t3.5 -21.5t1 -19.5v-22.5v-19v-468l-10 -10h-144l-10 10v397q0 2 0.5 15t0.5 24.5t-1 25.5t-4 23t-9 12q-4 1 -12 1.5t-9 -0.5l-1 -1q-10 -7 -10 -94v-403l-10 -10h-150l-10 10v398q0 70 -1 78
q-2 17 -11 21l-1 1q-11 4 -20 -1q-5 -3 -8 -12.5t-3.5 -23.5t-1 -25t0 -24.5t0.5 -14.5v-397l-10 -10h-142l-10 10v456v17.5v18.5t0.5 17.5t2 19t3.5 16.5t5.5 17t8 14.5t11.5 15t15 12.5q27 19 106.5 22.5t107.5 -9.5q30 -13 42 -36zM345 554q-7 32 -39 45
q-25 11 -98.5 7.5t-95.5 -18.5q-8 -5 -14 -12.5t-10 -14t-7 -17t-4.5 -16.5t-2 -19t-0.5 -17.5v-18.5v-17v-446h122v387q0 2 -0.5 20t0 28.5t2 26t7 26t13.5 15.5q21 13 40 2t22 -36q1 -8 1 -81v-388h130v393q0 3 -0.5 19t0 27t2 25.5t6 24.5t11.5 15q11 5 23 4.5t18 -3.5
q21 -9 24 -40q1 -9 1 -78v-387h124v458q0 4 0.5 19.5t0 22.5t-2 20.5t-4 22t-8 18t-13.5 15.5q-18 14 -84.5 19t-87.5 -2q-43 -11 -57 -50z" />
    <glyph glyph-name="n" unicode="n" horiz-adv-x="480" 
d="M436 0l-10 -10h-144l-10 10v389q0 67 -1 75q-3 21 -15 26q-3 2 -13.5 2t-12.5 -2q-5 -3 -7.5 -12.5t-3.5 -22t-1 -23t0.5 -23t0.5 -14.5v-395l-10 -10h-145l-10 10v454q0 81 4 99q7 34 45 58q24 16 137.5 16t148.5 -21q31 -19 39 -47.5t8 -91.5v-467zM416 10v457
q0 61 -6.5 84t-30.5 37q-30 18 -138.5 18.5t-127.5 -13.5q-25 -14 -31.5 -31t-7.5 -51v-57v-444h125v385q0 2 -0.5 19t0 27t2 25t6 25t11.5 15q8 6 23.5 6t22.5 -4q22 -12 27 -41q1 -9 1 -78v-379h124z" />
    <glyph glyph-name="o" unicode="o" horiz-adv-x="478" 
d="M184 625q32 7 110.5 0.5t101.5 -27.5q26 -23 32 -49.5t6 -100.5v-286q0 -90 -5 -108q-5 -17 -16 -27t-33 -23q-32 -18 -137 -19t-139 18q-12 7 -21 15.5t-14.5 20.5t-8.5 20.5t-4.5 25t-2 23t0 26.5t0.5 24v293q0 28 0.5 42.5t3 34.5t7.5 30.5t14 24t23 20.5t34.5 13
t47.5 9zM186 605q-21 -2 -37.5 -5.5t-28.5 -11.5t-20 -12.5t-13 -18t-8 -19.5t-4 -26t-1 -27.5v-33.5v-293q0 -4 -0.5 -24.5t0 -27t2.5 -23.5t6 -25.5t12 -19t20 -17.5q29 -16 129 -15.5t127 16.5q29 16 36 28.5t8 45.5v66v286q0 36 -1 55.5t-5.5 39.5t-12.5 29t-23.5 17.5
t-36 11.5t-53.5 5q-54 3 -96 -1zM224 485q-5 -6 -5 -91v-181q0 -1 -0.5 -14t0 -23t1 -22.5t3.5 -21t7 -11.5q3 -2 13 -2.5t15 1.5q6 3 9 12t4 21.5t1 23t-0.5 23t-0.5 14.5v184v11.5v18.5t-0.5 19.5t-1.5 20t-4 15.5t-7 9q-5 4 -16.5 2t-17.5 -9zM208 497q11 14 30 16.5
t28 -3.5q9 -5 15 -14.5t8 -25t2.5 -24.5t0 -28t-0.5 -20v-184q0 -4 0.5 -21t0 -27.5t-2 -25t-7.5 -24t-16 -14.5q-7 -4 -23 -3.5t-23 4.5q-8 5 -12.5 14.5t-6.5 24.5t-2.5 24.5t0 27.5t0.5 19v181q0 92 9 103z" />
    <glyph glyph-name="p" unicode="p" horiz-adv-x="491" 
d="M222 -19v-207l-10 -10h-148l-10 10v674q0 6 -0.5 18.5t-0.5 19.5q0 87 48 114t149 28t143 -24q13 -8 23 -17.5t15.5 -23t9.5 -22t5.5 -27.5t2 -24.5t0 -29.5t-0.5 -26v-293q0 -109 -43 -140q-32 -23 -89.5 -27.5t-93.5 7.5zM215 3q32 -13 90.5 -10.5t87.5 24.5
q35 26 35 124v293q0 4 0.5 26.5t0 30t-3 26.5t-7 28.5t-13.5 21t-22 19.5q-37 23 -133 22t-139 -26q-38 -22 -38 -95q0 -7 0.5 -20t0.5 -19v-664h128v210zM224 473q-1 -8 -1 -76v-193q0 -66 1 -74q3 -17 13 -22q14 -8 25.5 -2t13.5 21q1 8 1 81v191q0 1 0.5 14t0.5 24t-1 24
t-3.5 22t-7.5 12q-17 10 -28.5 2.5t-13.5 -24.5zM205 476q4 28 25 39t46 -4q8 -5 13 -15t6.5 -25t2 -25.5t0 -27t-0.5 -19.5v-191q0 -76 -1 -84q-4 -23 -24 -36q-8 -4 -22 -3.5t-23 5.5q-19 12 -23 38q-1 8 -1 76v193q0 67 2 79z" />
    <glyph glyph-name="q" unicode="q" horiz-adv-x="490" 
d="M447 -226l-10 -10h-152l-10 10v208q-37 -6 -81 -8.5t-84.5 17.5t-50.5 61q-5 20 -5 89v300v21v22t0.5 19.5t2.5 20.5t5 18t7.5 18.5t11 15.5t15.5 16t20 13q42 22 142 22t140 -21q14 -7 24 -19t15 -22.5t7.5 -29t3 -28t0 -31.5t-0.5 -28v-674zM427 -216v664q0 79 -3 94
q-6 31 -36 46q-35 18 -130 18.5t-132 -19.5q-13 -7 -22 -15t-14.5 -19l-9 -18t-5 -23t-2 -21.5t0 -25.5t0.5 -24v-300q0 -67 4 -85q7 -27 32 -42.5t57.5 -18t62 0t52.5 9.5l13 -10v-211h132zM219 477q-1 -8 -1 -76v-199v-75q2 -19 14.5 -25t25 1.5t15.5 22.5q2 12 2 73v207
l1 12v24t-1 24t-4 21.5t-7 10.5q-41 15 -45 -21zM199 480q4 29 25.5 38t47.5 -2q9 -3 14.5 -12.5t7 -24.5t2 -26t0 -28t-0.5 -19v-207q0 -64 -2 -76q-4 -19 -18.5 -31t-30.5 -13t-30 11t-16 35v77v199q0 71 1 79z" />
    <glyph glyph-name="r" unicode="r" horiz-adv-x="383" 
d="M333 605l7 -9v-98l-12 -10q-10 2 -29 7.5t-30 7.5t-24 0.5t-20.5 -12.5t-10.5 -32q-1 -9 -1 -53v-406l-10 -10h-139l-10 10v455v17v18.5t0.5 17t1.5 18t3 15.5t5 17t7.5 14t10 14.5t13 11.5t16.5 11q41 20 103 18.5t119 -22.5zM320 589q-29 9 -62.5 14t-72.5 4.5
t-68.5 -18.5t-37.5 -52q-5 -22 -5 -82v-445h119v396q0 71 11 92q18 34 75 23q5 -1 41 -10v78z" />
    <glyph glyph-name="s" unicode="s" horiz-adv-x="471" 
d="M425 553q3 -20 3 -123l-10 -10h-135l-10 10q0 62 -11 71q-14 6 -27 3q-16 -9 -18.5 -44.5t2.5 -52.5q1 -4 2.5 -7.5t3 -6t5 -4t5 -2t6.5 -1t7 -0.5h8h8q60 0 97 -8q47 -9 63 -52q13 -28 12.5 -144t-20.5 -147q-13 -22 -44 -33.5t-52.5 -13t-57.5 -2.5q-150 -6 -189 42
q-14 17 -17 57q-2 27 -2 125l10 10h138l10 -10v-15q-1 -15 -0.5 -24t2 -22.5t5 -22t9.5 -11.5q2 -2 13.5 -1.5t15.5 2.5q5 3 8.5 9t5 16.5t2 16t-0.5 18.5v12v4q-1 44 -22 48q-10 1 -47.5 2.5t-63.5 6t-42 15.5q-23 16 -33 74t-9 108.5t6 91.5q7 58 46 77q26 13 139.5 13
t142.5 -18q31 -20 36 -57zM405 550q-4 30 -26 42q-25 15 -135.5 15.5t-128.5 -10.5q-15 -7 -23 -23t-10 -28t-3 -34q-13 -201 30 -232q20 -14 83.5 -16.5t72.5 -6.5q13 -6 19.5 -19.5t7 -22.5t0.5 -27v-15v-18t-1.5 -16.5t-4 -17.5t-7.5 -12.5t-12 -10.5q-8 -5 -24.5 -5
t-24.5 4q-6 3 -11 9t-7.5 14t-4.5 15t-2.5 17.5t-0.5 16.5v17v14h-118q0 -3 -0.5 -24t-0.5 -37.5t1.5 -38t5 -37.5t9.5 -23q23 -28 115.5 -34t130.5 5q51 10 65 34q17 27 17.5 137t-11.5 138q-11 31 -49 38q-36 8 -93 8q-43 1 -55 14t-13 53q0 17 -0.5 34t7.5 33t24 22h1
q21 10 44 -4l1 -1q20 -12 20 -77h115q0 92 -3 110z" />
    <glyph glyph-name="t" unicode="t" horiz-adv-x="318" 
d="M54 714l10 10h140l10 -10v-97h104l10 -10v-107l-10 -10h-101v-266q0 -66 1 -74q2 -22 17.5 -26.5t34.5 1.5q31 5 54 12l13 -10v-101l-6 -9q-36 -16 -77 -24.5t-83 -7.5t-73.5 25.5t-39.5 70.5q-4 23 -4 69v564zM74 704v-554q0 -30 1 -46.5t9.5 -42t25.5 -36.5
q25 -16 64 -18.5t75 5t68 21.5v81q-16 -4 -23.5 -6t-24 -4.5t-25.5 -1t-20.5 5t-17.5 14t-8 25.5q-1 8 -1 77v276l10 10h101v87h-104l-10 10v97h-120z" />
    <glyph glyph-name="u" unicode="u" horiz-adv-x="476" 
d="M208 617l10 -10v-383q0 -1 -0.5 -20.5t-0.5 -31.5t3.5 -26.5t10.5 -19.5q2 -2 11.5 -2.5t13.5 1.5l1 1q6 3 9.5 12.5t4.5 22.5t1 24t-0.5 24t-0.5 14v384l10 10h142l10 -10v-446q0 -6 0.5 -27.5t0 -30.5t-2.5 -27.5t-6.5 -29t-14 -22.5t-22.5 -20q-33 -19 -143 -19.5
t-142 18.5q-10 6 -18 14.5t-13 16t-8.5 20.5t-5.5 19.5t-3 23t-1 21v23v20.5v446l10 10h144zM198 597h-124v-436v-20v-23.5t1 -21.5t3.5 -24t7 -19.5t11.5 -19t16 -12.5q28 -16 132 -16t133 17q22 13 28.5 33.5t6.5 52.5v53v436h-122v-374q0 -3 0.5 -21t0 -28t-2.5 -25.5
t-8 -25.5t-15 -15t-23.5 -4.5t-23.5 6.5q-10 7 -15.5 23.5t-6.5 28t0 36t1 26.5v373z" />
    <glyph glyph-name="v" unicode="v" horiz-adv-x="456" 
d="M18 605l10 12h147l10 -9l48 -332l70 333l10 8h128l10 -12l-147 -607l-10 -8h-156l-10 8zM40 597l106 -587h140l142 587h-107l-80 -380l-20 1l-55 379h-126z" />
    <glyph glyph-name="w" unicode="w" horiz-adv-x="587" 
d="M19 606l10 11h144l10 -9l26 -235l20 235l10 9h149l10 -9l20 -227l20 227l10 9h125l10 -11l-83 -607l-10 -9h-166l-10 9l-12 130l-10 -130l-10 -9h-173l-10 9zM40 597l78 -587h155l18 239h20l22 -239h148l81 587h-105l-29 -331h-20l-29 331h-131l-27 -328h-20l-37 328
h-124z" />
    <glyph glyph-name="x" unicode="x" horiz-adv-x="487" 
d="M177 617l9 -5l65 -128l59 127l9 6h137l9 -14l-133 -282l152 -317l-9 -14h-158l-9 6l-75 158l-67 -158l-9 -6h-138l-9 14l134 317l-135 282l9 14h159zM171 597h-137l130 -272v-8l-130 -307h116l74 173h18l81 -173h136l-147 307v8l128 272h-115l-64 -140l-18 -1z" />
    <glyph glyph-name="y" unicode="y" horiz-adv-x="481" 
d="M54 607l10 10h145l10 -10v-383q0 -2 -0.5 -14.5t-0.5 -24t0.5 -25.5t3.5 -23.5t8 -12.5l2 -1q11 -6 22 1q5 3 8 12.5t4 23t1.5 23.5t0 24t-0.5 15v385l10 10h150l10 -10v-651q0 -4 0.5 -14t0.5 -16q0 -83 -47 -114q-57 -30 -153 -24.5t-171 34.5l-6 9v109l13 9
q21 -7 55 -15t73.5 -12t50.5 8q15 13 12 68q-32 -9 -94.5 -7.5t-86.5 19.5q-7 6 -12.5 13.5t-8.5 17.5t-5.5 17.5t-3 21t-0.5 19v20v17.5v450v21zM74 597v-11v-450v-17v-21t1 -20t3.5 -21t7 -17t10.5 -14q30 -16 85 -15.5t91 9.5l13 -10q1 -26 0 -42t-5 -30.5t-12 -21.5
t-22 -11.5t-34 -3.5t-49 6q-40 7 -82 19v-88q72 -26 162.5 -30.5t135.5 20.5q39 26 39 98q0 6 -0.5 16t-0.5 14v641h-130v-375q0 -2 0.5 -20t0 -28t-2.5 -25t-7 -25.5t-14 -15.5q-24 -15 -43 -2q-18 10 -21 38q-1 8 -1 80v373h-125z" />
    <glyph glyph-name="z" unicode="z" horiz-adv-x="445" 
d="M392 617l10 -10v-100l-1 -4l-167 -383h177l10 -10v-110l-10 -10h-353l-10 10v100l1 4l170 393h-155l-10 10v100l10 10h328zM382 597h-308v-80h160l9 -14l-175 -405v-88h333v90h-182l-9 14l172 395v88z" />
    <glyph glyph-name="asciitilde" unicode="~" horiz-adv-x="366" 
d="M209 873q5 -2 18.5 -8t17 -7.5t13.5 -3.5t16.5 0t16.5 6t22 12l14 -12q-22 -47 -45.5 -64t-66.5 -16q-17 1 -39 7.5t-37 12t-35.5 5t-39.5 -12.5l-14 14q27 45 49.5 63.5t61.5 15.5q23 -2 48 -12zM201 855q-36 16 -64.5 9.5t-51.5 -41.5q22 6 53.5 -2.5t56 -17.5t52 -2
t47.5 39q-11 -4 -20.5 -5.5t-20 0.5t-16 4t-18 8t-18.5 8z" />
    <glyph glyph-name="nbspace" unicode="&#xa0;" horiz-adv-x="241" 
 />
    <glyph glyph-name="exclamdown" unicode="&#xa1;" horiz-adv-x="343" 
d="M221 801l10 -10v-434l-10 -10h-86l-10 10v434l10 10h86zM211 781h-66v-414h66v414z" />
    <glyph glyph-name="cent" unicode="&#xa2;" horiz-adv-x="481" 
d="M205 860l10 10h60l10 -10v-130q37 -2 58.5 -5t41 -10t27.5 -16.5t15 -28.5t8.5 -42.5t1.5 -61.5v-109l-10 -10h-144l-10 10v39q0 98 -14 104q-3 2 -13 1.5t-13 -3.5q-6 -4 -9.5 -13t-4.5 -21.5t-1 -22.5t0.5 -23t0.5 -15v-185q0 -2 -0.5 -15t-0.5 -23t1 -23t5 -22t10 -12
q33 -17 38 33q1 10 1 74v20l10 10h146l10 -10v-82q0 -6 0.5 -26.5t0.5 -31.5t-2 -29.5t-6.5 -29.5t-13.5 -23t-22 -19q-44 -23 -110 -26v-161l-10 -10h-62l-10 10v163q-93 6 -121.5 40t-28.5 133v322q0 86 30 117.5t121 33.5v129zM225 850v-129l-10 -10q-71 0 -102 -17
q-19 -10 -28 -32.5t-10 -37t-1 -44.5v-322q0 -93 24.5 -121t116.5 -33l9 -10v-162h42v161l10 10q67 0 110 24q12 7 20 18.5t10.5 30.5t3 30.5t0 34.5t-0.5 27v72h-126v-10q0 -2 0.5 -21t0 -30.5t-2 -28.5t-7 -28.5t-13.5 -16.5q-23 -13 -47 0q-9 5 -15 15t-8 24.5t-2.5 24.5
t0 28t0.5 21v185q0 3 -0.5 20.5t0 27t2 24t7 24t13.5 15.5q9 6 24.5 7t21.5 -3q8 -4 13.5 -13t8 -19t4 -25t1.5 -24t-0.5 -23.5t-0.5 -17.5v-29h124v99q0 38 -0.5 57t-7 37.5t-12.5 25t-26.5 13t-38 8t-58.5 4.5l-9 10v129h-40z" />
    <glyph glyph-name="currency" unicode="&#xa4;" horiz-adv-x="343" 
d="M192 446h89l10 -10v-79l-10 -10h-215l-10 10v41q0 28 5 43t22 39q1 1 14.5 19.5t24 34t24.5 36t23.5 38t12.5 28.5q4 14 4 57l-1 6q-3 7 -8 9l-2 1q-6 2 -14 -4q-3 -5 -3 -54v-27l-10 -10h-84l-10 10v68v15v17t1 15t3 16t5.5 13t9 13.5t13.5 10.5q27 15 84.5 15.5
t86.5 -15.5q16 -9 23.5 -27.5t8 -29.5t0.5 -37v-44q0 -47 -4.5 -61.5t-33.5 -57.5zM165 442l70 105q27 39 30.5 51t3.5 56v44v10v11t-0.5 10.5t-1 11t-2.5 9.5t-4 10t-5.5 7.5t-8.5 6.5q-25 14 -77 13.5t-74 -13.5q-6 -4 -10.5 -10t-7 -12t-3.5 -15.5t-1 -14.5v-16v-14v-58
h64v17q0 2 -0.5 11.5t-0.5 16.5t1 16t3.5 16t7.5 10q17 12 33 7q13 -4 18.5 -13.5t5 -20t-0.5 -21.5q-1 -39 -9 -58.5t-35 -58.5l-9 -11q-8 -11 -19.5 -27t-23.5 -33.5t-21 -34.5t-11 -26q-1 -7 -1 -26v-31h195v59h-98z" />
    <glyph glyph-name="yen" unicode="&#xa5;" horiz-adv-x="481" 
d="M54 602l10 10h143l10 -10v-380q0 -1 -0.5 -15t0 -24.5t1 -24t3.5 -22.5t8 -12l2 -1q13 -10 21.5 4.5t9.5 28.5q1 9 1 67v379l10 10h154l10 -10v-790l-10 -10h-139l-10 10v201q-33 -20 -79.5 -27.5t-89.5 9t-52 60.5q-3 14 -3 86v461zM74 592v-451q0 -6 -0.5 -22.5
t-0.5 -25t2 -22.5t6 -23t11.5 -18t19.5 -15q31 -16 84.5 -8.5t84.5 34.5l17 -8v-211h119v770h-134v-369q0 -2 0.5 -20.5t0 -27.5t-2.5 -24.5t-6.5 -25.5t-12.5 -16q-21 -15 -42 -3q-9 5 -14.5 15.5t-7 26t-2 26t0 28t0.5 20.5v370h-123z" />
    <glyph glyph-name="dieresis" unicode="&#xa8;" horiz-adv-x="330" 
d="M85 888q17 6 33 2.5t25.5 -16.5t14 -27.5t-2 -30.5t-23.5 -27q-26 -17 -48 -6h-1q-35 16 -35 53t37 52zM93 870q-28 -12 -24 -38q3 -20 23 -31q27 -9 42.5 18t-12.5 47q-13 9 -29 4zM214 888q23 11 48 -2q27 -20 29.5 -47.5t-25.5 -47.5q-23 -19 -48 -9l-1 1
q-36 14 -37.5 50.5t34.5 54.5zM222 870q-24 -13 -22 -35t25 -34q17 -4 28 5l2 1q17 13 17 31q0 15 -20 30q-17 10 -30 2z" />
    <glyph glyph-name="copyright" unicode="&#xa9;" horiz-adv-x="529" 
d="M485 494l-10 -10h-159l-10 10v58q0 67 -2 78q-3 21 -16 28q-6 4 -20.5 4t-21.5 -5q-5 -4 -8 -12.5t-4 -20.5t-1.5 -21.5t0 -22t0.5 -14.5v-335q0 -3 -0.5 -16t-0.5 -22.5t1.5 -21.5t5.5 -20.5t10 -11.5q21 -10 37 -2t19 30q2 11 2 80v24h-55l-10 10v138l10 10h224l10 -10
v-240q0 -5 0.5 -26t0 -28.5t-2 -25.5t-5 -28t-9 -23t-15.5 -22.5t-23 -16.5q-47 -26 -162 -27t-157 24q-14 9 -24.5 17.5t-17 20t-10.5 19t-5.5 23.5t-2 22.5t0 26.5t0.5 27v476v8q0 36 1.5 55t14 45.5t36.5 41.5q45 27 160 27t163 -25q35 -19 45 -46.5t11 -74.5v-73v-102z
M465 504v92q0 10 0.5 29.5t0.5 32t-1 29.5t-4 31q-7 35 -42 54q-44 23 -153.5 23t-149.5 -25q-7 -4 -12.5 -9.5t-9.5 -10t-7.5 -12.5t-5.5 -12.5t-3.5 -14.5t-2 -14t-1 -15t-0.5 -14.5v-15.5v-14v-476q0 -7 -0.5 -27.5t0 -27.5t2.5 -22t7.5 -23.5t15 -19t24.5 -18.5
q37 -22 147 -21t152 24q13 7 22 18.5t13.5 22t6.5 28.5t2.5 27t0 30t-0.5 26v230h-204v-118h55l10 -10v-34q0 -4 0.5 -23t0 -30.5t-2.5 -27.5t-8 -27t-16 -17q-26 -16 -54.5 -4t-32.5 44q-1 8 -1 69v335q0 2 -0.5 19.5t0 26t2.5 22.5t6.5 23.5t12.5 15.5q13 9 33.5 9.5
t30.5 -6.5q11 -6 17.5 -16.5t8.5 -26.5t2.5 -27t0 -30.5t-0.5 -23.5v-48h139z" />
    <glyph glyph-name="ordfeminine" unicode="&#xaa;" horiz-adv-x="343" 
d="M57 494l10 10h85l10 -10v-15v-15q0 -18 7 -22q3 -2 12.5 0t10.5 6q1 2 1 16v32v16q-80 -15 -114 10q-24 18 -24 60v125q0 25 0.5 36t8 29.5t23.5 27.5q27 15 89 16t92 -16q15 -9 22.5 -25t8 -26t0.5 -34v-273q0 -60 -31 -78q-28 -15 -90.5 -15.5t-90.5 15.5
q-7 5 -12.5 10.5t-8.5 13.5t-5.5 14t-3 17t-0.5 15.5v17v15.5v27zM77 484v-17q0 -1 -0.5 -16.5t0 -21t2.5 -17.5t6.5 -19t11.5 -11q23 -14 80.5 -13.5t80.5 13.5q21 12 21 60v273v9v9.5t-0.5 9t-1 10t-2 8.5t-4 8t-6 6.5t-7.5 6.5q-25 14 -82 13.5t-79 -13.5
q-5 -3 -8.5 -6.5t-5.5 -7.5t-4 -10t-2.5 -9.5t-1 -11t-0.5 -10.5v-11v-9v-125q0 -33 16 -44q19 -10 52.5 -10t56.5 7l13 -10v-29v-32q0 -28 -15 -38q-13 -9 -31.5 -4t-22.5 21q-2 7 -2 21v15v5h-65zM163 712q-1 -9 -1 -42v-17q0 -33 1 -40q3 -19 25 -9q6 3 6 51v17
q0 47 -6 50q-23 10 -25 -10zM143 714q4 31 35 31t35 -34q1 -11 1 -39v-17q0 -1 0.5 -13t0 -17.5t-2 -14.5t-5.5 -15t-11 -9q-16 -9 -33 -2t-20 26q-1 7 -1 43v17q0 35 1 44z" />
    <glyph glyph-name="registered" unicode="&#xae;" horiz-adv-x="530" 
d="M54 789l10 10h240h26t24.5 -0.5t26.5 -2t23 -4.5t23.5 -7.5t19 -11.5t17.5 -16t11 -21.5t8 -27.5q3 -24 3 -105v-128q0 -70 -10.5 -99t-52.5 -49l86 -324l-10 -13h-156l-10 7l-88 314h-9v-311l-10 -10h-162l-10 10v789zM74 779v-769h142v311l10 10h27l10 -7l88 -314h135
l-85 320l6 12q40 18 49.5 41t9.5 92v128q0 4 0.5 28t0 35.5t-3 31t-8.5 33.5t-16 24q-24 24 -135 24h-230zM237 465h31q26 0 37 23q5 9 4 72t-7 72q-13 19 -65 19v-186zM217 455v206l10 10q73 0 91 -27q10 -15 11 -83.5t-6 -80.5q-16 -35 -55 -35h-41z" />
    <glyph glyph-name="macron" unicode="&#xaf;" horiz-adv-x="334" 
d="M281 862l10 -10v-60l-10 -10h-217l-10 10v60l10 10h217zM271 842h-197v-40h197v40z" />
    <glyph glyph-name="degree" unicode="&#xb0;" horiz-adv-x="343" 
d="M300 645q0 -29 -19 -43q22 -14 22 -50v-95v-11v-12t-0.5 -11.5t-1.5 -13t-2 -11t-3.5 -11.5t-5.5 -9.5t-7.5 -9.5t-9.5 -7q-31 -17 -94.5 -17.5t-92.5 17.5q-15 9 -23 27.5t-9 31.5t-1 37v88q0 16 0.5 22t5.5 15.5t15 17.5q-5 4 -8.5 8.5t-5.5 10t-3.5 8.5t-2 10.5
t-0.5 10v11.5v11v30q0 56 11 74q8 15 22 23q28 16 90.5 16t90.5 -16q7 -4 12 -9t8.5 -9.5t5.5 -12.5t3.5 -12t2 -14t0.5 -13v-14v-13v-33v-22zM280 646v21v33v13.5v15.5t-1 14.5t-3.5 14.5t-7 11t-10.5 10q-24 13 -80.5 13t-80.5 -13q-6 -3 -10 -7.5t-6.5 -10.5t-4 -11
t-2 -13t-0.5 -12v-13.5v-11.5v-30v-10.5v-11t0.5 -9t2 -9t4 -8t7 -8t10.5 -6.5l-1 -18q-13 -6 -18 -13t-5.5 -11.5t-0.5 -20.5v-88q0 -66 23 -80q24 -15 82.5 -14t84.5 16q5 3 8.5 7t5.5 10.5t3.5 11t2 14t0.5 12.5v13v10v95q0 19 -4 25t-22 15v18q13 7 18 14.5t5 21.5z
M163 708q-1 -8 -1 -24v-42q3 -9 17 -8t14 16v58q0 9 -6 11l-19 -1q-3 -2 -5 -10zM143 711q2 14 13 23q5 4 18 5t18 0l2 -1q19 -10 19 -30v-58q0 -22 -17.5 -31t-35.5 -2.5t-18 23.5v1v43q0 18 1 27zM162 539q-1 -5 -1 -33v-51q0 -11 8 -16q17 -4 20 2l2 1q5 4 5 41v48
q0 16 -6 20q-12 4 -20 0q-7 -4 -8 -12zM142 543q3 16 18 26q6 4 18.5 3.5t19.5 -3.5q18 -10 18 -38v-48q0 -46 -12 -56q-15 -15 -42 -7l-1 1q-20 8 -20 34v51q0 31 1 37z" />
    <glyph glyph-name="acute" unicode="&#xb4;" horiz-adv-x="293" 
d="M62 780l-10 17q68 78 91 99q40 38 64 36q25 -2 42 -29q11 -21 1 -44q-3 -6 -8.5 -11.5t-11.5 -10t-16 -9t-17 -7.5t-19 -7t-17 -5.5t-16.5 -5t-13.5 -3.5zM90 809q4 1 31.5 9t47 14t39.5 16t24 19q6 15 -1 26q-9 17 -26 19q-7 1 -19 -6.5t-27.5 -22.5t-26 -26.5t-26 -29
t-16.5 -18.5z" />
    <glyph glyph-name="mu" unicode="&#xb5;" horiz-adv-x="693" 
d="M398 580q25 24 79.5 33t105.5 -7.5t62 -57.5q4 -14 4 -89v-459l-10 -10h-151l-10 10v382q0 1 0.5 14t0 24t-1 25t-3.5 23.5t-8 12.5l-1 1q-2 1 -8.5 1t-9.5 -1q-6 -4 -9.5 -13.5t-4.5 -23t-1 -24t0.5 -24.5t0.5 -16v-381l-10 -10h-147l-10 10v379q0 2 0.5 15t0.5 24
t-1 24t-4 22.5t-9 12.5q-3 2 -10 2t-11 -3q-5 -3 -8 -12.5t-4 -23.5t-1.5 -25t0 -25.5t0.5 -15.5v-374l-10 -10h-145l-10 10v603l10 10h119l10 -10v-10q27 18 77.5 23t74.5 -2q32 -6 53 -34zM389 558q-22 31 -48 36q-38 7 -87 -0.5t-63 -29.5l-18 5v24h-99v-583h125v364
q0 2 -0.5 21t0 29.5t2.5 27t7.5 27t13.5 15.5q21 12 41 1q9 -5 14.5 -15.5t7.5 -25.5t2 -26.5t-0.5 -28t-0.5 -20.5v-369h127v371q0 4 -0.5 21.5t0 28t2 25.5t6.5 25.5t14 16.5q8 5 21 4.5t20 -4.5q8 -5 13.5 -15.5t7 -26t2 -26.5t0 -28t-0.5 -20v-372h131v449q0 69 -4 84
q-9 33 -56 45.5t-96.5 3t-67.5 -33.5h-16z" />
    <glyph glyph-name="periodcentered" unicode="&#xb7;" horiz-adv-x="291" 
d="M152 69l10 10h14l10 -10v-65l-7 -9q-28 -10 -32 -28q-2 -11 9 -17h1q16 -9 22 -9q1 0 11 2q-18 19 -5 42q9 18 30 19q19 0 31 -17q12 -19 2 -38q-17 -36 -69 -45q-23 -4 -59.5 4.5t-53.5 26.5q-28 33 -12.5 64t56.5 41q25 6 42 8v21zM172 59v-20l-9 -10q-83 -6 -93 -45
q-5 -18 10 -35q13 -14 45 -21t50 -4q41 6 55 33q5 10 0 18q-6 9 -15 9q-7 -1 -12 -8v-1q-7 -13 9 -26l1 -15q-14 -13 -34 -13q-14 0 -32 11q-25 12 -20 39q6 26 39 40v58l10 -10h-4z" />
    <glyph glyph-name="ordmasculine" unicode="&#xba;" horiz-adv-x="343" 
d="M139 812q23 5 72.5 0t66.5 -20q21 -18 21 -80v-248v-10.5v-11t-0.5 -11t-1 -12l-1.5 -10.5t-2.5 -11t-4 -10t-5.5 -9.5t-7 -7.5t-9 -7q-27 -15 -88 -17t-89 13q-32 17 -32 69v26v258q0 53 14 73t66 26zM141 792q-43 -5 -52.5 -19.5t-9.5 -59.5v-258v-26q0 -39 22 -51
q23 -12 78.5 -10.5t78.5 14.5q5 3 9 7.5t6 10.5t3.5 11.5t2 14.5t0.5 13.5v13.5v11v248q0 50 -13.5 64t-66.5 17q-45 2 -58 -1zM164 705q-1 -10 -1 -36v-175q0 -1 -0.5 -9.5t0 -14.5t1.5 -14t4.5 -12t8.5 -3q10 1 12.5 3.5t4.5 12.5v39v174v30q0 16 -6 20q-22 8 -24 -15z
M144 707q2 22 17 31t35 0h1q17 -8 17 -38v-30v-174q0 -3 0.5 -15.5t0 -17.5t-2 -14.5t-5 -14t-11 -8.5t-17.5 -5q-7 0 -12 1t-9 4t-6.5 6.5t-4 9.5l-2.5 10t-1.5 11t-0.5 11v11v9v175q0 28 1 38z" />
    <glyph glyph-name="questiondown" unicode="&#xbf;" horiz-adv-x="466" 
d="M253 825l10 8h19l10 -12l-73 -462l-10 -8h-18l-10 12zM272 813l-71 -454l-10 12h9l72 454l10 -12h-10zM246 582q3 48 43 61q15 5 59 3t56 -15q3 -3 6 -7t4.5 -8t3 -7.5t2.5 -9t1.5 -8t0.5 -9v-8.5v-9v-9v-98v-9.5v-10t-0.5 -9.5t-1 -10.5t-1.5 -9t-3 -9t-5 -8t-6.5 -7.5
t-8.5 -6q-15 -8 -63 -8t-64 9q-5 3 -8.5 7.5t-6 8t-4 10t-2.5 10.5t-1.5 12t-0.5 11v12v10v96v25zM266 581v-24v-96q0 -56 13 -65q10 -6 53.5 -5t53.5 6q6 3 9.5 8t5 13.5t2 12.5t-0.5 15v12v98q0 46 -8.5 57.5t-49.5 12.5q-35 2 -49 -3q-27 -8 -29 -42zM340 579h-8l-2 -1
q-5 -3 -5 -48v-47q0 -44 4 -47h11q4 4 4 20v29v46q0 41 -4 48zM306 567q2 21 13 28q7 4 18.5 4t15.5 -5q11 -14 11 -63v-46v-29q0 -27 -14 -37l-4 -2q-7 -1 -12.5 -1t-9.5 1t-7.5 3.5t-5.5 5t-3 7.5t-2 8.5t-1 9.5v10v11v11v47q0 27 1 37zM54 779q3 50 44 61q7 5 54.5 3.5
t60.5 -15.5q5 -5 8 -11.5t4.5 -11t2.5 -13.5t1 -12.5v-14.5v-12v-97v-12v-13.5t-0.5 -12.5t-2 -12.5t-4.5 -10.5t-8 -10.5t-11 -8.5q-14 -8 -62.5 -8t-63.5 8q-6 4 -10 8.5t-6.5 11t-4 11.5t-2 13.5t-0.5 12.5v13.5v11.5v96v25zM74 778v-24v-96q0 -1 -0.5 -11.5t0 -16
t1.5 -14t4 -14t8 -8.5q9 -6 53 -5.5t53 5.5q6 3 9.5 8.5t5 13.5t2 12.5t0 15t-0.5 12.5v97q0 50 -10 61q-5 5 -32 9t-55.5 -1.5t-34.5 -24.5q-3 -7 -3 -19zM147 776h-8q-6 -5 -6 -49v-47q0 -43 4 -46q1 -1 10 -1q5 4 5 20v29v46q0 40 -5 48zM114 764q3 37 37 31
q21 -4 21 -67v-46v-29q0 -27 -16 -38h-2q-16 -6 -27.5 2t-13.5 25v38v47q0 27 1 37z" />
    <glyph glyph-name="Agrave" unicode="&#xc0;" horiz-adv-x="501" 
d="M364 877l-9 -17q-5 1 -32 5t-48.5 8t-48 10.5t-44.5 16.5t-24 22q-11 19 2 43q13 25 33.5 28t35 -5t36.5 -25q35 -26 99 -86zM326 885q-99 93 -124 90q-16 -3 -24 -20q-8 -13 -2 -25q3 -6 11 -11t20 -9t24 -7.5t28 -6.5t26.5 -4.5t24 -4t16.5 -2.5zM139 792l10 9h219
l10 -9l119 -791l-10 -11h-168l-10 9l-17 179h-73l-22 -179l-10 -9h-158l-10 11zM158 781l-117 -771h137l22 179l10 9h91l10 -9l17 -179h147l-116 771h-201zM258 531l-22 -196h41zM215 326l28 254l6 103l20 -1l4 -102l25 -254l-10 -11h-63z" />
    <glyph glyph-name="Aacute" unicode="&#xc1;" horiz-adv-x="501" 
d="M171 860l-10 17q68 78 91 99q40 38 64 36q27 -2 42 -28q28 -52 -58 -85q-24 -9 -70 -22t-59 -17zM200 890q3 1 16 4.5t23 6.5t24.5 7.5t26 8.5t23 9.5t19 10.5t9.5 10q6 14 -1 27q-7 16 -26 18q-5 0 -13 -4t-17.5 -12t-19 -16.5t-20 -20t-18 -19.5t-16 -18t-10.5 -12z
M139 792l10 9h219l10 -9l119 -791l-10 -11h-168l-10 9l-17 179h-73l-22 -179l-10 -9h-158l-10 11zM158 781l-117 -771h137l22 179l10 9h91l10 -9l17 -179h147l-116 771h-201zM258 531l-22 -196h41zM215 326l28 254l6 103l20 -1l4 -102l25 -254l-10 -11h-63z" />
    <glyph glyph-name="Acircumflex" unicode="&#xc2;" horiz-adv-x="501" 
d="M245 976h12l145 -99l-8 -18q-16 4 -48.5 11.5t-48.5 11.5l-40 11l-3 -1q-16 -2 -43.5 -10t-35.5 -10l-54 -13l-8 18zM251 956l-87 -66q4 1 36.5 10t49.5 12l3 1h4q2 0 5 -1l5 -1l15 -4l21 -5q25 -5 42 -11zM136 792l10 9h219l10 -9l119 -791l-10 -11h-168l-10 9l-17 179
h-73l-22 -179l-10 -9h-158l-10 11zM155 781l-117 -771h137l22 179l10 9h91l10 -9l17 -179h147l-116 771h-201zM254 535l-21 -200h41zM212 326l27 254l7 103l20 -1l4 -102l25 -254l-10 -11h-63z" />
    <glyph glyph-name="Atilde" unicode="&#xc3;" horiz-adv-x="501" 
d="M285 954q6 -3 18.5 -8.5t17 -7t14 -3.5t16 -0.5t16.5 5.5t22 12l14 -12q-22 -47 -45.5 -64.5t-66.5 -15.5q-17 1 -39 7.5t-37 12.5t-35.5 5.5t-39.5 -12.5l-14 13q27 45 49.5 63.5t61.5 15.5q22 -1 48 -11zM277 935q-73 31 -116 -32q22 6 53.5 -2t56 -17.5t52 -2.5
t47.5 39q-11 -4 -20.5 -5.5t-20 0.5t-16 4t-18 8t-18.5 8zM142 792l10 9h220l10 -9l118 -791l-10 -11h-168l-10 9l-17 179h-73l-21 -179l-10 -9h-159l-10 11zM161 781l-117 -771h138l21 179l10 9h91l10 -9l17 -179h147l-115 771h-202zM261 535l-22 -200h41zM218 326l28 254
l6 103l20 -1l5 -102l24 -254l-10 -11h-63z" />
    <glyph glyph-name="Adieresis" unicode="&#xc4;" horiz-adv-x="501" 
d="M175 968q26 12 50.5 -6.5t23.5 -46.5t-25 -45.5t-50 -5.5q-34 16 -35 53t36 51zM182 950q-24 -11 -23.5 -34t23.5 -34q26 -11 42 16.5t-12 47.5q-14 10 -29 4h-1zM303 968q25 15 52 -3t27 -45v-1q0 -29 -24.5 -47t-51.5 -8q-34 15 -36 51t33 53zM312 950
q-23 -13 -21.5 -35t23.5 -33q17 -6 32.5 6t15.5 30q-2 17 -17.5 28.5t-31.5 3.5h-1zM138 792l10 9h219l10 -9l119 -791l-10 -11h-168l-10 9l-17 179h-73l-22 -179l-10 -9h-158l-10 11zM157 781l-117 -771h137l22 179l10 9h91l10 -9l17 -179h147l-116 771h-201zM257 531
l-22 -196h41zM214 326l28 254l6 103l20 -1l4 -102l25 -254l-10 -11h-63z" />
    <glyph glyph-name="Aring" unicode="&#xc5;" horiz-adv-x="501" 
d="M242 981q33 11 57.5 -9t23.5 -52t-32 -51q-29 -18 -58 -2.5t-33 48.5q-2 22 9 40.5t33 25.5zM248 963q-28 -10 -28 -38.5t25 -41.5q18 -10 37 3t21 33t-18 39q-16 13 -37 5zM243 914q8 -11 16 -11q11 -2 17 7q6 8 2 18.5t-13 12.5q-9 3 -15 -3q-14 -11 -7 -24zM225 905
q-13 26 11 48q17 14 36.5 7t25.5 -27q10 -33 -21 -46.5t-51 16.5zM139 792l10 9h219l10 -9l119 -791l-10 -11h-168l-10 9l-17 179h-73l-22 -179l-10 -9h-158l-10 11zM158 781l-117 -771h137l22 179l10 9h91l10 -9l17 -179h147l-116 771h-201zM258 531l-22 -196h41zM215 326
l28 254l6 103l20 -1l4 -102l25 -254l-10 -11h-63z" />
    <glyph glyph-name="Ccedilla" unicode="&#xc7;" horiz-adv-x="482" 
d="M202 864l10 10h60l10 -10v-127q94 0 126 -41q4 -6 7.5 -13.5t6 -17t4 -18t2.5 -20.5t1.5 -20t0.5 -21.5v-19t-0.5 -19t-0.5 -15.5l-10 -10h-135l-10 11q6 62 -17 73q-3 2 -12.5 1t-13.5 -3q-12 -7 -12 -71q0 -25 9 -32t38 -9q8 0 33.5 -0.5t41 -1.5t35 -5.5t29.5 -13.5
q21 -18 29.5 -78t7 -114t-7.5 -90q-5 -31 -18.5 -48.5t-42.5 -29.5q-38 -16 -86 -16v-165l-10 -10h-63l-10 10v165q-94 0 -126 35q-16 17 -20 47.5t-4 98.5v44l10 10h140l10 -10v-53q0 -33 16 -42q4 -3 14 -3t14 3q6 3 9.5 9t5 14.5t2 14t0 16.5t-0.5 13v10q1 10 0.5 14.5
t-2 13t-5 13t-8.5 5.5q-6 2 -71 2q-40 1 -66 10t-39.5 19t-20 34.5t-7.5 41.5t-1 55v17v34q0 4 -0.5 23t0 26.5t1.5 24t4.5 25.5t8.5 21t13.5 20.5t20.5 14.5q34 18 100 21v127zM222 854v-127l-10 -10q-67 0 -100 -19q-11 -6 -18.5 -16.5t-11.5 -19.5t-6 -26t-2.5 -24.5
t0 -27t0.5 -23.5v-34q0 -43 0.5 -61.5t6 -41t13.5 -29t28 -14.5t44.5 -9t67.5 -2q35 0 47 -11.5t13 -46.5v-20v-13v-14t-0.5 -12.5t-2.5 -14t-4.5 -11.5t-7.5 -11.5t-11 -8.5q-9 -5 -24 -5t-24 5q-26 16 -26 60v43h-120v-34q0 -66 3 -92.5t15 -39.5q29 -32 122 -29l10 -10
v-165h43v165l11 10q41 -3 87 14q25 10 35 24t14 40q9 34 6 137.5t-27 124.5q-15 12 -49 14.5t-64 1t-55 10.5t-26 41v11v10v12.5t0.5 12t1 13t2.5 11.5t4 11.5t5.5 9t8.5 7.5q8 5 22 6.5t24 -2.5q32 -17 28 -82h114q6 112 -17 142q-13 17 -49 26t-71 7l-10 10v127h-40z" />
    <glyph glyph-name="Egrave" unicode="&#xc8;" horiz-adv-x="470" 
d="M349 875l-9 -17q-3 0 -26 3.5t-38.5 6t-40.5 8t-41.5 11t-31.5 14.5t-20 19q-10 21 3.5 45t36.5 28q6 1 14.5 -1.5t19 -8.5t21 -12.5t23 -16.5t22 -18t21.5 -19t19 -17t16 -15t11 -10zM310 883q-100 94 -124 90q-13 -2 -22.5 -17.5t-3.5 -27.5q3 -6 11 -11t20 -9t24 -7.5
t28 -6.5t26.5 -4.5t24 -4t16.5 -2.5zM54 789l10 10h352l10 -10v-131l-10 -10h-187v-149h140h27l10 -10v-125v-20l-10 -10h-167v-4v-179h200l10 -10v-141l-10 -10h-365l-10 10v789zM74 779v-769h345v121h-200l-10 10v189v14l10 10h167v10v115h-17h-150l-10 10v169l10 10h187
v111h-332z" />
    <glyph glyph-name="Eacute" unicode="&#xc9;" horiz-adv-x="470" 
d="M155 858l-10 17q68 78 91 99q40 38 64 36q25 -3 42 -29q12 -21 2 -44q-4 -9 -14 -17t-26 -14.5t-26.5 -10.5t-30 -9.5t-22.5 -6.5zM184 888q4 1 31 9t47 14t40 15.5t24 18.5q5 15 -2 26q-9 18 -24 18t-25 -7.5t-25 -21.5zM54 789l10 10h352l10 -10v-131l-10 -10h-187
v-149h140h27l10 -10v-125v-20l-10 -10h-167v-4v-179h200l10 -10v-141l-10 -10h-365l-10 10v789zM74 779v-769h345v121h-200l-10 10v189v14l10 10h167v10v115h-17h-150l-10 10v169l10 10h187v111h-332z" />
    <glyph glyph-name="Ecircumflex" unicode="&#xca;" horiz-adv-x="470" 
d="M155 858l-10 17q68 78 91 99q40 38 64 36q25 -3 42 -29q12 -21 2 -44q-4 -9 -14 -17t-26 -14.5t-26.5 -10.5t-30 -9.5t-22.5 -6.5zM184 888q4 1 31 9t47 14t40 15.5t24 18.5q5 15 -2 26q-9 18 -24 18t-25 -7.5t-25 -21.5zM54 789l10 10h352l10 -10v-131l-10 -10h-187
v-149h140h27l10 -10v-125v-20l-10 -10h-167v-4v-179h200l10 -10v-141l-10 -10h-365l-10 10v789zM74 779v-769h345v121h-200l-10 10v189v14l10 10h167v10v115h-17h-150l-10 10v169l10 10h187v111h-332z" />
    <glyph glyph-name="Edieresis" unicode="&#xcb;" horiz-adv-x="470" 
d="M232 974h12l145 -99l-8 -18q-2 1 -43.5 10t-53.5 13l-40 10l-3 -1q-13 -2 -133 -32l-8 18zM238 954l-88 -66l87 21l4 1h3q2 0 4 -1l6 -1l15 -3l21 -5q8 -3 23.5 -6.5t18.5 -4.5zM54 789l10 10h352l10 -10v-131l-10 -10h-187v-149h140h27l10 -10v-125v-20l-10 -10h-167v-4
v-179h200l10 -10v-141l-10 -10h-365l-10 10v789zM74 779v-769h345v121h-200l-10 10v189v14l10 10h167v10v115h-17h-150l-10 10v169l10 10h187v111h-332z" />
    <glyph glyph-name="Igrave" unicode="&#xcc;" horiz-adv-x="269" 
d="M241 880l-9 -17q-4 1 -26 4t-38 5t-40 7.5t-41 11t-31.5 14.5t-19.5 19q-11 21 2.5 45t37.5 28q8 1 19.5 -3t26 -13.5t27.5 -19.5t29 -24t25.5 -22.5t23 -21t14.5 -13.5zM203 888q-105 92 -123 89q-14 -2 -23.5 -17t-2.5 -28q3 -6 14 -12t23.5 -10t31.5 -8t31 -6t29 -5
t20 -3zM215 802l10 -10v-792l-10 -10h-151l-10 10v792l10 10h151zM205 782h-131v-772h131v772z" />
    <glyph glyph-name="Iacute" unicode="&#xcd;" horiz-adv-x="269" 
d="M49 863l-10 17q10 10 28.5 31t34 37.5t29.5 29.5q40 38 63 36q27 -2 40.5 -25t2.5 -48q-3 -6 -9 -12t-15.5 -11.5t-18 -9.5t-21.5 -8.5t-20 -6.5t-19.5 -5.5t-14.5 -4.5zM78 892q2 1 23 6.5t36 10.5t34.5 12t32 14t15.5 14q7 15 -1.5 29t-25.5 16q-24 2 -114 -102z
M215 802l10 -10v-792l-10 -10h-151l-10 10v792l10 10h151zM205 782h-131v-772h131v772z" />
    <glyph glyph-name="Icircumflex" unicode="&#xce;" horiz-adv-x="269" 
d="M126 978h12l145 -98l-8 -18l-55 12q-8 3 -42 10l-40 11l-3 -1q-14 -3 -41 -10.5t-37 -9.5l-55 -12l-8 18zM132 958l-89 -66q17 3 47 11t41 11l4 1h3q2 0 5 -1l5 -1l15 -4l21 -5q30 -6 42 -10l2 -1zM215 802l10 -10v-792l-10 -10h-151l-10 10v792l10 10h151zM205 782h-131
v-772h131v772z" />
    <glyph glyph-name="Idieresis" unicode="&#xcf;" horiz-adv-x="269" 
d="M54 970q22 12 49 -6q20 -13 24 -34.5t-6.5 -38t-28 -26.5t-39.5 1q-34 16 -35 53t36 51zM61 952q-24 -11 -23.5 -34t23.5 -34q16 -7 31 4.5t15.5 28.5t-16.5 31q-14 11 -29 4h-1zM182 970q26 13 52.5 -4t26.5 -44v-1q0 -29 -24 -47.5t-51 -7.5q-34 14 -36 50t32 54z
M191 952q-29 -15 -20 -44q8 -25 31 -26q12 0 22 7q17 12 17 31q-2 17 -17.5 28.5t-31.5 3.5h-1zM215 802l10 -10v-792l-10 -10h-151l-10 10v792l10 10h151zM205 782h-131v-772h131v772z" />
    <glyph glyph-name="Ntilde" unicode="&#xd1;" horiz-adv-x="527" 
d="M289 956q7 -3 19 -8t16.5 -6.5t13.5 -3.5t15.5 0t16.5 6t22 12l15 -12q-22 -47 -45.5 -64t-65.5 -16q-17 1 -39 7.5t-37.5 12t-36 5t-39.5 -12.5l-14 13q33 57 65.5 72.5t93.5 -5.5zM281 938q-36 16 -64.5 9.5t-51.5 -40.5q22 6 53.5 -2t56 -17.5t52 -2.5t47.5 39
q-11 -5 -20.5 -6.5t-20 0.5t-16 4t-18.5 8t-18 8zM322 479q-11 219 -3 312l10 9h144l10 -10v-790l-10 -10h-173l-10 8l-75 312q11 -217 4 -311l-10 -9h-145l-10 10v790l10 10h172l10 -8zM308 10h155v770h-125q-3 -68 -1.5 -147.5t5.5 -144.5l3 -66l4 -98l-20 -2l-19 120
l-82 338h-154v-770h126q3 68 1 147.5t-5 144.5l-4 66l-4 98l20 2l19 -120z" />
    <glyph glyph-name="Ograve" unicode="&#xd2;" horiz-adv-x="526" 
d="M372 895l-8 -18l-74 11q-7 2 -30 7t-38.5 9t-32.5 13t-23 20q-12 23 2 44q22 47 70 21q22 -12 43 -28t53 -45t38 -34zM333 902q-2 2 -17 14.5t-28.5 24t-30 24t-29 20t-18.5 6.5q-16 -2 -24 -19l-1 -2q-8 -12 -1 -23q12 -23 110 -39zM199 812q52 5 132 -1t111 -32
q40 -35 40 -140v-473v-21.5v-23t-1 -21t-3 -22t-6 -19.5t-9.5 -19t-14.5 -15t-20 -14q-48 -25 -161 -26.5t-156 22.5q-21 12 -33.5 31t-17 48t-5.5 44t-1 49v452q0 6 -0.5 25t0 26t1.5 22.5t4.5 23.5t9 19.5t14.5 20t22 16.5q32 21 94 28zM201 792q-108 -11 -123 -75
q-4 -18 -4 -86v-452v-8q0 -35 1.5 -56t12.5 -49t33 -41q37 -22 145.5 -20.5t151.5 24.5q13 6 21.5 17t13 18.5t7 25.5t3 23.5t0 28t-0.5 24.5v473q0 96 -32 124q-26 22 -102 28t-127 1zM232 630q-1 -8 -1 -18t0.5 -26.5t0.5 -28.5v-315q0 -5 -0.5 -14t-0.5 -16.5v-17
t1.5 -17t3.5 -15.5t6 -12.5t10 -7.5t14.5 -2.5t19.5 4.5q5 2 8 4.5t5 7t3.5 7.5t2 9t0.5 8.5v9.5v8v48v315q0 3 0.5 17t0.5 23.5t-1.5 22.5t-6 21.5t-11.5 12.5q-10 5 -23 4t-21 -5q-10 -6 -11 -27zM213 632q2 29 20 41q11 7 29.5 9t34.5 -6q10 -5 16.5 -15t9 -25.5t3 -24.5
t0 -28.5t-0.5 -21.5v-315v-48q0 -16 -0.5 -23t-3 -18.5t-9.5 -19t-18 -11.5q-33 -13 -55 0t-26 47q-1 9 -1 69v315q0 66 1 75z" />
    <glyph glyph-name="Oacute" unicode="&#xd3;" horiz-adv-x="526" 
d="M179 877l-10 17q81 89 91 99q39 37 63 35q27 -2 40.5 -24.5t4.5 -48.5q-3 -6 -8.5 -11.5t-11.5 -10t-16 -9t-17 -7t-19 -6.5t-17.5 -5.5t-17 -4.5t-13.5 -4zM207 906q3 1 31.5 9t47.5 14t39 15.5t25 18.5q5 16 -3.5 30t-25.5 15q-24 2 -114 -102zM199 812q52 5 132 -1
t111 -32q40 -35 40 -140v-473v-21.5v-23t-1 -21t-3 -22t-6 -19.5t-9.5 -19t-14.5 -15t-20 -14q-48 -25 -161 -26.5t-156 22.5q-21 12 -33.5 31t-17 48t-5.5 44t-1 49v452q0 6 -0.5 25t0 26t1.5 22.5t4.5 23.5t9 19.5t14.5 20t22 16.5q32 21 94 28zM201 792
q-108 -11 -123 -75q-4 -18 -4 -86v-452v-8q0 -35 1.5 -56t12.5 -49t33 -41q37 -22 145.5 -20.5t151.5 24.5q13 6 21.5 17t13 18.5t7 25.5t3 23.5t0 28t-0.5 24.5v473q0 96 -32 124q-26 22 -102 28t-127 1zM232 630q-1 -8 -1 -18t0.5 -26.5t0.5 -28.5v-315q0 -5 -0.5 -14
t-0.5 -16.5v-17t1.5 -17t3.5 -15.5t6 -12.5t10 -7.5t14.5 -2.5t19.5 4.5q5 2 8 4.5t5 7t3.5 7.5t2 9t0.5 8.5v9.5v8v48v315q0 3 0.5 17t0.5 23.5t-1.5 22.5t-6 21.5t-11.5 12.5q-10 5 -23 4t-21 -5q-10 -6 -11 -27zM213 632q2 29 20 41q11 7 29.5 9t34.5 -6q10 -5 16.5 -15
t9 -25.5t3 -24.5t0 -28.5t-0.5 -21.5v-315v-48q0 -16 -0.5 -23t-3 -18.5t-9.5 -19t-18 -11.5q-33 -13 -55 0t-26 47q-1 9 -1 69v315q0 66 1 75z" />
    <glyph glyph-name="Ocircumflex" unicode="&#xd4;" horiz-adv-x="526" 
d="M255 992h12l146 -99l-8 -18q-16 4 -49 11.5t-49 11.5l-39 11l-3 -1q-16 -2 -43.5 -10t-35.5 -10l-54 -13l-8 18zM261 972l-87 -66q7 2 38.5 10.5t48.5 11.5l3 1h4q2 0 5 -1l5 -1l14 -4l21 -5q18 -4 43 -11zM199 812q52 5 132 -1t111 -32q40 -35 40 -140v-473v-21.5v-23
t-1 -21t-3 -22t-6 -19.5t-9.5 -19t-14.5 -15t-20 -14q-48 -25 -161 -26.5t-156 22.5q-21 12 -33.5 31t-17 48t-5.5 44t-1 49v452q0 6 -0.5 25t0 26t1.5 22.5t4.5 23.5t9 19.5t14.5 20t22 16.5q32 21 94 28zM201 792q-108 -11 -123 -75q-4 -18 -4 -86v-452v-8q0 -35 1.5 -56
t12.5 -49t33 -41q37 -22 145.5 -20.5t151.5 24.5q13 6 21.5 17t13 18.5t7 25.5t3 23.5t0 28t-0.5 24.5v473q0 96 -32 124q-26 22 -102 28t-127 1zM232 630q-1 -8 -1 -18t0.5 -26.5t0.5 -28.5v-315q0 -5 -0.5 -14t-0.5 -16.5v-17t1.5 -17t3.5 -15.5t6 -12.5t10 -7.5
t14.5 -2.5t19.5 4.5q5 2 8 4.5t5 7t3.5 7.5t2 9t0.5 8.5v9.5v8v48v315q0 3 0.5 17t0.5 23.5t-1.5 22.5t-6 21.5t-11.5 12.5q-10 5 -23 4t-21 -5q-10 -6 -11 -27zM213 632q2 29 20 41q11 7 29.5 9t34.5 -6q10 -5 16.5 -15t9 -25.5t3 -24.5t0 -28.5t-0.5 -21.5v-315v-48
q0 -16 -0.5 -23t-3 -18.5t-9.5 -19t-18 -11.5q-33 -13 -55 0t-26 47q-1 9 -1 69v315q0 66 1 75z" />
    <glyph glyph-name="Otilde" unicode="&#xd5;" horiz-adv-x="526" 
d="M289 970q6 -3 18.5 -8.5t17 -7t14 -3.5t16 -0.5t16.5 5.5t22 12l14 -12q-22 -47 -45.5 -63.5t-65.5 -15.5q-17 1 -39 7.5t-37.5 12t-36 5t-39.5 -12.5l-14 13q27 45 50 63.5t61 15.5q22 -1 48 -11zM282 951q-36 16 -65 9t-52 -40q26 7 69.5 -8.5t79 -15.5t60.5 40
q-14 -5 -27.5 -5t-20 1.5t-23 9t-21.5 9.5zM199 812q52 5 132 -1t111 -32q40 -35 40 -140v-473v-21.5v-23t-1 -21t-3 -22t-6 -19.5t-9.5 -19t-14.5 -15t-20 -14q-48 -25 -161 -26.5t-156 22.5q-21 12 -33.5 31t-17 48t-5.5 44t-1 49v452q0 6 -0.5 25t0 26t1.5 22.5t4.5 23.5
t9 19.5t14.5 20t22 16.5q32 21 94 28zM201 792q-108 -11 -123 -75q-4 -18 -4 -86v-452v-8q0 -35 1.5 -56t12.5 -49t33 -41q37 -22 145.5 -20.5t151.5 24.5q13 6 21.5 17t13 18.5t7 25.5t3 23.5t0 28t-0.5 24.5v473q0 96 -32 124q-26 22 -102 28t-127 1zM232 630
q-1 -8 -1 -18t0.5 -26.5t0.5 -28.5v-315q0 -5 -0.5 -14t-0.5 -16.5v-17t1.5 -17t3.5 -15.5t6 -12.5t10 -7.5t14.5 -2.5t19.5 4.5q5 2 8 4.5t5 7t3.5 7.5t2 9t0.5 8.5v9.5v8v48v315q0 3 0.5 17t0.5 23.5t-1.5 22.5t-6 21.5t-11.5 12.5q-10 5 -23 4t-21 -5q-10 -6 -11 -27z
M213 632q2 29 20 41q11 7 29.5 9t34.5 -6q10 -5 16.5 -15t9 -25.5t3 -24.5t0 -28.5t-0.5 -21.5v-315v-48q0 -16 -0.5 -23t-3 -18.5t-9.5 -19t-18 -11.5q-33 -13 -55 0t-26 47q-1 9 -1 69v315q0 66 1 75z" />
    <glyph glyph-name="Odieresis" unicode="&#xd6;" horiz-adv-x="526" 
d="M183 984q26 13 50.5 -6t23.5 -47q-1 -29 -25 -46t-50 -5q-34 16 -35 52.5t36 51.5zM190 966q-24 -11 -23.5 -34t23.5 -34q26 -12 42 16t-11 48q-15 11 -30 4h-1zM312 984q24 14 49.5 -3t28.5 -43.5t-25 -50.5q-26 -18 -52.5 -6.5t-33.5 41.5q-4 18 5 35.5t28 26.5z
M321 966q-29 -15 -20 -44q7 -24 29 -26q12 -1 23 7q19 16 17 32.5t-18 27t-30 3.5h-1zM199 812q52 5 132 -1t111 -32q40 -35 40 -140v-473v-21.5v-23t-1 -21t-3 -22t-6 -19.5t-9.5 -19t-14.5 -15t-20 -14q-48 -25 -161 -26.5t-156 22.5q-21 12 -33.5 31t-17 48t-5.5 44
t-1 49v452q0 6 -0.5 25t0 26t1.5 22.5t4.5 23.5t9 19.5t14.5 20t22 16.5q32 21 94 28zM201 792q-108 -11 -123 -75q-4 -18 -4 -86v-452v-8q0 -35 1.5 -56t12.5 -49t33 -41q37 -22 145.5 -20.5t151.5 24.5q13 6 21.5 17t13 18.5t7 25.5t3 23.5t0 28t-0.5 24.5v473
q0 96 -32 124q-26 22 -102 28t-127 1zM232 630q-1 -8 -1 -18t0.5 -26.5t0.5 -28.5v-315q0 -5 -0.5 -14t-0.5 -16.5v-17t1.5 -17t3.5 -15.5t6 -12.5t10 -7.5t14.5 -2.5t19.5 4.5q5 2 8 4.5t5 7t3.5 7.5t2 9t0.5 8.5v9.5v8v48v315q0 3 0.5 17t0.5 23.5t-1.5 22.5t-6 21.5
t-11.5 12.5q-10 5 -23 4t-21 -5q-10 -6 -11 -27zM213 632q2 29 20 41q11 7 29.5 9t34.5 -6q10 -5 16.5 -15t9 -25.5t3 -24.5t0 -28.5t-0.5 -21.5v-315v-48q0 -16 -0.5 -23t-3 -18.5t-9.5 -19t-18 -11.5q-33 -13 -55 0t-26 47q-1 9 -1 69v315q0 66 1 75z" />
    <glyph glyph-name="Ugrave" unicode="&#xd9;" horiz-adv-x="527" 
d="M371 874l-9 -17q-5 1 -32.5 5t-48 8t-47 10.5t-44.5 16t-24 21.5q-12 22 2 44q22 47 70 21q14 -8 27.5 -17.5t29.5 -23t24.5 -21t27.5 -25.5t24 -22zM333 882q-1 1 -11 10t-17.5 15.5t-20 17t-23 18.5t-21 15.5t-18.5 11t-12 2.5q-17 -3 -24 -19l-1 -2q-27 -41 114 -64
q7 -1 19 -3q12 -1 15 -2zM221 799l10 -10v-552l-1 -15q0 -15 0.5 -24.5t2 -23.5t5 -23t9.5 -12q20 -11 40 1q19 10 19 58v45v546l10 10h157l10 -10v-613q0 -34 -0.5 -47.5t-5 -43.5t-16.5 -48.5t-32 -30.5q-40 -23 -155 -24t-162 24q-12 7 -21 16.5t-15.5 17.5t-10.5 23
t-6.5 22t-3.5 26t-1 24v26.5v23.5v604l10 10h157zM211 779h-137v-594q0 -4 -0.5 -24t0 -27.5t1.5 -24.5t4.5 -26t8.5 -22t13.5 -21.5t20.5 -15.5q42 -23 151.5 -22.5t145.5 22.5q7 4 13 10t10 11.5t7.5 15t5.5 15.5t4 17.5t2.5 16.5t1 18t0.5 16.5v17v14.5v603h-137v-536
q0 -4 0.5 -23.5t0 -29.5t-3 -25.5t-9 -26t-17.5 -16.5q-13 -7 -30.5 -7t-29.5 6q-9 5 -15 15t-8.5 26t-3 25t0 29t0.5 21v542z" />
    <glyph glyph-name="Uacute" unicode="&#xda;" horiz-adv-x="527" 
d="M179 857l-10 17q2 3 21 25t33 37t34 34.5t37 29.5t29 9q27 -3 43 -29q11 -21 1 -44q-3 -8 -12 -15.5t-18 -12.5t-24 -10.5t-23 -8t-23.5 -6.5t-18.5 -5zM207 887q85 25 94 28q41 14 48 29q6 15 -1 26q-9 17 -27 19q-8 1 -20 -6.5t-26.5 -22t-25.5 -26.5t-25.5 -28.5
t-16.5 -18.5zM221 799l10 -10v-552l-1 -15q0 -15 0.5 -24.5t2 -23.5t5 -23t9.5 -12q20 -11 40 1q19 10 19 58v45v546l10 10h157l10 -10v-613q0 -34 -0.5 -47.5t-5 -43.5t-16.5 -48.5t-32 -30.5q-40 -23 -155 -24t-162 24q-12 7 -21 16.5t-15.5 17.5t-10.5 23t-6.5 22
t-3.5 26t-1 24v26.5v23.5v604l10 10h157zM211 779h-137v-594q0 -4 -0.5 -24t0 -27.5t1.5 -24.5t4.5 -26t8.5 -22t13.5 -21.5t20.5 -15.5q42 -23 151.5 -22.5t145.5 22.5q7 4 13 10t10 11.5t7.5 15t5.5 15.5t4 17.5t2.5 16.5t1 18t0.5 16.5v17v14.5v603h-137v-536
q0 -4 0.5 -23.5t0 -29.5t-3 -25.5t-9 -26t-17.5 -16.5q-13 -7 -30.5 -7t-29.5 6q-9 5 -15 15t-8.5 26t-3 25t0 29t0.5 21v542z" />
    <glyph glyph-name="Ucircumflex" unicode="&#xdb;" horiz-adv-x="527" 
d="M255 973h12l146 -99l-8 -18l-43 10q-42 9 -55 13l-39 10l-3 -1q-11 -1 -133 -32l-8 18zM261 953l-87 -66l87 21l4 1h3q2 0 4 -1l6 -1l14 -3l21 -5q8 -3 23.5 -6.5t19.5 -4.5zM221 799l10 -10v-552l-1 -15q0 -15 0.5 -24.5t2 -23.5t5 -23t9.5 -12q20 -11 40 1q19 10 19 58
v45v546l10 10h157l10 -10v-613q0 -34 -0.5 -47.5t-5 -43.5t-16.5 -48.5t-32 -30.5q-40 -23 -155 -24t-162 24q-12 7 -21 16.5t-15.5 17.5t-10.5 23t-6.5 22t-3.5 26t-1 24v26.5v23.5v604l10 10h157zM211 779h-137v-594q0 -4 -0.5 -24t0 -27.5t1.5 -24.5t4.5 -26t8.5 -22
t13.5 -21.5t20.5 -15.5q42 -23 151.5 -22.5t145.5 22.5q7 4 13 10t10 11.5t7.5 15t5.5 15.5t4 17.5t2.5 16.5t1 18t0.5 16.5v17v14.5v603h-137v-536q0 -4 0.5 -23.5t0 -29.5t-3 -25.5t-9 -26t-17.5 -16.5q-13 -7 -30.5 -7t-29.5 6q-9 5 -15 15t-8.5 26t-3 25t0 29t0.5 21
v542z" />
    <glyph glyph-name="Udieresis" unicode="&#xdc;" horiz-adv-x="527" 
d="M183 965q27 10 51 -7t23 -46t-25 -46.5t-50 -5.5h-1q-28 13 -34 45q-3 18 7 35.5t29 24.5zM191 947q-13 -5 -19.5 -16.5t-4.5 -21.5q4 -21 23 -31q15 -5 31 4q16 11 16 30.5t-16 30.5q-14 9 -30 4zM313 965q21 11 39 2t29.5 -25t8 -37.5t-23.5 -36.5q-24 -19 -50 -9l-1 1
q-36 14 -37.5 50.5t35.5 54.5zM321 947q-25 -12 -23 -34.5t25 -34.5q18 -5 32.5 6.5t14.5 30t-20 31.5q-14 9 -29 1zM221 799l10 -10v-552l-1 -15q0 -15 0.5 -24.5t2 -23.5t5 -23t9.5 -12q20 -11 40 1q19 10 19 58v45v546l10 10h157l10 -10v-613q0 -34 -0.5 -47.5t-5 -43.5
t-16.5 -48.5t-32 -30.5q-40 -23 -155 -24t-162 24q-12 7 -21 16.5t-15.5 17.5t-10.5 23t-6.5 22t-3.5 26t-1 24v26.5v23.5v604l10 10h157zM211 779h-137v-594q0 -4 -0.5 -24t0 -27.5t1.5 -24.5t4.5 -26t8.5 -22t13.5 -21.5t20.5 -15.5q42 -23 151.5 -22.5t145.5 22.5
q7 4 13 10t10 11.5t7.5 15t5.5 15.5t4 17.5t2.5 16.5t1 18t0.5 16.5v17v14.5v603h-137v-536q0 -4 0.5 -23.5t0 -29.5t-3 -25.5t-9 -26t-17.5 -16.5q-13 -7 -30.5 -7t-29.5 6q-9 5 -15 15t-8.5 26t-3 25t0 29t0.5 21v542z" />
    <glyph glyph-name="germandbls" unicode="&#xdf;" horiz-adv-x="340" 
d="M153 538v8q-59 4 -79 19.5t-20 77.5v67q0 57 22 78.5t77 23.5v18l10 10h25l10 -10v-19q91 -8 98 -64q1 -13 1 -49v-40l-10 -10h-86l-10 10v19q0 34 -2 39h-2l10 10v-83q89 -2 98 -68q2 -13 2 -36v-87q0 -58 -19 -77t-78 -25v-13l-10 -10h-26l-10 10v14q-59 3 -79.5 24
t-20.5 85v51v20l10 10h86zM173 820v-18l-10 -10q-52 -2 -70.5 -16t-18.5 -66v-67q0 -15 1.5 -26.5t3 -19.5t7.5 -13t8.5 -8.5t13.5 -5.5t15 -2.5t19.5 -1.5t21.5 -1l9 -10v-118l-10 -10q-23 0 -23 39v33v22h-66v-10v-51q0 -57 16.5 -72t74.5 -18l9 -10v-13h6v12l9 10
q23 3 31.5 4t22 4.5t17.5 8t9.5 13.5t6.5 21.5t1 31.5v87q0 20 -1 30.5t-6 22t-16 18t-30 10.5q-16 3 -37 3l-10 10v93l10 10q9 0 14 -3.5t7 -12.5t3 -13t1 -17l-1 -13v-9h66v30q0 2 0.5 12.5t0 17t-1 15.5t-3.5 15.5t-7 10.5q-11 10 -35.5 16t-42.5 6l-10 10v19h-5z
M163 715q-4 -4 -4 -35q0 -27 4 -33q-5 -5 -8 26l-2 52l11 -10h-1zM155 733q4 2 7 2l11 -10v-88l-10 -10q-24 0 -24 53q0 47 16 53zM198 438l-11 10h2q2 7 2 19v54q0 12 -2 16h-1l10 10v-109zM178 438v109l10 10q23 0 23 -36v-54q0 -37 -22 -39z" />
    <glyph glyph-name="agrave" unicode="&#xe0;" horiz-adv-x="474" 
d="M343 691l-9 -17q-5 1 -32 5t-48.5 8t-47.5 10.5t-44.5 16t-24.5 21.5q-12 23 2 44q22 46 70 21q14 -7 28 -16.5t29.5 -23t25 -21.5t27.5 -25t24 -23zM305 699q-106 93 -124 90q-15 -2 -24 -19l-1 -2q-7 -15 2.5 -26.5t32.5 -19t42 -12t45 -8t27 -3.5zM267 405
q4 77 -14 87t-29.5 -4t-12.5 -33v-22l-10 -10h-137l-10 10q0 91 13 126q11 30 34 45q35 22 136.5 23t139.5 -19q16 -8 27 -23t16 -27.5t8 -36.5t3 -34v-35v-302q0 -78 -12 -107q-11 -28 -35 -40q-30 -15 -142 -17.5t-147 15.5q-17 10 -27.5 27t-14.5 42t-5 40.5t-1 41.5v8
v78v35t3 33.5t8.5 36t16.5 27t28 22.5q52 25 164 13zM276 384q-113 15 -165 -10q-22 -11 -32.5 -39t-11 -44t-0.5 -53v-78q0 -88 16 -118q9 -16 22 -23q29 -15 136.5 -13t132.5 15q7 3 12 8t9 12.5t7 13.5t4.5 16t2.5 15.5t1.5 17.5t0.5 16v16.5v13.5v302q0 74 -11 101
q-11 26 -33 37q-33 18 -130 17.5t-126 -19.5q-37 -23 -37 -137v-8h117q0 49 28 66q22 12 44 1q8 -5 13.5 -13.5t8 -17.5t3.5 -23t1 -22t-1 -22.5t-1 -17.5zM212 238q-7 -109 8 -122q8 -7 25 -3.5t20 14.5q3 13 2.5 70t-5.5 71q-9 11 -23 7h-1q-23 -5 -26 -37zM192 240
q4 47 42 55q17 3 31.5 -4.5t17.5 -22.5q5 -19 4.5 -81t-8.5 -76q-10 -16 -34 -19t-37 8q-25 22 -16 140z" />
    <glyph glyph-name="aacute" unicode="&#xe1;" horiz-adv-x="474" 
d="M150 674l-10 17q2 3 21 25t33 37t34 34.5t37 29.5t29 9q27 -3 43 -29q12 -21 2 -44q-2 -5 -6.5 -10t-11 -9.5t-12.5 -8t-15.5 -7.5t-15.5 -6.5t-17 -5.5t-15 -4.5t-15 -4.5t-12 -3zM177 703q4 1 24.5 7t36 10.5t35 11.5t32 14.5t16.5 14.5q5 15 -2 26q-9 17 -27 19
q-6 1 -13.5 -3t-18 -12.5t-18.5 -16t-20 -20.5t-17.5 -19.5t-16.5 -18.5zM267 405q4 77 -14 87t-29.5 -4t-12.5 -33v-22l-10 -10h-137l-10 10q0 91 13 126q11 30 34 45q35 22 136.5 23t139.5 -19q16 -8 27 -23t16 -27.5t8 -36.5t3 -34v-35v-302q0 -78 -12 -107
q-11 -28 -35 -40q-30 -15 -142 -17.5t-147 15.5q-17 10 -27.5 27t-14.5 42t-5 40.5t-1 41.5v8v78v35t3 33.5t8.5 36t16.5 27t28 22.5q52 25 164 13zM276 384q-113 15 -165 -10q-22 -11 -32.5 -39t-11 -44t-0.5 -53v-78q0 -88 16 -118q9 -16 22 -23q29 -15 136.5 -13
t132.5 15q7 3 12 8t9 12.5t7 13.5t4.5 16t2.5 15.5t1.5 17.5t0.5 16v16.5v13.5v302q0 74 -11 101q-11 26 -33 37q-33 18 -130 17.5t-126 -19.5q-37 -23 -37 -137v-8h117q0 49 28 66q22 12 44 1q8 -5 13.5 -13.5t8 -17.5t3.5 -23t1 -22t-1 -22.5t-1 -17.5zM212 238
q-7 -109 8 -122q8 -7 25 -3.5t20 14.5q3 13 2.5 70t-5.5 71q-9 11 -23 7h-1q-23 -5 -26 -37zM192 240q4 47 42 55q17 3 31.5 -4.5t17.5 -22.5q5 -19 4.5 -81t-8.5 -76q-10 -16 -34 -19t-37 8q-25 22 -16 140z" />
    <glyph glyph-name="acircumflex" unicode="&#xe2;" horiz-adv-x="474" 
d="M226 790h12l146 -99l-8 -18q-6 1 -27.5 6t-40 9t-29.5 8l-40 10l-3 -1q-11 -1 -133 -32l-8 18zM232 770l-87 -66l87 21l4 1h3q2 0 4 -1l6 -1l15 -3l21 -5q8 -3 22.5 -6.5t19.5 -4.5zM267 405q4 77 -14 87t-29.5 -4t-12.5 -33v-22l-10 -10h-137l-10 10q0 91 13 126
q11 30 34 45q35 22 136.5 23t139.5 -19q16 -8 27 -23t16 -27.5t8 -36.5t3 -34v-35v-302q0 -78 -12 -107q-11 -28 -35 -40q-30 -15 -142 -17.5t-147 15.5q-17 10 -27.5 27t-14.5 42t-5 40.5t-1 41.5v8v78v35t3 33.5t8.5 36t16.5 27t28 22.5q52 25 164 13zM276 384
q-113 15 -165 -10q-22 -11 -32.5 -39t-11 -44t-0.5 -53v-78q0 -88 16 -118q9 -16 22 -23q29 -15 136.5 -13t132.5 15q7 3 12 8t9 12.5t7 13.5t4.5 16t2.5 15.5t1.5 17.5t0.5 16v16.5v13.5v302q0 74 -11 101q-11 26 -33 37q-33 18 -130 17.5t-126 -19.5q-37 -23 -37 -137v-8
h117q0 49 28 66q22 12 44 1q8 -5 13.5 -13.5t8 -17.5t3.5 -23t1 -22t-1 -22.5t-1 -17.5zM212 238q-7 -109 8 -122q8 -7 25 -3.5t20 14.5q3 13 2.5 70t-5.5 71q-9 11 -23 7h-1q-23 -5 -26 -37zM192 240q4 47 42 55q17 3 31.5 -4.5t17.5 -22.5q5 -19 4.5 -81t-8.5 -76
q-10 -16 -34 -19t-37 8q-25 22 -16 140z" />
    <glyph glyph-name="atilde" unicode="&#xe3;" horiz-adv-x="474" 
d="M260 767q7 -3 19 -8t16.5 -6.5t14 -3.5t16 -0.5t16.5 5.5t22 12l14 -12q-21 -47 -45 -64t-66 -16q-17 1 -39 7.5t-37.5 12t-36 5t-39.5 -12.5l-14 14q34 57 66 72.5t93 -5.5zM253 749q-37 16 -65 9.5t-52 -41.5q25 7 69 -8.5t79.5 -15.5t60.5 41q-14 -5 -27.5 -5t-20 1.5
t-23 9t-21.5 9.5zM267 405q4 77 -14 87t-29.5 -4t-12.5 -33v-22l-10 -10h-137l-10 10q0 91 13 126q11 30 34 45q35 22 136.5 23t139.5 -19q16 -8 27 -23t16 -27.5t8 -36.5t3 -34v-35v-302q0 -78 -12 -107q-11 -28 -35 -40q-30 -15 -142 -17.5t-147 15.5q-17 10 -27.5 27
t-14.5 42t-5 40.5t-1 41.5v8v78v35t3 33.5t8.5 36t16.5 27t28 22.5q52 25 164 13zM276 384q-113 15 -165 -10q-22 -11 -32.5 -39t-11 -44t-0.5 -53v-78q0 -88 16 -118q9 -16 22 -23q29 -15 136.5 -13t132.5 15q7 3 12 8t9 12.5t7 13.5t4.5 16t2.5 15.5t1.5 17.5t0.5 16v16.5
v13.5v302q0 74 -11 101q-11 26 -33 37q-33 18 -130 17.5t-126 -19.5q-37 -23 -37 -137v-8h117q0 49 28 66q22 12 44 1q8 -5 13.5 -13.5t8 -17.5t3.5 -23t1 -22t-1 -22.5t-1 -17.5zM212 238q-7 -109 8 -122q8 -7 25 -3.5t20 14.5q3 13 2.5 70t-5.5 71q-9 11 -23 7h-1
q-23 -5 -26 -37zM192 240q4 47 42 55q17 3 31.5 -4.5t17.5 -22.5q5 -19 4.5 -81t-8.5 -76q-10 -16 -34 -19t-37 8q-25 22 -16 140z" />
    <glyph glyph-name="adieresis" unicode="&#xe4;" horiz-adv-x="474" 
d="M154 782q27 11 51 -6.5t23 -46.5t-25 -46.5t-50 -5.5h-1q-35 17 -35 53.5t37 51.5zM162 764q-13 -6 -19.5 -17t-4.5 -21q4 -20 23 -31q15 -5 31 4q16 11 16 30.5t-16 30.5q-14 9 -30 4zM284 782q26 12 48 -2l1 -1q23 -15 27.5 -36.5t-5.5 -38.5t-29.5 -26.5t-38.5 -1.5
l-1 1q-36 14 -37 50.5t35 54.5zM292 764q-24 -13 -23 -35t25 -34q27 -7 42 18.5t-14 49.5q-17 8 -30 1zM267 405q4 77 -14 87t-29.5 -4t-12.5 -33v-22l-10 -10h-137l-10 10q0 91 13 126q11 30 34 45q35 22 136.5 23t139.5 -19q16 -8 27 -23t16 -27.5t8 -36.5t3 -34v-35v-302
q0 -78 -12 -107q-11 -28 -35 -40q-30 -15 -142 -17.5t-147 15.5q-17 10 -27.5 27t-14.5 42t-5 40.5t-1 41.5v8v78v35t3 33.5t8.5 36t16.5 27t28 22.5q52 25 164 13zM276 384q-113 15 -165 -10q-22 -11 -32.5 -39t-11 -44t-0.5 -53v-78q0 -88 16 -118q9 -16 22 -23
q29 -15 136.5 -13t132.5 15q7 3 12 8t9 12.5t7 13.5t4.5 16t2.5 15.5t1.5 17.5t0.5 16v16.5v13.5v302q0 74 -11 101q-11 26 -33 37q-33 18 -130 17.5t-126 -19.5q-37 -23 -37 -137v-8h117q0 49 28 66q22 12 44 1q8 -5 13.5 -13.5t8 -17.5t3.5 -23t1 -22t-1 -22.5t-1 -17.5z
M212 238q-7 -109 8 -122q8 -7 25 -3.5t20 14.5q3 13 2.5 70t-5.5 71q-9 11 -23 7h-1q-23 -5 -26 -37zM192 240q4 47 42 55q17 3 31.5 -4.5t17.5 -22.5q5 -19 4.5 -81t-8.5 -76q-10 -16 -34 -19t-37 8q-25 22 -16 140z" />
    <glyph glyph-name="aring" unicode="&#xe5;" horiz-adv-x="474" 
d="M222 795q33 11 57 -10t22.5 -53.5t-32.5 -49.5q-29 -19 -57.5 -3t-33.5 50q-3 22 9 40.5t35 25.5zM228 777q-36 -12 -30 -46q5 -28 29 -36q16 -5 31 4l1 1q20 12 21.5 34t-14.5 36.5t-38 6.5zM222 728q5 -9 16 -11q9 -1 16 6q10 13 -2 26t-24 2q-12 -9 -6 -23zM204 720
q-11 22 5.5 41.5t39.5 12.5q21 -6 28 -26t-7 -37q-13 -15 -34 -14q-21 2 -32 23zM267 405q4 77 -14 87t-29.5 -4t-12.5 -33v-22l-10 -10h-137l-10 10q0 91 13 126q11 30 34 45q35 22 136.5 23t139.5 -19q16 -8 27 -23t16 -27.5t8 -36.5t3 -34v-35v-302q0 -78 -12 -107
q-11 -28 -35 -40q-30 -15 -142 -17.5t-147 15.5q-17 10 -27.5 27t-14.5 42t-5 40.5t-1 41.5v8v78v35t3 33.5t8.5 36t16.5 27t28 22.5q52 25 164 13zM276 384q-113 15 -165 -10q-22 -11 -32.5 -39t-11 -44t-0.5 -53v-78q0 -88 16 -118q9 -16 22 -23q29 -15 136.5 -13
t132.5 15q7 3 12 8t9 12.5t7 13.5t4.5 16t2.5 15.5t1.5 17.5t0.5 16v16.5v13.5v302q0 74 -11 101q-11 26 -33 37q-33 18 -130 17.5t-126 -19.5q-37 -23 -37 -137v-8h117q0 49 28 66q22 12 44 1q8 -5 13.5 -13.5t8 -17.5t3.5 -23t1 -22t-1 -22.5t-1 -17.5zM212 238
q-7 -109 8 -122q8 -7 25 -3.5t20 14.5q3 13 2.5 70t-5.5 71q-9 11 -23 7h-1q-23 -5 -26 -37zM192 240q4 47 42 55q17 3 31.5 -4.5t17.5 -22.5q5 -19 4.5 -81t-8.5 -76q-10 -16 -34 -19t-37 8q-25 22 -16 140z" />
    <glyph glyph-name="ccedilla" unicode="&#xe7;" horiz-adv-x="328" 
d="M141 842l10 10h35l10 -10v-72q58 -4 73 -20t15 -79v-60l-10 -10h-83l-10 10v23q0 49 -5 53q-7 2 -13 -1q-5 -4 -5 -51v-100q0 -45 6 -52q4 -5 11 0q6 4 6 59v5l10 10h84l10 -10v-41q0 -30 -0.5 -39.5t-4.5 -27.5t-13 -24t-26 -12.5t-44 -7.5v-90l-10 -10h-36l-10 10v92
q-53 3 -70 24t-17 79v180q0 21 0.5 32t8 26.5t21.5 22.5h1q18 8 56 10v71zM201 537q0 -1 0.5 -12.5t0 -17.5t-1.5 -15t-4.5 -15.5t-8.5 -9.5q-17 -10 -31.5 -0.5t-16.5 27.5q-1 10 -1 41v100q0 2 -0.5 13t0 16t1.5 14t4.5 15t8.5 10l2 1q12 6 28 3l2 -1q6 -3 10 -9t5.5 -16
t2 -16t0 -18t-0.5 -13v-13h63v50q0 56 -10.5 66t-68.5 14l-9 10v71h-15v-71l-10 -10q-34 0 -58 -8q-19 -11 -19 -63v-180q0 -52 13 -67t64 -17l10 -10v-91h16v90l10 10q39 0 62 13q6 3 9.5 10t5 17.5t2 17t0 19t-0.5 14.5v31h-64z" />
    <glyph glyph-name="egrave" unicode="&#xe8;" horiz-adv-x="480" 
d="M350 691l-9 -17q-3 0 -26 3.5t-38.5 6t-40.5 8t-41.5 11t-31.5 14.5t-20 19q-10 21 3.5 45t36.5 28q6 1 14.5 -1.5t19 -8.5t21 -12.5t23 -16.5t22 -18t21.5 -19t19 -17t16 -15t11 -10zM311 699q-100 94 -124 90q-13 -2 -22.5 -17.5t-3.5 -27.5q3 -6 11 -11t20 -9t24 -7.5
t28 -6.5t26.5 -4.5t24 -4t16.5 -2.5zM436 263l-10 -10h-202v-35q0 -1 -0.5 -13.5t-0.5 -25t0.5 -27t3 -24.5t6.5 -13q9 -7 21.5 -0.5t13.5 19.5q1 5 1 18v24v33l10 10h147l10 -10v-25v-27q0 -93 -4 -109q-7 -27 -42 -46q-33 -18 -141 -17t-142 20q-33 19 -43 55t-10 86v324
q0 73 11 99q12 28 39 42q30 17 144.5 16.5t148.5 -21.5q11 -7 19 -19t12 -22t6 -28.5t2.5 -26.5t0 -29.5t-0.5 -24.5v-193zM416 273v183q0 2 0.5 24.5t0 32.5t-3 28t-9 29t-17.5 18q-30 19 -139 19t-134 -14q-8 -4 -14.5 -10.5t-10.5 -12t-7 -15.5t-4.5 -15.5t-2.5 -18.5
t-1 -17v-18v-16v-324q0 -29 1.5 -47t12 -41.5t29.5 -34.5q17 -10 83.5 -17t135 3t76.5 44q4 17 4 104v27v15h-127v-23v-24q0 -45 -25 -54q-54 -19 -59 39q-1 9 -1 81v45l10 10h202zM276 451q0 39 -12 45q-14 8 -26 3t-15 -20q-2 -7 -2 -30v-64h55v66zM296 451v-76l-10 -10
h-75l-10 10v74q0 18 0.5 26.5t6.5 21t19 19.5q19 10 40 1.5t26 -29.5q3 -10 3 -37z" />
    <glyph glyph-name="eacute" unicode="&#xe9;" horiz-adv-x="480" 
d="M156 674l-10 17q68 78 91 99q40 38 64 36q29 -4 42 -29q19 -29 -2 -50.5t-55 -33.5q-10 -4 -130 -39zM184 703q133 37 143 58q5 12 -1 25l-1 2q-9 16 -26 18q-7 1 -19 -7t-27.5 -23t-26 -25.5t-26.5 -28.5zM436 263l-10 -10h-202v-35q0 -1 -0.5 -13.5t-0.5 -25t0.5 -27
t3 -24.5t6.5 -13q9 -7 21.5 -0.5t13.5 19.5q1 5 1 18v24v33l10 10h147l10 -10v-25v-27q0 -93 -4 -109q-7 -27 -42 -46q-33 -18 -141 -17t-142 20q-33 19 -43 55t-10 86v324q0 73 11 99q12 28 39 42q30 17 144.5 16.5t148.5 -21.5q11 -7 19 -19t12 -22t6 -28.5t2.5 -26.5
t0 -29.5t-0.5 -24.5v-193zM416 273v183q0 2 0.5 24.5t0 32.5t-3 28t-9 29t-17.5 18q-30 19 -139 19t-134 -14q-8 -4 -14.5 -10.5t-10.5 -12t-7 -15.5t-4.5 -15.5t-2.5 -18.5t-1 -17v-18v-16v-324q0 -29 1.5 -47t12 -41.5t29.5 -34.5q17 -10 83.5 -17t135 3t76.5 44
q4 17 4 104v27v15h-127v-23v-24q0 -45 -25 -54q-54 -19 -59 39q-1 9 -1 81v45l10 10h202zM276 451q0 39 -12 45q-14 8 -26 3t-15 -20q-2 -7 -2 -30v-64h55v66zM296 451v-76l-10 -10h-75l-10 10v74q0 18 0.5 26.5t6.5 21t19 19.5q19 10 40 1.5t26 -29.5q3 -10 3 -37z" />
    <glyph glyph-name="ecircumflex" unicode="&#xea;" horiz-adv-x="480" 
d="M233 790h12l145 -99l-8 -18q-2 1 -43.5 10t-53.5 13l-40 10l-3 -1q-13 -2 -133 -32l-8 18zM239 770l-88 -66l87 21l4 1h3q2 0 4 -1l6 -1l15 -3l21 -5q8 -3 23.5 -6.5t18.5 -4.5zM436 263l-10 -10h-202v-35q0 -1 -0.5 -13.5t-0.5 -25t0.5 -27t3 -24.5t6.5 -13
q9 -7 21.5 -0.5t13.5 19.5q1 5 1 18v24v33l10 10h147l10 -10v-25v-27q0 -93 -4 -109q-7 -27 -42 -46q-33 -18 -141 -17t-142 20q-33 19 -43 55t-10 86v324q0 73 11 99q12 28 39 42q30 17 144.5 16.5t148.5 -21.5q11 -7 19 -19t12 -22t6 -28.5t2.5 -26.5t0 -29.5t-0.5 -24.5
v-193zM416 273v183q0 2 0.5 24.5t0 32.5t-3 28t-9 29t-17.5 18q-30 19 -139 19t-134 -14q-8 -4 -14.5 -10.5t-10.5 -12t-7 -15.5t-4.5 -15.5t-2.5 -18.5t-1 -17v-18v-16v-324q0 -29 1.5 -47t12 -41.5t29.5 -34.5q17 -10 83.5 -17t135 3t76.5 44q4 17 4 104v27v15h-127v-23
v-24q0 -45 -25 -54q-54 -19 -59 39q-1 9 -1 81v45l10 10h202zM276 451q0 39 -12 45q-14 8 -26 3t-15 -20q-2 -7 -2 -30v-64h55v66zM296 451v-76l-10 -10h-75l-10 10v74q0 18 0.5 26.5t6.5 21t19 19.5q19 10 40 1.5t26 -29.5q3 -10 3 -37z" />
    <glyph glyph-name="edieresis" unicode="&#xeb;" horiz-adv-x="480" 
d="M161 782q17 6 33 2.5t25.5 -16.5t14 -27.5t-2 -30.5t-23.5 -27q-26 -17 -48 -6h-1q-35 16 -35 53t37 52zM169 764q-28 -12 -24 -38q3 -20 23 -31q27 -9 42.5 18t-12.5 47q-13 9 -29 4zM290 782q23 11 48 -2q30 -25 29.5 -52t-24 -44.5t-49.5 -7.5l-1 1q-36 14 -37.5 50.5
t34.5 54.5zM298 764q-24 -13 -22 -35t25 -34q16 -4 31 7t16 27.5t-20 32.5q-15 11 -30 2zM436 263l-10 -10h-202v-35q0 -1 -0.5 -13.5t-0.5 -25t0.5 -27t3 -24.5t6.5 -13q9 -7 21.5 -0.5t13.5 19.5q1 5 1 18v24v33l10 10h147l10 -10v-25v-27q0 -93 -4 -109q-7 -27 -42 -46
q-33 -18 -141 -17t-142 20q-33 19 -43 55t-10 86v324q0 73 11 99q12 28 39 42q30 17 144.5 16.5t148.5 -21.5q11 -7 19 -19t12 -22t6 -28.5t2.5 -26.5t0 -29.5t-0.5 -24.5v-193zM416 273v183q0 2 0.5 24.5t0 32.5t-3 28t-9 29t-17.5 18q-30 19 -139 19t-134 -14
q-8 -4 -14.5 -10.5t-10.5 -12t-7 -15.5t-4.5 -15.5t-2.5 -18.5t-1 -17v-18v-16v-324q0 -29 1.5 -47t12 -41.5t29.5 -34.5q17 -10 83.5 -17t135 3t76.5 44q4 17 4 104v27v15h-127v-23v-24q0 -45 -25 -54q-54 -19 -59 39q-1 9 -1 81v45l10 10h202zM276 451q0 39 -12 45
q-14 8 -26 3t-15 -20q-2 -7 -2 -30v-64h55v66zM296 451v-76l-10 -10h-75l-10 10v74q0 18 0.5 26.5t6.5 21t19 19.5q19 10 40 1.5t26 -29.5q3 -10 3 -37z" />
    <glyph glyph-name="igrave" unicode="&#xec;" horiz-adv-x="258" 
d="M237 675l-9 -17q-5 1 -32 5t-48 8t-47.5 10.5t-44.5 16t-24 21.5q-12 23 2 44q23 46 70 21q18 -9 38 -24t30.5 -24.5t35 -33t29.5 -27.5zM199 683q-99 93 -123 90q-16 -3 -24 -19l-1 -2q-7 -15 2 -26.5t32 -19t42 -12t45 -8t27 -3.5zM54 607l10 10h140l10 -10v-607
l-10 -10h-140l-10 10v607zM74 597v-587h120v587h-120z" />
    <glyph glyph-name="iacute" unicode="&#xed;" horiz-adv-x="258" 
d="M45 658l-10 17q2 3 21 25t33 37t34 34.5t37 29.5t29 9q27 -3 43 -29q11 -21 1 -44q-3 -6 -8.5 -11.5t-11.5 -10t-16 -9t-17 -7.5t-19 -7t-17 -5.5t-16.5 -5t-13.5 -3.5zM72 687q2 1 19 5.5t28.5 7.5t30 9.5t30.5 11.5t22 11.5t13 12.5q6 15 -1 26q-9 17 -27 19
q-6 1 -13.5 -3t-18 -12.5t-18.5 -16t-20 -20.5t-17.5 -19.5t-16.5 -18.5zM54 607l10 10h140l10 -10v-607l-10 -10h-140l-10 10v607zM74 597v-587h120v587h-120z" />
    <glyph glyph-name="icircumflex" unicode="&#xee;" horiz-adv-x="258" 
d="M121 774h12l146 -99l-8 -18q-6 1 -27.5 6t-40 9t-29.5 8l-40 10l-3 -1q-11 -1 -133 -32l-8 18zM127 754l-87 -66l87 21l4 1h3q2 0 4 -1l6 -1l15 -3l21 -5q8 -3 22.5 -6.5t19.5 -4.5zM54 607l10 10h140l10 -10v-607l-10 -10h-140l-10 10v607zM74 597v-587h120v587h-120z
" />
    <glyph glyph-name="idieresis" unicode="&#xef;" horiz-adv-x="258" 
d="M50 766q26 11 51 -7.5t22 -46.5q0 -28 -25 -46t-50 -5h-1q-34 17 -34 53.5t37 51.5zM58 748q-25 -12 -24 -34t22 -35q17 -6 32 5t15 29v1q0 17 -15 28.5t-30 5.5zM179 766q26 12 48 -2l1 -1q26 -17 28 -45.5t-25 -48.5q-26 -18 -49 -9l-1 1q-36 14 -37 50.5t35 54.5z
M187 748q-24 -13 -23 -35t25 -34q18 -4 30 6q17 11 17 31q0 14 -19 31q-17 8 -30 1zM54 607l10 10h140l10 -10v-607l-10 -10h-140l-10 10v607zM74 597v-587h120v587h-120z" />
    <glyph glyph-name="ntilde" unicode="&#xf1;" horiz-adv-x="480" 
d="M263 759q6 -3 16.5 -7.5t15 -6t12.5 -4t13 -2t13 2.5t16 6t18 11l15 -12q-22 -47 -46 -64t-66 -16q-18 1 -40 7.5t-37 12t-35.5 4.5t-39.5 -13l-14 14q27 45 50 63.5t61 15.5q23 -2 48 -12zM256 741q-36 16 -64.5 9.5t-52.5 -40.5q22 6 54 -2.5t56 -17.5t52 -2t48 39
q-12 -5 -21.5 -6.5t-19.5 0.5t-15.5 4t-18 8t-18.5 8zM436 0l-10 -10h-144l-10 10v389q0 67 -1 75q-3 21 -15 26q-3 2 -13.5 2t-12.5 -2q-5 -3 -7.5 -12.5t-3.5 -22t-1 -23t0.5 -23t0.5 -14.5v-395l-10 -10h-145l-10 10v454q0 81 4 99q7 34 45 58q24 16 137.5 16t148.5 -21
q31 -19 39 -47.5t8 -91.5v-467zM416 10v457q0 61 -6.5 84t-30.5 37q-30 18 -138.5 18.5t-127.5 -13.5q-25 -14 -31.5 -31t-7.5 -51v-57v-444h125v385q0 2 -0.5 19t0 27t2 25t6 25t11.5 15q8 6 23.5 6t22.5 -4q22 -12 27 -41q1 -9 1 -78v-379h124z" />
    <glyph glyph-name="ograve" unicode="&#xf2;" horiz-adv-x="478" 
d="M347 688l-9 -17q-5 1 -32 5t-48.5 8t-48 10.5t-44.5 16.5t-24 22q-10 19 2 43q24 46 70 21q17 -9 37 -24t32 -25.5t35 -32t30 -27.5zM308 696q-101 94 -123 90q-16 -3 -24 -20q-3 -10 -4 -17.5t9.5 -14t18.5 -11t23.5 -8.5t24.5 -5.5t22 -4t15 -2.5zM184 625
q32 7 110.5 0.5t101.5 -27.5q26 -23 32 -49.5t6 -100.5v-286q0 -90 -5 -108q-5 -17 -16 -27t-33 -23q-32 -18 -137 -19t-139 18q-12 7 -21 15.5t-14.5 20.5t-8.5 20.5t-4.5 25t-2 23t0 26.5t0.5 24v293q0 28 0.5 42.5t3 34.5t7.5 30.5t14 24t23 20.5t34.5 13t47.5 9z
M186 605q-21 -2 -37.5 -5.5t-28.5 -11.5t-20 -12.5t-13 -18t-8 -19.5t-4 -26t-1 -27.5v-33.5v-293q0 -4 -0.5 -24.5t0 -27t2.5 -23.5t6 -25.5t12 -19t20 -17.5q29 -16 129 -15.5t127 16.5q29 16 36 28.5t8 45.5v66v286q0 36 -1 55.5t-5.5 39.5t-12.5 29t-23.5 17.5t-36 11.5
t-53.5 5q-54 3 -96 -1zM224 485q-5 -6 -5 -91v-181q0 -1 -0.5 -14t0 -23t1 -22.5t3.5 -21t7 -11.5q3 -2 13 -2.5t15 1.5q6 3 9 12t4 21.5t1 23t-0.5 23t-0.5 14.5v184v11.5v18.5t-0.5 19.5t-1.5 20t-4 15.5t-7 9q-5 4 -16.5 2t-17.5 -9zM208 497q11 14 30 16.5t28 -3.5
q9 -5 15 -14.5t8 -25t2.5 -24.5t0 -28t-0.5 -20v-184q0 -4 0.5 -21t0 -27.5t-2 -25t-7.5 -24t-16 -14.5q-7 -4 -23 -3.5t-23 4.5q-8 5 -12.5 14.5t-6.5 24.5t-2.5 24.5t0 27.5t0.5 19v181q0 92 9 103z" />
    <glyph glyph-name="oacute" unicode="&#xf3;" horiz-adv-x="478" 
d="M154 671l-10 17q68 78 91 99q40 38 64 36q27 -2 40 -25t4 -48q-14 -30 -116 -58q-2 -1 -3 -1zM182 700q5 2 24 7t35.5 10t35.5 11.5t31.5 14.5t16.5 15q5 15 -3.5 29.5t-24.5 15.5q-7 1 -19 -6.5t-27.5 -22.5t-26 -26.5t-26 -29t-16.5 -18.5zM184 625q32 7 110.5 0.5
t101.5 -27.5q26 -23 32 -49.5t6 -100.5v-286q0 -90 -5 -108q-5 -17 -16 -27t-33 -23q-32 -18 -137 -19t-139 18q-12 7 -21 15.5t-14.5 20.5t-8.5 20.5t-4.5 25t-2 23t0 26.5t0.5 24v293q0 28 0.5 42.5t3 34.5t7.5 30.5t14 24t23 20.5t34.5 13t47.5 9zM186 605
q-21 -2 -37.5 -5.5t-28.5 -11.5t-20 -12.5t-13 -18t-8 -19.5t-4 -26t-1 -27.5v-33.5v-293q0 -4 -0.5 -24.5t0 -27t2.5 -23.5t6 -25.5t12 -19t20 -17.5q29 -16 129 -15.5t127 16.5q29 16 36 28.5t8 45.5v66v286q0 36 -1 55.5t-5.5 39.5t-12.5 29t-23.5 17.5t-36 11.5t-53.5 5
q-54 3 -96 -1zM224 485q-5 -6 -5 -91v-181q0 -1 -0.5 -14t0 -23t1 -22.5t3.5 -21t7 -11.5q3 -2 13 -2.5t15 1.5q6 3 9 12t4 21.5t1 23t-0.5 23t-0.5 14.5v184v11.5v18.5t-0.5 19.5t-1.5 20t-4 15.5t-7 9q-5 4 -16.5 2t-17.5 -9zM208 497q11 14 30 16.5t28 -3.5
q9 -5 15 -14.5t8 -25t2.5 -24.5t0 -28t-0.5 -20v-184q0 -4 0.5 -21t0 -27.5t-2 -25t-7.5 -24t-16 -14.5q-7 -4 -23 -3.5t-23 4.5q-8 5 -12.5 14.5t-6.5 24.5t-2.5 24.5t0 27.5t0.5 19v181q0 92 9 103z" />
    <glyph glyph-name="ocircumflex" unicode="&#xf4;" horiz-adv-x="478" 
d="M231 786h12l145 -98l-8 -18q-16 4 -48.5 11t-48.5 11l-40 11l-3 -1q-13 -2 -133 -32l-8 18zM237 766l-87 -65q14 3 43 10t43 11l4 1h3q2 0 5 -1l5 -1l15 -4l21 -5l42 -9zM184 625q32 7 110.5 0.5t101.5 -27.5q26 -23 32 -49.5t6 -100.5v-286q0 -90 -5 -108
q-5 -17 -16 -27t-33 -23q-32 -18 -137 -19t-139 18q-12 7 -21 15.5t-14.5 20.5t-8.5 20.5t-4.5 25t-2 23t0 26.5t0.5 24v293q0 28 0.5 42.5t3 34.5t7.5 30.5t14 24t23 20.5t34.5 13t47.5 9zM186 605q-21 -2 -37.5 -5.5t-28.5 -11.5t-20 -12.5t-13 -18t-8 -19.5t-4 -26
t-1 -27.5v-33.5v-293q0 -4 -0.5 -24.5t0 -27t2.5 -23.5t6 -25.5t12 -19t20 -17.5q29 -16 129 -15.5t127 16.5q29 16 36 28.5t8 45.5v66v286q0 36 -1 55.5t-5.5 39.5t-12.5 29t-23.5 17.5t-36 11.5t-53.5 5q-54 3 -96 -1zM224 485q-5 -6 -5 -91v-181q0 -1 -0.5 -14t0 -23
t1 -22.5t3.5 -21t7 -11.5q3 -2 13 -2.5t15 1.5q6 3 9 12t4 21.5t1 23t-0.5 23t-0.5 14.5v184v11.5v18.5t-0.5 19.5t-1.5 20t-4 15.5t-7 9q-5 4 -16.5 2t-17.5 -9zM208 497q11 14 30 16.5t28 -3.5q9 -5 15 -14.5t8 -25t2.5 -24.5t0 -28t-0.5 -20v-184q0 -4 0.5 -21t0 -27.5
t-2 -25t-7.5 -24t-16 -14.5q-7 -4 -23 -3.5t-23 4.5q-8 5 -12.5 14.5t-6.5 24.5t-2.5 24.5t0 27.5t0.5 19v181q0 92 9 103z" />
    <glyph glyph-name="otilde" unicode="&#xf5;" horiz-adv-x="478" 
d="M264 764q6 -2 19.5 -8t17 -7.5t13.5 -3.5t16.5 0t16.5 6t22 12l14 -12q-22 -47 -46 -64t-66 -16q-17 1 -39 7.5t-37 12t-35.5 5t-39.5 -12.5l-14 14q27 45 49.5 63.5t60.5 15.5q23 -2 48 -12zM257 746q-36 16 -64.5 9.5t-51.5 -41.5q22 6 53.5 -2.5t55.5 -17.5t52 -2
t48 39q-12 -4 -21.5 -5.5t-19.5 0.5t-15.5 4t-18 8t-18.5 8zM184 625q32 7 110.5 0.5t101.5 -27.5q26 -23 32 -49.5t6 -100.5v-286q0 -90 -5 -108q-5 -17 -16 -27t-33 -23q-32 -18 -137 -19t-139 18q-12 7 -21 15.5t-14.5 20.5t-8.5 20.5t-4.5 25t-2 23t0 26.5t0.5 24v293
q0 28 0.5 42.5t3 34.5t7.5 30.5t14 24t23 20.5t34.5 13t47.5 9zM186 605q-21 -2 -37.5 -5.5t-28.5 -11.5t-20 -12.5t-13 -18t-8 -19.5t-4 -26t-1 -27.5v-33.5v-293q0 -4 -0.5 -24.5t0 -27t2.5 -23.5t6 -25.5t12 -19t20 -17.5q29 -16 129 -15.5t127 16.5q29 16 36 28.5
t8 45.5v66v286q0 36 -1 55.5t-5.5 39.5t-12.5 29t-23.5 17.5t-36 11.5t-53.5 5q-54 3 -96 -1zM224 485q-5 -6 -5 -91v-181q0 -1 -0.5 -14t0 -23t1 -22.5t3.5 -21t7 -11.5q3 -2 13 -2.5t15 1.5q6 3 9 12t4 21.5t1 23t-0.5 23t-0.5 14.5v184v11.5v18.5t-0.5 19.5t-1.5 20
t-4 15.5t-7 9q-5 4 -16.5 2t-17.5 -9zM208 497q11 14 30 16.5t28 -3.5q9 -5 15 -14.5t8 -25t2.5 -24.5t0 -28t-0.5 -20v-184q0 -4 0.5 -21t0 -27.5t-2 -25t-7.5 -24t-16 -14.5q-7 -4 -23 -3.5t-23 4.5q-8 5 -12.5 14.5t-6.5 24.5t-2.5 24.5t0 27.5t0.5 19v181q0 92 9 103z
" />
    <glyph glyph-name="odieresis" unicode="&#xf6;" horiz-adv-x="478" 
d="M159 779q26 10 50.5 -8t23.5 -45q-2 -29 -27 -48q-27 -14 -48 -4h-1q-35 16 -35 53t37 52zM167 761q-28 -12 -24 -38q3 -20 23 -31q14 -5 30 4q17 11 17.5 29.5t-17.5 30.5q-15 10 -29 5zM288 779q23 11 48 -2q26 -19 28.5 -47.5t-24.5 -47.5q-26 -18 -49 -9l-1 1
q-36 14 -37 50.5t35 54.5zM296 761q-24 -12 -23 -35t25 -34q18 -4 30 6q19 13 17 31.5t-19 29.5q-15 10 -30 2zM184 625q32 7 110.5 0.5t101.5 -27.5q26 -23 32 -49.5t6 -100.5v-286q0 -90 -5 -108q-5 -17 -16 -27t-33 -23q-32 -18 -137 -19t-139 18q-12 7 -21 15.5
t-14.5 20.5t-8.5 20.5t-4.5 25t-2 23t0 26.5t0.5 24v293q0 28 0.5 42.5t3 34.5t7.5 30.5t14 24t23 20.5t34.5 13t47.5 9zM186 605q-21 -2 -37.5 -5.5t-28.5 -11.5t-20 -12.5t-13 -18t-8 -19.5t-4 -26t-1 -27.5v-33.5v-293q0 -4 -0.5 -24.5t0 -27t2.5 -23.5t6 -25.5t12 -19
t20 -17.5q29 -16 129 -15.5t127 16.5q29 16 36 28.5t8 45.5v66v286q0 36 -1 55.5t-5.5 39.5t-12.5 29t-23.5 17.5t-36 11.5t-53.5 5q-54 3 -96 -1zM224 485q-5 -6 -5 -91v-181q0 -1 -0.5 -14t0 -23t1 -22.5t3.5 -21t7 -11.5q3 -2 13 -2.5t15 1.5q6 3 9 12t4 21.5t1 23
t-0.5 23t-0.5 14.5v184v11.5v18.5t-0.5 19.5t-1.5 20t-4 15.5t-7 9q-5 4 -16.5 2t-17.5 -9zM208 497q11 14 30 16.5t28 -3.5q9 -5 15 -14.5t8 -25t2.5 -24.5t0 -28t-0.5 -20v-184q0 -4 0.5 -21t0 -27.5t-2 -25t-7.5 -24t-16 -14.5q-7 -4 -23 -3.5t-23 4.5q-8 5 -12.5 14.5
t-6.5 24.5t-2.5 24.5t0 27.5t0.5 19v181q0 92 9 103z" />
    <glyph glyph-name="divide" unicode="&#xf7;" horiz-adv-x="209" 
d="M133 789l10 8h18l10 -12l-85 -429l-10 -8h-17l-10 12zM151 777l-82 -421l-10 12h9l83 421l10 -12h-10z" />
    <glyph glyph-name="oslash" unicode="&#xf8;" horiz-adv-x="258" 
d="M204 815l10 -10v-149l-10 -10h-140l-10 10v149l10 10h140zM194 795h-120v-129h120v129zM54 602l10 10h140l10 -10v-602l-10 -10h-140l-10 10v602zM74 592v-582h120v582h-120z" />
    <glyph glyph-name="ugrave" unicode="&#xf9;" horiz-adv-x="476" 
d="M346 671l-9 -17l-31 4q-31 5 -50 8.5t-47 10.5t-45.5 16.5t-23.5 20.5q-12 23 2 45q22 46 70 21q17 -9 37 -24t32 -25.5t35 -32t30 -27.5zM307 679q-105 92 -123 89q-16 -3 -24 -18l-1 -2q-7 -12 -1 -24q3 -6 10.5 -11t19.5 -9t24 -7.5t28 -6.5t26.5 -4.5t24 -4
t16.5 -2.5zM208 617l10 -10v-383q0 -1 -0.5 -20.5t-0.5 -31.5t3.5 -26.5t10.5 -19.5q2 -2 11.5 -2.5t13.5 1.5l1 1q6 3 9.5 12.5t4.5 22.5t1 24t-0.5 24t-0.5 14v384l10 10h142l10 -10v-446q0 -6 0.5 -27.5t0 -30.5t-2.5 -27.5t-6.5 -29t-14 -22.5t-22.5 -20
q-33 -19 -143 -19.5t-142 18.5q-10 6 -18 14.5t-13 16t-8.5 20.5t-5.5 19.5t-3 23t-1 21v23v20.5v446l10 10h144zM198 597h-124v-436v-20v-23.5t1 -21.5t3.5 -24t7 -19.5t11.5 -19t16 -12.5q28 -16 132 -16t133 17q22 13 28.5 33.5t6.5 52.5v53v436h-122v-374q0 -3 0.5 -21
t0 -28t-2.5 -25.5t-8 -25.5t-15 -15t-23.5 -4.5t-23.5 6.5q-10 7 -15.5 23.5t-6.5 28t0 36t1 26.5v373z" />
    <glyph glyph-name="uacute" unicode="&#xfa;" horiz-adv-x="476" 
d="M153 654l-10 17q1 1 32.5 37.5t52 56.5t38.5 31q33 21 61 -3t15 -60q-2 -5 -6 -9.5t-8.5 -8t-12 -7.5t-13 -7t-14.5 -6.5t-14 -5l-15 -4.5t-13.5 -4t-13 -4t-10.5 -3zM181 683q4 1 24 6.5t36 10.5t35 12t31.5 14.5t16.5 14.5q5 15 -3.5 29t-24.5 16q-5 1 -13.5 -3.5
t-18 -12.5t-19 -17t-20.5 -21t-18 -20t-15.5 -17.5t-10.5 -11.5zM208 617l10 -10v-383q0 -1 -0.5 -20.5t-0.5 -31.5t3.5 -26.5t10.5 -19.5q2 -2 11.5 -2.5t13.5 1.5l1 1q6 3 9.5 12.5t4.5 22.5t1 24t-0.5 24t-0.5 14v384l10 10h142l10 -10v-446q0 -6 0.5 -27.5t0 -30.5
t-2.5 -27.5t-6.5 -29t-14 -22.5t-22.5 -20q-33 -19 -143 -19.5t-142 18.5q-10 6 -18 14.5t-13 16t-8.5 20.5t-5.5 19.5t-3 23t-1 21v23v20.5v446l10 10h144zM198 597h-124v-436v-20v-23.5t1 -21.5t3.5 -24t7 -19.5t11.5 -19t16 -12.5q28 -16 132 -16t133 17q22 13 28.5 33.5
t6.5 52.5v53v436h-122v-374q0 -3 0.5 -21t0 -28t-2.5 -25.5t-8 -25.5t-15 -15t-23.5 -4.5t-23.5 6.5q-10 7 -15.5 23.5t-6.5 28t0 36t1 26.5v373z" />
    <glyph glyph-name="ucircumflex" unicode="&#xfb;" horiz-adv-x="476" 
d="M230 769h12l145 -98l-8 -18q-16 4 -48.5 11t-48.5 11l-40 11l-3 -1q-11 -1 -133 -32l-8 18zM236 749l-87 -65q15 3 43 10t43 11l4 1h3q2 0 5 -1l5 -1l15 -4l21 -5q5 -1 14.5 -3t16.5 -3.5t11 -2.5zM208 617l10 -10v-383q0 -1 -0.5 -20.5t-0.5 -31.5t3.5 -26.5t10.5 -19.5
q2 -2 11.5 -2.5t13.5 1.5l1 1q6 3 9.5 12.5t4.5 22.5t1 24t-0.5 24t-0.5 14v384l10 10h142l10 -10v-446q0 -6 0.5 -27.5t0 -30.5t-2.5 -27.5t-6.5 -29t-14 -22.5t-22.5 -20q-33 -19 -143 -19.5t-142 18.5q-10 6 -18 14.5t-13 16t-8.5 20.5t-5.5 19.5t-3 23t-1 21v23v20.5
v446l10 10h144zM198 597h-124v-436v-20v-23.5t1 -21.5t3.5 -24t7 -19.5t11.5 -19t16 -12.5q28 -16 132 -16t133 17q22 13 28.5 33.5t6.5 52.5v53v436h-122v-374q0 -3 0.5 -21t0 -28t-2.5 -25.5t-8 -25.5t-15 -15t-23.5 -4.5t-23.5 6.5q-10 7 -15.5 23.5t-6.5 28t0 36t1 26.5
v373z" />
    <glyph glyph-name="udieresis" unicode="&#xfc;" horiz-adv-x="476" 
d="M158 762q25 10 50 -8t24 -45q-2 -29 -27 -48q-33 -18 -59.5 1.5t-24.5 52.5t37 47zM166 744q-14 -6 -20 -17t-4 -22q4 -21 23 -30q13 -5 30 4q17 11 17.5 29.5t-17.5 30.5q-16 11 -29 5zM287 762q23 11 48 -2q28 -24 28.5 -51t-22.5 -45.5t-51 -7.5l-1 1q-36 14 -37 50.5
t35 54.5zM295 744q-24 -12 -23 -35t25 -34q18 -5 33 6t14.5 29.5t-19.5 31.5q-15 10 -30 2zM208 617l10 -10v-383q0 -1 -0.5 -20.5t-0.5 -31.5t3.5 -26.5t10.5 -19.5q2 -2 11.5 -2.5t13.5 1.5l1 1q6 3 9.5 12.5t4.5 22.5t1 24t-0.5 24t-0.5 14v384l10 10h142l10 -10v-446
q0 -6 0.5 -27.5t0 -30.5t-2.5 -27.5t-6.5 -29t-14 -22.5t-22.5 -20q-33 -19 -143 -19.5t-142 18.5q-10 6 -18 14.5t-13 16t-8.5 20.5t-5.5 19.5t-3 23t-1 21v23v20.5v446l10 10h144zM198 597h-124v-436v-20v-23.5t1 -21.5t3.5 -24t7 -19.5t11.5 -19t16 -12.5q28 -16 132 -16
t133 17q22 13 28.5 33.5t6.5 52.5v53v436h-122v-374q0 -3 0.5 -21t0 -28t-2.5 -25.5t-8 -25.5t-15 -15t-23.5 -4.5t-23.5 6.5q-10 7 -15.5 23.5t-6.5 28t0 36t1 26.5v373z" />
    <glyph glyph-name="ydieresis" unicode="&#xff;" horiz-adv-x="481" 
d="M160 761q28 11 49 -7q20 -12 24.5 -33t-6 -38t-27.5 -26.5t-41 0.5q-35 15 -35 52.5t36 51.5zM168 743q-24 -10 -24 -34t23 -34q28 -12 42 16t-11 46l-1 1q-14 10 -29 5zM289 761q25 13 51.5 -4.5t26.5 -44.5v-1q0 -29 -23.5 -46.5t-50.5 -7.5q-36 13 -37.5 50t33.5 54z
M297 743q-27 -13 -21 -41q5 -18 21 -26t32 3q18 13 18 31q-2 18 -18 29.5t-32 3.5zM54 607l10 10h145l10 -10v-383q0 -2 -0.5 -14.5t-0.5 -24t0.5 -25.5t3.5 -23.5t8 -12.5l2 -1q11 -6 22 1q5 3 8 12.5t4 23t1.5 23.5t0 24t-0.5 15v385l10 10h150l10 -10v-651q0 -4 0.5 -14
t0.5 -16q0 -83 -47 -114q-57 -30 -153 -24.5t-171 34.5l-6 9v109l13 9q21 -7 55 -15t73.5 -12t50.5 8q15 13 12 68q-32 -9 -94.5 -7.5t-86.5 19.5q-7 6 -12.5 13.5t-8.5 17.5t-5.5 17.5t-3 21t-0.5 19v20v17.5v450v21zM74 597v-11v-450v-17v-21t1 -20t3.5 -21t7 -17
t10.5 -14q30 -16 85 -15.5t91 9.5l13 -10q1 -26 0 -42t-5 -30.5t-12 -21.5t-22 -11.5t-34 -3.5t-49 6q-40 7 -82 19v-88q72 -26 162.5 -30.5t135.5 20.5q39 26 39 98q0 6 -0.5 16t-0.5 14v641h-130v-375q0 -2 0.5 -20t0 -28t-2.5 -25t-7 -25.5t-14 -15.5q-24 -15 -43 -2
q-18 10 -21 38q-1 8 -1 80v373h-125z" />
    <glyph glyph-name="dotlessi" unicode="&#x131;" horiz-adv-x="258" 
d="M54 607l10 10h140l10 -10v-607l-10 -10h-140l-10 10v607zM74 597v-587h120v587h-120z" />
    <glyph glyph-name="OE" unicode="&#x152;" horiz-adv-x="480" 
d="M291 594v7l10 10h125l10 -10v-649q0 -37 -1.5 -58t-13 -52.5t-34.5 -43.5q-31 -16 -138.5 -18.5t-142.5 17.5q-25 16 -36.5 46t-10 59.5t2.5 59.5l10 9h130l10 -10q0 -1 -0.5 -10.5t0 -13.5t2 -11.5t5 -11.5t8.5 -7q2 -2 16 -1.5t19 2.5q14 11 10 80q-31 -8 -93.5 -5.5
t-84.5 18.5q-40 31 -40 131v327q0 111 47 141q36 20 92 17t98 -23zM295 569q-33 22 -92 28t-92 -13q-37 -24 -37 -125v-327q0 -90 32 -115q18 -14 83.5 -14.5t89.5 7.5l13 -10q0 -4 0.5 -20t0.5 -26.5t-1.5 -24t-6.5 -23.5t-13 -15q-8 -6 -28.5 -6t-26.5 4q-25 13 -25 62
h-111q0 -24 -1 -49.5t8 -51t28 -37.5q30 -17 132 -14.5t129 17.5q19 10 28 39t10 46.5t1 50.5v639h-105v-14zM227 473q-5 -16 -5 -82v-191q0 -1 -0.5 -14.5t0 -23t1 -22.5t3.5 -21.5t7 -12.5q5 -2 14 -2.5t11 1.5q15 8 15 97v186v8.5v13.5v16.5t-1 18t-2.5 17t-4.5 14.5
t-7 10.5t-9.5 4t-12.5 -3.5q-5 -2 -9 -14zM208 479q7 21 23.5 28.5t36.5 -4.5q7 -5 12.5 -13.5t8 -17.5t3.5 -22.5t1.5 -21.5t0 -22.5t-0.5 -17.5v-186q0 -2 0.5 -16.5t0 -22.5t-1.5 -22t-3.5 -23t-8 -18t-12.5 -13q-8 -4 -22.5 -4t-21.5 5l-2 1q-8 4 -13 14t-6.5 24.5
t-1.5 25.5t0.5 27.5t0.5 19.5v191q0 69 6 88z" />
    <glyph glyph-name="oe" unicode="&#x153;" horiz-adv-x="479" 
d="M289 594v2l10 10h126l10 -10v-813l-10 -10h-141l-4 1q-12 6 -12 35v177q-121 -34 -182 21l-5 1l-6 5q-21 41 -21 74v365q0 27 1 42t5 40.5t15 42.5t29 27q29 16 89 14t96 -24zM289 -207h126v793h-106v-12l-17 -7q-25 25 -87.5 30.5t-90.5 -11.5q-15 -8 -24 -23t-12 -39
t-3.5 -35.5t-0.5 -36.5v-365q0 -30 17 -61h3l4 -3q58 -54 177 -13l13 -10v-191q0 -14 1 -16zM225 471q-5 -17 -5 -84v-183q0 -2 -0.5 -14.5t-0.5 -22.5t1 -23t4 -22t8 -12q12 -6 22 0l1 1q17 10 17 98v183q0 86 -14 94q-11 8 -24 0q-4 -2 -9 -15zM206 477q6 20 18 27
q23 12 44 0q7 -4 12 -12.5t7.5 -17.5t3.5 -22.5t1.5 -21.5t0 -21.5t-0.5 -16.5v-183q0 -100 -27 -115q-19 -12 -36.5 -4t-23.5 29q-4 12 -5 24.5t-0.5 35.5t0.5 25v183q0 71 6 90z" />
    <glyph glyph-name="Ydieresis" unicode="&#x178;" horiz-adv-x="607" 
d="M219 863l-10 17q10 10 28.5 31t34 37.5t29.5 29.5q40 38 63 36q29 -2 42 -28q13 -19 2 -45q-3 -6 -9 -12t-16 -11.5t-17.5 -9.5t-21.5 -8.5t-19.5 -6.5t-20.5 -6l-15 -4zM248 892q2 1 23 6.5t36 10.5t35 12t32.5 14t15.5 14q6 14 -1 26l-1 2q-8 15 -26 17q-5 0 -13 -4
t-17.5 -12t-19 -16.5t-20 -20t-18 -19.5t-16 -18t-10.5 -12zM221 799l9 -7l76 -226l6 -26l7 30l75 222l9 7h156l9 -13l-174 -473v-313l-10 -10h-160l-10 10v313l-164 473l9 13h162zM214 779h-141l160 -461l1 -3v-305h140v305l1 3l170 461h-135l-71 -215l-17 -67h-20l-16 63z
" />
    <glyph glyph-name="florin" unicode="&#x192;" horiz-adv-x="475" 
d="M432 0l-10 -10h-125l-10 8l-2 12q-35 -22 -83.5 -28.5t-92.5 12.5t-54 65q-5 23 -5 101v53q0 90 9 116q18 54 99 65q6 0 13 1q22 2 77 2h23l1 14q0 14 -0.5 25t-1.5 25.5t-4 24t-8 12.5q-13 8 -26.5 2t-15.5 -22q-1 -6 -1 -14t-0.5 -20t-0.5 -21l-10 -10h-140l-10 10
v30.5v35t2.5 32.5t8 33t16 26.5t25.5 21.5q38 20 138.5 20t138.5 -23q31 -20 39.5 -39.5t9.5 -58.5v-64v-437zM412 10v427q0 5 1 30.5t0 41.5t-5 30q-6 25 -35 44q-34 20 -129 19.5t-128 -18.5q-12 -6 -20.5 -18t-13 -22t-6.5 -28.5t-2.5 -27.5t0 -30t0.5 -25h120
q1 10 0.5 19.5t0.5 19.5t3.5 18.5t9 15.5t16.5 12q26 11 44 -2t21 -41q2 -19 2 -88l-10 -10h-33q-126 0 -153 -26q-7 -7 -12 -18.5t-7.5 -21t-4 -27t-1.5 -25v-26v-20.5v-53q0 -79 4 -97q9 -40 51 -54.5t87.5 -5t72.5 31.5l16 -6l4 -19h107zM262 270q-18 3 -27 -1t-13 -21
q-6 -17 -5.5 -70.5t16.5 -60.5q11 -4 22 4q13 7 16 34q1 10 1 83v31q-2 0 -5.5 0.5t-4.5 0.5zM265 290q12 -2 19 -3l8 -10v-39q0 -5 1 -24.5t0.5 -32t-3 -30t-9 -29.5t-16.5 -19q-24 -14 -43 -2.5t-23 39.5q-4 15 -1.5 70t16.5 68q17 17 51 12z" />
    <glyph glyph-name="circumflex" unicode="&#x2c6;" horiz-adv-x="480" 
d="M436 0l-10 -10h-141l-10 10v388v11.5v18.5t-0.5 20t-2 20t-4.5 15t-7 9q-12 8 -24 0q-13 -10 -13 -95v-387l-10 -10h-150l-10 10v602l10 10h129l10 -10v-11q31 25 79 25q81 0 104 -10q48 -19 50 -101v-46v-459zM416 10v449q0 3 0.5 23t0 27.5t-2.5 24.5t-6.5 25.5
t-13.5 18t-22 13.5q-14 5 -90 5q-27 0 -49.5 -10t-30.5 -27l-19 4v29h-109v-582h130v377v16v21.5t1 21t3 22t6.5 17t10.5 13.5q22 16 46 2q7 -4 12 -13t7.5 -17t3.5 -22.5t1 -21.5v-22v-16v-378h121z" />
    <glyph glyph-name="breve" unicode="&#x2d8;" horiz-adv-x="334" 
d="M49 876l16 10q48 -36 90 -40.5t94 22.5l3 2l4 3q5 3 14 8.5t11 6.5l14 -13q-41 -91 -124 -94q-45 -1 -78.5 25t-43.5 70zM78 853q31 -55 93 -52q69 3 106 82l14 -13l-14 -8q-8 -4 -11 -6l-4 -3l-2 -2q-94 -52 -182 2z" />
    <glyph glyph-name="ring" unicode="&#x2da;" horiz-adv-x="211" 
d="M93 903q31 11 56 -8.5t24 -52.5q-2 -35 -30 -51.5t-58 -3.5t-35 50q-3 21 9 40t34 26zM99 885q-28 -9 -29.5 -38t24.5 -42q19 -9 38.5 4t21 33t-18.5 38q-16 12 -36 5zM94 836q4 -9 15 -11q10 -1 17 6q5 7 2 18q-4 14 -12 14q-11 2 -15 -2l-2 -2q-12 -12 -5 -23zM76 826
q-14 27 10 48q10 13 34 9q19 -3 27 -25t-5 -39q-12 -16 -35 -14q-21 2 -31 21z" />
    <glyph glyph-name="tilde" unicode="&#x2dc;" horiz-adv-x="473" 
d="M54 603l10 10h136l10 -10v-12q32 24 83.5 26.5t80.5 -11.5q11 -4 20 -12t15 -15t10.5 -21t6.5 -21.5t3 -25t1 -23v-24.5v-21v-93l-10 -10h-147l-10 10v32l1 12v25t-0.5 26.5t-3 24t-6.5 11.5l-2 1q-7 2 -12 0.5t-7.5 -10.5t-4 -17t-2 -20.5t-0.5 -20.5t0.5 -16t0.5 -9
v-389l-10 -10h-153l-10 10v603zM74 593v-583h133v379v15v21t1 21t3 21.5t6 17t10 12.5q18 12 36 2q16 -8 19 -37q1 -16 1 -80v-22h127v83q0 2 0.5 20t0 25t-1.5 24t-4 25.5t-8 20.5t-12.5 19t-18.5 11q-32 15 -84 9t-74 -37l-18 6v27h-116z" />
    <glyph glyph-name="pi" unicode="&#x3c0;" horiz-adv-x="471" 
d="M216 -17v-198l-10 -10h-142l-10 10v811l10 10h128l10 -10v-3q32 23 82.5 27t84.5 -10q18 -7 30 -20t17.5 -24t8.5 -34.5t3 -31.5v-35v-330q0 -72 -3 -89q-5 -29 -30 -47t-58.5 -22t-65 -2.5t-55.5 8.5zM210 6q25 -9 67 -12t83 10.5t46 45.5q2 11 2 85v330v15v16.5
t-0.5 16t-2 17.5t-3.5 15t-5.5 15.5t-8.5 12.5t-12 11.5t-15 7.5q-35 15 -86 7t-75 -35l-18 7v15h-108v-791h122v202zM215 465q-2 -13 -2 -77v-185q0 -87 11 -93q13 -8 25 0q6 3 9.5 12.5t4.5 23t1 24t-0.5 24t-0.5 15.5v182q0 1 0.5 13t0.5 23t-1 24t-3.5 22.5t-6.5 12.5
q-15 8 -25.5 1.5t-12.5 -22.5zM195 468q4 28 24 38.5t40 -1t23 -38.5q1 -8 1 -76v-182q0 -3 0.5 -20.5t0 -28.5t-2.5 -26.5t-7.5 -26t-14.5 -15.5q-23 -12 -45 0q-8 5 -12.5 14.5t-6.5 25t-2.5 25t0 27.5t0.5 19v185q0 67 2 80z" />
    <glyph glyph-name="quoteleft" unicode="&#x2018;" horiz-adv-x="239" 
d="M50 789l9 13h96l10 -8l36 -206l-10 -12h-60l-9 7zM73 782l65 -186h41l-32 186h-74z" />
    <glyph glyph-name="quoteright" unicode="&#x2019;" horiz-adv-x="239" 
d="M128 583l-9 -7h-60l-10 12l35 206l10 8h97l9 -13zM112 596l65 186h-75l-31 -186h41z" />
    <glyph glyph-name="quotedblleft" unicode="&#x201c;" horiz-adv-x="410" 
d="M123 798l8 4h67l9 -15l-42 -79h26l10 -10v-136l-10 -10h-127l-10 10v135l2 6zM136 782l-62 -88v-122h107v116h-33l-9 15l42 79h-45zM289 798l8 4h67l9 -15l-42 -79h26l10 -10v-136l-10 -10h-127l-10 10v135l2 6zM302 782l-62 -88v-122h107v116h-33l-9 15l42 79h-45z" />
    <glyph glyph-name="quotedblright" unicode="&#x201d;" horiz-adv-x="410" 
d="M298 556l-8 -4h-67l-9 15l42 79h-26l-10 10v136l10 10h127l10 -10v-135l-2 -6zM285 572l62 88v122h-107v-116h33l9 -15l-42 -79h45zM132 556l-8 -4h-67l-9 15l42 79h-26l-10 10v136l10 10h127l10 -10v-135l-2 -6zM119 572l62 88v122h-107v-116h33l9 -15l-42 -79h45z" />
    <glyph glyph-name="dagger" unicode="&#x2020;" horiz-adv-x="455" 
d="M213 726l10 -10v-97h178l10 -10v-106l-10 -10h-178v-275q0 -1 -0.5 -14.5t0 -23.5t1 -23t3.5 -22t8 -12q4 -2 12 -3t11 1q7 3 11 13t5.5 24.5t2 25.5t0 27t-0.5 17v100l10 10h135l10 -10v-159q0 -5 0.5 -28t0 -32.5t-2.5 -29t-7 -30.5t-14.5 -23.5t-22.5 -20.5
q-34 -19 -141 -19t-143 18q-11 6 -19.5 13.5t-13.5 19t-8.5 20t-4.5 24t-1.5 22.5t0 25.5t0.5 22.5v565l10 10h149zM203 706h-129v-555q0 -5 -0.5 -22t-0.5 -25.5t2 -23.5t6 -24t11.5 -18.5t18.5 -15.5q31 -16 132.5 -16t131.5 17q13 7 21.5 19.5t11.5 31.5t3.5 30t0 36.5
t-0.5 28.5v149h-115v-90q0 -3 0.5 -19t0 -24.5t-2 -24t-4.5 -25t-9 -19t-15 -13.5q-7 -4 -20.5 -3t-22.5 7q-8 5 -12.5 15t-6 24.5t-2 25t0 27t0.5 19.5v285l10 10h178v86h-178l-10 10v97z" />
    <glyph glyph-name="daggerdbl" unicode="&#x2021;" horiz-adv-x="343" 
d="M283 799l10 -10v-73l-1 -3l-121 -359l-9 -7h-91l-10 13l112 346h-107l-10 10v73l10 10h217zM273 779h-197v-53h111l10 -13l-112 -346h70l118 351v61z" />
    <glyph glyph-name="bullet" unicode="&#x2022;" horiz-adv-x="248" 
d="M195 346l10 -10v-132l-10 -10h-131l-10 10v132l10 10h131zM185 326h-111v-112h111v112z" />
    <glyph glyph-name="perthousand" unicode="&#x2030;" horiz-adv-x="475" 
d="M290 590v10l10 10h122l10 -10v-600l-10 -10h-130l-10 10v10q-29 -21 -76 -27.5t-90 10t-55 54.5q-7 22 -7 98v310v15v15.5t0.5 14.5t1 16t2.5 14t4 14.5t5.5 13t7.5 13.5t10 10.5t13 10.5q25 16 78 20.5t87 -8.5q13 -4 27 -14zM294 563q-17 14 -39 23q-30 11 -78 7
t-67 -17q-7 -5 -13 -11.5t-10 -12.5t-6.5 -15.5t-4 -15t-2 -17t-0.5 -16v-17.5v-16v-310q0 -73 6 -92q10 -33 52 -45.5t87 -2.5t65 35l18 -6v-24h110v580h-102v-19zM223 460q-2 -10 -2 -83v-163q0 -1 -0.5 -11.5t-0.5 -19t0.5 -22t3 -21t6.5 -16.5t10.5 -8t16.5 4q6 3 10 12
t5 22.5t1.5 23.5t0 24.5t-0.5 16.5v219v7.5v8t-1 6.5t-2.5 7t-4.5 5t-8 5q-11 5 -21.5 0t-12.5 -17zM204 464q5 24 27 32.5t42 -5t20 -42.5v-11v-219q0 -1 0.5 -21t0 -29t-3 -25t-8.5 -26t-15 -16q-24 -13 -45 1q-8 5 -12.5 15t-6.5 25t-2.5 24t0 27.5t0.5 19.5v163
q0 73 3 87z" />
    <glyph glyph-name="guilsinglleft" unicode="&#x2039;" horiz-adv-x="343" 
d="M294 646q-2 -31 -22 -45q6 -3 10.5 -7t7.5 -9.5t5 -8.5t2.5 -11t0.5 -10.5v-12v-11.5v-62v-18v-20.5t-1.5 -18t-4.5 -19t-9 -14.5t-15 -14q-27 -16 -92 -16t-92 16q-32 20 -32 95v72l10 10h85l10 -10v-32q0 -52 8 -56l1 -1q7 -5 18 0t12 51t-7 56q-9 5 -35 5l-10 10v59
l10 10q28 0 34 11q3 5 3 34t-1 33q-3 7 -10 8l-2 1q-8 2 -13 -1q-6 -7 -6 -56v-13l-10 -10h-10h-75l-10 10v41v15.5v17.5t1 16t3 17.5t5.5 14t9 14.5t13.5 10q23 13 88 13t89 -12q16 -8 23 -25.5t7.5 -26.5t0.5 -35v-39v-26zM274 647v25v39v11.5v14t-1 12.5t-3.5 13
t-6.5 9.5t-10 8.5q-19 10 -78.5 9.5t-78.5 -10.5q-6 -4 -10.5 -10.5t-7 -12.5t-3.5 -16.5t-1 -16v-17.5v-14v-31h65v3q0 58 12 70q14 12 34 6q18 -5 23 -22q3 -7 3 -40.5t-5 -42.5q-11 -21 -37 -21h-5v-39q26 0 37 -9l1 -1q12 -10 14 -53t-3 -56q-5 -23 -21 -31
q-21 -12 -38 2q-5 3 -8.5 8.5t-5 11t-2.5 14t-1 13.5v14.5v11.5v22h-65v-62q0 -64 22 -77q14 -9 54.5 -13.5t81.5 4t46 34.5q2 10 2 61v62v13.5v12t-1 8.5t-3 8l-6 6t-9.5 6t-14.5 5v20q17 5 23 12.5t7 24.5z" />
    <glyph glyph-name="guilsinglright" unicode="&#x203a;" horiz-adv-x="343" 
d="M50 540l1 5l142 251l9 5h77l10 -10v-242h17l10 -10v-78l-10 -10h-17v-93l-10 -10h-84l-10 10v93h-125l-10 10v79zM70 537v-66h125l10 -10v-93h64v93l10 10h17v58h-17l-10 10v242h-61zM158 549h27v54zM133 543l53 107l19 -4v-107l-10 -10h-53z" />
    <glyph glyph-name="fraction" unicode="&#x2044;" horiz-adv-x="607" 
d="M223 994q27 11 51 -6.5t23 -46.5t-25 -46.5t-50 -5.5h-1q-35 16 -35 53t37 52zM231 976q-28 -12 -24 -38q3 -20 23 -31q15 -5 31 4q16 11 16 30.5t-16 30.5q-14 9 -30 4zM353 994q21 11 47 -2q27 -20 29.5 -47.5t-25.5 -47.5q-23 -19 -48 -9l-1 1q-36 14 -37.5 50
t35.5 55zM361 976q-24 -13 -23 -35t25 -34q17 -4 28 5l2 1q17 13 17 31q0 15 -20 30q-14 8 -29 2zM221 799l9 -7l76 -226l6 -26l7 30l75 222l9 7h156l9 -13l-174 -473v-313l-10 -10h-160l-10 10v313l-164 473l9 13h162zM214 779h-141l160 -461l1 -3v-305h140v305l1 3
l170 461h-135l-71 -215l-17 -67h-20l-16 63z" />
    <glyph glyph-name="Omega" unicode="&#x2126;" horiz-adv-x="313" 
d="M136 819l10 10h32l10 -10v-65q30 -1 47.5 -8t24.5 -23.5t8 -29.5t1 -42v-5v-4.5v-4.5l-10 -10h-75l-10 11q3 30 -6 35q-9 0 -10 -1q-5 -2 -5 -35q0 -12 6 -16q16 -5 31.5 -3t34.5 0.5t30 -11.5q18 -15 21 -76t-4 -84q-10 -50 -81 -56v-85l-10 -10h-34l-10 10v85
q-58 3 -70.5 23.5t-12.5 81.5v24l10 10h77l10 -10v-29q0 -15 5 -18l3 -2q1 -1 3.5 -1t3.5 1l2 2q6 3 6 18v14q0 12 -0.5 17t-4 8t-6 3.5t-13 0t-18.5 -0.5q-39 2 -54 11q-7 5 -12 12t-7.5 13t-3.5 16.5t-1 15v17.5v16v19q0 55 13.5 76.5t68.5 24.5v65zM156 809v-65l-10 -10
q-27 0 -42 -3.5t-21.5 -16t-7.5 -23.5t-1 -38v-19q0 -2 -0.5 -14t0 -17.5t2 -15t5 -16t9.5 -11.5q19 -11 42.5 -7t42.5 -3.5t19 -33.5v-11v-14q0 -26 -15 -35q-7 -6 -16.5 -6t-16.5 6q-15 8 -15 35v19h-57v-14q0 -60 8 -69q16 -16 65 -16l10 -10v-85h14v85l11 10q21 -1 45 8
q21 9 25 32q5 17 3.5 73t-14.5 67q-8 7 -44.5 7t-45.5 5h-1q-17 8 -17 34q0 45 15 53t29.5 0t16.5 -25q1 -6 1 -18h54q0 59 -9 71q-15 18 -62 16l-10 10v65h-12z" />
    <glyph glyph-name="partialdiff" unicode="&#x2202;" horiz-adv-x="474" 
d="M273 821l10 10h138l10 -10v-821l-10 -10h-16h-112l-10 10v6q-29 -20 -70.5 -23.5t-72.5 4.5t-46 19q-19 14 -28.5 38t-10.5 40t-1 48v353v8q0 29 1 45t10.5 37.5t27.5 34.5q27 20 86 22t94 -11v200zM293 811v-204l-14 -9q-29 14 -89 14t-85 -18q-6 -5 -11 -11t-8.5 -11
t-5.5 -14t-3.5 -13.5t-2 -15.5t-0.5 -14.5v-15.5v-14v-353v-11v-12.5t0.5 -12t1 -12.5t1.5 -11t2.5 -12t4 -10.5t5.5 -11t7.5 -9t9.5 -8.5q14 -10 45.5 -17t71.5 -1t63 31l17 -7v-18h102h6v801h-118zM219 469q-2 -17 -2 -69v-186q0 -2 -0.5 -14t-0.5 -23.5t0.5 -24t3.5 -22
t8 -12.5q11 -7 24 1t15 20q1 6 1 79v183q0 2 0.5 15.5t0.5 24t-1 23.5t-5 22t-10 12q-4 2 -12.5 1.5t-12.5 -3.5q-8 -8 -9 -27zM199 471q2 27 17 41q8 7 22.5 8t24.5 -4t16 -15t7.5 -25t2 -25.5t0 -28t-0.5 -21.5v-183q0 -69 -2 -82q-4 -24 -24.5 -35t-40.5 -1.5t-23 38.5
q-1 8 -1 76v186q0 54 2 71z" />
    <glyph glyph-name="Delta" unicode="&#x2206;" horiz-adv-x="262" 
d="M208 812l10 -10v-151l-10 -10h-144l-10 10v151l10 10h144zM198 792h-124v-131h124v131zM54 605l10 10h145l10 -10v-623q0 -36 -1 -53t-11 -44t-30 -42q-48 -28 -125 -27t-122 20l-6 10l5 94l14 8q19 -9 51 -9.5t44 9.5q6 5 10 14t5 21t1.5 20.5t0 22.5t-0.5 17v562z
M74 595v-552q0 -4 0.5 -21.5t0 -26t-2 -22.5t-7 -24t-13.5 -17q-30 -26 -104 -7l-4 -73q46 -16 113.5 -16.5t107.5 23.5q5 4 9.5 9t8 10t6 12.5t4.5 11.5t3 13.5t1.5 13t1 14.5t0.5 13v13.5v12.5v613h-125z" />
    <glyph glyph-name="product" unicode="&#x220f;" horiz-adv-x="484" 
d="M439 164q-2 -38 -26 -59q22 -7 33.5 -20t15.5 -42q5 -36 5.5 -82t-10.5 -97t-36 -67q-49 -27 -161 -26t-155 20q-15 7 -25.5 19.5t-15.5 23t-8 32.5t-3.5 30.5t0 34t0.5 28.5v67l10 10h141l10 -10v-17q0 -69 2 -83q2 -16 14 -21q4 -2 25 -1t27 3q6 3 9.5 12t4.5 24
t1.5 25.5t0.5 25.5l-1 16q-1 32 -22.5 42t-53.5 7.5t-65 -1.5t-61 24.5t-37 75.5q-4 24 -4 71v221q0 3 -0.5 26t0 30t3 25.5t7.5 27.5t14.5 21t22.5 19q28 16 147 16t149 -18q13 -8 21.5 -19t13 -21t6.5 -27t2.5 -25.5t0 -28.5t-0.5 -26v-253q0 -24 -1 -33zM420 165v32v253
q0 5 0.5 26t0 31t-3 26.5t-10.5 27.5t-20 18q-26 15 -139.5 15.5t-136.5 -13.5q-13 -7 -21.5 -17.5t-11.5 -28.5t-4 -25.5t-0.5 -33t0.5 -26.5v-221q0 -84 23.5 -119t102.5 -33q28 0 53.5 1t44 -15.5t19.5 -52.5q0 -1 0.5 -12.5t0.5 -17v-17.5t-1 -19t-3 -17.5t-5 -16.5
t-8 -12t-11 -9q-9 -4 -34 -5.5t-36 3.5q-13 7 -19 20t-6.5 21.5t-0.5 27.5v53v7h-121v-57q0 -1 -0.5 -29t0.5 -38t4.5 -31.5t12.5 -33t23 -18.5q39 -18 146.5 -19t151.5 23q29 18 34.5 106.5t-3.5 121.5q-4 26 -14.5 34.5t-40.5 15.5l-2 19q19 11 26.5 22.5t8.5 32.5z
M223 460q-2 -12 -2 -79v-93q0 -1 -0.5 -13.5t-0.5 -22.5t1 -23t3.5 -22t7.5 -12q10 -7 24.5 0t16.5 22q1 8 1 77v93q0 86 -11 94q-3 2 -9.5 2.5t-9.5 -0.5l-2 -1q-17 -6 -19 -22zM203 464q4 27 30 36q8 4 21.5 3t20.5 -6t11.5 -15t6 -25t2 -24.5t0 -26.5t-0.5 -19v-93
q0 -66 -2 -79q-3 -18 -16.5 -30t-28.5 -13.5t-29 10.5t-16 36q-1 9 -1 70v93q0 72 2 83z" />
    <glyph glyph-name="radical" unicode="&#x221a;" horiz-adv-x="482" 
d="M210 612l10 -10v-385q0 -1 -0.5 -13t-0.5 -23t1 -24.5t3.5 -23t6.5 -11.5q12 -7 20 -2q6 4 9.5 13.5t4.5 23.5t1 25t-0.5 24.5t-0.5 16.5v379l10 10h154l10 -10v-602l-10 -10h-138l-10 10v6q-14 -11 -32 -16q-13 -7 -75 -4.5t-85 19.5q-10 7 -17 18t-10.5 19.5t-5 24.5
t-2 22.5t0 25.5t0.5 23v464l10 10h146zM200 592h-126v-454q0 -2 -0.5 -22.5t0 -28.5t3 -23.5t8.5 -25.5t15 -17q18 -13 73.5 -15t68.5 4q17 5 41 25l17 -7v-18h118v582h-134v-369q0 -4 0.5 -22t0.5 -29t-2 -26.5t-8 -26.5t-15 -17q-20 -9 -40 2q-8 5 -13 15t-6.5 25
t-1.5 26.5t0.5 27.5t0.5 19v375z" />
    <glyph glyph-name="infinity" unicode="&#x221e;" horiz-adv-x="481" 
d="M155 653l-10 17q81 89 91 99q40 37 64 35q26 -3 40 -25.5t4 -46.5q-3 -6 -8.5 -11.5t-11.5 -10t-16 -9t-17 -7.5t-19 -7t-17 -5.5t-16.5 -5t-13.5 -3.5zM183 682q134 37 143 58q7 15 -2.5 28.5t-25.5 15.5q-24 3 -115 -102zM54 607l10 10h145l10 -10v-383
q0 -2 -0.5 -14.5t-0.5 -24t0.5 -25.5t3.5 -23.5t8 -12.5l2 -1q11 -6 22 1q5 3 8 12.5t4 23t1.5 23.5t0 24t-0.5 15v385l10 10h150l10 -10v-651q0 -4 0.5 -14t0.5 -16q0 -83 -47 -114q-57 -30 -153 -24.5t-171 34.5l-6 9v109l13 9q21 -7 55 -15t73.5 -12t50.5 8q15 13 12 68
q-32 -9 -94.5 -7.5t-86.5 19.5q-7 6 -12.5 13.5t-8.5 17.5t-5.5 17.5t-3 21t-0.5 19v20v17.5v450v21zM74 597v-11v-450v-17v-21t1 -20t3.5 -21t7 -17t10.5 -14q30 -16 85 -15.5t91 9.5l13 -10q1 -26 0 -42t-5 -30.5t-12 -21.5t-22 -11.5t-34 -3.5t-49 6q-40 7 -82 19v-88
q72 -26 162.5 -30.5t135.5 20.5q39 26 39 98q0 6 -0.5 16t-0.5 14v641h-130v-375q0 -2 0.5 -20t0 -28t-2.5 -25t-7 -25.5t-14 -15.5q-24 -15 -43 -2q-18 10 -21 38q-1 8 -1 80v373h-125z" />
    <glyph glyph-name="integral" unicode="&#x222b;" horiz-adv-x="475" 
d="M208 830l10 -10v-198q36 14 87.5 10.5t81.5 -20.5q13 -7 22 -18.5t13.5 -19.5t7 -26t3 -23.5t0 -28.5t-0.5 -25v-335q0 -4 0.5 -23.5t0 -25t-2 -21t-5.5 -22t-10 -17t-16.5 -17.5t-24.5 -13q-27 -15 -83.5 -12.5t-90.5 26.5v-11l-10 -10h-126l-10 10v820l10 10h144z
M198 810h-124v-800h106v23l18 6q19 -23 65.5 -32t91 4t53.5 47q4 15 4 78v335q0 5 0.5 21.5t0 24t-2 22t-5 22.5t-11 17.5t-17.5 15.5q-31 18 -84.5 19.5t-78.5 -16.5l-16 8v205zM217 461q-1 -19 -1 -64v-181q0 -2 -0.5 -12t-0.5 -19t0.5 -22.5t2.5 -21.5t6.5 -17t11.5 -9
t17 4q6 3 10 12.5t4.5 22.5t0.5 24t-0.5 23.5t-0.5 15.5v180q0 1 0.5 14.5t0.5 25t-1 25t-4.5 23t-9.5 11.5q-20 9 -27 -2t-9 -33zM197 462q2 35 16 47q21 17 48 5q10 -4 16 -14t8 -25.5t2.5 -27t0 -29.5t-0.5 -21v-180q0 -5 1 -22t0.5 -28t-2.5 -25.5t-7.5 -25t-15.5 -15.5
q-25 -14 -44 0t-22 42q-1 8 -1 73v181q0 55 1 65z" />
    <glyph glyph-name="fi" unicode="&#xfb01;" horiz-adv-x="343" 
d="M284 806l10 -10v-73l-10 -10h-123v-60q22 7 63 4.5t57 -16.5q20 -17 20 -67v-123v-10v-10.5t-0.5 -9.5t-1 -10.5t-1.5 -9.5t-2.5 -10t-4.5 -8t-6 -8.5t-7.5 -7t-9.5 -6.5q-30 -16 -91.5 -16t-89.5 16q-17 10 -24.5 29t-8 29t-0.5 38v50l10 10h88l10 -10v-17q0 -48 6 -51
q1 -1 8 0t10 2l2 1q5 3 5 53v23q0 1 0.5 10t0.5 14t-2 11.5t-6 9.5q-2 1 -8.5 1t-8.5 -1q-3 -3 -11 -15l-8 -4h-84l-10 10v242l10 10h218zM274 786h-198v-222h69q4 8 12 16l3 1q5 3 16.5 3t18.5 -3l2 -1q8 -4 12 -12t4.5 -14t0 -19.5t-0.5 -16.5v-23q0 -1 0.5 -12.5t0 -17.5
t-2 -15.5t-5 -16t-9.5 -9.5q-25 -11 -39 -3q-6 4 -9.5 10t-5 15t-2 14.5t0 16.5t0.5 13v7h-68v-40v-11.5v-13.5t0.5 -12t2 -12.5t4 -10.5t6.5 -10.5t10 -7.5q15 -10 55.5 -14t80.5 5.5t46 36.5q2 9 2 44v123q0 41 -12 51q-14 12 -59 12.5t-54 -6.5l-15 9v83l10 10h123v53z
" />
    <glyph glyph-name="fl" unicode="&#xfb02;" horiz-adv-x="343" 
d="M299 667l-10 -10h-86l-10 10q0 1 0.5 8t0.5 12.5t-0.5 12t-2.5 11.5t-5 6q-8 5 -18 0q-7 -6 -7 -56v-15q23 3 65 0t55 -13q20 -16 20 -66v-110v-21q0 -59 -35 -78q-26 -14 -89 -14t-90 15q-15 9 -23 25t-9 27.5t-1 33.5v266q0 15 1 24.5t3.5 22t10 22t18.5 15.5
q27 14 90 14.5t90 -14.5q8 -4 13.5 -9.5t9 -13t5.5 -12.5t3 -15t1 -14v-16.5v-14.5v-33zM279 677v23v13.5v15t-1 13.5t-3.5 14.5t-7 11t-10.5 9.5q-22 12 -80 12t-80 -12q-23 -12 -23 -66v-266v-7v-8.5v-7.5t0.5 -8t1.5 -7t2 -7.5t3 -6.5t4 -6l5 -5t7 -5q22 -13 80 -13
t79 12q25 14 25 60v21v110q0 41 -12 50q-10 8 -55 9.5t-61 -2.5l-12 10v27q0 2 -0.5 14t0 17.5t2 15t5.5 15.5t10 10q18 12 35 3t20 -30v-29h66zM163 539q-1 -5 -1 -37v-46q0 -15 7 -18q10 -6 18 0q5 2 6 10v45v12q0 1 0.5 8t0.5 13t-0.5 12.5t-2.5 11.5t-5 7q-8 5 -17 -1
l-1 -1q-4 -2 -5 -16zM143 542q2 22 14 30q17 12 35 4t21 -28v-10.5v-16v-16.5v-12q0 -2 0.5 -18t0 -23t-4.5 -17.5t-12 -14.5q-20 -10 -38 0q-17 10 -17 36v46q0 28 1 40z" />
  </font>
</defs>
</svg>
