<?xml version="1.0" standalone="no"?>
<!DOCTYPE svg PUBLIC "-//W3C//DTD SVG 1.1//EN" "http://www.w3.org/Graphics/SVG/1.1/DTD/svg11.dtd" >
<svg xmlns="http://www.w3.org/2000/svg" xmlns:xlink="http://www.w3.org/1999/xlink" version="1.1">
<metadata>
Created by FontForge 20170731 at Mon Jan 29 02:18:20 2018
 By Aleksey,,,
Copyright (c) 2018 by Khurasan. All rights reserved.
</metadata>
<defs>
<font id="Abuget" horiz-adv-x="178" >
  <font-face 
    font-family="Abuget"
    font-weight="400"
    font-stretch="normal"
    units-per-em="1000"
    panose-1="2 0 0 0 0 0 0 0 0 0"
    ascent="800"
    descent="-200"
    x-height="341"
    cap-height="713"
    bbox="-351.125 -258.143 996 912"
    underline-thickness="50"
    underline-position="-150"
    unicode-range="U+000D-20AC"
  />
<missing-glyph horiz-adv-x="320" 
 />
    <glyph glyph-name=".notdef" horiz-adv-x="320" 
 />
    <glyph glyph-name=".null" horiz-adv-x="0" 
 />
    <glyph glyph-name="nonmarkingreturn" unicode="&#xd;" horiz-adv-x="320" 
 />
    <glyph glyph-name="NULL" horiz-adv-x="0" 
 />
    <glyph glyph-name="NULL" horiz-adv-x="0" 
 />
    <glyph glyph-name="space" unicode=" " horiz-adv-x="208" 
 />
    <glyph glyph-name="exclam" unicode="!" horiz-adv-x="247" 
d="M166 602q5 2 10.5 4t10.5 6q8 2 11.5 2.5t8.5 -3.5q5 -2 7 -7.5t2 -8.5q-2 -5 -4 -10.5t-4 -8.5q-6 -17 -14 -34.5t-15 -35.5l-18 -51q-9 -23 -18 -44t-14 -43q-9 -20 -15 -39.5t-12 -36.5q-4 -8 -7 -13t-10 -9q-9 -3 -12 -12q-2 -4 -6 -4q-2 -2 -4 0l-3 2q1 5 1 12
l10.5 31.5l11.5 34.5q0 6 3 11q2 7 6 12.5t5 10.5q8 30 19 57.5t19 57.5q7 30 16.5 58.5t14.5 60.5zM24 130q4 30 14 61q2 6 3.5 10t4 6.5t6 5.5t10.5 8q2 -2 7 -2.5t9 -2.5t8.5 -8t2.5 -11q-6 -17 -11 -33t-14 -32q-8 -12 -19 -14q-6 0 -11.5 2t-9.5 10z" />
    <glyph glyph-name="quotedbl" unicode="&#x22;" horiz-adv-x="190" 
d="M176 680q5 -7 6.5 -14t-3.5 -13q-2 -8 -6 -15q-8 -16 -18 -30.5t-20 -28.5q-15 -23 -44 -23q-3 1 -5 1q-5 2 -6.5 7t-1.5 7q8 12 15 22t12 23q11 17 20 34t11 38q-2 3 1.5 5t6.5 -2q4 -2 7.5 -3t7.5 -3q6 0 9.5 -1.5t7.5 -3.5zM68 697q9 -6 19.5 -8t16.5 -10
q2 -5 2.5 -11t-3.5 -11t-6.5 -11.5t-5.5 -12.5q-6 -8 -11.5 -17.5t-11.5 -18.5q-6 -8 -8.5 -12.5t-5.5 -7.5t-9 -6.5l-18 -10.5q-2 0 -4.5 1t-4.5 2q-8 2 -9 5q3 5 3.5 12.5t5.5 12.5t7 11.5t7 11.5q8 11 13 25q2 10 7 15q2 8 10 18q2 6 3 10.5t3 12.5z" />
    <glyph glyph-name="numbersign" unicode="#" horiz-adv-x="298" 
d="M125 233q-3 5 -6 5q-5 -2 -8.5 -1.5t-8.5 -1.5q-13 -3 -18 -15q-4 -9 -10.5 -21.5t-11.5 -19.5q-3 -5 -7.5 -6.5t-7.5 -1.5q-11 0 -15 3q-6 6 -6 11q1 4 2.5 8.5t3.5 6.5q1 8 1.5 13t-4.5 11q-5 14 -10 20q5 1 11 3.5t11 4.5q6 1 6 8q-8 1 -16 2.5t-14 2.5l-4.5 4.5
t-4.5 2.5q-2 1 -2 5t3 6q9 6 20 10t22 9q5 2 10.5 3t10.5 3q9 11 13 24q5 7 8.5 13.5t8.5 13.5q0 8 12 8q3 -1 7.5 -1t8.5 -1q3 -4 6 -8.5t4 -6.5q0 -9 -3 -14t-7 -10q-3 -7 -1.5 -10.5t8.5 -1.5q8 1 16 1t14 3q8 3 10.5 10t4.5 15q17 24 23 46q1 5 4 10.5t7 10.5
q13 -1 24 0q1 -4 4 -7.5t7 -5.5q2 -5 -0.5 -10t-2.5 -10q-14 -23 -21 -46q-9 -17 5 -14q7 0 12.5 -1t13.5 -6q2 -2 0.5 -6t-3.5 -6t-5.5 -4t-7.5 -5q-8 -1 -17 -1.5t-17 -2.5q-2 0 -4 -2.5t-1 -4.5q8 -10 -1 -17q-3 -5 -5 -5q-10 -6 -16 -15t-13 -19q-4 -13 -10 -23t-10 -20
q-9 -14 -18 -21q-7 -8 -18.5 -8.5t-17.5 3.5q-1 0 -1 1q-1 1 -1 4t1.5 7.5t1.5 8.5q11 12 17.5 29.5t12.5 29.5zM153 280h-11t-14.5 -0.5l-15 -1t-11.5 -1.5q-4 -2 -5 -4.5t-3 -4.5q-4 -8 5 -8q8 0 24 1t24 3q2 -1 4.5 0.5t2.5 3.5q3 2 3 6q1 2 -0.5 3t-2.5 3z" />
    <glyph glyph-name="dollar" unicode="$" horiz-adv-x="295" 
d="M102 22q-4 -5 -7.5 -7.5t-8.5 -6.5q-6 0 -10.5 5.5t-4.5 13.5q2 5 4 11.5t5 11.5q1 4 2 7t1 7q-2 5 -0.5 10.5t3.5 11.5q3 6 3 11q2 3 -0.5 6t-5.5 3h-27q-29 0 -45 24q-2 3 -4 5t-2 4q-2 5 -1 9t3 7q1 4 6 12q0 4 0.5 6.5t0.5 4.5q2 4 3 7.5t6 4.5q5 -11 9.5 -20
t6.5 -19q6 -8 12 -8q9 2 18 4.5t17 10.5q3 2 5 2t6 2q6 4 9.5 6t5.5 5t3.5 7.5t3.5 12.5q9 26 17 52.5t16 52.5q2 5 4 9t4 10q0 3 1.5 6.5t1.5 6.5q0 5 -7 5q-7 -1 -14 -1.5t-16 -3.5q-21 -2 -33.5 7t-20.5 28q-5 11 0 17q8 14 17 26.5t21 20.5q9 7 17 15t19 16q2 2 5 3.5
t5 4.5q4 4 6 7.5t4 7.5q11 10 24 14q5 1 8.5 1.5t8.5 3.5q8 3 14.5 7.5t4.5 17.5q2 11 7 24q4 8 6 17t0 18q0 4 1 7h18q5 -4 8.5 -7.5l7.5 -7.5q0 -3 0.5 -4t-1.5 -3q-2 -14 -5 -29t-9 -29q-3 -3 -1.5 -6t4.5 -5q16 -7 20 -15q16 -14 1 -27l-3 -4.5t-1 -3.5q-16 -15 -33 -11
q-2 2 -4 1t-4 -1h-1q-1 0 -1 -3q-6 -14 -10 -28t-9 -28q0 -3 1.5 -6.5t3.5 -3.5q5 -2 9 -3.5t9 -3.5q19 -6 35 -25q28 -29 11 -67q-3 -9 -7.5 -17t-9.5 -17q-11 -15 -25 -28t-29 -26q-23 -16 -43.5 -31t-43.5 -26q-20 -53 -26 -106zM155 204q2 0 5 2t5.5 4t6.5 4l14 14
t15 14q25 27 39 63q2 3 1 8t-1 8q2 12 -9 14q-2 0 -3.5 1.5t-3.5 1.5q-15 5 -18.5 3.5t-9.5 -18.5q-1 -2 -2.5 -2t-1.5 -2q-9 -26 -19 -52.5t-20 -52.5q0 -2 -1 -5t3 -5zM199 450q-20 -9 -35.5 -23t-30.5 -31q-5 -5 -9.5 -10.5t-4.5 -13.5q1 0 2 -1v-1q14 0 27 3t27 5
q1 0 3 2l4 4q5 14 9.5 28.5t9.5 28.5q0 2 -1.5 3.5t-0.5 5.5z" />
    <glyph glyph-name="percent" unicode="%" horiz-adv-x="364" 
d="M298 505q8 0 14.5 1.5t14.5 1.5q7 0 11 -7.5t2 -13.5q-5 -8 -7 -10q-8 -11 -17.5 -21t-17.5 -21q-26 -33 -52.5 -66.5t-52.5 -66.5q-9 -11 -17 -21.5t-16 -20.5q-33 -38 -62.5 -77t-60.5 -78q0 -2 -1.5 -2t-3.5 -2q-10 -5 -15 -5q-3 0 -7 1t-8 1q-1 1 -1 4v1q2 5 3 9.5
t7 6.5q7 7 10 14q2 2 2.5 5t5.5 5q8 3 11.5 9.5t7.5 13.5q4 11 11 19.5t15 18.5q11 11 20.5 22t18.5 22q8 8 13.5 13t11.5 12q4 8 10 13.5t9 13.5q7 10 14 19t15 18q3 5 8 10t7 10q10 17 20.5 31t21.5 28q4 8 9 14.5t7 14.5q0 3 2.5 6t4.5 7q4 8 8.5 14t6.5 15q2 5 7 9.5
t10 8.5zM46 407q1 7 2.5 13.5t5.5 9.5q8 7 12 16t9 17q4 9 8 16t10 16q4 2 5.5 6.5t6.5 6.5h23q2 0 3.5 -1.5t3.5 -1.5q8 -8 16.5 -16t14.5 -14q14 -14 20 -30q5 -11 2 -21.5t-11 -18.5q-17 -18 -36.5 -32t-42.5 -20q-24 -4 -42 14q-10 20 -10 40zM139 441q-2 3 -2.5 6
t-2.5 5q-9 6 -15 20q-1 1 -2 1q-2 0 -2 -1q-6 -9 -12 -16.5t-8 -18.5q-3 -8 -6 -17t-8 -17q0 -3 1 -3.5t1 -2.5h3q3 0 5.5 1t5.5 1q13 8 22.5 16.5t19.5 19.5v6zM195 110q-10 0 -16 2t-14 7q-13 13 -16 23t2 33q3 5 5 10.5t7 11.5q4 8 9.5 17t8.5 20q0 2 1 2h1q8 14 13 18
t20 -2q20 -7 37 -19t26 -32q8 -11 6 -21t-10 -21q-12 -20 -29 -30t-39 -16q-3 -2 -6.5 -2.5t-5.5 -0.5zM214 216q-2 0 -2 -2t-2 -2q-10 -11 -14.5 -25t-9.5 -30l2 -2q0 -6 4 -6q2 0 5.5 0.5t5.5 2.5q20 8 33 28q2 0 2.5 2.5t0.5 4.5q-7 20 -25 29z" />
    <glyph glyph-name="ampersand" unicode="&#x26;" horiz-adv-x="354" 
d="M245 217q11 -27 29 -49t36 -42q-3 -6 -5 -8.5t-4 -6.5h-7q-15 5 -23 15q-5 3 -9 8t-9 11q-8 10 -16.5 22t-16.5 24q-1 2 -4 3.5t-5 3.5q-11 -5 -21.5 -13t-18.5 -13q-11 -6 -21 -13.5t-21 -13.5q-11 -8 -24.5 -13t-26.5 -9q-20 -5 -36 1.5t-30 20.5q-4 3 -5 6t-3 5
q-5 14 -1 26.5t12 25.5q10 12 18 22.5t19 21.5q17 16 33.5 30t35.5 27q11 8 12 15t-6 19q-5 8 -11 14.5t-11 13.5q-9 4 -17 6t-15 4q-2 5 -0.5 9.5t5.5 6.5q15 7 28 18t25 20q15 10 31 16.5t33 6.5q16 2 31.5 -1t31.5 -7q13 -2 21.5 -9t15.5 -16q1 -5 1 -12q-4 -10 -7 -16
q-8 -11 -17.5 -20.5t-22.5 -17.5q-14 -11 -27 -21t-27 -21q-4 -2 -5 -3.5t-4 -4.5q8 -13 15.5 -24t15.5 -24q3 -5 6.5 -6t9.5 1q5 4 9 6t7 6q11 5 19.5 11t19.5 11q3 0 6.5 2t7.5 4q8 4 15 7t12 7q2 0 5 -2.5t1 -4.5q-2 -10 -6.5 -20t-13.5 -15q-12 -9 -24.5 -15.5
t-25.5 -14.5q-6 -5 -11 -9.5t-9 -11.5zM155 287q-6 -5 -11.5 -9.5t-10.5 -9.5q-17 -11 -30.5 -25.5t-26.5 -30.5q-5 -8 -11 -16t-11 -17q-2 -2 -2.5 -5t-1.5 -6q-2 -3 0.5 -6.5t4.5 -1.5q11 3 19.5 7t18.5 8q23 14 42.5 27t42.5 27q2 2 3 2t3 2q3 3 3 11q-5 9 -12.5 19.5
t-12.5 18.5q0 2 -2 2.5t-5 2.5zM169 347q3 5 8 9.5t10 9.5q5 4 9 10q11 8 21 18.5t18 21.5v2q0 3 1 5l-1 1q-1 0 -1.5 0.5t-1.5 0.5q-24 3 -48 -5q-14 -7 -27.5 -15.5t-27.5 -17.5v-4.5t2 -4.5q9 -2 14 -8t10 -13q2 -2 6.5 -4.5t7.5 -5.5z" />
    <glyph glyph-name="quotesingle" unicode="'" horiz-adv-x="124" 
d="M108 680q5 -7 6.5 -14t-3.5 -13q-2 -8 -6 -15q-8 -16 -18 -30.5t-20 -28.5q-15 -23 -44 -23q-3 1 -5 1q-5 2 -6.5 7t-1.5 7q8 12 15 22t12 23q11 17 20 34t11 38q-2 3 1.5 5t6.5 -2q4 -2 7.5 -3t7.5 -3q6 0 9.5 -1.5t7.5 -3.5z" />
    <glyph glyph-name="parenleft" unicode="(" horiz-adv-x="154" 
d="M89 466q12 18 23 35t21 36q4 8 9 15.5t5 17.5q0 8 5 12t11 4q8 0 15 -0.5t13 -4.5q6 -7 3 -10t-5 -11q-2 -9 -6.5 -16.5t-9.5 -14.5q-17 -22 -30 -45.5t-27 -46.5q-10 -17 -18 -34.5t-16 -34.5q-14 -32 -25 -65t-16 -64.5t-2.5 -60t15.5 -50.5q9 -14 18 -22
q8 -4 15.5 -11t15.5 -13q2 -2 6.5 -5t0.5 -6l-12 -4t-12 4q-4 3 -6 5t-6 4q-30 17 -46.5 42.5t-22.5 58.5q-6 31 0.5 70t20 78t31 75t32.5 62z" />
    <glyph glyph-name="parenright" unicode=")" horiz-adv-x="193" 
d="M-6 63q4 11 15.5 20.5t22.5 24.5q15 21 30.5 49t28 60.5t20.5 67t8 69.5q0 17 -0.5 32.5t-4.5 32.5q-6 31 -13 58.5t-19 58.5q-4 12 -13.5 24.5t-13.5 25.5q14 4 18.5 4t9.5 -4q12 -7 21 -16.5t13 -22.5q26 -62 37 -127q7 -46 2 -90t-18.5 -85t-35 -78.5t-47.5 -70.5
q-8 -13 -22 -21q-16 -14 -36 -14l-3 2v0z" />
    <glyph glyph-name="asterisk" unicode="*" horiz-adv-x="226" 
d="M141 570q-2 -5 -6 -10t-7 -10q1 -3 6.5 -4.5t11 -2.5t10.5 -2t7 -3q4 -5 2 -8.5t-7 -6.5t-11.5 -4.5t-10.5 -1.5q-2 -7 8 -13.5t14 -11.5q6 -4 12.5 -11t3.5 -14q-1 -4 -5 -6.5t-7 -2.5q-11 1 -19 4.5t-14 8.5t-12 11t-13 14q-13 -1 -19.5 -9.5t-16.5 -13.5
q-5 -5 -13.5 -4t-12.5 4q-11 11 -10.5 14t11.5 14q5 5 10.5 9.5t7.5 8.5q0 3 -2.5 5t-6.5 4l-7 3.5t-4 2.5q-13 10 -9 19.5t15 7.5q8 -2 17.5 -5.5t18.5 -5.5q6 9 7 14t1.5 9t2.5 7.5t10 11.5q20 12 33 7t4 -29z" />
    <glyph glyph-name="plus" unicode="+" horiz-adv-x="274" 
d="M91 273q-7 -1 -14.5 -2.5t-14.5 -2.5q-5 0 -10.5 0.5t-11.5 3.5q-6 4 -9 7t-8 14q2 5 4 5q5 2 12 2q17 0 34 2.5t33 2.5q1 0 2.5 0.5t3.5 0.5q6 5 9 10q5 14 3 28q0 5 -1.5 9.5l-3.5 10.5h2q11 -2 16 -8q7 -2 10 -7t5 -12v-18q0 -2 1 -4t1 -5q22 -4 43.5 -1.5t42.5 -2.5
q-2 -1 -1 -3t-1 -2q-3 -2 -6.5 -5.5l-7.5 -7.5q-14 -1 -27 -2.5t-29 -5.5h-8t-8 -2q-7 0 -13 -9q-2 -5 -2.5 -9.5t-2.5 -8.5q-6 -16 -15 -26q-5 -8 -11.5 -9.5t-14.5 -1.5q-4 0 -5 1q-2 0 -3.5 4t0.5 6l1 1l2 2q7 10 11 21t7 24h-15z" />
    <glyph glyph-name="comma" unicode="," horiz-adv-x="110" 
d="M70 211q9 -8 10 -11t-3 -13q-5 -9 -11 -20.5t-14 -21t-16.5 -15t-17.5 -0.5q0 5 2 8q4 6 6.5 12t6.5 12q4 8 6.5 16.5t2.5 17.5q-1 4 2 12q1 0 2.5 0.5t2.5 0.5q6 -3 11 0t10 2z" />
    <glyph glyph-name="hyphen" unicode="-" horiz-adv-x="339" 
d="M202 270q-14 -2 -29 -1t-31 1q-8 0 -16 -0.5t-18 -2.5h-11t-12 -2q-33 0 -36 28q0 4 -0.5 8t-2.5 8q0 10 8 10q4 0 6.5 -1t6.5 -1t7.5 -1t7.5 1q26 4 51 0t50 -6q10 0 18 -1t16 -1h39h13q6 -2 9 -8.5t-1 -12.5v-2q-5 -5 -7 -8.5t-6 -7.5h-62z" />
    <glyph glyph-name="period" unicode="." horiz-adv-x="107" 
d="M36 218q5 2 9 1.5t7 1.5q10 6 18.5 0t13 -15.5t4 -19t-7.5 -9.5q-22 -7 -47 12q-3 1 -5 6t-2 10t2.5 9t7.5 4z" />
    <glyph glyph-name="slash" unicode="/" horiz-adv-x="281" 
d="M3 106q20 28 35 58.5t31 62.5q20 55 42 107t42.5 101.5t38.5 97.5t32 97q2 9 3.5 14t3 9t2.5 9t2 13q14 1 21.5 -6t9.5 -17.5t0 -22t-6 -18.5q-12 -32 -26.5 -69t-29.5 -74.5t-30 -73.5t-27 -65q-12 -25 -26 -55.5t-29 -61.5t-30 -61t-28 -55q-4 -8 -12.5 -12t-15 -3.5
t-9 6.5t5.5 19z" />
    <glyph glyph-name="zero" unicode="0" horiz-adv-x="232" 
d="M99 451q11 2 22.5 2.5t22.5 -4.5q5 8 8.5 14t8.5 13q4 2 9 2.5t9 2.5q17 0 28.5 -10.5t13.5 -25.5q2 -23 -1 -44t-10 -41q-12 -46 -34 -87t-51 -78q-8 -11 -18 -22.5t-18 -22.5q-12 -11 -33 -18q-19 -7 -36 6.5t-17 34.5q0 17 5 31.5t9 28.5q6 17 12.5 33t12.5 33
q8 21 15 42t10 44q0 5 3 9.5t5 9.5q6 12 12.5 24t11.5 23zM42 181q11 5 26 19.5t29.5 33t27.5 38t21 36.5q15 29 26 60t13 66q-6 0 -12.5 -1.5t-11.5 -1.5q-13 0 -20 -5.5t-14 -16.5q-18 -35 -34 -71.5t-30 -73.5q-8 -22 -13.5 -41t-7.5 -42z" />
    <glyph glyph-name="one" unicode="1" horiz-adv-x="188" 
d="M142 192q6 -13 4 -18t-12 -7q-12 -8 -31 -8q-8 -2 -12.5 -7t-9.5 -13t-5 -18q-8 -6 -14 -6t-12 1.5t-11 4t-10 2.5q-8 4 -15 9.5t-12 10.5l17.5 17.5t20.5 12.5q7 2 9.5 7.5t4.5 11.5q14 46 30 90t30 89q2 8 3.5 16.5t-0.5 16.5q-12 -4 -19.5 -6t-13 -0.5t-9.5 6.5
t-10 14q6 6 12.5 12t14.5 12q13 11 25 22t25 23q8 8 18 7.5t18 -2.5q21 -8 14 -27q0 -7 -6 -11l-12 -34t-11 -35l-16 -46l-16 -46q-8 -22 -15.5 -43.5t-15.5 -41.5v-7t-2 -9h44z" />
    <glyph glyph-name="two" unicode="2" horiz-adv-x="337" 
d="M143 217q29 6 57.5 2t54.5 -11q14 -4 26.5 -6.5t26.5 -6.5q2 -2 4 -2.5t5 -2.5q2 -4 2 -9q0 -2 -1.5 -4t-4.5 -2h-11q-8 3 -17.5 5t-17.5 4q-29 10 -59.5 9t-59.5 -9q-20 -7 -38.5 -17t-35.5 -22q-8 -6 -16.5 -12.5t-16.5 -11.5q-19 -3 -26 8.5t-12 23.5v6q26 11 45 29
t37 37q19 21 35 44.5t34 43.5q14 19 28 49t25 52q11 15 11 35q-2 6 -6 7t-11 1q-11 2 -19.5 -1t-16.5 -7q-6 -2 -12 -5.5t-12 -5.5q-8 -5 -16.5 -5t-14.5 10q-3 4 -16 9q32 27 64.5 35.5t70.5 0.5q14 -4 24 -14.5t15 -24.5q2 -6 2 -10.5v-11.5q-2 -10 -7 -20.5t-9 -21.5
q-17 -29 -39 -65.5t-45 -61.5q-8 -8 -16 -17.5t-13 -21.5z" />
    <glyph glyph-name="three" unicode="3" horiz-adv-x="301" 
d="M204 454q-15 -5 -22 -9l-10.5 -3.5t-8.5 -3.5q-27 -15 -47 5h-2q-2 0 -4 2q7 4 11 7.5t9 5.5q10 6 19 10t19 9q19 8 38 9.5t39 -4.5q4 -6 9 -12t9 -12q-5 -19 -18 -33.5t-24 -29.5q8 -2 13.5 -3.5t10.5 -3.5q8 -2 14 -4t13 -6q34 -28 14 -62q-13 -23 -32.5 -43t-41.5 -37
q-20 -17 -41 -31t-44 -28q-15 -14 -35 -26q-14 -11 -28.5 -19t-26.5 -17q-6 2 -9 4t-8 3q-4 0 -8.5 0.5t-10.5 2.5q6 5 12.5 9.5t12.5 9.5q7 5 12.5 9.5t12.5 8.5q6 4 9 6.5t7 7.5q21 17 41 28q10 4 17.5 9.5t15.5 13.5q19 15 36.5 30.5t34.5 32.5q12 12 19 25.5t14 29.5
q2 2 1 7t-1 8q-13 5 -25.5 5t-24.5 -3t-23 -7t-22 -7q-14 2 -19 10.5t-7 19.5q31 8 47 31q8 10 18.5 19.5t14.5 25.5z" />
    <glyph glyph-name="four" unicode="4" horiz-adv-x="224" 
d="M72 125q-2 3 -2 5q2 14 4.5 27t8.5 24q7 18 13.5 34t11.5 33q8 17 13.5 33t11.5 31q2 6 5 12.5t1 14.5q-5 -4 -8.5 -6t-8.5 -4q-12 -9 -23 -18.5t-24 -18.5q-6 -5 -14 -10t-16 -7q-21 -8 -33 8q-5 2 -7 7.5t-4 9.5q32 39 64.5 75.5t67.5 74.5q6 8 13.5 14t3.5 17
q20 2 36 -2t33 -9q4 -2 5.5 -6t1.5 -7q-2 -1 -2 -4.5v-5.5q-11 -33 -21.5 -64t-25.5 -60q-2 -5 -3.5 -8.5t-1.5 -8.5q-8 -27 -20 -52.5t-24 -48.5q-7 -14 -10 -27t-10 -24q-3 -14 -13 -29h-23zM186 450q-8 -5 -18.5 -14t-20.5 -19t-19 -20.5t-14 -17.5q-2 0 -1.5 -2t-1.5 -5
q11 6 18.5 12t14.5 12q8 5 11.5 13.5t16.5 9.5q2 0 2.5 2t2.5 4q2 4 3 9.5t6 15.5z" />
    <glyph glyph-name="five" unicode="5" horiz-adv-x="290" 
d="M102 440q11 4 19 7t14 7q26 10 50.5 17t48.5 13q8 2 16 -1t15 -5q4 0 8 -11q5 -4 3 -9t-9 -7q-4 -2 -9.5 -2.5t-12.5 -3.5q-29 -6 -56 -16t-54 -27q-2 -8 -5.5 -16.5t-5.5 -19.5h17t17 2q26 9 49.5 3.5t43.5 -22.5q19 -12 24 -37t-8 -43q-16 -28 -46 -50
q-19 -14 -40.5 -25.5t-42.5 -23.5q-25 -15 -51.5 -25.5t-55.5 -18.5q-8 -2 -15 1.5t-12 0.5q-5 7 -3.5 9.5t5.5 5.5q8 5 18 9.5t20 8.5q15 9 29.5 16t28.5 15q11 4 19.5 10t16.5 12q13 11 26.5 19.5t26.5 19.5q17 10 25.5 25.5t12.5 32.5q7 19 -13 27q-18 9 -39 0
q-21 -4 -38 -13.5t-34 -22.5q-4 -4 -9.5 -8t-9.5 -6q-20 -12 -33 5q-2 5 -4 9t-5 11q22 29 37.5 60.5t20.5 66.5z" />
    <glyph glyph-name="six" unicode="6" horiz-adv-x="210" 
d="M83 277q9 6 20 6q12 -2 26 -3t25 -5q10 -4 21 -10q10 -8 12.5 -15t-0.5 -21q-2 -9 -7 -18.5t-12 -17.5q-5 -8 -11.5 -16t-13.5 -16q-9 -9 -24 -16q-5 -5 -11.5 -7t-12.5 -5q-17 -9 -42 -3t-42 23q-3 5 -4.5 10t-3.5 10q-2 13 -2 22.5t4 23.5q2 11 6 21.5t9 19.5
q5 11 10 20.5t8 20.5q2 3 4.5 7t6.5 6v2q0 1 0.5 1.5t0.5 1.5q2 12 9.5 22t14.5 20q22 29 46.5 55.5t50.5 53.5q3 3 7.5 5t8.5 4q8 6 18 0q1 -2 3.5 -4t4.5 -4q2 -1 2.5 -4t0.5 -4q0 -8 -3 -9q-5 -4 -7.5 -7t-7.5 -7q-16 -11 -29 -26t-26 -29q-14 -17 -27 -33t-24 -33
q-8 -14 -15 -27t-15 -27q-5 -13 -10.5 -28t-7.5 -29q-8 -14 -3 -33q0 -5 4.5 -9t9.5 -2q4 0 6 0.5t6 2.5q48 15 76 57l3 6t1 5q4 10 -2 13q-8 3 -15.5 8.5t-18.5 5.5q-6 0 -11 2.5t-11 4.5q-2 0 -3 1l-2 2q-1 3 -1 5z" />
    <glyph glyph-name="seven" unicode="7" horiz-adv-x="232" 
d="M180 337q5 -5 11 -4t11 -1q2 -2 4 -2.5t4 -4.5q0 -6 -2 -10.5t-10 -6.5q-9 -2 -17 -4.5t-19 -2.5q-8 -2 -14.5 -5.5t-12.5 -9.5q-14 -21 -27.5 -40t-27.5 -40q-8 -12 -14 -24.5t-13 -26.5q-5 -9 -12 -16.5t-15 -15.5q0 -2 -2 -2t-4 -2q-4 -4 -10 0q-1 2 -3 3.5t-2 3.5
t0.5 5t3.5 6q5 12 8.5 23.5t8.5 22.5q6 9 10 18.5t12 17.5q9 12 17 25.5t18 24.5q1 5 3.5 9t2.5 9q-8 3 -16.5 8.5t-15.5 15.5q16 2 30 5.5t28 5.5q2 0 4.5 1t4.5 2q8 9 17.5 17.5t14.5 18.5q8 12 18.5 22.5t18.5 20.5q4 4 7 7.5t8 8.5h-9q-14 -7 -29.5 -11.5t-32.5 -4.5
q-20 -2 -38.5 3t-30.5 22q-2 2 -4 2.5t-4 2.5l2 6q6 0 13 1t14 -4q32 -7 58 6q17 8 37 15t39 13q18 10 39 10h22q5 -2 7.5 -7t0.5 -10q-4 -8 -8 -10q2 -8 -1.5 -13t-8.5 -10q-18 -16 -34 -34q-16 -13 -29 -27t-27 -28q-1 0 -4 -5z" />
    <glyph glyph-name="eight" unicode="8" horiz-adv-x="259" 
d="M61 402q12 12 13 18q23 36 52.5 53.5t70.5 16.5q14 -3 27 -8.5t23 -13.5q9 -10 13 -18t2 -19q-2 -26 -12 -45.5t-19 -41.5q-9 -8 -18.5 -15t-23.5 -7q-3 7 -2.5 13.5t2.5 14.5t5.5 15.5t6.5 13.5q4 16 8.5 28.5t9.5 27.5q2 6 0.5 9.5t-4.5 5.5q-8 12 -21 12
q-17 0 -32.5 -7t-29.5 -15q-9 -5 -16 -14t-14 -17q-8 -9 -8 -21.5t8 -20.5q2 0 3.5 -2t1.5 -4q5 -3 9.5 -5.5t9.5 -0.5q8 3 14.5 2t13.5 -4q16 -4 13 -22q0 -12 5 -12q7 -2 13.5 -6.5t14.5 -8.5q2 -4 6.5 -6.5t8.5 -7.5q12 -14 12.5 -24.5t-8.5 -27.5q-8 -18 -21 -32.5
t-26 -28.5q-4 -4 -8 -7.5t-7 -7.5q-15 -16 -32 -28t-37 -20q-31 -12 -60 0q-2 3 -4 4.5t-4 3.5q-8 3 -11 9q-2 4 -4 7.5t-4 8.5q0 3 -1 6.5t-1 6.5q2 13 3 23.5t9 21.5q5 11 11.5 21.5t13.5 20.5q0 3 2 5.5t2 6.5q5 17 15 30t24 27q2 2 2.5 4t2.5 2q5 10 1 17q-3 7 -5 11
t-6 9q-5 8 -9 16t-4 20q3 2 1.5 3.5t-1.5 3.5zM130 304q-39 -31 -62 -74q-9 -14 -16.5 -29.5t-11.5 -33.5q-2 -5 -2 -15q0 -1 3.5 -4t5.5 -3q10 5 20 9t21 10q11 8 21 16.5t21 15.5t21 17.5t21 22.5q1 2 4 5t5 10q5 11 0 20q-2 4 -5 6t-4 4q-11 8 -21 13.5t-21 9.5z" />
    <glyph glyph-name="nine" unicode="9" horiz-adv-x="199" 
d="M114 299q-12 -3 -21 -7t-19 -6q-15 -5 -33 5t-25 30q-5 11 0 21q5 11 8 18.5t9 15.5q0 2 1.5 3t1.5 3q11 26 27.5 45.5t36.5 38.5q9 7 15.5 10.5t17.5 10.5q8 2 19 0q5 -2 9 -2.5t9 -2.5q3 -3 5.5 -4t3.5 -3q5 -3 10 -6.5t10 -6.5q8 -5 10 -9t2 -9q0 -4 -1 -7t-1 -8
q-6 -23 -12.5 -46.5t-17.5 -46.5q-9 -19 -16 -37.5t-17 -36.5q-10 -17 -19 -32.5t-18 -31.5q-7 -13 -16 -24t-19 -23q-8 -15 -20.5 -22t-26.5 -12q-5 -3 -12 -3t-14 -1q-1 7 3 14q9 11 17.5 20t16.5 20q14 19 25.5 36.5t24.5 38.5q8 14 13 27.5t13 29.5zM163 441q0 9 -8 5
q-2 0 -4 -1t-5 -1q-21 -13 -38.5 -29t-31.5 -39q-6 -9 -12 -21t-7 -24q-2 -2 0 -3t4 -1h4q29 15 50 37t41 46q7 10 7 29v2z" />
    <glyph glyph-name="colon" unicode=":" horiz-adv-x="107" 
d="M48 338q3 2 6.5 1t5.5 1q8 4 14.5 0t9.5 -10t3 -12t-6 -6q-9 -2 -17.5 0t-15.5 12q-5 2 -6.5 8t6.5 6zM33 227q3 2 6.5 1t5.5 1q8 4 14.5 0t9.5 -10t3 -12t-6 -6q-9 -2 -17.5 0t-15.5 12q-5 2 -6.5 8t6.5 6z" />
    <glyph glyph-name="semicolon" unicode=";" horiz-adv-x="131" 
d="M83 279q9 -8 10 -11t-3 -13q-5 -9 -11 -20.5t-14 -21t-16.5 -15t-17.5 -0.5q0 5 2 8q4 6 6.5 12t6.5 12q4 8 6.5 16.5t2.5 17.5q-1 4 2 12q1 0 2.5 0.5t2.5 0.5q6 -3 11 0t10 2zM56 340q3 2 6.5 1t5.5 1q8 4 14.5 0t9.5 -10t3 -12t-6 -6q-9 -2 -17.5 0t-15.5 12
q-5 2 -6.5 8t6.5 6z" />
    <glyph glyph-name="less" unicode="&#x3c;" horiz-adv-x="323" 
d="M296 130q-15 -3 -28 5q-29 18 -59.5 27t-62.5 15q-14 2 -27 4t-27 4q-8 0 -15.5 2t-15.5 8q-3 3 -11 3q-10 -6 -17.5 -1.5t-15.5 8.5q-2 2 -4 5.5t-7 5.5q5 2 7 4.5t4 2.5q23 10 44.5 21.5t43.5 25.5q29 17 57.5 36t56.5 42q4 4 9.5 9t10.5 9q12 0 19 -5t15 -13
q6 -4 6 -11.5t-6 -12.5q-11 -8 -23 -15.5t-23 -15.5q-10 -8 -20 -13.5t-22 -9.5q-17 -10 -33.5 -19.5t-33.5 -19.5q-3 0 -3 -5l3 -3q2 -2 10 -2q65 -12 127 -39q6 -2 10 -5t8 -5q12 -5 17 -13.5t9 -17.5q2 -2 0.5 -5.5t-3.5 -5.5z" />
    <glyph glyph-name="equal" unicode="=" horiz-adv-x="258" 
d="M11 334q23 0 46 2.5t46 6.5q10 2 20.5 2.5t21.5 2.5h54q5 2 10 1t8 -3q2 -2 4 -5t4 -5q0 -2 -1 -4.5t-3 -2.5q-4 -5 -9 -8.5t-13 -3.5q-8 -2 -15 -2.5t-15 -2.5q-19 -1 -40 -2.5t-40 -3.5q-8 -2 -14.5 -2h-13.5q-11 -2 -18.5 2.5t-18.5 5.5q-3 5 -8.5 9.5t-4.5 12.5z
M83 228q-13 -2 -21 -0.5t-16 3.5q-13 6 -20 21v10q0 3 2.5 4.5t4.5 1.5q5 -2 14 -2q5 -2 11.5 -2h11.5q9 2 17 2h16q20 2 39.5 3.5t41.5 5.5h21q5 -2 7 -7t-2 -9q-5 -5 -11 -9.5t-13 -6.5q-16 -4 -32 -7t-33 -5q-11 0 -21.5 -1.5t-16.5 -1.5z" />
    <glyph glyph-name="greater" unicode="&#x3e;" horiz-adv-x="278" 
d="M24 370q11 -8 20 -15.5t18 -14.5q22 -18 39 -27.5t42 -25.5q11 -5 19.5 -12t17.5 -15q8 -4 13.5 -7.5t14.5 -2.5q13 -3 17.5 -17t9.5 -24q3 -5 1 -9t-6 -6q-13 -4 -26.5 -7.5t-25.5 -7.5q-21 -7 -41 -14.5t-42 -11.5q-13 -2 -25 -5t-25 -5q-10 -2 -19.5 0.5t-17.5 7.5
q-10 10 3 16q10 6 21.5 7t24.5 4q8 4 21 8t27 8.5t27.5 8t22.5 5.5q10 4 11.5 8.5t-2.5 8.5t-11.5 8t-15.5 7q-8 5 -18.5 11t-19.5 12q-10 7 -18 12t-15.5 10t-15.5 11t-18 15q-6 7 -10 16.5t-2 19.5q-1 5 0.5 10t3.5 13z" />
    <glyph glyph-name="question" unicode="?" horiz-adv-x="283" 
d="M100 591q-2 4 -3 7.5t-3 8.5q5 3 9 8q8 0 14.5 2.5t14.5 6.5q16 9 33.5 12t37.5 7q14 2 27.5 -1.5t25.5 -8.5q13 -5 20 -13t14 -19q3 -8 2.5 -16.5t-2.5 -17.5q-4 -17 -13 -33t-22 -30q-14 -16 -31.5 -30.5t-34.5 -30.5q-18 -18 -37 -40q-19 -20 -34.5 -39.5t-26.5 -42.5
q-2 -3 -6 -11.5t-8.5 -18t-7.5 -18t-4 -11.5q-6 -11 -8.5 -17.5t-12.5 -8.5q-5 0 -10 7q0 5 -0.5 8.5t1.5 8.5q2 8 6 21t9 27t10 27t10 20q33 56 80 101q15 15 28 29.5t28 31.5q10 12 18.5 25.5t16.5 27.5q5 8 6 14q3 23 -16 23q-6 0 -12 1t-11 -1q-12 -3 -24 -5.5t-26 -7.5
q-3 -2 -6.5 -4t-5.5 -4q-11 -5 -21.5 -5.5t-24.5 10.5zM50 198q5 -5 9 -9.5t6 -9.5q2 -2 2 -13v-15q0 -3 -3.5 -6t-6.5 -3q-7 -2 -12.5 0.5t-10.5 6.5t-7.5 8.5t-5.5 8.5q-3 7 1.5 20.5t13.5 13.5q4 0 7 -1t7 -1z" />
    <glyph glyph-name="at" unicode="@" horiz-adv-x="293" 
d="M120 186q-5 -2 -7.5 -3.5t-6.5 -3.5q-13 -5 -22 -2.5t-20 13.5q-10 14 -9.5 27t7.5 27q4 11 10.5 20.5t16.5 17.5q7 5 13 8t14 3q5 0 8.5 2t8.5 4h11t9 -2q4 -5 7 -8t1 -9h1q1 0 2 -1t3 -2q4 -6 5 -12.5t-3 -14.5q-8 -15 -10.5 -29.5t-0.5 -30.5q5 0 9 2q18 17 35 36
t28 44q2 2 2.5 5.5t3.5 8.5q8 14 5 28t-11 26q-6 12 -16 18t-21 8.5t-21.5 0.5t-18.5 -7q-17 -15 -36 -27t-36 -31q-13 -17 -23.5 -34t-15.5 -40q-16 -56 34 -89q6 -4 12 -6t12 -7q2 -2 5 -4t-2 -7q0 -2 -3 -2.5t-5 -0.5q-22 0 -39 14q-32 28 -49 66q-9 20 -5 40.5t18 36.5
q11 14 21 27t21 28q11 11 20.5 20t20.5 16q27 17 54 22.5t57 -5.5q10 -6 18 -15q15 -10 28 -32q11 -17 11 -35.5t-8 -36.5q0 -10 -11 -19q-8 -15 -18 -29.5t-20 -28.5q-15 -18 -36 -28q-25 -12 -42 8q-4 7 -8 13.5t-8 11.5zM142 277q-15 -2 -24.5 -9t-17.5 -18
q-11 -15 -11 -36q15 8 30 26.5t23 36.5z" />
    <glyph glyph-name="A" unicode="A" horiz-adv-x="594" 
d="M345 -135q1 3 0.5 7t0.5 7q2 14 4 27t6 26q2 5 2.5 9t1.5 8q3 14 6 27t9 25q2 4 3 8.5t2 9.5q0 16 8 35q6 19 11.5 37.5t10.5 37.5q2 8 3 11q5 10 8 20t5 21q4 20 7.5 39t8.5 39q0 2 -2 5t-4 3q-1 1 -3 1h-15q-8 -2 -15.5 -3.5t-15.5 -3.5q-22 -7 -43.5 -12.5
t-43.5 -12.5q-28 -8 -55 -17.5t-53 -20.5q-5 -2 -9 -5.5t-8 -7.5q-1 -1 -1 -2t-1 -1q-6 -10 -12 -18.5t-12 -17.5q-15 -26 -30 -51.5t-28 -52.5q-5 -11 -11.5 -22t-13.5 -22q-4 -6 -11 -9q-4 -2 -10 -4q-14 -3 -25 2q-2 0 -3 1t-3 2q-5 1 -8 4t-5 7q-4 5 -1 10q3 4 5.5 6.5
t4.5 7.5q14 24 27.5 48t26.5 50q6 11 -7 13h-4q-8 -1 -14.5 1t-13.5 5q-2 0 -6 4q-8 6 -2 12q3 5 4 6q8 9 22 18q8 4 15 7t14 7q11 5 20.5 9t19.5 9q11 5 18.5 11.5t14.5 14.5q11 14 22.5 28.5t22.5 28.5l30 36t30 35q21 23 41 46t41 46q13 14 26 27l27 27q9 9 17.5 18
t17.5 18q5 5 8.5 9.5t8.5 9.5q6 5 12 10.5t12 11.5q8 9 21 19q4 4 8 7t9 6q23 19 34 42q2 4 4.5 7.5t4.5 8.5q4 7 10 9.5t14 3.5q3 0 6.5 -0.5t7.5 -0.5q5 -1 8.5 -6t4.5 -10q2 -7 -1 -17q-2 -11 -5.5 -20.5t-6.5 -20.5q-14 -47 -25 -91q-3 -15 -7.5 -31t-9.5 -31
q-8 -27 -14.5 -54t-14.5 -54q-1 -3 -1 -5.5t-1 -4.5q-5 -23 17 -20q6 1 11 1.5t11 1.5q2 0 5 -0.5t6 -0.5l2 -2q2 -4 0 -7q-3 -7 -10 -10q-14 -10 -29 -14q-5 -2 -10 -3.5t-10 -3.5q-8 -3 -10 -10q-2 -4 -4 -10q-13 -42 -25 -84.5t-24 -85.5l-2 -8t-3 -9q-4 -12 -7 -24
l-6 -24q-2 -11 -6 -21t-6 -21q-5 -14 -9.5 -28.5t-9.5 -29.5q-3 -9 -5.5 -18.5t-4.5 -19.5q-5 -21 -10 -35q-4 -8 -9 -12q-2 -2 -6.5 -0.5t-5.5 4.5t-1 5.5t-1 5.5zM257 267q20 5 40.5 10t40.5 9t40 9.5t40 10.5q18 3 34 12q9 7 11 13l8 24t7 24q5 21 9 42t7 42q2 6 2 11.5
t2 10.5q6 23 10.5 45.5t9.5 45.5q1 2 1 7t-3 6q-2 2 -7 -1q-5 -5 -10.5 -11t-11.5 -11q-8 -6 -13.5 -12.5t-12.5 -13.5q-14 -17 -27 -33.5t-30 -30.5q-2 -1 -5 -6q-8 -8 -15 -17t-15 -18l-16.5 -16.5t-13.5 -19.5l-3.5 -3.5l-3.5 -3.5q-10 -10 -18 -20.5t-16 -21.5
q-10 -13 -20 -25.5t-20 -25.5l-8 -10t-7 -10q-2 -2 -2 -7q-1 -2 1.5 -4.5t4.5 -2.5q2 1 5 1t5 1z" />
    <glyph glyph-name="B" unicode="B" horiz-adv-x="700" 
d="M650 652q0 -16 -6 -26q0 -1 -1 -2v-1q-7 -13 -11 -20.5t-8.5 -13.5t-10 -12t-15.5 -15q-9 -9 -17.5 -18.5t-18.5 -17.5q-10 -9 -20 -17.5t-21 -16.5q-2 -2 -4 -3.5t-5 -3.5q-9 -7 -16 -14.5t-16 -13.5l-18 -12t-17 -14q-3 -2 -7 -8q-4 -4 1 -6q6 -4 9 -5q3 -2 7 -2.5
t7 -1.5q13 -4 25.5 -7.5t26.5 -6.5q22 -6 40.5 -15.5t36.5 -23.5q19 -13 33 -32q20 -23 28 -54q6 -21 1 -42q-2 -5 -3 -11t-3 -11q-6 -17 -15 -33q-11 -16 -22 -31t-24 -29q-3 -4 -7 -7.5t-7 -8.5q-3 -3 -6 -6.5t-6 -6.5q-9 -8 -18.5 -17t-19.5 -17q-11 -11 -22 -20.5
t-25 -18.5q-7 -5 -13 -10l-12 -10q-18 -14 -36.5 -26.5t-38.5 -23.5q-17 -11 -35.5 -20.5t-37.5 -18.5q-21 -10 -43.5 -17t-45.5 -12q-3 -1 -6.5 -1t-7.5 -1q-8 -1 -16 -1.5t-16 -1.5q-53 -7 -105 15q-9 4 -19 12q-4 4 -8 7t-9 6q-5 4 -9 12q-2 5 -5 9.5t-5 9.5q-5 12 -5 24
q0 5 0.5 9t2.5 9q5 10 9.5 19.5t9.5 19.5q2 4 8 12q14 19 27.5 37.5t27.5 37.5q2 2 2.5 3t2.5 2q9 11 14.5 17.5t9.5 12t7 11.5t7 15q11 24 19.5 48.5t18.5 49.5q2 5 3.5 9.5t4.5 9.5q10 19 16 38.5t13 39.5q6 19 13 37.5t14 37.5l4 10t5 10q8 18 14 36.5t11 37.5
q4 11 6.5 21t0.5 21q0 6 -5 4q-2 -1 -3.5 -1t-3.5 -1q-18 -13 -32 -29q-15 -16 -30 -31.5t-29 -32.5q-5 -6 -11 -11.5t-11 -10.5q-8 -6 -16.5 -6t-14.5 5q-3 3 -4.5 7.5t0.5 8.5q5 9 9.5 17.5t9.5 17.5q2 4 4.5 8t5.5 7q16 20 33 38.5t37 34.5q3 3 6.5 5.5t6.5 6.5
q39 38 85 63t98 40q13 4 25 7q13 4 31 6h9t9 2q14 3 27 2t27 0h4q34 -7 62 -19q4 -2 7.5 -4t7.5 -4q18 -13 27 -29q2 -2 2.5 -4.5t1.5 -5.5q2 -10 2 -12zM141 -112h9t11 1q5 1 10.5 1.5t10.5 0.5q11 0 20 2.5t18 6.5q11 5 21.5 9.5t21.5 8.5q12 4 22.5 8.5t21.5 9.5t20.5 11
t19.5 13q1 1 3 1q13 9 21 14t15 10t15 11.5t22 17.5q36 30 64 62q10 11 19 20.5t18 20.5q9 9 17 22t16.5 26t17.5 26q8 12 13 25t8 28q0 4 0.5 7t0.5 7q1 4 0.5 7.5t-0.5 6.5q-1 20 -16 40q-4 5 -7 8.5t-7 8.5q-4 6 -13 11q-15 9 -30.5 16t-32.5 11q-21 5 -42 9t-43 7
q-4 0 -8.5 0.5t-9.5 -0.5q-14 0 -24 -6q-5 -2 -9 -5t-9 -6q-24 -14 -52 -25q-8 -3 -15 -1q-3 1 -3 5q-2 6 2 10q3 7 8 12q23 20 41 42q4 5 14 9q9 3 17.5 5.5t16.5 6.5q21 6 32 22q10 11 19 18q24 17 46 40q10 11 20.5 20t20.5 20l18 18t15 20q3 5 6.5 8.5l7.5 7.5
q8 10 17 25t12 24q2 4 2.5 7t1.5 8q1 7 -4 16l-7 7t-7 5t-7 2q-11 2 -21.5 3.5t-21.5 0.5q-24 -2 -48 -6t-47 -14q-2 -1 -5 -1.5t-5 -2.5q-14 -5 -26.5 -10.5t-25.5 -12.5q-3 -2 -6.5 -4.5t-5.5 -4.5t-4.5 -5t-1.5 -7q3 -14 -2 -28q-7 -27 -18 -55q-15 -39 -29 -78t-28 -77
q-5 -14 -7 -29q0 -13 -9 -22q-8 -11 -13 -22.5t-10 -22.5q-8 -22 -16.5 -44t-17.5 -44q-6 -15 -9 -30q-1 -2 1.5 -5.5t4.5 -2.5q14 2 28.5 3t28.5 4q9 2 18 3t18 0q3 0 5.5 -1t5.5 -1q2 -1 2.5 -4.5t-1.5 -5.5q-3 -3 -5 -4q-8 -2 -16 -2t-16 -1q-11 -1 -22 -1.5t-22 -2.5
q-22 -3 -38 -19q-2 -2 -3.5 -4t-3.5 -4q-13 -9 -18 -23q-2 -5 -5 -9t-5 -9q-10 -12 -21 -14q-21 -6 -32 -22q-4 -5 -8 -9.5t-9 -9.5q-11 -15 -20 -29q-6 -10 -9.5 -20t-6.5 -21v-7q0 -28 17 -46q9 -8 18.5 -14t22.5 -8q10 -2 20 -2.5t21 -2.5z" />
    <glyph glyph-name="C" unicode="C" horiz-adv-x="562" 
d="M41 24q0 -21 6 -42q8 -18 23 -27q2 0 3.5 -1t3.5 -2q11 -2 21 -2.5t21 2.5q17 5 33.5 10.5t32.5 14.5q26 14 50.5 29t48.5 32q14 10 28 20.5t30 17.5q2 1 3.5 2t3.5 2q14 14 29.5 23.5t30.5 20.5q5 3 9.5 6t9.5 7q12 12 25.5 22t26.5 20q15 11 29 22.5t28 24.5
q7 6 14 11.5t14 10.5q6 4 10 -1q5 -5 3 -11q0 -4 -3 -7q0 -2 -1 -3.5t-2 -3.5q-2 -4 -5 -8t-7 -8q-11 -13 -22 -25.5t-23 -24.5q-11 -12 -23.5 -23t-25.5 -22q-17 -12 -32.5 -25t-32.5 -25q-8 -5 -15.5 -11.5t-15.5 -11.5q-25 -20 -50.5 -37t-51.5 -34q-12 -8 -24 -14.5
t-24 -13.5q-23 -11 -46.5 -18.5t-49.5 -9.5q-11 -1 -21 0.5t-21 3.5q-2 1 -5 1.5t-6 2.5q-24 11 -44 24q-25 16 -31 50q-3 19 -3 39q0 6 1 11.5t2 12.5q12 46 26.5 89.5t34.5 87.5q7 15 13.5 30.5t11.5 31.5q3 6 7 10q7 8 11.5 18t8.5 20q8 19 18 35.5t20 33.5q21 32 43 62
t47 59q3 3 5.5 6t4.5 6q7 10 13.5 19.5t14.5 18.5q7 9 14.5 16.5t13.5 17.5q3 4 10 11l18 18t17 19t17.5 19t17.5 19q7 8 20 10q8 0 15.5 -0.5t15.5 0.5q15 0 30 -6q13 -6 27 -4h11q5 -2 8 -3t7 -3q6 -2 9 -8.5t1 -14.5q-3 -3 -2 -3q-2 -6 -4 -7q-14 -17 -25.5 -35
t-23.5 -37q-5 -8 -9.5 -17t-9.5 -18q-9 -20 -18 -39.5t-16 -41.5q-5 -14 -11.5 -28.5t-11.5 -30.5q-3 -11 -7 -23t-6 -23q-3 -13 -7 -25t-9 -24q-5 -9 -12 -15q-1 -1 -4 -1q-2 0 -4 5q-3 15 -2 28q2 11 3.5 23.5t4.5 23.5q3 12 5.5 24t5.5 23q9 26 17 52.5t19 52.5l2 6l2 6
q2 8 4.5 16.5t4.5 17.5q2 5 3 9.5t3 9.5q5 9 10 17.5t8 18.5q-1 0 -1 1t-0.5 1t-0.5 1q-2 2 -3 2q-2 0 -4 -1q-8 -4 -14.5 -9t-14.5 -11q-18 -14 -35.5 -30t-34.5 -32q-13 -14 -25 -28t-25 -28q-28 -32 -52.5 -66t-47.5 -70q-8 -13 -15.5 -25.5t-15.5 -24.5
q-8 -14 -15 -26.5t-14 -26.5q-14 -29 -26 -58t-23 -59q-8 -22 -14.5 -43.5t-11.5 -44.5q-3 -18 -3 -37z" />
    <glyph glyph-name="D" unicode="D" horiz-adv-x="782" 
d="M783 585q8 -19 10 -38t0 -39q-2 -15 -5 -29t-9 -27l-2 -4q-5 -11 -9.5 -22.5t-9.5 -22.5q-11 -15 -21 -31t-21 -31q-8 -10 -16 -20.5t-16 -20.5q-30 -39 -63.5 -74t-68.5 -67q-14 -13 -29 -25.5t-29 -24.5q-5 -4 -9 -7.5t-9 -6.5q-15 -9 -29.5 -19.5t-28.5 -22.5
q-2 -2 -3 -2q-17 -11 -33 -21.5t-33 -20.5q-5 -3 -10.5 -4t-10.5 -2q3 15 12 19q2 2 4.5 3t4.5 3q9 8 18.5 14.5t19.5 11.5q2 2 4 3.5t4 3.5q7 11 17 17t18 14q18 16 35.5 31.5t36.5 31.5l5 5q8 14 20 23.5t23 21.5q12 16 26 31t25 33q3 7 7.5 11.5l9.5 9.5q5 3 9.5 6.5
t7.5 9.5q5 8 11.5 15.5t9.5 17.5q4 12 10 22.5t12 21.5q18 33 35 67q4 7 6.5 13.5t5.5 12.5q7 16 8 32q0 6 1 9q5 15 4 30.5t-4 30.5q-4 18 -18 32q-9 9 -25 16q-14 5 -29 10t-30 8q-39 7 -79 9q-8 0 -16 0.5t-16 1.5q-20 1 -40 0.5t-40 -2.5q-22 -3 -44 -5.5t-45 -4.5
t-42 -9q-17 -5 -20 -22q-5 -17 -10.5 -33.5t-10.5 -33.5q-5 -19 -10.5 -37.5t-11.5 -37.5q-2 -8 -4 -14.5t-4 -13.5q-5 -13 -9 -25t-8 -25q-6 -20 -12.5 -39.5t-12.5 -39.5q-3 -9 -2 -16q0 -4 5 -6h3q22 5 38 13q9 5 18.5 9t18.5 9q10 5 20 1q6 -2 11 -4q1 0 1 -3t-1 -4
q-10 -9 -20 -17.5t-21 -15.5q-14 -9 -27 -18.5t-25 -20.5q-4 -3 -12 -7q-11 -5 -19.5 -12t-18.5 -14q-6 -3 -9 -12q-4 -7 -7 -19q-2 -8 -4.5 -16t-4.5 -16q-4 -12 -7.5 -23.5t-8.5 -22.5q-2 -6 -4 -11.5t-4 -12.5q-2 -17 -9 -31.5t-12 -30.5q-2 -5 -8 -13q-14 -14 -14 -37
q-1 -3 -4.5 -4.5t-5.5 -0.5q-32 14 -53 42q-3 4 -5.5 8t-4.5 9q-9 22 -3 45q2 8 5 15.5t6 15.5q3 13 -1 25q-1 2 -1 3.5t-1 3.5q-5 15 6 27q5 6 10.5 11t12.5 9q29 17 49 41q6 8 14 14q14 12 21 33l14 38t14 39q6 19 12.5 37t12.5 37q8 27 16.5 53.5t17.5 52.5q3 8 6 17
l6 18q2 10 -4 15q-5 6 -6 15q-1 5 -4 7t-6 0q-2 -2 -5 -2.5t-5 -2.5l-18 -14l-18 -14q-8 -7 -14.5 -13.5t-13.5 -11.5q-7 -7 -20 -11q-6 -2 -11 1q0 -1 -3 2q-8 6 -9.5 15t2.5 18q3 7 8 14q22 26 50 48q17 13 34 23.5t36 18.5q13 5 23 12q6 5 9 13q2 5 3.5 11.5t3.5 11.5
t4.5 7.5t5.5 4.5q6 2 11.5 5t12.5 5q6 3 14 0q10 -3 13 -13q2 -8 4 -20q3 -8 10 -11q5 -2 9 -1.5t8 0.5l22 2l22 2t23 1t23 1h33q11 1 23 0.5t24 -0.5q21 -1 41.5 -2.5t40.5 -6.5q11 0 21.5 -3t20.5 -5q11 -1 22 -6l10 -4t10 -3q14 -4 26.5 -9.5t24.5 -12.5q19 -11 39 -31
q9 -9 15 -22zM75 108q1 2 0.5 4t-0.5 4q0 3 -3 5.5t-5 1.5q-11 -3 -17 -13q-18 -28 -27 -59q-1 -4 -1.5 -8t0.5 -8q0 -15 5 -25q3 -6 9 -10t12 -2q2 1 6 5q1 2 2 3.5t2 3.5q5 24 9.5 49.5t7.5 48.5zM212 -41q5 0 5 -5q0 -1 -2 -3q-2 -3 -3 -3q-8 -2 -17 -4.5t-17 -4.5
t-16 -2.5t-18 0.5q-5 2 -11 1t-11 3q-4 1 -4 7l3 3q1 1 4 1h6q20 -3 38 -1t36 8q2 1 3.5 0.5t3.5 -0.5zM328 3h-1h1zM307 1q9 7 20 2q-11 -9 -22.5 -15.5t-23.5 -14.5q-9 -5 -18 -9t-19 -5q-1 0 -1.5 1t-1.5 1v4l2 4q8 8 17.5 14t20.5 7q7 1 17 6q2 1 4.5 2.5t4.5 2.5z" />
    <glyph glyph-name="E" unicode="E" horiz-adv-x="543" 
d="M355 362q15 1 28 1t26 1q3 0 5.5 -1t4.5 -2q4 0 4.5 -4t-1.5 -6q-3 -6 -10 -9q-13 -7 -25 -10q-8 -2 -17 -3t-17 -3q-45 -9 -91 -21q-9 -4 -13 -9q-4 -6 -5 -9q-16 -28 -30.5 -55.5t-28.5 -56.5q-4 -7 -7 -19q-2 -5 -5 -10t-5 -10q-9 -16 -15.5 -33t-13.5 -34
q-4 -5 -2 -13q1 -3 4 -5.5t6 -0.5q11 5 22 9t22 9q17 7 33.5 14t33.5 13q4 0 6 2q21 9 42.5 15t43.5 11q3 1 6.5 1t6.5 2q17 6 35.5 7t36.5 2q5 2 10 0q11 -1 20.5 -1.5t20.5 -2.5q8 -1 14 -3t13 -5q1 -2 2 -2.5t2 -2.5q4 -4 2 -9q-1 -6 -7 -7q-2 0 -5 -0.5t-5 0.5
q-8 1 -17 0.5t-17 -0.5q-34 0 -69 -8q-41 -9 -82 -24q-38 -11 -72.5 -27t-68.5 -35q-11 -6 -21.5 -13t-21.5 -13q-5 -4 -10 -7t-10 -7q-6 -5 -11 -10t-8 -13q-4 -7 -7 -13.5t-7 -12.5q-2 -3 -6 -3q-4 -2 -7 0q-4 0 -8 -0.5t-9 -2.5l-16 -6t-16 -7q-9 -3 -19 2q-16 6 -16 23
q-2 6 3 9q8 7 15 13.5t15 13.5q12 10 22.5 20.5l21.5 21.5q5 5 7.5 9.5t7.5 9.5q6 6 8 17q2 10 5.5 19t7.5 18q5 11 9.5 21.5t8.5 20.5q6 14 10.5 27t11.5 25q2 4 4 7.5t3 7.5q4 10 7.5 19t8.5 18q8 12 9 25q0 6 2 16q1 4 -2.5 6t-6.5 1q-5 -2 -9 -3l-8 -2q-8 -3 -14 -3
q-4 -2 -8 -1.5t-8 1.5q-15 2 -19 13q-3 2 -2 6q2 12 12 19q7 4 13.5 7.5t13.5 6.5l22 10t23 7q5 1 11 3l12 4q14 6 20 17q4 6 7 11.5t7 11.5q10 18 19 35.5t19 34.5q2 2 2 3q8 13 15 26t15 26q8 14 15.5 26t15.5 26q4 7 7.5 14.5t4.5 15.5q2 4 -3 4q-7 2 -12.5 0.5
t-11.5 -3.5q-14 -5 -27.5 -10.5t-25.5 -13.5q-13 -7 -25.5 -13.5t-25.5 -14.5q-32 -18 -59.5 -41t-49.5 -53q0 -2 -1.5 -2.5t-2.5 -2.5q-4 -4 -9 -4q-17 -2 -24 10q-4 5 -7 11.5t-6 11.5q-5 13 2 22l4 6t4 5q16 17 32.5 32t36.5 27q12 7 24 13t24 13q5 2 9.5 4t9.5 3
q9 2 17 5t15 7q10 5 19.5 8.5t19.5 7.5q22 8 43 15.5t44 15.5q2 1 3 1t3 1q9 3 17 11q5 7 10.5 13.5t10.5 12.5q4 6 12 6q25 4 45 -9q9 -5 17 -3q12 2 23.5 5t23.5 5q19 5 37.5 9t36.5 7q10 2 19.5 4t18.5 4q22 5 43.5 9t43.5 9q26 6 52.5 11.5t52.5 10.5t52.5 9t52.5 9
q14 3 25 -8q5 -4 4 -10.5t-6 -8.5q-5 -1 -8.5 -2.5t-7.5 -2.5q-22 -5 -44 -9.5t-44 -9.5q-18 -4 -35.5 -7.5t-35.5 -8.5q-15 -3 -30 -6.5t-30 -5.5q-12 -2 -24 -4.5t-23 -5.5q-24 -8 -48.5 -13t-49.5 -10l-48 -10t-49 -12q-9 -2 -18 -5l-18 -6q-5 -2 -8.5 -5t-6.5 -7
q-6 -8 -8 -12q-11 -16 -20.5 -31.5t-20.5 -32.5q-4 -6 -5 -9q-12 -22 -24.5 -43.5t-25.5 -42.5q-9 -16 -17.5 -32t-15.5 -33q-3 -5 -3 -10q-2 -2 0.5 -5.5t5.5 -3.5q8 -2 13 -2q8 0 16 1t16 1q4 0 8 0.5t6 0.5z" />
    <glyph glyph-name="F" unicode="F" horiz-adv-x="461" 
d="M31 -13q1 9 1 17.5t1 17.5q0 2 0.5 4t0.5 4q4 16 6.5 31.5t7.5 30.5q5 22 11 42t14 41q5 17 11 33t11 33q1 2 3 8q1 4 -2.5 8t-8.5 3t-9.5 -1.5t-9.5 -1.5q-8 -2 -15 0q-13 2 -18 11q-1 2 -2 3.5t-2 3.5q-2 6 3 11q12 13 29 22q14 8 27.5 15.5t27.5 15.5q3 2 6 3.5t5 3.5
q9 7 11 13q0 2 0.5 2t0.5 1q8 21 18.5 41t21.5 40q6 11 11.5 22.5t10.5 22.5q2 4 1 8q0 5 0.5 9t2.5 8q3 8 5.5 15t6.5 15q3 6 6.5 12t7.5 14q5 9 9 18l8 18q1 3 -1 5q-1 2 -6 2q-1 0 -1 -0.5t-2 -0.5q-7 -3 -14 -5.5t-14 -6.5q-11 -6 -21.5 -12t-21.5 -12q-5 -1 -10 -6
q-38 -24 -72 -47q-11 -7 -21.5 -14t-21.5 -14q-6 -5 -16 -8q-8 -5 -15.5 -3.5t-14.5 6.5q-2 0 -2 2q-13 18 -13 37q0 2 1 3t2 3l2 1q15 3 28 11q8 5 15 9.5t13 9.5q8 5 14.5 9.5t14.5 8.5q4 2 7.5 5t8.5 5q5 3 9 5.5t9 5.5q3 2 5.5 3t5.5 3q30 18 62.5 32.5t64.5 28.5
q5 3 12 4q12 1 24 6q14 5 27.5 9.5t27.5 10.5q4 2 12 4q14 3 26.5 8t26.5 9q11 4 21 7.5t21 5.5q10 3 20.5 6t21.5 6q12 3 24 5.5t24 4.5q24 6 50 9q3 1 6 1t6 1q14 4 28 4.5t28 0.5q16 2 31.5 -1t29.5 -7q10 -2 18 -6t16 -9q13 -9 15 -25q0 -3 -1 -6q-2 -11 -9 -20
q-5 -8 -11.5 -15.5t-12.5 -14.5q-8 -9 -19 -15q-4 -2 -7 -4t-7 -4q-1 -1 -2.5 -1t-2.5 -1q-2 0 -5 0.5t-4 2.5v5q10 24 21 45q2 4 3 7t3 7q3 9 2 17q0 4 -5 7q-3 2 -11 4h-14t-15 -1q-3 0 -6.5 -0.5t-8.5 -1.5q-14 0 -27.5 -2t-27.5 -5q-18 -4 -31.5 -6.5t-25.5 -5.5
t-25.5 -6.5t-32.5 -8.5q-22 -6 -42.5 -12.5t-40.5 -14.5q-5 -2 -10.5 -3.5t-10.5 -3.5q-14 -4 -27.5 -10t-27.5 -11q-1 -1 -2.5 -1.5t-2.5 -1.5q-7 -4 -4 -10q2 -3 3.5 -6l3.5 -7q3 -5 -1 -14q-1 -1 -1 -2t-1 -3q-11 -17 -20.5 -35t-18.5 -37q-9 -18 -18.5 -36t-19.5 -36
q-8 -15 -15.5 -30t-15.5 -30q-4 -7 -6 -16q-1 -2 0.5 -4t3.5 -3q16 0 28 4q14 5 28.5 8t28.5 6q14 2 29 4.5t30 4.5l18 2t19 0q5 0 8.5 0.5t7.5 0.5t7.5 0.5t8.5 0.5q17 -2 35.5 -2t36.5 -2h9t9 -1q12 -3 15 -14q1 -4 -2 -8t-7 -5h-13q-12 -1 -24 -0.5t-23 -0.5
q-12 0 -24 -0.5t-23 -3.5q-3 -1 -9 -1q-22 -2 -43.5 -5.5t-42.5 -8.5q-36 -7 -71 -18t-68 -28q-1 0 -1 -0.5t-1 -0.5q-6 -3 -9 -8q-10 -23 -19.5 -46t-17.5 -46q-12 -34 -22.5 -68.5t-20.5 -68.5q-2 -9 -4 -17.5t-4 -17.5q-1 -3 -1 -6.5t-1 -6.5q-6 -23 -6.5 -45t0.5 -45
q0 -7 1 -14t-1 -14q0 -1 -3 -4q-4 -1 -6 0q-1 0 -3 2q-4 4 -7.5 8.5t-8.5 9.5q-4 6 -4 10q-3 14 -3 28.5v28.5z" />
    <glyph glyph-name="G" unicode="G" horiz-adv-x="565" 
d="M81 -64h-4.5t-4.5 1q-8 2 -16 2.5t-16 2.5q-16 5 -25 14q-8 8 -14 16.5t-12 17.5q-8 15 -7 28q0 16 3 33q0 6 1.5 12t1.5 12q2 12 5 23.5t7 22.5q9 28 22 52q5 8 7.5 17t6.5 17q3 8 6 15t10 13q6 6 8 16q3 12 11 18q7 8 10 15q2 8 6.5 16t9.5 16q2 4 4 7.5t4 8.5
q2 8 5 14t8 12q4 4 7 8t7 8q13 11 17 27q2 8 6 15t9 13q9 11 16 22t13 24q5 8 10.5 16.5t11.5 16.5q22 29 46.5 55t49.5 52q12 14 25 26l26 24q11 10 22 18.5t24 16.5q6 5 12 8.5t11 8.5q10 8 20 8q5 1 9 2l8 2q8 0 11 -1q6 -2 12.5 -4t11.5 -5q9 -3 12 -13q2 -4 0.5 -8.5
t-5.5 -6.5q-1 -1 -3 -1q-20 -7 -37 -18t-34 -23q-23 -18 -45 -37t-42 -39q-29 -27 -55.5 -56.5t-52.5 -59.5q-20 -23 -37.5 -47t-35.5 -48q-3 -5 -7 -10t-7 -10q-14 -23 -27 -45t-26 -45q-11 -22 -20 -43l-20 -44t-18 -45q-6 -14 -9 -31q-1 -8 -2.5 -14.5t-3.5 -14.5
q-3 -10 -4 -20.5t-2 -21.5v-11q0 -13 12 -25q12 -11 30 -8q20 3 37.5 11.5t33.5 21.5q5 4 9.5 8t9.5 8q18 16 40 31q5 4 10.5 7t10.5 6q9 11 19 20t18 20q6 6 11 14q8 9 17 16t20 13q6 0 9.5 4t6.5 9q4 5 9.5 10t11.5 10q5 5 10.5 9t11.5 9q2 2 4.5 5t3.5 7q4 10 9.5 17.5
t12.5 14.5q11 8 17 19l12 22l8 16t8 17q6 12 12 25l12 26q2 4 3 7.5t2 6.5q2 4 -3 6h-3q-5 0 -9 -2l-8 -4q-7 -5 -13.5 -9.5t-12.5 -10.5q-11 -10 -22.5 -18t-22.5 -17q-5 -3 -9.5 -5.5t-9.5 -5.5q-4 -2 -8 -2.5t-9 -0.5q-15 2 -19 14q-2 3 -2.5 6.5t-2.5 7.5q-1 2 0 5t2 5
q2 1 3 2.5t3 2.5q20 18 41.5 35t44.5 31q18 11 36.5 22t38.5 20q12 5 22 17q2 3 5 6l6 6t8 3q9 2 16.5 4.5t15.5 3.5q8 2 16 3.5t16 3.5q5 2 10 0q8 -1 12 -8q3 -6 -1 -13q-7 -11 -15 -16q-21 -14 -32 -38q-9 -17 -18.5 -33.5t-17.5 -33.5q-10 -16 -11 -33q-1 -5 -2 -8
t-2 -7q-2 -3 -3 -6t-3 -7q-3 -5 -6 -9t-7 -8q-7 -8 -12.5 -17t-10.5 -19q-9 -16 -16 -32q-5 -10 -10 -19.5t-10 -19.5q-7 -13 -13 -25.5t-11 -26.5q-4 -11 -8 -20.5t-9 -19.5q-45 -95 -82 -192q-8 -20 -14.5 -39t-14.5 -38q-3 -7 -7 -9q-5 -2 -6 1q-5 2 -6.5 6.5t-3.5 7.5
q-6 8 -3 18q2 11 3 21t3 21q2 12 5 23.5t6 22.5q2 4 3 8t3 9q8 16 14.5 33t11.5 34q2 5 3 8.5t3 8.5q4 7 7 14t6 15q5 14 10.5 27t13.5 26q6 9 9.5 19t6.5 20q1 6 -2 7t-6 -2q-3 -2 -7 -8q-20 -22 -38 -44q-18 -25 -38.5 -47t-41.5 -44q-14 -14 -28 -26.5t-28 -25.5
q-12 -11 -30 -19q-5 -2 -9 -3.5t-8 -3.5q-9 -3 -19.5 -5t-21.5 -2z" />
    <glyph glyph-name="H" unicode="H" horiz-adv-x="612" 
d="M647 719q1 -14 -2 -28.5t-7 -29.5q-5 -21 -9.5 -42.5t-10.5 -42.5q-3 -9 -5.5 -18.5t-4.5 -19.5q-9 -35 -20 -69t-22 -69q-4 -17 -12 -38l-6 -18t-7 -19q0 -6 -3 -10q-11 -26 -19 -52.5t-17 -53.5q-5 -17 -11 -34l-12 -34q-7 -22 -14.5 -43t-15.5 -42q-5 -14 -10 -28.5
t-9 -29.5q-6 -26 -15 -48q-4 -8 -8 -16.5t-8 -16.5q-1 -2 -5 -4q-2 0 -5 2t-3 5q-2 4 -2 14v3q2 9 5.5 17.5t1.5 18.5q2 8 3 15.5t3 15.5q2 11 5 23t5 23q0 6 2 12.5t4 11.5q8 17 12.5 34t9.5 35q0 6 3 14q2 9 4.5 17.5t6.5 16.5q5 11 9 21.5t9 21.5q1 5 2 9t2 9q2 3 2 7
t2 6q5 10 8 20.5t7 21.5q4 12 8 25t10 25q3 8 5.5 15.5t4.5 15.5q2 9 1 14q-1 3 -4 6t-6 2q-2 -1 -5 -1t-5 -1q-10 -3 -19 -6t-19 -8q-29 -13 -58 -25t-58 -23q-2 -1 -5 -1.5t-5 -2.5q-17 -9 -34.5 -15.5t-34.5 -14.5q-17 -7 -33.5 -14.5t-32.5 -16.5q-3 -2 -6 -3.5t-5 -3.5
q-6 -6 -8 -9q-2 -5 -4.5 -9.5t-4.5 -9.5q-9 -24 -17.5 -47.5t-16.5 -47.5q-8 -18 -14 -36.5t-11 -38.5q-1 -5 -2.5 -9t-3.5 -8q-5 -8 -14 -11q-6 -2 -12 2t-7 10q-3 4 -3 10q1 13 2.5 25.5t5.5 24.5q6 17 10.5 34t11.5 34q2 7 4 12.5t2 12.5q1 4 -2 7q-2 0 -3.5 1t-2.5 0
q-3 -1 -5.5 -1.5t-5.5 -2.5q-9 -5 -18 -10.5t-19 -10.5q-13 -8 -26 -11q-8 -3 -18 -1q-8 1 -12.5 3.5t-6.5 10.5q0 2 -1 4.5t-2 5.5q-1 2 0.5 5.5t3.5 4.5q6 4 9 5q11 6 20.5 12t19.5 14q5 4 11.5 7.5t12.5 7.5q17 9 33 18t33 19l9 6q7 5 9 11q4 8 6.5 15t4.5 15
q5 17 10.5 34.5t11.5 35.5q3 9 5.5 18.5t4.5 19.5q5 23 10 45.5t13 44.5q2 4 2.5 7.5t1.5 6.5q1 8 -2 18q-5 9 6 13q2 1 5 2t5 1q9 5 20 -2l3 -2q7 -3 10 -11q5 -11 3 -24q-5 -28 -12 -53l-6 -24t-8 -24q-12 -44 -26 -90q-2 -6 -2 -11q2 -7 8 -7q3 1 5.5 1t5.5 1
q18 5 35.5 12t34.5 15q57 24 114 45q20 8 39 15t38 15q12 5 23 10t23 10q2 0 3 1.5t3 3.5q4 8 6 13q2 7 4 13.5t4 13.5q3 12 4.5 25t6.5 24q1 2 1 8q0 12 3 24t6 25q2 10 3.5 19.5t3.5 19.5q3 11 4.5 21.5t3.5 21.5q1 22 9 45q2 5 8.5 9t12.5 3q12 -3 17 -11t6 -17v-13v0z
" />
    <glyph glyph-name="I" unicode="I" horiz-adv-x="400" 
d="M411 713q2 0 5.5 -0.5t7.5 -0.5q2 -1 3.5 -1.5t3.5 -1.5q4 -2 7 -6.5t3 -9.5t-2.5 -9.5t-7.5 -6.5q-3 -1 -11 -3q-13 -5 -26 -8.5t-26 -8.5q-6 -2 -12 -4.5t-12 -5.5q-13 -4 -16 -21q-2 -9 -3.5 -18.5t-3.5 -18.5q-2 -24 -6.5 -46t-9.5 -45q-7 -30 -14 -59.5t-16 -58.5
q-5 -14 -9 -29t-7 -31q-5 -14 -9.5 -29t-9.5 -30q-10 -30 -20 -59t-18 -60q-2 -6 -3 -8q-8 -17 -12.5 -35t-9.5 -35t-5 -30q0 -3 3 -7t7 -3q12 1 24 6l26 10l26 10q20 9 40 14.5t40 12.5q14 4 26 1q6 0 8 -7q1 -6 -2 -11l-6 -6q-2 -2 -6 -4q-37 -18 -74 -37q-26 -13 -52 -24
t-52 -25q-6 -4 -12 -7t-11 -7q-19 -14 -38.5 -27.5t-37.5 -30.5q-10 -9 -20.5 -17t-21.5 -16t-23 -11q-5 -3 -14 1q-12 5 -15 17q-4 13 1 19q12 17 23 28q25 24 57 46l24 18q5 4 8.5 8t8.5 8q8 8 11 17q5 15 9 30t9 29q2 4 4 8.5t3 9.5q1 4 1 8t2 8q1 4 3.5 10.5l5 13
t4.5 12.5t3 10q2 8 3 17t4 17q6 20 13.5 44.5t14.5 45.5q12 45 22 83.5t23 83.5q2 7 5.5 19t6.5 25t5.5 25.5t4.5 20.5q3 13 3 19t-0.5 11t-0.5 11t2 20q0 8 -1 12q0 3 -2.5 6t-4.5 2h-7q-14 -5 -26 -11.5t-24 -13.5q-17 -11 -35 -6q-4 1 -10 5q-6 5 -7.5 15t1.5 16
q2 2 2.5 3.5t2.5 2.5q6 7 13 12t15 10q10 6 20.5 12t21.5 11q14 5 27.5 11t27.5 11q3 2 6.5 2.5t7.5 2.5q21 6 42.5 9t42.5 8q7 1 13.5 1t14.5 1z" />
    <glyph glyph-name="J" unicode="J" horiz-adv-x="623" 
d="M617 539v-13t1 -10q2 -8 1 -16l-2 -16q-1 -11 -3 -22t-10 -20q-2 -4 -4 -10q-10 -23 -22 -45.5t-23 -45.5q-9 -18 -20 -34.5t-22 -33.5q-9 -14 -18 -27t-19 -27q-3 -5 -6 -9t-7 -8q-19 -21 -36 -43.5t-36 -43.5q-8 -8 -15 -15.5t-15 -15.5q-14 -12 -27.5 -24t-24.5 -26
q-7 -7 -10 -11q-29 -25 -58 -49.5t-62 -44.5q-10 -6 -20 -12.5t-21 -11.5q-11 -7 -26 -12q-12 -5 -24.5 -6.5t-25.5 -1.5q-19 2 -31 11q-2 2 -4 3.5t-4 3.5q-8 7 -10 19q-3 23 3 47q6 22 17 39q8 12 15 24t15 23q1 1 1 1.5t1 1.5q3 5 7 7.5t7 7.5t5.5 10t5.5 10q2 4 5.5 7
t5.5 7q8 8 14.5 16.5t14.5 16.5q3 7 9 11q13 13 25.5 26t26.5 25q6 7 12 13l13 13q10 9 19 17.5t18 16.5q14 12 29 23t29 22q5 4 11 8t13 7q1 1 1.5 1t1.5 1q8 5 15.5 10t15.5 10t15.5 9.5t15.5 9.5q6 5 16 8q2 2 5 2.5t5 2.5q24 17 50.5 31.5t52.5 28.5q2 0 2.5 0.5
t1.5 0.5q12 8 16 20q7 14 10 31l4 30t2 31q2 15 -4 28q-3 6 -4 12t-3 13q-6 21 -21 37q-4 5 -7 9t-7 8q-15 18 -37 21q-14 3 -28.5 4.5t-28.5 -0.5q-29 -2 -54 -6q-13 -3 -20 -5t-13 -3.5t-12.5 -4.5t-16.5 -7q-15 -6 -29 -12.5t-28 -15.5q-36 -23 -71.5 -48.5t-67.5 -54.5
l-24 -22t-23 -22q-5 -4 -9 -7.5t-8 -6.5q-2 -2 -5 -3t-5 -3q-6 -2 -13.5 -1t-12.5 9q-2 4 -4 6q-1 4 -1 11q2 9 7 16q8 12 16.5 22t19.5 20q5 5 10.5 9t10.5 9q16 13 32 25t32 23q14 8 26.5 17.5t25.5 18.5q12 9 24 14q17 5 26 13q8 5 16 8q10 5 20 8.5t21 7.5
q23 8 47.5 11.5t48.5 4.5q11 0 20.5 -0.5t20.5 -0.5q23 0 46 -5.5t45 -14.5q31 -13 53 -37q12 -13 21.5 -27.5t14.5 -31.5t5 -32v-24zM522 389q0 3 1 4q0 3 -3 6.5t-7 2.5q-5 0 -7 -1q-11 -5 -21.5 -10t-21.5 -10q-11 -6 -21.5 -11.5t-21.5 -13.5q-4 -3 -7.5 -6t-7.5 -5
q-15 -8 -28.5 -17t-27.5 -18q-31 -20 -60.5 -42.5t-55.5 -48.5q-2 -2 -4.5 -4t-4.5 -4q-11 -8 -20.5 -17.5t-18.5 -19.5q-5 -6 -10.5 -12.5t-11.5 -12.5q-11 -11 -18 -22q-6 -11 -12 -20.5t-14 -18.5q-14 -17 -25 -36t-20 -39q-6 -14 -11 -28.5t-8 -30.5q0 -4 -0.5 -7
t-0.5 -7q0 -6 4.5 -11.5t10.5 -7.5q11 -4 20 -1l28 10t26 12q17 8 33 16.5t30 19.5q11 8 22 16.5t21 17.5l4.5 4.5t5.5 4.5q9 5 16.5 12t14.5 15q33 37 69 75q14 16 27.5 32.5t27.5 33.5q6 8 11 15.5t7 16.5q1 10 8 20l18 27q13 23 26.5 44t25.5 44q4 8 7 16t5 17z" />
    <glyph glyph-name="K" unicode="K" horiz-adv-x="609" 
d="M444 749q3 -1 8.5 -1.5t10.5 -2.5q6 -1 14 -7q17 -9 14 -29q-1 -10 -2.5 -19.5t-3.5 -18.5q0 -3 -1 -6l-2 -6q-2 -3 -3.5 -6.5t-3.5 -7.5q-9 -18 -18 -36.5t-18 -37.5q-2 -4 -6 -14q-12 -17 -21.5 -36t-19.5 -38q-6 -11 -12 -22.5t-11 -22.5q-2 -5 -5 -10t-5 -11
q-4 -9 -7.5 -18t-6.5 -19q-3 -8 -7.5 -15t-6.5 -16v-4q2 -4 7 -2l18 12t17 14q11 11 24.5 20.5t27.5 19.5q9 7 18 13.5t19 13.5q2 2 4.5 3.5t4.5 3.5q12 12 25.5 21.5t26.5 20.5q3 2 6.5 4t5.5 4q21 18 48 34q16 10 27 22q5 5 10.5 10t13.5 8q11 4 21 10t20 14q20 18 41 28
q6 2 11.5 6.5t11.5 8.5q5 5 13 3.5t15 -6.5q2 -2 1.5 -5.5t-2.5 -5.5q-19 -11 -36 -23t-34 -26q-28 -25 -64 -43q-8 -3 -14 -7t-13 -8q-26 -15 -48 -33q-5 -5 -10 -9t-11 -8q-31 -21 -61 -48q-16 -16 -32 -31t-32 -31q-2 -3 -4.5 -6t-5.5 -6q-8 -10 -1 -22q2 -2 2.5 -3.5
t2.5 -3.5q13 -17 18 -42q5 -15 8.5 -30t7.5 -30q8 -31 19.5 -61t28.5 -58q11 -23 25.5 -44.5t31.5 -41.5q17 -23 35 -45t37 -42q8 -10 13 -24q2 -5 -3 -7q-3 -3 -7 -1q-11 5 -25 17q-8 6 -15.5 12t-15.5 13q-9 10 -18.5 19t-18.5 20q-13 15 -24.5 29.5t-22.5 31.5
q-3 5 -6 8.5t-6 7.5q-16 20 -27.5 42t-24.5 44q-6 11 -10.5 23t-8.5 24q-8 26 -16.5 51.5t-16.5 51.5q0 2 -0.5 2.5t-0.5 1.5q-1 2 -5 3.5t-6 0.5t-3.5 -1.5t-3.5 -1.5q-5 -4 -9 -7.5t-8 -8.5q-21 -25 -42.5 -50t-42.5 -50q-23 -29 -38 -59q-7 -12 -12 -24.5t-15 -22.5
q-4 -8 -8 -15.5t-8 -15.5q-8 -20 -18 -40.5t-21 -40.5q-5 -10 -10 -20.5t-9 -21.5q-2 -5 -4.5 -9t-4.5 -8q-4 -5 -7 -2q-4 2 -2 7l3 15q4 13 7.5 25t8.5 23q3 8 6 15t5 15q4 10 7 19.5t8 19.5q3 10 5.5 19t4.5 18q1 2 -1 8q-2 5 -5 10q-6 14 2 26q14 19 27 38t27 39
q9 14 14 27q5 11 11 21t11 20q9 16 18.5 32.5t14.5 33.5q2 6 5 12t8 12q7 11 12.5 21.5t10.5 22.5t10.5 23t12.5 21q2 3 3.5 7t3.5 7q5 11 9.5 22t9.5 22t9 23t9 24q5 11 10.5 22t10.5 23q14 34 22 75v8q0 3 -3.5 6t-6.5 3q-2 -1 -4 -1t-4 -1q-14 -6 -26 -16
q-21 -15 -40.5 -30.5t-39.5 -31.5q-11 -9 -20.5 -18t-18.5 -20q-9 -10 -18.5 -19.5l-19.5 -19.5q-10 -12 -20 -23t-21 -23q-17 -21 -34 -40.5t-31 -42.5q-13 -14 -24 -30l-22 -32q-2 -3 -8 -9q-8 -6 -14 -6q-16 -1 -29 8q-5 3 -7 9q-3 5 -1 11q1 4 4 7q4 5 7 9.5t7 9.5
q17 20 33.5 39.5t33.5 39.5q4 5 8 9.5t7 9.5q12 17 26 31.5t27 29.5q2 2 4 4.5t5 4.5q25 21 46 46q5 5 10 9.5t10 9.5q22 18 43.5 36t44.5 35l6 4l6 4q23 19 47.5 34.5t49.5 29.5q11 7 26 7z" />
    <glyph glyph-name="L" unicode="L" horiz-adv-x="413" 
d="M314 433q-14 -31 -17 -50t2 -14q6 4 18.5 21t27 38t29 42.5t23.5 35.5q10 12 23 32.5t18 34.5q4 15 12 32t16.5 35.5t16 37t10.5 35.5q-9 3 -24 -8t-29 -26.5t-26 -30t-15 -19.5q-10 -17 -23.5 -40.5t-25.5 -40.5q-2 -4 -13 -6q4 9 6 15.5t3 14.5q-5 -1 -8 -3.5t-5 -3.5
v6.5t2 5.5q17 29 32.5 57.5t33.5 54.5q11 9 18 20t13 23q3 3 3 9.5t2 12.5q14 7 29.5 9.5t29.5 2.5q43 -4 43 -38q-2 -11 -5 -21.5t-4 -23.5q-16 -63 -52 -126q-26 -48 -54.5 -95.5t-63.5 -91.5q-9 -12 -15.5 -21t-12.5 -17t-13.5 -16.5t-18.5 -18.5q-11 -11 -20 -21.5
t-14 -27.5q-11 -47 -25 -94.5t-28 -94.5q0 -7 5 -7q5 -5 10.5 -4t11.5 4q39 8 79.5 14.5t80.5 6.5q54 2 102.5 -5t96.5 -20q28 -8 54.5 -18.5t52.5 -25.5q22 -11 29.5 -28t-9.5 -32q-4 2 -8.5 5.5t-7.5 6.5q-31 26 -66.5 39.5t-74.5 24.5q-51 14 -101 16.5t-101 -2.5
q-73 -8 -139.5 -31.5t-122.5 -61.5q-21 -14 -48 -24q-5 -3 -11.5 -1t-14.5 4q-5 3 -7 9.5t3 11.5q0 2 0.5 4.5t3.5 6.5q20 12 39.5 25t38.5 23q12 8 25 13.5t25 10.5q10 18 9 36.5t5 36.5q8 18 12 36.5t9 35.5q3 15 11 33t8 37q-11 -2 -20 -7t-20 -8q-14 -5 -28.5 -9.5
t-30.5 -9.5q-23 -6 -43.5 -5.5t-43.5 8.5q-5 2 -11 4.5t-11 5.5q5 2 9 4.5t10 5.5q5 0 11 2t11 2q51 8 87 20t72 38q4 2 6.5 2.5t4.5 3.5q20 14 33 36.5t21 40.5q1 7 5.5 17t10.5 19.5t13 16.5t15 7z" />
    <glyph glyph-name="M" unicode="M" horiz-adv-x="624" 
d="M684 -65q-22 -21 -41.5 -41t-40 -32.5t-44.5 -14.5t-55 14q-18 8 -31.5 19.5t-18.5 32.5q-7 12 -7 22q-8 64 -7.5 128.5t14.5 133.5q8 42 17 82.5t20 80.5q6 23 13.5 46t12.5 43q1 6 6 18t10 26t9 28t4 26q-3 -4 -9 -12.5t-12.5 -17.5t-11.5 -16.5t-6 -10.5
q-45 -54 -88 -107.5t-85 -106.5l-16 -20t-17 -17q-11 -9 -25 -11.5t-27 1.5t-24 13.5t-16 24.5q-3 5 -3.5 10t-0.5 10q0 15 2 33t4 35q0 9 0.5 20.5t1.5 23.5t2 23t3 19q1 4 -2 1t-7.5 -9l-9 -12t-6.5 -8q-13 -26 -27.5 -48t-28.5 -46q-29 -44 -55.5 -77t-51.5 -77
q-5 -8 -12 -18.5t-14.5 -21t-16 -19.5t-16.5 -13q-9 -4 -15 -6.5t-10.5 -2t-9.5 4.5t-13 12q0 8 5 9.5t7 3.5q11 15 22 29.5t22 33.5q34 54 66 108.5t66 108.5q42 71 84 138t84 138q3 7 6 10t5 8q17 2 24.5 -11t14.5 -23q-1 -14 -4 -24.5t-8 -21.5q-12 -15 -18.5 -35
t-11.5 -40q-7 -29 -16 -62.5t-16 -68t-9.5 -68t3.5 -62.5q7 -1 21 11t29 28.5t28 34t20 27.5l7.5 7.5t7.5 9.5q24 21 44.5 47.5t40 55t38.5 56t40 49.5q30 38 53 81q11 14 24 15t27 4q15 0 22 -5.5t12 -17.5q-11 -32 -24 -64.5t-24 -64.5q-20 -49 -38 -96t-33.5 -94t-28 -96
t-20.5 -103q-3 -18 -6 -39.5t-5 -44.5t-3 -45t1 -41q0 -23 5 -42.5t11 -39.5q8 -12 19.5 -19.5t25.5 -5.5q24 8 48.5 26t47.5 34q21 17 40 34.5t39 35.5l45 42q5 -8 -3.5 -23t-22.5 -32.5t-29 -34.5t-23 -27z" />
    <glyph glyph-name="N" unicode="N" horiz-adv-x="611" 
d="M219 498q-3 -3 -7.5 -11.5t-9 -17.5t-8 -17.5t-4.5 -12.5q-36 -75 -74 -143.5t-79 -145.5q-19 -42 -43.5 -84t-47.5 -84q-5 -7 -11 -14.5t-16 -13.5q-13 -7 -20 -11t-18 4q10 22 21 40q12 17 22.5 35.5t20.5 40.5q13 26 27 53t28 53q7 13 14 26.5t12 25.5
q17 35 33.5 68.5t34.5 70.5q20 38 39 77.5t35 81.5q11 23 19 47t14 50q3 13 5 26.5t2 27.5h19q9 -5 19 -8t19 -8q3 -14 3 -26.5t8 -26.5v-13q0 -29 -2.5 -59t-4.5 -59q-6 -60 -13.5 -119.5t-2.5 -122.5q3 -21 6.5 -43.5t9.5 -42.5q2 -11 7.5 -21t10.5 -20q4 -9 14 -14
t21.5 -7.5t23 -2.5t19.5 3q12 8 25 14t24 13t19.5 16.5t12.5 24.5q1 6 5 15.5l8 19l8 19t6 15.5q24 71 46 131t46 116t52 111t64 117q3 2 4 6.5t4 6.5q7 10 11.5 17t9.5 9.5t11 -0.5t16 -12q0 -11 -5 -19l-10 -16q-42 -57 -71.5 -113t-53 -113t-44.5 -115.5t-45 -121.5
q-17 -48 -30 -90q-6 -23 -15 -46t-23 -44q-8 -5 -11.5 -6.5t-13.5 -6.5v37q-12 -2 -22.5 -4.5t-19.5 -5.5q-36 -13 -60 -3t-52 33q-21 18 -31 42.5t-14.5 51.5t-4.5 54.5v50.5q6 45 7.5 100.5t5.5 100.5v9q0 2 -1 2t-2 1q-1 0 -2 1z" />
    <glyph glyph-name="O" unicode="O" horiz-adv-x="525" 
d="M363 667q16 11 30 21t25 21q12 13 37 13h6q69 6 91 -47q8 -21 11.5 -41.5t-0.5 -41.5q-6 -40 -18 -76.5t-27 -69.5q-28 -71 -62 -135t-79 -127q-23 -32 -43.5 -62.5t-46.5 -62.5q-38 -52 -98 -96q-19 -14 -41 -20.5t-48 -10.5h-15q-39 9 -63.5 30t-29.5 56q0 17 0.5 34
t3.5 35q2 29 9.5 57t15.5 61q17 51 38.5 102t47.5 100q29 59 65.5 112t84.5 101q15 10 27 22t29 21q8 9 21.5 11t28.5 -7zM275 574q-10 -9 -21 -23.5t-22 -30.5t-21 -31.5t-17 -25.5q-23 -34 -40.5 -65.5t-34.5 -68.5q-29 -63 -50 -128.5t-34 -131.5q0 -14 0.5 -26.5
t3.5 -26.5q0 -8 5 -17.5t11 -19.5q3 -6 9 -10t14 -6.5t16.5 -2.5t15.5 3q9 3 17.5 6t16.5 9q26 21 50.5 40t44.5 42q42 42 74.5 90.5t59.5 95.5q20 34 35.5 65.5t35.5 66.5q25 46 40 95t27 100q5 21 5.5 42t-1.5 42q-3 20 -22 29t-42 -2q-20 -6 -37 -23.5t-30 -31.5
q-38 -44 -71 -93t-56 -103q-6 -14 -10.5 -29t-7.5 -30q-2 -11 -3.5 -22.5t0 -22t8 -19t20.5 -13.5q8 -3 9.5 -4.5t-4.5 -9.5q-26 -2 -43 7.5t-29 27.5q-17 24 -10.5 59.5t23 73t36 70.5t29.5 53z" />
    <glyph glyph-name="P" unicode="P" horiz-adv-x="767" 
d="M818 753q57 -18 75 -52.5t1 -74.5q-11 -32 -35 -70t-58 -77t-76.5 -76.5t-90.5 -69.5q-43 -29 -87.5 -49.5t-90.5 -37t-93.5 -30.5t-95.5 -29q-9 -3 -17.5 -4t-14.5 -6q-2 -8 -6.5 -16t-6.5 -16q-7 -17 -9.5 -25t-3.5 -15t-3 -15.5t-7 -25.5q-6 -20 -8.5 -39t-4.5 -40
q-3 -7 1 -11.5t0 -14.5v-7q-8 0 -13.5 1t-7.5 6q-10 5 -13 15.5t-6 17.5q0 3 1.5 3.5t-1.5 0.5v8v6q-3 18 0.5 34.5t5.5 34.5q2 22 8 40t17 44q-9 2 -15 2.5t-13 0.5q-11 0 -22 2t-22 2q-23 0 -40 8.5t-35 21.5q-15 10 -15 31q18 2 27 -1t18 -12q6 -8 15 -14.5t23 -6.5
q16 0 35 0.5t36 2.5q8 0 14 6t12 9q6 8 10.5 13.5t7.5 13.5q21 43 44 87t47.5 86.5t50 81t49.5 70.5q5 6 9.5 10.5t1.5 13.5q0 5 4.5 9.5t9.5 7.5q28 4 57 -10q5 -11 -3 -22l-18 -20t-20 -20q-22 -31 -48.5 -70.5t-53 -82t-51 -85t-41.5 -78.5q16 0 19 2q88 32 170.5 64
t163.5 77q27 16 62.5 44.5t70.5 63t63.5 72.5t40 73.5t2 65t-51.5 47.5q-17 7 -33.5 9t-34.5 2q-49 2 -96.5 -2t-95.5 -16q-54 -12 -106 -29t-100 -42q-57 -29 -106 -66t-85 -87q-14 -18 -22.5 -39t-10.5 -44q0 -18 7 -31t30 -21q3 -2 7.5 -5.5t6.5 -5.5q7 -2 9 -7t7 -10
q-14 -5 -25.5 -3.5t-19.5 3.5q-11 5 -22 9t-19 11q-14 11 -25 24t-17 28q-2 8 -1.5 16.5t5.5 18.5q10 21 21 42t25 41q5 11 13.5 19t19.5 16q6 5 9.5 10t9.5 11q51 46 116 79q45 23 90 43.5t93 34.5q26 4 51 10.5t53 12.5q36 6 75 6q20 3 39.5 3.5t38.5 0.5q31 0 61 -3.5
t58 -14.5z" />
    <glyph glyph-name="Q" unicode="Q" horiz-adv-x="565" 
d="M159 50q6 2 13.5 5l12.5 5q18 10 39 13.5t44 8.5q2 0 6.5 -0.5t9.5 -5.5q7 0 12 3.5t10 8.5q22 17 42.5 37t36.5 43q15 20 31 38t29 39q3 0 5 2.5t2 4.5q14 24 27 47.5t27 47.5q6 10 10 18q3 2 5.5 6t2.5 6q2 17 9 33t9 32q8 34 12 69.5t-2 69.5q-5 20 -13 40t-23 34
q-12 18 -35 21.5t-39 -11.5q-13 -4 -17 -14q-7 0 -12 -7q-23 -2 -38.5 -19t-32.5 -33q-14 -11 -26.5 -25.5t-22.5 -25.5q-2 -4 -3.5 -4.5t-8.5 -0.5v11q7 5 11.5 8t6.5 8q8 9 17 17.5t13 21.5q5 13 14.5 22t15.5 17q12 11 20 19t16 19q15 21 47 21q18 0 36 -1t35 -9
q25 -11 39 -30.5t23 -43.5q26 -64 10 -129q-5 -34 -15.5 -67.5t-23.5 -66.5q-8 -16 -18.5 -33t-21.5 -32q-16 -25 -32 -46.5t-32 -45.5q-17 -21 -34.5 -42.5t-32.5 -45.5q-8 -7 -15 -14t-7 -18q5 -8 12.5 -9.5t12.5 -1.5q32 -4 62 -10.5t60 -12.5q12 -5 24.5 -12.5
t17.5 -23.5q-8 -5 -14.5 -2t-14.5 8l-16 4t-16 5q-8 0 -16 1.5t-16 1.5q-8 2 -17.5 3t-18.5 4q-8 0 -15.5 2.5t-15.5 5.5q-8 0 -16.5 1.5t-14.5 1.5q-9 4 -17 4.5t-17 0.5q-20 -17 -39.5 -32.5t-39.5 -27.5q-26 -19 -53.5 -31.5t-57.5 -12.5q-48 -2 -82.5 26.5t-45.5 77.5
q-5 26 -3.5 49.5t6.5 50.5q15 42 28.5 85.5t32.5 82.5q14 29 25 57t25 54q6 14 11 25t13 21q9 14 16.5 28t13.5 31q0 4 3 9t9 7q7 5 12 14t7 17q8 20 23 36.5t27 29.5q15 11 31 14.5t30 -7.5q3 -2 6 -5t6 -5q-2 -1 -3.5 -1.5t-2.5 -1.5q-2 -1 -2 -2q-22 -7 -38 -21.5
t-30 -29.5q-45 -53 -75.5 -113.5t-57.5 -124.5q-12 -29 -23.5 -54.5t-17.5 -57.5q-5 -27 -16 -53t-17 -52q-4 -26 -5.5 -53t8.5 -56q5 -16 14.5 -24.5t26.5 -14.5q14 -8 32 -8t35 8q1 1 2 3t2 2.5t3 2.5q-8 4 -13 13q-15 15 -19 28q-11 38 -9.5 74t9.5 69q5 41 16 77.5
t27 71.5q14 29 27 56t27 53q2 5 5.5 10t8.5 10q4 -15 0 -31q-2 -11 -5.5 -22t-8.5 -22q-9 -26 -18.5 -53.5t-17.5 -54.5q-14 -35 -22.5 -71.5t-13.5 -75.5v-52q0 -4 0.5 -6.5t3.5 -6.5q0 -3 2 -4t4 -3zM182 3h13q17 7 30 17t23 27q-20 -9 -37 -17.5t-29 -26.5z" />
    <glyph glyph-name="R" unicode="R" horiz-adv-x="676" 
d="M303 593q8 -3 12 -8.5t7 -13.5t1 -14t-5 -11q-23 -27 -40.5 -58.5t-35.5 -66.5q6 -14 8.5 -30.5t4.5 -33.5t4.5 -33t8.5 -29q11 -7 21.5 -2.5t21.5 7.5q51 11 96.5 27.5t93.5 35.5q52 23 88 48t70 61q32 37 41 72t-1 65q-9 27 -31 44.5t-51.5 28t-63.5 15t-67.5 5
t-63.5 -1l-50 -2.5q-59 -6 -112 -24t-104 -52q-11 -6 -20 -14t-18 -15q-13 -11 -23 -17t-19.5 -7t-21 4t-26.5 16q2 6 5 12.5t6 8.5q20 17 40 33t43 30q54 31 110 47t116 27q90 11 180.5 -2t164.5 -56q18 -8 32 -24t21.5 -36t8.5 -41.5t-6 -38.5q-14 -43 -36 -74t-51 -58
q-30 -27 -61.5 -43.5t-64.5 -35.5q-27 -15 -55.5 -26t-57 -19.5t-56.5 -15.5t-56 -16q-9 -2 -16 -2.5t-15 -3.5q17 -63 38.5 -110t57.5 -84q25 -28 54.5 -51t61.5 -36q117 -48 247 -22q5 0 15 6.5t18 6.5q-5 -14 -11 -20q-20 -12 -39.5 -21.5t-42.5 -6.5q-35 0 -68.5 -0.5
t-67.5 7.5q-173 36 -275 216q-14 23 -24.5 50.5t-24.5 58.5h-60q-5 -12 -10.5 -21t-10.5 -20q-26 -51 -54 -100t-56 -100l-3 -5q-4 0 -6.5 -1.5t-5.5 1.5q0 4 -1.5 6t1.5 5q5 17 8.5 32.5t3.5 32.5q0 5 2 10.5t4 7.5q14 17 18.5 38.5t15.5 39.5q9 17 17 37t17 40
q-23 10 -42.5 22.5t-39.5 22.5q-7 8 -12 23h20q22 -6 42 -13t41 -13q3 0 7 0.5t7 2.5q15 26 30.5 47.5t26.5 47.5q6 15 12.5 27t16.5 24q12 16 22 37.5l20 43t20 40.5t21 29h12zM206 309q-3 2 -4 5t-4 6l-3 -3q-2 -4 -2 -5q0 -6 5 -6l2 1q2 2 6 2z" />
    <glyph glyph-name="S" unicode="S" horiz-adv-x="590" 
d="M65 395q23 -4 41.5 -2t35.5 6q31 12 64 18t66 11q112 12 210 -38q43 -22 58 -66.5t-7 -92.5q-3 -8 -11 -18t-13 -21q-20 -36 -50 -62.5t-67 -50.5q-3 -2 -7.5 -2.5t-7.5 -3.5q-11 -10 -33 -22.5t-50 -24.5t-58.5 -22.5t-59 -16.5t-52 -6.5t-36.5 7.5q-5 4 -11 9l-12 10
q-8 8 -9 14.5t-1 14.5q2 11 3 22.5t4 20.5q2 12 5.5 22.5t10.5 22.5q8 15 19 31t22 33q3 3 5.5 7t5.5 7h19q0 -3 2 -7t2 -7q-5 -13 -11.5 -27t-13 -29t-10.5 -30.5t-2 -32.5q0 -19 8.5 -26.5t28.5 -9.5q14 0 27.5 1t25.5 7q27 13 55 20.5t53 15.5q24 9 48.5 27.5t45.5 40.5
t38 45.5t26 43.5q8 19 11 40t-1 44q-2 19 -14.5 32.5t-29.5 24.5q-23 11 -44 15.5t-46 4.5q-38 0 -78.5 -5t-79.5 -20q-38 -13 -77 -21q-13 -2 -22 -4t-18 -2q-19 0 -35 8t-24 24q-7 8 -10.5 14.5t-5.5 13.5q40 52 86.5 98t93.5 90q12 11 25 20t25 19q8 9 17 16.5t17 14.5
q7 9 19 13q12 3 19.5 8t10.5 16q2 8 8 13.5t14 8.5q14 5 30 13.5t33 12.5q29 8 55 5.5t51 -13.5q5 -2 8.5 -7t5.5 -8q7 -12 -0.5 -20t-24.5 -8h-9q-20 11 -37.5 5.5t-37.5 -13.5q-28 -7 -52 -20t-44 -30q-9 -8 -17 -15t-18 -14q-6 -6 -11 -10.5t-11 -9.5
q-23 -12 -38.5 -26.5t-32.5 -28.5q-31 -27 -55 -56t-50 -58q-4 -6 -5.5 -12t-7.5 -12z" />
    <glyph glyph-name="T" unicode="T" horiz-adv-x="293" 
d="M996 653q-3 -6 -29 -9.5t-61.5 -5.5t-73.5 -3t-65 -2q-103 -6 -202.5 -15.5t-199.5 -29.5q-6 -1 -17 -3t-22.5 -4.5t-21 -6.5t-12.5 -10q-20 -42 -34 -75.5t-26 -65.5t-23 -66.5t-24 -80.5q-11 -39 -22.5 -77.5t-17.5 -77.5q-3 -23 -11 -50.5t-11 -53.5q-3 -8 2 -19.5
t11 -18.5q5 -2 9 -1t9 3l12.5 5t20.5 6q8 -7 8 -17t-8 -19q-9 -11 -22 -15.5t-26 0.5q-23 5 -39 17t-21 34q0 3 -2 6t-2 6q3 12 3.5 26.5t2.5 28.5q2 8 4.5 23t6 31t7 29.5t6.5 18.5q12 33 21.5 68t18.5 70t19 69.5t23 66.5q2 5 4.5 9t2.5 9q7 18 12 32t10 27t10.5 27.5
t12.5 34.5q-4 1 -23 -2.5t-41 -8.5t-41 -9.5t-22 -5.5q-15 -5 -29 -7.5t-27 -4.5q-44 -8 -55 32q-2 5 1 17l2 2q1 1 5 1q15 -1 30 0.5t29 2.5q26 5 48.5 7.5t44.5 6t44.5 9.5t48.5 19q4 3 10 13t11.5 22t10.5 23.5t7 17.5q4 13 8.5 24t-8.5 24q13 3 21.5 4t17.5 4
q14 0 23.5 -8t5.5 -19q-2 -3 -8.5 -20t-14 -36t-12.5 -35.5t-2 -18.5q2 0 7.5 -0.5t12 -0.5t12 0.5t6.5 1.5q15 4 37 6.5t45.5 5t46 4t38.5 2.5q26 5 51.5 6t51.5 3q35 2 69 4t69 4q24 0 44 0.5t38.5 0.5t38.5 -1t46 -3q6 -1 14.5 -1h16.5t15.5 -1.5t12.5 -5.5z" />
    <glyph glyph-name="U" unicode="U" horiz-adv-x="537" 
d="M454 579q0 5 2 9.5t4 10.5q17 21 36 51t44 50q10 0 17 1t18 1q16 -2 23.5 -9t1.5 -18q-3 -14 -8 -26.5t-13 -27.5q-19 -31 -38 -60.5t-29 -61.5q-24 -69 -44 -139.5t-46 -139.5q-17 -51 -33.5 -101.5t-33.5 -103.5q-8 -28 -18.5 -54.5t-20.5 -52.5q-5 0 -6.5 -1.5
t-9.5 -1.5q0 26 4.5 52.5t9.5 54.5q25 77 50.5 155.5t57.5 158.5q5 13 8 27t6 29q5 23 14.5 45t18.5 45q1 4 5.5 15t9 23t7.5 22.5t0 14.5v-5q-10 -3 -19 -15t-17.5 -25.5t-15 -26.5t-10.5 -19q-35 -61 -69 -121t-73 -115q-26 -35 -50.5 -65.5t-53.5 -59.5
q-19 -19 -37 -34.5t-46 -29.5q-21 -11 -43 -11.5t-45 7.5q-37 12 -24 38q3 32 20 69q12 23 19 46.5t15 47.5q4 8 8.5 13.5t11.5 13.5q2 11 9 22t4 25q0 5 3.5 11.5t3.5 12.5q27 63 57.5 125.5t68.5 123.5q8 16 16.5 31.5t19.5 32.5q10 7 16 5t20 -2q8 -2 10.5 -7t0.5 -10
q0 -7 -11 -16q-31 -34 -55.5 -77t-41.5 -82q-18 -45 -38.5 -89.5t-39.5 -92.5q-17 -41 -30.5 -80.5t-26.5 -82.5q-1 -3 -3 -10t-2.5 -15t0 -16t5.5 -14q6 2 15 6t17.5 8.5t16 9.5t11.5 9q28 26 55.5 54.5t51.5 60.5q23 31 44 59t44 64q4 11 14.5 25.5t18.5 25.5q20 17 31 37
t20 41t18.5 41.5t26.5 38.5q4 6 8.5 12t8.5 12t5.5 12.5t-0.5 12.5z" />
    <glyph glyph-name="V" unicode="V" horiz-adv-x="281" 
d="M101 145q11 22 22.5 43t20.5 44q21 39 42 78.5t44 80.5q14 27 30.5 53t34.5 54q44 63 91 118q17 20 35.5 38.5t38.5 34.5q11 12 24.5 21l25.5 17q5 4 8.5 4.5l10.5 1.5q5 2 8.5 -2.5t1.5 -6.5q-7 -8 -13 -16.5t-13 -14.5q-45 -37 -81 -76l-72 -78q-32 -37 -54.5 -74.5
t-45.5 -77.5q-38 -63 -67 -128t-55 -132q-12 -34 -27 -70t-29 -72q-2 -2 -2 -4.5t-2 -5.5q-10 -16 -23 -19t-30 -1q-15 13 -16 24q3 14 4 26.5t6 23.5q9 37 14 72.5t6 71.5v11t2 12q7 14 7 29.5t-1 31.5q1 29 0 57t1 56q-2 45 0.5 92t4.5 97q0 6 -0.5 10.5t1.5 12.5
q0 2 4.5 6.5t9.5 2.5q7 1 10.5 -2t3.5 -5q10 -13 10 -22q0 -28 1.5 -56t-0.5 -54q1 -52 -0.5 -103t-0.5 -103q0 -21 -1 -41.5t-2 -44.5q-2 -2 0 -7.5t12 -7.5z" />
    <glyph glyph-name="W" unicode="W" horiz-adv-x="744" 
d="M59 269q2 11 6.5 20.5t7.5 20.5q6 17 14.5 34t16.5 34q5 11 11.5 20t9.5 20q5 14 11.5 28t14.5 28q23 43 42 83.5t42 81.5q5 9 9.5 15.5t7.5 11.5q3 9 6 15.5t6 14.5q7 -4 16 -8t14.5 -10t6 -13.5t-7.5 -19.5q-3 -9 -6.5 -14.5t-9.5 -11.5q-8 -15 -14 -26t-11 -21.5
t-11.5 -22t-15.5 -26.5q-11 -20 -24.5 -48.5t-21.5 -51.5q-30 -62 -57 -123q-17 -51 -37 -108.5t-31 -110.5q-8 -36 -12 -59t-6 -39.5t-2.5 -30t-0.5 -31.5q0 -4 11 -4.5t24.5 1.5t26 5t15.5 7q19 19 39.5 38t40.5 45q17 23 35 51t32 50q25 43 44 90t42 92q9 17 18 39t18 39
q11 17 13 32t10 32q15 28 22.5 57.5t15.5 58.5q3 8 6.5 16.5t8.5 16.5q0 3 5 5.5t11 2.5q11 -3 19 -10t13 -16q3 -14 1 -25.5t-5 -23.5q-5 -20 -8.5 -37t-8.5 -34q-11 -42 -22.5 -82t-19.5 -83q-8 -42 -13.5 -84t-8.5 -85q-3 -25 1.5 -57.5t9.5 -58.5q0 -3 2.5 -8.5
t5.5 -10.5q2 -3 7 -5t7 1q6 0 12 2.5t12 5.5q18 17 41.5 43.5t34.5 52.5q11 22 22.5 42t19.5 43q23 42 36.5 86t30.5 89q2 16 5 31t11 29q2 8 5 19t6 19q3 21 8 36.5t9 29.5t7 27.5t3 30.5t3 31.5t8 31.5q11 28 11 56q0 17 5.5 31.5t5.5 27.5q8 3 13 6t13 6v-52
q0 -6 -1.5 -12t-1.5 -14q-3 -46 -14 -90.5t-16 -90.5q-3 -8 -5.5 -16.5t-2.5 -16.5q-11 -39 -20 -76.5t-17 -73.5q-12 -37 -24 -72.5t-29 -69.5q-11 -26 -22.5 -53t-25.5 -55q-9 -20 -21.5 -38t-23.5 -38q-11 -16 -29.5 -25.5t-37.5 -18.5q-14 -6 -28.5 -4t-28.5 8
q-11 8 -15 14.5t-15 14.5q-6 2 -7.5 7.5t-3.5 11.5q-6 30 -10.5 64.5t-6 70.5t1.5 72t12 68q-2 0 -7.5 -9.5t-11.5 -21.5l-11.5 -23t-6.5 -14q-23 -46 -48.5 -88.5t-53.5 -84.5q-20 -32 -40.5 -61t-46.5 -55q-14 -11 -24.5 -15t-26.5 -10q-17 -5 -31.5 -3t-28.5 7
q-9 3 -15.5 8t-14.5 8q-19 11 -19 33q-8 18 -9 36.5t2 37t8 37.5t10 37q3 5 3.5 9t0.5 9q5 35 17 68.5t20 66.5q3 6 6 15t6 15z" />
    <glyph glyph-name="X" unicode="X" horiz-adv-x="499" 
d="M271 251q-9 -9 -15 -15.5t-11 -11.5q-43 -45 -84 -90.5t-78 -96.5q-23 -28 -44.5 -60t-40.5 -63q-6 -9 -12 -17.5t-11 -17.5q-3 -5 -6.5 -12t-8.5 -10q0 -3 -4.5 -5.5t-6.5 -2.5q-9 3 -17.5 6t-16.5 6q-3 7 -1 12t6.5 9.5t9 10t7.5 12.5q11 23 25.5 46t34.5 43
q5 2 15 14.5t20.5 27.5t19.5 28t13 17q0 7 7 7q5 5 11 10.5t11 11.5q10 18 26.5 37.5t33.5 37.5t32.5 33.5t24.5 26.5q6 7 18 18t18 20q2 5 -5 17t-5 22q-8 27 -18.5 55.5t-18.5 57.5q-15 38 -25 78t-22 82q-2 6 -4 14t-3.5 17t-2.5 17.5t-1 13.5q-2 17 -3 27t-7 24
q-3 5 0 10t12 5h13q15 5 20 -2t14 -18q5 -6 8 -13.5t6 -13.5q0 -11 2 -22t2 -20q3 -28 9 -53.5t14 -53.5q8 -29 14.5 -55t15.5 -54q2 -14 6.5 -26.5t7.5 -26.5q1 -2 3.5 -8t4.5 -12t4 -11t3 -3q1 4 6.5 10.5t12.5 13t13 12t9 8.5q15 6 22 19q20 23 41.5 42t47.5 36
q41 39 72.5 65.5t59.5 54.5q26 25 53 45.5t55 40.5q5 3 8.5 8t6.5 8q6 5 12 7.5t14 -0.5q9 -2 17 0t17 -1q11 -3 14.5 -11t3.5 -19q0 -3 -3 -7.5t-8 -7.5q-5 0 -11 -2t-12 -2q-14 -6 -29.5 -13.5t-26.5 -16.5q-42 -27 -81 -56.5t-76 -63.5q-17 -17 -34 -29.5t-34 -29.5
q-34 -32 -67 -64.5t-67 -63.5q-6 -5 -12.5 -11t-3.5 -12q9 -17 16 -34t18 -34q20 -36 45.5 -73t57.5 -67q11 -14 23 -23t26 -17q3 -3 7.5 -6t7.5 -6q5 -3 8.5 -6.5t1.5 -6.5q-3 -5 -8.5 -7.5t-10.5 0.5q-3 0 -6 0.5t-6 3.5q-14 5 -27.5 11t-25.5 15q-44 37 -80 79t-65 93
q-6 8 -10 15.5z" />
    <glyph glyph-name="Y" unicode="Y" horiz-adv-x="451" 
d="M450 559q-7 0 -7 -3q-17 -17 -37.5 -44t-41.5 -50q-42 -46 -84 -87.5t-77 -71.5q-14 -13 -33.5 -23t-40.5 -15q-17 -4 -29.5 -5t-22 1t-18.5 7.5t-19 15.5q-8 6 -11 13.5t-3 15.5q-2 16 -1.5 29t5.5 27q8 31 21 60t27 56q2 9 7 16.5t8 18.5q3 8 9 15.5t9 15.5
q11 16 20 33t18 32q0 4 1 5l2 2q23 37 48 49.5t50 -8.5q3 0 1.5 -2.5t-1.5 -4.5q0 -1 -4.5 -5t-10 -8.5t-10 -8.5t-4.5 -5q-28 -37 -46 -71t-43 -76q-9 -17 -19.5 -36t-20 -38t-18 -38t-12.5 -35q-5 -16 0 -31q0 -5 7 -10q22 -2 39.5 3.5t33 15.5t29.5 22.5t29 23.5
q31 26 59.5 56.5t58.5 55.5q15 18 31.5 37t33.5 43t33.5 53.5t31.5 67.5q3 8 1 11.5t-5 8.5q-3 4 -1 6t5 2q11 2 22.5 3t22.5 4q6 0 12 -2.5t11 -4.5q5 -6 8 -11t3 -13q-3 -22 -7.5 -42.5t-7.5 -39.5q-8 -46 -26 -87.5t-38 -83.5q-22 -50 -42 -96.5t-47 -89.5
q-5 -11 -11 -23t-11 -25q-8 -17 -17 -32t-17 -30q-17 -32 -35 -60.5t-35 -56.5q-11 -20 -23 -38t-29 -36q-9 -8 -13.5 -15.5t-10.5 -15.5q-10 -12 -22.5 -24.5t-35.5 -20.5q-32 -14 -51 -11.5t-29 15t-13 32.5t-3 42q-6 19 -1.5 34t4.5 30q0 4 5 15.5t11.5 25t12.5 24.5
t8 13q3 3 4 6.5t4 8.5q26 38 58.5 75.5t74.5 66.5q16 11 35 18t33 -1q-15 -14 -27 -20t-25 -14.5t-29.5 -24t-41.5 -46.5q-18 -23 -33.5 -52t-29.5 -52q-17 -33 -23.5 -77.5t-3.5 -80.5l4 -4q0 -3 6 -3q4 0 15 6.5t23 15t22 17t13 12.5q18 22 36.5 43t36.5 47q11 14 22 31.5
t19 32.5q13 25 28 49q15 23 25.5 47.5t26.5 45.5q27 55 56.5 110t41.5 106q1 6 6.5 21t11.5 32.5t11.5 33t6.5 22.5v6v0z" />
    <glyph glyph-name="Z" unicode="Z" horiz-adv-x="692" 
d="M643 218q-12 -11 -19 -13t-23 -2q-23 -3 -45 -4t-45 -4q-14 -3 -28.5 -4t-28.5 -4t-25.5 -5t-25.5 -2q-12 -3 -23 -8.5t-19 -11.5q-26 -23 -48.5 -42.5t-48.5 -38.5q-46 -32 -89 -59.5t-91 -50.5q-23 -11 -43.5 -21.5t-43.5 -19.5q-28 -14 -57.5 -20.5t-61.5 -8.5h-33
q-38 5 -49 45q-2 3 -0.5 7t4.5 4q11 7 18 18q28 32 59 56t68 38q1 2 2.5 2t2.5 1q1 0 2 1q20 17 44 25t47 19q42 14 84.5 30t87.5 27h4q23 8 45 12.5t45 10.5q14 3 28 8l28 10q8 5 18 12t16 18q14 14 25.5 28.5t22.5 31.5q13 12 16.5 16.5t4 8.5t1.5 9t10 17q3 5 8 11.5
t7 15.5v7h-3q-17 -2 -42.5 -4.5t-42.5 -5.5q-11 0 -18 5t-12 13q-3 6 -6.5 10.5t-0.5 12.5q20 9 43.5 13t45.5 6q17 3 32 4.5t32 6.5q23 46 23 101q0 17 -4.5 36t-18.5 30q-8 5 -17 12.5t-21 10.5q-31 7 -69 6.5t-65 -14.5q-59 -20 -116 -51.5t-99 -79.5q-3 -5 -6 -8.5
t-6 -6.5q-2 -3 -5 -4t-5 -3q-3 0 -6 -2t-6 -2q-3 3 -5.5 4t-2.5 3q-11 5 -14 11t-3 20q4 0 4 8q11 12 23 23t26 22q8 9 19 16.5t23 13.5q30 23 61.5 41.5t69.5 29.5q45 14 89.5 18t92.5 -10q35 -11 61.5 -32t43.5 -57q9 -17 9 -35t-2 -38q-3 -9 -2 -15.5t-2 -14.5
q-4 -11 -7 -20t-1 -13q2 -5 16.5 -8t27.5 0h7q23 0 42.5 -2t38.5 -2q1 0 5 -2q1 -1 3 -1q9 -5 7.5 -11t-7.5 -7q-4 -3 -12 -3q-24 -6 -50.5 -6t-54.5 -2q-5 0 -16 -2t-17 -2q-8 0 -10 -5.5t-7 -13.5q0 -8 -8 -16q-20 -33 -43 -62t-52 -57q-2 -3 -7 -8.5t-7 -10.5v-4
q0 -4 1 -4q1 -1 2 0q6 0 11.5 -1t10.5 1q11 3 25 0.5t25 0.5h26t26 2q23 6 39.5 4.5t36.5 -9.5zM-152 -63q3 0 6 -2t6 -2q8 1 20.5 5t26 7.5t25.5 6.5t20 3q3 0 6 2t6 2q3 3 7.5 4t7.5 3q16 0 30 7q6 0 12 3.5t15 3.5q5 0 11 6.5t14 9.5q16 6 36.5 15t42 20t42.5 24.5
t39 27.5q11 8 25.5 18.5t26.5 19.5q3 0 9.5 5t13.5 11.5t13 12t7 7.5q-2 0 -10 -2q-4 -1 -8 -1q-9 0 -21 -2t-25 -5t-25 -6.5t-20 -6.5q-42 -14 -86.5 -29.5t-86.5 -35.5q-32 -17 -64 -34.5t-59 -37.5q-5 -5 -12 -11.5t-15.5 -13.5t-16 -13.5t-11.5 -10.5q-3 -3 -4 -5.5
t-4 -5.5z" />
    <glyph glyph-name="bracketleft" unicode="[" horiz-adv-x="222" 
d="M14 179q2 14 8 24q8 17 17.5 35.5t15.5 36.5q2 6 6.5 13t9.5 12q16 32 30.5 62t26.5 62q4 9 5 19q2 12 5 22.5t5 22.5q9 24 12 50q-11 12 -20 28q23 4 48 6q13 -1 27.5 -1.5t28.5 2.5q8 2 19.5 2.5t19.5 2.5q9 1 12.5 -2.5t6.5 -10.5q3 -9 -4 -13q-4 -3 -7.5 -5.5
t-11.5 -3.5q-15 -2 -32.5 -5t-34.5 -1l-7.5 -2.5t-8.5 -2.5q-6 -6 -4 -14q-2 -7 -2.5 -13.5t-2.5 -13.5q0 -17 -5 -31t-8 -31q-2 -15 -8.5 -29.5t-12.5 -27.5q-16 -39 -39 -79q-5 -11 -11 -22.5t-12 -22.5q-5 -11 -11.5 -23.5t-14.5 -23.5q-2 -5 -5.5 -8t-1.5 -10
q3 -3 7.5 -2.5t7.5 0.5q10 0 19.5 -1t20.5 -3q6 -2 8.5 -7t3.5 -10q0 -6 -3 -7q-5 -2 -9 -4.5t-7 -2.5q-4 1 -7 1.5t-7 1.5q-17 3 -30.5 3t-28.5 -6q-4 1 -6 -0.5t-5 -2.5q-8 -2 -15 0t-13 7q-4 1 -7 3.5t-1 4.5q0 2 2 4.5t6 3.5q6 3 13 6t12 7z" />
    <glyph glyph-name="backslash" unicode="\" horiz-adv-x="268" 
d="M244 106q8 -13 5.5 -19t-9 -6.5t-15 3.5t-12.5 12q-14 25 -28.5 55t-29.5 61t-29 61.5t-26 55.5q-12 29 -27 65t-30 73.5t-29.5 74.5t-26.5 69q-5 7 -7 18.5t0.5 22t10 17.5t21.5 6q1 -8 2 -13t2.5 -9t3 -9t3.5 -14q13 -49 31.5 -97t39 -97.5t42.5 -101.5t42 -107
q16 -32 31 -62.5t35 -58.5z" />
    <glyph glyph-name="bracketright" unicode="]" horiz-adv-x="215" 
d="M194 579q2 -2 3.5 -4t2.5 -7q5 -8 8 -15t7 -15q1 -6 -1 -14.5t-4 -15.5l-20 -64t-21 -63q-14 -32 -26 -64t-26 -64q-5 -13 -11 -27.5t-11 -28.5q-3 -6 -4.5 -13t1.5 -15q1 -7 -5 -10q-5 -8 -13 -10q-8 -7 -18 -2q-8 5 -16 6.5t-16 1.5q-7 -3 -13 -1q-14 -2 -21 4.5
t-12 18.5q14 11 26 12q11 -2 21 -1t20 1q3 2 4 4.5t3 5.5q17 40 34.5 79.5t33.5 78.5q11 29 21 56.5t20 54.5q5 12 9.5 24t6.5 26q1 2 1 4.5t1 6.5q1 3 -1 5t-4 2q-5 -1 -11 -2.5t-11 -1.5q-10 -1 -19 2l-18 6q-5 0 -8 3t-8 5q-5 5 -4 13q3 4 10 6q5 1 10.5 2t10.5 0
q14 -2 29 0t29 7q2 2 4 1.5t6 1.5z" />
    <glyph glyph-name="asciicircum" unicode="^" horiz-adv-x="170" 
d="M118 567v-2h1q16 -13 16 -35q0 -10 2 -18.5t4 -16.5q2 -4 2 -11q0 -5 -4.5 -9.5t-8.5 -4.5t-6 3t-4.5 4.5t-4.5 6.5q-3 5 -4.5 10.5t-5.5 10.5q-1 2 -2 5l-2 6q-9 -9 -13 -18q-5 -3 -7.5 -6.5t-7.5 -7.5q-3 -5 -7 -7.5t-8 -7.5q-5 -3 -6 -3q-8 -6 -15 3q-2 5 -4.5 7.5
t-3.5 7.5q19 19 37 39.5t33 43.5h19z" />
    <glyph glyph-name="underscore" unicode="_" horiz-adv-x="400" 
d="M248 121q-20 -2 -41 -1t-43 1h-22t-25 -2h-16t-17 -2q-45 0 -50 23q0 3 -0.5 6.5t-3.5 6.5q0 3 3 6t8 3t9 -1t9 -1t10.5 -1t10.5 1q36 3 71 0t70 -5q14 0 25.5 -1t22.5 -1h54h18q9 -2 13 -7t-1 -10v-2q-7 -4 -10.5 -7t-8.5 -6h-86z" />
    <glyph glyph-name="grave" unicode="`" horiz-adv-x="222" 
d="M168 400q2 -2 1.5 -4.5t-0.5 -4.5q-2 -11 -10 -17q-3 -2 -4 -2.5t-5 1.5q-1 2 -2.5 2.5t-2.5 2.5q-3 5 -7.5 8t-8.5 7q-11 7 -19 16q-7 6 -13.5 12t-13.5 13q-2 2 -3 3.5t-3 3.5q-5 3 -10 5.5t-12 3.5q-5 0 -1 6q9 8 14.5 13t18.5 7q1 1 4 1q11 0 21 -8q16 -11 32 -29
t24 -40z" />
    <glyph glyph-name="a" unicode="a" horiz-adv-x="273" 
d="M148 167q-13 0 -25 4q-2 1 -4 2.5t-4 2.5q-9 11 -8 21q1 6 3 11t1 9q0 4 -4 4q-1 -1 -2 -1t-2 -1q-7 -10 -14 -15q-5 -4 -9 -7t-9 -6q-5 -4 -9.5 -8.5t-10.5 -7.5q-22 -17 -52 -14q-8 0 -18 8q-4 6 -7 9q-7 9 -1 17q3 7 5.5 14t2.5 15q3 10 6 12q5 8 10 14t12 12
q5 5 10 10.5t10 10.5q3 4 7 7t8 8q5 4 8.5 8t7.5 8q15 16 32 22l27 12q3 2 7 2.5t8 1.5q6 3 13 0h2q6 -3 13.5 -4t14.5 -2q10 -2 13.5 -7.5t1.5 -12.5q0 -14 -7 -28q-3 -8 -7 -16t-6 -16q-2 -5 -4 -9.5t-4 -9.5l-6 -16t-5 -15v-7q0 -1 2 -2.5t4 -1.5q5 0 8 1q8 3 16.5 7
t16.5 8q12 8 25 16.5t25 16.5q17 9 34 15q3 1 7 1q2 0 4 -2t2 -4l-6 -9l-12 -12t-12 -11q-14 -9 -26 -19t-25 -19q-7 -5 -15 -9.5t-16 -9.5q-15 -8 -37 -8zM147 322q0 6 -5 6q-4 -2 -7 -2t-6 -2q-8 -2 -14 -5.5t-12 -8.5q-8 -6 -16 -14l-16 -16q-12 -14 -23 -29.5t-22 -30.5
v-4q-1 -2 -0.5 -2.5t0.5 -1.5h7q3 3 6 4.5t6 4.5q13 11 26 22.5t25 22.5q11 10 21.5 19.5t20.5 19.5q3 3 5 5.5t4 7.5q1 2 0.5 2.5t-0.5 1.5z" />
    <glyph glyph-name="b" unicode="b" horiz-adv-x="198" 
d="M256 307q0 -3 -2 -4q-1 -3 -13.5 -5.5t-27 -5t-27 -5t-13.5 -3.5q-5 -4 -7 -11q0 -3 -1 -4q0 -5 -2 -8q-2 -17 -8.5 -32.5t-15.5 -29.5q-11 -18 -26 -32.5t-32 -27.5q-8 -6 -17 -10t-18 -9q-5 -1 -14 1t-13 10q-7 6 -5 14q0 8 3 14.5t6 14.5l1 1q9 14 19.5 28t22.5 25
l11 11t11 12q3 5 7.5 8.5t9.5 6.5q5 5 8 8.5t7 8.5q4 9 -3 16q-10 10 -18 11q-3 1 -11 1q-8 -1 -18 -8q-3 -3 -6 -5.5t-6 -5.5q-1 -1 -7.5 -11t-13.5 -21.5t-13 -21.5t-6 -11q-3 -5 -7.5 -12t-6.5 -12q-5 -14 -12 -21.5t-20 -4.5q-8 0 -8 8v8q3 10 6 19t8 18q6 9 8 18
q4 10 10 24t12.5 29t12 29.5t10.5 23.5q0 2 3 7q9 21 19.5 42.5t19.5 43.5q5 9 9 17.5t8 17.5q2 8 6 16.5t7 16.5q8 17 16 33.5t16 33.5q6 11 11.5 22t11.5 22q5 11 8 22.5t1 23.5q-2 2 2 4q3 5 7.5 6.5t9.5 3.5q5 1 9.5 -0.5t8.5 -3.5q2 -2 4 -7t0 -8q-1 -2 -1 -5
q-8 -16 -14.5 -31.5t-14.5 -30.5q-7 -14 -13 -28.5t-14 -27.5q-12 -25 -23.5 -50t-24.5 -49q-7 -15 -13.5 -29t-13.5 -28q-6 -12 -11 -25t-8 -27q-2 -1 0 -3t4 -2h4q5 1 9 1.5t9 2.5q6 1 10.5 1h11.5t14 -1t13 -4q5 -2 10.5 -5t9.5 -8q3 -1 6 -4q4 -3 11 -3q1 0 13.5 -0.5
t27 -1t27 -0.5h14.5t2.5 -0.5t2.5 -1.5zM114 227q0 2 -2 3t-3 0q-8 -3 -15 -10q-10 -11 -19 -22t-17 -24q0 -2 -0.5 -2.5t-0.5 -2.5v-2q0 -2 0.5 -2t0.5 -1q1 -1 4 -1q5 2 7 4.5t6 6.5q6 5 13 15l6 6t6 7q4 5 6.5 8t4.5 7q2 2 2 2.5t1 1.5q1 2 0.5 3t-0.5 3z" />
    <glyph glyph-name="c" unicode="c" horiz-adv-x="154" 
d="M110 230q20 14 46 28q5 3 9.5 4.5t9.5 3.5q4 4 4 0q3 -3 0 -5q0 -1 -1 -3q-2 -3 -4.5 -6t-5.5 -6q-3 -2 -6 -4.5t-6 -5.5q-3 -5 -7.5 -11t-8.5 -9q-9 -5 -15.5 -12t-14.5 -12l-12 -10l-32 -21q-24 -13 -51 -12h-14q-12 2 -18 8q-5 5 -7.5 9t-5.5 9q-1 1 -1 2q-1 1 -1 2
q2 6 2.5 12t1.5 11q3 16 2 26q0 4 1 6q8 8 14 18t11 21q1 6 5 11.5t7 11.5q2 4 4.5 7t4.5 6q5 2 8 5t7 6q8 5 17 8q7 4 18 0q4 -2 5.5 -5t3.5 -6l15 -25l-9 -4.5t-26 0.5l-2 -2q-12 -13 -21 -27t-17 -29q-4 -10 -7 -19t-4 -18q-2 -5 1 -7q4 -4 7 -4q4 0 10 2l18 8t19 9
q7 5 14.5 9.5t15.5 9.5l14 10v-1z" />
    <glyph glyph-name="d" unicode="d" horiz-adv-x="187" 
d="M-34 171q1 3 1 7q2 12 8.5 31t17 39.5t24 39.5t28.5 31q13 10 27 16q5 1 9 1.5t9 -0.5q15 0 31 -7q7 -2 8 -5q4 3 12 18t18 37t21.5 48.5t23 52.5t21.5 49t18 37q1 3 5.5 12t9 20t8 20t3.5 12q2 7 4 13t2 12q0 1 0.5 2t-0.5 3q2 2 3.5 2t2.5 2q8 0 14.5 1t14.5 -1
q3 0 6 -3t3 -6q-2 -1 -2 -6q-5 -12 -9 -22.5t-12 -21.5q-2 -5 -5 -11.5t-5 -10.5q-14 -23 -23 -49.5t-23 -49.5q-5 -11 -10.5 -22.5t-10.5 -22.5l-12 -24q-1 -6 -3.5 -11t-3.5 -11q-2 -3 -7 -12.5t-6 -12.5q-8 -17 -16 -35.5t-17 -36.5q-18 -34 -34 -68q-5 -8 -8 -16.5
t-6 -16.5q-2 -2 0 -8q0 -3 3 -3q1 0 2.5 1t2.5 1q2 1 4.5 2.5t4.5 2.5l10.5 10.5l10.5 10.5q10 8 19.5 16.5t20.5 17.5q3 3 6 5.5t8 3.5q5 5 8 0q1 -1 1 -4q-1 -3 -1 -6t-1 -5q-5 -5 -8.5 -11t-8.5 -12q0 -4 -4 -7q-6 -7 -11 -14t-11 -14q-7 -13 -20 -25q-17 -12 -34 -18
q-12 -2 -18 2q-11 4 -14 8l-8 6t-7 5q-6 4 -12 0q-6 -3 -11.5 -6t-11.5 -6q-8 -6 -15 -7q-15 -6 -29 4q-2 1 -4 3l-4 4q-6 4 -7 11q0 4 -1 8zM95 299q0 3 -1 6q0 4 -7 4q-3 0 -7 -3q-6 -5 -18.5 -22t-24.5 -37t-20.5 -38.5t-7.5 -25.5q-1 0 -1 -0.5t1 -0.5v-3q1 -1 4 -1
q7 1 14 8q17 10 27.5 22.5t24.5 26.5q3 3 7 11q1 5 2.5 10t2.5 10q4 5 4 15v13v5z" />
    <glyph glyph-name="e" unicode="e" horiz-adv-x="167" 
d="M27 142q-11 0 -18 3l-4 2t-6 2q-2 1 -3 2t-3 2q-5 5 -9.5 9t-7.5 10q-4 8 0 19q2 8 5 16t6 17q1 3 2.5 7t3.5 7q5 9 8 22q2 11 8 16q5 13 19 25q6 6 11.5 12t11.5 11q4 2 7 4q6 2 11.5 3.5t13.5 3.5q2 1 4.5 1h4.5q9 -2 11 -5q8 -7 14 -14q4 -6 7 -14t-2 -16
q-6 -8 -14 -15.5t-16 -14.5q-10 -8 -20 -16.5t-21 -16.5q-7 -5 -16 -4q-4 0 -6 -1q-6 -3 -8 -6q-4 -8 -4 -12q-5 -11 -3 -25q2 -2 3 -3.5t4 -3.5q8 -2 13 -1q13 2 24 7q14 5 25.5 11t23.5 13q13 8 25.5 15.5t25.5 15.5q6 2 9 2q3 2 6.5 -0.5t2.5 -4.5q-3 -14 -15 -25
q-11 -6 -21.5 -14t-19.5 -16q-8 -5 -16.5 -10.5t-18.5 -8.5q-7 -3 -14.5 -5.5t-15.5 -2.5q-7 -2 -14 -3t-14 0zM90 296q-2 2 -2 3.5t-1 1.5h-6q-1 -2 -4 -5q-10 -10 -19.5 -21t-15.5 -24q0 -4 1 -4h3q5 5 10 9.5t10 9.5q8 5 13 12t9 14q2 2 2 4z" />
    <glyph glyph-name="f" unicode="f" horiz-adv-x="224" 
d="M-63 45q1 3 1.5 9.5t2.5 13.5q1 13 2 25t6 25q0 8 2.5 16t5.5 16q3 11 7 21.5t7 21.5q12 35 28 71q3 7 7 15.5t7 16.5q4 11 10 21.5t11 21.5q7 14 14 26.5t14 26.5q5 9 10.5 19.5t8.5 21.5q3 4 4 8q2 5 4 8t2 7q5 17 15 29q6 8 11 17t11 18q5 8 10 17.5t10 18.5q5 7 8 14
q11 15 21 30.5t18 31.5q1 2 3.5 4t4.5 0h9.5t9.5 -1t10 -8t2 -15q-1 -5 -3.5 -10.5t-5.5 -10.5q-11 -16 -21.5 -33t-21.5 -32q-7 -11 -14 -20.5t-12 -20.5q-1 -3 -2.5 -6t-3.5 -5q-13 -17 -22.5 -34t-20.5 -36q-10 -17 -20.5 -35t-18.5 -37q-3 -8 -7.5 -14.5t-6.5 -14.5
q-1 -1 -1 -5q0 -5 4.5 -6.5t7.5 -1.5h8q20 3 40 -1.5t40 -2.5q9 -2 15 0q19 -1 37.5 -1t36.5 2q3 2 8 0q6 0 4 -6q-1 -1 -2 -7q-1 -3 -4 -4q-2 -1 -3.5 -1.5t-3.5 -2.5l-24 -4l-24 -4q-23 -2 -44.5 3t-42.5 5q-3 0 -5.5 -1t-5.5 -3l1 -4.5t2.5 -9.5t3.5 -9.5t2 -5.5
q6 -20 8 -42t1 -42q0 -35 -6.5 -61t-17.5 -55q-3 -8 -6.5 -15.5t-8.5 -15.5q-3 -7 -8.5 -13t-10.5 -13q-6 -8 -12.5 -14.5t-15.5 -11.5q-10 -7 -22 -6q-6 0 -8 1q-7 0 -15 5q-3 2 -11 6q-3 2 -5.5 4.5l-4.5 4.5q-6 7 -10 15t-9 16q-1 2 -2 3.5t-1 3.5q-2 11 -2 19.5v22.5z
M-32 38v-12t1 -10q0 -14 7 -31q2 -5 7 -11q7 -5 15 -3q1 3 4 3q10 7 14 12q5 7 10.5 12t8.5 13l3 3q2 6 5 11q6 12 11.5 24t10.5 26q4 14 7.5 32.5t5.5 37.5t1.5 36.5t-4.5 29.5q0 5 -1 9t-2.5 14t-3.5 20.5t-5.5 18.5t-7.5 8q-11 0 -16 -8q0 -1 -1 -1q-8 -16 -14.5 -30.5
t-11.5 -29.5q-2 -5 -3 -8.5t-3 -6.5q-7 -17 -13 -38q-15 -41 -21 -88q-1 -9 -2 -17.5t-2 -15.5z" />
    <glyph glyph-name="g" unicode="g" horiz-adv-x="201" 
d="M-147 -227q-3 0 -4.5 -0.5t-3.5 0.5t-5 1.5t-5 2.5q-11 5 -17 13q-4 8 -4 15q2 10 5 20t7 19q9 11 12 25q6 12 13 23.5t16 22.5q3 5 6 8.5t5 8.5q11 20 25 33q6 5 11 11l10 12q16 17 32 34.5t34 32.5l4.5 4.5l4.5 4.5q6 7 12.5 13t16.5 11q4 3 7.5 7t7.5 8l8 8t9 8
q1 1 2 1.5t2 1.5q13 10 21 21.5t16 25.5q1 1 1 2t1 2q6 17 11 35.5t7 37.5q0 4 -1 5q0 2 -2.5 2t-3.5 -1q-7 -6 -12 -14q-11 -14 -22 -27.5t-24 -26.5q-4 -5 -7.5 -9t-8.5 -8q-3 -4 -8 -6.5t-10 -5.5q-16 -8 -33 -3t-26 21q0 3 -1 6.5t0 6.5q3 28 16 49q7 13 14.5 25
t16.5 23q1 2 2.5 4.5t2.5 5.5q0 7 7 16q8 8 14 14.5t14 14.5q10 11 22.5 15.5t25.5 5.5q6 0 9 -1q14 0 20 -10q1 -2 6 -5q0 -2 5 -2q3 2 5 4.5t5 3.5q2 2 4 1.5t3 -2.5q5 -9 4 -18q0 -2 -0.5 -5t-0.5 -5q-2 -5 0 -8q3 -12 1 -20q-2 -16 -3 -30.5t-3 -30.5q-4 -11 -1 -28
q1 -4 -2 -13q-2 -3 -3 -6.5t-3 -6.5q-10 -14 -13 -26q-2 -6 -5 -12t-5 -12q-9 -26 -20.5 -51.5t-23.5 -49.5q-7 -13 -14.5 -26t-15.5 -26q-8 -14 -15 -26.5t-16 -25.5q-11 -17 -23 -34t-26 -34q-17 -20 -34 -37q-8 -7 -17 -13.5t-18 -14.5q-5 -2 -10 -7q-8 -4 -15 -6.5
t-15 -2.5h-4zM63 67l6 16t5 16v1v2q-3 1 -6 0q-11 -9 -21 -18t-19 -19q-11 -8 -19.5 -17t-16.5 -18q-16 -17 -30.5 -34t-28.5 -35q-8 -10 -14.5 -19.5t-13.5 -18.5q-11 -14 -19 -30.5t-16 -34.5q-6 -13 -13 -31q-1 -5 -1.5 -9t-0.5 -9q-1 -2 2 -4t5 -2q5 0 11 4q12 9 23 13
q2 2 7 4q8 8 16 15t15 16q8 11 15 16q11 11 20 26q4 5 7.5 9t6.5 8q5 5 7 13q4 10 7 14q5 10 11 19t13 19q11 16 18 31q2 5 4.5 8.5t4.5 7.5q2 1 2.5 3t0.5 4q4 8 6.5 16.5t5.5 17.5zM117 322q0 5 -6 7q-3 0 -5.5 -0.5t-4.5 -0.5q-9 -7 -17 -13.5t-16 -14.5l-14 -16t-15 -17
q-11 -14 -19.5 -28t-16.5 -30v-3v-2q2 -3 6 -2q9 3 19 10q2 2 4 4.5t4 4.5q13 14 25 27.5t24 27.5q8 8 14.5 17t13.5 17q1 2 2 3.5t2 3.5v5z" />
    <glyph glyph-name="h" unicode="h" horiz-adv-x="262" 
d="M260 251q5 9 14 15q1 4 5 0v-2l-2 -10l-8 -16l-155 -196q-4 -3 -6.5 -7t-5.5 -7q-8 -10 -19 -15t-23 -7q-6 0 -10 1q-9 0 -13 4q-4 3 -8 6.5t-7 8.5q-3 3 -5 9l-1 13v7q0 9 3 13l6 14q5 5 6.5 9t3.5 9q7 20 19 38l14 27l13 22l8 16l35 61q1 4 0 8l-4 2q-3 0 -4 -1
q-21 -11 -42 -27t-36 -33l-36 -54q-7 -9 -17 -13q-2 -2 -4 -3t-3 -3q-8 -11 -12.5 -11t-7 4.5t-3.5 12.5t-1 14q5 14 11 21q14 17 21 40.5t16 41.5q9 20 19 39.5t21 41.5l21 40q3 6 7 12.5t6 14.5q0 3 4 7q5 6 8 13t7 14l14 22q10 18 17 36q4 10 8.5 18t9.5 17
q10 23 24.5 46t21.5 40q2 5 5 8.5t4 9.5q0 4 2 7.5t4 5.5q8 14 20.5 15t18.5 -13q2 -3 0 -8q-1 -2 -2 -3.5t0 -3.5q-4 -5 -6.5 -9t-4.5 -8l-33 -55l-12 -22q-24 -49 -45.5 -89t-40.5 -74t-33.5 -62t-23.5 -52q-1 -2 0.5 -8t3.5 -7h1q6 4 16.5 12t15.5 12l22 15q6 4 11.5 7
t13.5 5q16 7 35 1l5 -3q8 -5 9 -13t-1.5 -17t-7 -17.5t-7.5 -14.5q-6 -9 -11 -18.5t-11 -19.5l-15 -27q-1 -2 -2.5 -4.5t-2.5 -4.5q-12 -20 -23 -41t-22 -44q-9 -14 -12 -30q-1 -2 2 -5h3q2 0 2 1q8 7 16.5 13.5t13.5 14.5q2 1 3 2.5t2 2.5q6 5 25 23t42.5 42.5t47.5 52
t42 50.5z" />
    <glyph glyph-name="i" unicode="i" horiz-adv-x="157" 
d="M-23 202q2 6 3 9.5t3 5.5q8 24 24 46.5t23 37.5q2 4 3 8t3 9t4.5 10t6.5 8q2 5 5 6t8 2h3q12 1 18 -12q3 -3 1 -10q-4 -8 -6 -10q-9 -14 -17.5 -25t-15.5 -26q-5 -8 -11 -20l-10 -20q-2 -2 -4.5 -10t-2.5 -11q-1 -2 3 -3t6 -1q9 1 22.5 6t29 11.5t31.5 15t31 17.5
q9 4 16 8t16 5q2 -1 2 -5v-3q-3 -5 -8 -8.5t-10 -7.5q-11 -9 -28.5 -21t-36 -23.5t-36 -21t-28.5 -13.5q-11 -5 -24 -2l-9 3q-13 6 -16 20q-2 3 -1 4t0 4q0 8 1 12q0 2 1 4t0 1zM64 375q1 2 1 4.5t1 4.5q2 8 5 14l6 12q1 2 2.5 3t3.5 3q17 5 28 -6q9 -9 3 -16
q-4 -11 -15 -22q-8 -9 -22 -11q-2 0 -3 0.5t-2 0.5q-7 2 -7 7q0 3 -1 6z" />
    <glyph glyph-name="j" unicode="j" horiz-adv-x="84" 
d="M59 348q1 -3 2 -6.5t1 -7.5q-1 -3 -1 -10q-8 -20 -9 -39q-1 -3 -1.5 -6.5t-2.5 -7.5q-2 -5 -2 -8.5t-1 -7.5q-5 -11 -9 -27t-11 -32q-3 -11 -8 -22t-11 -22q-8 -20 -17 -41.5t-19 -41.5q-8 -16 -15.5 -31.5t-16.5 -30.5q-2 -4 -4 -7.5t-3 -7.5q-5 -8 -10 -16.5t-10 -17.5
q-2 -5 -4.5 -9.5t-6.5 -8.5q-2 -5 -5.5 -9t-5.5 -8l-4 -6l-4 -6q-3 -3 -4.5 -6t-3.5 -6q-6 -16 -17 -28q-4 -6 -9 -12.5t-9 -12.5q-12 -14 -23 -28t-24 -26q-5 -4 -9 -7.5t-8 -7.5q-8 -5 -15 -10t-15 -10q-2 -2 -5 -4t-7 -4t-7 -2q-19 -6 -26.5 -5t-20.5 6q-5 2 -8 4t-7 4
q-2 2 -4 3t-4 3q-7 7 -6 16q1 8 1.5 15t2.5 17q1 5 1 10t2 13t4.5 15t5.5 16v1q0 1 2 3q5 8 9 14.5t10 14.5q7 9 13.5 18t11.5 18q9 13 18 24.5t19 22.5q18 20 35 38.5t37 36.5q2 5 7 8q11 10 22 19.5t22 20.5q11 9 22 16q7 4 13 8t11 9q8 8 17 15t18 15q3 1 8 6
q8 6 14.5 14.5t10.5 19.5q2 5 3.5 11t3.5 11q4 10 7 20t5 21q0 5 2 9q5 14 7 29l4 30q0 2 0.5 4.5t0.5 4.5q2 5 7 7t9 2.5t9 0.5q8 -1 15 -8zM-31 149q1 2 -2 5h-5q-4 -3 -8.5 -5.5t-7.5 -5.5q-11 -9 -22 -16.5t-20 -16.5q-5 -5 -10.5 -8.5t-10.5 -8.5l-17 -17
q-12 -12 -24 -21q-5 -5 -5 -6q-14 -13 -26.5 -26t-26.5 -27q-2 -3 -5 -5q-11 -14 -21.5 -28t-20.5 -28q-7 -9 -13 -18t-13 -18q-11 -19 -22 -46v-1q-4 -8 -6 -15t-4 -15q-1 -5 -3 -11q0 -5 0.5 -8t0.5 -7v-11q0 -2 1 -4.5t2 -4.5q3 -17 20 -12q10 1 19 5t17 9q5 5 10.5 9
t10.5 9q3 3 6 5.5t5 4.5q14 17 28.5 34.5t27.5 36.5q3 3 5 8q8 8 14.5 16.5t11.5 18.5l4 6t4 5q11 17 21.5 33.5t19.5 34.5q3 5 5 10t4 11q5 14 11 27.5t13 27.5q7 13 13.5 26.5t11.5 27.5q2 5 3.5 10t3.5 10zM77 456q5 -9 0 -16q-3 -5 -6.5 -9.5t-8.5 -9.5q-11 -8 -22 -9
q-2 0 -5 1q-1 1 -3 2.5t-2 3.5t-1 6q2 2 2 3.5t2 4.5q3 5 6 11.5t7 11.5q1 2 3 2.5t2 1.5q16 6 26 -4z" />
    <glyph glyph-name="k" unicode="k" horiz-adv-x="226" 
d="M231 232q11 -3 1.5 -16t-23.5 -28q-14 -14 -30 -28.5t-36 -21.5q-13 -4 -25 -5t-25 4q-7 1 -12 4q-20 12 -28.5 27t-15.5 43q-2 9 -7 12.5t-14 -10.5l-3 -3q-8 -16 -17.5 -33.5t-17.5 -33.5q-5 -8 -9.5 -17t-15.5 -11q-2 0 -4 -1.5t-4 -0.5q-5 2 -3 8q0 3 1 6q5 5 5 11
q1 11 4 20t8 17q3 5 5.5 10.5t5.5 10.5q5 8 8.5 16.5t6.5 17.5q2 3 2 6.5t2 8.5q3 11 5 15t11 16q2 3 3 6t3 5q14 41 32.5 82.5t38.5 83.5t38.5 84.5t32.5 85.5q3 11 6 21t8 20q3 6 9 7.5t12 -0.5t10.5 -7.5t4.5 -14.5q0 -3 -1.5 -6t-2.5 -6q-6 -16 -12 -29t-13 -28
q-7 -18 -15.5 -36t-16.5 -35q-12 -30 -27.5 -61.5t-29.5 -61.5q-6 -12 -11 -24.5t-10 -25.5q-1 -3 -1 -6.5t-1 -5.5q-1 -3 2 -5.5t5 -2.5h6q11 0 25 4.5t25 6.5q8 1 17.5 -1.5t16.5 -7.5q5 -3 6 -9t3 -11q2 -11 -9 -19.5t-26.5 -15t-30.5 -11.5t-21 -9l-4 -4
q0 -14 2.5 -32.5t10.5 -32.5q4 -10 13 -10q15 0 29 5.5t27.5 14t26.5 18t26 17.5q5 2 9 7t9 6zM126 296q-4 2 -10.5 0t-13.5 -5q-8 -4 -17 -10q20 -1 34 4.5t7 10.5z" />
    <glyph glyph-name="l" unicode="l" horiz-adv-x="134" 
d="M101 191q-2 -2 -2.5 -3t-2.5 -2q-1 -2 -5 -6h-1l-3 -3q-5 -6 -11.5 -12t-12.5 -11q-13 -13 -30 -16h-3q-10 -2 -18.5 2t-16.5 11q-11 11 -8 25v2q3 16 6.5 31t7.5 29l21 57q3 13 10 27q16 37 32 73t33 71l2 7q4 13 9 23t13 21q2 2 2.5 5.5t2.5 8.5l39 101q2 7 5 13.5
t6 13.5q3 5 3.5 10.5t2.5 10.5q3 9 10 10q4 2 7 2t5 1q5 -1 6 -2q4 -2 7 -4q4 -6 3 -13v-10q-2 -4 -2.5 -7.5t-2.5 -5.5q-6 -14 -11.5 -27.5t-12.5 -26.5q-15 -31 -28.5 -61t-25.5 -61q-6 -15 -11.5 -30t-12.5 -30l-30 -64q-3 -9 -6.5 -17.5t-7.5 -16.5q-2 -5 -4.5 -11.5
t-5.5 -12.5q-18 -43 -31 -90q0 -2 -0.5 -5.5t-0.5 -8.5v-4q0 -8 7 -6q3 1 5.5 2.5t5.5 3.5q6 6 13 9.5t14 9.5l4 4h1l11 10v-1q7 6 13 13q2 3 4.5 5t4.5 4l33 26q6 5 11.5 9t12.5 9h2q1 -2 1 -5q-2 -5 -4.5 -9.5t-7.5 -7.5l-4 -4l-4 -4q-5 -5 -8 -10.5t-8 -10.5
q-5 -4 -8.5 -8.5t-7.5 -9.5l-13 -17q-2 -2 -2.5 -3t-2.5 -2z" />
    <glyph glyph-name="m" unicode="m" horiz-adv-x="323" 
d="M-30 174q1 13 7 21q5 8 10 18t10 18q2 5 4 8.5t5 8.5q0 1 2 7q2 12 7.5 23.5t9.5 23.5q2 6 7 10q2 5 8 5q6 2 11 2q6 2 8 -5q4 -5 4 -15v-5q0 -3 3.5 -4.5t6.5 0.5q2 2 7 4l5 5t7 5q2 2 5 2t6 1q4 1 13 1q14 1 24 -13q0 -3 1 -5q3 -4 8 -2q2 1 4 2.5t4 2.5l15 15
q6 5 10.5 10t9.5 10q2 4 5.5 6.5t6.5 4.5q8 5 16 10.5t16 11.5q12 7 25 4q9 -2 12 -9v-5q-2 -10 -4.5 -18t-7.5 -17q-9 -19 -17 -38t-18 -37q-5 -13 -10.5 -26t-11.5 -26q-5 -10 -9 -19.5t-9 -20.5q0 -1 -0.5 -3t-0.5 -4q0 -4 2 -4q1 -2 3 0q2 0 7 3q11 8 21.5 16t20.5 18
q1 1 2 1.5t2 2.5q8 8 17 13.5t17 13.5t17 15t17 14q6 3 11 7t12 6h2q4 -2 2 -4q0 -2 -0.5 -3l-1.5 -3q0 -6 -4 -11q-8 -11 -18 -20t-18 -18q-8 -5 -14.5 -12t-12.5 -12q-12 -12 -23.5 -23t-23.5 -23q-15 -18 -31 -29q-5 -4 -10.5 -5.5t-11.5 -2.5q-10 0 -16 7q-18 16 -11 39
q4 13 9 21q5 10 10 19.5t10 20.5q5 9 9.5 18.5t9.5 18.5q2 5 4 9.5t3 9.5q5 11 9 21.5t9 21.5q3 4 4 8q1 2 1 7q0 2 -2.5 3t-4.5 0q-2 0 -4 -2q-5 -4 -8.5 -7t-7.5 -7q-17 -15 -32.5 -32t-30.5 -34q-5 -7 -10.5 -13.5t-10.5 -12.5q-4 -5 -7.5 -9.5t-7.5 -9.5q-4 -7 -12 -13
q-10 -8 -22 0q-5 4 -8 8.5t-5 10.5q0 4 1 4q2 5 3.5 10.5t4.5 11.5q2 4 4 17q0 2 -1.5 3t-2.5 0q-9 0 -12 -6q-5 -5 -9 -10.5t-7 -13.5q-4 -6 -7.5 -12t-6.5 -13q-5 -10 -14 -19q-2 -4 -6.5 -4.5t-8.5 1.5q-6 0 -9 5q-6 6 -6 15z" />
    <glyph glyph-name="n" unicode="n" horiz-adv-x="213" 
d="M97 180q11 7 22.5 14t21.5 16q12 9 26.5 16.5t27.5 16.5q4 2 8.5 4.5t9.5 4.5t9 4t10 4q4 1 2 -3q1 -3 0 -5t-2 -5l-21 -16q-3 -2 -6.5 -4.5t-6.5 -4.5l-38 -36q-12 -11 -24.5 -22t-26.5 -22q-5 -3 -9.5 -7t-9.5 -8q-4 -3 -7.5 -6t-5.5 -4q-14 -5 -22 2l-5 4q-7 9 -9 13
t1 18l4 17q5 14 9 27t10 27l9 25l2 10q0 4 -4 6q-3 0 -5 -1l-24 -24q-6 -7 -13.5 -12.5t-15.5 -7.5q-3 -2 -5 -3t-4 -4q-3 -6 -14 -11l-7 -3q-9 -4 -13 6q-4 6 -2 15q4 8 6.5 15t5.5 14q5 8 9 17t7 19q2 8 6 14q3 9 7 18t7 19q2 6 4.5 11t4.5 10t9 5h10q3 0 6.5 -0.5
t5.5 -3.5q9 -7 7 -16q0 -5 -2 -9.5t-2 -9.5q1 -2 4 -2t5 1q8 8 17.5 14t17.5 14q10 7 25 7q11 0 16 -6q1 -2 2 -3.5t1 -3.5q3 -6 2 -8q-2 -8 -4 -13l-35 -76l-18 -46q-5 -12 -3 -20q0 -3 3 -3h2v-1z" />
    <glyph glyph-name="o" unicode="o" 
d="M140 307q0 -3 -1 -7q0 -8 9 -8h10q8 2 21.5 2t21.5 2h14q2 -2 2 -4q4 -6 -1 -9q-1 -3 -2.5 -3.5t-3.5 -2.5q-4 -4 -6 -4q-11 -3 -25.5 -5t-24.5 -5q-16 -7 -31 -7q-2 -1 -3.5 -2t-3.5 -2q-2 -2 -2.5 -3.5t-1.5 -2.5q-3 -4 -4 -6.5t-3 -4.5q-11 -23 -31.5 -42t-37.5 -32
q-7 -6 -20 -8h-7q-3 0 -7 2q-12 3 -18 10t-9 18q-1 2 -1 3q-2 8 1 15q1 3 2.5 5t1.5 5q4 8 5 12q4 14 7.5 23t9.5 23l6 14t7 14t8.5 13t9.5 12q5 8 9 15t9 15q4 6 11 7q4 4 11 4q11 2 25 4t22 -6q2 -2 4 -2.5t4 -2.5q3 -5 5 -9t5 -9q2 -5 3 -9.5t0 -10.5v-11zM82 265
q0 4 -1 5q-5 6 -8 12l-6 12q-1 2 -5 4q-1 1 -5 1q-2 0 -5 -3q-5 -7 -10 -16q-11 -20 -17 -36t-12 -38v-3q-1 -2 -0.5 -4t2.5 -2q3 -2 5 0q21 8 36 27t25 36q1 2 1 5zM114 334q0 2 -2 4q-4 0 -4 -1q-14 -11 -17 -29q-1 -2 -0.5 -3.5t0.5 -3.5q0 -1 2 -5q2 -2 4.5 -2t4.5 2
q3 3 5 6q4 6 5 14l2 16v2z" />
    <glyph glyph-name="p" unicode="p" horiz-adv-x="253" 
d="M228 281q-2 -4 -3.5 -6.5t-2.5 -5.5q-5 -8 -10.5 -15.5t-10.5 -14.5q-9 -9 -13 -16q-6 -7 -12 -12.5t-13 -10.5q-3 -1 -7 -5q-8 -7 -17 -12.5t-18 -10.5l-21 -9q-21 -8 -41 -8h-6q-10 0 -21 9q-2 2 -3.5 2.5t-2.5 2.5q-4 3 -4 12q3 11 8 19q3 5 5 6q18 18 41 36
q23 15 46 26q13 6 25 11t23 10l16 9q4 3 6.5 6.5t1.5 9.5q0 8 -9 12q-5 2 -13 2q-22 -3 -40 -14q-27 -16 -51 -36.5t-43 -46.5q-13 -19 -24 -38.5t-20 -39.5l-18 -39l-10 -26q-3 -8 -6 -16.5t-7 -16.5q-9 -20 -14 -41q-4 -10 -7 -20t-7 -19q-2 -4 -2.5 -7.5t-2.5 -7.5
q-4 -11 -7.5 -21t-8.5 -20l-5 -7q-2 -1 -5 -1.5t-5 0.5q-3 0 -3 4q-3 13 2 29q2 14 6 27q0 3 0.5 6.5t0.5 7.5q2 10 4.5 19.5t5.5 20.5q9 27 19.5 53t21.5 52l35 82q8 17 15.5 33t14.5 33l6 12q3 11 8 21.5t11 21.5q2 4 4 8.5t3 8.5q2 6 2 10q-1 5 0.5 9.5t3.5 9.5q2 3 7 6
q14 4 28 0q5 -2 8 -6t2 -9l-6 -14q-6 -10 -11 -20.5t-10 -19.5q-1 -3 -1 -9q0 -1 2 -3q1 -2 3 0q3 1 6 2.5t5 3.5q21 17 45 28l15 7q13 5 25.5 5.5t26.5 -1.5q17 -3 29 -17l3.5 -3.5t3.5 -4.5q7 -10 5 -22.5t-7 -20.5zM160 248l-3 3q-5 2 -10 -2l-45 -25q-8 -5 -16 -12
t-13 -15q-4 -4 -5 -7v-1q2 -5 6 -5q10 1 17.5 4t14.5 8q14 11 26 21.5t23 22.5l5 6v2z" />
    <glyph glyph-name="q" unicode="q" 
d="M164 350q0 -12 -6 -21t-10 -17q-14 -34 -30.5 -66.5t-30.5 -64.5q-21 -48 -37 -96t-26 -99l-4 -22t-4 -21q0 -7 1.5 -14t1.5 -14q10 0 16 5.5t11 11.5q14 16 23.5 34t20.5 36l4 8l4 8q3 3 11 3q0 -17 -1.5 -32.5t-9.5 -29.5q-4 -12 -10.5 -24t-12.5 -23q-3 -9 -8 -14
q-18 -21 -36.5 -22t-39.5 14q-18 18 -14 42q0 10 1.5 21t3.5 22q8 38 22 78t28 78q2 8 5.5 18t8.5 23h-25q-6 2 -12 4.5t-13 6.5q-16 38 5 76q11 20 20.5 37.5t21.5 34.5q6 11 15 20.5t20 17.5q11 10 25.5 9t25.5 -12q8 -8 19 -8q2 0 5 -1.5t5 -1.5q3 -2 6 -5zM109 347h-8
q-23 -16 -38 -38t-26 -50q-4 -8 -4 -12t2 -18q8 7 18.5 20.5t21.5 29.5t20.5 33.5t15.5 32.5z" />
    <glyph glyph-name="r" unicode="r" horiz-adv-x="162" 
d="M-24 199q14 33 26 66.5t14 68.5q7 4 11.5 6t9 1t10 -5.5t13.5 -12.5q7 4 11 8.5t8 10.5q14 10 27.5 19t30.5 13q14 2 26.5 1.5t23.5 -6.5q10 -4 10 -14q-4 -10 -10 -10h-9t-9 2q-12 0 -23.5 -2.5t-21.5 -13.5q-28 -26 -53 -55t-41 -66q-2 -6 -4.5 -10.5t-6.5 -10.5
q-5 -12 -16 -8q-8 2 -14.5 5t-12.5 13z" />
    <glyph glyph-name="s" unicode="s" horiz-adv-x="181" 
d="M84 235q-8 0 -17 -1.5t-15 -1.5q-8 0 -15 2t-15 6q-22 12 -25 33.5t9 44.5q6 10 21 19.5t32.5 16.5t35 10.5t29.5 2.5q9 0 14 -9q2 -6 -1 -9.5t-7 -3.5q-9 -1 -22.5 -5.5t-26.5 -11t-24.5 -14.5t-17.5 -16q-5 -7 -4 -16t6 -12h35q15 0 34.5 -8t26.5 -21q6 -13 0 -30.5
t-19.5 -37t-31.5 -38.5t-37.5 -33.5t-37 -24t-28.5 -9.5q-10 0 -16 2.5t-4 6.5q23 16 39.5 26.5t36.5 29.5q7 8 21.5 25t25 34t13 30t-14.5 13z" />
    <glyph glyph-name="t" unicode="t" horiz-adv-x="157" 
d="M79 361q-2 -6 -4 -14t-7 -16q-6 -14 -12.5 -27t-12.5 -27q-4 -11 -7.5 -20t-5.5 -20q-2 -8 -2.5 -17.5t-0.5 -17.5q2 -20 10.5 -27t28.5 -5q30 3 56 16l15 7.5t15 5.5q2 0 4.5 -1t6.5 -1q-11 -14 -20 -27t-23 -20q-31 -16 -66 -11q-29 4 -47 28.5t-16 53.5q2 14 7 28.5
t9 30.5l22 48t25 46q7 8 11 17t9 19q5 12 0 25q-6 0 -11 1t-12 1q-24 0 -49.5 -1t-51.5 -1q-19 0 -36 2t-35 8q-6 2 -10.5 6t-10.5 8q10 6 19.5 7t17.5 1h179h24q16 18 24 39q8 13 16 25t14 24q2 2 3 4.5t3 4.5q6 6 14 8t16 2q11 0 14 -6t8 -13q-17 -20 -32.5 -40t-28.5 -43
q32 -4 61 -2t58 2q27 -2 55 -1t54 1q28 -2 57 -2.5t58 -2.5q-47 -16 -105 -16q-28 -2 -54.5 -4t-54.5 -4q-30 -2 -61 -3t-62 -3h-11q-12 0 -20 -4.5t-12 -16.5q-5 -11 -12 -21t-13 -21h-2q-2 -4 -3 -6.5t-3 -6.5z" />
    <glyph glyph-name="u" unicode="u" horiz-adv-x="289" 
d="M63 363q4 -2 8 -3.5t6 -1.5q5 -6 3 -8q-8 -12 -20 -35.5t-21.5 -45.5t-13 -36.5t7.5 -8.5q6 4 9 6.5t7 4.5q27 24 54 50.5t53 50.5q6 7 11 10.5t13 3.5q4 2 9.5 -0.5t16.5 -10.5q0 -4 -0.5 -10.5t-4.5 -8.5q-14 -10 -19 -24.5t-16 -28.5q-8 -12 -10.5 -26.5t5.5 -32.5
h9.5t9.5 2q22 6 42.5 12.5t40.5 14.5q12 5 24.5 10.5t27.5 5.5q-2 -6 -10 -18t-12 -14q-20 -14 -43.5 -24.5t-45.5 -21.5q-10 -4 -18.5 -6t-19.5 -2q-8 -1 -17 3t-16 10.5t-11.5 15.5t-3.5 17q0 8 1.5 18t1.5 22q-5 -4 -8.5 -6.5t-5.5 -6.5q-12 -14 -26 -28.5t-26 -28.5
q-6 -4 -14 -9t-16 -7q-12 -7 -24 5q-7 7 -11 14.5t-4 18.5q0 16 5 30.5t10 28.5q10 24 21 45t22 44q2 4 4 6t7 4h8z" />
    <glyph glyph-name="v" unicode="v" horiz-adv-x="206" 
d="M63 355q4 -10 3.5 -19.5t-0.5 -17.5q-5 -20 -7 -40t-5 -38q-2 -11 -3.5 -23t0.5 -26q5 2 9 3t6 3q18 22 39 42t37 43q13 19 24.5 36.5t29.5 31.5q2 2 5.5 3t8.5 5q0 -8 -3 -11q-4 -10 -9.5 -18.5t-11.5 -19.5q-5 -8 -11 -16.5t-6 -20.5q0 -2 -1 -4t-1 -4
q-13 -16 -24.5 -33.5t-21.5 -33.5q-11 -11 -21 -21.5t-24 -16.5q-10 -5 -21 -6t-23 6q-8 6 -13.5 12.5t-5.5 17.5q-3 24 0 48q5 47 14 89q2 4 2.5 6t0.5 4q4 14 9 16.5t24 2.5z" />
    <glyph glyph-name="w" unicode="w" horiz-adv-x="337" 
d="M149 296q-5 -22 -4.5 -39.5t2.5 -29.5t3.5 -18.5t0.5 -6.5q15 3 28 10.5t24 17.5t20.5 20t16.5 18q22 28 43 53.5t35 57.5q2 0 2.5 2t2.5 4q10 8 14 -3q0 -6 1 -13.5t-1 -15.5q-4 -13 -10 -25.5t-14 -23.5q-40 -60 -89 -113q-8 -8 -16.5 -15t-21.5 -12q-42 -19 -71 27
q-2 6 -5.5 12.5t-7.5 12.5l-27 -27q-12 -16 -34 -25q-10 -4 -20 -3t-18 11q-18 15 -14 36q4 28 10.5 57t17.5 55q2 6 6.5 11t12.5 5q11 0 22 3t19 -11q-16 -26 -27.5 -55.5t-16.5 -59.5q6 -4 9 -1.5t8 4.5q11 12 21 25.5t23 25.5q4 4 7.5 10t8.5 11t8 7.5t6.5 3t9 0
t15.5 -2.5z" />
    <glyph glyph-name="x" unicode="x" horiz-adv-x="207" 
d="M70 243q-26 -14 -48 -28.5t-42 -31.5q-14 -12 -32 -22t-35 -14q3 9 5 14t4.5 9t6.5 8.5t11 10.5q23 16 43.5 32.5t43.5 34.5q5 2 8 5.5t6 5.5q-2 14 -7.5 20t-11.5 14q-9 14 -13 33q16 4 28 2t21.5 -8t17.5 -13.5t17 -13.5q16 14 32.5 22t33.5 16q9 5 16 2t15 -5
q13 0 11 -13q-22 -12 -42.5 -24.5t-40.5 -26.5q4 -14 13 -23t16 -20q5 -8 11 -14.5t10 -12.5q1 -4 1.5 -8t1.5 -8q-4 -9 -12 -14q-7 -2 -14.5 -2.5t-12.5 5.5q-5 5 -8 8.5t-8 7.5q-11 13 -22.5 25.5t-23.5 26.5z" />
    <glyph glyph-name="y" unicode="y" horiz-adv-x="229" 
d="M83 21q3 -9 1 -14q-16 -35 -32 -69.5t-33 -69.5q-12 -19 -25.5 -37t-26.5 -35q-11 -14 -25 -23.5t-31 -13.5q-20 -8 -36.5 -7t-30.5 15q-4 3 -4 8q-8 16 -4.5 34.5t9.5 36.5l18 36t23 30q5 5 8 10t7 10q21 32 47 60t51 57q14 16 31.5 30t34.5 28q14 8 24 19.5t21 23.5
q5 9 11 18.5t5 20.5q2 12 8.5 23t2.5 25q-3 -2 -5 -2.5t-4 -2.5l-14 -12l-14 -12q-10 -8 -19 -14t-20 -8q-20 -6 -35.5 0t-19.5 32q3 8 6 19t5 22q2 14 7.5 23t10.5 19q6 11 13 21t13 23q4 10 12 16t17 8q11 2 18 -1.5t7 -17.5q-17 -24 -32.5 -51t-26.5 -56q5 -5 8 -3.5
t6 5.5q47 37 87 86q10 11 22 22q6 -2 12.5 -4t15.5 -4q-2 -13 -1.5 -25t-6.5 -24q-14 -28 -20 -54.5t-15 -55.5q1 -1 1 -2v-6q5 2 10 2.5t9 0.5q0 -1 1 -2q0 -1 0.5 -2t0.5 -2q-7 -6 -9 -8q-23 -11 -33.5 -30t-17.5 -39q-8 -16 -15.5 -32.5t-14.5 -31.5q-2 -4 -6 -7.5
t-7 -8.5q3 5 3.5 7t1.5 4q-1 -2 -1.5 -4t-3.5 -4zM86 90q-10 0 -17.5 -5t-14.5 -12q-10 -6 -18 -14t-17 -16q-8 -8 -18 -16.5t-19 -16.5q-12 -12 -23.5 -26t-19.5 -31q-9 -20 -21 -39t-21 -38q-9 -14 -14 -30t-9 -30q-2 -15 5.5 -20.5t19.5 0.5q8 5 17 12.5t15 15.5
q17 19 32 36.5t26 43.5q1 6 5 11t8 11q8 13 17 23.5t14 22.5q9 20 19.5 39t19.5 38q5 8 10 18t4 23z" />
    <glyph glyph-name="z" unicode="z" horiz-adv-x="224" 
d="M-23 57q-4 -36 -25 -55q-12 -17 -23.5 -35t-19.5 -38q0 -2 -1.5 -5.5t-1.5 -5.5q7 -5 11.5 -6.5t10.5 3.5q6 2 11.5 6t10.5 8q24 14 45.5 31.5t44.5 36.5q8 8 14.5 16t12.5 16q4 11 11.5 21t16.5 18q6 7 10 12t9 13q16 30 25 62q0 5 1.5 7.5t1.5 4.5q0 23 -14 35.5
t-37 10.5q-4 0 -9.5 -1.5t-12.5 -1.5q-14 0 -21 -8q-6 -8 -14 -8h-16q-7 2 -10 7.5t-7 11.5q15 22 36 43q8 12 18.5 21.5t16.5 23.5q-12 0 -23.5 -0.5t-22.5 3.5q-3 14 11 19q14 6 28.5 13t29.5 9q20 4 31 -0.5t24 -24.5q-8 -20 -25.5 -35t-29.5 -37q6 -4 13 -4.5t11 -0.5
q16 -3 29.5 -13.5t22 -25.5t10.5 -33.5t-4 -36.5q-12 -34 -38 -61q-9 -12 -18 -23.5t-15 -25.5q-5 -8 -12.5 -16.5t-15.5 -16.5q-2 -4 -7 -7t-7 -9q-18 -23 -40 -40t-45 -34q-25 -17 -54 -22q-16 -5 -34 5.5t-24 24.5q-5 5 0 15q2 6 4 13.5t6 13.5q14 18 25.5 34t28.5 30
q8 8 15 18t17 16q2 0 5 2z" />
    <glyph glyph-name="braceleft" unicode="{" horiz-adv-x="200" 
d="M87 358q17 -7 17.5 -28.5t-6.5 -47.5t-16.5 -51t-12.5 -40q-2 -11 -3.5 -21t-0.5 -19t6 -16.5t16 -11.5q4 -2 12.5 0t11.5 2q4 -2 9 -6t8 -8.5t2.5 -8.5t-6.5 -6t-13 -3t-16 1q-14 3 -27 9.5t-22 19.5q-17 13 -17 37q0 8 0.5 16t4.5 16q6 23 14 45.5t15 45.5q3 17 8 25
q2 7 0.5 12.5t-4.5 11.5q-3 -2 -7.5 -3t-7.5 -3q-11 -2 -19.5 1.5t-16.5 9.5q-4 4 0 11q5 2 11.5 5.5t12.5 5.5q6 3 11 8l10 10q6 10 13.5 20t12.5 22q3 12 7.5 23.5t8.5 23.5q3 12 12.5 37.5t21.5 51.5t24.5 45.5t21.5 19.5q13 0 17 -0.5t17 -9.5q-14 -4 -29 -23t-23 -37
q-10 -25 -17 -47.5t-14.5 -44t-17 -43t-23.5 -43.5q-2 -3 -3 -5.5t-3 -8.5z" />
    <glyph glyph-name="bar" unicode="|" horiz-adv-x="163" 
d="M27 85q-1 -15 -6.5 -18.5t-11.5 0t-10.5 12t-2.5 16.5q4 28 9.5 61t11.5 67t12.5 67t12.5 60q7 31 16 68.5t19 76.5t20 77.5t19 71.5q0 8 5.5 18.5t13.5 18t18 9t21 -8.5q-4 -7 -6 -11.5t-3.5 -9t-3 -9.5t-4.5 -13q-18 -47 -31.5 -97t-26 -102t-25.5 -106.5t-29 -111.5
q-6 -35 -11.5 -68.5t-6.5 -67.5z" />
    <glyph glyph-name="braceright" unicode="}" horiz-adv-x="176" 
d="M96 265q-10 -35 -13 -67.5t-19 -60.5q-11 -17 -24 -23t-31 -5q-22 2 -36 17q0 5 4 5q5 2 16 0.5t16 -0.5q31 18 41 48t13.5 63.5t8.5 66.5t27 57q5 5 13 7.5t5 10.5q-10 12 -14.5 19.5t-5 15t2 16.5t6.5 24q7 23 16 47t9 46q-2 18 -15 29t-24 23l1 1q2 2 2 3h2
q6 1 11.5 0t11.5 -2q13 0 23.5 -8.5t17 -20.5t8.5 -26t-2 -24q-5 -12 -12 -30t-13 -36.5t-9 -35.5t1 -27q2 -5 6 -10.5t9 -12.5q5 -4 6.5 -8.5t3.5 -11.5q2 -5 -0.5 -9t-8.5 -6q-12 1 -22 -7.5t-16.5 -20.5t-10.5 -25t-5 -22z" />
    <glyph glyph-name="asciitilde" unicode="~" horiz-adv-x="266" 
d="M90 270q23 0 33 -16q4 -4 6.5 -8.5t6.5 -7.5q5 -11 15.5 -12.5t19.5 2.5q18 7 34 26q4 7 7 10q1 4 6 4t7 -3q1 -2 3.5 -3.5t4.5 -5.5q11 -10 2 -23q-8 -19 -27 -27q-7 -4 -14 -5.5t-15 -3.5q-13 -7 -28 1q-14 6 -26 12.5t-23 18.5q-2 3 -4 4.5l-6 4.5q-4 2 -7 0
q-5 -5 -8 -10t-8 -8q-2 -6 -10 -9q-12 -7 -23 0q-2 3 -8 7q-4 4 0 6q5 7 10.5 11.5t9.5 8.5q8 8 15 13.5t16 7.5q2 3 6 4t5 1z" />
    <glyph glyph-name="exclamdown" unicode="&#xa1;" horiz-adv-x="247" 
d="M74.0098 24.0371q-4.99902 -2 -10.499 -4t-10.499 -6q-8 -2 -11.5 -2.5q-3.49902 -0.5 -8.49902 3.5q-5 2 -7 7.5q-1.99902 5.49902 -1.99902 8.49902q1.99902 5 3.99902 10.5q2 5.49902 4 8.49902q6 16.999 13.999 34.498q8 17.499 14.999 35.498l17.999 50.9961
q9 22.999 17.999 43.998q8.99902 20.998 13.999 42.9971q9 19.999 14.999 39.498q6 19.498 11.999 36.4971q4 8 7 12.999q3 5 9.99902 9q9 3 12 11.999q1.99902 4 5.99902 4q2 2 4 0l3 -2q-1 -5 -1 -11.999q-5 -14.999 -10.5 -31.498q-5.49902 -16.499 -11.499 -34.498
q0 -6 -3 -10.999q-1.99902 -7 -5.99902 -12.5q-4 -5.49902 -5 -10.499q-7.99902 -29.998 -18.999 -57.4961q-10.999 -27.499 -18.999 -57.4971q-6.99902 -29.998 -16.499 -58.4961q-9.49902 -28.498 -14.499 -60.4961zM216.002 496.008q-4 -29.998 -14 -60.9961
q-2 -6 -3.49902 -9.99902q-1.5 -4 -4 -6.5t-6 -5.5q-3.5 -2.99902 -10.499 -7.99902q-2 2 -7 2.5q-4.99902 0.5 -8.99902 2.5q-4 1.99902 -8.5 7.99902q-4.49902 6 -2.49902 10.999q5.99902 16.999 10.999 32.998t13.999 31.998q8 12 18.999 13.999
q5.99902 0 11.499 -1.99902q5.5 -2 9.5 -10z" />
    <glyph glyph-name="sterling" unicode="&#xa3;" horiz-adv-x="354" 
d="M-3 160q15 8 27.5 18t24.5 19q10 7 10 12q0 17 4 31.5t7 28.5q3 9 4.5 17.5t3.5 16.5q0 6 -6 6q-5 0 -8 -1t-7 -1q-16 -3 -34 5q-4 0 -4 4q0 2 1 4q0 1 1 3q7 5 14 5q13 4 27.5 8t29.5 7q3 9 7 16.5t7 15.5q10 28 23 50q14 23 31 45q9 17 22.5 30t29.5 25q3 1 6 2.5
t8 1.5q7 -2 13.5 -2.5t11.5 -1.5q4 -2 7.5 -4t6.5 -3q12 -5 15.5 -13t3.5 -19q-2 -4 -3 -8.5t-3 -8.5q-8 -6 -17.5 -7t-17.5 3q-6 2 -11.5 2.5t-11.5 0.5q-2 1 -2 1.5t-2 0.5q7 7 12 7q7 3 8.5 8t6.5 8q0 2 -1.5 4t-1.5 4q-1 2 -10 2q-8 -4 -14 -9.5t-11 -10.5
q-25 -29 -42.5 -60.5t-31.5 -66.5v-9q13 -2 25.5 -2h24.5q12 -2 23.5 -3t23.5 -1q-5 -17 -23 -17t-36 -3q-7 -2 -15.5 -1t-16.5 1t-11 -3q-6 0 -10 -4q-2 -8 -4 -15.5t-4 -12.5q-3 -14 -7 -28t-8 -26q-1 -4 -1 -9q0 -1 1 -3.5t5 -2.5q5 0 9 0.5t9 2.5q37 5 78 -3
q8 -1 17.5 -4t18.5 -7q12 -5 23.5 -10t24.5 -11q8 -4 17 -6.5t20 -0.5q13 3 24 -8q0 -5 -2.5 -8t-5.5 -5l-10 -4l-10 -4q-18 2 -33 7.5t-30 13.5q-26 14 -57 21q-13 2 -25 4.5t-26 -1.5q-7 -1 -13.5 -1.5t-14.5 -3.5q-8 -2 -15 -4.5t-13 -8.5q-2 -5 -7 -7.5l-11 -5.5
q-3 0 -5.5 -2t-5.5 -4q-12 -9 -27 -18q-7 -5 -16 -3.5t-17 6.5l-2 2v1q-2 4 -2 12z" />
    <glyph glyph-name="currency" unicode="&#xa4;" horiz-adv-x="281" 
d="M122 442q5 0 8 -2l6 -4q5 -3 5 -10t-7 -9q-2 -2 -3 -4t-5 -2l-4.5 -3t-5.5 -3q-11 -16 -15 -33t-9 -35v-5t2 -8q0 -2 1.5 -4.5t3.5 -2.5h16t13 5q16 7 28 18t22 23q4 5 6.5 9.5t2.5 11.5q0 9 -6 9q-3 1 -6 1.5t-6 2.5q-8 4 -10 10q-2 3 -6 4.5t-2 6.5q0 2 1 2t1 2
q11 5 19.5 12t16.5 15q8 6 16.5 13.5t16.5 13.5q4 4 9 4q4 3 6 0t2 -5q-3 -23 -17 -39q-5 -5 -9.5 -11t-9.5 -10q0 -3 -1 -4.5t-2 -3.5l10 -10q9 -8 10 -17.5t-3 -18.5q-3 -11 -10 -20.5t-15 -20.5q-2 -4 -3.5 -6t-3.5 -4q17 -10 29 -25t23 -29q0 -4 2 -4q13 -16 3 -35
q0 -3 -2.5 -5.5t-3.5 -0.5q-3 0 -7 4q-2 0 -3 2t-1 4q-11 21 -26.5 38t-29.5 36q-2 2 -3 2h-1q-13 -5 -21 -7.5t-15.5 -3.5t-15.5 -0.5t-21 2.5l-4 -4l-4 -4q-8 -14 -15.5 -25t-15.5 -22q-3 -7 -9.5 -9.5t-12.5 -4.5q-6 4 -12 7q7 12 13 21.5t9 20.5q0 2 2 3.5t2 5.5
q3 2 5 5t6 6q6 13 6 27q-3 26 1 46q4 11 7 21q4 9 8 20t6 22q-2 9 -6.5 15.5t-9.5 12.5q-6 10 -12.5 18.5t-12.5 18.5q-2 2 -1 4.5t3 4.5q10 3 17.5 2.5t12.5 -7.5q7 -7 11.5 -15.5t11.5 -16.5q3 -5 6.5 -9.5t7.5 -9.5h10z" />
    <glyph glyph-name="yen" unicode="&#xa5;" horiz-adv-x="294" 
d="M150 375q5 0 5 4q12 19 22.5 37.5t21.5 38.5q3 5 5 10.5t3 10.5q3 8 4.5 13.5t6.5 12.5q1 2 0.5 3.5t0.5 3.5q0 2 1.5 5l3.5 7q17 4 32 0q5 0 6.5 -6t-0.5 -11q-14 -21 -26.5 -44.5t-26.5 -48.5q-10 -18 -20.5 -39t-21.5 -41q-3 -2 -3 -7q-2 -2 0.5 -3t4.5 -1
q2 -2 4 -2.5t4 -0.5q14 0 27.5 0.5t27.5 2.5q11 0 21.5 -3t21.5 -5q2 0 5 -3t3 -7t-3.5 -6.5t-6.5 -0.5q-13 3 -24 1.5t-23 -1.5h-15t-15 -2q-11 -2 -20.5 -2.5t-18.5 -2.5q-13 0 -16 -13q-2 -2 -0.5 -4.5t4.5 -2.5q2 -1 10 -1q7 1 15.5 2t16.5 1q9 0 18 0.5t19 -3.5
q6 0 6 -7q0 -3 -1.5 -7t-4.5 -4q-10 0 -19 -2.5t-18 -4.5q-15 0 -28.5 -3t-27.5 -5q-14 0 -17 -13q-5 -8 -9 -16t-9 -17q-4 -13 -10 -23q-4 -5 -5.5 -11t-5.5 -11q-6 -20 -23 -20q-4 0 -7 2.5t-1 6.5q0 8 0.5 15.5t2.5 15.5q2 2 2 8q5 13 8 23.5t11 20.5q0 5 -2.5 7.5
t-4.5 5.5q-3 5 -2 9.5t5 6.5q11 4 17.5 10.5t12.5 15.5q-2 2 -3 4.5t-3 2.5q-4 -2 -17 -2q-14 -7 -29 -10q-8 -4 -15.5 -1.5t-15.5 4.5v4q2 2 2 4t2 4q9 6 19 10q14 5 26 9t26 6q6 0 11 1.5t11 3.5q5 2 9 3.5t7 6.5q2 5 5 10t6 9q-5 7 -8.5 12t-6.5 12q-13 23 -28 46t-28 48
q-6 11 -14 22t-19 19q-6 5 -12 8.5t-12 7.5q-2 0 -3 1q-1 0 -1 1q0 5 4 5q15 7 29 5t28 -16q25 -25 44 -61q8 -13 15.5 -25.5t13.5 -26.5q3 -6 7 -11.5t6 -10.5z" />
    <glyph glyph-name="dieresis" unicode="&#xa8;" horiz-adv-x="314" 
d="M61 590q5 2 9 1.5t7 1.5q10 6 18.5 0t13 -15.5t4 -19t-7.5 -9.5q-22 -7 -47 12q-3 1 -5 6t-2 10t2.5 9t7.5 4zM201 590q5 2 9 1.5t7 1.5q10 6 18.5 0t13 -15.5t4 -19t-7.5 -9.5q-22 -7 -47 12q-3 1 -5 6t-2 10t2.5 9t7.5 4z" />
    <glyph glyph-name="acute" unicode="&#xb4;" horiz-adv-x="171" 
d="M29 400q8 22 24 40t32 29q10 8 21 8q3 0 4 -1q13 -2 18.5 -7t14.5 -13q4 -6 -1 -6q-7 -1 -12 -3.5t-10 -5.5q-2 -2 -3 -3.5t-3 -3.5q-7 -7 -13.5 -13t-13.5 -12q-9 -9 -19 -16q-4 -4 -8.5 -7t-7.5 -8q-1 -2 -2.5 -2.5t-2.5 -2.5q-4 -2 -5 -1.5t-4 2.5q-8 6 -10 17
q0 2 -0.5 4.5t1.5 4.5z" />
    <glyph glyph-name="questiondown" unicode="&#xbf;" horiz-adv-x="307" 
d="M211.006 100.036q2 -4 3 -7.5q1 -3.49902 3 -8.49902q-5 -3 -9 -8q-7.99902 0 -14.499 -2.49902q-6.49902 -2.5 -14.499 -6.5q-15.999 -8.99902 -33.498 -11.999t-37.4971 -7q-13.999 -2 -27.499 1.5q-13.499 3.5 -25.498 8.5q-12.999 4.99902 -19.999 12.999
q-6.99902 7.99902 -13.999 18.999q-3 7.99902 -2.5 16.499q0.5 8.49902 2.5 17.498q4 16.999 12.999 32.998q9 15.999 21.999 29.999q13.999 15.998 31.498 30.498q17.499 14.499 34.498 30.498q17.999 17.999 36.998 39.9971q18.998 19.999 34.4971 39.498t26.499 42.4971
q2 3 5.99902 11.499q4 8.5 8.5 17.999q4.49902 9.5 7.49902 17.999q3 8.5 4 11.499q6 11 8.5 17.499q2.49902 6.5 12.499 8.5q4.99902 0 9.99902 -7q0 -4.99902 0.5 -8.49902t-1.5 -8.5q-2 -7.99902 -5.99902 -20.998q-4 -13 -9 -26.999t-9.99902 -26.998
q-5 -12.999 -10 -19.999q-32.998 -55.9961 -79.9951 -100.994q-14.999 -14.999 -27.998 -29.498t-27.998 -31.498q-9.99902 -11.999 -18.499 -25.498q-8.49902 -13.499 -16.499 -27.498q-5 -8 -6 -14q-2.99902 -22.998 15.999 -22.998q6 0 12 -1q5.99902 -1 10.999 1
q11.999 3 23.999 5.5q11.999 2.49902 25.998 7.49902q3 2 6.49902 4q3.5 2 5.5 4q10.999 4.99902 21.499 5.49902q10.499 0.5 24.498 -10.499zM261.003 493.012q-5 5 -8.99902 9.5q-4 4.5 -6 9.49902q-2 2 -2 12.999v14.999q0 3 3.5 6t6.5 3q6.99902 2 12.499 -0.5
q5.49902 -2.5 10.499 -6.5q5 -3.99902 7.5 -8.49902t5.49902 -8.5q3 -6.99902 -1.5 -20.498q-4.49902 -13.5 -13.499 -13.5q-4 0 -6.99902 1q-3 1 -7 1z" />
    <glyph glyph-name="Agrave" unicode="&#xc0;" horiz-adv-x="594" 
d="M345 -135q1 3 0.5 7t0.5 7q2 14 4 27t6 26q2 5 2.5 9t1.5 8q3 14 6 27t9 25q2 4 3 8.5t2 9.5q0 16 8 35q6 19 11.5 37.5t10.5 37.5q2 8 3 11q5 10 8 20t5 21q4 20 7.5 39t8.5 39q0 2 -2 5t-4 3q-1 1 -3 1h-15q-8 -2 -15.5 -3.5t-15.5 -3.5q-22 -7 -43.5 -12.5
t-43.5 -12.5q-28 -8 -55 -17.5t-53 -20.5q-5 -2 -9 -5.5t-8 -7.5q-1 -1 -1 -2t-1 -1q-6 -10 -12 -18.5t-12 -17.5q-15 -26 -30 -51.5t-28 -52.5q-5 -11 -11.5 -22t-13.5 -22q-4 -6 -11 -9q-4 -2 -10 -4q-14 -3 -25 2q-2 0 -3 1t-3 2q-5 1 -8 4t-5 7q-4 5 -1 10q3 4 5.5 6.5
t4.5 7.5q14 24 27.5 48t26.5 50q6 11 -7 13h-4q-8 -1 -14.5 1t-13.5 5q-2 0 -6 4q-8 6 -2 12q3 5 4 6q8 9 22 18q8 4 15 7t14 7q11 5 20.5 9t19.5 9q11 5 18.5 11.5t14.5 14.5q11 14 22.5 28.5t22.5 28.5l30 36t30 35q21 23 41 46t41 46q13 14 26 27l27 27q9 9 17.5 18
t17.5 18q5 5 8.5 9.5t8.5 9.5q6 5 12 10.5t12 11.5q8 9 21 19q4 4 8 7t9 6q23 19 34 42q2 4 4.5 7.5t4.5 8.5q4 7 10 9.5t14 3.5q3 0 6.5 -0.5t7.5 -0.5q5 -1 8.5 -6t4.5 -10q2 -7 -1 -17q-2 -11 -5.5 -20.5t-6.5 -20.5q-14 -47 -25 -91q-3 -15 -7.5 -31t-9.5 -31
q-8 -27 -14.5 -54t-14.5 -54q-1 -3 -1 -5.5t-1 -4.5q-5 -23 17 -20q6 1 11 1.5t11 1.5q2 0 5 -0.5t6 -0.5l2 -2q2 -4 0 -7q-3 -7 -10 -10q-14 -10 -29 -14q-5 -2 -10 -3.5t-10 -3.5q-8 -3 -10 -10q-2 -4 -4 -10q-13 -42 -25 -84.5t-24 -85.5l-2 -8t-3 -9q-4 -12 -7 -24
l-6 -24q-2 -11 -6 -21t-6 -21q-5 -14 -9.5 -28.5t-9.5 -29.5q-3 -9 -5.5 -18.5t-4.5 -19.5q-5 -21 -10 -35q-4 -8 -9 -12q-2 -2 -6.5 -0.5t-5.5 4.5t-1 5.5t-1 5.5zM257 267q20 5 40.5 10t40.5 9t40 9.5t40 10.5q18 3 34 12q9 7 11 13l8 24t7 24q5 21 9 42t7 42q2 6 2 11.5
t2 10.5q6 23 10.5 45.5t9.5 45.5q1 2 1 7t-3 6q-2 2 -7 -1q-5 -5 -10.5 -11t-11.5 -11q-8 -6 -13.5 -12.5t-12.5 -13.5q-14 -17 -27 -33.5t-30 -30.5q-2 -1 -5 -6q-8 -8 -15 -17t-15 -18l-16.5 -16.5t-13.5 -19.5l-3.5 -3.5l-3.5 -3.5q-10 -10 -18 -20.5t-16 -21.5
q-10 -13 -20 -25.5t-20 -25.5l-8 -10t-7 -10q-2 -2 -2 -7q-1 -2 1.5 -4.5t4.5 -2.5q2 1 5 1t5 1zM611 763q2 -2 1.5 -4.5t-0.5 -4.5q-2 -11 -10 -17q-3 -2 -4 -2.5t-5 1.5q-1 2 -2.5 2.5t-2.5 2.5q-3 5 -7.5 8t-8.5 7q-11 7 -19 16q-7 6 -13.5 12t-13.5 13q-2 2 -3 3.5
t-3 3.5q-5 3 -10 5.5t-12 3.5q-5 0 -1 6q9 8 14.5 13t18.5 7q1 1 4 1q11 0 21 -8q16 -11 32 -29t24 -40z" />
    <glyph glyph-name="Aacute" unicode="&#xc1;" horiz-adv-x="594" 
d="M345 -135q1 3 0.5 7t0.5 7q2 14 4 27t6 26q2 5 2.5 9t1.5 8q3 14 6 27t9 25q2 4 3 8.5t2 9.5q0 16 8 35q6 19 11.5 37.5t10.5 37.5q2 8 3 11q5 10 8 20t5 21q4 20 7.5 39t8.5 39q0 2 -2 5t-4 3q-1 1 -3 1h-15q-8 -2 -15.5 -3.5t-15.5 -3.5q-22 -7 -43.5 -12.5
t-43.5 -12.5q-28 -8 -55 -17.5t-53 -20.5q-5 -2 -9 -5.5t-8 -7.5q-1 -1 -1 -2t-1 -1q-6 -10 -12 -18.5t-12 -17.5q-15 -26 -30 -51.5t-28 -52.5q-5 -11 -11.5 -22t-13.5 -22q-4 -6 -11 -9q-4 -2 -10 -4q-14 -3 -25 2q-2 0 -3 1t-3 2q-5 1 -8 4t-5 7q-4 5 -1 10q3 4 5.5 6.5
t4.5 7.5q14 24 27.5 48t26.5 50q6 11 -7 13h-4q-8 -1 -14.5 1t-13.5 5q-2 0 -6 4q-8 6 -2 12q3 5 4 6q8 9 22 18q8 4 15 7t14 7q11 5 20.5 9t19.5 9q11 5 18.5 11.5t14.5 14.5q11 14 22.5 28.5t22.5 28.5l30 36t30 35q21 23 41 46t41 46q13 14 26 27l27 27q9 9 17.5 18
t17.5 18q5 5 8.5 9.5t8.5 9.5q6 5 12 10.5t12 11.5q8 9 21 19q4 4 8 7t9 6q23 19 34 42q2 4 4.5 7.5t4.5 8.5q4 7 10 9.5t14 3.5q3 0 6.5 -0.5t7.5 -0.5q5 -1 8.5 -6t4.5 -10q2 -7 -1 -17q-2 -11 -5.5 -20.5t-6.5 -20.5q-14 -47 -25 -91q-3 -15 -7.5 -31t-9.5 -31
q-8 -27 -14.5 -54t-14.5 -54q-1 -3 -1 -5.5t-1 -4.5q-5 -23 17 -20q6 1 11 1.5t11 1.5q2 0 5 -0.5t6 -0.5l2 -2q2 -4 0 -7q-3 -7 -10 -10q-14 -10 -29 -14q-5 -2 -10 -3.5t-10 -3.5q-8 -3 -10 -10q-2 -4 -4 -10q-13 -42 -25 -84.5t-24 -85.5l-2 -8t-3 -9q-4 -12 -7 -24
l-6 -24q-2 -11 -6 -21t-6 -21q-5 -14 -9.5 -28.5t-9.5 -29.5q-3 -9 -5.5 -18.5t-4.5 -19.5q-5 -21 -10 -35q-4 -8 -9 -12q-2 -2 -6.5 -0.5t-5.5 4.5t-1 5.5t-1 5.5zM257 267q20 5 40.5 10t40.5 9t40 9.5t40 10.5q18 3 34 12q9 7 11 13l8 24t7 24q5 21 9 42t7 42q2 6 2 11.5
t2 10.5q6 23 10.5 45.5t9.5 45.5q1 2 1 7t-3 6q-2 2 -7 -1q-5 -5 -10.5 -11t-11.5 -11q-8 -6 -13.5 -12.5t-12.5 -13.5q-14 -17 -27 -33.5t-30 -30.5q-2 -1 -5 -6q-8 -8 -15 -17t-15 -18l-16.5 -16.5t-13.5 -19.5l-3.5 -3.5l-3.5 -3.5q-10 -10 -18 -20.5t-16 -21.5
q-10 -13 -20 -25.5t-20 -25.5l-8 -10t-7 -10q-2 -2 -2 -7q-1 -2 1.5 -4.5t4.5 -2.5q2 1 5 1t5 1zM515 775q8 22 24 40t32 29q10 8 21 8q3 0 4 -1q13 -2 18.5 -7t14.5 -13q4 -6 -1 -6q-7 -1 -12 -3.5t-10 -5.5q-2 -2 -3 -3.5t-3 -3.5q-7 -7 -13.5 -13t-13.5 -12
q-9 -9 -19 -16q-4 -4 -8.5 -7t-7.5 -8q-1 -2 -2.5 -2.5t-2.5 -2.5q-4 -2 -5 -1.5t-4 2.5q-8 6 -10 17q0 2 -0.5 4.5t1.5 4.5z" />
    <glyph glyph-name="Acircumflex" unicode="&#xc2;" horiz-adv-x="594" 
d="M345 -135q1 3 0.5 7t0.5 7q2 14 4 27t6 26q2 5 2.5 9t1.5 8q3 14 6 27t9 25q2 4 3 8.5t2 9.5q0 16 8 35q6 19 11.5 37.5t10.5 37.5q2 8 3 11q5 10 8 20t5 21q4 20 7.5 39t8.5 39q0 2 -2 5t-4 3q-1 1 -3 1h-15q-8 -2 -15.5 -3.5t-15.5 -3.5q-22 -7 -43.5 -12.5
t-43.5 -12.5q-28 -8 -55 -17.5t-53 -20.5q-5 -2 -9 -5.5t-8 -7.5q-1 -1 -1 -2t-1 -1q-6 -10 -12 -18.5t-12 -17.5q-15 -26 -30 -51.5t-28 -52.5q-5 -11 -11.5 -22t-13.5 -22q-4 -6 -11 -9q-4 -2 -10 -4q-14 -3 -25 2q-2 0 -3 1t-3 2q-5 1 -8 4t-5 7q-4 5 -1 10q3 4 5.5 6.5
t4.5 7.5q14 24 27.5 48t26.5 50q6 11 -7 13h-4q-8 -1 -14.5 1t-13.5 5q-2 0 -6 4q-8 6 -2 12q3 5 4 6q8 9 22 18q8 4 15 7t14 7q11 5 20.5 9t19.5 9q11 5 18.5 11.5t14.5 14.5q11 14 22.5 28.5t22.5 28.5l30 36t30 35q21 23 41 46t41 46q13 14 26 27l27 27q9 9 17.5 18
t17.5 18q5 5 8.5 9.5t8.5 9.5q6 5 12 10.5t12 11.5q8 9 21 19q4 4 8 7t9 6q23 19 34 42q2 4 4.5 7.5t4.5 8.5q4 7 10 9.5t14 3.5q3 0 6.5 -0.5t7.5 -0.5q5 -1 8.5 -6t4.5 -10q2 -7 -1 -17q-2 -11 -5.5 -20.5t-6.5 -20.5q-14 -47 -25 -91q-3 -15 -7.5 -31t-9.5 -31
q-8 -27 -14.5 -54t-14.5 -54q-1 -3 -1 -5.5t-1 -4.5q-5 -23 17 -20q6 1 11 1.5t11 1.5q2 0 5 -0.5t6 -0.5l2 -2q2 -4 0 -7q-3 -7 -10 -10q-14 -10 -29 -14q-5 -2 -10 -3.5t-10 -3.5q-8 -3 -10 -10q-2 -4 -4 -10q-13 -42 -25 -84.5t-24 -85.5l-2 -8t-3 -9q-4 -12 -7 -24
l-6 -24q-2 -11 -6 -21t-6 -21q-5 -14 -9.5 -28.5t-9.5 -29.5q-3 -9 -5.5 -18.5t-4.5 -19.5q-5 -21 -10 -35q-4 -8 -9 -12q-2 -2 -6.5 -0.5t-5.5 4.5t-1 5.5t-1 5.5zM257 267q20 5 40.5 10t40.5 9t40 9.5t40 10.5q18 3 34 12q9 7 11 13l8 24t7 24q5 21 9 42t7 42q2 6 2 11.5
t2 10.5q6 23 10.5 45.5t9.5 45.5q1 2 1 7t-3 6q-2 2 -7 -1q-5 -5 -10.5 -11t-11.5 -11q-8 -6 -13.5 -12.5t-12.5 -13.5q-14 -17 -27 -33.5t-30 -30.5q-2 -1 -5 -6q-8 -8 -15 -17t-15 -18l-16.5 -16.5t-13.5 -19.5l-3.5 -3.5l-3.5 -3.5q-10 -10 -18 -20.5t-16 -21.5
q-10 -13 -20 -25.5t-20 -25.5l-8 -10t-7 -10q-2 -2 -2 -7q-1 -2 1.5 -4.5t4.5 -2.5q2 1 5 1t5 1zM592 854v-2h1q16 -13 16 -35q0 -10 2 -18.5t4 -16.5q2 -4 2 -11q0 -5 -4.5 -9.5t-8.5 -4.5t-6 3t-4.5 4.5t-4.5 6.5q-3 5 -4.5 10.5t-5.5 10.5q-1 2 -2 5l-2 6q-9 -9 -13 -18
q-5 -3 -7.5 -6.5t-7.5 -7.5q-3 -5 -7 -7.5t-8 -7.5q-5 -3 -6 -3q-8 -6 -15 3q-2 5 -4.5 7.5t-3.5 7.5q19 19 37 39.5t33 43.5h19z" />
    <glyph glyph-name="Atilde" unicode="&#xc3;" horiz-adv-x="594" 
d="M345 -135q1 3 0.5 7t0.5 7q2 14 4 27t6 26q2 5 2.5 9t1.5 8q3 14 6 27t9 25q2 4 3 8.5t2 9.5q0 16 8 35q6 19 11.5 37.5t10.5 37.5q2 8 3 11q5 10 8 20t5 21q4 20 7.5 39t8.5 39q0 2 -2 5t-4 3q-1 1 -3 1h-15q-8 -2 -15.5 -3.5t-15.5 -3.5q-22 -7 -43.5 -12.5
t-43.5 -12.5q-28 -8 -55 -17.5t-53 -20.5q-5 -2 -9 -5.5t-8 -7.5q-1 -1 -1 -2t-1 -1q-6 -10 -12 -18.5t-12 -17.5q-15 -26 -30 -51.5t-28 -52.5q-5 -11 -11.5 -22t-13.5 -22q-4 -6 -11 -9q-4 -2 -10 -4q-14 -3 -25 2q-2 0 -3 1t-3 2q-5 1 -8 4t-5 7q-4 5 -1 10q3 4 5.5 6.5
t4.5 7.5q14 24 27.5 48t26.5 50q6 11 -7 13h-4q-8 -1 -14.5 1t-13.5 5q-2 0 -6 4q-8 6 -2 12q3 5 4 6q8 9 22 18q8 4 15 7t14 7q11 5 20.5 9t19.5 9q11 5 18.5 11.5t14.5 14.5q11 14 22.5 28.5t22.5 28.5l30 36t30 35q21 23 41 46t41 46q13 14 26 27l27 27q9 9 17.5 18
t17.5 18q5 5 8.5 9.5t8.5 9.5q6 5 12 10.5t12 11.5q8 9 21 19q4 4 8 7t9 6q23 19 34 42q2 4 4.5 7.5t4.5 8.5q4 7 10 9.5t14 3.5q3 0 6.5 -0.5t7.5 -0.5q5 -1 8.5 -6t4.5 -10q2 -7 -1 -17q-2 -11 -5.5 -20.5t-6.5 -20.5q-14 -47 -25 -91q-3 -15 -7.5 -31t-9.5 -31
q-8 -27 -14.5 -54t-14.5 -54q-1 -3 -1 -5.5t-1 -4.5q-5 -23 17 -20q6 1 11 1.5t11 1.5q2 0 5 -0.5t6 -0.5l2 -2q2 -4 0 -7q-3 -7 -10 -10q-14 -10 -29 -14q-5 -2 -10 -3.5t-10 -3.5q-8 -3 -10 -10q-2 -4 -4 -10q-13 -42 -25 -84.5t-24 -85.5l-2 -8t-3 -9q-4 -12 -7 -24
l-6 -24q-2 -11 -6 -21t-6 -21q-5 -14 -9.5 -28.5t-9.5 -29.5q-3 -9 -5.5 -18.5t-4.5 -19.5q-5 -21 -10 -35q-4 -8 -9 -12q-2 -2 -6.5 -0.5t-5.5 4.5t-1 5.5t-1 5.5zM257 267q20 5 40.5 10t40.5 9t40 9.5t40 10.5q18 3 34 12q9 7 11 13l8 24t7 24q5 21 9 42t7 42q2 6 2 11.5
t2 10.5q6 23 10.5 45.5t9.5 45.5q1 2 1 7t-3 6q-2 2 -7 -1q-5 -5 -10.5 -11t-11.5 -11q-8 -6 -13.5 -12.5t-12.5 -13.5q-14 -17 -27 -33.5t-30 -30.5q-2 -1 -5 -6q-8 -8 -15 -17t-15 -18l-16.5 -16.5t-13.5 -19.5l-3.5 -3.5l-3.5 -3.5q-10 -10 -18 -20.5t-16 -21.5
q-10 -13 -20 -25.5t-20 -25.5l-8 -10t-7 -10q-2 -2 -2 -7q-1 -2 1.5 -4.5t4.5 -2.5q2 1 5 1t5 1zM549 843q23 0 33 -16q4 -4 6.5 -8.5t6.5 -7.5q5 -11 15.5 -12.5t19.5 2.5q18 7 34 26q4 7 7 10q1 4 6 4t7 -3q1 -2 3.5 -3.5t4.5 -5.5q11 -10 2 -23q-8 -19 -27 -27
q-7 -4 -14 -5.5t-15 -3.5q-13 -7 -28 1q-14 6 -26 12.5t-23 18.5q-2 3 -4 4.5l-6 4.5q-4 2 -7 0q-5 -5 -8 -10t-8 -8q-2 -6 -10 -9q-12 -7 -23 0q-2 3 -8 7q-4 4 0 6q5 7 10.5 11.5t9.5 8.5q8 8 15 13.5t16 7.5q2 3 6 4t5 1z" />
    <glyph glyph-name="Adieresis" unicode="&#xc4;" horiz-adv-x="594" 
d="M345 -135q1 3 0.5 7t0.5 7q2 14 4 27t6 26q2 5 2.5 9t1.5 8q3 14 6 27t9 25q2 4 3 8.5t2 9.5q0 16 8 35q6 19 11.5 37.5t10.5 37.5q2 8 3 11q5 10 8 20t5 21q4 20 7.5 39t8.5 39q0 2 -2 5t-4 3q-1 1 -3 1h-15q-8 -2 -15.5 -3.5t-15.5 -3.5q-22 -7 -43.5 -12.5
t-43.5 -12.5q-28 -8 -55 -17.5t-53 -20.5q-5 -2 -9 -5.5t-8 -7.5q-1 -1 -1 -2t-1 -1q-6 -10 -12 -18.5t-12 -17.5q-15 -26 -30 -51.5t-28 -52.5q-5 -11 -11.5 -22t-13.5 -22q-4 -6 -11 -9q-4 -2 -10 -4q-14 -3 -25 2q-2 0 -3 1t-3 2q-5 1 -8 4t-5 7q-4 5 -1 10q3 4 5.5 6.5
t4.5 7.5q14 24 27.5 48t26.5 50q6 11 -7 13h-4q-8 -1 -14.5 1t-13.5 5q-2 0 -6 4q-8 6 -2 12q3 5 4 6q8 9 22 18q8 4 15 7t14 7q11 5 20.5 9t19.5 9q11 5 18.5 11.5t14.5 14.5q11 14 22.5 28.5t22.5 28.5l30 36t30 35q21 23 41 46t41 46q13 14 26 27l27 27q9 9 17.5 18
t17.5 18q5 5 8.5 9.5t8.5 9.5q6 5 12 10.5t12 11.5q8 9 21 19q4 4 8 7t9 6q23 19 34 42q2 4 4.5 7.5t4.5 8.5q4 7 10 9.5t14 3.5q3 0 6.5 -0.5t7.5 -0.5q5 -1 8.5 -6t4.5 -10q2 -7 -1 -17q-2 -11 -5.5 -20.5t-6.5 -20.5q-14 -47 -25 -91q-3 -15 -7.5 -31t-9.5 -31
q-8 -27 -14.5 -54t-14.5 -54q-1 -3 -1 -5.5t-1 -4.5q-5 -23 17 -20q6 1 11 1.5t11 1.5q2 0 5 -0.5t6 -0.5l2 -2q2 -4 0 -7q-3 -7 -10 -10q-14 -10 -29 -14q-5 -2 -10 -3.5t-10 -3.5q-8 -3 -10 -10q-2 -4 -4 -10q-13 -42 -25 -84.5t-24 -85.5l-2 -8t-3 -9q-4 -12 -7 -24
l-6 -24q-2 -11 -6 -21t-6 -21q-5 -14 -9.5 -28.5t-9.5 -29.5q-3 -9 -5.5 -18.5t-4.5 -19.5q-5 -21 -10 -35q-4 -8 -9 -12q-2 -2 -6.5 -0.5t-5.5 4.5t-1 5.5t-1 5.5zM257 267q20 5 40.5 10t40.5 9t40 9.5t40 10.5q18 3 34 12q9 7 11 13l8 24t7 24q5 21 9 42t7 42q2 6 2 11.5
t2 10.5q6 23 10.5 45.5t9.5 45.5q1 2 1 7t-3 6q-2 2 -7 -1q-5 -5 -10.5 -11t-11.5 -11q-8 -6 -13.5 -12.5t-12.5 -13.5q-14 -17 -27 -33.5t-30 -30.5q-2 -1 -5 -6q-8 -8 -15 -17t-15 -18l-16.5 -16.5t-13.5 -19.5l-3.5 -3.5l-3.5 -3.5q-10 -10 -18 -20.5t-16 -21.5
q-10 -13 -20 -25.5t-20 -25.5l-8 -10t-7 -10q-2 -2 -2 -7q-1 -2 1.5 -4.5t4.5 -2.5q2 1 5 1t5 1zM475 801q5 2 9 1.5t7 1.5q10 6 18.5 0t13 -15.5t4 -19t-7.5 -9.5q-22 -7 -47 12q-3 1 -5 6t-2 10t2.5 9t7.5 4zM615 801q5 2 9 1.5t7 1.5q10 6 18.5 0t13 -15.5t4 -19
t-7.5 -9.5q-22 -7 -47 12q-3 1 -5 6t-2 10t2.5 9t7.5 4z" />
    <glyph glyph-name="Aring" unicode="&#xc5;" horiz-adv-x="594" 
d="M345 -135q1 3 0.5 7t0.5 7q2 14 4 27t6 26q2 5 2.5 9t1.5 8q3 14 6 27t9 25q2 4 3 8.5t2 9.5q0 16 8 35q6 19 11.5 37.5t10.5 37.5q2 8 3 11q5 10 8 20t5 21q4 20 7.5 39t8.5 39q0 2 -2 5t-4 3q-1 1 -3 1h-15q-8 -2 -15.5 -3.5t-15.5 -3.5q-22 -7 -43.5 -12.5
t-43.5 -12.5q-28 -8 -55 -17.5t-53 -20.5q-5 -2 -9 -5.5t-8 -7.5q-1 -1 -1 -2t-1 -1q-6 -10 -12 -18.5t-12 -17.5q-15 -26 -30 -51.5t-28 -52.5q-5 -11 -11.5 -22t-13.5 -22q-4 -6 -11 -9q-4 -2 -10 -4q-14 -3 -25 2q-2 0 -3 1t-3 2q-5 1 -8 4t-5 7q-4 5 -1 10q3 4 5.5 6.5
t4.5 7.5q14 24 27.5 48t26.5 50q6 11 -7 13h-4q-8 -1 -14.5 1t-13.5 5q-2 0 -6 4q-8 6 -2 12q3 5 4 6q8 9 22 18q8 4 15 7t14 7q11 5 20.5 9t19.5 9q11 5 18.5 11.5t14.5 14.5q11 14 22.5 28.5t22.5 28.5l30 36t30 35q21 23 41 46t41 46q13 14 26 27l27 27q9 9 17.5 18
t17.5 18q5 5 8.5 9.5t8.5 9.5q6 5 12 10.5t12 11.5q8 9 21 19q4 4 8 7t9 6q23 19 34 42q2 4 4.5 7.5t4.5 8.5q4 7 10 9.5t14 3.5q3 0 6.5 -0.5t7.5 -0.5q5 -1 8.5 -6t4.5 -10q2 -7 -1 -17q-2 -11 -5.5 -20.5t-6.5 -20.5q-14 -47 -25 -91q-3 -15 -7.5 -31t-9.5 -31
q-8 -27 -14.5 -54t-14.5 -54q-1 -3 -1 -5.5t-1 -4.5q-5 -23 17 -20q6 1 11 1.5t11 1.5q2 0 5 -0.5t6 -0.5l2 -2q2 -4 0 -7q-3 -7 -10 -10q-14 -10 -29 -14q-5 -2 -10 -3.5t-10 -3.5q-8 -3 -10 -10q-2 -4 -4 -10q-13 -42 -25 -84.5t-24 -85.5l-2 -8t-3 -9q-4 -12 -7 -24
l-6 -24q-2 -11 -6 -21t-6 -21q-5 -14 -9.5 -28.5t-9.5 -29.5q-3 -9 -5.5 -18.5t-4.5 -19.5q-5 -21 -10 -35q-4 -8 -9 -12q-2 -2 -6.5 -0.5t-5.5 4.5t-1 5.5t-1 5.5zM257 267q20 5 40.5 10t40.5 9t40 9.5t40 10.5q18 3 34 12q9 7 11 13l8 24t7 24q5 21 9 42t7 42q2 6 2 11.5
t2 10.5q6 23 10.5 45.5t9.5 45.5q1 2 1 7t-3 6q-2 2 -7 -1q-5 -5 -10.5 -11t-11.5 -11q-8 -6 -13.5 -12.5t-12.5 -13.5q-14 -17 -27 -33.5t-30 -30.5q-2 -1 -5 -6q-8 -8 -15 -17t-15 -18l-16.5 -16.5t-13.5 -19.5l-3.5 -3.5l-3.5 -3.5q-10 -10 -18 -20.5t-16 -21.5
q-10 -13 -20 -25.5t-20 -25.5l-8 -10t-7 -10q-2 -2 -2 -7q-1 -2 1.5 -4.5t4.5 -2.5q2 1 5 1t5 1zM539 863q6 2 11 3t10 3q5 -5 10 -8t12 -8q6 4 10 6q11 5 23 3q5 -2 12.5 -3t15.5 -4q1 -2 3.5 -3.5t4.5 -5.5q12 -9 6 -25q-12 -35 -47 -59q-5 -3 -12.5 -6.5t-15.5 -5.5
q-15 -3 -27.5 0.5t-23.5 17.5q-13 14 -5 34q5 22 12 44l2 8t-1 9zM629 829q-4 4 -7 4h-8.5t-8.5 -2q-7 0 -12 1t-11 1q-12 0 -14 -10q-3 -7 -5 -14.5t-5 -15.5q-2 -5 1.5 -8t6.5 -3q2 0 4 0.5t3 2.5q15 6 30 17q5 2 10 6.5t9 9.5q2 2 3.5 5t3.5 6z" />
    <glyph glyph-name="Ccedilla" unicode="&#xc7;" horiz-adv-x="562" 
d="M302 -164q2 0 3.5 3t-0.5 5v5t-1 5q-3 4 -7.5 8t-6.5 7q-8 3 -16 4t-16 -4q-6 -8 -15 -8q-8 0 -10 8q-2 9 -3.5 17t-5.5 16q-1 8 -3.5 16.5t-4.5 18.5q-22 -10 -45 -17t-47 -9q-11 -1 -21 0.5t-21 3.5q-2 1 -5 1.5t-6 2.5q-24 11 -44 24q-25 16 -31 50q-3 19 -3 39
q0 6 1 11.5t2 12.5q12 46 26.5 89.5t34.5 87.5q7 15 13.5 30.5t11.5 31.5q3 6 7 10q7 8 11.5 18t8.5 20q8 19 18 35.5t20 33.5q21 32 43 62t47 59q3 3 5.5 6t4.5 6q7 10 13.5 19.5t14.5 18.5q7 9 14.5 16.5t13.5 17.5l10 11l18 18t17 19t17.5 19t17.5 19q7 8 20 10
q8 0 15.5 -0.5t15.5 0.5q15 0 30 -6q13 -6 27 -4h11q5 -2 8 -3t7 -3q6 -2 9 -8.5t1 -14.5q-3 -3 -2 -3q-2 -6 -4 -7q-14 -17 -25.5 -35t-23.5 -37q-5 -8 -9.5 -17t-9.5 -18q-9 -20 -18 -39.5t-16 -41.5q-5 -14 -11.5 -28.5t-11.5 -30.5q-3 -11 -7 -23t-6 -23q-3 -13 -7 -25
t-9 -24q-5 -9 -12 -15q-1 -1 -4 -1q-2 0 -4 5q-3 15 -2 28q2 11 3.5 23.5t4.5 23.5l11 47q9 26 17 52.5t19 52.5l4 12l9 34q2 5 3 9.5t3 9.5q5 9 10 17.5t8 18.5q-1 0 -1 1t-0.5 1t-0.5 1q-2 2 -3 2q-2 0 -4 -1q-8 -4 -14.5 -9t-14.5 -11q-18 -14 -35.5 -30t-34.5 -32
q-13 -14 -25 -28t-25 -28q-28 -32 -52.5 -66t-47.5 -70l-31 -50q-8 -14 -15 -26.5t-14 -26.5q-14 -29 -26 -58t-23 -59q-8 -22 -14.5 -43.5t-11.5 -44.5q-3 -18 -3 -37q0 -21 6 -42q8 -18 23 -27q2 0 3.5 -1t3.5 -2q11 -2 21 -2.5t21 2.5q17 5 33.5 10.5t32.5 14.5
q26 14 50.5 29t48.5 32q14 10 28 20.5t30 17.5q2 1 3.5 2t3.5 2q14 14 29.5 23.5t30.5 20.5q5 3 9.5 6t9.5 7q12 12 25.5 22t26.5 20q15 11 29 22.5t28 24.5q7 6 14 11.5t14 10.5q6 4 10 -1q5 -5 3 -11q0 -4 -3 -7q0 -2 -1 -3.5t-2 -3.5q-2 -4 -5 -8t-7 -8
q-11 -13 -22 -25.5t-23 -24.5q-11 -12 -23.5 -23t-25.5 -22q-17 -12 -32.5 -25t-32.5 -25q-8 -5 -15.5 -11.5t-15.5 -11.5q-25 -20 -50.5 -37t-51.5 -34l-20 -12q-1 -2 1 -6q2 -9 4.5 -17.5t4.5 -16.5q4 -10 18 -10q9 -2 18 -3.5t17 -3.5q14 -3 21 -17q3 -5 5 -9.5t5 -10.5
t0 -15q-5 -15 -16.5 -26t-25.5 -14q-23 -5 -45.5 -0.5t-42.5 15.5q-7 6 -10 18q0 7 6 7q5 0 9 1t7 -1q24 -10 54 -10h24z" />
    <glyph glyph-name="Egrave" unicode="&#xc8;" horiz-adv-x="543" 
d="M355 362q15 1 28 1t26 1q3 0 5.5 -1t4.5 -2q4 0 4.5 -4t-1.5 -6q-3 -6 -10 -9q-13 -7 -25 -10q-8 -2 -17 -3t-17 -3q-45 -9 -91 -21q-9 -4 -13 -9q-4 -6 -5 -9q-16 -28 -30.5 -55.5t-28.5 -56.5q-4 -7 -7 -19q-2 -5 -5 -10t-5 -10q-9 -16 -15.5 -33t-13.5 -34
q-4 -5 -2 -13q1 -3 4 -5.5t6 -0.5q11 5 22 9t22 9q17 7 33.5 14t33.5 13q4 0 6 2q21 9 42.5 15t43.5 11q3 1 6.5 1t6.5 2q17 6 35.5 7t36.5 2q5 2 10 0q11 -1 20.5 -1.5t20.5 -2.5q8 -1 14 -3t13 -5q1 -2 2 -2.5t2 -2.5q4 -4 2 -9q-1 -6 -7 -7q-2 0 -5 -0.5t-5 0.5
q-8 1 -17 0.5t-17 -0.5q-34 0 -69 -8q-41 -9 -82 -24q-38 -11 -72.5 -27t-68.5 -35q-11 -6 -21.5 -13t-21.5 -13q-5 -4 -10 -7t-10 -7q-6 -5 -11 -10t-8 -13q-4 -7 -7 -13.5t-7 -12.5q-2 -3 -6 -3q-4 -2 -7 0q-4 0 -8 -0.5t-9 -2.5l-16 -6t-16 -7q-9 -3 -19 2q-16 6 -16 23
q-2 6 3 9q8 7 15 13.5t15 13.5q12 10 22.5 20.5l21.5 21.5q5 5 7.5 9.5t7.5 9.5q6 6 8 17q2 10 5.5 19t7.5 18q5 11 9.5 21.5t8.5 20.5q6 14 10.5 27t11.5 25q2 4 4 7.5t3 7.5q4 10 7.5 19t8.5 18q8 12 9 25q0 6 2 16q1 4 -2.5 6t-6.5 1q-5 -2 -9 -3l-8 -2q-8 -3 -14 -3
q-4 -2 -8 -1.5t-8 1.5q-15 2 -19 13q-3 2 -2 6q2 12 12 19q7 4 13.5 7.5t13.5 6.5l22 10t23 7q5 1 11 3l12 4q14 6 20 17q4 6 7 11.5t7 11.5q10 18 19 35.5t19 34.5q2 2 2 3q8 13 15 26t15 26q8 14 15.5 26t15.5 26q4 7 7.5 14.5t4.5 15.5q2 4 -3 4q-7 2 -12.5 0.5
t-11.5 -3.5q-14 -5 -27.5 -10.5t-25.5 -13.5q-13 -7 -25.5 -13.5t-25.5 -14.5q-32 -18 -59.5 -41t-49.5 -53q0 -2 -1.5 -2.5t-2.5 -2.5q-4 -4 -9 -4q-17 -2 -24 10q-4 5 -7 11.5t-6 11.5q-5 13 2 22l4 6t4 5q16 17 32.5 32t36.5 27q12 7 24 13t24 13q5 2 9.5 4t9.5 3
q9 2 17 5t15 7q10 5 19.5 8.5t19.5 7.5q22 8 43 15.5t44 15.5q2 1 3 1t3 1q9 3 17 11q5 7 10.5 13.5t10.5 12.5q4 6 12 6q25 4 45 -9q9 -5 17 -3q12 2 23.5 5t23.5 5q19 5 37.5 9t36.5 7q10 2 19.5 4t18.5 4q22 5 43.5 9t43.5 9q26 6 52.5 11.5t52.5 10.5t52.5 9t52.5 9
q14 3 25 -8q5 -4 4 -10.5t-6 -8.5q-5 -1 -8.5 -2.5t-7.5 -2.5q-22 -5 -44 -9.5t-44 -9.5q-18 -4 -35.5 -7.5t-35.5 -8.5q-15 -3 -30 -6.5t-30 -5.5q-12 -2 -24 -4.5t-23 -5.5q-24 -8 -48.5 -13t-49.5 -10l-48 -10t-49 -12q-9 -2 -18 -5l-18 -6q-5 -2 -8.5 -5t-6.5 -7
q-6 -8 -8 -12q-11 -16 -20.5 -31.5t-20.5 -32.5q-4 -6 -5 -9q-12 -22 -24.5 -43.5t-25.5 -42.5q-9 -16 -17.5 -32t-15.5 -33q-3 -5 -3 -10q-2 -2 0.5 -5.5t5.5 -3.5q8 -2 13 -2q8 0 16 1t16 1q4 0 8 0.5t6 0.5zM465 782q2 -2 1.5 -4.5t-0.5 -4.5q-2 -11 -10 -17
q-3 -2 -4 -2.5t-5 1.5q-1 2 -2.5 2.5t-2.5 2.5q-3 5 -7.5 8t-8.5 7q-11 7 -19 16q-7 6 -13.5 12t-13.5 13q-2 2 -3 3.5t-3 3.5q-5 3 -10 5.5t-12 3.5q-5 0 -1 6q9 8 14.5 13t18.5 7q1 1 4 1q11 0 21 -8q16 -11 32 -29t24 -40z" />
    <glyph glyph-name="Eacute" unicode="&#xc9;" horiz-adv-x="543" 
d="M355 362q15 1 28 1t26 1q3 0 5.5 -1t4.5 -2q4 0 4.5 -4t-1.5 -6q-3 -6 -10 -9q-13 -7 -25 -10q-8 -2 -17 -3t-17 -3q-45 -9 -91 -21q-9 -4 -13 -9q-4 -6 -5 -9q-16 -28 -30.5 -55.5t-28.5 -56.5q-4 -7 -7 -19q-2 -5 -5 -10t-5 -10q-9 -16 -15.5 -33t-13.5 -34
q-4 -5 -2 -13q1 -3 4 -5.5t6 -0.5q11 5 22 9t22 9q17 7 33.5 14t33.5 13q4 0 6 2q21 9 42.5 15t43.5 11q3 1 6.5 1t6.5 2q17 6 35.5 7t36.5 2q5 2 10 0q11 -1 20.5 -1.5t20.5 -2.5q8 -1 14 -3t13 -5q1 -2 2 -2.5t2 -2.5q4 -4 2 -9q-1 -6 -7 -7q-2 0 -5 -0.5t-5 0.5
q-8 1 -17 0.5t-17 -0.5q-34 0 -69 -8q-41 -9 -82 -24q-38 -11 -72.5 -27t-68.5 -35q-11 -6 -21.5 -13t-21.5 -13q-5 -4 -10 -7t-10 -7q-6 -5 -11 -10t-8 -13q-4 -7 -7 -13.5t-7 -12.5q-2 -3 -6 -3q-4 -2 -7 0q-4 0 -8 -0.5t-9 -2.5l-16 -6t-16 -7q-9 -3 -19 2q-16 6 -16 23
q-2 6 3 9q8 7 15 13.5t15 13.5q12 10 22.5 20.5l21.5 21.5q5 5 7.5 9.5t7.5 9.5q6 6 8 17q2 10 5.5 19t7.5 18q5 11 9.5 21.5t8.5 20.5q6 14 10.5 27t11.5 25q2 4 4 7.5t3 7.5q4 10 7.5 19t8.5 18q8 12 9 25q0 6 2 16q1 4 -2.5 6t-6.5 1q-5 -2 -9 -3l-8 -2q-8 -3 -14 -3
q-4 -2 -8 -1.5t-8 1.5q-15 2 -19 13q-3 2 -2 6q2 12 12 19q7 4 13.5 7.5t13.5 6.5l22 10t23 7q5 1 11 3l12 4q14 6 20 17q4 6 7 11.5t7 11.5q10 18 19 35.5t19 34.5q2 2 2 3q8 13 15 26t15 26q8 14 15.5 26t15.5 26q4 7 7.5 14.5t4.5 15.5q2 4 -3 4q-7 2 -12.5 0.5
t-11.5 -3.5q-14 -5 -27.5 -10.5t-25.5 -13.5q-13 -7 -25.5 -13.5t-25.5 -14.5q-32 -18 -59.5 -41t-49.5 -53q0 -2 -1.5 -2.5t-2.5 -2.5q-4 -4 -9 -4q-17 -2 -24 10q-4 5 -7 11.5t-6 11.5q-5 13 2 22l4 6t4 5q16 17 32.5 32t36.5 27q12 7 24 13t24 13q5 2 9.5 4t9.5 3
q9 2 17 5t15 7q10 5 19.5 8.5t19.5 7.5q22 8 43 15.5t44 15.5q2 1 3 1t3 1q9 3 17 11q5 7 10.5 13.5t10.5 12.5q4 6 12 6q25 4 45 -9q9 -5 17 -3q12 2 23.5 5t23.5 5q19 5 37.5 9t36.5 7q10 2 19.5 4t18.5 4q22 5 43.5 9t43.5 9q26 6 52.5 11.5t52.5 10.5t52.5 9t52.5 9
q14 3 25 -8q5 -4 4 -10.5t-6 -8.5q-5 -1 -8.5 -2.5t-7.5 -2.5q-22 -5 -44 -9.5t-44 -9.5q-18 -4 -35.5 -7.5t-35.5 -8.5q-15 -3 -30 -6.5t-30 -5.5q-12 -2 -24 -4.5t-23 -5.5q-24 -8 -48.5 -13t-49.5 -10l-48 -10t-49 -12q-9 -2 -18 -5l-18 -6q-5 -2 -8.5 -5t-6.5 -7
q-6 -8 -8 -12q-11 -16 -20.5 -31.5t-20.5 -32.5q-4 -6 -5 -9q-12 -22 -24.5 -43.5t-25.5 -42.5q-9 -16 -17.5 -32t-15.5 -33q-3 -5 -3 -10q-2 -2 0.5 -5.5t5.5 -3.5q8 -2 13 -2q8 0 16 1t16 1q4 0 8 0.5t6 0.5zM395 773q8 22 24 40t32 29q10 8 21 8q3 0 4 -1q13 -2 18.5 -7
t14.5 -13q4 -6 -1 -6q-7 -1 -12 -3.5t-10 -5.5q-2 -2 -3 -3.5t-3 -3.5q-7 -7 -13.5 -13t-13.5 -12q-9 -9 -19 -16q-4 -4 -8.5 -7t-7.5 -8q-1 -2 -2.5 -2.5t-2.5 -2.5q-4 -2 -5 -1.5t-4 2.5q-8 6 -10 17q0 2 -0.5 4.5t1.5 4.5z" />
    <glyph glyph-name="Ecircumflex" unicode="&#xca;" horiz-adv-x="543" 
d="M355 362q15 1 28 1t26 1q3 0 5.5 -1t4.5 -2q4 0 4.5 -4t-1.5 -6q-3 -6 -10 -9q-13 -7 -25 -10q-8 -2 -17 -3t-17 -3q-45 -9 -91 -21q-9 -4 -13 -9q-4 -6 -5 -9q-16 -28 -30.5 -55.5t-28.5 -56.5q-4 -7 -7 -19q-2 -5 -5 -10t-5 -10q-9 -16 -15.5 -33t-13.5 -34
q-4 -5 -2 -13q1 -3 4 -5.5t6 -0.5q11 5 22 9t22 9q17 7 33.5 14t33.5 13q4 0 6 2q21 9 42.5 15t43.5 11q3 1 6.5 1t6.5 2q17 6 35.5 7t36.5 2q5 2 10 0q11 -1 20.5 -1.5t20.5 -2.5q8 -1 14 -3t13 -5q1 -2 2 -2.5t2 -2.5q4 -4 2 -9q-1 -6 -7 -7q-2 0 -5 -0.5t-5 0.5
q-8 1 -17 0.5t-17 -0.5q-34 0 -69 -8q-41 -9 -82 -24q-38 -11 -72.5 -27t-68.5 -35q-11 -6 -21.5 -13t-21.5 -13q-5 -4 -10 -7t-10 -7q-6 -5 -11 -10t-8 -13q-4 -7 -7 -13.5t-7 -12.5q-2 -3 -6 -3q-4 -2 -7 0q-4 0 -8 -0.5t-9 -2.5l-16 -6t-16 -7q-9 -3 -19 2q-16 6 -16 23
q-2 6 3 9q8 7 15 13.5t15 13.5q12 10 22.5 20.5l21.5 21.5q5 5 7.5 9.5t7.5 9.5q6 6 8 17q2 10 5.5 19t7.5 18q5 11 9.5 21.5t8.5 20.5q6 14 10.5 27t11.5 25q2 4 4 7.5t3 7.5q4 10 7.5 19t8.5 18q8 12 9 25q0 6 2 16q1 4 -2.5 6t-6.5 1q-5 -2 -9 -3l-8 -2q-8 -3 -14 -3
q-4 -2 -8 -1.5t-8 1.5q-15 2 -19 13q-3 2 -2 6q2 12 12 19q7 4 13.5 7.5t13.5 6.5l22 10t23 7q5 1 11 3l12 4q14 6 20 17q4 6 7 11.5t7 11.5q10 18 19 35.5t19 34.5q2 2 2 3q8 13 15 26t15 26q8 14 15.5 26t15.5 26q4 7 7.5 14.5t4.5 15.5q2 4 -3 4q-7 2 -12.5 0.5
t-11.5 -3.5q-14 -5 -27.5 -10.5t-25.5 -13.5q-13 -7 -25.5 -13.5t-25.5 -14.5q-32 -18 -59.5 -41t-49.5 -53q0 -2 -1.5 -2.5t-2.5 -2.5q-4 -4 -9 -4q-17 -2 -24 10q-4 5 -7 11.5t-6 11.5q-5 13 2 22l4 6t4 5q16 17 32.5 32t36.5 27q12 7 24 13t24 13q5 2 9.5 4t9.5 3
q9 2 17 5t15 7q10 5 19.5 8.5t19.5 7.5q22 8 43 15.5t44 15.5q2 1 3 1t3 1q9 3 17 11q5 7 10.5 13.5t10.5 12.5q4 6 12 6q25 4 45 -9q9 -5 17 -3q12 2 23.5 5t23.5 5q19 5 37.5 9t36.5 7q10 2 19.5 4t18.5 4q22 5 43.5 9t43.5 9q26 6 52.5 11.5t52.5 10.5t52.5 9t52.5 9
q14 3 25 -8q5 -4 4 -10.5t-6 -8.5q-5 -1 -8.5 -2.5t-7.5 -2.5q-22 -5 -44 -9.5t-44 -9.5q-18 -4 -35.5 -7.5t-35.5 -8.5q-15 -3 -30 -6.5t-30 -5.5q-12 -2 -24 -4.5t-23 -5.5q-24 -8 -48.5 -13t-49.5 -10l-48 -10t-49 -12q-9 -2 -18 -5l-18 -6q-5 -2 -8.5 -5t-6.5 -7
q-6 -8 -8 -12q-11 -16 -20.5 -31.5t-20.5 -32.5q-4 -6 -5 -9q-12 -22 -24.5 -43.5t-25.5 -42.5q-9 -16 -17.5 -32t-15.5 -33q-3 -5 -3 -10q-2 -2 0.5 -5.5t5.5 -3.5q8 -2 13 -2q8 0 16 1t16 1q4 0 8 0.5t6 0.5zM462 879v-2h1q16 -13 16 -35q0 -10 2 -18.5t4 -16.5
q2 -4 2 -11q0 -5 -4.5 -9.5t-8.5 -4.5t-6 3t-4.5 4.5t-4.5 6.5q-3 5 -4.5 10.5t-5.5 10.5q-1 2 -2 5l-2 6q-9 -9 -13 -18q-5 -3 -7.5 -6.5t-7.5 -7.5q-3 -5 -7 -7.5t-8 -7.5q-5 -3 -6 -3q-8 -6 -15 3q-2 5 -4.5 7.5t-3.5 7.5q19 19 37 39.5t33 43.5h19z" />
    <glyph glyph-name="Edieresis" unicode="&#xcb;" horiz-adv-x="543" 
d="M355 362q15 1 28 1t26 1q3 0 5.5 -1t4.5 -2q4 0 4.5 -4t-1.5 -6q-3 -6 -10 -9q-13 -7 -25 -10q-8 -2 -17 -3t-17 -3q-45 -9 -91 -21q-9 -4 -13 -9q-4 -6 -5 -9q-16 -28 -30.5 -55.5t-28.5 -56.5q-4 -7 -7 -19q-2 -5 -5 -10t-5 -10q-9 -16 -15.5 -33t-13.5 -34
q-4 -5 -2 -13q1 -3 4 -5.5t6 -0.5q11 5 22 9t22 9q17 7 33.5 14t33.5 13q4 0 6 2q21 9 42.5 15t43.5 11q3 1 6.5 1t6.5 2q17 6 35.5 7t36.5 2q5 2 10 0q11 -1 20.5 -1.5t20.5 -2.5q8 -1 14 -3t13 -5q1 -2 2 -2.5t2 -2.5q4 -4 2 -9q-1 -6 -7 -7q-2 0 -5 -0.5t-5 0.5
q-8 1 -17 0.5t-17 -0.5q-34 0 -69 -8q-41 -9 -82 -24q-38 -11 -72.5 -27t-68.5 -35q-11 -6 -21.5 -13t-21.5 -13q-5 -4 -10 -7t-10 -7q-6 -5 -11 -10t-8 -13q-4 -7 -7 -13.5t-7 -12.5q-2 -3 -6 -3q-4 -2 -7 0q-4 0 -8 -0.5t-9 -2.5l-16 -6t-16 -7q-9 -3 -19 2q-16 6 -16 23
q-2 6 3 9q8 7 15 13.5t15 13.5q12 10 22.5 20.5l21.5 21.5q5 5 7.5 9.5t7.5 9.5q6 6 8 17q2 10 5.5 19t7.5 18q5 11 9.5 21.5t8.5 20.5q6 14 10.5 27t11.5 25q2 4 4 7.5t3 7.5q4 10 7.5 19t8.5 18q8 12 9 25q0 6 2 16q1 4 -2.5 6t-6.5 1q-5 -2 -9 -3l-8 -2q-8 -3 -14 -3
q-4 -2 -8 -1.5t-8 1.5q-15 2 -19 13q-3 2 -2 6q2 12 12 19q7 4 13.5 7.5t13.5 6.5l22 10t23 7q5 1 11 3l12 4q14 6 20 17q4 6 7 11.5t7 11.5q10 18 19 35.5t19 34.5q2 2 2 3q8 13 15 26t15 26q8 14 15.5 26t15.5 26q4 7 7.5 14.5t4.5 15.5q2 4 -3 4q-7 2 -12.5 0.5
t-11.5 -3.5q-14 -5 -27.5 -10.5t-25.5 -13.5q-13 -7 -25.5 -13.5t-25.5 -14.5q-32 -18 -59.5 -41t-49.5 -53q0 -2 -1.5 -2.5t-2.5 -2.5q-4 -4 -9 -4q-17 -2 -24 10q-4 5 -7 11.5t-6 11.5q-5 13 2 22l4 6t4 5q16 17 32.5 32t36.5 27q12 7 24 13t24 13q5 2 9.5 4t9.5 3
q9 2 17 5t15 7q10 5 19.5 8.5t19.5 7.5q22 8 43 15.5t44 15.5q2 1 3 1t3 1q9 3 17 11q5 7 10.5 13.5t10.5 12.5q4 6 12 6q25 4 45 -9q9 -5 17 -3q12 2 23.5 5t23.5 5q19 5 37.5 9t36.5 7q10 2 19.5 4t18.5 4q22 5 43.5 9t43.5 9q26 6 52.5 11.5t52.5 10.5t52.5 9t52.5 9
q14 3 25 -8q5 -4 4 -10.5t-6 -8.5q-5 -1 -8.5 -2.5t-7.5 -2.5q-22 -5 -44 -9.5t-44 -9.5q-18 -4 -35.5 -7.5t-35.5 -8.5q-15 -3 -30 -6.5t-30 -5.5q-12 -2 -24 -4.5t-23 -5.5q-24 -8 -48.5 -13t-49.5 -10l-48 -10t-49 -12q-9 -2 -18 -5l-18 -6q-5 -2 -8.5 -5t-6.5 -7
q-6 -8 -8 -12q-11 -16 -20.5 -31.5t-20.5 -32.5q-4 -6 -5 -9q-12 -22 -24.5 -43.5t-25.5 -42.5q-9 -16 -17.5 -32t-15.5 -33q-3 -5 -3 -10q-2 -2 0.5 -5.5t5.5 -3.5q8 -2 13 -2q8 0 16 1t16 1q4 0 8 0.5t6 0.5zM359 797q5 2 9 1.5t7 1.5q10 6 18.5 0t13 -15.5t4 -19
t-7.5 -9.5q-22 -7 -47 12q-3 1 -5 6t-2 10t2.5 9t7.5 4zM499 797q5 2 9 1.5t7 1.5q10 6 18.5 0t13 -15.5t4 -19t-7.5 -9.5q-22 -7 -47 12q-3 1 -5 6t-2 10t2.5 9t7.5 4z" />
    <glyph glyph-name="Igrave" unicode="&#xcc;" horiz-adv-x="400" 
d="M411 713q2 0 5.5 -0.5t7.5 -0.5q2 -1 3.5 -1.5t3.5 -1.5q4 -2 7 -6.5t3 -9.5t-2.5 -9.5t-7.5 -6.5q-3 -1 -11 -3q-13 -5 -26 -8.5t-26 -8.5q-6 -2 -12 -4.5t-12 -5.5q-13 -4 -16 -21q-2 -9 -3.5 -18.5t-3.5 -18.5q-2 -24 -6.5 -46t-9.5 -45q-7 -30 -14 -59.5t-16 -58.5
q-5 -14 -9 -29t-7 -31q-5 -14 -9.5 -29t-9.5 -30q-10 -30 -20 -59t-18 -60q-2 -6 -3 -8q-8 -17 -12.5 -35t-9.5 -35t-5 -30q0 -3 3 -7t7 -3q12 1 24 6l26 10l26 10q20 9 40 14.5t40 12.5q14 4 26 1q6 0 8 -7q1 -6 -2 -11l-6 -6q-2 -2 -6 -4q-37 -18 -74 -37q-26 -13 -52 -24
t-52 -25q-6 -4 -12 -7t-11 -7q-19 -14 -38.5 -27.5t-37.5 -30.5q-10 -9 -20.5 -17t-21.5 -16t-23 -11q-5 -3 -14 1q-12 5 -15 17q-4 13 1 19q12 17 23 28q25 24 57 46l24 18q5 4 8.5 8t8.5 8q8 8 11 17q5 15 9 30t9 29q2 4 4 8.5t3 9.5q1 4 1 8t2 8q1 4 3.5 10.5l5 13
t4.5 12.5t3 10q2 8 3 17t4 17q6 20 13.5 44.5t14.5 45.5q12 45 22 83.5t23 83.5q2 7 5.5 19t6.5 25t5.5 25.5t4.5 20.5q3 13 3 19t-0.5 11t-0.5 11t2 20q0 8 -1 12q0 3 -2.5 6t-4.5 2h-7q-14 -5 -26 -11.5t-24 -13.5q-17 -11 -35 -6q-4 1 -10 5q-6 5 -7.5 15t1.5 16
q2 2 2.5 3.5t2.5 2.5q6 7 13 12t15 10q10 6 20.5 12t21.5 11q14 5 27.5 11t27.5 11q3 2 6.5 2.5t7.5 2.5q21 6 42.5 9t42.5 8q7 1 13.5 1t14.5 1zM374 792q2 -2 1.5 -4.5t-0.5 -4.5q-2 -11 -10 -17q-3 -2 -4 -2.5t-5 1.5q-1 2 -2.5 2.5t-2.5 2.5q-3 5 -7.5 8t-8.5 7
q-11 7 -19 16q-7 6 -13.5 12t-13.5 13q-2 2 -3 3.5t-3 3.5q-5 3 -10 5.5t-12 3.5q-5 0 -1 6q9 8 14.5 13t18.5 7q1 1 4 1q11 0 21 -8q16 -11 32 -29t24 -40z" />
    <glyph glyph-name="Iacute" unicode="&#xcd;" horiz-adv-x="400" 
d="M411 713q2 0 5.5 -0.5t7.5 -0.5q2 -1 3.5 -1.5t3.5 -1.5q4 -2 7 -6.5t3 -9.5t-2.5 -9.5t-7.5 -6.5q-3 -1 -11 -3q-13 -5 -26 -8.5t-26 -8.5q-6 -2 -12 -4.5t-12 -5.5q-13 -4 -16 -21q-2 -9 -3.5 -18.5t-3.5 -18.5q-2 -24 -6.5 -46t-9.5 -45q-7 -30 -14 -59.5t-16 -58.5
q-5 -14 -9 -29t-7 -31q-5 -14 -9.5 -29t-9.5 -30q-10 -30 -20 -59t-18 -60q-2 -6 -3 -8q-8 -17 -12.5 -35t-9.5 -35t-5 -30q0 -3 3 -7t7 -3q12 1 24 6l26 10l26 10q20 9 40 14.5t40 12.5q14 4 26 1q6 0 8 -7q1 -6 -2 -11l-6 -6q-2 -2 -6 -4q-37 -18 -74 -37q-26 -13 -52 -24
t-52 -25q-6 -4 -12 -7t-11 -7q-19 -14 -38.5 -27.5t-37.5 -30.5q-10 -9 -20.5 -17t-21.5 -16t-23 -11q-5 -3 -14 1q-12 5 -15 17q-4 13 1 19q12 17 23 28q25 24 57 46l24 18q5 4 8.5 8t8.5 8q8 8 11 17q5 15 9 30t9 29q2 4 4 8.5t3 9.5q1 4 1 8t2 8q1 4 3.5 10.5l5 13
t4.5 12.5t3 10q2 8 3 17t4 17q6 20 13.5 44.5t14.5 45.5q12 45 22 83.5t23 83.5q2 7 5.5 19t6.5 25t5.5 25.5t4.5 20.5q3 13 3 19t-0.5 11t-0.5 11t2 20q0 8 -1 12q0 3 -2.5 6t-4.5 2h-7q-14 -5 -26 -11.5t-24 -13.5q-17 -11 -35 -6q-4 1 -10 5q-6 5 -7.5 15t1.5 16
q2 2 2.5 3.5t2.5 2.5q6 7 13 12t15 10q10 6 20.5 12t21.5 11q14 5 27.5 11t27.5 11q3 2 6.5 2.5t7.5 2.5q21 6 42.5 9t42.5 8q7 1 13.5 1t14.5 1zM268 788q8 22 24 40t32 29q10 8 21 8q3 0 4 -1q13 -2 18.5 -7t14.5 -13q4 -6 -1 -6q-7 -1 -12 -3.5t-10 -5.5q-2 -2 -3 -3.5
t-3 -3.5q-7 -7 -13.5 -13t-13.5 -12q-9 -9 -19 -16q-4 -4 -8.5 -7t-7.5 -8q-1 -2 -2.5 -2.5t-2.5 -2.5q-4 -2 -5 -1.5t-4 2.5q-8 6 -10 17q0 2 -0.5 4.5t1.5 4.5z" />
    <glyph glyph-name="Icircumflex" unicode="&#xce;" horiz-adv-x="400" 
d="M411 713q2 0 5.5 -0.5t7.5 -0.5q2 -1 3.5 -1.5t3.5 -1.5q4 -2 7 -6.5t3 -9.5t-2.5 -9.5t-7.5 -6.5q-3 -1 -11 -3q-13 -5 -26 -8.5t-26 -8.5q-6 -2 -12 -4.5t-12 -5.5q-13 -4 -16 -21q-2 -9 -3.5 -18.5t-3.5 -18.5q-2 -24 -6.5 -46t-9.5 -45q-7 -30 -14 -59.5t-16 -58.5
q-5 -14 -9 -29t-7 -31q-5 -14 -9.5 -29t-9.5 -30q-10 -30 -20 -59t-18 -60q-2 -6 -3 -8q-8 -17 -12.5 -35t-9.5 -35t-5 -30q0 -3 3 -7t7 -3q12 1 24 6l26 10l26 10q20 9 40 14.5t40 12.5q14 4 26 1q6 0 8 -7q1 -6 -2 -11l-6 -6q-2 -2 -6 -4q-37 -18 -74 -37q-26 -13 -52 -24
t-52 -25q-6 -4 -12 -7t-11 -7q-19 -14 -38.5 -27.5t-37.5 -30.5q-10 -9 -20.5 -17t-21.5 -16t-23 -11q-5 -3 -14 1q-12 5 -15 17q-4 13 1 19q12 17 23 28q25 24 57 46l24 18q5 4 8.5 8t8.5 8q8 8 11 17q5 15 9 30t9 29q2 4 4 8.5t3 9.5q1 4 1 8t2 8q1 4 3.5 10.5l5 13
t4.5 12.5t3 10q2 8 3 17t4 17q6 20 13.5 44.5t14.5 45.5q12 45 22 83.5t23 83.5q2 7 5.5 19t6.5 25t5.5 25.5t4.5 20.5q3 13 3 19t-0.5 11t-0.5 11t2 20q0 8 -1 12q0 3 -2.5 6t-4.5 2h-7q-14 -5 -26 -11.5t-24 -13.5q-17 -11 -35 -6q-4 1 -10 5q-6 5 -7.5 15t1.5 16
q2 2 2.5 3.5t2.5 2.5q6 7 13 12t15 10q10 6 20.5 12t21.5 11q14 5 27.5 11t27.5 11q3 2 6.5 2.5t7.5 2.5q21 6 42.5 9t42.5 8q7 1 13.5 1t14.5 1zM344 892v-2h1q16 -13 16 -35q0 -10 2 -18.5t4 -16.5q2 -4 2 -11q0 -5 -4.5 -9.5t-8.5 -4.5t-6 3t-4.5 4.5t-4.5 6.5
q-3 5 -4.5 10.5t-5.5 10.5q-1 2 -2 5l-2 6q-9 -9 -13 -18q-5 -3 -7.5 -6.5t-7.5 -7.5q-3 -5 -7 -7.5t-8 -7.5q-5 -3 -6 -3q-8 -6 -15 3q-2 5 -4.5 7.5t-3.5 7.5q19 19 37 39.5t33 43.5h19z" />
    <glyph glyph-name="Idieresis" unicode="&#xcf;" horiz-adv-x="400" 
d="M411 713q2 0 5.5 -0.5t7.5 -0.5q2 -1 3.5 -1.5t3.5 -1.5q4 -2 7 -6.5t3 -9.5t-2.5 -9.5t-7.5 -6.5q-3 -1 -11 -3q-13 -5 -26 -8.5t-26 -8.5q-6 -2 -12 -4.5t-12 -5.5q-13 -4 -16 -21q-2 -9 -3.5 -18.5t-3.5 -18.5q-2 -24 -6.5 -46t-9.5 -45q-7 -30 -14 -59.5t-16 -58.5
q-5 -14 -9 -29t-7 -31q-5 -14 -9.5 -29t-9.5 -30q-10 -30 -20 -59t-18 -60q-2 -6 -3 -8q-8 -17 -12.5 -35t-9.5 -35t-5 -30q0 -3 3 -7t7 -3q12 1 24 6l26 10l26 10q20 9 40 14.5t40 12.5q14 4 26 1q6 0 8 -7q1 -6 -2 -11l-6 -6q-2 -2 -6 -4q-37 -18 -74 -37q-26 -13 -52 -24
t-52 -25q-6 -4 -12 -7t-11 -7q-19 -14 -38.5 -27.5t-37.5 -30.5q-10 -9 -20.5 -17t-21.5 -16t-23 -11q-5 -3 -14 1q-12 5 -15 17q-4 13 1 19q12 17 23 28q25 24 57 46l24 18q5 4 8.5 8t8.5 8q8 8 11 17q5 15 9 30t9 29q2 4 4 8.5t3 9.5q1 4 1 8t2 8q1 4 3.5 10.5l5 13
t4.5 12.5t3 10q2 8 3 17t4 17q6 20 13.5 44.5t14.5 45.5q12 45 22 83.5t23 83.5q2 7 5.5 19t6.5 25t5.5 25.5t4.5 20.5q3 13 3 19t-0.5 11t-0.5 11t2 20q0 8 -1 12q0 3 -2.5 6t-4.5 2h-7q-14 -5 -26 -11.5t-24 -13.5q-17 -11 -35 -6q-4 1 -10 5q-6 5 -7.5 15t1.5 16
q2 2 2.5 3.5t2.5 2.5q6 7 13 12t15 10q10 6 20.5 12t21.5 11q14 5 27.5 11t27.5 11q3 2 6.5 2.5t7.5 2.5q21 6 42.5 9t42.5 8q7 1 13.5 1t14.5 1zM254 807q5 2 9 1.5t7 1.5q10 6 18.5 0t13 -15.5t4 -19t-7.5 -9.5q-22 -7 -47 12q-3 1 -5 6t-2 10t2.5 9t7.5 4zM394 807
q5 2 9 1.5t7 1.5q10 6 18.5 0t13 -15.5t4 -19t-7.5 -9.5q-22 -7 -47 12q-3 1 -5 6t-2 10t2.5 9t7.5 4z" />
    <glyph glyph-name="Eth" unicode="&#xd0;" horiz-adv-x="782" 
d="M283 341q-19 -2 -38.5 -1.5t-39.5 1.5l-8 -28q-3 -9 -2 -16q0 -4 5 -6h3q22 5 38 13l37 18q10 5 20 1q6 -2 11 -4q1 0 1 -3t-1 -4q-10 -9 -20 -17.5t-21 -15.5q-14 -9 -27 -18.5t-25 -20.5q-4 -3 -12 -7q-11 -5 -19.5 -12t-18.5 -14q-6 -3 -9 -12q-4 -7 -7 -19l-9 -32
q-4 -12 -7.5 -23.5t-8.5 -22.5q-2 -6 -4 -11.5t-4 -12.5q-2 -17 -9 -31.5t-12 -30.5q-2 -5 -8 -13q-14 -14 -14 -37q-1 -3 -4.5 -4.5t-5.5 -0.5q-32 14 -53 42q-3 4 -5.5 8t-4.5 9q-9 22 -3 45q2 8 5 15.5t6 15.5q3 13 -1 25l-2 7q-5 15 6 27q5 6 10.5 11t12.5 9
q29 17 49 41q6 8 14 14q14 12 21 33l28 77q0 2 1 3q-2 0 -3 -0.5t-2 -0.5h-17t-18 -2q-49 0 -54 28q0 5 -0.5 9t-3.5 8q0 10 12 10q5 0 9.5 -1t9.5 -1q6 0 11.5 -1t11.5 1q15 2 30.5 2t30.5 -1q2 5 3.5 10t3.5 10q8 27 16.5 53.5t17.5 52.5l12 35q2 10 -4 15q-5 6 -6 15
q-1 5 -4 7t-6 0l-10 -5l-36 -28q-8 -7 -14.5 -13.5t-13.5 -11.5q-7 -7 -20 -11q-6 -2 -11 1q0 -1 -3 2q-8 6 -9.5 15t2.5 18q3 7 8 14q22 26 50 48q17 13 34 23.5t36 18.5q13 5 23 12q6 5 9 13q2 5 3.5 11.5t3.5 11.5t4.5 7.5t5.5 4.5q6 2 11.5 5t12.5 5q6 3 14 0
q10 -3 13 -13q2 -8 4 -20q3 -8 10 -11q5 -2 9 -1.5t8 0.5l44 4l46 2h33q11 1 23 0.5t24 -0.5q21 -1 41.5 -2.5t40.5 -6.5q11 0 21.5 -3t20.5 -5q11 -1 22 -6l10 -4t10 -3q14 -4 26.5 -9.5t24.5 -12.5q19 -11 39 -31q9 -9 15 -22q8 -19 10 -38t0 -39q-2 -15 -5 -29t-9 -27
l-2 -4l-19 -45q-11 -15 -21 -31t-21 -31q-8 -10 -16 -20.5t-16 -20.5q-30 -39 -63.5 -74t-68.5 -67l-58 -50q-5 -4 -9 -7.5t-9 -6.5q-15 -9 -29.5 -19.5t-28.5 -22.5q-2 -2 -3 -2q-17 -11 -33 -21.5t-33 -20.5q-5 -3 -10.5 -4t-10.5 -2q3 15 12 19q2 2 4.5 3t4.5 3
q9 8 18.5 14.5t19.5 11.5q2 2 4 3.5t4 3.5q7 11 17 17t18 14q18 16 35.5 31.5t36.5 31.5l5 5q8 14 20 23.5t23 21.5q12 16 26 31t25 33q3 7 7.5 11.5l9.5 9.5q5 3 9.5 6.5t7.5 9.5q5 8 11.5 15.5t9.5 17.5q4 12 10 22.5t12 21.5l35 67q4 7 6.5 13.5t5.5 12.5q7 16 8 32
q0 6 1 9q5 15 4 30.5t-4 30.5q-4 18 -18 32q-9 9 -25 16q-14 5 -29 10t-30 8q-39 7 -79 9q-8 0 -16 0.5t-16 1.5q-20 1 -40 0.5t-40 -2.5q-22 -3 -44 -5.5t-45 -4.5t-42 -9q-17 -5 -20 -22q-5 -17 -10.5 -33.5t-10.5 -33.5q-5 -19 -10.5 -37.5t-11.5 -37.5l-8 -28
q-5 -13 -9 -25t-8 -25q-2 -4 -2 -7q8 -1 17 -1.5t18 -0.5q14 0 27 -1t24 -1h78q9 -2 13 -8.5t-1 -13.5v-2q-7 -5 -10.5 -8.5t-9.5 -7.5h-93zM75 108q1 2 0.5 4t-0.5 4q0 3 -3 5.5t-5 1.5q-11 -3 -17 -13q-18 -28 -27 -59q-1 -4 -1.5 -8t0.5 -8q0 -15 5 -25q3 -6 9 -10t12 -2
q2 1 6 5q1 2 2 3.5t2 3.5q5 24 9.5 49.5t7.5 48.5zM307 1q9 7 20 2q-11 -9 -22.5 -15.5t-23.5 -14.5q-9 -5 -18 -9t-19 -5q-1 0 -1.5 1t-1.5 1v4l2 4q8 8 17.5 14t20.5 7q7 1 17 6q2 1 4.5 2.5t4.5 2.5zM212 -41q5 0 5 -5q0 -1 -2 -3q-2 -3 -3 -3l-34 -9q-8 -2 -16 -2.5
t-18 0.5q-5 2 -11 1t-11 3q-4 1 -4 7l3 3q1 1 4 1h6q20 -3 38 -1t36 8q2 1 3.5 0.5t3.5 -0.5z" />
    <glyph glyph-name="Ntilde" unicode="&#xd1;" horiz-adv-x="611" 
d="M219 498q-3 -3 -7.5 -11.5t-9 -17.5t-8 -17.5t-4.5 -12.5q-36 -75 -74 -143.5t-79 -145.5q-19 -42 -43.5 -84t-47.5 -84q-5 -7 -11 -14.5t-16 -13.5q-13 -7 -20 -11t-18 4q10 22 21 40q12 17 22.5 35.5t20.5 40.5q13 26 27 53t28 53q7 13 14 26.5t12 25.5
q17 35 33.5 68.5t34.5 70.5q20 38 39 77.5t35 81.5q11 23 19 47t14 50q3 13 5 26.5t2 27.5h19q9 -5 19 -8t19 -8q3 -14 3 -26.5t8 -26.5v-13q0 -29 -2.5 -59t-4.5 -59q-6 -60 -13.5 -119.5t-2.5 -122.5q3 -21 6.5 -43.5t9.5 -42.5q2 -11 7.5 -21t10.5 -20q4 -9 14 -14
t21.5 -7.5t23 -2.5t19.5 3q12 8 25 14t24 13t19.5 16.5t12.5 24.5q1 6 5 15.5l8 19l8 19t6 15.5q24 71 46 131t46 116t52 111t64 117q3 2 4 6.5t4 6.5q7 10 11.5 17t9.5 9.5t11 -0.5t16 -12q0 -11 -5 -19l-10 -16q-42 -57 -71.5 -113t-53 -113t-44.5 -115.5t-45 -121.5
q-17 -48 -30 -90q-6 -23 -15 -46t-23 -44q-8 -5 -11.5 -6.5t-13.5 -6.5v37q-12 -2 -22.5 -4.5t-19.5 -5.5q-36 -13 -60 -3t-52 33q-21 18 -31 42.5t-14.5 51.5t-4.5 54.5v50.5q6 45 7.5 100.5t5.5 100.5v9q0 2 -1 2t-2 1q-1 0 -2 1zM453 815q23 0 33 -16q4 -4 6.5 -8.5
t6.5 -7.5q5 -11 15.5 -12.5t19.5 2.5q18 7 34 26q4 7 7 10q1 4 6 4t7 -3q1 -2 3.5 -3.5t4.5 -5.5q11 -10 2 -23q-8 -19 -27 -27q-7 -4 -14 -5.5t-15 -3.5q-13 -7 -28 1q-14 6 -26 12.5t-23 18.5q-2 3 -4 4.5l-6 4.5q-4 2 -7 0q-5 -5 -8 -10t-8 -8q-2 -6 -10 -9q-12 -7 -23 0
q-2 3 -8 7q-4 4 0 6q5 7 10.5 11.5t9.5 8.5q8 8 15 13.5t16 7.5q2 3 6 4t5 1z" />
    <glyph glyph-name="Ograve" unicode="&#xd2;" horiz-adv-x="525" 
d="M363 667q16 11 30 21t25 21q12 13 37 13h6q69 6 91 -47q8 -21 11.5 -41.5t-0.5 -41.5q-6 -40 -18 -76.5t-27 -69.5q-28 -71 -62 -135t-79 -127q-23 -32 -43.5 -62.5t-46.5 -62.5q-38 -52 -98 -96q-19 -14 -41 -20.5t-48 -10.5h-15q-39 9 -63.5 30t-29.5 56q0 17 0.5 34
t3.5 35q2 29 9.5 57t15.5 61q17 51 38.5 102t47.5 100q29 59 65.5 112t84.5 101q15 10 27 22t29 21q8 9 21.5 11t28.5 -7zM275 574q-10 -9 -21 -23.5t-22 -30.5t-21 -31.5t-17 -25.5q-23 -34 -40.5 -65.5t-34.5 -68.5q-29 -63 -50 -128.5t-34 -131.5q0 -14 0.5 -26.5
t3.5 -26.5q0 -8 5 -17.5t11 -19.5q3 -6 9 -10t14 -6.5t16.5 -2.5t15.5 3q9 3 17.5 6t16.5 9q26 21 50.5 40t44.5 42q42 42 74.5 90.5t59.5 95.5q20 34 35.5 65.5t35.5 66.5q25 46 40 95t27 100q5 21 5.5 42t-1.5 42q-3 20 -22 29t-42 -2q-20 -6 -37 -23.5t-30 -31.5
q-38 -44 -71 -93t-56 -103q-6 -14 -10.5 -29t-7.5 -30q-2 -11 -3.5 -22.5t0 -22t8 -19t20.5 -13.5q8 -3 9.5 -4.5t-4.5 -9.5q-26 -2 -43 7.5t-29 27.5q-17 24 -10.5 59.5t23 73t36 70.5t29.5 53zM457 789q2 -2 1.5 -4.5t-0.5 -4.5q-2 -11 -10 -17q-3 -2 -4 -2.5t-5 1.5
q-1 2 -2.5 2.5t-2.5 2.5q-3 5 -7.5 8t-8.5 7q-11 7 -19 16q-7 6 -13.5 12t-13.5 13q-2 2 -3 3.5t-3 3.5q-5 3 -10 5.5t-12 3.5q-5 0 -1 6q9 8 14.5 13t18.5 7q1 1 4 1q11 0 21 -8q16 -11 32 -29t24 -40z" />
    <glyph glyph-name="Oacute" unicode="&#xd3;" horiz-adv-x="525" 
d="M363 667q16 11 30 21t25 21q12 13 37 13h6q69 6 91 -47q8 -21 11.5 -41.5t-0.5 -41.5q-6 -40 -18 -76.5t-27 -69.5q-28 -71 -62 -135t-79 -127q-23 -32 -43.5 -62.5t-46.5 -62.5q-38 -52 -98 -96q-19 -14 -41 -20.5t-48 -10.5h-15q-39 9 -63.5 30t-29.5 56q0 17 0.5 34
t3.5 35q2 29 9.5 57t15.5 61q17 51 38.5 102t47.5 100q29 59 65.5 112t84.5 101q15 10 27 22t29 21q8 9 21.5 11t28.5 -7zM275 574q-10 -9 -21 -23.5t-22 -30.5t-21 -31.5t-17 -25.5q-23 -34 -40.5 -65.5t-34.5 -68.5q-29 -63 -50 -128.5t-34 -131.5q0 -14 0.5 -26.5
t3.5 -26.5q0 -8 5 -17.5t11 -19.5q3 -6 9 -10t14 -6.5t16.5 -2.5t15.5 3q9 3 17.5 6t16.5 9q26 21 50.5 40t44.5 42q42 42 74.5 90.5t59.5 95.5q20 34 35.5 65.5t35.5 66.5q25 46 40 95t27 100q5 21 5.5 42t-1.5 42q-3 20 -22 29t-42 -2q-20 -6 -37 -23.5t-30 -31.5
q-38 -44 -71 -93t-56 -103q-6 -14 -10.5 -29t-7.5 -30q-2 -11 -3.5 -22.5t0 -22t8 -19t20.5 -13.5q8 -3 9.5 -4.5t-4.5 -9.5q-26 -2 -43 7.5t-29 27.5q-17 24 -10.5 59.5t23 73t36 70.5t29.5 53zM360 800q8 22 24 40t32 29q10 8 21 8q3 0 4 -1q13 -2 18.5 -7t14.5 -13
q4 -6 -1 -6q-7 -1 -12 -3.5t-10 -5.5q-2 -2 -3 -3.5t-3 -3.5q-7 -7 -13.5 -13t-13.5 -12q-9 -9 -19 -16q-4 -4 -8.5 -7t-7.5 -8q-1 -2 -2.5 -2.5t-2.5 -2.5q-4 -2 -5 -1.5t-4 2.5q-8 6 -10 17q0 2 -0.5 4.5t1.5 4.5z" />
    <glyph glyph-name="Ocircumflex" unicode="&#xd4;" horiz-adv-x="525" 
d="M363 667q16 11 30 21t25 21q12 13 37 13h6q69 6 91 -47q8 -21 11.5 -41.5t-0.5 -41.5q-6 -40 -18 -76.5t-27 -69.5q-28 -71 -62 -135t-79 -127q-23 -32 -43.5 -62.5t-46.5 -62.5q-38 -52 -98 -96q-19 -14 -41 -20.5t-48 -10.5h-15q-39 9 -63.5 30t-29.5 56q0 17 0.5 34
t3.5 35q2 29 9.5 57t15.5 61q17 51 38.5 102t47.5 100q29 59 65.5 112t84.5 101q15 10 27 22t29 21q8 9 21.5 11t28.5 -7zM275 574q-10 -9 -21 -23.5t-22 -30.5t-21 -31.5t-17 -25.5q-23 -34 -40.5 -65.5t-34.5 -68.5q-29 -63 -50 -128.5t-34 -131.5q0 -14 0.5 -26.5
t3.5 -26.5q0 -8 5 -17.5t11 -19.5q3 -6 9 -10t14 -6.5t16.5 -2.5t15.5 3q9 3 17.5 6t16.5 9q26 21 50.5 40t44.5 42q42 42 74.5 90.5t59.5 95.5q20 34 35.5 65.5t35.5 66.5q25 46 40 95t27 100q5 21 5.5 42t-1.5 42q-3 20 -22 29t-42 -2q-20 -6 -37 -23.5t-30 -31.5
q-38 -44 -71 -93t-56 -103q-6 -14 -10.5 -29t-7.5 -30q-2 -11 -3.5 -22.5t0 -22t8 -19t20.5 -13.5q8 -3 9.5 -4.5t-4.5 -9.5q-26 -2 -43 7.5t-29 27.5q-17 24 -10.5 59.5t23 73t36 70.5t29.5 53zM471 912v-2h1q16 -13 16 -35q0 -10 2 -18.5t4 -16.5q2 -4 2 -11
q0 -5 -4.5 -9.5t-8.5 -4.5t-6 3t-4.5 4.5t-4.5 6.5q-3 5 -4.5 10.5t-5.5 10.5q-1 2 -2 5l-2 6q-9 -9 -13 -18q-5 -3 -7.5 -6.5t-7.5 -7.5q-3 -5 -7 -7.5t-8 -7.5q-5 -3 -6 -3q-8 -6 -15 3q-2 5 -4.5 7.5t-3.5 7.5q19 19 37 39.5t33 43.5h19z" />
    <glyph glyph-name="Otilde" unicode="&#xd5;" horiz-adv-x="525" 
d="M363 667q16 11 30 21t25 21q12 13 37 13h6q69 6 91 -47q8 -21 11.5 -41.5t-0.5 -41.5q-6 -40 -18 -76.5t-27 -69.5q-28 -71 -62 -135t-79 -127q-23 -32 -43.5 -62.5t-46.5 -62.5q-38 -52 -98 -96q-19 -14 -41 -20.5t-48 -10.5h-15q-39 9 -63.5 30t-29.5 56q0 17 0.5 34
t3.5 35q2 29 9.5 57t15.5 61q17 51 38.5 102t47.5 100q29 59 65.5 112t84.5 101q15 10 27 22t29 21q8 9 21.5 11t28.5 -7zM275 574q-10 -9 -21 -23.5t-22 -30.5t-21 -31.5t-17 -25.5q-23 -34 -40.5 -65.5t-34.5 -68.5q-29 -63 -50 -128.5t-34 -131.5q0 -14 0.5 -26.5
t3.5 -26.5q0 -8 5 -17.5t11 -19.5q3 -6 9 -10t14 -6.5t16.5 -2.5t15.5 3q9 3 17.5 6t16.5 9q26 21 50.5 40t44.5 42q42 42 74.5 90.5t59.5 95.5q20 34 35.5 65.5t35.5 66.5q25 46 40 95t27 100q5 21 5.5 42t-1.5 42q-3 20 -22 29t-42 -2q-20 -6 -37 -23.5t-30 -31.5
q-38 -44 -71 -93t-56 -103q-6 -14 -10.5 -29t-7.5 -30q-2 -11 -3.5 -22.5t0 -22t8 -19t20.5 -13.5q8 -3 9.5 -4.5t-4.5 -9.5q-26 -2 -43 7.5t-29 27.5q-17 24 -10.5 59.5t23 73t36 70.5t29.5 53zM418 891q23 0 33 -16q4 -4 6.5 -8.5t6.5 -7.5q5 -11 15.5 -12.5t19.5 2.5
q18 7 34 26q4 7 7 10q1 4 6 4t7 -3q1 -2 3.5 -3.5t4.5 -5.5q11 -10 2 -23q-8 -19 -27 -27q-7 -4 -14 -5.5t-15 -3.5q-13 -7 -28 1q-14 6 -26 12.5t-23 18.5q-2 3 -4 4.5l-6 4.5q-4 2 -7 0q-5 -5 -8 -10t-8 -8q-2 -6 -10 -9q-12 -7 -23 0q-2 3 -8 7q-4 4 0 6q5 7 10.5 11.5
t9.5 8.5q8 8 15 13.5t16 7.5q2 3 6 4t5 1z" />
    <glyph glyph-name="Odieresis" unicode="&#xd6;" horiz-adv-x="525" 
d="M363 667q16 11 30 21t25 21q12 13 37 13h6q69 6 91 -47q8 -21 11.5 -41.5t-0.5 -41.5q-6 -40 -18 -76.5t-27 -69.5q-28 -71 -62 -135t-79 -127q-23 -32 -43.5 -62.5t-46.5 -62.5q-38 -52 -98 -96q-19 -14 -41 -20.5t-48 -10.5h-15q-39 9 -63.5 30t-29.5 56q0 17 0.5 34
t3.5 35q2 29 9.5 57t15.5 61q17 51 38.5 102t47.5 100q29 59 65.5 112t84.5 101q15 10 27 22t29 21q8 9 21.5 11t28.5 -7zM275 574q-10 -9 -21 -23.5t-22 -30.5t-21 -31.5t-17 -25.5q-23 -34 -40.5 -65.5t-34.5 -68.5q-29 -63 -50 -128.5t-34 -131.5q0 -14 0.5 -26.5
t3.5 -26.5q0 -8 5 -17.5t11 -19.5q3 -6 9 -10t14 -6.5t16.5 -2.5t15.5 3q9 3 17.5 6t16.5 9q26 21 50.5 40t44.5 42q42 42 74.5 90.5t59.5 95.5q20 34 35.5 65.5t35.5 66.5q25 46 40 95t27 100q5 21 5.5 42t-1.5 42q-3 20 -22 29t-42 -2q-20 -6 -37 -23.5t-30 -31.5
q-38 -44 -71 -93t-56 -103q-6 -14 -10.5 -29t-7.5 -30q-2 -11 -3.5 -22.5t0 -22t8 -19t20.5 -13.5q8 -3 9.5 -4.5t-4.5 -9.5q-26 -2 -43 7.5t-29 27.5q-17 24 -10.5 59.5t23 73t36 70.5t29.5 53zM360 842q5 2 9 1.5t7 1.5q10 6 18.5 0t13 -15.5t4 -19t-7.5 -9.5
q-22 -7 -47 12q-3 1 -5 6t-2 10t2.5 9t7.5 4zM500 842q5 2 9 1.5t7 1.5q10 6 18.5 0t13 -15.5t4 -19t-7.5 -9.5q-22 -7 -47 12q-3 1 -5 6t-2 10t2.5 9t7.5 4z" />
    <glyph glyph-name="Oslash" unicode="&#xd8;" horiz-adv-x="525" 
d="M363 667q16 11 30 21t25 21q12 13 37 13h6q69 6 91 -47q8 -21 11.5 -41.5t-0.5 -41.5q-6 -40 -18 -76.5t-27 -69.5q-28 -71 -62 -135t-79 -127q-23 -32 -43.5 -62.5t-46.5 -62.5q-38 -52 -98 -96q-19 -14 -41 -20.5t-48 -10.5h-15q-8 2 -14 4q-9 -4 -11 4q-59 22 -68 78
q0 17 0.5 34t3.5 35q2 29 9.5 57t15.5 61q17 51 38.5 102t47.5 100q29 59 65.5 112t84.5 101q15 10 27 22t29 21q8 9 21.5 11t28.5 -7zM515 657q-2 14 -12.5 22.5t-25.5 9.5q0 -15 -5.5 -31.5t-12.5 -26.5q-21 -42 -45.5 -90.5t-50 -98t-49.5 -96.5t-44 -85q-18 -32 -40 -71
t-44.5 -79t-45 -79t-42.5 -71q4 0 12 2q9 3 17.5 6t16.5 9q26 21 50.5 40t44.5 42q42 42 74.5 90.5t59.5 95.5q20 34 35.5 65.5t35.5 66.5q25 46 40 95t27 100q5 21 5.5 42t-1.5 42zM71 -32q26 38 49 77.5t47 81.5q20 41 39.5 79.5t39.5 76.5q-16 3 -28 12t-21 23
q-17 24 -10.5 59.5t23 73t36 70.5t29.5 53q-10 -9 -21 -23.5t-22 -30.5t-21 -31.5t-17 -25.5q-23 -34 -40.5 -65.5t-34.5 -68.5q-29 -63 -50 -128.5t-34 -131.5q0 -14 0.5 -26.5t3.5 -26.5q0 -8 5 -17.5t11 -19.5q3 -8 14 -13zM239 374q-2 -10 -3.5 -20.5t-0.5 -20.5
t5 -18.5t15 -14.5q49 94 94 181t83 175q3 8 5.5 13.5t4.5 10.5q-17 -8 -32 -23t-26 -28q-38 -44 -71 -93t-56 -103q-6 -14 -10.5 -29t-7.5 -30z" />
    <glyph glyph-name="Ugrave" unicode="&#xd9;" horiz-adv-x="695" 
d="M612 579q0 5 2 9.5t4 10.5q17 21 36 51t44 50q10 0 17 1t18 1q16 -2 23.5 -9t1.5 -18q-3 -14 -8 -26.5t-13 -27.5q-19 -31 -38 -60.5t-29 -61.5q-24 -69 -44 -139.5t-46 -139.5q-17 -51 -33.5 -101.5t-33.5 -103.5q-8 -28 -18.5 -54.5t-20.5 -52.5q-5 0 -6.5 -1.5
t-9.5 -1.5q0 26 4.5 52.5t9.5 54.5q25 77 50.5 155.5t57.5 158.5q5 13 8 27t6 29q5 23 14.5 45t18.5 45q1 4 5.5 15t9 23t7.5 22.5t0 14.5v-5q-10 -3 -19 -15t-17.5 -25.5t-15 -26.5t-10.5 -19q-35 -61 -69 -121t-73 -115q-26 -35 -50.5 -65.5t-53.5 -59.5
q-19 -19 -37 -34.5t-46 -29.5q-21 -11 -43 -11.5t-45 7.5q-37 12 -24 38q3 32 20 69q12 23 19 46.5t15 47.5q4 8 8.5 13.5t11.5 13.5q2 11 9 22t4 25q0 5 3.5 11.5t3.5 12.5q27 63 57.5 125.5t68.5 123.5q8 16 16.5 31.5t19.5 32.5q10 7 16 5t20 -2q8 -2 10.5 -7t0.5 -10
q0 -7 -11 -16q-31 -34 -55.5 -77t-41.5 -82q-18 -45 -38.5 -89.5t-39.5 -92.5q-17 -41 -30.5 -80.5t-26.5 -82.5q-1 -3 -3 -10t-2.5 -15t0 -16t5.5 -14q6 2 15 6t17.5 8.5t16 9.5t11.5 9q28 26 55.5 54.5t51.5 60.5q23 31 44 59t44 64q4 11 14.5 25.5t18.5 25.5q20 17 31 37
t20 41t18.5 41.5t26.5 38.5q4 6 8.5 12t8.5 12t5.5 12.5t-0.5 12.5zM404 747q2 -2 1.5 -4.5t-0.5 -4.5q-2 -11 -10 -17q-3 -2 -4 -2.5t-5 1.5q-1 2 -2.5 2.5t-2.5 2.5q-3 5 -7.5 8t-8.5 7q-11 7 -19 16q-7 6 -13.5 12t-13.5 13q-2 2 -3 3.5t-3 3.5q-5 3 -10 5.5t-12 3.5
q-5 0 -1 6q9 8 14.5 13t18.5 7q1 1 4 1q11 0 21 -8q16 -11 32 -29t24 -40z" />
    <glyph glyph-name="Uacute" unicode="&#xda;" horiz-adv-x="695" 
d="M612 579q0 5 2 9.5t4 10.5q17 21 36 51t44 50q10 0 17 1t18 1q16 -2 23.5 -9t1.5 -18q-3 -14 -8 -26.5t-13 -27.5q-19 -31 -38 -60.5t-29 -61.5q-24 -69 -44 -139.5t-46 -139.5q-17 -51 -33.5 -101.5t-33.5 -103.5q-8 -28 -18.5 -54.5t-20.5 -52.5q-5 0 -6.5 -1.5
t-9.5 -1.5q0 26 4.5 52.5t9.5 54.5q25 77 50.5 155.5t57.5 158.5q5 13 8 27t6 29q5 23 14.5 45t18.5 45q1 4 5.5 15t9 23t7.5 22.5t0 14.5v-5q-10 -3 -19 -15t-17.5 -25.5t-15 -26.5t-10.5 -19q-35 -61 -69 -121t-73 -115q-26 -35 -50.5 -65.5t-53.5 -59.5
q-19 -19 -37 -34.5t-46 -29.5q-21 -11 -43 -11.5t-45 7.5q-37 12 -24 38q3 32 20 69q12 23 19 46.5t15 47.5q4 8 8.5 13.5t11.5 13.5q2 11 9 22t4 25q0 5 3.5 11.5t3.5 12.5q27 63 57.5 125.5t68.5 123.5q8 16 16.5 31.5t19.5 32.5q10 7 16 5t20 -2q8 -2 10.5 -7t0.5 -10
q0 -7 -11 -16q-31 -34 -55.5 -77t-41.5 -82q-18 -45 -38.5 -89.5t-39.5 -92.5q-17 -41 -30.5 -80.5t-26.5 -82.5q-1 -3 -3 -10t-2.5 -15t0 -16t5.5 -14q6 2 15 6t17.5 8.5t16 9.5t11.5 9q28 26 55.5 54.5t51.5 60.5q23 31 44 59t44 64q4 11 14.5 25.5t18.5 25.5q20 17 31 37
t20 41t18.5 41.5t26.5 38.5q4 6 8.5 12t8.5 12t5.5 12.5t-0.5 12.5zM365 747q8 22 24 40t32 29q10 8 21 8q3 0 4 -1q13 -2 18.5 -7t14.5 -13q4 -6 -1 -6q-7 -1 -12 -3.5t-10 -5.5q-2 -2 -3 -3.5t-3 -3.5q-7 -7 -13.5 -13t-13.5 -12q-9 -9 -19 -16q-4 -4 -8.5 -7t-7.5 -8
q-1 -2 -2.5 -2.5t-2.5 -2.5q-4 -2 -5 -1.5t-4 2.5q-8 6 -10 17q0 2 -0.5 4.5t1.5 4.5z" />
    <glyph glyph-name="Ucircumflex" unicode="&#xdb;" horiz-adv-x="695" 
d="M612 579q0 5 2 9.5t4 10.5q17 21 36 51t44 50q10 0 17 1t18 1q16 -2 23.5 -9t1.5 -18q-3 -14 -8 -26.5t-13 -27.5q-19 -31 -38 -60.5t-29 -61.5q-24 -69 -44 -139.5t-46 -139.5q-17 -51 -33.5 -101.5t-33.5 -103.5q-8 -28 -18.5 -54.5t-20.5 -52.5q-5 0 -6.5 -1.5
t-9.5 -1.5q0 26 4.5 52.5t9.5 54.5q25 77 50.5 155.5t57.5 158.5q5 13 8 27t6 29q5 23 14.5 45t18.5 45q1 4 5.5 15t9 23t7.5 22.5t0 14.5v-5q-10 -3 -19 -15t-17.5 -25.5t-15 -26.5t-10.5 -19q-35 -61 -69 -121t-73 -115q-26 -35 -50.5 -65.5t-53.5 -59.5
q-19 -19 -37 -34.5t-46 -29.5q-21 -11 -43 -11.5t-45 7.5q-37 12 -24 38q3 32 20 69q12 23 19 46.5t15 47.5q4 8 8.5 13.5t11.5 13.5q2 11 9 22t4 25q0 5 3.5 11.5t3.5 12.5q27 63 57.5 125.5t68.5 123.5q8 16 16.5 31.5t19.5 32.5q10 7 16 5t20 -2q8 -2 10.5 -7t0.5 -10
q0 -7 -11 -16q-31 -34 -55.5 -77t-41.5 -82q-18 -45 -38.5 -89.5t-39.5 -92.5q-17 -41 -30.5 -80.5t-26.5 -82.5q-1 -3 -3 -10t-2.5 -15t0 -16t5.5 -14q6 2 15 6t17.5 8.5t16 9.5t11.5 9q28 26 55.5 54.5t51.5 60.5q23 31 44 59t44 64q4 11 14.5 25.5t18.5 25.5q20 17 31 37
t20 41t18.5 41.5t26.5 38.5q4 6 8.5 12t8.5 12t5.5 12.5t-0.5 12.5zM456 892v-2h1q16 -13 16 -35q0 -10 2 -18.5t4 -16.5q2 -4 2 -11q0 -5 -4.5 -9.5t-8.5 -4.5t-6 3t-4.5 4.5t-4.5 6.5q-3 5 -4.5 10.5t-5.5 10.5q-1 2 -2 5l-2 6q-9 -9 -13 -18q-5 -3 -7.5 -6.5t-7.5 -7.5
q-3 -5 -7 -7.5t-8 -7.5q-5 -3 -6 -3q-8 -6 -15 3q-2 5 -4.5 7.5t-3.5 7.5q19 19 37 39.5t33 43.5h19z" />
    <glyph glyph-name="Udieresis" unicode="&#xdc;" horiz-adv-x="695" 
d="M612 579q0 5 2 9.5t4 10.5q17 21 36 51t44 50q10 0 17 1t18 1q16 -2 23.5 -9t1.5 -18q-3 -14 -8 -26.5t-13 -27.5q-19 -31 -38 -60.5t-29 -61.5q-24 -69 -44 -139.5t-46 -139.5q-17 -51 -33.5 -101.5t-33.5 -103.5q-8 -28 -18.5 -54.5t-20.5 -52.5q-5 0 -6.5 -1.5
t-9.5 -1.5q0 26 4.5 52.5t9.5 54.5q25 77 50.5 155.5t57.5 158.5q5 13 8 27t6 29q5 23 14.5 45t18.5 45q1 4 5.5 15t9 23t7.5 22.5t0 14.5v-5q-10 -3 -19 -15t-17.5 -25.5t-15 -26.5t-10.5 -19q-35 -61 -69 -121t-73 -115q-26 -35 -50.5 -65.5t-53.5 -59.5
q-19 -19 -37 -34.5t-46 -29.5q-21 -11 -43 -11.5t-45 7.5q-37 12 -24 38q3 32 20 69q12 23 19 46.5t15 47.5q4 8 8.5 13.5t11.5 13.5q2 11 9 22t4 25q0 5 3.5 11.5t3.5 12.5q27 63 57.5 125.5t68.5 123.5q8 16 16.5 31.5t19.5 32.5q10 7 16 5t20 -2q8 -2 10.5 -7t0.5 -10
q0 -7 -11 -16q-31 -34 -55.5 -77t-41.5 -82q-18 -45 -38.5 -89.5t-39.5 -92.5q-17 -41 -30.5 -80.5t-26.5 -82.5q-1 -3 -3 -10t-2.5 -15t0 -16t5.5 -14q6 2 15 6t17.5 8.5t16 9.5t11.5 9q28 26 55.5 54.5t51.5 60.5q23 31 44 59t44 64q4 11 14.5 25.5t18.5 25.5q20 17 31 37
t20 41t18.5 41.5t26.5 38.5q4 6 8.5 12t8.5 12t5.5 12.5t-0.5 12.5zM346 779q5 2 9 1.5t7 1.5q10 6 18.5 0t13 -15.5t4 -19t-7.5 -9.5q-22 -7 -47 12q-3 1 -5 6t-2 10t2.5 9t7.5 4zM486 779q5 2 9 1.5t7 1.5q10 6 18.5 0t13 -15.5t4 -19t-7.5 -9.5q-22 -7 -47 12q-3 1 -5 6
t-2 10t2.5 9t7.5 4z" />
    <glyph glyph-name="Yacute" unicode="&#xdd;" horiz-adv-x="451" 
d="M450 559q-7 0 -7 -3q-17 -17 -37.5 -44t-41.5 -50q-42 -46 -84 -87.5t-77 -71.5q-14 -13 -33.5 -23t-40.5 -15q-17 -4 -29.5 -5t-22 1t-18.5 7.5t-19 15.5q-8 6 -11 13.5t-3 15.5q-2 16 -1.5 29t5.5 27q8 31 21 60t27 56q2 9 7 16.5t8 18.5q3 8 9 15.5t9 15.5
q11 16 20 33t18 32q0 4 1 5l2 2q23 37 48 49.5t50 -8.5q3 0 1.5 -2.5t-1.5 -4.5q0 -1 -4.5 -5t-10 -8.5t-10 -8.5t-4.5 -5q-28 -37 -46 -71t-43 -76q-9 -17 -19.5 -36t-20 -38t-18 -38t-12.5 -35q-5 -16 0 -31q0 -5 7 -10q22 -2 39.5 3.5t33 15.5t29.5 22.5t29 23.5
q31 26 59.5 56.5t58.5 55.5q15 18 31.5 37t33.5 43t33.5 53.5t31.5 67.5q3 8 1 11.5t-5 8.5q-3 4 -1 6t5 2q11 2 22.5 3t22.5 4q6 0 12 -2.5t11 -4.5q5 -6 8 -11t3 -13q-3 -22 -7.5 -42.5t-7.5 -39.5q-8 -46 -26 -87.5t-38 -83.5q-22 -50 -42 -96.5t-47 -89.5
q-5 -11 -11 -23t-11 -25q-8 -17 -17 -32t-17 -30q-17 -32 -35 -60.5t-35 -56.5q-11 -20 -23 -38t-29 -36q-9 -8 -13.5 -15.5t-10.5 -15.5q-10 -12 -22.5 -24.5t-35.5 -20.5q-32 -14 -51 -11.5t-29 15t-13 32.5t-3 42q-6 19 -1.5 34t4.5 30q0 4 5 15.5t11.5 25t12.5 24.5
t8 13q3 3 4 6.5t4 8.5q26 38 58.5 75.5t74.5 66.5q16 11 35 18t33 -1q-15 -14 -27 -20t-25 -14.5t-29.5 -24t-41.5 -46.5q-18 -23 -33.5 -52t-29.5 -52q-17 -33 -23.5 -77.5t-3.5 -80.5l4 -4q0 -3 6 -3q4 0 15 6.5t23 15t22 17t13 12.5q18 22 36.5 43t36.5 47q11 14 22 31.5
t19 32.5q13 25 28 49q15 23 25.5 47.5t26.5 45.5q27 55 56.5 110t41.5 106q1 6 6.5 21t11.5 32.5t11.5 33t6.5 22.5v6v0zM337 768q8 22 24 40t32 29q10 8 21 8q3 0 4 -1q13 -2 18.5 -7t14.5 -13q4 -6 -1 -6q-7 -1 -12 -3.5t-10 -5.5q-2 -2 -3 -3.5t-3 -3.5q-7 -7 -13.5 -13
t-13.5 -12q-9 -9 -19 -16q-4 -4 -8.5 -7t-7.5 -8q-1 -2 -2.5 -2.5t-2.5 -2.5q-4 -2 -5 -1.5t-4 2.5q-8 6 -10 17q0 2 -0.5 4.5t1.5 4.5z" />
    <glyph glyph-name="germandbls" unicode="&#xdf;" horiz-adv-x="482" 
d="M149 173q14 11 34 11q17 0 34 1.5t33 5.5q31 6 59.5 16.5t51.5 30.5q8 6 14 13.5t12 15.5q13 16 13 36q0 14 -4.5 25t-18.5 19q-17 7 -39 10q-8 2 -15.5 4t-15.5 4q-4 0 -7.5 -0.5t-8.5 -2.5q-33 -7 -64 13v7.5t2 5.5q6 6 12 11.5t12 9.5q17 10 35.5 21.5t33.5 25.5
q47 37 78 90q11 18 11 42q0 13 -8 26q-8 10 -16.5 13.5t-20.5 1.5q-19 -2 -36.5 -10.5t-32.5 -20.5q-22 -16 -41 -33t-35 -37q0 -1 -1 -2h-1q-29 -35 -51.5 -73.5t-41.5 -77.5q-20 -37 -34.5 -75.5t-28.5 -77.5q-5 -14 -10.5 -27t-9.5 -27q-8 -27 -39 -39q-2 2 -5.5 2.5
t-7.5 2.5q-3 3 -3 8t3 8q8 11 11 24.5t7 24.5q10 27 18.5 55t22.5 54q5 6 6 13t5 13q6 10 9.5 22t11.5 22t14 21t11 23q6 11 12 23l12 24q2 4 4 6t4 6q2 2 3.5 4t3.5 4t2.5 6.5t2.5 6.5q12 12 22.5 26.5t22.5 28.5q14 15 28.5 28t28.5 29q4 4 12 7q10 5 18.5 9t18.5 10
q17 8 34.5 10.5t37.5 7.5q16 -2 31 -6t26 -15q10 -12 16 -23.5t8 -25.5q2 -10 -1 -19.5t-5 -19.5q-10 -29 -31 -55q-23 -25 -47.5 -46.5t-50.5 -41.5q-4 -2 -6.5 -3.5t-4.5 -3.5v-6q8 -2 16 -2h16q28 -4 59 -16q34 -19 49 -54q8 -17 5.5 -33t-10.5 -32q-10 -16 -21 -29
t-25 -23q-26 -14 -51.5 -24t-52.5 -15q-32 -7 -65 -7q-17 -2 -31.5 0t-30.5 7q-4 2 -10 2t-8 6z" />
    <glyph glyph-name="agrave" unicode="&#xe0;" horiz-adv-x="273" 
d="M148 167q-13 0 -25 4q-2 1 -4 2.5t-4 2.5q-9 11 -8 21q1 6 3 11t1 9q0 4 -4 4q-1 -1 -2 -1t-2 -1q-7 -10 -14 -15q-5 -4 -9 -7t-9 -6q-5 -4 -9.5 -8.5t-10.5 -7.5q-22 -17 -52 -14q-8 0 -18 8q-4 6 -7 9q-7 9 -1 17q3 7 5.5 14t2.5 15q3 10 6 12q5 8 10 14t12 12
q5 5 10 10.5t10 10.5q3 4 7 7t8 8q5 4 8.5 8t7.5 8q15 16 32 22l27 12q3 2 7 2.5t8 1.5q6 3 13 0h2q6 -3 13.5 -4t14.5 -2q10 -2 13.5 -7.5t1.5 -12.5q0 -14 -7 -28q-3 -8 -7 -16t-6 -16q-2 -5 -4 -9.5t-4 -9.5l-6 -16t-5 -15v-7q0 -1 2 -2.5t4 -1.5q5 0 8 1q8 3 16.5 7
t16.5 8q12 8 25 16.5t25 16.5q17 9 34 15q3 1 7 1q2 0 4 -2t2 -4l-6 -9l-12 -12t-12 -11q-14 -9 -26 -19t-25 -19q-7 -5 -15 -9.5t-16 -9.5q-15 -8 -37 -8zM147 322q0 6 -5 6q-4 -2 -7 -2t-6 -2q-8 -2 -14 -5.5t-12 -8.5q-8 -6 -16 -14l-16 -16q-12 -14 -23 -29.5t-22 -30.5
v-4q-1 -2 -0.5 -2.5t0.5 -1.5h7q3 3 6 4.5t6 4.5q13 11 26 22.5t25 22.5q11 10 21.5 19.5t20.5 19.5q3 3 5 5.5t4 7.5q1 2 0.5 2.5t-0.5 1.5zM195 446q2 -2 1.5 -4.5t-0.5 -4.5q-2 -11 -10 -17q-3 -2 -4 -2.5t-5 1.5q-1 2 -2.5 2.5t-2.5 2.5q-3 5 -7.5 8t-8.5 7
q-11 7 -19 16q-7 6 -13.5 12t-13.5 13q-2 2 -3 3.5t-3 3.5q-5 3 -10 5.5t-12 3.5q-5 0 -1 6q9 8 14.5 13t18.5 7q1 1 4 1q11 0 21 -8q16 -11 32 -29t24 -40z" />
    <glyph glyph-name="aacute" unicode="&#xe1;" horiz-adv-x="273" 
d="M148 167q-13 0 -25 4q-2 1 -4 2.5t-4 2.5q-9 11 -8 21q1 6 3 11t1 9q0 4 -4 4q-1 -1 -2 -1t-2 -1q-7 -10 -14 -15q-5 -4 -9 -7t-9 -6q-5 -4 -9.5 -8.5t-10.5 -7.5q-22 -17 -52 -14q-8 0 -18 8q-4 6 -7 9q-7 9 -1 17q3 7 5.5 14t2.5 15q3 10 6 12q5 8 10 14t12 12
q5 5 10 10.5t10 10.5q3 4 7 7t8 8q5 4 8.5 8t7.5 8q15 16 32 22l27 12q3 2 7 2.5t8 1.5q6 3 13 0h2q6 -3 13.5 -4t14.5 -2q10 -2 13.5 -7.5t1.5 -12.5q0 -14 -7 -28q-3 -8 -7 -16t-6 -16q-2 -5 -4 -9.5t-4 -9.5l-6 -16t-5 -15v-7q0 -1 2 -2.5t4 -1.5q5 0 8 1q8 3 16.5 7
t16.5 8q12 8 25 16.5t25 16.5q17 9 34 15q3 1 7 1q2 0 4 -2t2 -4l-6 -9l-12 -12t-12 -11q-14 -9 -26 -19t-25 -19q-7 -5 -15 -9.5t-16 -9.5q-15 -8 -37 -8zM147 322q0 6 -5 6q-4 -2 -7 -2t-6 -2q-8 -2 -14 -5.5t-12 -8.5q-8 -6 -16 -14l-16 -16q-12 -14 -23 -29.5t-22 -30.5
v-4q-1 -2 -0.5 -2.5t0.5 -1.5h7q3 3 6 4.5t6 4.5q13 11 26 22.5t25 22.5q11 10 21.5 19.5t20.5 19.5q3 3 5 5.5t4 7.5q1 2 0.5 2.5t-0.5 1.5zM94 431q8 22 24 40t32 29q10 8 21 8q3 0 4 -1q13 -2 18.5 -7t14.5 -13q4 -6 -1 -6q-7 -1 -12 -3.5t-10 -5.5q-2 -2 -3 -3.5
t-3 -3.5q-7 -7 -13.5 -13t-13.5 -12q-9 -9 -19 -16q-4 -4 -8.5 -7t-7.5 -8q-1 -2 -2.5 -2.5t-2.5 -2.5q-4 -2 -5 -1.5t-4 2.5q-8 6 -10 17q0 2 -0.5 4.5t1.5 4.5z" />
    <glyph glyph-name="acircumflex" unicode="&#xe2;" horiz-adv-x="273" 
d="M148 167q-13 0 -25 4q-2 1 -4 2.5t-4 2.5q-9 11 -8 21q1 6 3 11t1 9q0 4 -4 4q-1 -1 -2 -1t-2 -1q-7 -10 -14 -15q-5 -4 -9 -7t-9 -6q-5 -4 -9.5 -8.5t-10.5 -7.5q-22 -17 -52 -14q-8 0 -18 8q-4 6 -7 9q-7 9 -1 17q3 7 5.5 14t2.5 15q3 10 6 12q5 8 10 14t12 12
q5 5 10 10.5t10 10.5q3 4 7 7t8 8q5 4 8.5 8t7.5 8q15 16 32 22l27 12q3 2 7 2.5t8 1.5q6 3 13 0h2q6 -3 13.5 -4t14.5 -2q10 -2 13.5 -7.5t1.5 -12.5q0 -14 -7 -28q-3 -8 -7 -16t-6 -16q-2 -5 -4 -9.5t-4 -9.5l-6 -16t-5 -15v-7q0 -1 2 -2.5t4 -1.5q5 0 8 1q8 3 16.5 7
t16.5 8q12 8 25 16.5t25 16.5q17 9 34 15q3 1 7 1q2 0 4 -2t2 -4l-6 -9l-12 -12t-12 -11q-14 -9 -26 -19t-25 -19q-7 -5 -15 -9.5t-16 -9.5q-15 -8 -37 -8zM147 322q0 6 -5 6q-4 -2 -7 -2t-6 -2q-8 -2 -14 -5.5t-12 -8.5q-8 -6 -16 -14l-16 -16q-12 -14 -23 -29.5t-22 -30.5
v-4q-1 -2 -0.5 -2.5t0.5 -1.5h7q3 3 6 4.5t6 4.5q13 11 26 22.5t25 22.5q11 10 21.5 19.5t20.5 19.5q3 3 5 5.5t4 7.5q1 2 0.5 2.5t-0.5 1.5zM168 567v-2h1q16 -13 16 -35q0 -10 2 -18.5t4 -16.5q2 -4 2 -11q0 -5 -4.5 -9.5t-8.5 -4.5t-6 3t-4.5 4.5t-4.5 6.5
q-3 5 -4.5 10.5t-5.5 10.5q-1 2 -2 5l-2 6q-9 -9 -13 -18q-5 -3 -7.5 -6.5t-7.5 -7.5q-3 -5 -7 -7.5t-8 -7.5q-5 -3 -6 -3q-8 -6 -15 3q-2 5 -4.5 7.5t-3.5 7.5q19 19 37 39.5t33 43.5h19z" />
    <glyph glyph-name="atilde" unicode="&#xe3;" horiz-adv-x="273" 
d="M148 167q-13 0 -25 4q-2 1 -4 2.5t-4 2.5q-9 11 -8 21q1 6 3 11t1 9q0 4 -4 4q-1 -1 -2 -1t-2 -1q-7 -10 -14 -15q-5 -4 -9 -7t-9 -6q-5 -4 -9.5 -8.5t-10.5 -7.5q-22 -17 -52 -14q-8 0 -18 8q-4 6 -7 9q-7 9 -1 17q3 7 5.5 14t2.5 15q3 10 6 12q5 8 10 14t12 12
q5 5 10 10.5t10 10.5q3 4 7 7t8 8q5 4 8.5 8t7.5 8q15 16 32 22l27 12q3 2 7 2.5t8 1.5q6 3 13 0h2q6 -3 13.5 -4t14.5 -2q10 -2 13.5 -7.5t1.5 -12.5q0 -14 -7 -28q-3 -8 -7 -16t-6 -16q-2 -5 -4 -9.5t-4 -9.5l-6 -16t-5 -15v-7q0 -1 2 -2.5t4 -1.5q5 0 8 1q8 3 16.5 7
t16.5 8q12 8 25 16.5t25 16.5q17 9 34 15q3 1 7 1q2 0 4 -2t2 -4l-6 -9l-12 -12t-12 -11q-14 -9 -26 -19t-25 -19q-7 -5 -15 -9.5t-16 -9.5q-15 -8 -37 -8zM147 322q0 6 -5 6q-4 -2 -7 -2t-6 -2q-8 -2 -14 -5.5t-12 -8.5q-8 -6 -16 -14l-16 -16q-12 -14 -23 -29.5t-22 -30.5
v-4q-1 -2 -0.5 -2.5t0.5 -1.5h7q3 3 6 4.5t6 4.5q13 11 26 22.5t25 22.5q11 10 21.5 19.5t20.5 19.5q3 3 5 5.5t4 7.5q1 2 0.5 2.5t-0.5 1.5zM111 524q23 0 33 -16q4 -4 6.5 -8.5t6.5 -7.5q5 -11 15.5 -12.5t19.5 2.5q18 7 34 26q4 7 7 10q1 4 6 4t7 -3q1 -2 3.5 -3.5
t4.5 -5.5q11 -10 2 -23q-8 -19 -27 -27q-7 -4 -14 -5.5t-15 -3.5q-13 -7 -28 1q-14 6 -26 12.5t-23 18.5q-2 3 -4 4.5l-6 4.5q-4 2 -7 0q-5 -5 -8 -10t-8 -8q-2 -6 -10 -9q-12 -7 -23 0q-2 3 -8 7q-4 4 0 6q5 7 10.5 11.5t9.5 8.5q8 8 15 13.5t16 7.5q2 3 6 4t5 1z" />
    <glyph glyph-name="adieresis" unicode="&#xe4;" horiz-adv-x="273" 
d="M148 167q-13 0 -25 4q-2 1 -4 2.5t-4 2.5q-9 11 -8 21q1 6 3 11t1 9q0 4 -4 4q-1 -1 -2 -1t-2 -1q-7 -10 -14 -15q-5 -4 -9 -7t-9 -6q-5 -4 -9.5 -8.5t-10.5 -7.5q-22 -17 -52 -14q-8 0 -18 8q-4 6 -7 9q-7 9 -1 17q3 7 5.5 14t2.5 15q3 10 6 12q5 8 10 14t12 12
q5 5 10 10.5t10 10.5q3 4 7 7t8 8q5 4 8.5 8t7.5 8q15 16 32 22l27 12q3 2 7 2.5t8 1.5q6 3 13 0h2q6 -3 13.5 -4t14.5 -2q10 -2 13.5 -7.5t1.5 -12.5q0 -14 -7 -28q-3 -8 -7 -16t-6 -16q-2 -5 -4 -9.5t-4 -9.5l-6 -16t-5 -15v-7q0 -1 2 -2.5t4 -1.5q5 0 8 1q8 3 16.5 7
t16.5 8q12 8 25 16.5t25 16.5q17 9 34 15q3 1 7 1q2 0 4 -2t2 -4l-6 -9l-12 -12t-12 -11q-14 -9 -26 -19t-25 -19q-7 -5 -15 -9.5t-16 -9.5q-15 -8 -37 -8zM147 322q0 6 -5 6q-4 -2 -7 -2t-6 -2q-8 -2 -14 -5.5t-12 -8.5q-8 -6 -16 -14l-16 -16q-12 -14 -23 -29.5t-22 -30.5
v-4q-1 -2 -0.5 -2.5t0.5 -1.5h7q3 3 6 4.5t6 4.5q13 11 26 22.5t25 22.5q11 10 21.5 19.5t20.5 19.5q3 3 5 5.5t4 7.5q1 2 0.5 2.5t-0.5 1.5zM33 466q5 2 9 1.5t7 1.5q10 6 18.5 0t13 -15.5t4 -19t-7.5 -9.5q-22 -7 -47 12q-3 1 -5 6t-2 10t2.5 9t7.5 4zM173 466q5 2 9 1.5
t7 1.5q10 6 18.5 0t13 -15.5t4 -19t-7.5 -9.5q-22 -7 -47 12q-3 1 -5 6t-2 10t2.5 9t7.5 4z" />
    <glyph glyph-name="aring" unicode="&#xe5;" horiz-adv-x="273" 
d="M148 167q-13 0 -25 4q-2 1 -4 2.5t-4 2.5q-9 11 -8 21q1 6 3 11t1 9q0 4 -4 4q-1 -1 -2 -1t-2 -1q-7 -10 -14 -15q-5 -4 -9 -7t-9 -6q-5 -4 -9.5 -8.5t-10.5 -7.5q-22 -17 -52 -14q-8 0 -18 8q-4 6 -7 9q-7 9 -1 17q3 7 5.5 14t2.5 15q3 10 6 12q5 8 10 14t12 12
q5 5 10 10.5t10 10.5q3 4 7 7t8 8q5 4 8.5 8t7.5 8q15 16 32 22l27 12q3 2 7 2.5t8 1.5q6 3 13 0h2q6 -3 13.5 -4t14.5 -2q10 -2 13.5 -7.5t1.5 -12.5q0 -14 -7 -28q-3 -8 -7 -16t-6 -16q-2 -5 -4 -9.5t-4 -9.5l-6 -16t-5 -15v-7q0 -1 2 -2.5t4 -1.5q5 0 8 1q8 3 16.5 7
t16.5 8q12 8 25 16.5t25 16.5q17 9 34 15q3 1 7 1q2 0 4 -2t2 -4l-6 -9l-12 -12t-12 -11q-14 -9 -26 -19t-25 -19q-7 -5 -15 -9.5t-16 -9.5q-15 -8 -37 -8zM147 322q0 6 -5 6q-4 -2 -7 -2t-6 -2q-8 -2 -14 -5.5t-12 -8.5q-8 -6 -16 -14l-16 -16q-12 -14 -23 -29.5t-22 -30.5
v-4q-1 -2 -0.5 -2.5t0.5 -1.5h7q3 3 6 4.5t6 4.5q13 11 26 22.5t25 22.5q11 10 21.5 19.5t20.5 19.5q3 3 5 5.5t4 7.5q1 2 0.5 2.5t-0.5 1.5zM84 510q6 2 11 3t10 3q5 -5 10 -8t12 -8q6 4 10 6q11 5 23 3q5 -2 12.5 -3t15.5 -4q1 -2 3.5 -3.5t4.5 -5.5q12 -9 6 -25
q-12 -35 -47 -59q-5 -3 -12.5 -6.5t-15.5 -5.5q-15 -3 -27.5 0.5t-23.5 17.5q-13 14 -5 34q5 22 12 44l2 8t-1 9zM174 476q-4 4 -7 4h-8.5t-8.5 -2q-7 0 -12 1t-11 1q-12 0 -14 -10q-3 -7 -5 -14.5t-5 -15.5q-2 -5 1.5 -8t6.5 -3q2 0 4 0.5t3 2.5q15 6 30 17q5 2 10 6.5
t9 9.5q2 2 3.5 5t3.5 6z" />
    <glyph glyph-name="ccedilla" unicode="&#xe7;" horiz-adv-x="154" 
d="M87 112q1 0 1.5 1.5t-0.5 2.5v4l-3.5 3.5t-2.5 3.5q-9 4 -15 0q-2 -4 -7 -4q-4 0 -4 4q-1 9 -4 15l-3 11q-8 -2 -16.5 -3.5t-17.5 -0.5h-14q-12 2 -18 8q-5 5 -7.5 9t-5.5 9q-1 1 -1 2q-1 1 -1 2q2 6 2.5 12t1.5 11q3 16 2 26q0 4 1 6q8 8 14 18t11 21q1 6 5 11.5t7 11.5
q2 4 4.5 7t4.5 6q5 2 8 5t7 6q8 5 17 8q7 4 18 0q4 -2 5.5 -5t3.5 -6l15 -25l-9 -4.5t-26 0.5l-2 -2q-12 -13 -21 -27t-17 -29q-4 -10 -7 -19t-4 -18q-2 -5 1 -7q4 -4 7 -4q4 0 10 2l18 8t19 9q7 5 14.5 9.5t15.5 9.5l14 10v-1l2 1q20 14 46 28q5 3 9.5 4.5t9.5 3.5q4 4 4 0
q3 -3 0 -5q0 -1 -1 -3q-2 -3 -4.5 -6t-5.5 -6q-3 -2 -6 -4.5t-6 -5.5q-3 -5 -7.5 -11t-8.5 -9q-9 -5 -15.5 -12t-14.5 -12l-12 -10l-32 -21l-3 -2l4 -11q2 -5 8 -5l16 -3q6 -1 10 -7l4 -10q2 -2 0 -6q-5 -15 -19 -18q-19 -4 -39 6q-4 4 -5 9q0 3 3 3q2 0 3.5 0.5t3.5 -0.5
q13 -5 24 -5h11z" />
    <glyph glyph-name="egrave" unicode="&#xe8;" horiz-adv-x="167" 
d="M27 142q-11 0 -18 3l-4 2t-6 2q-2 1 -3 2t-3 2q-5 5 -9.5 9t-7.5 10q-4 8 0 19q2 8 5 16t6 17q1 3 2.5 7t3.5 7q5 9 8 22q2 11 8 16q5 13 19 25q6 6 11.5 12t11.5 11q4 2 7 4q6 2 11.5 3.5t13.5 3.5q2 1 4.5 1h4.5q9 -2 11 -5q8 -7 14 -14q4 -6 7 -14t-2 -16
q-6 -8 -14 -15.5t-16 -14.5q-10 -8 -20 -16.5t-21 -16.5q-7 -5 -16 -4q-4 0 -6 -1q-6 -3 -8 -6q-4 -8 -4 -12q-5 -11 -3 -25q2 -2 3 -3.5t4 -3.5q8 -2 13 -1q13 2 24 7q14 5 25.5 11t23.5 13q13 8 25.5 15.5t25.5 15.5q6 2 9 2q3 2 6.5 -0.5t2.5 -4.5q-3 -14 -15 -25
q-11 -6 -21.5 -14t-19.5 -16q-8 -5 -16.5 -10.5t-18.5 -8.5q-7 -3 -14.5 -5.5t-15.5 -2.5q-7 -2 -14 -3t-14 0zM90 296q-2 2 -2 3.5t-1 1.5h-6q-1 -2 -4 -5q-10 -10 -19.5 -21t-15.5 -24q0 -4 1 -4h3q5 5 10 9.5t10 9.5q8 5 13 12t9 14q2 2 2 4zM141 400q2 -2 1.5 -4.5
t-0.5 -4.5q-2 -11 -10 -17q-3 -2 -4 -2.5t-5 1.5q-1 2 -2.5 2.5t-2.5 2.5q-3 5 -7.5 8t-8.5 7q-11 7 -19 16q-7 6 -13.5 12t-13.5 13q-2 2 -3 3.5t-3 3.5q-5 3 -10 5.5t-12 3.5q-5 0 -1 6q9 8 14.5 13t18.5 7q1 1 4 1q11 0 21 -8q16 -11 32 -29t24 -40z" />
    <glyph glyph-name="eacute" unicode="&#xe9;" horiz-adv-x="167" 
d="M27 142q-11 0 -18 3l-4 2t-6 2q-2 1 -3 2t-3 2q-5 5 -9.5 9t-7.5 10q-4 8 0 19q2 8 5 16t6 17q1 3 2.5 7t3.5 7q5 9 8 22q2 11 8 16q5 13 19 25q6 6 11.5 12t11.5 11q4 2 7 4q6 2 11.5 3.5t13.5 3.5q2 1 4.5 1h4.5q9 -2 11 -5q8 -7 14 -14q4 -6 7 -14t-2 -16
q-6 -8 -14 -15.5t-16 -14.5q-10 -8 -20 -16.5t-21 -16.5q-7 -5 -16 -4q-4 0 -6 -1q-6 -3 -8 -6q-4 -8 -4 -12q-5 -11 -3 -25q2 -2 3 -3.5t4 -3.5q8 -2 13 -1q13 2 24 7q14 5 25.5 11t23.5 13q13 8 25.5 15.5t25.5 15.5q6 2 9 2q3 2 6.5 -0.5t2.5 -4.5q-3 -14 -15 -25
q-11 -6 -21.5 -14t-19.5 -16q-8 -5 -16.5 -10.5t-18.5 -8.5q-7 -3 -14.5 -5.5t-15.5 -2.5q-7 -2 -14 -3t-14 0zM90 296q-2 2 -2 3.5t-1 1.5h-6q-1 -2 -4 -5q-10 -10 -19.5 -21t-15.5 -24q0 -4 1 -4h3q5 5 10 9.5t10 9.5q8 5 13 12t9 14q2 2 2 4zM27 400q8 22 24 40t32 29
q10 8 21 8q3 0 4 -1q13 -2 18.5 -7t14.5 -13q4 -6 -1 -6q-7 -1 -12 -3.5t-10 -5.5q-2 -2 -3 -3.5t-3 -3.5q-7 -7 -13.5 -13t-13.5 -12q-9 -9 -19 -16q-4 -4 -8.5 -7t-7.5 -8q-1 -2 -2.5 -2.5t-2.5 -2.5q-4 -2 -5 -1.5t-4 2.5q-8 6 -10 17q0 2 -0.5 4.5t1.5 4.5z" />
    <glyph glyph-name="ecircumflex" unicode="&#xea;" horiz-adv-x="167" 
d="M27 142q-11 0 -18 3l-4 2t-6 2q-2 1 -3 2t-3 2q-5 5 -9.5 9t-7.5 10q-4 8 0 19q2 8 5 16t6 17q1 3 2.5 7t3.5 7q5 9 8 22q2 11 8 16q5 13 19 25q6 6 11.5 12t11.5 11q4 2 7 4q6 2 11.5 3.5t13.5 3.5q2 1 4.5 1h4.5q9 -2 11 -5q8 -7 14 -14q4 -6 7 -14t-2 -16
q-6 -8 -14 -15.5t-16 -14.5q-10 -8 -20 -16.5t-21 -16.5q-7 -5 -16 -4q-4 0 -6 -1q-6 -3 -8 -6q-4 -8 -4 -12q-5 -11 -3 -25q2 -2 3 -3.5t4 -3.5q8 -2 13 -1q13 2 24 7q14 5 25.5 11t23.5 13q13 8 25.5 15.5t25.5 15.5q6 2 9 2q3 2 6.5 -0.5t2.5 -4.5q-3 -14 -15 -25
q-11 -6 -21.5 -14t-19.5 -16q-8 -5 -16.5 -10.5t-18.5 -8.5q-7 -3 -14.5 -5.5t-15.5 -2.5q-7 -2 -14 -3t-14 0zM90 296q-2 2 -2 3.5t-1 1.5h-6q-1 -2 -4 -5q-10 -10 -19.5 -21t-15.5 -24q0 -4 1 -4h3q5 5 10 9.5t10 9.5q8 5 13 12t9 14q2 2 2 4zM118 498v-2h1q16 -13 16 -35
q0 -10 2 -18.5t4 -16.5q2 -4 2 -11q0 -5 -4.5 -9.5t-8.5 -4.5t-6 3t-4.5 4.5t-4.5 6.5q-3 5 -4.5 10.5t-5.5 10.5q-1 2 -2 5l-2 6q-9 -9 -13 -18q-5 -3 -7.5 -6.5t-7.5 -7.5q-3 -5 -7 -7.5t-8 -7.5q-5 -3 -6 -3q-8 -6 -15 3q-2 5 -4.5 7.5t-3.5 7.5q19 19 37 39.5t33 43.5
h19z" />
    <glyph glyph-name="edieresis" unicode="&#xeb;" horiz-adv-x="167" 
d="M27 142q-11 0 -18 3l-4 2t-6 2q-2 1 -3 2t-3 2q-5 5 -9.5 9t-7.5 10q-4 8 0 19q2 8 5 16t6 17q1 3 2.5 7t3.5 7q5 9 8 22q2 11 8 16q5 13 19 25q6 6 11.5 12t11.5 11q4 2 7 4q6 2 11.5 3.5t13.5 3.5q2 1 4.5 1h4.5q9 -2 11 -5q8 -7 14 -14q4 -6 7 -14t-2 -16
q-6 -8 -14 -15.5t-16 -14.5q-10 -8 -20 -16.5t-21 -16.5q-7 -5 -16 -4q-4 0 -6 -1q-6 -3 -8 -6q-4 -8 -4 -12q-5 -11 -3 -25q2 -2 3 -3.5t4 -3.5q8 -2 13 -1q13 2 24 7q14 5 25.5 11t23.5 13q13 8 25.5 15.5t25.5 15.5q6 2 9 2q3 2 6.5 -0.5t2.5 -4.5q-3 -14 -15 -25
q-11 -6 -21.5 -14t-19.5 -16q-8 -5 -16.5 -10.5t-18.5 -8.5q-7 -3 -14.5 -5.5t-15.5 -2.5q-7 -2 -14 -3t-14 0zM90 296q-2 2 -2 3.5t-1 1.5h-6q-1 -2 -4 -5q-10 -10 -19.5 -21t-15.5 -24q0 -4 1 -4h3q5 5 10 9.5t10 9.5q8 5 13 12t9 14q2 2 2 4zM-12 452q5 2 9 1.5t7 1.5
q10 6 18.5 0t13 -15.5t4 -19t-7.5 -9.5q-22 -7 -47 12q-3 1 -5 6t-2 10t2.5 9t7.5 4zM128 452q5 2 9 1.5t7 1.5q10 6 18.5 0t13 -15.5t4 -19t-7.5 -9.5q-22 -7 -47 12q-3 1 -5 6t-2 10t2.5 9t7.5 4z" />
    <glyph glyph-name="igrave" unicode="&#xec;" horiz-adv-x="157" 
d="M-23 202q2 6 3 9.5t3 5.5q8 24 24 46.5t23 37.5q2 4 3 8t3 9t4.5 10t6.5 8q2 5 5 6t8 2h3q12 1 18 -12q3 -3 1 -10q-4 -8 -6 -10q-9 -14 -17.5 -25t-15.5 -26q-5 -8 -11 -20l-10 -20q-2 -2 -4.5 -10t-2.5 -11q-1 -2 3 -3t6 -1q9 1 22.5 6t29 11.5t31.5 15t31 17.5
q9 4 16 8t16 5q2 -1 2 -5v-3q-3 -5 -8 -8.5t-10 -7.5q-11 -9 -28.5 -21t-36 -23.5t-36 -21t-28.5 -13.5q-11 -5 -24 -2l-9 3q-13 6 -16 20q-2 3 -1 4t0 4q0 8 1 12q0 2 1 4t0 1zM152 489q2 -2 1.5 -4.5t-0.5 -4.5q-2 -11 -10 -17q-3 -2 -4 -2.5t-5 1.5q-1 2 -2.5 2.5
t-2.5 2.5q-3 5 -7.5 8t-8.5 7q-11 7 -19 16q-7 6 -13.5 12t-13.5 13q-2 2 -3 3.5t-3 3.5q-5 3 -10 5.5t-12 3.5q-5 0 -1 6q9 8 14.5 13t18.5 7q1 1 4 1q11 0 21 -8q16 -11 32 -29t24 -40z" />
    <glyph glyph-name="iacute" unicode="&#xed;" horiz-adv-x="157" 
d="M-23 202q2 6 3 9.5t3 5.5q8 24 24 46.5t23 37.5q2 4 3 8t3 9t4.5 10t6.5 8q2 5 5 6t8 2h3q12 1 18 -12q3 -3 1 -10q-4 -8 -6 -10q-9 -14 -17.5 -25t-15.5 -26q-5 -8 -11 -20l-10 -20q-2 -2 -4.5 -10t-2.5 -11q-1 -2 3 -3t6 -1q9 1 22.5 6t29 11.5t31.5 15t31 17.5
q9 4 16 8t16 5q2 -1 2 -5v-3q-3 -5 -8 -8.5t-10 -7.5q-11 -9 -28.5 -21t-36 -23.5t-36 -21t-28.5 -13.5q-11 -5 -24 -2l-9 3q-13 6 -16 20q-2 3 -1 4t0 4q0 8 1 12q0 2 1 4t0 1zM36 480q8 22 24 40t32 29q10 8 21 8q3 0 4 -1q13 -2 18.5 -7t14.5 -13q4 -6 -1 -6
q-7 -1 -12 -3.5t-10 -5.5q-2 -2 -3 -3.5t-3 -3.5q-7 -7 -13.5 -13t-13.5 -12q-9 -9 -19 -16q-4 -4 -8.5 -7t-7.5 -8q-1 -2 -2.5 -2.5t-2.5 -2.5q-4 -2 -5 -1.5t-4 2.5q-8 6 -10 17q0 2 -0.5 4.5t1.5 4.5z" />
    <glyph glyph-name="icircumflex" unicode="&#xee;" horiz-adv-x="157" 
d="M-23 202q2 6 3 9.5t3 5.5q8 24 24 46.5t23 37.5q2 4 3 8t3 9t4.5 10t6.5 8q2 5 5 6t8 2h3q12 1 18 -12q3 -3 1 -10q-4 -8 -6 -10q-9 -14 -17.5 -25t-15.5 -26q-5 -8 -11 -20l-10 -20q-2 -2 -4.5 -10t-2.5 -11q-1 -2 3 -3t6 -1q9 1 22.5 6t29 11.5t31.5 15t31 17.5
q9 4 16 8t16 5q2 -1 2 -5v-3q-3 -5 -8 -8.5t-10 -7.5q-11 -9 -28.5 -21t-36 -23.5t-36 -21t-28.5 -13.5q-11 -5 -24 -2l-9 3q-13 6 -16 20q-2 3 -1 4t0 4q0 8 1 12q0 2 1 4t0 1zM153 569v-2h1q16 -13 16 -35q0 -10 2 -18.5t4 -16.5q2 -4 2 -11q0 -5 -4.5 -9.5t-8.5 -4.5
t-6 3t-4.5 4.5t-4.5 6.5q-3 5 -4.5 10.5t-5.5 10.5q-1 2 -2 5l-2 6q-9 -9 -13 -18q-5 -3 -7.5 -6.5t-7.5 -7.5q-3 -5 -7 -7.5t-8 -7.5q-5 -3 -6 -3q-8 -6 -15 3q-2 5 -4.5 7.5t-3.5 7.5q19 19 37 39.5t33 43.5h19z" />
    <glyph glyph-name="idieresis" unicode="&#xef;" horiz-adv-x="157" 
d="M-23 202q2 6 3 9.5t3 5.5q8 24 24 46.5t23 37.5q2 4 3 8t3 9t4.5 10t6.5 8q2 5 5 6t8 2h3q12 1 18 -12q3 -3 1 -10q-4 -8 -6 -10q-9 -14 -17.5 -25t-15.5 -26q-5 -8 -11 -20l-10 -20q-2 -2 -4.5 -10t-2.5 -11q-1 -2 3 -3t6 -1q9 1 22.5 6t29 11.5t31.5 15t31 17.5
q9 4 16 8t16 5q2 -1 2 -5v-3q-3 -5 -8 -8.5t-10 -7.5q-11 -9 -28.5 -21t-36 -23.5t-36 -21t-28.5 -13.5q-11 -5 -24 -2l-9 3q-13 6 -16 20q-2 3 -1 4t0 4q0 8 1 12q0 2 1 4t0 1zM21 515q5 2 9 1.5t7 1.5q10 6 18.5 0t13 -15.5t4 -19t-7.5 -9.5q-22 -7 -47 12q-3 1 -5 6
t-2 10t2.5 9t7.5 4zM161 515q5 2 9 1.5t7 1.5q10 6 18.5 0t13 -15.5t4 -19t-7.5 -9.5q-22 -7 -47 12q-3 1 -5 6t-2 10t2.5 9t7.5 4z" />
    <glyph glyph-name="ntilde" unicode="&#xf1;" horiz-adv-x="213" 
d="M97 180q11 7 22.5 14t21.5 16q12 9 26.5 16.5t27.5 16.5q4 2 8.5 4.5t9.5 4.5t9 4t10 4q4 1 2 -3q1 -3 0 -5t-2 -5l-21 -16q-3 -2 -6.5 -4.5t-6.5 -4.5l-38 -36q-12 -11 -24.5 -22t-26.5 -22q-5 -3 -9.5 -7t-9.5 -8q-4 -3 -7.5 -6t-5.5 -4q-14 -5 -22 2l-5 4q-7 9 -9 13
t1 18l4 17q5 14 9 27t10 27l9 25l2 10q0 4 -4 6q-3 0 -5 -1l-24 -24q-6 -7 -13.5 -12.5t-15.5 -7.5q-3 -2 -5 -3t-4 -4q-3 -6 -14 -11l-7 -3q-9 -4 -13 6q-4 6 -2 15q4 8 6.5 15t5.5 14q5 8 9 17t7 19q2 8 6 14q3 9 7 18t7 19q2 6 4.5 11t4.5 10t9 5h10q3 0 6.5 -0.5
t5.5 -3.5q9 -7 7 -16q0 -5 -2 -9.5t-2 -9.5q1 -2 4 -2t5 1q8 8 17.5 14t17.5 14q10 7 25 7q11 0 16 -6q1 -2 2 -3.5t1 -3.5q3 -6 2 -8q-2 -8 -4 -13l-35 -76l-18 -46q-5 -12 -3 -20q0 -3 3 -3h2v-1zM82 524q23 0 33 -16q4 -4 6.5 -8.5t6.5 -7.5q5 -11 15.5 -12.5t19.5 2.5
q18 7 34 26q4 7 7 10q1 4 6 4t7 -3q1 -2 3.5 -3.5t4.5 -5.5q11 -10 2 -23q-8 -19 -27 -27q-7 -4 -14 -5.5t-15 -3.5q-13 -7 -28 1q-14 6 -26 12.5t-23 18.5q-2 3 -4 4.5l-6 4.5q-4 2 -7 0q-5 -5 -8 -10t-8 -8q-2 -6 -10 -9q-12 -7 -23 0q-2 3 -8 7q-4 4 0 6q5 7 10.5 11.5
t9.5 8.5q8 8 15 13.5t16 7.5q2 3 6 4t5 1z" />
    <glyph glyph-name="ograve" unicode="&#xf2;" 
d="M140 307q0 -3 -1 -7q0 -8 9 -8h10q8 2 21.5 2t21.5 2h14q2 -2 2 -4q4 -6 -1 -9q-1 -3 -2.5 -3.5t-3.5 -2.5q-4 -4 -6 -4q-11 -3 -25.5 -5t-24.5 -5q-16 -7 -31 -7q-2 -1 -3.5 -2t-3.5 -2q-2 -2 -2.5 -3.5t-1.5 -2.5q-3 -4 -4 -6.5t-3 -4.5q-11 -23 -31.5 -42t-37.5 -32
q-7 -6 -20 -8h-7q-3 0 -7 2q-12 3 -18 10t-9 18q-1 2 -1 3q-2 8 1 15q1 3 2.5 5t1.5 5q4 8 5 12q4 14 7.5 23t9.5 23l6 14t7 14t8.5 13t9.5 12q5 8 9 15t9 15q4 6 11 7q4 4 11 4q11 2 25 4t22 -6q2 -2 4 -2.5t4 -2.5q3 -5 5 -9t5 -9q2 -5 3 -9.5t0 -10.5v-11zM82 265
q0 4 -1 5q-5 6 -8 12l-6 12q-1 2 -5 4q-1 1 -5 1q-2 0 -5 -3q-5 -7 -10 -16q-11 -20 -17 -36t-12 -38v-3q-1 -2 -0.5 -4t2.5 -2q3 -2 5 0q21 8 36 27t25 36q1 2 1 5zM114 334q0 2 -2 4q-4 0 -4 -1q-14 -11 -17 -29q-1 -2 -0.5 -3.5t0.5 -3.5q0 -1 2 -5q2 -2 4.5 -2t4.5 2
q3 3 5 6q4 6 5 14l2 16v2zM157 455q2 -2 1.5 -4.5t-0.5 -4.5q-2 -11 -10 -17q-3 -2 -4 -2.5t-5 1.5q-1 2 -2.5 2.5t-2.5 2.5q-3 5 -7.5 8t-8.5 7q-11 7 -19 16q-7 6 -13.5 12t-13.5 13q-2 2 -3 3.5t-3 3.5q-5 3 -10 5.5t-12 3.5q-5 0 -1 6q9 8 14.5 13t18.5 7q1 1 4 1
q11 0 21 -8q16 -11 32 -29t24 -40z" />
    <glyph glyph-name="oacute" unicode="&#xf3;" 
d="M140 307q0 -3 -1 -7q0 -8 9 -8h10q8 2 21.5 2t21.5 2h14q2 -2 2 -4q4 -6 -1 -9q-1 -3 -2.5 -3.5t-3.5 -2.5q-4 -4 -6 -4q-11 -3 -25.5 -5t-24.5 -5q-16 -7 -31 -7q-2 -1 -3.5 -2t-3.5 -2q-2 -2 -2.5 -3.5t-1.5 -2.5q-3 -4 -4 -6.5t-3 -4.5q-11 -23 -31.5 -42t-37.5 -32
q-7 -6 -20 -8h-7q-3 0 -7 2q-12 3 -18 10t-9 18q-1 2 -1 3q-2 8 1 15q1 3 2.5 5t1.5 5q4 8 5 12q4 14 7.5 23t9.5 23l6 14t7 14t8.5 13t9.5 12q5 8 9 15t9 15q4 6 11 7q4 4 11 4q11 2 25 4t22 -6q2 -2 4 -2.5t4 -2.5q3 -5 5 -9t5 -9q2 -5 3 -9.5t0 -10.5v-11zM82 265
q0 4 -1 5q-5 6 -8 12l-6 12q-1 2 -5 4q-1 1 -5 1q-2 0 -5 -3q-5 -7 -10 -16q-11 -20 -17 -36t-12 -38v-3q-1 -2 -0.5 -4t2.5 -2q3 -2 5 0q21 8 36 27t25 36q1 2 1 5zM114 334q0 2 -2 4q-4 0 -4 -1q-14 -11 -17 -29q-1 -2 -0.5 -3.5t0.5 -3.5q0 -1 2 -5q2 -2 4.5 -2t4.5 2
q3 3 5 6q4 6 5 14l2 16v2zM61 455q8 22 24 40t32 29q10 8 21 8q3 0 4 -1q13 -2 18.5 -7t14.5 -13q4 -6 -1 -6q-7 -1 -12 -3.5t-10 -5.5q-2 -2 -3 -3.5t-3 -3.5q-7 -7 -13.5 -13t-13.5 -12q-9 -9 -19 -16q-4 -4 -8.5 -7t-7.5 -8q-1 -2 -2.5 -2.5t-2.5 -2.5q-4 -2 -5 -1.5
t-4 2.5q-8 6 -10 17q0 2 -0.5 4.5t1.5 4.5z" />
    <glyph glyph-name="ocircumflex" unicode="&#xf4;" 
d="M140 307q0 -3 -1 -7q0 -8 9 -8h10q8 2 21.5 2t21.5 2h14q2 -2 2 -4q4 -6 -1 -9q-1 -3 -2.5 -3.5t-3.5 -2.5q-4 -4 -6 -4q-11 -3 -25.5 -5t-24.5 -5q-16 -7 -31 -7q-2 -1 -3.5 -2t-3.5 -2q-2 -2 -2.5 -3.5t-1.5 -2.5q-3 -4 -4 -6.5t-3 -4.5q-11 -23 -31.5 -42t-37.5 -32
q-7 -6 -20 -8h-7q-3 0 -7 2q-12 3 -18 10t-9 18q-1 2 -1 3q-2 8 1 15q1 3 2.5 5t1.5 5q4 8 5 12q4 14 7.5 23t9.5 23l6 14t7 14t8.5 13t9.5 12q5 8 9 15t9 15q4 6 11 7q4 4 11 4q11 2 25 4t22 -6q2 -2 4 -2.5t4 -2.5q3 -5 5 -9t5 -9q2 -5 3 -9.5t0 -10.5v-11zM82 265
q0 4 -1 5q-5 6 -8 12l-6 12q-1 2 -5 4q-1 1 -5 1q-2 0 -5 -3q-5 -7 -10 -16q-11 -20 -17 -36t-12 -38v-3q-1 -2 -0.5 -4t2.5 -2q3 -2 5 0q21 8 36 27t25 36q1 2 1 5zM114 334q0 2 -2 4q-4 0 -4 -1q-14 -11 -17 -29q-1 -2 -0.5 -3.5t0.5 -3.5q0 -1 2 -5q2 -2 4.5 -2t4.5 2
q3 3 5 6q4 6 5 14l2 16v2zM146 542v-2h1q16 -13 16 -35q0 -10 2 -18.5t4 -16.5q2 -4 2 -11q0 -5 -4.5 -9.5t-8.5 -4.5t-6 3t-4.5 4.5t-4.5 6.5q-3 5 -4.5 10.5t-5.5 10.5q-1 2 -2 5l-2 6q-9 -9 -13 -18q-5 -3 -7.5 -6.5t-7.5 -7.5q-3 -5 -7 -7.5t-8 -7.5q-5 -3 -6 -3
q-8 -6 -15 3q-2 5 -4.5 7.5t-3.5 7.5q19 19 37 39.5t33 43.5h19z" />
    <glyph glyph-name="otilde" unicode="&#xf5;" 
d="M140 307q0 -3 -1 -7q0 -8 9 -8h10q8 2 21.5 2t21.5 2h14q2 -2 2 -4q4 -6 -1 -9q-1 -3 -2.5 -3.5t-3.5 -2.5q-4 -4 -6 -4q-11 -3 -25.5 -5t-24.5 -5q-16 -7 -31 -7q-2 -1 -3.5 -2t-3.5 -2q-2 -2 -2.5 -3.5t-1.5 -2.5q-3 -4 -4 -6.5t-3 -4.5q-11 -23 -31.5 -42t-37.5 -32
q-7 -6 -20 -8h-7q-3 0 -7 2q-12 3 -18 10t-9 18q-1 2 -1 3q-2 8 1 15q1 3 2.5 5t1.5 5q4 8 5 12q4 14 7.5 23t9.5 23l6 14t7 14t8.5 13t9.5 12q5 8 9 15t9 15q4 6 11 7q4 4 11 4q11 2 25 4t22 -6q2 -2 4 -2.5t4 -2.5q3 -5 5 -9t5 -9q2 -5 3 -9.5t0 -10.5v-11zM82 265
q0 4 -1 5q-5 6 -8 12l-6 12q-1 2 -5 4q-1 1 -5 1q-2 0 -5 -3q-5 -7 -10 -16q-11 -20 -17 -36t-12 -38v-3q-1 -2 -0.5 -4t2.5 -2q3 -2 5 0q21 8 36 27t25 36q1 2 1 5zM114 334q0 2 -2 4q-4 0 -4 -1q-14 -11 -17 -29q-1 -2 -0.5 -3.5t0.5 -3.5q0 -1 2 -5q2 -2 4.5 -2t4.5 2
q3 3 5 6q4 6 5 14l2 16v2zM58 501q23 0 33 -16q4 -4 6.5 -8.5t6.5 -7.5q5 -11 15.5 -12.5t19.5 2.5q18 7 34 26q4 7 7 10q1 4 6 4t7 -3q1 -2 3.5 -3.5t4.5 -5.5q11 -10 2 -23q-8 -19 -27 -27q-7 -4 -14 -5.5t-15 -3.5q-13 -7 -28 1q-14 6 -26 12.5t-23 18.5q-2 3 -4 4.5
l-6 4.5q-4 2 -7 0q-5 -5 -8 -10t-8 -8q-2 -6 -10 -9q-12 -7 -23 0q-2 3 -8 7q-4 4 0 6q5 7 10.5 11.5t9.5 8.5q8 8 15 13.5t16 7.5q2 3 6 4t5 1z" />
    <glyph glyph-name="odieresis" unicode="&#xf6;" 
d="M140 307q0 -3 -1 -7q0 -8 9 -8h10q8 2 21.5 2t21.5 2h14q2 -2 2 -4q4 -6 -1 -9q-1 -3 -2.5 -3.5t-3.5 -2.5q-4 -4 -6 -4q-11 -3 -25.5 -5t-24.5 -5q-16 -7 -31 -7q-2 -1 -3.5 -2t-3.5 -2q-2 -2 -2.5 -3.5t-1.5 -2.5q-3 -4 -4 -6.5t-3 -4.5q-11 -23 -31.5 -42t-37.5 -32
q-7 -6 -20 -8h-7q-3 0 -7 2q-12 3 -18 10t-9 18q-1 2 -1 3q-2 8 1 15q1 3 2.5 5t1.5 5q4 8 5 12q4 14 7.5 23t9.5 23l6 14t7 14t8.5 13t9.5 12q5 8 9 15t9 15q4 6 11 7q4 4 11 4q11 2 25 4t22 -6q2 -2 4 -2.5t4 -2.5q3 -5 5 -9t5 -9q2 -5 3 -9.5t0 -10.5v-11zM82 265
q0 4 -1 5q-5 6 -8 12l-6 12q-1 2 -5 4q-1 1 -5 1q-2 0 -5 -3q-5 -7 -10 -16q-11 -20 -17 -36t-12 -38v-3q-1 -2 -0.5 -4t2.5 -2q3 -2 5 0q21 8 36 27t25 36q1 2 1 5zM114 334q0 2 -2 4q-4 0 -4 -1q-14 -11 -17 -29q-1 -2 -0.5 -3.5t0.5 -3.5q0 -1 2 -5q2 -2 4.5 -2t4.5 2
q3 3 5 6q4 6 5 14l2 16v2zM18 479q5 2 9 1.5t7 1.5q10 6 18.5 0t13 -15.5t4 -19t-7.5 -9.5q-22 -7 -47 12q-3 1 -5 6t-2 10t2.5 9t7.5 4zM158 479q5 2 9 1.5t7 1.5q10 6 18.5 0t13 -15.5t4 -19t-7.5 -9.5q-22 -7 -47 12q-3 1 -5 6t-2 10t2.5 9t7.5 4z" />
    <glyph glyph-name="oslash" unicode="&#xf8;" 
d="M-23 136q5 5 9 10.5t8 11.5q-15 7 -19 25q-1 2 -1 3q-2 8 1 15q1 3 2.5 5t1.5 5q4 8 5 12q4 14 7.5 23t9.5 23l6 14t7 14t8.5 13t9.5 12q5 8 9 15t9 15q4 6 11 7q4 4 11 4q6 1 13 2.5t15 1.5l8 22q3 8 4 11t3 11q9 0 13 -3.5t5.5 -8.5t0.5 -10.5t-4 -8.5
q-2 -5 -4.5 -10.5t-5.5 -10.5q2 -1 3.5 -1t3.5 -2q3 -5 5 -9t5 -9q2 -5 3 -9.5t0 -10.5v-11q0 -3 -1 -7q0 -8 9 -8h10q8 2 21.5 2t21.5 2h14q2 -2 2 -4q4 -6 -1 -9q-1 -3 -2.5 -3.5t-3.5 -2.5q-4 -4 -6 -4q-11 -3 -25.5 -5t-24.5 -5q-16 -7 -31 -7q-2 -1 -3.5 -2t-3.5 -2
q-2 -2 -2.5 -3.5t-1.5 -2.5q-3 -4 -4 -6.5t-3 -4.5q-11 -23 -31.5 -42t-37.5 -32q-7 -6 -20 -8h-7q-3 -6 -6.5 -11t-6.5 -10q-2 -4 -7 -6t-9.5 -2t-6 3t3.5 9zM15 197q0 -1 1 -1q12 26 25 50.5t25 48.5l-4 3q-1 1 -5 1q-2 0 -5 -3q-5 -7 -10 -16q-11 -20 -17 -36t-12 -38v-3
q-1 -2 -0.5 -4t2.5 -2zM114 334q0 2 -2 4h-2l-19 -39q0 -1 2 -3t4.5 -2t4.5 2l5 6q4 6 5 14l2 16v2zM82 265q0 4 -1 5l-3 3q-4 -8 -8 -15t-7 -14l-19 -32q12 11 21 24t16 24q1 2 1 5z" />
    <glyph glyph-name="ugrave" unicode="&#xf9;" horiz-adv-x="289" 
d="M63 363q4 -2 8 -3.5t6 -1.5q5 -6 3 -8q-8 -12 -20 -35.5t-21.5 -45.5t-13 -36.5t7.5 -8.5q6 4 9 6.5t7 4.5q27 24 54 50.5t53 50.5q6 7 11 10.5t13 3.5q4 2 9.5 -0.5t16.5 -10.5q0 -4 -0.5 -10.5t-4.5 -8.5q-14 -10 -19 -24.5t-16 -28.5q-8 -12 -10.5 -26.5t5.5 -32.5
h9.5t9.5 2q22 6 42.5 12.5t40.5 14.5q12 5 24.5 10.5t27.5 5.5q-2 -6 -10 -18t-12 -14q-20 -14 -43.5 -24.5t-45.5 -21.5q-10 -4 -18.5 -6t-19.5 -2q-8 -1 -17 3t-16 10.5t-11.5 15.5t-3.5 17q0 8 1.5 18t1.5 22q-5 -4 -8.5 -6.5t-5.5 -6.5q-12 -14 -26 -28.5t-26 -28.5
q-6 -4 -14 -9t-16 -7q-12 -7 -24 5q-7 7 -11 14.5t-4 18.5q0 16 5 30.5t10 28.5q10 24 21 45t22 44q2 4 4 6t7 4h8zM208 461q2 -2 1.5 -4.5t-0.5 -4.5q-2 -11 -10 -17q-3 -2 -4 -2.5t-5 1.5q-1 2 -2.5 2.5t-2.5 2.5q-3 5 -7.5 8t-8.5 7q-11 7 -19 16q-7 6 -13.5 12t-13.5 13
q-2 2 -3 3.5t-3 3.5q-5 3 -10 5.5t-12 3.5q-5 0 -1 6q9 8 14.5 13t18.5 7q1 1 4 1q11 0 21 -8q16 -11 32 -29t24 -40z" />
    <glyph glyph-name="uacute" unicode="&#xfa;" horiz-adv-x="289" 
d="M63 363q4 -2 8 -3.5t6 -1.5q5 -6 3 -8q-8 -12 -20 -35.5t-21.5 -45.5t-13 -36.5t7.5 -8.5q6 4 9 6.5t7 4.5q27 24 54 50.5t53 50.5q6 7 11 10.5t13 3.5q4 2 9.5 -0.5t16.5 -10.5q0 -4 -0.5 -10.5t-4.5 -8.5q-14 -10 -19 -24.5t-16 -28.5q-8 -12 -10.5 -26.5t5.5 -32.5
h9.5t9.5 2q22 6 42.5 12.5t40.5 14.5q12 5 24.5 10.5t27.5 5.5q-2 -6 -10 -18t-12 -14q-20 -14 -43.5 -24.5t-45.5 -21.5q-10 -4 -18.5 -6t-19.5 -2q-8 -1 -17 3t-16 10.5t-11.5 15.5t-3.5 17q0 8 1.5 18t1.5 22q-5 -4 -8.5 -6.5t-5.5 -6.5q-12 -14 -26 -28.5t-26 -28.5
q-6 -4 -14 -9t-16 -7q-12 -7 -24 5q-7 7 -11 14.5t-4 18.5q0 16 5 30.5t10 28.5q10 24 21 45t22 44q2 4 4 6t7 4h8zM112 457q8 22 24 40t32 29q10 8 21 8q3 0 4 -1q13 -2 18.5 -7t14.5 -13q4 -6 -1 -6q-7 -1 -12 -3.5t-10 -5.5q-2 -2 -3 -3.5t-3 -3.5q-7 -7 -13.5 -13
t-13.5 -12q-9 -9 -19 -16q-4 -4 -8.5 -7t-7.5 -8q-1 -2 -2.5 -2.5t-2.5 -2.5q-4 -2 -5 -1.5t-4 2.5q-8 6 -10 17q0 2 -0.5 4.5t1.5 4.5z" />
    <glyph glyph-name="ucircumflex" unicode="&#xfb;" horiz-adv-x="289" 
d="M63 363q4 -2 8 -3.5t6 -1.5q5 -6 3 -8q-8 -12 -20 -35.5t-21.5 -45.5t-13 -36.5t7.5 -8.5q6 4 9 6.5t7 4.5q27 24 54 50.5t53 50.5q6 7 11 10.5t13 3.5q4 2 9.5 -0.5t16.5 -10.5q0 -4 -0.5 -10.5t-4.5 -8.5q-14 -10 -19 -24.5t-16 -28.5q-8 -12 -10.5 -26.5t5.5 -32.5
h9.5t9.5 2q22 6 42.5 12.5t40.5 14.5q12 5 24.5 10.5t27.5 5.5q-2 -6 -10 -18t-12 -14q-20 -14 -43.5 -24.5t-45.5 -21.5q-10 -4 -18.5 -6t-19.5 -2q-8 -1 -17 3t-16 10.5t-11.5 15.5t-3.5 17q0 8 1.5 18t1.5 22q-5 -4 -8.5 -6.5t-5.5 -6.5q-12 -14 -26 -28.5t-26 -28.5
q-6 -4 -14 -9t-16 -7q-12 -7 -24 5q-7 7 -11 14.5t-4 18.5q0 16 5 30.5t10 28.5q10 24 21 45t22 44q2 4 4 6t7 4h8zM176 567v-2h1q16 -13 16 -35q0 -10 2 -18.5t4 -16.5q2 -4 2 -11q0 -5 -4.5 -9.5t-8.5 -4.5t-6 3t-4.5 4.5t-4.5 6.5q-3 5 -4.5 10.5t-5.5 10.5q-1 2 -2 5
l-2 6q-9 -9 -13 -18q-5 -3 -7.5 -6.5t-7.5 -7.5q-3 -5 -7 -7.5t-8 -7.5q-5 -3 -6 -3q-8 -6 -15 3q-2 5 -4.5 7.5t-3.5 7.5q19 19 37 39.5t33 43.5h19z" />
    <glyph glyph-name="udieresis" unicode="&#xfc;" horiz-adv-x="289" 
d="M63 363q4 -2 8 -3.5t6 -1.5q5 -6 3 -8q-8 -12 -20 -35.5t-21.5 -45.5t-13 -36.5t7.5 -8.5q6 4 9 6.5t7 4.5q27 24 54 50.5t53 50.5q6 7 11 10.5t13 3.5q4 2 9.5 -0.5t16.5 -10.5q0 -4 -0.5 -10.5t-4.5 -8.5q-14 -10 -19 -24.5t-16 -28.5q-8 -12 -10.5 -26.5t5.5 -32.5
h9.5t9.5 2q22 6 42.5 12.5t40.5 14.5q12 5 24.5 10.5t27.5 5.5q-2 -6 -10 -18t-12 -14q-20 -14 -43.5 -24.5t-45.5 -21.5q-10 -4 -18.5 -6t-19.5 -2q-8 -1 -17 3t-16 10.5t-11.5 15.5t-3.5 17q0 8 1.5 18t1.5 22q-5 -4 -8.5 -6.5t-5.5 -6.5q-12 -14 -26 -28.5t-26 -28.5
q-6 -4 -14 -9t-16 -7q-12 -7 -24 5q-7 7 -11 14.5t-4 18.5q0 16 5 30.5t10 28.5q10 24 21 45t22 44q2 4 4 6t7 4h8zM55 481q5 2 9 1.5t7 1.5q10 6 18.5 0t13 -15.5t4 -19t-7.5 -9.5q-22 -7 -47 12q-3 1 -5 6t-2 10t2.5 9t7.5 4zM195 481q5 2 9 1.5t7 1.5q10 6 18.5 0
t13 -15.5t4 -19t-7.5 -9.5q-22 -7 -47 12q-3 1 -5 6t-2 10t2.5 9t7.5 4z" />
    <glyph glyph-name="yacute" unicode="&#xfd;" horiz-adv-x="229" 
d="M83 21q3 -9 1 -14q-16 -35 -32 -69.5t-33 -69.5q-12 -19 -25.5 -37t-26.5 -35q-11 -14 -25 -23.5t-31 -13.5q-20 -8 -36.5 -7t-30.5 15q-4 3 -4 8q-8 16 -4.5 34.5t9.5 36.5l18 36t23 30q5 5 8 10t7 10q21 32 47 60t51 57q14 16 31.5 30t34.5 28q14 8 24 19.5t21 23.5
q5 9 11 18.5t5 20.5q2 12 8.5 23t2.5 25q-3 -2 -5 -2.5t-4 -2.5l-14 -12l-14 -12q-10 -8 -19 -14t-20 -8q-20 -6 -35.5 0t-19.5 32q3 8 6 19t5 22q2 14 7.5 23t10.5 19q6 11 13 21t13 23q4 10 12 16t17 8q11 2 18 -1.5t7 -17.5q-17 -24 -32.5 -51t-26.5 -56q5 -5 8 -3.5
t6 5.5q47 37 87 86q10 11 22 22q6 -2 12.5 -4t15.5 -4q-2 -13 -1.5 -25t-6.5 -24q-14 -28 -20 -54.5t-15 -55.5q1 -1 1 -2v-6q5 2 10 2.5t9 0.5q0 -1 1 -2q0 -1 0.5 -2t0.5 -2q-7 -6 -9 -8q-23 -11 -33.5 -30t-17.5 -39q-8 -16 -15.5 -32.5t-14.5 -31.5q-2 -4 -6 -7.5
t-7 -8.5q3 5 3.5 7t1.5 4q-1 -2 -1.5 -4t-3.5 -4zM86 90q-10 0 -17.5 -5t-14.5 -12q-10 -6 -18 -14t-17 -16q-8 -8 -18 -16.5t-19 -16.5q-12 -12 -23.5 -26t-19.5 -31q-9 -20 -21 -39t-21 -38q-9 -14 -14 -30t-9 -30q-2 -15 5.5 -20.5t19.5 0.5q8 5 17 12.5t15 15.5
q17 19 32 36.5t26 43.5q1 6 5 11t8 11q8 13 17 23.5t14 22.5q9 20 19.5 39t19.5 38q5 8 10 18t4 23zM114 457q8 22 24 40t32 29q10 8 21 8q3 0 4 -1q13 -2 18.5 -7t14.5 -13q4 -6 -1 -6q-7 -1 -12 -3.5t-10 -5.5q-2 -2 -3 -3.5t-3 -3.5q-7 -7 -13.5 -13t-13.5 -12
q-9 -9 -19 -16q-4 -4 -8.5 -7t-7.5 -8q-1 -2 -2.5 -2.5t-2.5 -2.5q-4 -2 -5 -1.5t-4 2.5q-8 6 -10 17q0 2 -0.5 4.5t1.5 4.5z" />
    <glyph glyph-name="ydieresis" unicode="&#xff;" horiz-adv-x="229" 
d="M83 21q3 -9 1 -14q-16 -35 -32 -69.5t-33 -69.5q-12 -19 -25.5 -37t-26.5 -35q-11 -14 -25 -23.5t-31 -13.5q-20 -8 -36.5 -7t-30.5 15q-4 3 -4 8q-8 16 -4.5 34.5t9.5 36.5l18 36t23 30q5 5 8 10t7 10q21 32 47 60t51 57q14 16 31.5 30t34.5 28q14 8 24 19.5t21 23.5
q5 9 11 18.5t5 20.5q2 12 8.5 23t2.5 25q-3 -2 -5 -2.5t-4 -2.5l-14 -12l-14 -12q-10 -8 -19 -14t-20 -8q-20 -6 -35.5 0t-19.5 32q3 8 6 19t5 22q2 14 7.5 23t10.5 19q6 11 13 21t13 23q4 10 12 16t17 8q11 2 18 -1.5t7 -17.5q-17 -24 -32.5 -51t-26.5 -56q5 -5 8 -3.5
t6 5.5q47 37 87 86q10 11 22 22q6 -2 12.5 -4t15.5 -4q-2 -13 -1.5 -25t-6.5 -24q-14 -28 -20 -54.5t-15 -55.5q1 -1 1 -2v-6q5 2 10 2.5t9 0.5q0 -1 1 -2q0 -1 0.5 -2t0.5 -2q-7 -6 -9 -8q-23 -11 -33.5 -30t-17.5 -39q-8 -16 -15.5 -32.5t-14.5 -31.5q-2 -4 -6 -7.5
t-7 -8.5q3 5 3.5 7t1.5 4q-1 -2 -1.5 -4t-3.5 -4zM86 90q-10 0 -17.5 -5t-14.5 -12q-10 -6 -18 -14t-17 -16q-8 -8 -18 -16.5t-19 -16.5q-12 -12 -23.5 -26t-19.5 -31q-9 -20 -21 -39t-21 -38q-9 -14 -14 -30t-9 -30q-2 -15 5.5 -20.5t19.5 0.5q8 5 17 12.5t15 15.5
q17 19 32 36.5t26 43.5q1 6 5 11t8 11q8 13 17 23.5t14 22.5q9 20 19.5 39t19.5 38q5 8 10 18t4 23zM58 485q5 2 9 1.5t7 1.5q10 6 18.5 0t13 -15.5t4 -19t-7.5 -9.5q-22 -7 -47 12q-3 1 -5 6t-2 10t2.5 9t7.5 4zM198 485q5 2 9 1.5t7 1.5q10 6 18.5 0t13 -15.5t4 -19
t-7.5 -9.5q-22 -7 -47 12q-3 1 -5 6t-2 10t2.5 9t7.5 4z" />
    <glyph glyph-name="Ydieresis" unicode="&#x178;" horiz-adv-x="451" 
d="M450 559q-7 0 -7 -3q-17 -17 -37.5 -44t-41.5 -50q-42 -46 -84 -87.5t-77 -71.5q-14 -13 -33.5 -23t-40.5 -15q-17 -4 -29.5 -5t-22 1t-18.5 7.5t-19 15.5q-8 6 -11 13.5t-3 15.5q-2 16 -1.5 29t5.5 27q8 31 21 60t27 56q2 9 7 16.5t8 18.5q3 8 9 15.5t9 15.5
q11 16 20 33t18 32q0 4 1 5l2 2q23 37 48 49.5t50 -8.5q3 0 1.5 -2.5t-1.5 -4.5q0 -1 -4.5 -5t-10 -8.5t-10 -8.5t-4.5 -5q-28 -37 -46 -71t-43 -76q-9 -17 -19.5 -36t-20 -38t-18 -38t-12.5 -35q-5 -16 0 -31q0 -5 7 -10q22 -2 39.5 3.5t33 15.5t29.5 22.5t29 23.5
q31 26 59.5 56.5t58.5 55.5q15 18 31.5 37t33.5 43t33.5 53.5t31.5 67.5q3 8 1 11.5t-5 8.5q-3 4 -1 6t5 2q11 2 22.5 3t22.5 4q6 0 12 -2.5t11 -4.5q5 -6 8 -11t3 -13q-3 -22 -7.5 -42.5t-7.5 -39.5q-8 -46 -26 -87.5t-38 -83.5q-22 -50 -42 -96.5t-47 -89.5
q-5 -11 -11 -23t-11 -25q-8 -17 -17 -32t-17 -30q-17 -32 -35 -60.5t-35 -56.5q-11 -20 -23 -38t-29 -36q-9 -8 -13.5 -15.5t-10.5 -15.5q-10 -12 -22.5 -24.5t-35.5 -20.5q-32 -14 -51 -11.5t-29 15t-13 32.5t-3 42q-6 19 -1.5 34t4.5 30q0 4 5 15.5t11.5 25t12.5 24.5
t8 13q3 3 4 6.5t4 8.5q26 38 58.5 75.5t74.5 66.5q16 11 35 18t33 -1q-15 -14 -27 -20t-25 -14.5t-29.5 -24t-41.5 -46.5q-18 -23 -33.5 -52t-29.5 -52q-17 -33 -23.5 -77.5t-3.5 -80.5l4 -4q0 -3 6 -3q4 0 15 6.5t23 15t22 17t13 12.5q18 22 36.5 43t36.5 47q11 14 22 31.5
t19 32.5q13 25 28 49q15 23 25.5 47.5t26.5 45.5q27 55 56.5 110t41.5 106q1 6 6.5 21t11.5 32.5t11.5 33t6.5 22.5v6v0zM272 802q5 2 9 1.5t7 1.5q10 6 18.5 0t13 -15.5t4 -19t-7.5 -9.5q-22 -7 -47 12q-3 1 -5 6t-2 10t2.5 9t7.5 4zM412 802q5 2 9 1.5t7 1.5q10 6 18.5 0
t13 -15.5t4 -19t-7.5 -9.5q-22 -7 -47 12q-3 1 -5 6t-2 10t2.5 9t7.5 4z" />
    <glyph glyph-name="circumflex" unicode="&#x2c6;" horiz-adv-x="188" 
d="M118 567v-2h1q16 -13 16 -35q0 -10 2 -18.5t4 -16.5q2 -4 2 -11q0 -5 -4.5 -9.5t-8.5 -4.5t-6 3t-4.5 4.5t-4.5 6.5q-3 5 -4.5 10.5t-5.5 10.5q-1 2 -2 5l-2 6q-9 -9 -13 -18q-5 -3 -7.5 -6.5t-7.5 -7.5q-3 -5 -7 -7.5t-8 -7.5q-5 -3 -6 -3q-8 -6 -15 3q-2 5 -4.5 7.5
t-3.5 7.5q19 19 37 39.5t33 43.5h19z" />
    <glyph glyph-name="ring" unicode="&#x2da;" horiz-adv-x="228" 
d="M56 510q6 2 11 3t10 3q5 -5 10 -8t12 -8q6 4 10 6q11 5 23 3q5 -2 12.5 -3t15.5 -4q1 -2 3.5 -3.5t4.5 -5.5q12 -9 6 -25q-12 -35 -47 -59q-5 -3 -12.5 -6.5t-15.5 -5.5q-15 -3 -27.5 0.5t-23.5 17.5q-13 14 -5 34q5 22 12 44l2 8t-1 9zM146 476q-4 4 -7 4h-8.5t-8.5 -2
q-7 0 -12 1t-11 1q-12 0 -14 -10q-3 -7 -5 -14.5t-5 -15.5q-2 -5 1.5 -8t6.5 -3q2 0 4 0.5t3 2.5q15 6 30 17q5 2 10 6.5t9 9.5q2 2 3.5 5t3.5 6z" />
    <glyph glyph-name="tilde" unicode="&#x2dc;" horiz-adv-x="272" 
d="M90 593q23 0 33 -16q4 -4 6.5 -8.5t6.5 -7.5q5 -11 15.5 -12.5t19.5 2.5q18 7 34 26q4 7 7 10q1 4 6 4t7 -3q1 -2 3.5 -3.5t4.5 -5.5q11 -10 2 -23q-8 -19 -27 -27q-7 -4 -14 -5.5t-15 -3.5q-13 -7 -28 1q-14 6 -26 12.5t-23 18.5q-2 3 -4 4.5l-6 4.5q-4 2 -7 0
q-5 -5 -8 -10t-8 -8q-2 -6 -10 -9q-12 -7 -23 0q-2 3 -8 7q-4 4 0 6q5 7 10.5 11.5t9.5 8.5q8 8 15 13.5t16 7.5q2 3 6 4t5 1z" />
    <glyph glyph-name="quoteleft" unicode="&#x2018;" horiz-adv-x="124" 
d="M19 680q4 2 7.5 3.5t9.5 1.5q4 2 7.5 3t7.5 3q3 4 6.5 2t1.5 -5q2 -21 11 -38t20 -34q5 -13 12 -23t15 -22q0 -2 -1.5 -7t-6.5 -7q-2 0 -5 -1q-29 0 -44 23q-10 14 -20 28.5t-18 30.5q-5 7 -6 15q-5 6 -3.5 13t6.5 14z" />
    <glyph glyph-name="quoteright" unicode="&#x2019;" horiz-adv-x="124" 
d="M108 680q5 -7 6.5 -14t-3.5 -13q-2 -8 -6 -15q-8 -16 -18 -30.5t-20 -28.5q-15 -23 -44 -23q-3 1 -5 1q-5 2 -6.5 7t-1.5 7q8 12 15 22t12 23q11 17 20 34t11 38q-2 3 1.5 5t6.5 -2q4 -2 7.5 -3t7.5 -3q6 0 9.5 -1.5t7.5 -3.5z" />
    <glyph glyph-name="quotedblleft" unicode="&#x201c;" horiz-adv-x="190" 
d="M18 680q4 2 7.5 3.5t9.5 1.5q4 2 7.5 3t7.5 3q3 4 6.5 2t1.5 -5q2 -21 11 -38t20 -34q5 -13 12 -23t15 -22q0 -2 -1.5 -7t-6.5 -7q-2 0 -5 -1q-29 0 -44 23q-10 14 -20 28.5t-18 30.5q-5 7 -6 15q-5 6 -3.5 13t6.5 14zM126 697q2 -8 3 -12.5t3 -10.5q8 -10 10 -18
q5 -5 7 -15q5 -14 13 -25q5 -5 7 -11.5t7 -11.5t5.5 -12.5t3.5 -12.5q-1 -3 -9 -5q-2 -1 -4.5 -2t-4.5 -1l-18 10.5t-9 6.5t-5.5 7.5t-8.5 12.5q-6 9 -11.5 18.5t-11.5 17.5q-3 6 -5.5 12.5t-6.5 11.5t-3.5 11t2.5 11q6 8 16.5 10t19.5 8z" />
    <glyph glyph-name="quotedblright" unicode="&#x201d;" horiz-adv-x="190" 
d="M176 680q5 -7 6.5 -14t-3.5 -13q-2 -8 -6 -15q-8 -16 -18 -30.5t-20 -28.5q-15 -23 -44 -23q-3 1 -5 1q-5 2 -6.5 7t-1.5 7q8 12 15 22t12 23q11 17 20 34t11 38q-2 3 1.5 5t6.5 -2q4 -2 7.5 -3t7.5 -3q6 0 9.5 -1.5t7.5 -3.5zM68 697q9 -6 19.5 -8t16.5 -10
q2 -5 2.5 -11t-3.5 -11t-6.5 -11.5t-5.5 -12.5q-6 -8 -11.5 -17.5t-11.5 -18.5q-6 -8 -8.5 -12.5t-5.5 -7.5t-9 -6.5l-18 -10.5q-2 0 -4.5 1t-4.5 2q-8 2 -9 5q3 5 3.5 12.5t5.5 12.5t7 11.5t7 11.5q8 11 13 25q2 10 7 15q2 8 10 18q2 6 3 10.5t3 12.5z" />
    <glyph glyph-name="Euro" unicode="&#x20ac;" horiz-adv-x="351" 
d="M136 299q26 -3 49 2q14 1 28.5 0.5t28.5 -0.5q2 0 4 -1l6 -3q-2 -11 -12 -15q-7 -4 -13 -7t-14 -3q-3 0 -6 -1t-8 -3q-5 -1 -10.5 -1h-10.5q-15 -2 -28.5 -5t-27.5 -6q-5 -2 -6.5 -5l-3.5 -7q-3 -10 -4.5 -21.5t-3.5 -22.5v-2q2 -23 8.5 -30.5t27.5 -9.5q12 -2 24.5 0.5
t24.5 4.5q27 8 53 15.5t52 15.5q9 3 17 8t18 5q4 0 4 -2q2 0 1 -1.5t-1 -3.5v-2q-7 -5 -13 -10t-14 -10q-13 -10 -28.5 -16t-32.5 -11q-15 -3 -28 -11q-12 -4 -24 -6.5t-25 -4.5q-41 -6 -79 20q-12 9 -18 26q-3 8 -4.5 16t0.5 18q2 6 2.5 12.5t1.5 12.5q0 2 -2 5t-4 1
q-8 0 -15 -2t-13 -4q-15 0 -21 10q-2 2 -5.5 7t-1.5 11q2 0 1 2.5t-3 3.5v4l1 1q2 2 3 2q4 -4 9.5 -4.5t10.5 1.5q14 4 26 8.5t26 7.5q5 0 8 5q5 5 8 12.5t5 16.5q-5 3 -9.5 2.5t-9.5 -0.5q-11 -2 -19.5 -1.5t-18.5 3.5q-8 2 -11.5 6.5t-7.5 8.5q-2 2 -0.5 5.5t3.5 5.5
q2 0 4 1t3 1q19 -2 37 1.5t35 5.5h9q15 3 23 14q11 17 23 32.5t24 30.5q6 8 13.5 16t12.5 18q11 6 19.5 17t19.5 17q13 8 35 13q9 2 17 1t16 -6q5 -3 8 -5t5 -7q3 -11 -4 -13q-7 -4 -14 -5.5t-15 5.5q-9 6 -18 0q-34 -20 -59 -45q-28 -31 -55 -69q-2 -2 -2 -3.5t-2 -4.5
q3 -6 10 -6h43q12 0 24.5 -2.5t25.5 -4.5q7 -2 13 -4t12 -9q2 -2 2 -7q0 -8 -7 -8q-2 0 -3.5 -1t-3.5 -1h-16.5t-15.5 2q-22 2 -43 3.5t-43 1.5h-8q-11 0 -18 -16q-2 -4 -4 -7.5t2 -8.5z" />
    </font>
</defs>
</svg>
